<svg xmlns="http://www.w3.org/2000/svg" xml:space="preserve" style="enable-background:new 0 0 140 24.4" viewBox="0 0 140 24.4"><linearGradient id="a" x1="10.919" x2="49.789" y1="1071.343" y2="1042.509" gradientTransform="translate(0 -1047.87)" gradientUnits="userSpaceOnUse"><stop offset=".25" style="stop-color:#b08529"/><stop offset=".81" style="stop-color:#c99d3d"/><stop offset="1" style="stop-color:#b88d31"/></linearGradient><path d="M26.8 24.3C16 23.7 6.1 18 .2 9c2.9 4.3 10.1 6.2 14.9 5.7 5.9-.6 11.2-4.5 15.9-7.8C36.5 2.9 42.3 0 49.1 0 53 .1 59 3.3 57 8.7c-.3.7-.7 1.5-1.1 2-6.9 9.2-17.7 14.2-29.1 13.6z" style="fill:url(#a)"/><linearGradient id="b" x1="46.895" x2="7.995" y1="1071.641" y2="1042.785" gradientTransform="translate(0 -1047.87)" gradientUnits="userSpaceOnUse"><stop offset="0" style="stop-color:#b08529;stop-opacity:.9"/><stop offset=".32" style="stop-color:#efd08e;stop-opacity:.65"/><stop offset=".72" style="stop-color:#f4d48e;stop-opacity:.9"/><stop offset=".8" style="stop-color:#f5d692;stop-opacity:.9"/><stop offset=".91" style="stop-color:#f7db9e;stop-opacity:.95"/><stop offset="1" style="stop-color:#fae1ad"/></linearGradient><path d="M30.6 24.4c10.8-.7 20.7-6.3 26.6-15.4-2.9 4.3-10.1 6.2-14.9 5.7-5.9-.6-11.2-4.6-15.9-7.9C20.9 2.9 15.1-.1 8.3 0 4.4.1-1.6 3.3.4 8.7c.2.7.7 1.5 1.1 2C8.4 19.9 19.3 25 30.6 24.4z" style="fill:url(#b)"/><path d="m71 20.3-4.3-14v-.2c0-.2.1-.3.2-.5s.2-.2.5-.2h2.3c.2 0 .4.1.6.2.2.1.2.2.2.4l2.9 10 3.1-10c.1-.2.2-.3.3-.5.2-.2.4-.2.6-.2H79c.2 0 .4.1.6.2.2.1.2.2.3.4l3.1 9.9 2.9-10c.1-.1.1-.2.2-.3.2-.1.3-.2.6-.2H89c.2 0 .3.1.5.2.2.2.2.3.2.5l-.1.2-4.3 14.1-.3.6c-.2.2-.4.2-.7.2h-2c-.5 0-.9-.3-1-.7l-3.2-9.5-3.1 9.4c-.1.5-.6.8-1.1.7h-2c-.4.1-.8-.2-.9-.7zm22.8.5c-.8-.4-1.5-1-2-1.7s-.7-1.5-.7-2.3c0-1.3.6-2.5 1.6-3.4 1.4-1 2.9-1.6 4.6-1.7l4.2-.6v-.7c.1-.7-.2-1.4-.7-2-.6-.5-1.4-.7-2.1-.7-.6 0-1.1.1-1.6.3-.3.2-.7.5-1 .7l-.5.5c-.1.2-.2.4-.5.3h-2.4c-.2 0-.3-.1-.5-.2-.2.1-.3-.1-.2-.2.1-.7.3-1.2.7-1.7.6-.8 1.4-1.4 2.3-1.7 1.1-.5 2.3-.7 3.6-.7 2.4 0 4.1.6 5.2 1.6 1.1 1.1 1.7 2.6 1.6 4.2v9.6c0 .2-.1.4-.2.5-.2.2-.3.2-.5.2h-2.5c-.2 0-.4-.1-.5-.2-.2-.2-.2-.3-.2-.5v-1.2c-.5.7-1.1 1.2-1.9 1.6-1 .4-2 .7-3 .7-1-.1-2-.3-2.8-.7zm6.5-3.4c.7-.9 1.1-2 1.1-3.1v-.6l-3 .5c-2.3.3-3.4 1.1-3.5 2.3 0 .6.3 1.2.8 1.5.6.3 1.2.6 1.9.5 1 .1 2.1-.4 2.7-1.1zm13.5 3.4c-.2-.2-.3-.3-.4-.6l-5.7-14.1v-.2c0-.2.1-.3.2-.5s.2-.2.4-.2h2.5c.4 0 .7.2.8.6l4 10.5 4-10.5c.1-.2.2-.3.2-.4.2-.1.3-.2.5-.2h2.5c.2 0 .3.1.5.2.1.2.2.3.2.5v.2l-5.7 14.1c-.2.5-.6.7-1.1.7h-2.3c-.1.2-.3.1-.6-.1zm13.4-1.4c-1.4-1.5-2.1-3.4-2.1-5.5v-.7c-.1-2.2.6-4.3 2-6 3.1-2.9 7.9-2.9 11 0 1.4 1.6 2 3.8 1.9 5.9v.7c0 .2-.1.4-.2.5-.2.2-.3.2-.6.2h-10.1v.1c0 1 .3 2 .9 2.8.6.7 1.5 1.1 2.4 1.1 1.1 0 2.1-.5 2.8-1.4.1-.2.2-.3.4-.4s.3-.1.5-.1h2.7c.2 0 .3.1.5.2s.2.2.2.4c-.1.7-.4 1.2-.9 1.7-.7.7-1.6 1.3-2.5 1.7-1.1.5-2.5.7-3.8.7-1.6.2-3.6-.5-5.1-1.9zm8.7-7.6c.1-1.1-.2-2.1-.9-2.9-.6-.7-1.6-1.1-2.5-1.1-1-.1-1.9.3-2.5 1.1-.7.8-.9 1.8-.9 2.9v.1h6.8z" style="fill:#192024"/></svg>