<svg xmlns="http://www.w3.org/2000/svg" xmlns:xlink="http://www.w3.org/1999/xlink" width="406" height="306" viewBox="0 0 317.41 234.57"><style>.B{fill:#fc5b3f}.C{fill:#fff}.D{fill:#ffbaa8}.E{opacity:.18}</style><defs><linearGradient id="A" x1="319.96" x2="183.62" y1="51.75" y2="123.17" gradientUnits="userSpaceOnUse"><stop offset="0"/><stop offset="1" stop-opacity="0"/></linearGradient><linearGradient xlink:href="#A" id="B" x1="-35.98" x2="195.04" y1="169.91" y2="123.38"/><linearGradient xlink:href="#A" id="D" x1="48.89" x2="139.53" y1="85.98" y2="37.26"/><linearGradient xlink:href="#A" id="E" x1="118.7" x2="127.31" y1="41.99" y2="39.2"/><linearGradient xlink:href="#A" id="F" x1="120.74" x2="128.73" y1="41.79" y2="36.64"/><linearGradient xlink:href="#A" id="G" x1="123.04" x2="131.03" y1="39.88" y2="34.72"/><path id="H" d="M91.21 174.74s-.51 1.26.12 2 7.13 4.78 11.51 1.53-5.94-3.68-5.94-3.68z"/><path id="I" d="M131.32 62.56h-23.57v-29.1h20.32l3.25 4.15v24.95z"/><path id="J" d="M280.85 123.83a2.35 2.35 0 0 1-1.48-1.15l-.7-1.25a2.17 2.17 0 0 0-2.27-1.17 2.22 2.22 0 0 0-2 1.64l-.44 1.47a2.42 2.42 0 0 1-3 1.59l-2.75-.81a2.44 2.44 0 0 1-1.7-3.06l.42-1.48a2.16 2.16 0 0 0-.81-2.37 2.11 2.11 0 0 0-2.45-.24l-1.26.68a2.49 2.49 0 0 1-3.41-1l-1.43-2.6a2.41 2.41 0 0 1 1-3.39l1.21-.66a2.15 2.15 0 0 0 1.16-2.18 2.17 2.17 0 0 0-1.55-2l-1.47-.44a2.44 2.44 0 0 1-1.67-3.2l.76-2.61a2.4 2.4 0 0 1 2.87-1.73c.52.1 1 .27 1.53.41a2.29 2.29 0 0 0 2.68-3.38l-.64-1.17a2.38 2.38 0 0 1 1-3.25l2.83-1.52a2.49 2.49 0 0 1 3.26 1l.72 1.3a2.13 2.13 0 0 0 2.2 1.11 2.16 2.16 0 0 0 1.95-1.58l.41-1.37a2.48 2.48 0 0 1 3.23-1.72l2.56.75a2.47 2.47 0 0 1 1.77 3.12l-.39 1.33a2.19 2.19 0 0 0 .75 2.48 2.22 2.22 0 0 0 2.59.21l1.17-.64a2.49 2.49 0 0 1 3.38 1l1.48 2.69a2.41 2.41 0 0 1-1 3.32l-1.31.7a2.09 2.09 0 0 0-1.12 2 2.13 2.13 0 0 0 1.37 2c.5.2 1 .33 1.56.49a2.25 2.25 0 0 1 1.64 2.91l-.87 3a2.31 2.31 0 0 1-3.05 1.59l-1.38-.39a2.14 2.14 0 0 0-2.31.84 2.08 2.08 0 0 0-.21 2.41l.72 1.3a2.42 2.42 0 0 1-1 3.33l-2.69 1.47a2.39 2.39 0 0 1-1.86.22zm-13.51-19.76a7.92 7.92 0 0 0 11.378 9.203 7.92 7.92 0 0 0-1.538-14.553 7.9 7.9 0 0 0-9.84 5.35z"/></defs><path d="M145.17 1.97a92.46 92.46 0 0 1 25 7.59c11 5.27 20.08 13.36 30.42 19.66 17.62 10.73 38.72 16.8 58.75 21 8 1.69 16.1 3.26 23.3 7.07 11 5.84 18.88 16.43 24.36 27.66 12 24.65 14.19 54.55 3.51 79.85-10.44 24.59-34.29 45.36-61.39 48-34.2 3.51-68.39 10.21-102.65 14.45-23.79 3.52-47.68 7-71.73 7.31-10 .11-20.26-.38-29.79-3.61-17.88-6.09-34.03-18.64-41.03-36.56a58.33 58.33 0 0 1 1.37-45.35c4-8.69 10.22-16.36 13.13-25.48 2.63-8.24 2.34-16.94 1.94-25.47a63.36 63.36 0 0 1 2.95-23.48c4.74-15.49 12.21-30.3 22.76-42.62 13-15.25 30.9-26.67 50.61-30.35A120.51 120.51 0 0 1 119.77.01a164.91 164.91 0 0 1 25.4 1.96z" class="B E"/><path d="M91.71 171.31a6.85 6.85 0 0 0 .55 2.92 4.89 4.89 0 0 0 2.12 2 8.43 8.43 0 0 0 6.21.61 1.25 1.25 0 0 0 .72-.43 1.1 1.1 0 0 0 .12-.62 4.59 4.59 0 0 0-1.62-2.92 10.07 10.07 0 0 1-2.24-2.56c-1-1.92-.24-7-3.86-6.22-3.02.63-2.08 5.05-2 7.22z" class="D"/><use xlink:href="#H" class="B"/><path d="M91.47 171.79a.93.93 0 0 1 1.17.31 3.81 3.81 0 0 0 3.48 1.21c1.42-.34 2-2 2.7-2s4.5 3.22 4.71 4.6-1.72 2.4-3.86 2.53-7-1.34-7.89-2.47a4.53 4.53 0 0 1-.31-4.18z" class="C"/><path d="M79.3 173.25a6.85 6.85 0 0 0 .55 2.92 4.86 4.86 0 0 0 2.13 2 8.4 8.4 0 0 0 6.2.61 1.25 1.25 0 0 0 .74-.47 1.1 1.1 0 0 0 .12-.62 4.59 4.59 0 0 0-1.62-2.92 10.07 10.07 0 0 1-2.24-2.56c-.95-1.92-.24-7-3.86-6.21-3.04.7-2.1 5.12-2.02 7.25z" class="D"/><use xlink:href="#H" x="-12.41" y="1.98" class="B"/><path d="M79.06 173.78a.92.92 0 0 1 1.17.3 3.82 3.82 0 0 0 3.48 1.23c1.42-.34 2-2 2.71-2s4.49 3.22 4.7 4.6-1.72 2.4-3.86 2.53-7-1.34-7.89-2.47a4.51 4.51 0 0 1-.31-4.19z" class="C"/><g fill="#473f47"><path d="M76.72 119.83s-.68 37.17 2.07 49.57l7 .86 4.84-50.89z"/><path d="M98.3 115.77s3.29 20-.7 52.25l-7 .87-4.84-50.9z"/></g><g class="C"><path d="m97.66 100.09.09 2c0 3.71-.86 7.53.25 11.17a4.06 4.06 0 0 1 .3 2.48 3 3 0 0 1-1.55 1.49c-3.27 1.79-7 2.34-10.74 2.86-2.77.39-6.71 1.21-9.27-.28a4.65 4.65 0 0 1-1.82-3 57 57 0 0 1-1.73-11.7c0-.52-.07-1-.1-1.54a135.52 135.52 0 0 1-.22-10.66c0-2.58.26-5.37 1.94-7.32 2.24-2.59 6.57-4.31 9.86-4.91a11.09 11.09 0 0 1 3.25-.16 13.77 13.77 0 0 1 4.38 1.49c1.64.81 3.09 1.49 3.89 3.1A22.13 22.13 0 0 1 98.02 91a21.43 21.43 0 0 1 .1 5.77c-.1.94-.34 1.87-.43 2.81-.02.17-.02.34-.03.51z"/><path d="m94.56 83.31 9.79 5.22 20.72-7.36 3.6 8.86s-19 9.72-22.67 9.76-13.32-2.63-13.32-2.63z"/></g><path fill="#020202" d="M103.15 94.13c-1.11-.13-6.66-2.89-7.27-3.35.85 1.79 2 7.35 2.19 7.46a18.07 18.07 0 0 0 6.7 1.85 13.48 13.48 0 0 0 6.8-1.28 33.53 33.53 0 0 1 3.21-1.65c.66-.25 1.35-.39 2-.61a19.35 19.35 0 0 0 4.83-2.67 1.93 1.93 0 0 0 1-1.19c.1-.66-.49-1.22-1.09-1.51a7.48 7.48 0 0 0-3-.63 13.6 13.6 0 0 0-4.08.09c-.85.24-1.48 1-2.31 1.41-2.4 1.05-6.38 2.38-8.98 2.08zM82.53 121.1c-1.08.31-3.56-.67-4.38-.82-.5-.08-1-.33-1.43-.45-2.46-.61-2.75-7.51-3-9.37-.64-4.91-1.62-10-1.68-14.92a16.58 16.58 0 0 1 .65-5.62 6.52 6.52 0 0 1 3.69-4.1 1.86 1.86 0 0 1 1.09-.11c1.49.38 1.8 2.85 2.06 4 .45 2.1 1.47 3.06 2.51 4.74s1.11 3.78 2.1 5.51a4 4 0 0 0 1 1.26 4.54 4.54 0 0 0 2.8.59H95a2.23 2.23 0 0 1 1.61.4 2.31 2.31 0 0 1 .42 1.9l-.43 5.22a1.19 1.19 0 0 1-.17.65 1.25 1.25 0 0 1-.76.37 18.91 18.91 0 0 0-5.57 1.71 32.22 32.22 0 0 1-5.42 3 5.2 5.2 0 0 0-1.48 1 3.26 3.26 0 0 0-.71 2.23c0 .51.65 2.08.46 2.45a.71.71 0 0 1-.42.36z" opacity=".1"/><path d="M90.08 77.62a2.34 2.34 0 0 1-1.51.76 7.93 7.93 0 0 1-1.46 0h-.27a.33.33 0 0 0-.2 0 .29.29 0 0 0-.09.22 16.74 16.74 0 0 0 0 2.92v.53a1 1 0 0 1 0 .55.93.93 0 0 1-.59.38 4.31 4.31 0 0 1-1.32.23 5.82 5.82 0 0 1-2.72-.9 26.64 26.64 0 0 0-.26-5c-.31-2.13-.87-4.26-.64-6.4a4.12 4.12 0 0 1 .9-2.29 4.19 4.19 0 0 1 3.17-1.14 8.12 8.12 0 0 1 4.35 1.19c.48.33.53.75.64 1.29l.4 2.54a32.46 32.46 0 0 1 .18 2.92 3.28 3.28 0 0 1-.58 2.2z" class="D"/><path fill="#ff681c" d="M88.38 69.15c-1 .27-2.29 0-3.3.44a3.23 3.23 0 0 0-1.58 3.93c-.41.15-.49-.6-.81-.9s-1 .1-1.09.62a3.23 3.23 0 0 0 .45 1.48 4.41 4.41 0 0 1 .2 2.91c-.07.23-.24.5-.46.44s-.39-.45-.53-.62a6.38 6.38 0 0 0-.73-.74l-1.58-1.26c-.52-.43-.71-.84-1.31-1a11.41 11.41 0 0 0-1.72-.21 2.49 2.49 0 0 1-1.2-4.29 1.73 1.73 0 0 0 .49-.52 1.58 1.58 0 0 0 .06-.72 3.82 3.82 0 0 1 1.78-3.15 6.5 6.5 0 0 1 3.58-1 2.18 2.18 0 0 0 .81-.1 2.49 2.49 0 0 0 .65-.48 4.73 4.73 0 0 1 7.2 1.33 3.46 3.46 0 0 1 .45 2.28 1.78 1.78 0 0 1-1.36 1.56z"/><path fill="#e0a091" d="M87.11 78.41h-.27a.33.33 0 0 0-.2 0 .29.29 0 0 0-.09.22 16.74 16.74 0 0 0 0 2.92 3.91 3.91 0 0 1-2.7-4.14 16.59 16.59 0 0 0 3.29 1z"/><rect width="10.6" height="24.95" x="80.65" y="89.91" class="C" rx="5.3" transform="rotate(-19.53 69.304 117.7)"/><path d="M227.92 89.57c-4.29 80.42-58.11 101.44-58.11 101.44-59.75-35.6-59.45-105.12-59.45-105.12 38.08-10.28 59.86-31.31 60.54-32 14.2 20.69 57.02 35.68 57.02 35.68z" class="B"/><path fill="url(#A)" d="M234 93.94c-4.29 80.42-58.11 101.44-58.11 101.44-59.75-35.6-59.45-105.12-59.45-105.12C154.54 80 176.32 59 177 58.3c14.18 20.7 57 35.64 57 35.64z" transform="translate(-6.08 -4.69)"/><path d="M104.92 96.31c.5-.37 1-.78 1.42-1.18a14.67 14.67 0 0 1 3.64-2.41 7.06 7.06 0 0 1 4.27-.54c.31.06.68.25.64.57s-.22.34-.41.44a13.55 13.55 0 0 1-2.65 1.12c-.38.11-.82.25-1 .62a2 2 0 0 0 .91-.11 10 10 0 0 1 3.49-.25c.11 0 .24 0 .3.14s0 .3-.18.39c-1.12.89-2.8.83-3.87 1.79-.19.16-.33.5-.12.63a.42.42 0 0 0 .27 0c.46 0 .91-.19 1.37-.27a6.68 6.68 0 0 1 2.23-.06.37.37 0 0 1 .26.12c.11.17-.12.36-.3.45l-3.87 1.69a9.45 9.45 0 0 0 1.6 0 2.2 2.2 0 0 1 1.5.48.11.11 0 0 1 .06.09c0 .07 0 .11-.11.14a5.16 5.16 0 0 1-2 .6 6.21 6.21 0 0 0-1.23.22 5.69 5.69 0 0 0-.71.32 7.69 7.69 0 0 1-2.38.8 3.81 3.81 0 0 1-2.44-.4 3.73 3.73 0 0 0-.63-.32c-.8-.22-1.69.61-2.43.22a1.73 1.73 0 0 1-.58-.67c-.4-.66-1.74-2.5-.66-3.11a16.15 16.15 0 0 1 1.86-.6 8.53 8.53 0 0 0 1.75-.91z" class="D"/><path d="m88.18 98.44 13.24-1.27 2.14 6.46s-19.35 7.87-23.11 5.68-.27-5.76-.27-5.76.44-5.24 8-5.11z" class="C"/><path d="M220.97 93.47c-3.79 70.88-51.22 89.41-51.22 89.41-52.66-31.38-52.4-92.65-52.4-92.65 33.57-9.06 52.76-27.6 53.36-28.17 12.5 18.25 50.26 31.41 50.26 31.41z" class="B"/><path fill="url(#B)" d="m176.8 66.74-1 120.83c-52.66-31.38-52.4-92.65-52.4-92.65 33.57-9.06 52.76-27.6 53.36-28.17Z" transform="translate(-6.08 -4.69)"/><g fill="#473f47"><circle cx="169.75" cy="113.85" r="9.29"/><path d="M164.16 137.02h10.01l-2.84-14.88h-3.65l-3.52 14.88z"/></g><path fill="none" stroke="#fff" stroke-miterlimit="10" stroke-width=".96" d="M119.88 110.45h11.95v-8.67h9.47m-19.08 17.96h15.56v18.92h9.74m72.46-34.1h-19.7V93.39h-17.59m33.62 29.75h-19.19v19.67h-13.53m-42.29 14.95h16.1v-7.56h9.74" class="E"/><path d="M129.58 82.08a1.09 1.09 0 0 0 1.13-.23c.44-.51.09-1.28-.27-1.85.34-.26.83.07 1.09.42s.57.77 1 .72.67-.64.56-1.08a6.5 6.5 0 0 0-.65-1.22c.19-.26.61 0 .78.25s.4.63.71.56a.56.56 0 0 0 .31-.66 5.57 5.57 0 0 1-.17-.79c.53-.17 1.14.38 1.63.12a.76.76 0 0 0 .1-1.13 2 2 0 0 0-1.16-.55 5 5 0 0 0-3.2.38c-1.15.46-2.35.7-3.47 1.28a6.83 6.83 0 0 0-2.65 2 .45.45 0 0 0 .13.59.72.72 0 0 0 .46 0 3.41 3.41 0 0 1 2.32.39 10.93 10.93 0 0 0 1.18.72z" class="D"/><path d="M278.74 88.31c-10.88-23.2-60.92-40.78-120.82-40.78-67.84 0-123 22.54-123 50.25s55.19 50.25 123 50.25c46.24 0 86.6-10.47 107.62-25.91a51.1 51.1 0 0 0 8.28-7.48 27.9 27.9 0 0 0 6.67-12.5 21.31 21.31 0 0 0 .46-4.36 22.12 22.12 0 0 0-2.21-9.47zm-5.89 26.24a50.35 50.35 0 0 1-7.1 6.44c-20.58 15.58-61.2 26.2-107.85 26.2-67.37 0-122.19-22.16-122.19-49.41s54.82-49.42 122.21-49.42c59.14 0 108.6 17.08 119.81 39.68a21.76 21.76 0 0 1 2.38 9.74 19 19 0 0 1-.32 3.53c-.82 4.62-3.2 9.06-6.94 13.24z" class="C"/><g class="B"><path d="M282.48 95.5a21.89 21.89 0 0 0-.36-2.41 24.48 24.48 0 0 0-1.28-4.15l-.18-.06-1.92-.57c-10.88-23.2-60.92-40.78-120.82-40.78-67.84 0-123 22.54-123 50.25s55.19 50.25 123 50.25c46.24 0 86.6-10.47 107.62-25.91a2.27 2.27 0 0 0 .57 1.66 51.3 51.3 0 0 0 10.17-9.47 29.49 29.49 0 0 0 5.32-9.83 22.84 22.84 0 0 0 1-6.69 21.77 21.77 0 0 0-.12-2.29zm-124.56 51.69c-67.37 0-122.19-22.16-122.19-49.41s54.8-49.42 122.19-49.42c59.14 0 108.6 17.08 119.81 39.68a2.44 2.44 0 0 0-1.7.29 20.51 20.51 0 0 1 2.41 9.45 19.25 19.25 0 0 1-.14 2.28c-.59 4.82-3 9.54-7.2 14a45.28 45.28 0 0 1-5.08 4.65 2.41 2.41 0 0 1 0 1.31l-.28 1c-20.57 15.55-61.19 26.17-107.82 26.17z" class="E"/><path d="M277.71 88.04a2.44 2.44 0 0 0-1.7.29c-4.6-8.91-15.71-17.19-32.38-23.93-22.91-9.26-53.36-14.36-85.71-14.36s-62.83 5.1-85.74 14.36c-22.45 9.07-34.8 20.91-34.8 33.38s12.35 24.3 34.78 33.37c22.91 9.27 53.36 14.37 85.74 14.37s62.82-5.1 85.73-14.37c9.21-3.72 16.71-7.9 22.37-12.43a2.41 2.41 0 0 1 0 1.31l-.28 1c-20.58 15.58-61.2 26.2-107.85 26.2-67.37 0-122.19-22.16-122.19-49.41s54.85-49.46 122.24-49.46c59.12 0 108.58 17.08 119.79 39.68zm3.13.9-.18-.06-1.92-.57c-10.88-23.2-60.92-40.78-120.82-40.78-67.84 0-123 22.54-123 50.25s55.19 50.25 123 50.25c46.24 0 86.6-10.47 107.62-25.91a2.27 2.27 0 0 0 .57 1.66 99.46 99.46 0 0 1-20.61 11.07c-23.47 9.58-54.58 14.85-87.58 14.85s-64.13-5.27-87.58-14.85c-23.94-9.78-37.12-22.95-37.12-37.07s13.16-27.29 37.1-37.06c23.45-9.59 54.6-14.86 87.6-14.86s64.13 5.27 87.58 14.86c18.84 7.7 31.02 17.5 35.34 28.22z" class="E"/><ellipse cx="152.49" cy="181.07" opacity=".35" rx="96.23" ry="15.86"/></g><g class="C"><use xlink:href="#I"/><use xlink:href="#I" x="-2.09" y="1.72"/></g><use xlink:href="#I" x="-2.29" y="1.92" fill="url(#D)"/><path d="M126.96 66.89h-23.57V37.78h20.32l3.25 4.15v24.96z" class="C"/><path fill="url(#E)" d="M123.71 37.78v4.11h3.25l-3.25-4.11z"/><path fill="url(#F)" d="M125.78 35.38v4.23h3.25l-3.25-4.23z"/><path fill="url(#G)" d="M128.07 33.46v4.23h3.25l-3.25-4.23z"/><use xlink:href="#J" class="B"/><use xlink:href="#J" fill="#020202" opacity=".27"/><path d="m290.92 107.6-1.55-.49a2.13 2.13 0 0 1-1.37-2 2.1 2.1 0 0 1 1.13-2l1.3-.7a2.41 2.41 0 0 0 1-3.32l-1.48-2.68a2.49 2.49 0 0 0-3.38-1l-1.17.64a2.22 2.22 0 0 1-2.59-.2l-.31-.31a2.17 2.17 0 0 1-.44-2.18c0-.07.05-.16.08-.23l.3-1.1a2.44 2.44 0 0 0-1.58-3.05l-.18-.06-1.92-.57-.65-.19-.38-.08a2.44 2.44 0 0 0-1.7.29 2.55 2.55 0 0 0-1.11 1.47l-.41 1.38a2.18 2.18 0 0 1-2 1.57 2.14 2.14 0 0 1-2.2-1.1l-.72-1.31a2.47 2.47 0 0 0-3.25-1l-2.84 1.51a2.38 2.38 0 0 0-1 3.25l.64 1.17a2.23 2.23 0 0 1-.15 2.64 2.25 2.25 0 0 1-2.53.75l-1.53-.42a2.4 2.4 0 0 0-2.87 1.73l-.76 2.62a2.43 2.43 0 0 0 1.68 3.19l1.46.44a2.19 2.19 0 0 1 1.55 2 2.13 2.13 0 0 1-1.15 2.18l-1.22.66a2.41 2.41 0 0 0-1 3.39l1.43 2.6a2.51 2.51 0 0 0 3.41 1l1.26-.69a2.13 2.13 0 0 1 2.45.24 2.29 2.29 0 0 1 .79 1.07 2.41 2.41 0 0 1 0 1.31l-.28 1-.15.51a2.63 2.63 0 0 0 .49 2.28 2.4 2.4 0 0 0 1.21.79l2.75.8a2.43 2.43 0 0 0 3-1.59c.17-.48.29-1 .44-1.47a2.24 2.24 0 0 1 2-1.64 2.18 2.18 0 0 1 2.26 1.17l.69 1.26a2.52 2.52 0 0 0 3.36 1l2.69-1.47a2.41 2.41 0 0 0 1-3.32l-.72-1.3a2.06 2.06 0 0 1 .2-2.41 2.16 2.16 0 0 1 2.31-.85c.47.11.92.27 1.38.4a2.3 2.3 0 0 0 3-1.59l.88-3a2.26 2.26 0 0 0-1.55-2.99zm-9.3 1.34a8 8 0 0 1-7.82 5.7 6 6 0 0 1-.95-.09 8.18 8.18 0 0 1-1.07-.23 5.83 5.83 0 0 1-.7-.25 7.91 7.91 0 0 1 5.18-14.93 7.73 7.73 0 0 1 2 .92 7 7 0 0 1 1.49 1.25 6.84 6.84 0 0 1 .7.83 8.11 8.11 0 0 1 1.13 2.33 7.81 7.81 0 0 1 .04 4.47z" class="B"/></svg>