<svg xmlns="http://www.w3.org/2000/svg" width="85" height="22"><path fill="#eb2027" d="M5.6 1.3h2.2l5.7 15.1h-2.1l-1.5-4.5H3.7l-1.5 4.4H0l5.6-15zm-1.3 8.8h4.9L6.8 3.5l-2.5 6.6zm11.3-8.9h1.9v15.1h-1.9V1.2zm16.3 0h1.9l-.1 6.2c.7-1 1.9-1.8 3.2-1.8 1.1 0 2.3.4 3.1 1.2.8.9 1 2.1 1 3.2v6.3h-1.9v-6.1c0-.8-.2-1.7-.8-2.3-.7-.6-1.6-.6-2.4-.4-1.2.4-2 1.7-2 3v5.8H32l-.1-15.1zm22.2.4h2L56 7.5c.6-.7 1.3-1.3 2.2-1.6 1.6-.5 3.3-.1 4.5 1.1 2.2 2 2.4 5.8.4 8.1-1 1.2-2.6 1.8-4.1 1.6-1.2-.1-2.3-.8-3-1.8v1.5h-1.8c-.1-.1-.1-14.8-.1-14.8zm4.5 5.9c-1 .2-1.9 1-2.3 2-.4 1.1-.4 2.2 0 3.3.3 1 1.2 1.8 2.1 2 1.1.3 2.3-.1 3.1-.9.8-.9 1-2.1.9-3.2-.1-1-.5-1.9-1.3-2.6-.7-.5-1.6-.7-2.5-.6zm20-4.7h1.9V6H83v1.8h-2.4v5.3c0 .5.1 1 .5 1.3.6.4 1.3.3 2 .2v1.8c-1.1.1-2.3.1-3.2-.5-.8-.6-1.2-1.6-1.2-2.5V7.9h-1.8V6h1.8l-.1-3.2zM24.4 5.7c1.6-.3 3.3.4 4.4 1.6 2 2.3 1.8 6.2-.6 8.2-1.5 1.3-3.8 1.5-5.4.4-.5-.3-.8-.7-1.2-1.1.1 2 .1 3.9.1 5.9h-2V6h1.9v1.5c.7-.9 1.7-1.6 2.8-1.8zm-.1 1.8c-1 .2-1.8.9-2.2 1.8-.5 1-.5 2.1-.2 3.2.3 1 1.1 1.9 2.1 2.2 1.1.3 2.4 0 3.1-.8.8-.9 1.1-2.1 1-3.3-.1-1-.6-2.1-1.4-2.7-.7-.4-1.6-.5-2.4-.4zm20.5-1.2c1.1-.7 2.5-.8 3.7-.5 1 .2 2 .8 2.5 1.6s.8 1.8.8 2.8v6.1H50v-1.5c-.7.9-1.7 1.7-2.9 1.8-1 .1-2-.1-2.8-.6-1.7-1.1-2-3.9-.5-5.2.7-.6 1.7-.9 2.6-1.1 1.2-.1 2.5 0 3.6.5 0-.7-.1-1.4-.5-2-.8-.9-2.1-1-3.2-.7-.7.2-1.1.8-1.5 1.4L43 8.4c.4-.9 1-1.6 1.8-2.1zm1.7 5.1c-.4.1-.9.2-1.2.5-.7.6-.8 1.8-.2 2.4.6.5 1.4.6 2.1.5 1.4-.3 2.6-1.6 2.5-3-.9-.5-2.1-.5-3.2-.4zm23.3-5.6c1.8-.4 3.9 0 5.1 1.5 1 1.1 1.3 2.7 1.2 4.2H68c.1.9.4 1.9 1.1 2.6 1.1 1 3 1.1 4.1.1.4-.3.7-.8 1-1.3l1.7.7c-.4.9-1.1 1.8-2 2.3-1.2.7-2.6.9-4 .6-1.2-.3-2.4-1.1-3.1-2.1-1.1-1.7-1.2-4.1-.3-5.9.7-1.3 1.9-2.3 3.3-2.7zm-.3 2.1c-.7.5-1.1 1.2-1.3 2H74c-.1-.9-.7-1.8-1.6-2.2s-2-.4-2.9.2z"/></svg>