<svg xmlns="http://www.w3.org/2000/svg" width="512" height="512"><linearGradient id="a" x1="256" x2="256" y1="512" y2="0" gradientUnits="userSpaceOnUse"><stop offset="0" stop-color="#ffe59a"/><stop offset="1" stop-color="#ffffd5"/></linearGradient><linearGradient id="b" x1="256" x2="256" y1="122.765" y2="389.235" gradientUnits="userSpaceOnUse"><stop offset="0" stop-color="#fd5900"/><stop offset="1" stop-color="#ffde00"/></linearGradient><circle cx="256" cy="256" r="256" fill="url(#a)"/><path fill="url(#b)" d="M398.118 371.471h-8.882v-8.882a8.88 8.88 0 0 0-8.882-8.882H131.647a8.88 8.88 0 0 0-8.882 8.882v8.882h-8.882a8.88 8.88 0 1 0 0 17.764h284.235a8.88 8.88 0 1 0 0-17.764zM113.882 211.588h284.235a8.877 8.877 0 0 0 8.639-6.844 8.875 8.875 0 0 0-4.667-9.984l-142.118-71.059a8.894 8.894 0 0 0-7.946 0L109.91 194.76a8.875 8.875 0 0 0-4.667 9.984 8.88 8.88 0 0 0 8.639 6.844zM256 167.177c4.905 0 8.882 3.976 8.882 8.882a8.882 8.882 0 1 1-8.882-8.882zm-49.616 62.176h-60.65l12.56 12.56v81.468l-12.56 12.561h60.65l-12.56-12.561v-81.468zm79.941 0h-60.65l12.56 12.56v81.468l-12.56 12.561h60.65l-12.56-12.561v-81.468zm79.941 0h-60.65l12.56 12.56v81.468l-12.56 12.561h60.65l-12.56-12.561v-81.468z"/></svg>