<svg xmlns="http://www.w3.org/2000/svg" xmlns:xlink="http://www.w3.org/1999/xlink" width="500" height="409.6"><style>.X{fill:#fc5b3f}.Y{fill:#fff}.Z{fill:#4c506d}.a{fill:#2f3554}.b{fill:#ec9c7d}.c{fill:#d68369}.d{enable-background:new}.e{fill:#32384f}.f{fill:#fdb9a9}.g{fill:#dc9bd5}.h{fill:#ff681c}</style><g class="X"><path d="M2.7 295.9c2.7 16.8 19.4 94.8 80.2 111.3 46 12.6 175.2-30.5 248.8-8.8C479.8 442 507 325 498.7 293.5c-5.8-22-12.9-44.1-13.1-67.1-.2-24 8.2-47.7 9.2-71.9 2.3-61.3-40.7-121.4-99.5-139C370.1 8 349.6.3 323.3.1 270-.4 143.6.1 81.4 90.6c-11.1 16.2-27.3 28.3-39.7 43.5-16.6 20.4-27.6 45-34.2 70.4-7.8 29.8-9.7 61.2-4.8 91.4z" class="d" opacity=".18"/><path d="M384.4 209.8h4.1v106.4h-4.1z"/></g><path fill="#bcdbf2" d="M384.4 209.8h4.1v106.4h-4.1z"/><linearGradient id="A" x1="128.636" x2="89.457" y1="169.304" y2="-359.522" gradientTransform="matrix(.5399 .0065 .0065 -.5399 117.228 279.883)" gradientUnits="userSpaceOnUse"><stop offset=".01"/><stop offset=".08" stop-opacity=".69"/><stop offset=".21" stop-opacity=".32"/><stop offset="1" stop-opacity="0"/></linearGradient><path fill="url(#A)" d="m245.8 308.7 82.5 3.2c3.9.2 8 .3 11.2 1.1 5.2 1.3 6.6 3.8 4.7 5.9-1.9 2-6.5 3.6-11.3 4.9-30.1 8.1-72.2 7.9-110.9 7.3l-182.4-2.6c-7-.1-14.3-.2-20.7-1.3s-11.7-3.4-10.8-5.8c.8-2.2 6.2-3.7 11.6-4.8 15.8-3.2 34.6-4.2 52.9-5.1l83.5-3.8"/><linearGradient id="B" x1="607.068" x2="580.512" y1="109.88" y2="-248.631" gradientTransform="matrix(.54 0 0 -.54 109.724 294.389)" gradientUnits="userSpaceOnUse"><stop offset=".01"/><stop offset=".08" stop-opacity=".69"/><stop offset=".21" stop-opacity=".32"/><stop offset="1" stop-opacity="0"/></linearGradient><path fill="url(#B)" d="m455.7 311.1 29.5 2.3c1.4 0 2.8.3 4 1 1.9 1.2 2.4 3.9 1.7 6s-2.3 3.8-4 5.2c-10.7 8.7-25.7 9.1-39.6 9l-65.2-.4c-2.5 0-5.1 0-7.4-1.1-2.3-1-4.2-3.4-3.9-5.9.3-2.2 2.2-3.9 4.1-5.1 5.6-3.5 12.3-4.8 18.9-6l29.8-5"/><path d="M314.5 95.3h139.8v128.6H314.5z" class="Y"/><path d="M386.5 112.6h59.3V213h-59.3z" class="X d" opacity=".18"/><path d="M391.2 122.2h51.9v48.1h-51.9z" class="Y"/><path d="M310.5 92.2h146.3v5.5H310.5zm0 129.8h146.3v5.5H310.5z" class="X"/><g class="Z"><path d="M151.8 278.3h3.2v29.5h-3.2z"/><path d="M137.8 307.3h35.5v4.1h-35.5z"/></g><path d="M137.8 307.3h35.5v4.1h-35.5z" class="a"/><use xlink:href="#H" class="Z"/><use xlink:href="#H" x="6.4" class="a"/><path d="M127.7 227.7V238c0 3.8 3.1 6.9 6.9 6.9h10.3c3.8 0 6.9-3.1 6.9-6.9v-10.3c0-3.8-3.1-6.9-6.9-6.9h-10.3c-.3 0-.6 0-.9.1-3.4.4-6 3.3-6 6.8z" class="Z"/><path d="M130.6 238c.1 1.1.5 2.1 1.2 3 1.9 2.5 5.5 2.9 8.6 2.9 2.3.1 10.5 1.8 9.9-2.1-.3-2.1-1.5-4.2-2.2-6.2-.6-2-1.9-4.6-1.9-6.6-.4-1.9-1-3.8-1.7-5.6-.4-.9-.9-1.8-1.6-2.7h-8.2c-.3 0-.6 0-.9.1.3 2.8-1.5 4.7-2.5 7.1-.9 2.2-.9 4.5-.9 6.9 0 1.1.1 2.2.2 3.2z" class="a"/><g class="Y"><path d="M144.8 238.4c.5 1.2 1 2.4 1.3 3.7l1 4.6c.5 3.1.8 6.3.8 9.5 0 1.3 0 2.7.9 3.5.7.5 1.5.9 2.3.9 1.6.3 3.1 1 4.7 1.2 1.8.3 3.6.4 5.3.3 5.3 0 15.1-.6 14.7-8-.4-8.3-1-16.5-2.2-24.8-.4-2.8-.5-6-1.3-8.7-.7-2.2-3.3-2.3-5.5-2h-.4c-.4 0-.8.1-1.3.2a63.26 63.26 0 0 1-8.7.3c-3.3-.1-8.5-.4-11.7 2.7-.2.2-.4.4-.6.7-3.3 4-1.5 10.3.7 15.9z"/><path d="M187.2 236.5c.3 1.8.4 3.5.4 5.3 0 .6-.1 1.2-.4 1.8-.5.8-1.7 1-2.7 1-3.2 0-6.2-1.3-8.4-3.5-2.1-2.1-4-4.3-5.7-6.7-1-1.1-1.4-2.6-1.3-4.1 0-2 .1-4 .3-6 0-.5 3.3-.1 3.6 0 1.2.3 2.4.9 3.4 1.5.1-1.3-.3-2.8-.4-4.2-.1-.4 0-.8.1-1.2.4-.7 1.3-.7 2-.7 1.6.1 3.4.4 4.4 1.7.4.6.7 1.3.9 2 1.7 4.2 3.1 8.6 3.8 13.1z"/></g><path fill="#d8dae1" d="M182.4 238.1c.2.7.1 1.4-.2 2-.7 1.1-2.4.7-3.6.2-1.6-.8-3.1-1.7-4.5-2.7-.2-.2-.6-.4-.9-.3-.2.1-.4.2-.6.4-2.2 2.4-4.9 4.4-7.9 5.7-1 .4-2.4.7-3.1-.1s-.2-2.3.5-3.3l7.7-12a.78.78 0 0 1 .4-.4c.3-.1.6.1.8.3 1.1.9 2.3 1.7 3.5 2.3.4.3 1 .4 1.5.3.7-.2 1-1.1 1.1-1.9.2-1.3.2-2.5.1-3.8-.1-.5 0-1.1.1-1.6.4-.9 1.5-1.2 2.3-.8.1 0 .1.1.2.1 1 .7.8 3.5 1 4.6l1.6 11zm-26.8-.4c.7 1.3 1.6 2.4 2.8 3.3 1.3 1 4.2 4.8 6 3.7-.8.7-1.7 1.2-2.8 1.5 2.8 2 6.3 2.5 9.7 3.1.9.1 1.7.4 2.5.8.8.5 1.2 1.3 1.1 2.2-.2 1.5-2.2 2-3.7 2.1-3.8.2-7.6.3-11.3.8-3.2.4-6.6 1.2-8.6 3.8-.1.2-.3.4-.6.5-.4.1-.8-.1-1-.5s-.2-.8-.2-1.2c-.1-3.1-.5-6.3-1.4-9.3-.4-1.2-.4-2.5-.8-3.6-.4-1.4-1.2-2.8-1.7-4.2-1-2.9-1.6-5.8-2-8.9-.2-2.1-.1-4.7 1.7-5.8 1.4-.7 3.1-.5 4.3.4 1.2 1 2.1 2.3 2.7 3.7 1.1 2.6 2 5.3 3.3 7.6z"/><path d="M163.4 224.5c-.1.1-.2.3-.2.5s0 .4.1.5c1.7 4.5 3 9.1 4 13.8 1 4.1 1.9 8.2 2.2 12.4 0 .3 0 .6-.1.9-.3 1-1.7 1.4-2.3 2.3l-2-2.2c-.1-.1-.2-.3-.3-.4-.1-.2-.1-.5 0-.7.7-4.5-.1-9.1-1.1-13.5-.9-3.8-2.1-7.6-2-11.5a1.48 1.48 0 0 0-.4-1.3c-.2-.1-.4-.2-.7-.3-1.1-.5-1.6-1.8-1-2.9 0 0 0-.1.1-.1.4 0 .8-.1 1.2-.3s.8-.3 1.2-.2c.9.2 1.8 2.2 1.3 3z" class="X"/><path d="M144.7 221.9c3.2-3.1 8.5-2.8 11.7-2.7 2.9.1 5.8 0 8.7-.3.4-.1.8-.1 1.3-.2-1.7-.7-4.2-.2-6-.2-2.8.1-5.6.3-8.4.5-2.7.4-5.6.9-7.3 2.9z" class="Y"/><path d="M154.6 210.4c1.1 2.9 4.2 4.4 7.2 3.5 0 0-1.4 4.1.3 6.7 0 0-1.1 2.9-8.8-1.4 0 0 2.1-.2 1.5-4.4-.2-1.5-.7-2.9-1.5-4.1.3.3.7.3 1 0 .2-.1.3-.2.3-.3z" class="c"/><path d="M158.3 215.7c4 1.2 7.3-2.1 8.8-7 .2-.5.3-1.1.4-1.7.3-1.6.5-3.3.4-5-.2-8-11.8-7.2-11.8-7.2-9.2 2.1-4.8 18.8 2.2 20.9z" class="b"/><path d="m183.4 265.7-.2-.2 1.8 2.1-1.6-1.9z" class="g"/><path d="M164.3 193.5c1.5.4 2.8 1.3 3.6 2.5.4.7.7 1.4 1.3 2 .7.9 1.8 1.5 2.2 2.6-1.8.3-3.7 0-5.3-1-.3.4-.7.7-1.3.7-.5 0-1-.1-1.5-.3-.3-.1-.6-.1-.8-.1-.2.1-.4.2-.5.4-1 .8-2.3 1.1-3.5.7-.7-.2-1.4-.7-2.1-.4-.7.2-1.1 1.2-1.1 2 .1.8.1 1.7-.1 2.5-.5.1-.6-.7-1.1-1-.4-.3-.9.1-1.1.5-.4.7-.3 1.5.2 2.1a.55.55 0 0 1 .3.5c0 .2 0 .4-.1.6l-.8 2c-1.1-2.5-2.4-4.8-3.9-7.1-.6-.9-1.3-1.9-1.1-3 .3-1.1 1.4-1.8 1.2-2.9-.1-.2-.1-.4-.2-.6 0-.3 0-.6.2-.9 1.1-2.1 3.1-3.7 5.5-4.2 2.3-.5 4.7-.4 7.1.1l7 1.2c.2 0 .4.1.5.2v.3c-.1.5-.6.8-1 1.2s-.7.9-.4 1.4m-12 60.9s4.9 12.2 8.8 13.5 18.5 5.7 18.5 5.7l20.2 38.1 8-4.9-17.9-44.6-15.8-8.1s-4 .2-21.8.3z" class="a"/><path d="M148.8 258.7s-.9 11.2 3 12.4l18.5 5.7 21.6 41.3 9-3.6-20.2-49.1-15.8-8.1c-.1.1-9.3-3.2-16.1 1.4z" class="Z"/><g class="a"><use xlink:href="#I"/><use xlink:href="#I" x="-11.9" y="4.7"/></g><path d="M142.8 227.7s6.9 15.5 14.2 17.6 16.1-19.6 16.1-19.6l-5.9-2.2-9.9 9.9s-6.1-13-8.6-12.4-6.9 4-5.9 6.7z" class="Y"/><path d="M174.6 214.8c.1.6.3 1.2.7 1.6.5 1 .8 2 .9 3.1.2 1.1.6 2.1 1.2 2.9.7.9 1.9 1.2 2.9.8.7-.4 1.1-1.1 1.2-1.8.1-.8 0-1.5-.3-2.2-.3-.9-.6-1.9-1.1-2.7-.4-.8-1-1.6-1.7-2.2-.8-.9-3.7-1.6-3.8.5z" class="c"/><path d="M171.7 215.8a4.1 4.1 0 0 1 1.6-1.6c.6-.2 1.3-.3 2-.3 1.3 0 2.8.2 3.4 1.4a2.82 2.82 0 0 1-.3 2.8c-.5.8-1.2 1.6-1.7 2.4-.7 1.2-1.1 2.7-2.2 3.6-.5.4-1 .6-1.6.7-1.9.4-4.4-.5-4-2.7.5-2.3 1.5-4.4 2.8-6.3z" class="b"/><g class="Z"><path d="M73.4 277.9h3.2v29.5h-3.2z"/><path d="M59.4 306.8h35.5v4.1H59.4z"/></g><path d="M59.4 306.8h35.5v4.1H59.4z" class="a"/><path d="M83.3 277.9H63.5c-3 0-5.4-2.4-5.4-5.4 0-3 2.4-5.4 5.4-5.4h19.8c3 0 5.4 2.4 5.4 5.4 0 3-2.4 5.4-5.4 5.4z" class="Z"/><path d="M89.7 277.9H69.8c-3 0-5.4-2.4-5.4-5.4 0-3 2.4-5.4 5.4-5.4h19.8c3 0 5.4 2.4 5.4 5.4.1 3-2.3 5.4-5.3 5.4z" class="a"/><path d="M49.4 227.3v10.3c0 3.8 3.1 6.9 6.9 6.9h10.3c3.8 0 6.9-3.1 6.9-6.9v-10.3c0-3.8-3.1-6.9-6.9-6.9H56.2c-.3 0-.6 0-.9.1-3.4.4-5.9 3.3-5.9 6.8z" class="Z"/><path d="M52.2 237.6c.1 1.1.5 2.1 1.2 3 1.9 2.5 5.5 2.9 8.6 2.9 2.3.1 10.5 1.8 9.9-2.1-.3-2.1-1.5-4.2-2.2-6.2-.6-2-1.9-4.6-1.9-6.6-.4-1.9-1-3.8-1.7-5.6-.4-.9-.9-1.8-1.6-2.6h-8.2c-.3 0-.6 0-.9.1.3 2.8-1.5 4.7-2.5 7.1-.9 2.2-.9 4.5-.9 6.9 0 1 .1 2.1.2 3.1z" class="a"/><g class="h"><path d="M69.9 209.2c1.6 2.2 6.3 4.2 6.3 4.2.5-2.1-.6-2.9-.6-2.9-1.2.1-2.8-2.9-2.3-3.8.7-1.2 1.5-.7 2.2-.2 1.2-1 2-2.4 2.2-4 .1-.9-1.5-3.5 1.5-4.6s7.3 0 7.3 0 1.1-2.8-2.4-4.2c-8-3.1-17.5 2.2-16.9 11.1.1 2.4.3 5.2-1.4 6.9-1 .9-2.2 1.5-3.4 1.9-1.6.5-3.1 1.4-4.3 2.7-1.1 1.3-1.6 3.3-.7 4.8.4.7 1.2 1.4 1 2.2-.1.4-.3.7-.6.9-1.8 2-3 4.5-3.4 7.1-.3 2.7.5 5.4 2.3 7.4 2.5 2.6 6.4 3.2 9.9 2.7 2.9-.4 5.6-1.7 7.6-3.8 2.9-3.3 3.3-8 4.1-12.3 0-.5.3-1 .6-1.4.9-.8 2.2-.2 3.4-.2 2 0 3.4-2.3 3.4-4.3.1-2-.8-4-1.2-5.9-.4-2-.3-4.3 1.2-5.6.6-.5 1.3-.8 1.9-1.2 2.7-2 2.6-6.5.2-8.9-2.3-2.4-6.1-3-9.4-2.5-2.7.5-8.7 1.9-9.9 4.4-1.2 2.4-.2 7.4 1.4 9.5z"/><path d="M61.8 224.8c-.2-2.2.5-4.4 1.8-6.1 1.6-1.9 4-2.7 6.3-3.6 1-.4 2-.9 2.4-1.8.2-.7.3-1.3.3-2 .1-.7.5-1.4 1.2-1.5a1.92 1.92 0 0 1 1.2.4c1.4 1.1 1.9 3.1 1.6 4.9-.4 1.8-1.2 3.4-2.3 4.9-1.1 1.4-2 3-2.7 4.7-.4 1.3-.6 2.7-.9 4-.7 3-3.2 4.7-6.1 3-2.1-1.1-2.7-4.9-2.8-6.9z"/></g><path d="M88.4 218.4c-3.5.3-6.9.4-10.4.4-3.5-.1-9.2-.5-12.4 3.3-3.9 4.7-.5 13 2.2 19.3 1 2.3 1.5 9.9 1 15.4 0 0 10.9 3.8 20.5 1.8l3.3-12.4c0 .1 9.1-13.5-4.2-27.8z" class="Z"/><path d="M84.1 193.7s4.6.3 6 7-5.3 6.6-5.3 6.6l-4.1-11.6 3.4-2z" class="h"/><use xlink:href="#J" class="b"/><path d="M76.2 210c.7 2.3 3.8 6.4 7.2 5.4-.8 1.5-.7 3.4.3 4.8 0 0-1.1 2.9-8.8-1.4 0 0 2.1-.2 1.5-4.4-.2-1.5-.7-2.8-1.5-4.1.3.3.7.3 1 .1.2-.1.3-.3.3-.4z" class="c"/><path d="M84 195.5c-1.1 3.8-2.5 9.2-6.2 11.2-.5.3-1.1.5-1.7.5-.6-.1-.5-.6-.9-1-.3-.3-.7-.4-1.1-.2-.3.2-.5.6-.5 1 0 .9.5 1.8 1.3 2.3.4.2.7.4 1 .6.4.4.6.9.6 1.4.1 1.4-.6 2.8-1.8 3.5-.1.1-.2.1-.2.1-.1 0-.2-.1-.3-.2l-1.7-1.5c-.8-.7-1.5-1.4-2.1-2.3-.8-1.1-1.2-2.4-1.2-3.8 0-.6.2-1.2.2-1.8-.1-.8-.3-1.5-.6-2.3-.4-.9-.6-1.9-.6-2.9.1-2 1.8-3.5 3.5-4.4 2.8-1.4 6-1.5 9.1-1.6.6 0 1.2 0 1.8.2.7.5.9 1.1 1.4 1.2z" class="h"/><g class="b"><use xlink:href="#K"/><path d="M73.4 250.2s-.1-5.7 2.7-6.8 22.3-4.2 22.3-4.2l1.8 2.1c-.1 0-19.2 11-26.8 8.9z"/></g><path d="m105 265.3-.2-.2 1.8 2.1-1.6-1.9z" class="g"/><g class="X"><path d="M67.6 266.4c.6 3.3 2.8 6.2 5.6 8.1s6 3.1 9.2 4.1c1.9.6 3.1 3 4.8 4.1a5.09 5.09 0 0 1 1.6 1.3c.6 1 .3 2.3 0 3.5l-4.4 15.2c-.7 2.5-1.4 5.2-.8 7.7.7 2.5 3.4 4.7 5.8 3.9l14.6-23.6c7.3-11.8 2.4-9.5-2.6-17.5-2.2-3.5-19.2-17.8-19.2-17.8-4.3-.6-8.8-.9-13-1.2-.4 4.1-2.3 8.2-1.6 12.2z"/><use xlink:href="#L"/></g><linearGradient id="C" x1="52.173" x2="208.943" y1="2050.676" y2="-1487.465" gradientUnits="userSpaceOnUse"><stop offset=".01"/><stop offset=".08" stop-opacity=".69"/><stop offset=".21" stop-opacity=".32"/><stop offset="1" stop-opacity="0"/></linearGradient><use xlink:href="#L" fill="url(#C)"/><path d="M91.2 318.8c1.1 1.1 2.7 2.1 2.6 3.7 0 .2 0 .3-.1.4-.2.2-.4.2-.6.2-3.5.4-6.8-1.7-9.5-4-.7-.5-1.3-1.2-1.6-2.1 0-.9.2-1.8.7-2.6.6-1.3 1.2-2.7 1.6-4.1-.1.4 1.6 1.9 1.9 2.2.6.5 1.6.9 2 1.6s.7 1.4 1 2.1c.6 1.1 1.2 1.9 2 2.6zm36.2-6.6c1.2.4 2.7.7 3.4 1.7.1.2.2.4.3.7 0 .6-.7 1-1.4 1.1-2.5.5-5.1.2-7.7-.2-.3 0-.7-.1-.9-.3-.3-.3-.6-.7-.7-1.1l-1-3.1v-.3c0-.1.1-.2.2-.2.7-.5 1.4-.9 2.2-1.2 1-.5 1.1-.4 1.8.4 1 1.1 2.3 2 3.8 2.5zm-27-73.4c2-.3 4.3-.6 5.9.6.8.7 1.4 1.5 1.9 2.4.6.6.7 1.5.1 2.1-.3.4-.8.5-1.2.5-1.9.4-3.9.9-5.6.2-1.3-.5-2.4-1.6-3.8-1.9-.2 0-.5-.1-.7-.2-.2-.2-.3-.4-.4-.6-.8-2.8 2-2.9 3.8-3.1z" class="b"/><path d="M122 317.9c.1.1.2.3.3.4.2.1.4.1.6 0 1.1-.2 2.3-.2 3.4-.1 2.3 0 4.7-.3 7-.6 1-.1 2.1-.4 2.7-1.2.1-.1.1-.2.1-.3 0-.2-.1-.4-.2-.5a8.17 8.17 0 0 0-3.9-2.6c-.6-.2-1.2-.4-1.8-.4s-1.2.3-1.6.7c-.4.5-.5 1.3-.9 1.8-.5.4-1.2.6-1.9.5-.8 0-1.6-.1-2.4-.3-.6-.1-1.4-.5-2.1-.4-1.1.3.3 2.3.7 3zm-40.8 1c0 .2 0 .4.1.5.1.2.4.3.6.4 1.2.6 2.3 1.3 3.4 2.1 2.2 1.5 4.6 2.7 7 3.8 1.1.5 2.3 1 3.3.6.1 0 .3-.1.3-.2.1-.2.1-.4.1-.6-.2-1.8-.9-3.5-2-5-.4-.6-.9-1.1-1.4-1.4-.6-.4-1.3-.5-2-.3s-1.3.9-2 1.1c-.8.1-1.6-.2-2.2-.7a16.8 16.8 0 0 1-2.1-1.8c-.5-.5-1-1.4-1.7-1.7-1.5-.6-1.4 2.2-1.4 3.2z" class="X"/><g class="Z"><path d="M62.6 225c-.5 1.5-.8 3-1 4.6l-.3 2.1c-.1.4-.1.9.1 1.3.3.7 1.8.4 2.5.5l3.7.6 7.5 1.1c.1-1.3.1-2.6-.1-3.8s-.7-2.3-1-3.5c-.2-1-.3-2-.6-2.9-.5-2-1.7-3.8-3.4-5.1-2.6-1.9-6.5 2.7-7.3 4.8 0 .1 0 .2-.1.3zm165.1 52.8h3.2v29.5h-3.2z"/><path d="M213.7 306.7h35.5v4.1h-35.5z"/></g><path d="M213.7 306.7h35.5v4.1h-35.5z" class="a"/><path d="M237.6 277.8h-19.8c-3 0-5.4-2.4-5.4-5.4 0-3 2.4-5.4 5.4-5.4h19.8c3 0 5.4 2.4 5.4 5.4 0 3-2.4 5.4-5.4 5.4z" class="Z"/><path d="M244 277.8h-19.8c-3 0-5.4-2.4-5.4-5.4 0-3 2.4-5.4 5.4-5.4H244c3 0 5.4 2.4 5.4 5.4 0 3-2.4 5.4-5.4 5.4z" class="a"/><path d="M203.7 227.1v10.3c0 3.8 3.1 6.9 6.9 6.9h10.3c1.2 0 2.3-.3 3.3-.9.8-.5 1.6-1.1 2.2-1.9.9-1.2 1.4-2.6 1.4-4.1v-10.3c0-3.8-3.1-6.9-6.9-6.9h-10.3c-.3 0-.6 0-.9.1-3.5.5-6 3.4-6 6.8z" class="Z"/><path d="M206.6 237.5c.1 1.1.5 2.1 1.2 3 1.9 2.5 5.5 2.9 8.6 2.9 2.3.1 10.5 1.8 9.9-2.1-.3-2.1-1.5-4.2-2.2-6.2-.6-2-1.9-4.6-1.9-6.6-.4-1.9-1-3.8-1.7-5.6-.4-.9-.9-1.8-1.6-2.6h-8.3c-.3 0-.6 0-.9.1.3 2.8-1.5 4.7-2.5 7.1-.9 2.2-.9 4.5-.9 6.9 0 1 .1 2 .3 3.1z" class="a"/><path d="M224.2 209.1c1.6 2.2 6.3 4.2 6.3 4.2.5-2.1-.6-2.9-.6-2.9-1.2.1-2.8-2.9-2.3-3.8.7-1.2 1.5-.7 2.2-.2 1.2-1 2-2.4 2.2-4 .1-.9-1.5-3.5 1.5-4.6s7.3 0 7.3 0 1.1-2.8-2.4-4.2c-2.9-1.1-7.2-.5-10.2-.1-1.6.1-3.2.6-4.6 1.4-2 1.4-2.9 3.9-3.3 6.3s-.4 4.9-1.1 7.2c-.4 1.3-1.1 2.5-1.1 3.9 0 1.3.9 2.9 2.2 2.9.5 0 1.1-.2 1.5 0s.5 1 .9 1.4c.7.7 1.9 0 3-.2 1.3-.3 2.8.5 4-.2.5-.3.9-.7 1.4-.8.7-.1 1.3.6 2 .7 1.2.2 2.2-1.4 3.4-1.3a9.83 9.83 0 0 1 1.6.5c1.8.6 3.8-.4 4.4-2.2v-.2c.4.3.9.2 1.2-.2 0 0 0-.1.1-.1.2-.4.3-.9.3-1.4 0-4 1.1-10.4-2-13.6-2.3-2.4-6.1-3-9.4-2.5-2.7.5-8.7 1.9-9.9 4.4s-.1 7.4 1.4 9.6z" class="e"/><g class="c"><path d="M249.5 245.3c-2.5-6.5-4.9-14.1-4.9-14.1l-1.9-12.9c6.3-.4 8.3 7.6 9.7 11.9 1.1 3.6 4.2 12.3 5.2 15h-8.1z"/><path d="M276.2 243.7c-1.6 2-4.6 2.2-7.2 2.2h-12.7c-.5.1-1 0-1.4-.3s-.6-.6-.8-1.1c-.6-1.2-3-6.1-2-7.2s5.9 1 7.2 1.4c5.6 1.5 11.2 3.2 16.9 5z"/></g><g class="X"><path d="M246.9 219.1c1.2.9 2.1 2.1 2.9 3.4l8.5 12.6c.8 1.5 2.2 2.6 3.8 3l8.4 3.1c.3.1.6.3.7.5s-.2.7-.4 1l-3.1 3.2c-.3.4-.7.7-1.1.8-.5.1-.9 0-1.3-.2l-16.4-5.3c-.5-.1-1-.4-1.4-.7-.7-.7-.8-1.8-.9-2.8-.1-2.8-.6-5.6-1.4-8.3-1-2.8-2.6-5.5-2.9-8.6-.1-1-.4-2.4.7-2.9.7-.5 3 .5 3.9 1.2z"/><path d="M242.7 218.3c-3.5.3-6.9.4-10.4.4-3.5-.1-9.2-.5-12.4 3.3-3.9 4.7-.5 13 2.2 19.3 1 2.3 1.5 9.9 1 15.4 0 0 10.9 3.8 20.5 1.8l3.3-12.3s9.1-13.6-4.2-27.9z"/></g><path d="M238.4 193.5s4.6.3 6 7-5.3 6.6-5.3 6.6l-4.1-11.6 3.4-2z" class="e"/><use xlink:href="#J" x="154.3" y="-.1" class="b"/><path d="M230.5 209.8c.7 2.3 3.8 6.4 7.2 5.4-.8 1.5-.7 3.4.3 4.8 0 0-1.1 2.9-8.8-1.4 0 0 2.1-.2 1.5-4.4-.2-1.5-.7-2.8-1.5-4.1.3.3.7.3 1 .1.2-.1.3-.2.3-.4z" class="c"/><path d="M238.3 195.4c-1.1 3.8-2.5 9.2-6.2 11.2-.5.3-1.1.5-1.7.5-.6-.1-.5-.6-.9-1-.3-.3-.7-.4-1.1-.2-.3.2-.5.6-.5 1 0 .9.5 1.8 1.3 2.3.4.2.7.4 1 .6.4.4.6.8.6 1.4.1 1.4-.6 2.8-1.8 3.5-.1.1-.2.1-.3.1s-.2-.1-.3-.2l-1.6-1.5c-.8-.7-1.5-1.4-2.1-2.3-.8-1.1-1.2-2.4-1.2-3.8 0-.6.2-1.2.2-1.8-.1-.8-.3-1.5-.6-2.3-.4-.9-.6-1.9-.6-2.9.1-2 1.8-3.5 3.5-4.4 2.8-1.4 6-1.5 9.1-1.6.6 0 1.2 0 1.8.2.7.5.9 1 1.4 1.2z" class="e"/><g class="b"><use xlink:href="#K" x="154.3" y="-.1"/><path d="M227.7 250.1s-.1-5.7 2.7-6.8 22.3-4.2 22.3-4.2l1.8 2.1s-19.2 11-26.8 8.9z"/></g><g class="X"><path d="M216.7 230.3c-.4 3.9.4 7.8 2.4 11.2.5.8 1.1 1.6 1.8 2.3a8.47 8.47 0 0 0 3 1.5c2.7.7 5.5 1 8.3.9 5 0 10-.3 15-.6.7 0 1.3-.1 2-.4.6-.4 1.1-.9 1.4-1.5.1-.2.3-.4.3-.6 0-.3-.1-.5-.2-.7l-1.6-3.4a1.08 1.08 0 0 0-1.4-.7c-.1 0-.2.1-.3.1-4.1 1.1-8.2 1.8-12.4 2.1-.5.1-.9 0-1.4-.1-.3-.2-.5-.4-.7-.7-1.2-1.6-1.7-3.5-2.3-5.4-1.1-3.8-2.3-7.7-4.5-11.1-.8-1.3-2.2-2.9-3.9-2.2-1.6.6-2.8 2.6-3.6 4-1 1.5-1.6 3.3-1.9 5.3z"/><use xlink:href="#M"/></g><use xlink:href="#M" x="1.6" class="Y"/><path d="M297.1 243.9h-11.8v-19.4c0-3.3 2.6-5.9 5.9-5.9 3.3 0 5.9 2.6 5.9 5.9v19.4z" class="X"/><path d="M299.8 243.9H288v-19.4c0-3.3 2.6-5.9 5.9-5.9 3.3 0 5.9 2.6 5.9 5.9v19.4z" class="Y"/><path d="m259.3 265.2-.2-.2 1.8 2.1c-.5-.7-1.1-1.3-1.6-1.9z" class="g"/><path d="M222 266.3c.6 3.3 2.8 6.2 5.6 8.1s6 3.1 9.2 4.1c1.9.6 3.1 3 4.8 4a5.09 5.09 0 0 1 1.6 1.3c.6 1 .3 2.3 0 3.5l-4.4 15.2c-.7 2.5-1.4 5.2-.8 7.7.7 2.5 3.4 4.7 5.9 3.9l14.6-23.6s2.4-9.5-2.6-17.5c-2.2-3.5-19.2-17.8-19.2-17.8-4.3-.6-8.8-.9-13-1.2-.6 4.2-2.4 8.2-1.7 12.3z" class="Z"/><path d="M236.6 255.3s17.3 14.1 19.2 17.8c5.1 10.2 2.6 17.5 2.6 17.5l12.8 20.5c3 .1 6.9-.7 7.1-3.7 0-.8-.2-1.6-.6-2.4l-9.6-24c-1.9-4.8-3.9-9.6-6.9-13.7l-.3-.4v-.1c-.2-.2-.8-1-1.8-2.1-2.8-3.1-8.2-8.6-13.1-10.8-.1.2-5.8 1.8-9.4 1.4z" class="a"/><path d="M245.5 318.7c1.1 1 2.7 2.1 2.6 3.6 0 .2 0 .3-.1.4-.2.2-.4.2-.6.2-3.5.4-6.8-1.7-9.5-4-.7-.5-1.3-1.2-1.6-2.1 0-.9.2-1.8.7-2.6.6-1.3 1.2-2.7 1.6-4.1-.1.4 1.6 1.9 1.9 2.2.6.5 1.6.9 2 1.6s.7 1.4 1 2.1c.6 1.1 1.2 1.9 2 2.7zm36.2-6.6c1.2.4 2.7.7 3.4 1.7.2.2.2.4.3.7 0 .6-.7 1-1.4 1.1-2.5.5-5.1.1-7.7-.2-.3 0-.7-.1-.9-.3-.3-.3-.6-.7-.7-1.1l-1-3.1v-.3c0-.1.1-.2.2-.2.7-.5 1.4-.9 2.2-1.3 1-.5 1.1-.4 1.8.4 1 1.2 2.3 2.1 3.8 2.6zm-27-73.5c2-.3 4.3-.6 5.9.7.8.7 1.4 1.5 1.9 2.4.6.6.7 1.5.1 2.1-.3.4-.8.6-1.2.5-1.9.4-3.9.9-5.6.2-1.3-.5-2.4-1.6-3.8-1.9-.2 0-.5-.1-.7-.2-.2-.2-.3-.4-.4-.6-.7-2.8 2-2.9 3.8-3.2z" class="b"/><path d="M276.3 317.7c.1.1.2.3.3.4.2.1.4.1.6 0 1.1-.2 2.3-.2 3.5-.1 2.3 0 4.7-.3 7-.6 1-.1 2.1-.4 2.7-1.2.1-.1.1-.2.1-.3 0-.2-.1-.3-.2-.5a8.17 8.17 0 0 0-3.9-2.6c-.6-.2-1.2-.4-1.8-.4s-1.2.3-1.6.7c-.4.5-.5 1.3-.9 1.8-.5.4-1.2.6-1.9.5-.8 0-1.6-.1-2.4-.3-.6-.1-1.4-.5-2.1-.4-1.2.3.3 2.4.6 3zm-40.8 1c0 .2 0 .4.1.5.1.2.4.3.6.4a18.52 18.52 0 0 1 3.3 2.1 58.96 58.96 0 0 0 7 3.8c1 .5 2.2 1 3.3.6.1 0 .2-.1.3-.2.1-.2.1-.4.1-.6-.2-1.8-.9-3.5-2-5-.4-.6-.9-1.1-1.4-1.4-.6-.4-1.3-.5-2-.3s-1.3.9-2 1.1c-.8.1-1.6-.2-2.2-.7a16.8 16.8 0 0 1-2.1-1.8c-.5-.5-1.1-1.4-1.7-1.7-1.3-.6-1.3 2.3-1.3 3.2z" class="X"/><use xlink:href="#N" class="Y"/><linearGradient id="D" x1="114.881" x2="85.675" y1="-198.624" y2="762.72" gradientTransform="matrix(.54 0 0 -.54 109.724 294.389)" gradientUnits="userSpaceOnUse"><stop offset=".01"/><stop offset=".08" stop-opacity=".69"/><stop offset=".21" stop-opacity=".32"/><stop offset="1" stop-opacity="0"/></linearGradient><use xlink:href="#N" fill="url(#D)"/><use xlink:href="#O" class="Y"/><linearGradient id="E" x1="114.023" x2="88.805" y1="242.809" y2="-772.973" gradientTransform="matrix(.54 0 0 -.54 109.724 294.389)" gradientUnits="userSpaceOnUse"><stop offset=".01"/><stop offset=".08" stop-opacity=".69"/><stop offset=".21" stop-opacity=".32"/><stop offset="1" stop-opacity="0"/></linearGradient><use xlink:href="#O" fill="url(#E)"/><g class="Y"><path d="M317.5 249.5H49.8v-3.6h269.9v1.4a2.22 2.22 0 0 1-2.2 2.2zM49.8 249.5H19a2.22 2.22 0 0 1-2.2-2.2V245h33v4.5z"/></g><g class="X"><path d="M45.5 244h275.8c.3 0 .6.3.5.7v2c0 .3-.2.6-.5.7H45.5V244z"/><use xlink:href="#P"/></g><linearGradient id="F" x1="-127.624" x2="-162.372" y1="126.145" y2="38.498" gradientTransform="matrix(.54 0 0 -.54 109.724 294.389)" gradientUnits="userSpaceOnUse"><stop offset=".01"/><stop offset=".08" stop-opacity=".69"/><stop offset=".21" stop-opacity=".32"/><stop offset="1" stop-opacity="0"/></linearGradient><use xlink:href="#P" fill="url(#F)"/><path d="M242.6 201.8c0 .1 0 .2-.1.3-.2.3-.6.4-.9.2-.3-.1-.6-.4-.8-.6 0 .3-.1.5-.4.6a1.1 1.1 0 0 1-.8 0c-.6-.1-1.2-.3-1.7-.6-.1.8-.7 1.3-1.5 1.3-.4 0-.7-.2-1-.5l-.4.7c-.3-.2-.7 0-1.1 0-.8-.1-1.3-.8-1.3-1.6s.2-1.5.6-2.2c.5-1.2.8-2.5 1.1-3.7 0-.4.2-.8.4-1.2.3-.3.6-.6 1-.7 1.9-.6 4.2.7 5.4 2.2a7.67 7.67 0 0 1 1.5 5.8z" class="e"/><path d="M436.8 317c.1 1.5-.2 3-.8 4.4-.7 1.3-1.9 2.3-3.2 3-2.9 1.5-6.3 1.8-9.4.9-.4-.1-.8-.3-1.1-.7-.2-.3-.2-.6-.2-.9.1-1.7 1.2-3.2 2.5-4.4 1.2-1.2 2.6-2.3 3.4-3.9 1.4-2.9.4-10.7 5.9-9.4 4.5 1 3 7.7 2.9 11z" class="f"/><path d="M437.6 322.2s.8 1.9-.2 3-10.8 7.2-17.5 2.3 9-5.6 9-5.6l8.7.3z" class="X"/><path d="M437.2 317.7c-.6-.3-1.4-.1-1.8.5-1.3 1.5-3.3 2.2-5.3 1.9-2.2-.5-3-3-4.1-3s-6.8 4.9-7.1 7 2.6 3.6 5.8 3.8 10.6-2 12-3.7c1.4-1.8 1.2-5.4.5-6.5z" class="Y"/><path d="M455.6 320c.1 1.5-.2 3-.8 4.4-.7 1.3-1.9 2.3-3.2 3-2.9 1.5-6.3 1.8-9.4.9-.4-.1-.8-.3-1.1-.7-.2-.3-.2-.6-.2-.9.1-1.7 1.2-3.2 2.5-4.4 1.2-1.2 2.6-2.3 3.4-3.9 1.4-2.9.4-10.7 5.9-9.4 4.5 1 3.1 7.7 2.9 11z" class="f"/><path d="M456.4 325.2s.8 1.9-.2 3-10.8 7.2-17.5 2.3c-6.6-4.9 9-5.6 9-5.6l8.7.3z" class="X"/><path d="M456 320.7c-.6-.3-1.4-.1-1.8.5-1.3 1.5-3.3 2.2-5.3 1.9-2.2-.5-3-3-4.1-3s-6.8 4.9-7.1 7 2.6 3.6 5.8 3.8 10.6-2 12-3.8c1.4-1.7 1.3-5.3.5-6.4z" class="Y"/><g fill="#473f47"><path d="M459.5 238.9s1 56.4-3.2 75.2l-10.6 1.3-7.3-77.2 21.1.7z"/><path d="M426.8 232.7s-5 30.4 1.1 79.3l10.6 1.3 7.3-77.2-19-3.4z"/></g><g class="X"><path d="M414.4 208.5c.1 2 .8 3.8 2.5 4.4.1.1.3.1.5.1 3.3.7 7.5-1.8 10.5-4 1.2-.9 2.4-1.9 3.6-2.9v-21.8l-15.8 16.2c-.1 0-1.5 4.4-1.3 8z"/><path d="m427.8 208.9-.1 3.1c0 5.6 1.3 11.4-.4 16.9-.4 1.2-.9 2.6-.5 3.8a4.89 4.89 0 0 0 2.4 2.3c5 2.7 10.7 3.5 16.3 4.3 4.2.6 10.2 1.8 14.1-.4 1.7-1 2.2-2.8 2.7-4.6 1.7-5.7 2.2-11.8 2.6-17.8.1-.8.1-1.6.2-2.3.3-5.4.4-10.8.3-16.2-.1-3.9-.4-8.1-2.9-11.1-3.4-3.9-10-6.5-15-7.5-1.6-.3-3.3-.4-4.9-.3-2.3.4-4.6 1.1-6.7 2.3-2.5 1.2-4.7 2.3-5.9 4.7-1.3 2.8-2.3 5.8-2.8 8.9-.5 2.9-.5 5.8-.2 8.8.2 1.4.5 2.8.7 4.3 0 .3.1.6.1.8z"/></g><path fill="#020202" d="M450.7 240.8c1.6.5 5.4-1 6.6-1.2.7-.1 1.4-.5 2.2-.7 3.7-.9 4.2-11.4 4.5-14.2 1-7.5 2.5-15.2 2.5-22.6 0-2.9 0-5.8-1-8.5-.9-2.7-2.9-5.2-5.6-6.2-4.8-1.7-6.2 13.3-6.8 16.5l-3.6 17c-.5 2.1-.8 4.2-1 6.4-.1 3 .8 5.1 1.6 7.8.4 1.5-.7 4.3-.2 5.4.3.1.6.3.8.3z" class="d" opacity=".1"/><path d="M439.3 174.9c.6.6 1.4 1.1 2.3 1.1.7.1 1.5.1 2.2 0h.4c.1 0 .2 0 .3.1s.1.2.1.3c.2 1.5.2 3 .1 4.4 0 .3 0 .5-.1.8s0 .6.1.8c.2.3.5.5.9.6.6.2 1.3.3 2 .3a8.38 8.38 0 0 0 4.1-1.4c-.1-2.5 0-5.1.4-7.6.5-3.2 1.3-6.5 1-9.7-.1-1.3-.5-2.5-1.3-3.5-1.2-1.3-3.1-1.7-4.8-1.7-2.3 0-4.6.6-6.6 1.8-.7.5-.8 1.1-1 2a26.29 26.29 0 0 0-.6 3.9c-.2 1.4-.3 2.9-.3 4.4 0 1.2 0 2.5.8 3.4z" class="f"/><path fill="#f9692d" d="M441.9 162c1.7.3 3.5 0 5.1.6 2.2.9 3.1 3.7 2.4 6 .6.2.7-.9 1.2-1.4s1.6.2 1.7.9c-.1.8-.3 1.6-.7 2.2-.6 1.4-.7 3-.3 4.4.1.3.4.7.7.7s.6-.7.8-.9a5.73 5.73 0 0 1 1.1-1.1l2.4-1.9c1.4-1.2 2.7-2.8 2.6-4.6 0-.7-.3-1.5-.7-2.1-.4-.5-.8-1-1.4-1.3-.2-.1-.5-.3-.5-.5 0-.1 0-.3.1-.4.5-1.8-.5-3.8-2.1-5-1.6-1.1-3.4-1.7-5.3-2l-3.7-.5c-1-.1-2-.3-2.9-.7.2-.7.6-1.3 1-1.9-.9.3-1.7.6-2.5 1.1 0-.4.2-.8.3-1.2-1.3.5-2.7 1-3.6 2.1-1.1 1.5-1.1 3.4-.1 4.9.9 1.5 2.4 2.1 4.1 2.5l.3.1z"/><path fill="#de9f93" d="M443.8 176h.4c.1 0 .2 0 .3.1s.1.2.1.3c.2 1.5.2 3 .1 4.4s4.2-1.1 4.1-6.3a22.13 22.13 0 0 1-5 1.5z"/><path d="M401.2 202.8a34.25 34.25 0 0 0 7.6 7.6c2.1 1.4 4.6 2.3 7.1 2.6.3 0 .7 0 1-.1.5-.2 1-.5 1.4-1 1.1-1.3 1.7-2.9 1.8-4.5.2-4.3-4.5-6.9-4.5-6.9s-10.7-3.4-12-2.9c-.7.3-1.4 1.8-1.8 3.1l-.6 2.1z" class="X"/><path fill="#020202" d="M401.2 202.8a34.25 34.25 0 0 0 7.6 7.6c2.1 1.4 4.6 2.3 7.1 2.6.3 0 .7 0 1-.1.1.1.3.1.5.1 3.3.7 7.5-1.8 10.5-4v-.1l-1-6.5c-1.9 2-4.2 3.7-6.7 5-1.8 1-3.8 1.3-5.8 1.1-.5-.1-1.1-.2-1.5-.5-4-1.9-7.7-4.3-11-7.2-.5 1.1-.7 2-.7 2z" class="d" opacity=".1"/><path d="M472.1 209.9c1.4 3.8 2.7 7.9 2.1 11.9-.7 4.9-4 9-7.1 12.8-2.5.4-5.7.3-6.6-2-.2-.7-.3-1.5-.2-2.3l.3-5.1c.2-2.3.3-4.6-.3-6.7-.7-2.5-2.4-4.5-3.8-6.7-2.2-3.6-3.5-7.6-3.8-11.8-.3-3.9 2.7-16.6 8.5-12.8 2.4 1.6 4.5 8.1 5.8 10.7 1.9 4 3.6 8 5.1 12z" class="X"/><path d="M459.1 238.1c-.1.2-.2.4-.2.7 0 .2.3.4.5.3.6 1.8-.6 3.7-.6 5.6a.9.9 0 0 0 .1.5c.1.2.2.4.4.5.7.4 1.5.5 2.2.1.7-.3 1.3-.8 1.8-1.3 1.1-1 1.9-2.3 2.4-3.7.2-.7.3-1.3.4-2l.6-5c-3.9-1.1-5.9 1.3-7.6 4.3zm-57.2-44.6c-.1-.3-.3-.6-.5-.9-.3-.2-.7-.2-.9.1-.1.2-.2.4-.2.6-.2.5-.6.7-1.1.7s-1-.1-1.4-.3c-1.3-.5-2.6-.9-3.9-1.2-.3-.1-.6-.1-.9 0-.3.2-.6.5-.7.8-.6 1.6-.2 3.4.8 4.8 1.1 1.3 2.5 2.3 4.2 2.7 1.6.4 3.3.7 5 .7.4.1.9 0 1.3-.2 1.9-1.2-1.2-6.4-1.7-7.8z" class="f"/><path d="M321.1 126.2h7v40.2h-7zm9.9 16.5h7v23.7h-7zm9.9 7.4h7v16.3h-7zm9.8-12.6h7v28.8h-7zm9.9-7.1h7v35.9h-7zm9.8-4.2h7v40.2h-7z" class="X"/><defs><path id="H" d="M161.7 278.3h-19.8c-3 0-5.4-2.4-5.4-5.4 0-3 2.4-5.4 5.4-5.4h19.8c3 0 5.4 2.4 5.4 5.4 0 3-2.5 5.4-5.4 5.4z"/><path id="I" d="M214.3 310.2a16.28 16.28 0 0 1 3.1.3c1 .1 1.9.5 2.6 1.1.4.4.7.9.8 1.4.1.6-.1 1.1-.5 1.6-.4.3-.8.6-1.3.7l-3.3 1.1c-2.3.9-4.7 1.5-7.2 1.8h-.4c-.1-.1-.2-.1-.3-.2-1.5-1.4-2.9-3.2-3.3-5.2v-.2c0-.1.1-.1.2-.2 1.5-1 3.1-1.8 4.9-2.3 1.6-.5 3.1.1 4.7.1z"/><path id="J" d="M81 215.7c4.2.3 6.7-3.6 7.2-8.7.1-.6.1-1.1.1-1.7 0-1.7-.2-3.3-.6-4.9-1.8-7.8-13-4.7-13-4.7-8.7 3.9-1 19.4 6.3 20z"/><path id="K" d="m76.6 243.2-3.2 7s-6.9-8.6-9.5-17.8c-2.3-8.2 1.8-10.2 1.8-10.2 3.1-1.1 5.2 3.3 8.3 12.2 1.6 4.9 2.6 8.8 2.6 8.8z"/><path id="L" d="M82.3 255.4s17.3 14.1 19.2 17.8c5.1 10.2 2.6 17.5 2.6 17.5l12.8 20.5c3 .1 6.9-.7 7.1-3.7 0-.8-.2-1.7-.6-2.4l-9.6-24c-1.9-4.7-3.9-9.6-6.9-13.7l-.3-.4c-.2-.2-.8-1-1.8-2.1-2.8-3.1-8.2-8.6-13.1-10.8-.1.1-5.9 1.8-9.4 1.3z"/><path id="M" d="M264.5 231.5h40.7c1.3 0 2.4-1 2.5-2.3l2.7-30.9c.1-1.1-.7-2.1-1.8-2.3h-41c-1.3 0-2.4 1-2.5 2.3l-2.7 30.9c-.1 1.1.7 2.1 1.8 2.3h.3z"/><path id="N" d="M18.8 251.9v68.3c0 1.3.9 2.4 1.9 2.4h29.7c1.1 0 1.9-1.1 1.9-2.4v-68.3c0-.2.2-.5.4-.5h230.8c.2 0 .4.3.4.5v59.7c.3.2.7.3 1 .5l.5.2v-60.8h30.2c.2 0 .4.3.4.5v68.3c0 .2-.2.5-.4.5H286c-.2 0-.4-.3-.4-.5v-1.7c-.5.1-1 .2-1.5.1v1.7c0 1.3.9 2.4 1.9 2.4h29.7c1.1 0 1.9-1.1 1.9-2.4v-68.3c0-1.3-.9-2.4-1.9-2.4H20.8c-1.1-.2-2 .9-2 2.2zm1.6 0c0-.3.2-.5.4-.5H51v68.8c0 .2-.2.5-.4.5H20.8c-.3 0-.4-.3-.4-.5v-68.3z"/><path id="O" d="M20.8 322.6h29.7c1.1 0 1.9-1.1 1.9-2.4v-68.3c0-.2.2-.5.4-.5h262.9c.3 0 .4.2.4.5v68.3c0 .3-.2.5-.4.5-.5.1-.8.6-.7 1.1.1.4.4.7.7.7 1.1 0 1.9-1.1 1.9-2.4v-68.3c0-1.3-.9-2.4-1.9-2.4H52.9c-1.1 0-1.9 1.1-1.9 2.4v68.3c0 .2-.2.5-.4.5H20.8c-.3 0-.4-.2-.4-.5v-68.3c0-.3.2-.5.4-.5.5-.1.8-.6.7-1.1-.1-.4-.4-.7-.7-.7-1.1 0-1.9 1.1-1.9 2.4v68.3c-.1 1.3.8 2.4 1.9 2.4z"/><path id="P" d="M15.3 244H51c.3 0 .6.3.5.7v2c0 .3-.2.6-.5.7H15.3c-.4 0-.7-.4-.6-.8v-1.7c-.1-.5.2-.8.6-.9z"/></defs></svg>