<svg xmlns="http://www.w3.org/2000/svg" xmlns:xlink="http://www.w3.org/1999/xlink" width="500" height="396.8"><style>.X{fill:#fc5b3f}.Y{fill:#fff}.Z{enable-background:new}.a{fill:#ce9e95}.b{fill:#fdb9a9}</style><g class="X Z"><path d="M84.4 386c-18.1-3-35.2-10.6-49.6-22-17-13.3-35.4-31.3-34.8-53.6.6-23.7 9.4-46.4 19.2-67.7 12.9-28.8 30.9-59.1 26.1-91.1-4.7-31.5 1.6-70.3 18.5-97.5 26.7-42.6 73.3-53 120-54 30.8-.6 62.5 1.2 90.6 13.9 29.5 13.3 53.1 38 83.3 49.4 20 7.5 41.8 9 61.4 17.5 24.6 10.7 43.6 31.9 55.9 55.7 12.3 23.9 18.5 50.3 23.2 76.6 7.8 44.5-10.7 100-37.4 136.4-17.9 24.4-47.7 52.4-78.4 46.4-155.7-29.7-125.8 17.8-298-10z" opacity=".18"/><path d="M456.1 154.5c0 8.7-7.1 15.8-15.8 15.9h-40.7a15.88 15.88 0 1 1 0-31.8h5.9v-1.3c-.1-8 6.3-14.7 14.3-14.8s14.7 6.3 14.8 14.3v1.8h5.8c8.7.1 15.8 7.2 15.7 15.9z" opacity=".31"/></g><path d="M451.1 153c0 8.7-7.1 15.8-15.8 15.9h-40.7a15.88 15.88 0 1 1 0-31.8h5.8v-1.3c-.4-8.1 5.8-14.9 13.9-15.3s14.9 5.8 15.3 13.9v2.7h5.8c8.7.1 15.7 7.2 15.7 15.9z" class="Y"/><path d="M74 190.4c0-1.2.4-2.5 1.3-3.3 2-2 3.4-4.6 4.2-7.3.9-3.6-.6-7.4-3.7-9.4-1.8-1.4-3.9-2.4-6.1-3-2.2-.7-3.6-2.9-3.3-5.2.2-1.5.3-2.9.5-4.4.2-2.7 2.6-4.8 5.4-4.6 2.1-.1 4.2-.5 6.1-1.4 4.5-1.7 6.9-6.7 5.3-11.3-.6-1.9-1.3-3.7-2.1-5.5-1-2.1-.3-4.6 1.5-6 1.1-.9 2.3-1.7 3.3-2.6 2-1.5 4.8-1.4 6.7.2 1.6 1.6 3.5 2.8 5.5 3.7 4 1.8 8.6.6 11.2-3 1.4-2 2.5-4.1 3.1-6.4.7-2.3 3-3.7 5.4-3.3l4.4.6c2.4.3 4.2 2.3 4.2 4.7.1 2.8.8 5.5 2.1 8a9.23 9.23 0 0 0 9.6 4.3 21.42 21.42 0 0 0 6-2.1c2.3-1.3 5.2-.6 6.7 1.7.8 1.3 1.9 2.4 2.8 3.6 1.3 1.8 1.1 4.3-.5 5.9-1.6 1.7-2.9 3.7-3.8 5.9-1.9 4.4 0 9.6 4.3 11.7 1.6.9 3.3 1.6 5 2.2 2.1.7 3.4 2.6 3.3 4.8 0 1.8-.3 3.5-.6 5.3-.3 2.4-2.3 4.2-4.7 4.1-2.6.1-5.1.7-7.4 1.8-3.6 1.7-5.5 5.7-4.7 9.6.3 2.2 1 4.4 2.1 6.3 1.4 2.3.7 5.2-1.5 6.7l-3 2.3c-1.9 1.7-4.9 1.6-6.7-.2-1.8-1.7-3.9-3-6.2-3.8-3.9-1.5-8.3-.1-10.6 3.3-1.4 2-2.5 4.1-3.1 6.4-.6 2.2-2.8 3.6-5.1 3.3l-4.9-.7c-2.1-.4-3.6-2.2-3.8-4.3-.1-2.7-.7-5.3-1.8-7.7-1.8-4-6.1-6.1-10.3-5-2 .6-4 1.3-5.9 2.2-2 1-4.4.5-5.9-1.1-1.2-1.3-2.3-2.7-3.3-4.1-.4-.9-.8-1.8-1.1-2.7l.1-.2zm40.5-40.5c-8.7-.1-15.8 7-15.9 15.7v.1c.1 8.5 6.9 15.5 15.4 15.8 8.7.5 16.2-6.1 16.7-14.8s-6.1-16.2-14.8-16.7c-.5-.1-.9-.1-1.4-.1zm79.5-5.3v1.8c0 1.6-1.1 3-2.7 3.3l-3.3.8c-1.7.5-3.6-.4-4.3-2-.7-1.4-1.5-2.6-2.4-3.8-2.2-3.1-6.5-3.7-9.5-1.5-.2.1-.3.2-.5.4-1.1.9-2.1 1.8-3 2.8-1.1 1.4-3.1 1.7-4.6.8l-2.7-1.6c-1.9-.9-2.7-3.2-1.7-5.1v-.1a18.62 18.62 0 0 0 .9-4.7c.3-3.6-2.3-6.8-5.9-7.2-1.7-.3-3.3 0-5.1-.3-1.8 0-3.2-1.4-3.3-3.1-.1-.9-.4-1.8-.6-2.7-.5-1.8.3-3.7 2.1-4.5 1.6-.8 3.1-1.8 4.4-3 2.4-2.2 2.8-5.8.9-8.5-.8-1.2-1.7-2.3-2.8-3.3-1.8-1.2-2.3-3.6-1.1-5.4.1-.1.1-.2.2-.3l1.4-2.3c.9-1.6 2.9-2.3 4.7-1.6 1.9.8 3.9 1.1 5.9.9 2.8-.1 5.2-2.2 5.8-4.9.4-1.8.6-3.6.5-5.4-.1-1.7.9-3.3 2.5-3.9 1.2-.4 2.5-.6 3.7-.9 1.7-.6 3.6.4 4.2 2.1v.2c.8 1.9 2.1 3.7 3.8 5 2.6 2 6.3 1.8 8.7-.4 1-.8 1.9-1.6 2.7-2.5 1.2-1.4 3.2-1.7 4.7-.8l3.1 1.8c1.5.9 2.2 2.8 1.5 4.5s-1 3.6-1 5.5c0 3.4 2.5 6.2 5.8 6.7 1.5.2 3 .3 4.6.3 1.9-.2 3.7 1.2 3.9 3.1l.8 3.3c.4 1.7-.5 3.4-2.1 4-1.8.8-3.4 1.9-4.7 3.3-2 2-2.4 5-1.1 7.5.9 1.5 2.1 2.9 3.3 4.2 1.6 1.2 2 3.5.8 5.1l-1.5 2.5c-.9 1.8-3.1 2.6-4.9 1.7-2.2-.9-4.6-1.1-7-.6-2.4.7-4.2 2.7-4.7 5.2-.2 1.1-.4 2.3-.4 3.6zm-13.4-41.5c-6.5-.1-11.8 5.1-11.9 11.6v.2c-.3 6.6 4.7 12.2 11.2 12.5 6.6.3 12.2-4.7 12.5-11.2v-1.3c0-6.5-5.2-11.8-11.7-11.8h-.1z" class="X"/><linearGradient id="A" x1="139.792" x2="121.033" y1="212.791" y2="466.251" gradientUnits="userSpaceOnUse"><stop offset=".01"/><stop offset=".08" stop-opacity=".69"/><stop offset=".21" stop-opacity=".32"/><stop offset="1" stop-opacity="0"/></linearGradient><path fill="url(#A)" d="m163.5 312.3 38.6 3c1.8 0 3.6.4 5.2 1.3 2.4 1.9 3.3 5.1 2.2 7.9-1.1 2.7-2.9 5.1-5.3 6.9-14 11.3-33.7 11.9-51.8 11.8l-85.3-.5c-3.3.2-6.6-.3-9.7-1.4-3.1-1.3-5.1-4.4-5-7.8.7-2.9 2.7-5.3 5.4-6.7 7.6-4.2 16-6.9 24.6-7.9l39.1-6.7"/><linearGradient id="B" x1="369.22" x2="350.428" y1="208.723" y2="462.217" gradientUnits="userSpaceOnUse"><stop offset=".01"/><stop offset=".08" stop-opacity=".69"/><stop offset=".21" stop-opacity=".32"/><stop offset="1" stop-opacity="0"/></linearGradient><path fill="url(#B)" d="m393 308.3 38.6 3c1.8 0 3.6.4 5.2 1.3 2.3 1.9 3.2 5 2.2 7.9-1.1 2.8-2.9 5.1-5.3 6.9-14 11.5-33.7 11.9-51.8 11.8l-85.3-.5c-3.3.2-6.6-.3-9.7-1.4-3.2-1.2-5.2-4.4-5.1-7.8a10.12 10.12 0 0 1 5.4-6.7c7.7-4.2 16.1-6.8 24.7-7.8l39.1-6.7"/><path d="M368.3 316c.1 2-.3 4-1.1 5.8-1 1.7-2.4 3.1-4.2 3.9-3.8 2-8.2 2.4-12.3 1.2-1 0-1.8-.9-1.7-1.9v-.2c.4-2.3 1.5-4.3 3.3-5.8 1.8-1.4 3.3-3.2 4.5-5.1 1.9-3.8.5-14 7.7-12.3 5.8 1.3 3.9 10.1 3.8 14.4z" class="a"/><path d="M369.3 322.7s1 2.5-.2 4-14.2 9.5-22.9 3 11.8-7.3 11.8-7.3l11.3.3z" class="X"/><path d="M368.8 317c-.8-.4-1.8-.1-2.3.6-1.7 2-4.3 2.9-6.9 2.5-2.8-.7-4-3.9-5.4-4-1.4 0-8.9 6.4-9.4 9.1-.4 2.7 3.3 4.8 7.7 5 4.3.3 13.9-2.7 15.7-4.9 1.5-2.5 1.7-5.6.6-8.3z" class="Y"/><path d="M392.9 319.9c.1 2-.3 4-1.1 5.8-1 1.7-2.4 3.1-4.2 3.9-3.8 2-8.2 2.4-12.3 1.2-.6-.1-1.1-.4-1.4-.9-.2-.4-.3-.8-.3-1.2.4-2.3 1.5-4.3 3.3-5.8 1.8-1.4 3.3-3.2 4.5-5.1 1.9-3.8.5-14 7.7-12.3 5.8 1.4 4 10.1 3.8 14.4z" class="a"/><path d="M393.9 326.8s1 2.5-.2 4-14.2 9.5-22.9 3 11.8-7.3 11.8-7.3l11.3.3z" class="X"/><path d="M393.4 320.9c-.8-.4-1.8-.2-2.3.6-1.7 1.9-4.4 2.9-6.9 2.5-2.8-.7-4-3.9-5.4-4-1.4 0-8.9 6.4-9.4 9.1-.4 2.7 3.3 4.8 7.7 5 4.3.3 13.9-2.7 15.7-4.9 1.6-2.4 1.8-5.5.6-8.3z" class="Y"/><g fill="#473f47"><path d="M398 213.8s1.4 73.8-4.1 98.5L380 314l-9.6-101.2 27.6 1z"/><path d="M355.2 205.7s-6.7 40 1.4 103.8l13.9 1.7 9.6-101.1-24.9-4.4z"/></g><g class="X"><path d="M339.1 173.9c0 2.7 1 5 3.3 5.8.2.1.4.1.6.2 4.3.9 10-2.4 13.8-5.2 1.6-1.2 3.2-2.4 4.6-3.8v-28.5l-20.7 21.2c-1.1 3.3-1.7 6.8-1.6 10.3z"/><path d="M356.4 174.5v4c0 7.4 1.7 15-.5 22.2-.7 1.5-.9 3.3-.6 4.9.6 1.3 1.7 2.4 3.1 3 6.7 3.1 13.9 5.1 21.3 5.7 5.5.8 13.3 2.4 18.4-.6 1.9-1.4 3.2-3.6 3.6-6 1.9-7.6 3-15.5 3.3-23.3 0-1 0-2 .2-3.1.4-7 .6-14.1.4-21.2 0-5.1-.5-10.7-3.8-14.5-5.4-5.1-12.2-8.4-19.5-9.6-2.1-.4-4.3-.6-6.5-.4-3 .5-6 1.5-8.7 3-3.2 1.1-5.9 3.3-7.7 6.2-1.8 3.7-3.1 7.6-3.8 11.6-.6 3.8-.7 7.6-.2 11.5.2 1.9.7 3.7.9 5.6.1.4.1.7.1 1z"/></g><path fill="#020202" d="M386.5 216.3c2.1.6 7.1-1.3 8.7-1.6 1 0 1.9-.7 2.8-.9 4.9-1.2 5.5-14.9 5.9-18.6 1.7-9.8 2.8-19.7 3.3-29.6.2-3.8-.2-7.6-1.3-11.2a12.95 12.95 0 0 0-7.3-8.2c-6.2-2.2-8.1 17.5-9 21.6l-4.7 22.3c-.7 2.7-1.1 5.5-1.3 8.4a28.86 28.86 0 0 0 2.1 10c.6 2-1 5.7-.2 7.1.3.2.6.5 1 .7z" class="Z" opacity=".1"/><path d="M371.5 129.9a4.36 4.36 0 0 0 3 1.5c1 .1 1.9.1 2.9 0h1a.76.76 0 0 1 .2.4 28.11 28.11 0 0 1 0 5.8v1c-.1.4-.1.7 0 1.1.2.4.7.6 1.2.8.8.3 1.7.4 2.6.4 1.9-.2 3.7-.8 5.3-1.9-.1-3.3 0-6.7.5-10 .9-4.2 1.4-8.4 1.3-12.7-.1-1.7-.7-3.3-1.8-4.6-1.7-1.6-4-2.4-6.3-2.3-3-.1-6 .8-8.6 2.4-1 .6-1.1 1.5-1.3 2.5-.3 1.7-.6 3.3-.8 5.1-.2 1.7-.3 3.8-.4 5.8-.2 1.7.3 3.3 1.2 4.7z" class="a"/><path fill="#473f47" d="M373.5 106.3c-1.2.2-2.1 1.2-2.2 2.4 0 1.2.8 2.3 2 2.7-.2 1.4.8 2.7 2.2 3a7.66 7.66 0 0 0 4-.5c1.4 1.8 4 2.2 5.9 1.1v.8c.6 1.3 1 2.8 1.2 4.2l-.4 2.8c.2-1.5 1.5-2.6 3.1-2.5.4 0 .8.1 1.1.4.1.2.2.4.2.7 0 .9-.4 1.8-1.1 2.3-.5.3-1.1.6-1.4 1.1-.2.5-.2 1.1 0 1.7.1.6.1 1.3-.2 1.9l.9-.2c.3-.1.5-.3.8-.5.5-.6.7-1.3.6-2.1a3.12 3.12 0 0 0 3.1-3.1c0-.4-.1-.7-.2-1 1-.1 1.7-1.1 1.6-2.1-.2-1-.7-1.9-1.3-2.7 1.6 0 2.9-1.3 2.9-3-.1-.5-.1-.9 0-1.4.2-.5.5-1 .8-1.4.6-1.2.4-2.6-.6-3.5-.7-.6-1.6-.9-2.1-1.6-.3-.7-.4-1.4-.5-2.1-.6-2.7-3.6-4-6.2-4.8-.7-.3-1.5-.4-2.2-.4-.8.1-1.4.6-1.6 1.4-.7-.6-1.6-1-2.5-1.1-.9 0-1.9.8-1.7 1.7-.4-1.5-2.8 2.3-3 2.4-1.5.9-4-.1-3.2 3.4z"/><path fill="#af807a" d="M377.4 131.5h1a.76.76 0 0 1 .2.4 28.11 28.11 0 0 1 0 5.8c3.5-1.1 5.8-4.5 5.5-8.2l-6.7 2z"/><path d="M321.6 166.5a39.6 39.6 0 0 0 10 10c2.8 1.9 6 3 9.4 3.3.4 0 .9 0 1.3-.2.7-.2 1.3-.6 1.8-1.2 1.4-1.7 2.2-3.7 2.4-5.9.2-5.7-5.9-9-5.9-9s-14-4.5-15.7-3.7c-.9.4-1.8 2.4-2.4 4.1l-.9 2.6z" class="X"/><path fill="#020202" d="M321.6 166.5a39.6 39.6 0 0 0 10 10c2.8 1.9 6 3 9.4 3.3.4 0 .9 0 1.3-.2.2.1.4.1.6.2 4.3.9 10-2.4 13.8-5.2l-1.3-8.5c-2.6 2.7-5.5 4.9-8.8 6.7-2.3 1.2-4.9 1.7-7.5 1.4-.7-.1-1.4-.3-2-.6-5.3-2.6-10.1-5.8-14.5-9.7-.7 1.4-1 2.6-1 2.6z" class="Z" opacity=".1"/><path d="M414.5 175.8c2.2 4.9 3.1 10.3 2.7 15.6-.9 6.4-5.2 11.8-9.3 16.7-3.3.5-7.4.4-8.6-2.6-.3-1-.3-2-.2-3l.5-6.7c.4-2.9.2-5.9-.5-8.8-1.3-3.1-2.9-6.1-5-8.8-2.9-4.6-4.7-9.9-5.1-15.4-.4-5.1 3.5-21.7 11.1-16.7 3.1 2.1 5.9 10.6 7.6 14 2.6 5.2 4.8 10.4 6.8 15.7z" class="X"/><path d="M397.4 212.8c-.2.2-.3.5-.3.8a.47.47 0 0 0 .5.5h.2c.8 2.4-.8 4.9-.8 7.4v.7c.1.3.3.5.6.7.9.5 1.9.6 2.8.2s1.7-1 2.4-1.8c1.4-1.3 2.5-3 3.2-4.8.2-.8.4-1.7.5-2.6l.8-6.7c-4.9-1.6-7.7 1.6-9.9 5.6zm-75-58.5c-.1-.4-.4-.8-.7-1.2-.3-.3-.8-.3-1.2 0-.1.2-.2.5-.2.8-.3.6-.9 1-1.5 1s-1.3-.2-1.8-.5l-5.1-1.6c-.4-.1-.8-.1-1.2 0-.4.2-.7.6-.9 1.1-.7 2.1-.3 4.5 1.1 6.3 1.4 1.7 3.3 3 5.5 3.6s4.4.9 6.7 1c.6.1 1.1 0 1.6-.2 2.5-1.6-1.5-8.5-2.3-10.3z" class="a"/><path d="M162.1 204.1s0 30.9-2.2 36.5c-5.7 15.7-13.3 22.1-13.3 22.1l-8.9 34.1c2.9 3.3 7.7 6.7 11 3.8.9-.9 1.5-1.9 2-3l15.7-34.2c3.4-6.6 5.9-13.7 7.5-21v-.8c0-.4.2-1.9.4-3.9.5-6-.5-34.6-3.3-42 0 0-10.6 3.6-13.6-.5l4.7 8.9z" class="X"/><linearGradient id="C" x1="372.214" x2="618.244" y1="-1483.004" y2="-1472.109" gradientTransform="scale(1 -1) rotate(-46.552 1733.467 -518.523)" gradientUnits="userSpaceOnUse"><stop offset=".01"/><stop offset=".08" stop-opacity=".69"/><stop offset=".21" stop-opacity=".32"/><stop offset="1" stop-opacity="0"/></linearGradient><path fill="url(#C)" d="M162.1 204.1s0 30.9-2.2 36.5c-5.7 15.7-13.3 22.1-13.3 22.1l-8.9 34.1c2.9 3.3 7.7 6.7 11 3.8.9-.9 1.5-1.9 2-3l15.7-34.2c3.4-6.6 5.9-13.7 7.5-21v-.8c0-.4.2-1.9.4-3.9.5-6-.4-29.1-3.1-36.7-3.4.6-6.9-.5-9.4-3l.3 6.1z"/><path d="M135.8 199.7a19.01 19.01 0 0 0-3 14.1c1.1 7.4 6.3 13.3 7.4 20.6.4 3.8-1.8 7.5-5.4 8.9l-20.5 10.6c-3.6 1.5-6.6 3.9-8.9 7-2.2 3.3-1.4 7.7 1.7 10l39.5-8c7.6-4.6 13.3-11.9 15.9-20.5 1.5-5.8-.5-44.4-.5-44.4-6.4-6.1-8.6-3.8-12.6-8.5-4.8 3.5-10 5.4-13.6 10.2z" class="X"/><path fill="#ec9c7d" d="M104 277.1c0 2.2.4 4.9-1.3 6.4-.1.2-.3.3-.6.3s-.6-.1-.9-.4c-3.9-3.3-4.9-8.9-5.3-14-.2-1.3 0-2.6.6-3.8.9-.9 2.1-1.6 3.3-1.8 2-.6 4-1.4 5.9-2.4-.6.3-.4 3.6-.4 4.2.3 1.3.4 2.5.4 3.8-.4 1.1-.8 2.2-1.3 3.3-.3 1.4-.5 2.9-.4 4.4zm43.2 31.7c1 1.6 1.6 3.5 1.6 5.4 0 .3-.2.7-.4.9-.7.7-1.8.2-2.6-.3-2.9-2.3-5.5-5.2-7.5-8.4-.3-.4-.5-.8-.6-1.3 0-.7.2-1.3.5-1.8l2.3-4.2.3-.3a.45.45 0 0 1 .5 0c1.2.2 2.4.6 3.5 1.1 1.5.6 1.6.7 1.4 2.3-.3 2.2.1 4.5 1 6.6z"/><path d="M135.8 308.8c-.1.2-.1.4 0 .7 0 .3.4.5.6.7a30.6 30.6 0 0 1 3.6 3.6c2.4 2.4 5 4.6 7.7 6.7 1 1.1 2.5 1.7 4 1.7h.5c.2-.2.3-.4.3-.7.3-2.3-.1-4.6-1.1-6.7-.3-.8-.8-1.6-1.3-2.2-.6-.7-1.5-1-2.4-1-1 0-1.8.8-2.8.8-1-.2-1.9-.7-2.5-1.5-.8-.9-1.5-1.8-2.1-2.8-.5-.7-.9-2.1-1.7-2.5-1.7-1.5-2.4 2-2.8 3.2zm-41.9-42.3c-.5.3-.7 1-.4 1.5l.1.1c.6 1.8.9 3.7 1.1 5.6.7 3.8 1.7 7.6 3 11.3.3 1.7 1.3 3.2 2.7 4.1h.6c.3-.1.5-.2.7-.5 1.7-2 2.9-4.4 3.3-7.1.2-1 .2-2 0-3s-.7-1.9-1.6-2.4c-1-.5-2.2-.4-3.2-1.1-.9-.8-1.4-1.9-1.4-3-.2-1.3-.2-2.6-.2-4 0-1 .4-2.6 0-3.3-.8-2-3.7 1-4.7 1.8z" class="X"/><path fill="#f89659" d="M173.8 125.1c-.6 4.6-1.9 9.1-3.9 13.3-.1.4-.4.8-.8 1.1-.4.2-.7.2-1.1.2l-15.5-.2c-1.2 0-2.8-.2-3.3-1.4-.5 1-1.9 1.1-3.1 1a41.23 41.23 0 0 1-14.2-4.4c1.7-6 3.8-11.9 6.5-17.6.9-2 2.1-3.9 3.6-5.5 2-1.9 4.5-3.4 7.2-4.3 6.7-2.4 16.2-3.7 21.3 2.4 3.1 4.5 4.3 10 3.3 15.4z"/><path d="m173.4 147.1 18.7 19.3c1.9-1.4 3.9-2.6 6-3.7 2.8-1.1 21-10.4 28.1-11.8 3.8-.8 7.7-.6 11.3.6.6.1 1.1.5 1.5 1 .5 1-.6 2.1-1.7 2.3-1.1.1-2.2.3-3.3.6-.9.5-1.7 1.2-2.2 2.1-2.4 2.7-5.9 4.3-9.6 4.3-1.5 0-3-.7-4.5-.6-2 .6-3.9 1.6-5.4 3-4.9 3.3-9.3 7.6-14.2 10.9-1 .8-2.1 1.3-3.3 1.5-1.2 0-2.3-.3-3.3-.8-7.3-2.4-14.1-6.3-20-11.4-.5-.4-.9-1-1.2-1.5-.2-.6-.3-1.2-.3-1.9v-7.8c0-1.2.3-2.3.8-3.3.6-1.1 1.8-1.7 3-1.4" class="b"/><path fill="#de9f93" d="M185.2 167.5c.6.5 1.3.9 2 1.2 1.6.5 3.2.7 4.9.5 2.5-.1 5 .1 7.4.4.6 0 1.2.2 1.8.6.5.3.8 1 .6 1.6-.2.3-.4.6-.7.8-1.8 1.8-4.2 3-6.7 3.6-3.1.1-6.2-.9-8.7-2.8l-5.5-3.3c-.8-.4-1.5-1-2.1-1.7-.8-1.2-.9-4.5.9-4.8s4.9 3 6.1 3.9z"/><path d="M170.2 142.8c-2-1.5-4.3-.5-6.7-.4h-8c-5.1-.2-13.3-.7-18 4.9-5.6 6.7-1.2 17.7 1.7 24.7 1 1.8 1.7 3.8 2.1 5.9a26.56 26.56 0 0 1 0 6.9c-.7 4.4-2.4 8.7-5.1 12.3-1.3 1.2-2 2.9-1.9 4.6.5 1.5 1.6 2.7 3 3.3 5.3 3.1 11.3 4.9 17.5 5.2 2.9 0 5.7-.4 8.5-1.1 2.5-.4 5.3.5 7.2-1.9.6-.8 1-1.8 1.2-2.8 2.1-8 2.1-16.7 5.3-24.3 1.7-4.1 4.6-9.1 4.3-13.7-.2-1.8-.7-3.5-1.4-5.1-1.6-4-3.3-8-5.3-11.9-1-2.6-2.5-4.8-4.4-6.6z" class="Y"/><path d="M163.9 144.4s-1.7 4.2-12.8-2c0 0 3-.3 2.2-6.4-.2-2.1-1-4.2-2.2-5.9a1.09 1.09 0 0 0 1.5 0c.1-.1.2-.3.3-.5.2.6.5 1.2.8 1.8 1.7 3.3 5.5 7.3 9.8 6.2-.9 1.6-1 3.5-.4 5.3.2.5.4 1 .8 1.5z" class="b"/><path fill="#de9f93" d="M163 142.8h-.6c-4.2.4-9.1-11.7-9.1-11.7h.3c1.7 3.3 5.5 7.3 9.8 6.2-.9 1.6-1 3.7-.4 5.5z"/><path d="M159.9 138c6.1.5 9.8-5.2 10.5-12.6v-2.5c0-2.4-.3-4.8-.8-7.2-2.7-11.4-18.9-6.9-18.9-6.9-12.7 5.8-1.5 28.3 9.2 29.2z" class="b"/><path fill="#f89659" d="M164.2 108.6c-.2.9-.4 1.8-.8 2.6-.5 1.8-1.1 3.6-1.8 5.3-1.2 3.5-3.6 6.4-6.7 8.4-.7.5-1.6.8-2.5.8-.8-.2-.8-.8-1.4-1.4-.4-.4-1.1-.5-1.6-.3-.4.4-.7.9-.7 1.5 0 1.4.7 2.6 1.9 3.3.5.2 1.1.5 1.5.9.6.5.6 1.2.9 1.9l1 2.4c.4.7.6 1.6.5 2.4-.2 1-.8 1.8-1.6 2.3-2.2 1.1-4.7 1.5-7.2.9-1.7-.1-3.4-.6-4.9-1.5-.8-.7-1.6-1.4-2.3-2.1-1.2-.9-2.4-1.6-3.8-2.1a15.38 15.38 0 0 0 3.6-3.6c1.6-2.7 2-5.9 1-8.9-.5-1.9 0-11.8 7-15.1 4.5-2 9.5-2.4 14.3-1.3.9.1 1.7.5 2.4 1.1 1 .6 1.4 1.5 1.2 2.5z"/><g class="b"><path d="m153.4 178-4.6 10.2c-6.1-7.8-10.8-16.6-13.8-26-3.3-11.9 2.6-14.9 2.6-14.9 4.5-1.7 7.6 4.8 12 17.8 2.4 7.2 3.8 12.9 3.8 12.9z"/><path d="M148.8 188.3s-.2-8.3 3.9-10 32.5-6.1 32.5-6.1l2.7 3.1c-.1-.1-28 16-39.1 13z"/></g><path fill="#dc9bd5" d="m194.8 210.2-.4-.4 2.6 3c-.6-.8-1.4-1.7-2.2-2.6z"/><path d="M188.2 171.7c2.4-.4 4.9-.7 7.4-.7 1.3-.1 2.7.1 4 .3 1.6.4 3.2 1 4.7 1.8.4.2.9.5 1 .9a1.1 1.1 0 0 1-.6 1c-.4.2-.8.3-1.2.4-.9.3-1.7.9-2.6 1.3-1.4.6-3 .5-4.4 1-.9.3-1.7.9-2.6 1.3a8.55 8.55 0 0 1-5.9 0c-.6-.3-1.3-.5-1.9-.9l-1.9-.9c-.4 0-.7 0-1.1-.4a3.25 3.25 0 0 1 0-3.3c.8-.8 1.9-1.2 3-1.2l2.1-.6z" class="b"/><path d="M133.2 151.4a38.2 38.2 0 0 0-1.5 6.7l-.4 3.1c-.2.6-.2 1.3 0 1.9.5 1.1 2.6.6 3.6.8l5.5.9 10.9 1.6a26.21 26.21 0 0 0 0-5.6c-.3-1.7-1.1-3.3-1.5-5.1l-.8-4.2c-.8-2.9-2.5-5.5-5-7.3-3.8-2.8-9.4 4-10.6 7l-.2.2zm71.3-51.1h116.4v104.6H204.5z" class="Y"/><path d="m220.354 169.534 14.3-.065.096 21.2-14.3.065zm17.551-22.1 14.3-.065.196 43.1-14.3.065zm17.638 16.8 14.3-.065.119 26.3-14.3.065zm17.431-30.6 14.3-.065.258 56.8-14.3.065z" class="X"/><linearGradient id="D" x1="400.943" x2="565.307" y1="608.386" y2="297.283" gradientTransform="matrix(.92 -.00417 -.00445 -.98 -154.613 699.981)" gradientUnits="userSpaceOnUse"><stop offset=".01"/><stop offset=".08" stop-opacity=".69"/><stop offset=".21" stop-opacity=".32"/><stop offset="1" stop-opacity="0"/></linearGradient><path fill="url(#D)" d="M237.9 147.4h14.2l.2 43.1-14.2.1z"/><linearGradient id="E" x1="433.683" x2="598.047" y1="625.688" y2="314.585" gradientTransform="matrix(.92 -.00417 -.00445 -.98 -154.613 699.982)" gradientUnits="userSpaceOnUse"><stop offset=".01"/><stop offset=".08" stop-opacity=".69"/><stop offset=".21" stop-opacity=".32"/><stop offset="1" stop-opacity="0"/></linearGradient><path fill="url(#E)" d="M273 133.6h14.2l.3 56.8-14.3.1z"/><path d="m290.438 117.734 14.3-.065.33 72.7-14.3.065zM273.4 294l-28.7-1 3.6 20.5 20.3.6z" class="X"/><linearGradient id="F" x1="137.039" x2="175.39" y1="-228.063" y2="-315.86" gradientTransform="matrix(1 .03 .03 -1 116.734 36.827)" gradientUnits="userSpaceOnUse"><stop offset=".01"/><stop offset=".08" stop-opacity=".69"/><stop offset=".21" stop-opacity=".32"/><stop offset="1" stop-opacity="0"/></linearGradient><path fill="url(#F)" d="m273.4 294-28.7-1 3.6 20.5 20.3.6z"/><use xlink:href="#L" class="X"/><linearGradient id="G" x1="-1648.936" x2="-1712.776" y1="-1318.169" y2="-1372.58" gradientTransform="matrix(.84 .54 .54 -.84 2389.537 47.482)" gradientUnits="userSpaceOnUse"><stop offset=".01"/><stop offset=".13" stop-opacity=".69"/><stop offset=".25" stop-opacity=".32"/><stop offset="1" stop-opacity="0"/></linearGradient><use xlink:href="#L" fill="url(#G)"/><use xlink:href="#M" class="X"/><linearGradient id="H" x1="-131.902" x2="-35.742" y1="-1373.246" y2="-1284.35" gradientTransform="matrix(.84 .54 .54 -.84 1045.817 -803.658)" gradientUnits="userSpaceOnUse"><stop offset=".01"/><stop offset=".13" stop-opacity=".69"/><stop offset=".25" stop-opacity=".32"/><stop offset="1" stop-opacity="0"/></linearGradient><use xlink:href="#M" fill="url(#H)"/><g class="X"><path d="m244 286 30.7 1c2.6.1 4.6 2.2 4.5 4.8-.1 2.6-2.2 4.6-4.8 4.5l-30.7-1c-2.6-.1-4.6-2.2-4.5-4.8.1-2.6 2.2-4.6 4.8-4.5z"/><circle cx="245.1" cy="141.2" r="2.4"/><circle cx="225.2" cy="163.8" r="2.4"/><circle cx="262.2" cy="159.3" r="2.4"/><circle cx="279.2" cy="128.7" r="2.4"/><circle cx="297.8" cy="113.8" r="2.4"/><path d="m225.8 164.2-1.1-.9 20.4-23.2 17 18.7 16.7-30.7 18.5-14.9.9 1.2-18.4 14.7-17.4 32.3-17.3-19.1z"/><path d="M294.3 67.1c0 6.7-5.4 12.2-12.2 12.2h-31.3c-6.7 0-12.2-5.5-12.2-12.2s5.5-12.2 12.2-12.2h4.5v-1c-.1-6.2 4.8-11.3 11-11.4s11.3 4.8 11.4 11v1.4h4.5c6.7 0 12.2 5.4 12.2 12.2h-.1z" class="Z" opacity=".31"/></g><path d="M290.5 65.9c0 6.7-5.5 12.2-12.2 12.2H247c-6.7.4-12.5-4.8-12.8-11.5-.4-6.7 4.8-12.5 11.5-12.8h5.8v-1c0-6.2 5-11.2 11.2-11.2s11.2 5 11.2 11.2v1h4.5a12.08 12.08 0 0 1 12.1 12.1z" class="Y"/><path d="M389.4 119.5c.3-.2.6-.2.9 0 .1.1.2.3.3.5.7 1.6 0 3.5-1.6 4.3-.2.2-.5.3-.8.4s-.6 0-.8-.2-.3-.5-.3-.8c-.3-1.9.7-3.6 2.3-4.2z" class="a"/><path d="M361.5 60.9c0 2.7-.7 5.3-2.1 7.7v.2L352.7 81h-14L333 67.8c-3.8-7.4-.8-16.4 6.6-20.2s16.4-.8 20.2 6.6c1.1 2 1.7 4.3 1.7 6.7z" class="X"/><linearGradient id="I" x1="345.423" x2="347.089" y1="93.37" y2="40.825" gradientUnits="userSpaceOnUse"><stop offset=".01" stop-color="#fff"/><stop offset="1" stop-color="#fff" stop-opacity="0"/></linearGradient><path fill="url(#I)" d="M361.5 60.9c0 2.7-.7 5.3-2.1 7.7v.2L352.7 81h-14L333 67.8c-3.4-6.7-1.4-14.9 4.7-19.2 2.5-1.8 5.6-2.7 8.7-2.7 8.4 0 15.1 6.7 15.1 15z"/><linearGradient id="J" x1="357.703" x2="332.58" y1="77.906" y2="55.715" gradientUnits="userSpaceOnUse"><stop offset=".01" stop-color="#fff"/><stop offset="1" stop-color="#fff" stop-opacity="0"/></linearGradient><path fill="url(#J)" d="M354 60.6c-.3 6.7-6.2 20.4-6.2 20.4h-9.1L333 67.8c-3.4-6.7-1.4-14.9 4.7-19.2 6.6-2.1 13.6 1.6 15.7 8.2.4 1.2.6 2.5.6 3.8z"/><g class="X"><path d="M338.7 80.9h13.8v4.5a6.7 6.7 0 0 1-6.7 6.7h-.7a6.7 6.7 0 0 1-6.7-6.7v-4.5h.3z"/><path d="M342.7 81.4c-.3 0-.5-.2-.5-.4l-2.6-13.8c0-.3.2-.5.4-.6h1.4c.8 0 1.1 0 1.2-.6 0-.3.2-.6.4-.8a.95.95 0 0 1 1.3.2c.2.2.4.5.4.9l.4 1.6v-.2c.1-.3.2-.7.4-1 .3-.3.7-.5 1.1-.4.4 0 .7.2 1 .5 0-.6.3-1.2.5-1.8s.7-.7.8-.6c.4 0 .7.3.7.6.1.5.2.9.2 1.4v.4h1.7c.2 0 .3.1.4.2s.1.3 0 .4l-2.7 13.8c0 .3-.3.5-.5.5-.3 0-.5-.3-.5-.5V81l2.6-13.2h-.5c-.4 0-1.1.2-1.5-.4-.2-.3-.2-.6-.2-.9-.1.3-.1.5-.2.8-.2.8-.7.9-1.1.9-.3-.1-.5-.3-.7-.5 0 0 0-.2-.3-.2h-.2c-.1.2-.2.3-.2.5l-.3.9c-.3.4-.8.6-1.2.4-.3-.2-.5-.5-.5-.8l-.4-1.8v-.2c-.3.9-1.2 1.5-2.2 1.4h-.7l2.5 13.2c.1.3-.1.5-.4.6v-.3z"/></g><defs><path id="L" d="M242.4 243.6c-.7 1.4-1.1 3-1 4.6-.7 7.2 0 14.5 1.9 21.6 3.3 10.2 10.6 18.4 17.8 26.2-.6-.9 1.1-5.5 1.3-6.7.4-2.2.9-4.3 1.3-6.4a22.11 22.11 0 0 0-.9-10.2c-1.8-7.5-5.4-14.5-10.4-20.4-2.9-3.3-6.2-6.3-10-8.7z"/><path id="M" d="M274.5 268.2c2.7-5.3 4.6-10.9 5.8-16.7 1.2-5.9 0-12-3.3-17l-13.9 21.1c-2.9 3.9-5.1 8.3-6.7 12.9-2.2 9.5-.3 19.5 5.2 27.5 3.1-2.7 4.6-8.8 6.3-12.5l6.6-15.3z"/></defs></svg>