<svg xmlns="http://www.w3.org/2000/svg" width="93.9" height="12"><path fill="#807f83" d="M23.3 7.1h9c1.3-.5 2.2-1.3 2.4-2.4H20.9c.2 1.1 1.1 1.9 2.4 2.4M0 0c.3 1 1.2 1.9 2.4 2.4h3.8l.2.1V12h2.4V2.5l.2-.1h3.8c1.2-.5 2.1-1.3 2.3-2.4H0zm23.3 12h9c1.3-.5 2.2-1.3 2.4-2.4H20.9c.2 1 1.1 1.9 2.4 2.4m0-9.6h9c1.2-.4 2.1-1.3 2.4-2.4H20.9c.2 1.1 1.1 2 2.4 2.4m59.3 0h9c1.3-.5 2.1-1.3 2.4-2.4H80.1c.3 1.1 1.2 1.9 2.5 2.4m-10.9 9.5c1.2-.5 1.8-1.4 2-2.4H63.4V0h-2.3v11.9h10.6zm-28-9.5H52c1.2-.4 2.1-1.3 2.4-2.4h-13v7.1h10.7v2.5h-8.3c-1.2.5-2.1 1.3-2.4 2.3v.1h13.1V4.7H43.7V2.4zm36.9 2.3V12h2.3V7.1h8.4V12h2.3V4.7h-13z"/></svg>