<svg xmlns="http://www.w3.org/2000/svg" viewBox="0 0 103 32"><path fill="#1434cb" d="M60 4.7c-4.8 0-9.1 2.5-9.1 7.1 0 5.3 7.6 5.6 7.6 8.3 0 1.1-1.3 2.1-3.5 2.1-3.1 0-5.4-1.4-5.4-1.4l-1 4.6s2.7 1.2 6.2 1.2c5.2 0 9.4-2.6 9.4-7.3 0-5.6-7.6-5.9-7.6-8.4 0-.9 1-1.8 3.2-1.8 2.5 0 4.5 1 4.5 1l1-4.5s-2.2-.9-5.3-.9zM16.1 5l-.1.7s2 .4 3.8 1.1c2.3.8 2.5 1.3 2.9 2.9L27 26.3h5.8L41.7 5H36l-5.7 14.4-2.4-12.2C27.7 5.8 26.6 5 25.3 5h-9.2zM44 5l-4.5 21.2H45L49.4 5H44zm30.5 0c-1.3 0-2 .7-2.5 1.9l-8 19.3h5.7l1.1-3.2h7l.7 3.2h5.1L79.2 5h-4.7zm.8 5.8 1.7 8h-4.6l2.9-8z"/></svg>