<svg xmlns="http://www.w3.org/2000/svg" xml:space="preserve" style="enable-background:new 0 0 103 32" viewBox="0 0 103 32"><path d="M19.1-7H84v46H19.1z" style="fill:none"/><path d="M44.8 3.9h13.4V28H44.8z" style="fill:#ff5f00"/><path d="M45.7 16c0-4.9 2.3-9.2 5.8-12.1-2.6-2-5.9-3.3-9.5-3.3-8.5 0-15.3 6.9-15.3 15.3S33.6 31.2 42 31.2c3.6 0 6.9-1.2 9.5-3.3-3.5-2.7-5.8-7-5.8-11.9z" style="fill:#eb001b"/><path d="M76.3 16c0 8.5-6.9 15.3-15.3 15.3-3.6 0-6.9-1.2-9.5-3.3 3.5-2.8 5.8-7.2 5.8-12.1S55 6.7 51.4 3.8C54 1.8 57.3.5 60.9.5c8.6.2 15.4 7 15.4 15.5z" style="fill:#f79e1b"/></svg>