<svg xmlns="http://www.w3.org/2000/svg" width="95" height="35"><path fill="#253b80" d="M12.3 11.5c-.4 2.6-2.4 2.6-4.4 2.6H6.8l.8-4.9c0-.3.3-.5.6-.5h.5c1.3 0 2.6 0 3.2.8.4.7.5 1.4.4 2zm-.9-6.8H4c-.5 0-.9.3-1 .8l-2.9 19c-.1.3.1.6.4.7h3.6c.5 0 .9-.4 1-.8l.8-5.2c.1-.5.5-.8 1-.8h2.3c4.9 0 7.7-2.3 8.4-7 .4-1.6.1-3.4-.9-4.8-.9-1.3-2.8-2-5.3-1.9zm17.3 13.7c-.3 2-2 3.4-3.9 3.3-.9.1-1.7-.3-2.3-.9a3.48 3.48 0 0 1-.6-2.4c.2-2 1.9-3.5 3.9-3.4.9-.1 1.8.3 2.3 1s.7 1.5.6 2.4zm4.8-7h-3.6c-.3 0-.6.2-.6.5l-.2 1-.2-.4c-.8-1.1-2.4-1.5-4.2-1.5-4 .1-7.4 3.1-7.9 7.1-.4 1.9.1 4 1.3 5.5 1.2 1.2 2.8 1.9 4.5 1.8 1.8 0 3.6-.7 4.9-2l-.2 1c-.1.3.1.6.4.7H31c.5 0 .9-.4 1-.8l2-12.1c.2-.4-.1-.8-.5-.8zm18.8 0h-3.6c-.3 0-.6.2-.8.4L43 19l-2-7c-.1-.4-.5-.7-1-.7h-3.6c-.4 0-.6.3-.6.7v.1l3.9 11.5-3.6 5.3c-.2.3-.1.7.2.9.1.1.2.1.3.1h3.5c.3 0 .6-.2.8-.4l11.8-17.1c.2-.3.1-.7-.1-.9 0 0-.2-.1-.3-.1z"/><path fill="#179bd7" d="M65 11.5c-.4 2.6-2.4 2.6-4.3 2.6h-1.1l.8-4.9c0-.3.3-.5.6-.5h.5c1.3 0 2.6 0 3.2.8.3.7.4 1.4.3 2zm-.8-6.8h-7.4c-.5 0-.9.4-1 .8l-3.1 18.9c-.1.3.1.6.4.7h4c.4 0 .6-.2.7-.6l.8-5.4c.1-.5.5-.8 1-.8h2.3c4.9 0 7.7-2.3 8.4-7 .4-1.6.1-3.4-.9-4.8-.9-1.2-2.8-1.9-5.2-1.8zm17.1 13.7c-.3 2-2 3.4-3.9 3.3-.9.1-1.7-.3-2.3-.9a3.48 3.48 0 0 1-.6-2.4c.2-2 1.9-3.5 3.9-3.4.9-.1 1.8.3 2.3 1 .6.6.8 1.5.6 2.4zm4.9-7h-3.5c-.3 0-.6.2-.6.5l-.2 1-.2-.4c-.8-1.1-2.4-1.5-4.2-1.5-4 .1-7.4 3.1-7.9 7.1-.4 1.9.1 3.9 1.3 5.5 1.2 1.2 2.8 1.9 4.5 1.8 1.8 0 3.6-.7 4.9-2l-.2 1c-.1.3.1.6.4.7h3.3c.5 0 .9-.4 1-.8l2-12.1c.1-.3-.1-.6-.4-.7 0-.1-.1-.1-.2-.1zm4.2-6.2-3 19.3c-.1.3.1.6.4.7H91c.5 0 .9-.4 1-.8l3-18.9c0-.4-.2-.8-.6-.8H91c-.3 0-.6.2-.6.5z"/></svg>