<svg xmlns="http://www.w3.org/2000/svg" xmlns:xlink="http://www.w3.org/1999/xlink" width="95" height="35"><defs><path id="a" d="m31.6 6.3-6.1 15.4-2.4-13.1c-.3-1.4-1.4-2.2-2.7-2.2h-9.9l-.2.6c2.1.4 4.3 1.1 5.8 2 .8.4 1.1.8 1.4 2l4.6 17.9h6.1l9.6-22.6h-6.2zm8.6 0-4.9 22.6h5.9l4.9-22.6h-5.9zm33.5 6.1 1.8 8.4h-4.9l3.1-8.4zm-.9-6.1c-1.1 0-2.1.7-2.4 1.7l-8.7 20.9h6.1l1.2-3.4h7.5l.7 3.4h5.2L77.6 6.3h-4.8zm-25.2 7c0 3.2 2.9 5.1 5.2 6.1 2.2 1.1 3 1.9 3 2.8 0 1.6-1.8 2.2-3.5 2.2-2.9 0-4.7-.8-6-1.4l-1 5c1.3.7 3.8 1.1 6.5 1.2 6.1 0 10.1-3 10.1-7.8 0-6-8.2-6.3-8.1-9 0-.8.8-1.7 2.4-1.9.8-.1 3.2-.2 5.8 1l1-4.9c-1.4-.6-3.2-1-5.4-1-5.9.3-10 3.4-10 7.7"/></defs><clipPath id="b"><use xlink:href="#a"/></clipPath><linearGradient id="c" x1="10.298" x2="82.417" y1="17.595" y2="17.595" gradientUnits="userSpaceOnUse"><stop offset="0" stop-color="#241f5d"/><stop offset="1" stop-color="#034ea1"/></linearGradient><path fill="url(#c)" d="M10.3 5.9h72.1v23.3H10.3z" clip-path="url(#b)"/></svg>