<svg width="71" height="20" viewBox="0 0 71 20" fill="none" xmlns="http://www.w3.org/2000/svg">
<path d="M5.09659 19H0.5625L6.4517 1.54545H12.0682L17.9574 19H13.4233L9.32386 5.94318H9.1875L5.09659 19ZM4.49148 12.1307H13.9688V15.3352H4.49148V12.1307Z" fill="#5FA974"/>
<path d="M19.8366 19V5.90909H23.7997V8.3125H23.9446C24.2173 7.51705 24.6776 6.8892 25.3253 6.42898C25.973 5.96875 26.7457 5.73864 27.6435 5.73864C28.5526 5.73864 29.331 5.97159 29.9787 6.4375C30.6264 6.90341 31.0384 7.52841 31.2145 8.3125H31.3509C31.5952 7.53409 32.0724 6.91193 32.7827 6.44602C33.4929 5.97443 34.331 5.73864 35.2969 5.73864C36.5355 5.73864 37.5412 6.13636 38.3139 6.93182C39.0866 7.72159 39.473 8.80682 39.473 10.1875V19H35.3054V11.142C35.3054 10.4886 35.1378 9.99148 34.8026 9.65057C34.4673 9.30398 34.0327 9.13068 33.4986 9.13068C32.9247 9.13068 32.473 9.31818 32.1435 9.69318C31.8196 10.0625 31.6577 10.5597 31.6577 11.1847V19H27.652V11.0994C27.652 10.4915 27.4872 10.0114 27.1577 9.65909C26.8281 9.30682 26.3935 9.13068 25.8537 9.13068C25.4901 9.13068 25.169 9.21875 24.8906 9.39489C24.6122 9.56534 24.3935 9.80966 24.2344 10.1278C24.081 10.446 24.0043 10.821 24.0043 11.2528V19H19.8366ZM42.0554 19V5.90909H46.223V19H42.0554ZM44.1435 4.38352C43.5582 4.38352 43.0554 4.19034 42.6349 3.80398C42.2145 3.41193 42.0043 2.94034 42.0043 2.3892C42.0043 1.84375 42.2145 1.37784 42.6349 0.991477C43.0554 0.599431 43.5582 0.403408 44.1435 0.403408C44.7344 0.403408 45.2372 0.599431 45.652 0.991477C46.0724 1.37784 46.2827 1.84375 46.2827 2.3892C46.2827 2.94034 46.0724 3.41193 45.652 3.80398C45.2372 4.19034 44.7344 4.38352 44.1435 4.38352ZM48.8757 19V5.90909H52.924V8.29545H53.0604C53.299 7.43182 53.6882 6.78977 54.228 6.36932C54.7678 5.94318 55.3956 5.73011 56.1115 5.73011C56.3047 5.73011 56.5036 5.74432 56.7081 5.77273C56.9126 5.79545 57.103 5.83239 57.2791 5.88352V9.50568C57.0803 9.4375 56.8189 9.38352 56.495 9.34375C56.1768 9.30398 55.8928 9.28409 55.6428 9.28409C55.1484 9.28409 54.7024 9.39489 54.3047 9.61648C53.9126 9.83239 53.603 10.1364 53.3757 10.5284C53.1541 10.9148 53.0433 11.3693 53.0433 11.892V19H48.8757ZM58.9773 19V5.90909H63.1449V19H58.9773ZM61.0653 4.38352C60.4801 4.38352 59.9773 4.19034 59.5568 3.80398C59.1364 3.41193 58.9261 2.94034 58.9261 2.3892C58.9261 1.84375 59.1364 1.37784 59.5568 0.991477C59.9773 0.599431 60.4801 0.403408 61.0653 0.403408C61.6563 0.403408 62.1591 0.599431 62.5739 0.991477C62.9943 1.37784 63.2045 1.84375 63.2045 2.3892C63.2045 2.94034 62.9943 3.41193 62.5739 3.80398C62.1591 4.19034 61.6563 4.38352 61.0653 4.38352Z" fill="#1D592B"/>
<path d="M68.1413 19.2472C67.5277 19.2472 67.0021 19.0312 66.5646 18.5994C66.1328 18.1676 65.9197 17.6449 65.9254 17.0312C65.9197 16.429 66.1328 15.9148 66.5646 15.4886C67.0021 15.0568 67.5277 14.8409 68.1413 14.8409C68.7209 14.8409 69.2322 15.0568 69.6754 15.4886C70.1243 15.9148 70.3516 16.429 70.3572 17.0312C70.3516 17.4403 70.2436 17.8125 70.0334 18.1477C69.8288 18.483 69.5589 18.75 69.2237 18.9489C68.8942 19.1477 68.5334 19.2472 68.1413 19.2472Z" fill="#9F4BAD"/>
</svg>
