<svg xmlns="http://www.w3.org/2000/svg" width="69.7" height="21" fill-rule="evenodd"><path fill="#f90" d="M43.2 16.4c-4 3-9.9 4.6-15 4.6-7.1 0-13.5-2.6-18.3-7-.4-.3 0-.8.4-.5a37 37 0 0 0 18.3 4.9c4.5 0 9.4-.9 14-2.9.7-.3 1.3.4.6.9zm1.7-1.9c-.5-.7-3.4-.3-4.7-.2-.4 0-.5-.3-.1-.5 2.3-1.6 6.1-1.2 6.6-.6.4.5-.1 4.4-2.3 6.2-.3.3-.7.1-.5-.2.4-1.3 1.5-4 1-4.7z"/><path fill="#fff" d="M40.3 2.3V.7c0-.2.2-.4.4-.4h7.1c.2 0 .4.2.4.4v1.4c0 .2-.2.5-.5 1L44 8.3c1.4 0 2.8.2 4 .9.3.2.4.4.4.6v1.7c0 .2-.3.5-.5.4-2.2-1.1-5.1-1.3-7.5 0-.2.1-.5-.1-.5-.4V9.9c0-.3 0-.7.3-1.1l4.3-6.1h-3.7c-.3 0-.5-.2-.5-.4zm-25.9 9.9h-2.2c-.2 0-.4-.2-.4-.4V.7c0-.2.2-.4.4-.4h2c.2 0 .4.2.4.4v1.4c.5-1.4 1.5-2 2.8-2s2.2.7 2.8 2c.5-1.4 1.7-2 3-2 .9 0 1.9.4 2.5 1.2.7.9.5 2.3.5 3.5v7c0 .2-.2.4-.4.4h-2.2c-.2 0-.4-.2-.4-.4V5.9l-.1-2.1c-.2-.7-.6-1-1.3-1-.5 0-1.1.3-1.3.9s-.2 1.5-.2 2.1v5.9c0 .2-.2.4-.4.4H18c-.2 0-.4-.2-.4-.4V5.8c0-1.2.2-3.1-1.3-3.1-1.6 0-1.5 1.8-1.5 3.1v5.9c0 .3-.1.5-.4.5zM54.3.1c3.2 0 4.9 2.7 4.9 6.2 0 3.4-1.9 6.1-4.9 6.1-3.1 0-4.9-2.7-4.9-6.2 0-3.4 1.8-6.1 4.9-6.1zm0 2.3c-1.6 0-1.7 2.2-1.7 3.5 0 1.4 0 4.2 1.7 4.2s1.8-2.3 1.8-3.8c0-.9 0-2-.3-2.9-.3-.7-.8-1-1.5-1zm9.1 9.8h-2.1c-.2 0-.4-.2-.4-.4V.7c0-.2.2-.4.4-.4h2c.2 0 .3.1.4.3v1.7C64.3.8 65.1.1 66.6.1c1 0 1.9.3 2.5 1.3.6.9.6 2.4.6 3.4v7c0 .2-.2.3-.4.3h-2.2c-.2 0-.4-.2-.4-.3v-6c0-1.2.1-3-1.3-3-.5 0-1 .3-1.2.9-.3.7-.3 1.4-.3 2.1v6c-.1.2-.3.4-.5.4zM34.6 6.9c0 .8 0 1.5-.4 2.3-.3.6-.9 1-1.5 1-.8 0-1.3-.6-1.3-1.6 0-1.8 1.6-2.2 3.2-2.2v.5zm2.2 5.2c-.1.1-.3.1-.5.1-.7-.6-.8-.9-1.2-1.4-1.2 1.2-2 1.6-3.6 1.6-1.8 0-3.2-1.1-3.2-3.4 0-1.8.9-2.9 2.3-3.5 1.2-.5 2.8-.6 4.1-.7v-.4c0-.5 0-1.1-.3-1.6-.3-.4-.8-.6-1.2-.6-.8 0-1.6.4-1.7 1.3-.1.3-.3.5-.5.5l-2-.2c-.2 0-.4-.2-.3-.5C29.1.8 31.4 0 33.5 0c1 0 2.4.3 3.2 1.1 1 1 .9 2.3.9 3.7v3.4c0 1 .4 1.5.8 2 .1.2.2.4 0 .6l-1.6 1.3zM6.4 6.9c0 .8 0 1.5-.4 2.3-.3.6-.9 1-1.5 1-.8 0-1.3-.6-1.3-1.6 0-1.8 1.6-2.2 3.2-2.2v.5zm2.1 5.2c-.1.1-.3.1-.5.1-.7-.6-.8-.9-1.2-1.4-1.2 1.2-2 1.6-3.6 1.6C1.4 12.3 0 11.2 0 9c0-1.8.9-3 2.3-3.6 1.2-.5 2.8-.6 4.1-.7v-.3c0-.5 0-1.1-.3-1.6-.3-.3-.8-.5-1.2-.5-.8 0-1.6.4-1.7 1.3-.1.2-.2.4-.4.4L.7 3.8c-.2 0-.4-.2-.3-.5C.8.8 3.1 0 5.2 0c1 0 2.4.3 3.2 1.1 1 1 .9 2.3.9 3.7v3.4c0 1 .4 1.5.8 2 .1.2.2.4 0 .6-.4.3-1.1 1-1.6 1.3z"/></svg>