<svg xmlns="http://www.w3.org/2000/svg" width="512" height="512"><linearGradient id="a" x1="256" x2="256" y1="512" y2="0" gradientUnits="userSpaceOnUse"><stop offset="0" stop-color="#ffe59a"/><stop offset="1" stop-color="#ffffd5"/></linearGradient><linearGradient id="b" x1="256" x2="256" y1="122.768" y2="389.232" gradientUnits="userSpaceOnUse"><stop offset="0" stop-color="#fd5900"/><stop offset="1" stop-color="#ffde00"/></linearGradient><circle cx="256" cy="256" r="256" fill="url(#a)"/><path fill="url(#b)" d="M228.347 307.142a8.89 8.89 0 0 0-8.622-6.731H131.65a8.89 8.89 0 0 0-8.622 6.731l-17.764 71.057a8.877 8.877 0 0 0 8.622 11.033H237.49a8.88 8.88 0 0 0 7.009-3.417 8.882 8.882 0 0 0 1.614-7.616zm178.389 71.057-17.764-71.057a8.89 8.89 0 0 0-8.622-6.731h-88.075a8.89 8.89 0 0 0-8.622 6.731l-17.764 71.057a8.877 8.877 0 0 0 8.623 11.033h123.604a8.88 8.88 0 0 0 7.009-3.417 8.892 8.892 0 0 0 1.611-7.616zm-213.657-95.553h125.842a8.88 8.88 0 0 0 7.009-3.417 8.882 8.882 0 0 0 1.614-7.616l-17.764-71.057a8.89 8.89 0 0 0-8.622-6.731h-90.313a8.89 8.89 0 0 0-8.622 6.731l-17.764 71.057a8.882 8.882 0 0 0 8.62 11.033zm-61.429-71.057h8.882v8.882a8.88 8.88 0 1 0 17.764 0v-8.882h8.882a8.88 8.88 0 1 0 0-17.764h-8.882v-8.882a8.88 8.88 0 1 0-17.764 0v8.882h-8.882a8.88 8.88 0 1 0 0 17.764zm213.171 0h8.882v8.882a8.88 8.88 0 1 0 17.764 0v-8.882h8.882a8.88 8.88 0 1 0 0-17.764h-8.882v-8.882a8.88 8.88 0 1 0-17.764 0v8.882h-8.882a8.88 8.88 0 1 0 0 17.764zm-106.585-53.293h8.882v8.882a8.88 8.88 0 1 0 17.764 0v-8.882h8.882a8.88 8.88 0 1 0 0-17.764h-8.882v-8.882a8.88 8.88 0 1 0-17.764 0v8.882h-8.882a8.88 8.88 0 1 0 0 17.764z"/></svg>