<svg xmlns="http://www.w3.org/2000/svg" width="85" height="22"><path fill="#3b5998" d="M46.7 8.2c-1.3-.1-2.4.2-3.3 1.4V2.7l-3.4.4V19h3.4v-.9c.5.3.9.7 1.4.9 2 .7 4.5.1 5.5-2.5.6-1.7.6-3.4.1-5.1-.5-1.9-1.8-3-3.7-3.2zm.5 6.9c-.2 1.1-1 1.6-2 1.5-.2 0-.5-.1-.7-.1-.8-.5-1-1.2-1.1-1.7 0-.8-.1-2.3.2-3 .3-.6.8-.9 1.6-.9 1 0 1.8.5 1.9 1.5.2.9.2 1.8.1 2.7zm11.5-6.7c-1.2-.3-2.3-.3-3.5 0-1.8.5-2.9 1.6-3.3 3.3-.2 1-.2 2-.2 3 .1 2.2 1.5 3.9 3.7 4.4h.8c.4 0 1 .1 1.4 0h.1c2.2-.1 3.9-1.5 4.4-3.7a7.31 7.31 0 0 0 0-3.6c-.5-1.7-1.6-2.9-3.4-3.4zm.1 6.5v.2c-.2 1-1 1.5-1.9 1.5-1 0-1.7-.6-1.8-1.7-.1-.8-.1-1.5 0-2.3.1-1.2.8-1.9 2-1.8.9 0 1.6.5 1.8 1.4.1.9-.1 2.5-.1 2.7zM8.1 8.4H5.7V6.8c.2-1.5 2.7-1.2 2.7-1.2V3c-.1 0-5-1.2-5.9 2.5-.3.5-.2 2.6-.2 2.9H.2v2.8h2.2V19h3.2v-7.8h2.5l.3-2.8h-.3zm7.7 1.3-.2-.2c-.8-.8-1.1-1-1.6-1.1-2.3-.7-4.5.5-5.2 2.8-.4 1.4-.4 2.9-.2 4.3.6 3.1 2.8 4.1 5.3 3.6.8-.2 1.3-.6 1.8-1.3 0 0 .1-.1.1-.2V19h3.1V8.4h-3.1v1.3zm-.3 5.4c-.1 1-.9 1.6-1.9 1.5-1 0-1.6-.5-1.8-1.5-.2-1.3 0-2.9.1-3 .2-.9.9-1.3 1.8-1.3s1.6.6 1.8 1.5c.1 1 .1 1.9 0 2.8zm13 3.2-.5-1.6-.1-.6S24 18 23.3 14.4c-.1-.6 0-1.2 0-1.8.1-1.1.8-1.7 1.9-1.8h1.1c.5.1 1 .2 1.5.4l.5-1.7.1-.2.2-.3c0-.1-.1-.1-.1-.1-.1-.1-.2-.1-.5-.2l-.3-.1h-.1c-1-.3-2.1-.3-3.2-.2-2.3.2-3.8 1.6-4.2 3.8-.2 1.2-.2 2.4 0 3.5.4 1.8 1.5 2.9 3.2 3.4 1.1.3 2.3.4 3.4.2.5-.1 1.2-.3 1.7-.5l.2-.1-.2-.4zm10.4-4.2-.1-2.2c-.3-2-1.5-3.2-3.5-3.6-.8-.1-1.5-.1-2.3 0-2.1.2-3.6 1.5-4 3.4-.2 1.2-.2 2.4-.1 3.6.2 1.8 1.1 2.9 2.6 3.5.7.2 4 1.1 7-.4V18l-.5-1.7v-.1l-.2.1c-.1 0-.3.1-.4.1h-.1c-.6.2-1.2.3-1.8.4s-1.1.1-1.7 0c-.9-.2-1.7-.7-1.6-1.9h6.6v-.1l.1-.7zm-3-1.4h-3.7c0-.7.1-1.4.8-1.8s1.4-.4 2.1-.1c.7.4.8 1.1.8 1.9zm48.9-4.2h-3.6l-3.1 4.9V2.7l-3.4.4V19h3.4v-4.9l3.1 4.9h3.6l-3.4-5.3 3.4-5.2zm-14.6-.1c-1.2-.3-2.3-.3-3.5 0-1.8.5-2.9 1.6-3.3 3.3-.2 1-.2 2-.2 3 .1 2.3 1.5 3.9 3.7 4.4h.8c.4 0 1 .1 1.4 0h.1c2.2-.1 3.9-1.5 4.4-3.7a7.31 7.31 0 0 0 0-3.6c-.5-1.7-1.6-2.9-3.4-3.4zm.1 6.5v.2c-.2 1-.9 1.5-1.9 1.5s-1.8-.6-1.8-1.7c-.1-.8-.1-1.5 0-2.3.1-1.2.8-1.9 2-1.8a1.83 1.83 0 0 1 1.8 1.4c.1.9-.1 2.5-.1 2.7z"/></svg>