<svg xmlns="http://www.w3.org/2000/svg" width="512" height="512"><linearGradient id="a" x1="256" x2="256" y1="512" y2="0" gradientUnits="userSpaceOnUse"><stop offset="0" stop-color="#ffc8d1"/><stop offset="1" stop-color="#fff6f7"/></linearGradient><linearGradient id="b" x1="256" x2="256" y1="407" y2="105" gradientUnits="userSpaceOnUse"><stop offset="0" stop-color="#ffa68d"/><stop offset="1" stop-color="#fd3a84"/></linearGradient><circle cx="256" cy="256" r="256" fill="url(#a)"/><path fill="url(#b)" d="m276.372 240.84-29.257 29.249-11.487-11.484a8.882 8.882 0 0 0-12.563 0 8.88 8.88 0 0 0 0 12.56l17.769 17.764c1.735 1.735 4.008 2.603 6.282 2.603s4.547-.868 6.282-2.603l35.538-35.529a8.88 8.88 0 0 0 0-12.56 8.883 8.883 0 0 0-12.564 0zm86.243-100.307a166.68 166.68 0 0 1-92.733-28.069l-8.954-5.968a8.863 8.863 0 0 0-9.856 0l-8.954 5.968a166.68 166.68 0 0 1-92.733 28.069 8.88 8.88 0 0 0-8.885 8.882v100.818c0 71.032 45.291 133.849 112.689 156.306.911.304 1.865.46 2.811.46s1.9-.156 2.811-.46C326.209 384.083 371.5 321.266 371.5 250.234V149.416a8.88 8.88 0 0 0-8.885-8.883zM256 335.942c-44.093 0-79.962-35.859-79.962-79.94s35.868-79.94 79.962-79.94 79.962 35.859 79.962 79.94-35.869 79.94-79.962 79.94z"/></svg>