<svg xmlns="http://www.w3.org/2000/svg" width="85" height="22"><path fill="#f25022" d="M.1 1.9h8.6v8.6H.1V1.9z"/><path fill="#80ba01" d="M9.6 1.9h8.6v8.6H9.6V1.9z"/><g fill="#777"><path d="M50.5 8.8c-.5.2-.8.7-1 1.2V8.6h-1.8v7.8h1.8v-3.7c0-.5 0-1.1.3-1.6.2-.5.6-.9 1.2-.9a3.08 3.08 0 0 1 1.3.3V8.6a2.25 2.25 0 0 0-1.8.2zM37.9 5.3c-.5.1-1 .5-1 1.1 0 .5.4.9.9 1s1-.1 1.2-.5.2-.9-.1-1.2c-.2-.3-.6-.4-1-.4zm-.8 3.4H39v7.8h-1.9zm5.9-.1c-.8.2-1.6.8-2.1 1.5-.6.9-.8 1.9-.7 2.9 0 1 .4 1.9 1.1 2.6.7.6 1.5 1 2.4 1s1.8-.1 2.5-.5v-1.7c-.5.4-1.1.6-1.7.7-.6 0-1.3-.1-1.7-.5-.5-.4-.7-1-.8-1.5-.1-.8 0-1.6.5-2.2.3-.5 1-.8 1.5-.9.8-.1 1.5.2 2.1.7V8.9c-.2-.1-.3-.2-.5-.2-.7-.3-1.7-.3-2.6-.1zM58.3 8.8c-.8-.4-1.8-.4-2.7-.3s-1.9.6-2.4 1.3-.8 1.5-.9 2.4c-.1 1 .1 2.1.7 2.9.5.7 1.3 1.2 2.1 1.4a4.11 4.11 0 0 0 2.2 0c.8-.2 1.6-.6 2.1-1.3s.8-1.5.8-2.3c.1-.8 0-1.7-.4-2.5-.2-.7-.8-1.3-1.5-1.6zm-.2 5.2a1.96 1.96 0 0 1-.9.9c-.5.2-1 .2-1.5.1s-.9-.5-1.2-1c-.3-.6-.4-1.3-.3-1.9s.3-1.2.7-1.6c.3-.3.8-.5 1.2-.5.6 0 1.2.1 1.6.5s.6 1 .6 1.6c.1.7.1 1.3-.2 1.9zm15.2-5.1c-.9-.4-1.8-.5-2.8-.4a3.98 3.98 0 0 0-2.1.9c-.7.6-1.1 1.5-1.2 2.4s-.1 1.8.3 2.7c.4.8 1 1.5 1.9 1.8.8.3 1.8.4 2.6.2.9-.1 1.8-.6 2.3-1.3.6-.8.8-1.7.8-2.7a6.28 6.28 0 0 0-.3-1.9 2.8 2.8 0 0 0-1.5-1.7zm-.1 4.4c-.1.4-.2.8-.5 1.1s-.7.5-1.1.6-.9 0-1.3-.1a2.41 2.41 0 0 1-1-1 3.21 3.21 0 0 1-.2-1.7c0-.5.2-1.1.6-1.5.3-.5.8-.7 1.3-.7s1.1.1 1.5.4.6.8.7 1.2c.1.6.1 1.2 0 1.7zm11.7-4.6h-1.8V6.4l-1.8.6v1.8h-2.7V7.4c0-.4.3-.7.6-.9.4-.2.9-.1 1.4.1V4.9c-.9-.2-1.9-.2-2.7.3-.5.3-.9.8-1 1.4-.2.7-.1 1.3-.1 2h-1.3v1.5h1.3v6.3h1.9v-6.3h2.7v4c0 .6.1 1.3.5 1.8.4.4.9.6 1.5.7.6 0 1.2 0 1.7-.3v-1.5c-.4.3-1 .4-1.4.1-.3-.2-.4-.5-.4-.7-.1-.5 0-1 0-1.5v-2.6h1.8V8.7zm-19.8 3.5c-.5-.3-1.2-.5-1.7-.8-.3-.2-.4-.6-.3-1 .2-.3.6-.5.9-.5.7 0 1.4.2 2 .6V8.8c-.8-.3-1.7-.4-2.6-.3-.7.1-1.4.5-1.8 1.1-.4.5-.4 1.2-.3 1.9.1.4.4.8.7 1.1.5.4 1.1.6 1.6.8.3.1.6.3.8.5.2.3.2.9-.2 1.1s-.9.2-1.3.1c-.6-.1-1.2-.4-1.7-.7v1.8c.6.3 1.2.4 1.9.4.9 0 1.9-.2 2.6-.8s.9-1.8.5-2.6c-.3-.4-.7-.8-1.1-1zm-35.6 1.4-3.2-8h-2.7v10.8h1.8V8l.1.2 3.3 8.2h1.3l3.2-8.2c0-.1.1-.1.1-.2v8.4h1.8V5.6h-2.6l-3.1 8z"/></g><path fill="#02a4ef" d="M.1 11.4h8.6V20H.1v-8.6z"/><path fill="#ffb902" d="M9.6 11.4h8.6V20H9.6v-8.6z"/></svg>