<svg xmlns="http://www.w3.org/2000/svg" xml:space="preserve" id="Layer_1" x="0" y="0" style="enable-background:new 0 0 103 32" version="1.1" viewBox="0 0 103 32"><style>.st0{fill:#253b80}.st1{fill:#179bd7}</style><g id="XMLID_1_"><path id="XMLID_57_" d="M17.1 11.8c-.4 2.6-2.4 2.6-4.3 2.6h-1.1l.8-4.9c0-.3.3-.5.6-.5h.5c1.3 0 2.6 0 3.2.8.3.5.4 1.1.3 2zM16.2 5H8.9c-.5 0-.9.4-1 .8L5 24.6c-.1.4.2.7.6.7H9c.5 0 .9-.4 1-.8l.8-5.1c.1-.5.5-.8 1-.8h2.3c4.8 0 7.6-2.3 8.3-6.9.3-2 0-3.6-.9-4.7-1-1.4-2.8-2-5.3-2z" class="st0"/><path id="XMLID_54_" d="M33.2 18.6c-.3 2-1.9 3.3-3.9 3.3-1 0-1.8-.3-2.3-.9s-.7-1.5-.6-2.4c.3-2 1.9-3.4 3.9-3.4 1 0 1.8.3 2.3 1 .5.5.7 1.4.6 2.4zm4.8-6.9h-3.5c-.3 0-.6.2-.6.5l-.2 1-.2-.4c-.8-1.1-2.4-1.5-4.1-1.5-3.9 0-7.2 2.9-7.8 7-.3 2 .1 4 1.3 5.4 1.1 1.2 2.6 1.8 4.4 1.8 3.1 0 4.8-2 4.8-2l-.2 1c-.1.4.2.7.6.7h3.1c.5 0 .9-.4 1-.8l1.9-12c.2-.3-.1-.7-.5-.7z" class="st0"/><path id="XMLID_33_" d="M56.6 11.7h-3.5c-.3 0-.6.2-.8.4l-4.9 7.1-2-6.9c-.1-.4-.5-.7-1-.7h-3.5c-.4 0-.7.4-.6.8l3.9 11.4-3.6 5.2c-.3.4 0 1 .5 1h3.5c.3 0 .6-.2.8-.4l11.7-16.9c.3-.4 0-1-.5-1z" class="st0"/><path id="XMLID_38_" d="M69.1 11.8c-.4 2.6-2.4 2.6-4.3 2.6h-1.1l.8-4.9c0-.3.3-.5.6-.5h.5c1.3 0 2.6 0 3.2.8.3.5.5 1.1.3 2zM68.3 5H61c-.5 0-.9.4-1 .8l-3 18.7c-.1.4.2.7.6.7h3.7c.4 0 .6-.2.7-.6l.8-5.3c.1-.5.5-.8 1-.8h2.3c4.8 0 7.6-2.3 8.3-6.9.3-2 0-3.6-.9-4.7-.9-1.3-2.8-1.9-5.2-1.9z" class="st1"/><path id="XMLID_21_" d="M85.2 18.6c-.3 2-1.9 3.3-3.9 3.3-1 0-1.8-.3-2.3-.9s-.7-1.5-.6-2.4c.3-2 1.9-3.4 3.9-3.4 1 0 1.8.3 2.3 1 .6.5.8 1.4.6 2.4zm4.9-6.9h-3.5c-.3 0-.6.2-.6.5l-.2 1-.2-.4c-.8-1.1-2.4-1.5-4.1-1.5-3.9 0-7.2 2.9-7.8 7-.3 2 .1 4 1.3 5.4 1.1 1.2 2.6 1.8 4.4 1.8 3.1 0 4.8-2 4.8-2l-.2 1c-.1.4.2.7.6.7h3.1c.5 0 .9-.4 1-.8l1.9-12c.1-.3-.1-.7-.5-.7z" class="st1"/><path id="XMLID_28_" d="m94.2 5.5-3 19.1c-.1.4.2.7.6.7h3c.5 0 .9-.4 1-.8l3-18.7c0-.4-.2-.8-.6-.8h-3.4c-.3 0-.5.2-.6.5z" class="st1"/></g></svg>