<svg xmlns="http://www.w3.org/2000/svg" width="95" height="35"><path fill="#862165" d="M69.7 6.6 76 5.5v24.3h-6.3V6.6zm9.3 0v23.2h6.3V5.5L79 6.6zM60.7 29.8h6.4V12h-6.3l-.1 17.8zM18.9 14.6c-.9-.1-2.7-.2-2.7-1.9 0-2 2.7-2 3.7-2 1.9.1 3.8.5 5.6 1.1l1.6.6h.1V6.8h-.1c-2.7-1-5.5-1.4-8.3-1.3-7.2 0-9.8 4.1-9.8 7.7 0 2 .9 6.9 9.1 7.4.8 0 2.5.1 2.5 1.9 0 1.4-1.5 2.3-4 2.3-2.4 0-4.8-.5-7.1-1.3v5.6c2.8.7 5.6 1 8.4 1 7 0 10-3.9 10-7.8.3-4.6-3.2-7.4-9-7.7zm38.3-2.9c-5.8.2-8.8 2.8-8.8 8v10h6.3v-8.1c0-3.1.4-4.4 4.1-4.6v-5.3h-1.6zm-17.3.3c-.9 2.3-2 4.3-3.6 6.1V5.5l-6.5 1.2v23.1h6.6v-7.1c1.2 2.2 2.2 4.6 2.8 7.1H47c-.9-3.2-4.1-9.2-4.1-9.2 2-2.6 3.5-5.5 4.6-8.6h-7.6zm24-1.7c1.7 0 3.1-1.4 3.1-3.2S65.6 4 63.8 4c-1.7 0-3.1 1.4-3.1 3.2 0 1.6 1.2 3.1 3 3.1h.2z"/></svg>