<svg xmlns="http://www.w3.org/2000/svg" width="95" height="35"><path fill="#8dc640" d="M88.8 16.2c-.7.4-1.6.6-2.4.5h-1l.8-4.4h.8c.7-.1 1.4.1 2 .5.5.3.8.9.8 1.5 0 .8-.3 1.4-1 1.9m-63.4 5.6h-8.2l.6-2.9H23l.6-3.2h-5.2l.5-2.9H27l-1.6 9zm67.9-11.5c-1.2-.8-3-1.2-5.4-1.2h-6.3l-2.3 12.7H71l.5-2.9h5l.5-3.2h-5l.5-2.9h5.2l.6-3.7H68.1l-2.2 12h-3.8l2.2-12h-5.4l-2.2 12H53L55.2 9h-5.4l-2.3 12.7h-8.3l.6-2.9h5l.6-3.2h-5l.6-2.9h5.2l.4-3.7H14.2l-1.8 10.1-3.7-10H3L0 25.4h5.3l1.8-10.3 3.6 10.3H30l2.3-12.7h3L33 25.4h50.7l1.5-8 2.4 8h5.3l-2.5-6.6.6-.1c1.1-.2 2.1-.8 2.9-1.7.7-1 1-2.1 1-3.3.2-1.3-.5-2.6-1.6-3.4"/></svg>