<?xml version="1.0" encoding="UTF-8"?>
<svg xmlns="http://www.w3.org/2000/svg" id="Layer_1" data-name="Layer 1" viewBox="0 0 24 24">
  <path d="m20.5,15c-1.93,0-3.5,1.57-3.5,3.5s1.57,3.5,3.5,3.5,3.5-1.57,3.5-3.5-1.57-3.5-3.5-3.5Zm0,6c-1.379,0-2.5-1.122-2.5-2.5s1.121-2.5,2.5-2.5,2.5,1.122,2.5,2.5-1.121,2.5-2.5,2.5Zm0-9c-.297,0-.591.028-.882.068l-1.643-4.224c.238.101.5.156.775.156h1.25v-4h-1.25c-.806,0-1.498.482-1.814,1.17l-.844-2.17h-5.092v1h4.408l3.221,8.282c-1.129.341-2.161.982-2.971,1.882l-2.391,2.836h-1.44l-3.5-8H3.5c-1.93,0-3.5,1.57-3.5,3.5v5.5h2.043c-.024.166-.043.332-.043.5,0,1.93,1.57,3.5,3.5,3.5s3.5-1.57,3.5-3.5c0-.168-.019-.334-.043-.5h4.776l2.68-3.179c1.041-1.157,2.531-1.821,4.088-1.821h3.5v-1h-3.5Zm-1.75-7h.25v2h-.25c-.552,0-1-.449-1-1s.448-1,1-1Zm-10.75,13.5c0,1.378-1.121,2.5-2.5,2.5s-2.5-1.122-2.5-2.5c0-.168.023-.335.057-.5h4.886c.034.165.057.332.057.5Zm-7-1.5v-4.5c0-1.378,1.121-2.5,2.5-2.5h4.173l3.062,7H1Z"/>
</svg>
