<?xml version="1.0" encoding="UTF-8"?>
<svg xmlns="http://www.w3.org/2000/svg" id="Layer_1" data-name="Layer 1" viewBox="0 0 24 24">
  <path d="m15.5,24h-2v-1h2c.827,0,1.5-.673,1.5-1.5s-.673-1.5-1.5-1.5h-5c-1.378,0-2.5-1.121-2.5-2.5s1.122-2.5,2.5-2.5h8.5c1.103,0,2-.897,2-2s-.897-2-2-2H5.5c-3.033,0-5.5-2.468-5.5-5.5S2.467,0,5.5,0h15c1.93,0,3.5,1.57,3.5,3.5s-1.57,3.5-3.5,3.5H6v-1h14.5c1.378,0,2.5-1.121,2.5-2.5s-1.122-2.5-2.5-2.5H5.5C3.019,1,1,3.019,1,5.5s2.019,4.5,4.5,4.5h13.5c1.654,0,3,1.346,3,3s-1.346,3-3,3h-8.5c-.827,0-1.5.673-1.5,1.5s.673,1.5,1.5,1.5h5c1.378,0,2.5,1.121,2.5,2.5s-1.122,2.5-2.5,2.5Z"/>
</svg>
