<?xml version="1.0" encoding="UTF-8"?>
<svg xmlns="http://www.w3.org/2000/svg" id="Layer_1" data-name="Layer 1" viewBox="0 0 24 24" width="512" height="512"><path d="m8,3c0,.552-.448,1-1,1s-1-.448-1-1,.448-1,1-1,1,.448,1,1Zm10,0c0-.552-.448-1-1-1s-1,.448-1,1,.448,1,1,1,1-.448,1-1Zm1.525,9.25c.529.512.833.896.871.946l.234.305-.234.305c-.05.065-.536.684-1.396,1.427v2.768c0,1.103.897,2,2,2s2-.897,2-2v-.5h1v.5c0,1.654-1.346,3-3,3s-3-1.346-3-3v-1.99c-.814.572-1.824,1.126-3,1.506v1.984c0,1.93,1.57,3.5,3.5,3.5h.5v1h-.5c-2.481,0-4.5-2.019-4.5-4.5v-1.715c-.629.133-1.294.215-2,.215s-1.371-.082-2-.215v1.715c0,2.481-2.019,4.5-4.5,4.5h-.5v-1h.5c1.93,0,3.5-1.57,3.5-3.5v-1.984c-1.176-.38-2.186-.934-3-1.506v1.99c0,1.654-1.346,3-3,3s-3-1.346-3-3v-1h1v1c0,1.103.897,2,2,2s2-.897,2-2v-2.768c-.86-.743-1.346-1.362-1.396-1.427l-.234-.305.234-.305c.039-.05.342-.434.871-.946-.131-1.811-1.631-3.25-3.475-3.25H0v-1h1c2.123,0,3.897,1.482,4.368,3.463.89-.712,2.099-1.475,3.576-1.961l-1.74-3.523c-.069.005-.134.021-.204.021-1.654,0-3-1.346-3-3S5.346,0,7,0s3,1.346,3,3c0,1.226-.741,2.28-1.797,2.744l1.723,3.489c.651-.143,1.34-.233,2.074-.233s1.424.09,2.074.233l1.74-3.48c-1.066-.461-1.814-1.52-1.814-2.753,0-1.654,1.346-3,3-3s3,1.346,3,3-1.346,3-3,3c-.062,0-.12-.015-.182-.018l-1.76,3.521c1.476.486,2.685,1.248,3.575,1.961.471-1.981,2.245-3.463,4.368-3.463h1v1h-1c-1.844,0-3.344,1.439-3.475,3.25Zm-2.525-7.25c1.103,0,2-.897,2-2s-.897-2-2-2-2,.897-2,2,.897,2,2,2Zm-10,0c1.103,0,2-.897,2-2s-.897-2-2-2-2,.897-2,2,.897,2,2,2Zm12.341,8.5c-.821-.904-3.516-3.5-7.341-3.5s-6.52,2.596-7.341,3.5c.821.904,3.516,3.5,7.341,3.5s6.52-2.596,7.341-3.5Z"/></svg>
