<?xml version="1.0" encoding="UTF-8"?>
<svg xmlns="http://www.w3.org/2000/svg" id="Layer_1" data-name="Layer 1" viewBox="0 0 24 24" width="512" height="512"><path d="m23.025,23l-6.535-15.42L20.208.144l-8.198,1.447c-1.641.29-2.992,1.386-3.614,2.932L.969,23h-.969v1h24v-1h-.975ZM9.323,4.896c.492-1.224,1.562-2.091,2.86-2.321l6.241-1.101-3.036,6.071,6.549,15.455H2.046L9.323,4.896Zm6.477,12.304l-1.3-2.601-1.3,2.601-2.601,1.3,2.601,1.3,1.3,2.601,1.3-2.601,2.601-1.3-2.601-1.3Zm-.745,1.854l-.555,1.109-.555-1.109-1.109-.555,1.109-.555.555-1.109.555,1.109,1.109.555-1.109.555Zm-2.382-6.482l2.346-1.173-2.346-1.172-1.172-2.346-1.172,2.346-2.346,1.172,2.346,1.173,1.172,2.345,1.172-2.345Zm-2.454-1.173l.854-.427.427-.854.427.854.854.427-.854.428-.427.854-.427-.854-.854-.428Z"/></svg>
