<?xml version="1.0" encoding="UTF-8"?>
<svg xmlns="http://www.w3.org/2000/svg" id="Layer_1" data-name="Layer 1" viewBox="0 0 24 24">
  <path d="m17,0v11.764c0,2.682-1.979,4.972-4.507,5.213-1.432.135-2.8-.317-3.855-1.276-1.041-.946-1.638-2.295-1.638-3.701V0H0v11.621c0,6.708,5.283,12.261,11.775,12.379.076.001.151.002.226.002,3.166,0,6.143-1.216,8.406-3.438,2.316-2.275,3.593-5.316,3.593-8.562V0h-7Zm6,1v4h-5V1h5ZM6,1v4H1V1h5Zm13.706,18.851c-2.123,2.084-4.939,3.212-7.912,3.149-5.952-.109-10.794-5.213-10.794-11.379v-5.621h5v6c0,1.687.716,3.306,1.965,4.441,1.266,1.15,2.91,1.694,4.623,1.531,3.035-.289,5.413-3.016,5.413-6.208v-5.764h5v6.002c0,2.976-1.17,5.764-3.294,7.849Z"/>
</svg>
