<?xml version="1.0" encoding="UTF-8"?>
<svg xmlns="http://www.w3.org/2000/svg" id="Layer_1" data-name="Layer 1" viewBox="0 0 24 24">
  <path d="m22.65,5.61c-.86-.42-1.76-.95-2.49-1.83l3.84-3.17c-.2-.34-.17-.28-.37-.61l-4.59,1.59c-.01-.05-.03-.1-.04-.15V0c-.77,0-1.44.44-1.78,1.08-1.54.21-2.77.8-3.67,1.78-1.76,1.91-1.56,4.57-1.55,4.64v.47c-3.55-.39-7.07-4.74-7.11-4.78l-.72-.89-.17,1.13s-.43,3.16,1.22,6.41c-.24.2-.45.44-.63.7C1.68,11.5,0,14.59,0,19h1c0-1.4.21-4.25,1.79-6.09-.53,1.45-.79,3.49-.79,6.09h1c0-2.88.35-5.06,1-6.37.04,1.66.72,3.81,1.23,5.39.12.37.23.72.32,1.02l-.61,4.96h5.02l.5-5h2.55v5h5v-5.45l.4-1.9c.4-1.41.6-2.34.6-3.76v-3.9h5v-1.17c0-.95-.53-1.83-1.35-2.22Zm.35,2.39h-5v4.9c0,1.31-.17,2.13-.57,3.52l-.42,1.98v4.6h-3.01v-5h-4.45l-.5,5h-2.98l.5-4.04s-.25-.82-.38-1.24c-.5-1.56-1.18-3.71-1.18-5.22,0-.67.27-1.31.74-1.77.85,1.35,2.11,2.68,3.94,3.78l.51-.86c-4.54-2.72-5.21-6.87-5.25-8.89,1.42,1.5,4.44,4.25,7.56,4.25h.5v-1.54s-.17-2.35,1.3-3.93c.87-.94,2.16-1.45,3.83-1.52.79,2.61,2.59,3.77,4.09,4.5.48.23.79.75.79,1.32v.17Z"/>
</svg>
