<?xml version="1.0" encoding="UTF-8"?>
<svg xmlns="http://www.w3.org/2000/svg" id="Layer_1" data-name="Layer 1" width="512" height="512" viewBox="0 0 24 24"><path d="M3,12c0,.462,.078,.913,.231,1.344l.217,.605-.641,.061c-1.03,.098-1.808,.953-1.808,1.99,0,1.103,.897,2,2,2h.997c-.231,.309-.425,.643-.579,1h-.419c-1.654,0-3-1.346-3-3,0-1.353,.882-2.499,2.128-2.872-.085-.368-.128-.745-.128-1.128,0-2.757,2.243-5,5-5,1.231,0,2.413,.451,3.331,1.272l.002,.002c.546,.489,.958,1.09,1.242,1.748-.35,.021-.694,.062-1.029,.132-.221-.424-.516-.809-.88-1.134h-.001c-.734-.657-1.68-1.02-2.666-1.02-2.206,0-4,1.794-4,4Zm17,8c0,2.206-1.794,4-4,4H8c-1.654,0-3-1.346-3-3,0-1.353,.882-2.499,2.128-2.872-.085-.368-.128-.745-.128-1.128,0-2.757,2.243-5,5-5,2.444,0,4.497,1.74,4.92,4.106,1.78,.421,3.08,2.031,3.08,3.894Zm-1,0c0-1.493-1.114-2.771-2.592-2.973l-.39-.053-.04-.392c-.211-2.042-1.921-3.583-3.979-3.583-2.206,0-4,1.794-4,4,0,.462,.078,.913,.231,1.344l.217,.605-.641,.061c-1.03,.098-1.808,.953-1.808,1.99,0,1.103,.897,2,2,2h8c1.654,0,3-1.346,3-3Zm3.806-10.342c-.585,.227-1.192,.342-1.806,.342-2.757,0-5-2.243-5-5,0-1.579,.729-3.034,1.998-3.991l.923-.695-1.139-.197c-.454-.078-.873-.116-1.282-.116-2.881,0-5.542,1.683-6.778,4.285-.172,.363-.303,.739-.414,1.119,.317,.111,.627,.242,.926,.398,.1-.371,.225-.735,.392-1.087,1.071-2.257,3.377-3.715,5.874-3.715h.032c-.984,1.091-1.532,2.498-1.532,4,0,3.309,2.691,6,6,6,.347,0,.691-.03,1.031-.091-.653,1.063-1.602,1.92-2.746,2.465-.351,.167-.714,.291-1.084,.392,.136,.262,.266,.528,.37,.809,.051,.024,.096,.057,.146,.082,.339-.105,.674-.226,.998-.381,1.702-.811,3.028-2.219,3.735-3.965l.434-1.072-1.078,.419Z"/></svg>
