<?xml version="1.0" encoding="UTF-8"?>
<svg xmlns="http://www.w3.org/2000/svg" id="Layer_1" data-name="Layer 1" viewBox="0 0 24 24" width="512" height="512"><path d="m7,15c0,.552-.448,1-1,1s-1-.448-1-1,.448-1,1-1,1,.448,1,1Zm11-1c-.552,0-1,.448-1,1s.448,1,1,1,1-.448,1-1-.448-1-1-1Zm-6,1c-.552,0-1,.448-1,1s.448,1,1,1,1-.448,1-1-.448-1-1-1Zm12-.442c0,3.052-5.271,5.442-12,5.442S0,17.609,0,14.558c0-1.766,1.726-3.23,5-4.25v-.307c0-3.859,3.14-7,7-7s7,3.141,7,7v.307c3.274,1.021,5,2.484,5,4.25Zm-18-3.746c.466.312,2.12,1.188,6,1.188s5.526-.872,6-1.189v-.811c0-3.309-2.691-6-6-6s-6,2.691-6,6v.812Zm17,3.746c0-1.236-1.438-2.368-4.071-3.224-.065.065-1.726,1.666-6.929,1.666s-6.864-1.601-6.929-1.666c-2.633.856-4.071,1.988-4.071,3.224,0,2.146,4.42,4.442,11,4.442s11-2.297,11-4.442Z"/></svg>
