<?xml version="1.0" encoding="UTF-8"?>
<svg xmlns="http://www.w3.org/2000/svg" id="Layer_1" data-name="Layer 1" viewBox="0 0 24 24">
  <path d="m16,9.822V2.607c0-1.273-.896-2.379-2.084-2.573-.729-.115-1.475.086-2.035.562-.56.476-.881,1.17-.881,1.905v6.262l-.491-.104c-.86-.184-1.748.03-2.432.585-.628.508-1.01,1.243-1.069,2.041l-4.275,4.207c-.473.472-.732,1.1-.732,1.768s.26,1.296.732,1.768l4.975,4.975h14.293v-12.905l-6-1.273Zm5,13.178h-12.879l-4.682-4.682c-.283-.283-.439-.66-.439-1.061s.156-.777.437-1.058l3.563-3.506v4.307h1v-5.5c0-.578.258-1.117.706-1.481.448-.363,1.026-.505,1.596-.383l1.698.36V2.5c0-.44.192-.857.528-1.143.341-.29.775-.41,1.228-.336.709.115,1.244.797,1.244,1.586v8.025l6,1.273v11.095Z"/>
</svg>
