<?xml version="1.0" encoding="UTF-8"?>
<svg xmlns="http://www.w3.org/2000/svg" id="Layer_1" data-name="Layer 1" viewBox="0 0 24 24">
  <path d="m13.409,19.019l10.576,4.013-.355.935-11.63-4.413L.37,23.967l-.355-.935,10.576-4.013L.015,15.006l.355-.935,11.63,4.413,11.63-4.413.355.935-10.576,4.013ZM5,9c0-2.588,1.72-4.565,2.247-5.109l.577-.595.258.788c.292.895.761,1.814.983,1.928.453-.012.628-.417.96-1.811.266-1.112.595-2.497,1.597-3.653l.352-.406.38.38c.491.491,1.142,1.011,1.83,1.561,2.146,1.715,4.816,3.85,4.816,6.917,0,3.86-3.141,7-7,7s-7-3.14-7-7Zm8.414,2.584l-1.414-1.414-1.415,1.415c-.779.78-.779,2.05,0,2.831.78.779,2.051.778,2.829,0,.779-.78.779-2.05,0-2.831Zm-7.414-2.584c0,2.356,1.368,4.394,3.349,5.375-.584-1.13-.417-2.551.529-3.497l2.122-2.122,2.121,2.122c.945.947,1.113,2.368.529,3.498,1.981-.981,3.35-3.018,3.35-5.375,0-2.587-2.359-4.473-4.441-6.136-.537-.43-1.052-.841-1.5-1.245-.601.885-.843,1.902-1.061,2.814-.301,1.262-.611,2.567-1.998,2.567-.653,0-1.185-.853-1.57-1.79-.761.991-1.43,2.363-1.43,3.79Z"/>
</svg>
