<?xml version="1.0" encoding="UTF-8"?>
<svg xmlns="http://www.w3.org/2000/svg" id="Layer_1" data-name="Layer 1" viewBox="0 0 24 24" width="512" height="512"><path d="M23,9.19c.36-.21,.69-.45,1-.73v15.54H0V6.5c0-1.38,1.12-2.5,2.5-2.5H14v1H2.5c-.53,0-1,.28-1.27,.7L9.51,13.97c1.32,1.32,3.63,1.32,4.95,0h0s4.09-4.16,4.09-4.16c.4,.1,.81,.16,1.23,.17l-4.62,4.69h0c-.85,.85-1.98,1.32-3.18,1.32s-2.33-.47-3.18-1.32L1,6.88V23H23V9.19Zm-7-5.19c0-2.21,1.79-4,4-4s4,1.79,4,4-1.79,4-4,4-4-1.79-4-4Zm1,0c0,1.65,1.35,3,3,3s3-1.35,3-3-1.35-3-3-3-3,1.35-3,3Z"/></svg>
