<?xml version="1.0" encoding="UTF-8"?>
<svg xmlns="http://www.w3.org/2000/svg" id="Layer_1" data-name="Layer 1" viewBox="0 0 24 24">
  <path d="m8.5,19c-.144,0-.283.019-.42.042l-1.522-3.042h2.441v-1h-3.5v1.118l.641,1.281-1.897,1.035-1.46-2.434h-1.783v1h1.217l1.148,1.913-.271.148.012.022c-.195-.049-.396-.083-.606-.083-1.379,0-2.5,1.122-2.5,2.5s1.121,2.5,2.5,2.5,2.5-1.122,2.5-2.5c0-.748-.337-1.413-.859-1.871l2.447-1.335.556,1.111c-.687.446-1.144,1.217-1.144,2.095,0,1.378,1.121,2.5,2.5,2.5s2.5-1.122,2.5-2.5-1.121-2.5-2.5-2.5Zm-6,4c-.827,0-1.5-.673-1.5-1.5s.673-1.5,1.5-1.5,1.5.673,1.5,1.5-.673,1.5-1.5,1.5Zm6,0c-.827,0-1.5-.673-1.5-1.5s.673-1.5,1.5-1.5,1.5.673,1.5,1.5-.673,1.5-1.5,1.5ZM19,5.983l4.941-2.977-4.851-3.006h-1.091v10h1v-4.017Zm0-4.863l3.023,1.874-3.023,1.821V1.12Zm5,17.38c0,1.93-1.57,3.5-3.5,3.5h-7.5v-1h7.5c1.379,0,2.5-1.122,2.5-2.5s-1.121-2.5-2.5-2.5h-7c-1.93,0-3.5-1.57-3.5-3.5s1.57-3.5,3.5-3.5h2.5v1h-2.5c-1.379,0-2.5,1.122-2.5,2.5s1.121,2.5,2.5,2.5h7c1.93,0,3.5,1.57,3.5,3.5Z"/>
</svg>
