<?xml version="1.0" encoding="UTF-8"?>
<svg xmlns="http://www.w3.org/2000/svg" id="Layer_1" data-name="Layer 1" viewBox="0 0 24 24" width="512" height="512"><path d="M4.5,5c1.38,0,2.5-1.12,2.5-2.5S5.88,0,4.5,0,2,1.12,2,2.5s1.12,2.5,2.5,2.5Zm0-4c.83,0,1.5,.67,1.5,1.5s-.67,1.5-1.5,1.5-1.5-.67-1.5-1.5,.67-1.5,1.5-1.5Zm2,5H2.5c-1.38,0-2.5,1.12-2.5,2.5v8.5H2v7h1v-7h3v7h1v-7h2V8.5c0-1.38-1.12-2.5-2.5-2.5Zm1.5,10H1v-7.5c0-.83,.67-1.5,1.5-1.5H6.5c.83,0,1.5,.67,1.5,1.5v7.5ZM18.5,5c1.38,0,2.5-1.12,2.5-2.5s-1.12-2.5-2.5-2.5-2.5,1.12-2.5,2.5,1.12,2.5,2.5,2.5Zm0-4c.83,0,1.5,.67,1.5,1.5s-.67,1.5-1.5,1.5-1.5-.67-1.5-1.5,.67-1.5,1.5-1.5Zm5.47,19l-2.17-11.95c-.22-1.19-1.25-2.05-2.46-2.05h-1.66c-1.21,0-2.24,.86-2.46,2.05l-2.17,11.95h2.96v4h1v-4h3v4h1v-4h2.97Zm-7.77-11.77c.13-.71,.75-1.23,1.48-1.23h1.66c.73,0,1.35,.52,1.48,1.23l1.96,10.77H14.24l1.95-10.77Z"/></svg>
