<?xml version="1.0" encoding="UTF-8"?>
<svg xmlns="http://www.w3.org/2000/svg" id="Layer_1" data-name="Layer 1" viewBox="0 0 24 24" width="512" height="512"><path d="M23.534,5.718c-.381-.456-.939-.718-1.534-.718h-5.999V2h-3.501V0h-1V2h-3.5v3H2c-.595,0-1.153,.262-1.534,.718C.084,6.175-.073,6.772,.032,7.358l1.754,9.642h6.215v7h7.999v-7h6.214l1.754-9.643c.105-.585-.052-1.183-.434-1.64ZM15,3v2h-5.999V3h5.999Zm0,3v6h-6V6h6ZM1.017,7.18c-.054-.293,.025-.593,.217-.82,.19-.229,.47-.359,.767-.359h6.001v6H1.893l-.876-4.82Zm13.983,15.82h-6v-6h6.001v6Zm6.379-7H2.62l-.545-3H21.925l-.545,3Zm1.604-8.821l-.876,4.821h-6.106V6h5.999c.297,0,.576,.131,.767,.359,.191,.228,.271,.527,.217,.819Z"/></svg>
