<?xml version="1.0" encoding="UTF-8"?>
<svg xmlns="http://www.w3.org/2000/svg" id="Layer_1" data-name="Layer 1" viewBox="0 0 24 24">
  <path d="m23.478,21.266l-2.421.752-1.078-3.361c1.015-.403,1.856-1.135,2.4-2.099.631-1.117.788-2.412.437-3.67l-1.987-6.004c-.413-1.368-1.867-2.173-3.253-1.784l-4.137,1.202c-.596.166-1.102.526-1.452,1.024-.351-.499-.857-.858-1.448-1.023l-4.146-1.205c-1.384-.386-2.834.417-3.244,1.773l-1.998,6.04c-.663,2.381.598,4.851,2.843,5.746l-1.077,3.362-2.421-.752-.297.955,5.78,1.795.297-.955-2.403-.746,1.085-3.386c.273.047.546.07.816.07,2.101,0,4.033-1.389,4.618-3.488l1.596-4.776,1.589,4.751c.344,1.235,1.147,2.262,2.265,2.893.73.412,1.536.622,2.352.622.275,0,.55-.024.824-.072l1.086,3.385-2.404.746.297.955,5.78-1.795-.297-.955Zm-14.043-6.048c-.562,2.019-2.664,3.201-4.682,2.642-2.018-.562-3.202-2.662-2.647-4.658l.729-2.202h8.009l-1.409,4.218Zm1.971-5.9l-.228.682H3.165l.935-2.827c.214-.708.876-1.172,1.586-1.172.144,0,.29.019.435.059l4.144,1.204c.431.12.787.402,1.003.794.216.393.263.845.138,1.259Zm1.299-1.258c.216-.393.572-.675,1.009-.797l4.137-1.202c.145-.041.291-.06.436-.06.71,0,1.373.466,1.59,1.184l.932,2.814h-8.012l-.224-.668c-.13-.428-.082-.88.133-1.272Zm3.627,9.449c-.884-.499-1.521-1.312-1.8-2.314l-1.402-4.194h8.009l.721,2.179c.272.978.147,2.003-.351,2.887-.499.884-1.312,1.521-2.29,1.793-.979.272-2.004.147-2.888-.352Zm-1.266-13.866l-.707-.707,2.288-2.289.707.707-2.288,2.289Zm-6.169-.039l-2.25-2.25.707-.707,2.25,2.25-.707.707Zm3.604-.604h-1V0h1v3Z"/>
</svg>
