<?xml version="1.0" encoding="UTF-8"?>
<svg xmlns="http://www.w3.org/2000/svg" id="Layer_1" data-name="Layer 1" viewBox="0 0 24 24">
  <path d="m7,11h10v1H7v-1Zm15-5.729v6.771c0,7.198-6.553,10.611-9.37,11.744l-.65.262-.626-.313c-2.194-1.097-9.354-5.188-9.354-11.8v-6.664c0-1.124.718-2.117,1.788-2.473L12,.076l8.212,2.722c1.069.354,1.788,1.348,1.788,2.473Zm-1,0c0-.693-.443-1.306-1.103-1.523l-7.897-2.618-7.897,2.618c-.659.219-1.103.831-1.103,1.523v6.664c0,6.037,6.96,9.985,9.025,11.018,2.629-1.058,8.975-4.321,8.975-10.91v-6.771Z"/>
</svg>
