<?xml version="1.0" encoding="UTF-8"?>
<svg xmlns="http://www.w3.org/2000/svg" id="Layer_1" data-name="Layer 1" viewBox="0 0 24 24" width="512" height="512"><path d="M20,13h-4.137l.576-5.942c.167-.745-.012-1.513-.489-2.108s-1.188-.937-1.95-.937l-3.434-.004,.376-3.009h6.059V0h-6.941l-.501,4.008-7.057-.008c-.762,0-1.472,.341-1.949,.935C.075,5.529-.105,6.296,.051,6.991L2.056,24H20c2.206,0,4-1.794,4-4v-3c0-2.206-1.794-4-4-4Zm3,4v1H10v-1c0-1.654,1.346-3,3-3h7c1.654,0,3,1.346,3,3Zm-3.56,2l-1.938,1.384-1.909-1.384h3.847ZM13.999,5.013c.458,0,.884,.205,1.17,.562,.287,.357,.394,.818,.284,1.326l-.107,1.099-5.28-.004,.373-2.986,3.559,.004ZM1.332,5.561c.286-.356,.712-.561,1.169-.561l6.932,.008-.373,2.987-7.886-.006-.137-1.164c-.099-.446,.009-.907,.295-1.264Zm1.613,17.439L1.291,8.988l13.958,.011-.39,4.001h-1.859c-2.206,0-4,1.794-4,4v3c0,1.194,.526,2.266,1.357,3H2.944Zm17.056,0h-7c-1.654,0-3-1.346-3-3v-1h3.889l3.609,2.616,3.662-2.616h1.84v1c0,1.654-1.346,3-3,3Z"/></svg>
