<?xml version="1.0" encoding="UTF-8"?>
<svg xmlns="http://www.w3.org/2000/svg" id="Layer_1" data-name="Layer 1" width="512" height="512" viewBox="0 0 24 24"><path d="M17,7c-1.654,0-3,1.57-3,3.5s1.346,3.5,3,3.5,3-1.57,3-3.5-1.346-3.5-3-3.5Zm0,6c-1.103,0-2-1.122-2-2.5,0-1.354,.866-2.459,1.941-2.498-.525,.031-.941,.466-.941,.998,0,.552,.448,1,1,1s1-.448,1-1c0-.533-.416-.968-.941-.998,1.075,.039,1.941,1.144,1.941,2.498,0,1.378-.897,2.5-2,2.5Zm-7-2.5c0-1.93-1.346-3.5-3-3.5s-3,1.57-3,3.5,1.346,3.5,3,3.5,3-1.57,3-3.5Zm-3,2.5c-1.103,0-2-1.122-2-2.5,0-1.354,.866-2.459,1.941-2.498-.525,.031-.941,.466-.941,.998,0,.552,.448,1,1,1s1-.448,1-1c0-.533-.416-.968-.941-.998,1.075,.039,1.941,1.144,1.941,2.498,0,1.378-.897,2.5-2,2.5Zm1,4h8v1H8v-1ZM12,0C5.383,0,0,5.383,0,12s5.383,12,12,12,12-5.383,12-12S18.617,0,12,0Zm0,23c-6.065,0-11-4.935-11-11S5.935,1,12,1s11,4.935,11,11-4.935,11-11,11Z"/></svg>
