<?xml version="1.0" encoding="UTF-8"?>
<svg xmlns="http://www.w3.org/2000/svg" id="Layer_1" data-name="Layer 1" viewBox="0 0 24 24" width="512" height="512"><path d="m17.5,15h-.091c1.422-2.141,2.591-4.617,2.591-7C20,3.589,16.411,0,12,0S4,3.589,4,8c0,2.383,1.169,4.859,2.591,7h-.091c-1.93,0-3.5,1.57-3.5,3.5v5.5h1v-5.5c0-1.379,1.121-2.5,2.5-2.5h.788c2.004,2.734,4.211,4.724,4.38,4.874l.332.295.332-.295c.169-.15,2.376-2.14,4.38-4.874h.788c1.379,0,2.5,1.121,2.5,2.5v5.5h1v-5.5c0-1.93-1.57-3.5-3.5-3.5Zm-5.5,4.817c-1.433-1.36-7-6.961-7-11.817,0-3.859,3.141-7,7-7s7,3.141,7,7c0,4.852-5.567,10.456-7,11.817Zm5.982-13.346l-.038-.415-.415-.038c-.099-.007-2.435-.208-3.584.94-1.147,1.148-.949,3.485-.94,3.584l.038.415s.629.057.912.057c.771,0,2.246-.119,3.086-.959,1.148-1.148.95-3.485.941-3.584Zm-1.648,2.877c-.541.541-1.647.664-2.349.667.003-.701.126-1.809.667-2.35s1.648-.664,2.35-.667c-.003.701-.127,1.809-.668,2.35Zm-9.862-3.33l-.415.038-.038.415c-.009.099-.207,2.436.941,3.584.84.84,2.315.959,3.086.959.283,0,.912-.057.912-.057l.038-.415c.009-.099.207-2.436-.94-3.584-1.148-1.148-3.486-.948-3.584-.94Zm1.195,3.33c-.541-.541-.665-1.648-.668-2.35.701.003,1.809.126,2.35.667.541.542.664,1.649.667,2.351-.7-.002-1.805-.125-2.349-.668Z"/></svg>
