<?xml version="1.0" encoding="UTF-8"?>
<svg xmlns="http://www.w3.org/2000/svg" id="Layer_1" data-name="Layer 1" viewBox="0 0 24 24">
  <path d="m11.026,23c.306.36.641.695,1.003,1H0V2.5C0,1.122,1.122,0,2.5,0h11c1.378,0,2.5,1.122,2.5,2.5v6.64c-.34.061-.675.135-1,.235V2.5c0-.827-.673-1.5-1.5-1.5H2.5c-.827,0-1.5.673-1.5,1.5v20.5h10.026Zm-4.026-10h-3v1h3v-1Zm-3,5h3v-1h-3v1Zm3-13h-3v1h3v-1Zm5,0h-3v1h3v-1Zm-5,4h-3v1h3v-1Zm2,1h3v-1h-3v1Zm15,7.5c0,3.584-2.916,6.5-6.5,6.5s-6.5-2.916-6.5-6.5,2.916-6.5,6.5-6.5,6.5,2.916,6.5,6.5Zm-1,0c0-3.032-2.467-5.5-5.5-5.5s-5.5,2.468-5.5,5.5,2.467,5.5,5.5,5.5,5.5-2.468,5.5-5.5Zm-2.415-1.013c.553.552.554,1.45.003,2.004l-3.588,3.102v-3.593h-3v-1h3v-3.587l3.585,3.074Zm-.695.72l-1.89-1.62v3.82l1.907-1.647c.132-.135.135-.39-.017-.553Z"/>
</svg>
