<?xml version="1.0" encoding="UTF-8"?>
<svg xmlns="http://www.w3.org/2000/svg" id="Layer_1" data-name="Layer 1" viewBox="0 0 24 24">
  <path d="m16,1c0-.552.448-1,1-1s1,.448,1,1-.448,1-1,1-1-.448-1-1Zm7,5c-.552,0-1,.448-1,1s.448,1,1,1,1-.448,1-1-.448-1-1-1Zm-4.825,2L23,0h-1.175l-4.825,8h1.175Zm3.825,5v8c0,1.682-2.416,3-5.5,3-2.262,0-4.155-.713-5.008-1.754-.912,1.053-2.971,1.754-5.492,1.754-3.42,0-6-1.29-6-3V5c0-1.71,2.58-3,6-3s6,1.29,6,3v6.263c.987-.767,2.615-1.263,4.5-1.263,3.084,0,5.5,1.318,5.5,3ZM1,5c0,.944,2.138,2,5,2s5-1.056,5-2-2.138-2-5-2S1,4.056,1,5Zm0,4c0,.944,2.138,2,5,2s5-1.056,5-2v-2.297c-1.057.794-2.864,1.297-5,1.297s-3.943-.503-5-1.297v2.297Zm0,4c0,.944,2.138,2,5,2s5-1.056,5-2v-2.297c-1.057.794-2.864,1.297-5,1.297s-3.943-.503-5-1.297v2.297Zm0,4c0,.944,2.138,2,5,2s5-1.056,5-2v-2.297c-1.057.794-2.864,1.297-5,1.297s-3.943-.503-5-1.297v2.297Zm10,4v-2.297c-1.057.794-2.864,1.297-5,1.297s-3.943-.503-5-1.297v2.297c0,.944,2.138,2,5,2s5-1.056,5-2Zm10,0v-2.263c-.987.767-2.615,1.263-4.5,1.263s-3.513-.496-4.5-1.263v2.263c0,.946,1.848,2,4.5,2s4.5-1.054,4.5-2Zm0-4v-2.263c-.987.767-2.615,1.263-4.5,1.263s-3.513-.496-4.5-1.263v2.263c0,.946,1.848,2,4.5,2s4.5-1.054,4.5-2Zm0-4c0-.946-1.848-2-4.5-2s-4.5,1.054-4.5,2,1.848,2,4.5,2,4.5-1.054,4.5-2Z"/>
</svg>
