<?xml version="1.0" encoding="UTF-8"?>
<svg xmlns="http://www.w3.org/2000/svg" id="Layer_1" data-name="Layer 1" viewBox="0 0 24 24" width="512" height="512"><path d="M24,5v1H12.008c0,.781-.252,1.521-.729,2.139-.38,.491-.38,1.231,0,1.723,.477,.617,.729,1.357,.729,2.139s-.252,1.521-.729,2.139c-.38,.491-.38,1.231,0,1.723,.477,.617,.729,1.357,.729,2.139s-.252,1.521-.729,2.139c-.38,.491-.38,1.231,0,1.723,.477,.617,.729,1.357,.729,2.139h-1c0-.559-.18-1.087-.521-1.527-.66-.854-.66-2.092,0-2.945,.34-.44,.521-.969,.521-1.527s-.18-1.087-.521-1.527c-.66-.854-.66-2.092,0-2.945,.34-.44,.521-.969,.521-1.527s-.18-1.087-.521-1.527c-.66-.854-.66-2.092,0-2.945,.34-.44,.521-.969,.521-1.527h-2.985c0,.782-.252,1.522-.729,2.139-.38,.491-.38,1.231,0,1.723,.477,.616,.729,1.356,.729,2.139s-.252,1.522-.729,2.139c-.38,.491-.38,1.231,0,1.723,.477,.616,.729,1.356,.729,2.139s-.252,1.522-.729,2.139c-.38,.491-.38,1.231,0,1.723,.477,.616,.729,1.356,.729,2.139h-1c0-.559-.18-1.087-.521-1.527-.66-.854-.66-2.092,0-2.945,.34-.44,.521-.969,.521-1.527s-.18-1.087-.521-1.527c-.66-.854-.66-2.092,0-2.945,.34-.44,.521-.969,.521-1.527s-.18-1.087-.521-1.527c-.66-.854-.66-2.092,0-2.945,.34-.44,.521-.969,.521-1.527h-3.015c0,.781-.252,1.521-.729,2.139-.38,.491-.38,1.231,0,1.723,.477,.617,.729,1.357,.729,2.139s-.252,1.521-.729,2.139c-.38,.491-.38,1.231,0,1.723,.477,.617,.729,1.357,.729,2.139s-.252,1.521-.729,2.139c-.38,.491-.38,1.231,0,1.723,.477,.617,.729,1.357,.729,2.139h-1c0-.559-.18-1.087-.521-1.527-.66-.854-.66-2.092,0-2.945,.34-.44,.521-.969,.521-1.527s-.18-1.087-.521-1.527c-.66-.854-.66-2.092,0-2.945,.34-.44,.521-.969,.521-1.527s-.18-1.087-.521-1.527c-.66-.854-.66-2.092,0-2.945,.34-.44,.521-.969,.521-1.527H0v-1H24Zm-.02-4.002L23.896,.002,.002,2.002l.083,.996L23.98,.998Z"/></svg>
