<?xml version="1.0" encoding="UTF-8"?>
<svg xmlns="http://www.w3.org/2000/svg" id="Layer_1" data-name="Layer 1" viewBox="0 0 24 24">
  <path d="m21.964,19.999l-1.964-12.538v-1.96C20,.625,15.725,0,12,0S4,.625,4,5.5v1.96l-1.965,12.545c-.144,1.005.156,2.021.821,2.788.665.767,1.629,1.207,2.644,1.207h13c1.015,0,1.979-.44,2.644-1.207.665-.767.964-1.783.82-2.794ZM9,1.219v.781c0,.552.448,1,1,1s1-.448,1-1v-.98c.319-.013.652-.02,1-.02s.681.007,1,.02v.98c0,.552.448,1,1,1s1-.448,1-1v-.781c2.805.489,4,1.828,4,4.281v1.5H5v-1.5c0-2.454,1.195-3.792,4-4.281Zm11.389,20.92c-.475.547-1.164.862-1.889.862H5.5c-.725,0-1.414-.314-1.889-.862-.475-.548-.688-1.274-.587-1.985l1.904-12.153h14.144l1.903,12.146c.103.718-.111,1.444-.586,1.992Zm-4.389-3.138c0,.552-.448,1-1,1s-1-.448-1-1,.448-1,1-1,1,.448,1,1Zm-2-3c0,.552-.448,1-1,1s-1-.448-1-1,.448-1,1-1,1,.448,1,1Zm4,0c0,.552-.448,1-1,1s-1-.448-1-1,.448-1,1-1,1,.448,1,1Z"/>
</svg>
