<?xml version="1.0" encoding="UTF-8"?>
<svg xmlns="http://www.w3.org/2000/svg" id="Layer_1" data-name="Layer 1" viewBox="0 0 24 24">
  <path d="m24,16.935l-1.642-4.935h-9.717l-1.642,4.935c0,.748.403,1.398,1,1.76v5.305h11v-5.305c.597-.363,1-1.013,1-1.76Zm-10.642-3.935h1.642v2h1v-2h3v2h1v-2h1.642l1.355,4.009c-.038.553-.5.991-1.062.991h-.869c-.607,0-1.065-.43-1.065-1h-1c0,.57-.458,1-1.065,1h-.869c-.607,0-1.065-.43-1.065-1h-1c0,.57-.458,1-1.065,1h-.869c-.562,0-1.024-.438-1.062-.991l1.355-4.009Zm8.642,10h-9v-4.007c.022,0,.043.007.065.007h.869c.636,0,1.189-.271,1.565-.695.376.425.929.695,1.565.695h.869c.636,0,1.189-.271,1.565-.695.376.425.929.695,1.565.695h.869c.022,0,.043-.006.065-.007v4.007Zm-14-11c3.309,0,6-2.691,6-6S11.309,0,8,0,2,2.691,2,6s2.691,6,6,6Zm0-11c2.757,0,5,2.243,5,5s-2.243,5-5,5-5-2.243-5-5S5.243,1,8,1Zm1.854,13l-.338,1h-4.516c-2.206,0-4,1.794-4,4v5H0v-5c0-2.757,2.243-5,5-5h4.854Z"/>
</svg>
