<?xml version="1.0" encoding="UTF-8"?>
<svg xmlns="http://www.w3.org/2000/svg" id="Layer_1" data-name="Layer 1" viewBox="0 0 24 24">
  <path d="m6.898,11.427c.371-.363.603-.868.603-1.427,0-1.103-.897-2-2-2s-2,.897-2,2c0,.559.232,1.064.603,1.427-.665.45-1.103,1.211-1.103,2.073,0,1.379,1.121,2.5,2.5,2.5s2.5-1.121,2.5-2.5c0-.862-.438-1.623-1.103-2.073Zm-2.397-1.427c0-.551.448-1,1-1s1,.449,1,1-.448,1-1,1-1-.449-1-1Zm1,5c-.827,0-1.5-.673-1.5-1.5s.673-1.5,1.5-1.5,1.5.673,1.5,1.5-.673,1.5-1.5,1.5Zm5.999-7c-1.379,0-2.5,1.122-2.5,2.5v3c0,1.379,1.121,2.5,2.5,2.5s2.5-1.121,2.5-2.5v-3c0-1.378-1.121-2.5-2.5-2.5Zm1.5,5.5c0,.827-.673,1.5-1.5,1.5s-1.5-.673-1.5-1.5v-3c0-.827.673-1.5,1.5-1.5s1.5.673,1.5,1.5v3Zm8,1.49c0,.547-.443.99-.99.99s-.99-.443-.99-.99.443-.99.99-.99.99.443.99.99Zm-6-6c0-.558.448-1.01,1-1.01s1,.452,1,1.01-.448,1.01-1,1.01-1-.452-1-1.01ZM11.984,0C5.367,0-.016,5.383-.016,12s5.383,12,12,12h.016c6.617,0,12-5.383,12-12S18.617,0,11.984,0Zm.016,23h-.016C5.919,23,.984,18.065.984,12S5.919,1,12,1s11,4.935,11,11-4.935,11-11,11Zm9-15l-4.806,8h-1.194l4.806-8h1.194Z"/>
</svg>
