<?xml version="1.0" encoding="UTF-8"?>
<svg xmlns="http://www.w3.org/2000/svg" id="Layer_1" data-name="Layer 1" viewBox="0 0 24 24" width="512" height="512"><path d="m17.5,15c-2.923,0-4.5,2.37-4.5,4.6,0,2.478,2.476,4.4,4.605,4.4h6.282l-.208-.827c-.715-2.856-2.045-8.173-6.18-8.173Zm.105,8c-1.623,0-3.605-1.569-3.605-3.4,0-1.789,1.202-3.6,3.5-3.6,3.183,0,4.432,4.342,5.105,7h-5ZM24,3.241c0-.868-.336-1.682-.948-2.292l-.354.354.352-.355c-1.223-1.223-3.363-1.222-4.584,0L0,19.415v4.585h4.585L23.052,5.534c.611-.611.948-1.425.948-2.292ZM4.171,23H1v-3.171L15.39,5.439l3.171,3.171-14.39,14.39ZM22.345,4.827l-3.077,3.077-3.171-3.171,3.077-3.077c.844-.844,2.325-.846,3.17,0h.001c.422.423.655.986.655,1.586s-.233,1.163-.655,1.585ZM.796,5.383C.218,4.717-.06,3.881.002,3.016c.062-.865.456-1.653,1.108-2.219C1.766.23,2.599-.047,3.467.015c.865.062,1.653.456,2.218,1.109l4.457,5.32-.71.71L4.923,1.772c-.385-.446-.93-.718-1.528-.761-.592-.042-1.176.148-1.628.54-.453.393-.725.938-.768,1.536-.042.599.149,1.177.541,1.628l4.979,5.353-.707.707L.796,5.383Z"/></svg>
