<?xml version="1.0" encoding="UTF-8"?>
<svg xmlns="http://www.w3.org/2000/svg" id="Layer_1" data-name="Layer 1" viewBox="0 0 24 24">
  <path d="m10.36,9.348l-.72-.695,2.561-2.652h.799v9h-1v-7.353l-1.64,1.7Zm13.241,3.692l.391.168-.103.413c-.031.123-.707,2.74-2.986,4.209.912.649,1.445,1.303,1.488,1.357l.279.35-.316.316c-.081.081-1.876,1.849-4.345,2.113.282.663.385,1.116.394,1.157l.099.448-.438.137c-.581.181-1.381.327-2.235.327-1.363,0-2.864-.375-3.828-1.588-.964,1.212-2.464,1.588-3.828,1.588-.854,0-1.655-.146-2.235-.327l-.438-.137.099-.448c.009-.042.112-.494.394-1.157-2.469-.264-4.264-2.032-4.345-2.113l-.316-.316.279-.35c.043-.054.576-.708,1.488-1.357C.818,16.361.142,13.744.111,13.621l-.103-.413.391-.168c.044-.019.469-.197,1.116-.351-.483-.36-.893-.823-1.104-1.369-.946-2.441.029-5.819.071-5.962l.149-.508.499.179c.047.017.426.157.962.473-.1-.525-.047-1.068.249-1.598C3.573,1.703,6.653.261,6.784.2l.465-.215.204.47c.078.181,1.835,4.367-1.33,8.128-.081.68-.071,1.391-.104,2.031-.044,6.386,3.337,9.448,5.997,9.849,2.649-.399,6.02-3.739,5.992-9.841-.006-.622-.048-1.359-.129-2.038-3.165-3.761-1.408-7.947-1.33-8.128l.204-.47.465.215c.13.061,3.21,1.503,4.442,3.704.296.53.349,1.073.249,1.598.536-.316.915-.456.962-.473l.499-.179.149.508c.042.143,1.017,3.521.071,5.962-.211.545-.622,1.008-1.105,1.368.647.154,1.072.333,1.116.352ZM5.211,8.109c2.357-2.649,1.841-5.584,1.5-6.747-.878.479-2.695,1.598-3.497,3.03-.739,1.321,1.198,3.073,1.997,3.717Zm-1.956,4.351c.585-.012,1.215.046,1.846.225-.076-.637-.115-1.308-.111-2.014-.869-2.679-2.774-3.976-3.687-4.462-.222,1.013-.571,3.171.042,4.751.274.707,1.157,1.279,1.911,1.501Zm.815,4.777c.605-.311,1.308-.567,2.091-.677-.377-.818-.68-1.737-.884-2.758-.697-.284-1.476-.359-2.139-.336-.797.034-1.494.21-1.917.343.3.806,1.12,2.542,2.848,3.429Zm2.399,3.761c.33-.587.775-1.239,1.367-1.878-.425-.467-.822-1.003-1.177-1.607-1.898.133-3.332,1.337-3.944,1.948.64.516,2.064,1.487,3.754,1.537Zm5.038.387c-.98-.219-2.011-.741-2.956-1.565-1.078,1.174-1.61,2.405-1.836,3.055,1.085.23,3.699.539,4.792-1.491Zm7.504-10.716c.004.707-.034,1.379-.11,2.016.63-.179,1.26-.236,1.845-.224.656-.196,1.605-.714,1.91-1.501.613-1.582.263-3.743.041-4.754-.915.48-2.811,1.763-3.686,4.463Zm-.222-2.559c.798-.644,2.735-2.396,1.997-3.717-.801-1.433-2.619-2.552-3.497-3.03-.341,1.163-.857,4.098,1.5,6.747Zm-1.504,14.766c-.225-.649-.755-1.875-1.828-3.046-.947.826-1.98,1.346-2.962,1.561,1.094,2.024,3.704,1.715,4.789,1.485Zm.066-5.362c-.356.608-.754,1.146-1.179,1.615.588.636,1.03,1.285,1.359,1.869,1.689-.05,3.113-1.02,3.753-1.536-.613-.61-2.048-1.812-3.932-1.949Zm5.426-3.705c-.425-.132-1.164-.31-1.965-.343-.663-.023-1.391.053-2.086.334-.203,1.022-.505,1.942-.88,2.761.781.111,1.48.366,2.084.676,1.728-.886,2.548-2.622,2.848-3.428Z"/>
</svg>
