<?xml version="1.0" encoding="UTF-8"?>
<svg xmlns="http://www.w3.org/2000/svg" id="Layer_1" data-name="Layer 1" viewBox="0 0 24 24" width="512" height="512"><path d="m8.423,15.166c1.841-.614,3.077-2.33,3.077-4.27V0h1v10.896c0,1.94,1.236,3.656,3.077,4.27l2.581.86-.316.948-2.581-.86c-1.479-.493-2.64-1.569-3.261-2.923-.621,1.354-1.781,2.43-3.261,2.923l-2.581.86-.316-.948,2.581-.86Zm-1.775,6.787l-2.138.909c-.275.092-.56.139-.844.139h-.004c-.697,0-1.384-.287-1.885-.786-.501-.5-.777-1.169-.777-1.883,0-1.362.155-2.725.462-4.051l1.937-8.395c.393-1.699,1.884-2.885,3.627-2.885h1.975v-1h-1.975c-2.212,0-4.104,1.505-4.602,3.661L.487,16.055c-.323,1.4-.487,2.839-.487,4.276,0,.981.38,1.901,1.071,2.59.687.686,1.631,1.079,2.591,1.079h.006c.391,0,.781-.065,1.195-.205l2.175-.922c2.301-.976,3.806-3.168,3.937-5.642-.333.208-.683.39-1.051.547-.301,1.843-1.517,3.429-3.276,4.175Zm16.865-5.897l-1.937-8.395c-.498-2.155-2.39-3.661-4.602-3.661h-1.975v1h1.975c1.743,0,3.234,1.187,3.627,2.885l1.937,8.395c.307,1.326.462,2.689.462,4.051,0,.713-.276,1.382-.777,1.883-.501.5-1.188.786-1.885.786h-.004c-.284,0-.568-.047-.844-.139l-2.138-.909c-1.758-.746-2.975-2.332-3.276-4.175-.369-.156-.719-.338-1.051-.547.13,2.474,1.636,4.666,3.937,5.642l2.175.922c.414.14.805.204,1.195.205h.006c.96,0,1.904-.393,2.591-1.079.691-.689,1.071-1.609,1.071-2.59,0-1.438-.164-2.876-.487-4.276Z"/></svg>
