<?xml version="1.0" encoding="UTF-8"?>
<svg xmlns="http://www.w3.org/2000/svg" id="Layer_1" data-name="Layer 1" viewBox="0 0 24 24">
  <path d="m11,11.168c-.301-.274-.633-.51-.997-.692.014-1.367,1.128-2.475,2.497-2.475h6c1.093,0,2.015.71,2.354,1.69-.534-.23-1.097-.407-1.681-.523-.203-.103-.43-.166-.672-.166h-6c-.827,0-1.5.673-1.5,1.5v.668Zm-3,.832H2.5c-1.378,0-2.5,1.122-2.5,2.5v3.5h1v-3.5c0-.827.673-1.5,1.5-1.5h5.5c.827,0,1.5.673,1.5,1.5v.15c.174-.488.389-.955.645-1.397-.431-.745-1.224-1.253-2.145-1.253Zm16,5.5c0,3.584-2.916,6.5-6.5,6.5s-6.5-2.916-6.5-6.5,2.916-6.5,6.5-6.5,6.5,2.916,6.5,6.5Zm-1,0c0-3.032-2.468-5.5-5.5-5.5s-5.5,2.468-5.5,5.5,2.468,5.5,5.5,5.5,5.5-2.468,5.5-5.5Zm-6.021,1.452c-.083.082-.142.092-.24-.007l-1.856-1.8-.695.719,1.85,1.793c.221.222.514.343.825.343s.605-.121.822-.339l3.456-3.399-.701-.713-3.46,3.403ZM2.5,7c0-1.654,1.346-3,3-3s3,1.346,3,3-1.346,3-3,3-3-1.346-3-3Zm1,0c0,1.103.897,2,2,2s2-.897,2-2-.897-2-2-2-2,.897-2,2ZM12.5,3c0-1.654,1.346-3,3-3s3,1.346,3,3-1.346,3-3,3-3-1.346-3-3Zm1,0c0,1.103.897,2,2,2s2-.897,2-2-.897-2-2-2-2,.897-2,2Z"/>
</svg>
