<?xml version="1.0" encoding="UTF-8"?>
<svg xmlns="http://www.w3.org/2000/svg" id="Layer_1" data-name="Layer 1" viewBox="0 0 24 24" width="512" height="512"><path d="m17.907.563l-.414-.234-4.332,6.812.517.24c1.41.656,2.321,2.076,2.322,3.617v.5l8,.002v-.5c0-4.307-2.335-8.306-6.093-10.437Zm-.933,9.935c-.159-1.545-1.044-2.941-2.375-3.756l3.222-5.066c3.064,1.917,5.002,5.227,5.167,8.824l-6.014-.002Zm-2.668,3.761c-1.365.968-3.24.971-4.611,0l-.449-.317-.883,1.538c-1.068,1.859-2.153,3.747-2.871,5.024l-.234.416.404.253c1.908,1.194,4.101,1.826,6.338,1.826s4.43-.631,6.339-1.825l.407-.255-3.99-6.981-.449.32Zm-7.704,6.312c.707-1.249,1.674-2.932,2.628-4.592l.351-.61c1.484.83,3.355.83,4.84,0l2.975,5.206c-3.301,1.869-7.494,1.869-10.793-.003Zm1.397-9.572c0-1.551.881-2.932,2.297-3.603l.51-.242L6.509.327l-.416.236C2.335,2.694,0,6.693,0,11v.5l8-.002v-.5Zm-6.988-.498c.165-3.597,2.102-6.906,5.165-8.823l3.2,5.083c-1.317.816-2.192,2.207-2.351,3.738l-6.015.002Zm8.988.5c0,1.103.897,2,2,2s2-.897,2-2-.897-2-2-2-2,.897-2,2Zm2-1c.552,0,1,.448,1,1s-.448,1-1,1-1-.448-1-1,.448-1,1-1Z"/></svg>
