<?xml version="1.0" encoding="UTF-8"?>
<svg xmlns="http://www.w3.org/2000/svg" id="Layer_1" data-name="Layer 1" viewBox="0 0 24 24">
  <path d="m23.984,3.723c-.103-1.18-.726-2.253-1.71-2.943-1.34-.939-3.209-.939-4.549,0-1.569,1.101-2.15,3.093-1.413,4.844.255.608.137,1.278-.302,1.708l-1.98,1.939-1.457-1.457c-1.085-1.084-2.848-1.082-3.929,0l-.805.806c-.666.666-.922,1.588-.77,2.452-.86-.154-1.785.103-2.452.77l-.806.806c-.524.524-.813,1.222-.813,1.964s.289,1.439.813,1.964l1.453,1.453L.031,23.262l.707.707,5.235-5.235,1.453,1.453c.542.542,1.253.812,1.964.812s1.424-.271,1.965-.812l.805-.806c.524-.524.813-1.222.813-1.964,0-.165-.014-.328-.042-.487.858.151,1.784-.104,2.45-.77l.806-.805c1.083-1.083,1.083-2.846,0-3.929l-1.448-1.448,1.972-1.931c.733-.718.939-1.821.524-2.809-.553-1.314-.115-2.81,1.065-3.638,1.002-.702,2.4-.702,3.4,0,.753.528,1.21,1.313,1.288,2.211.077.887-.238,1.756-.867,2.385l.707.707c.838-.838,1.26-1.997,1.156-3.179Zm-12.532,14.951l-.805.806c-.692.692-1.82.694-2.515,0l-3.612-3.612c-.336-.336-.521-.782-.521-1.257s.185-.921.521-1.257l.806-.806c.347-.347.802-.52,1.257-.52.452,0,.902.17,1.248.51l3.622,3.622h0c.336.336.521.782.521,1.258s-.185.921-.521,1.257Zm4.027-4.026l-.806.805c-.69.691-1.811.692-2.505.009l-3.621-3.621h0c-.693-.694-.693-1.821,0-2.514l.805-.806c.693-.692,1.821-.693,2.515,0l3.612,3.612c.693.693.693,1.821,0,2.515Z"/>
</svg>
