<?xml version="1.0" encoding="UTF-8"?>
<svg xmlns="http://www.w3.org/2000/svg" id="Layer_1" data-name="Layer 1" viewBox="0 0 24 24">
  <path d="m23.626,19.581l-2.395-2.582-.732.68,2.153,2.322h-2.652c-1.246,0-2.354-2.229-3.331-4.195-1.015-2.042-1.891-3.805-3.169-3.805s-2.154,1.763-3.169,3.805c-.978,1.966-2.085,4.195-3.331,4.195h-1.608c.801-1.228,1.523-3.554,2.488-6.812.966-3.26,2.425-8.188,3.62-8.188.846,0,1.824,2.47,2.666,5.069.44.085.839.252,1.202.485-1.285-4.123-2.331-6.554-3.868-6.554-1.811,0-2.938,3.364-4.579,8.904-.786,2.654-2.102,7.096-2.921,7.096V1.348l2.321,2.154.68-.733L4.434.387c-.249-.25-.581-.387-.934-.387h0c-.353,0-.684.138-.918.374L0,2.768l.68.733L3,1.349v19.651h19.652l-2.153,2.322.732.68,2.382-2.568c.249-.25.387-.581.387-.934s-.138-.684-.374-.919Zm-12.399-3.331c.72-1.448,1.615-3.25,2.273-3.25s1.554,1.802,2.273,3.25c.698,1.406,1.414,2.831,2.278,3.75h-9.103c.864-.919,1.58-2.344,2.278-3.75Z"/>
</svg>
