<?xml version="1.0" encoding="UTF-8"?>
<svg xmlns="http://www.w3.org/2000/svg" id="Layer_1" data-name="Layer 1" viewBox="0 0 24 24" width="512" height="512"><path d="m21.5,0H2.5C1.122,0,0,1.121,0,2.5v17.5h7.106l3.897,3.283c.286.254.645.38,1.001.38.353,0,.703-.123.979-.368l3.985-3.295h7.032V2.5c0-1.379-1.122-2.5-2.5-2.5Zm1.5,19h-6.391l-4.276,3.535c-.19.171-.476.169-.675-.009l-4.187-3.526H1V2.5c0-.827.673-1.5,1.5-1.5h19c.827,0,1.5.673,1.5,1.5v16.5ZM14.5,4h-3c-1.378,0-2.5,1.121-2.5,2.5v5.001c-.418-.315-.938-.501-1.5-.501-1.378,0-2.5,1.121-2.5,2.5s1.122,2.5,2.5,2.5,2.5-1.121,2.5-2.5v-7c0-.827.673-1.5,1.5-1.5h3c.827,0,1.5.673,1.5,1.5v5.001c-.418-.315-.938-.501-1.5-.501-1.378,0-2.5,1.121-2.5,2.5s1.122,2.5,2.5,2.5,2.5-1.121,2.5-2.5v-7c0-1.379-1.122-2.5-2.5-2.5Zm-7,11c-.827,0-1.5-.673-1.5-1.5s.673-1.5,1.5-1.5,1.5.673,1.5,1.5-.673,1.5-1.5,1.5Zm7,0c-.827,0-1.5-.673-1.5-1.5s.673-1.5,1.5-1.5,1.5.673,1.5,1.5-.673,1.5-1.5,1.5Z"/></svg>
