<?xml version="1.0" encoding="UTF-8"?>
<svg xmlns="http://www.w3.org/2000/svg" id="Layer_1" data-name="Layer 1" viewBox="0 0 24 24">
  <path d="m21.987,10.756c-.107-1.435-.661-2.915-1.577-4.259.036.001.072.003.108.003.807,0,1.564-.313,2.134-.884,1.13-1.129,1.955-3.788.738-5.006-1.22-1.217-3.876-.391-5.006.738-.616.616-.909,1.435-.88,2.244-1.337-.909-2.808-1.457-4.252-1.57-.471-.526-2.047-2.023-4.752-2.023h-2.531v1h2.531c1.553,0,2.658.573,3.328,1.073-1.571.222-3.073.94-4.288,2.154-1.456,1.455-2.929,4.118-3.777,6.781-1.425.09-3.763,1-3.763,3.992h1c0-2.223,1.586-2.8,2.463-2.949-.691,2.697-.607,4.941.225,6.494-.739,1.382-1.188,2.955-1.188,2.955,0,0,1.573-.45,2.954-1.188.855.458,1.92.69,3.155.69,1.007,0,2.128-.155,3.339-.465-.149.877-.725,2.463-2.949,2.463v1c2.992,0,3.902-2.339,3.992-3.763,2.664-.848,5.326-2.321,6.781-3.777,1.211-1.211,1.959-2.693,2.17-4.265.496.672,1.056,1.77,1.056,3.305v2.531h1v-2.531c0-2.69-1.479-4.263-2.013-4.744Zm-2.896-8.701c.61-.61,1.74-1.052,2.615-1.052.406,0,.758.095.977.313.688.689.155,2.698-.738,3.592-.762.762-2.092.762-2.854,0-.787-.787-.787-2.066,0-2.854Zm1.658,7.444h-5.129l-1.12-1.12V3.259c1.374.389,2.729,1.202,3.884,2.357s1.976,2.516,2.365,3.884Zm-10.369-.12l2.923-.783,2.14,2.14-.783,2.923-2.923.783-2.14-2.14.783-2.923Zm1.62,10.109v-4.082l2.918-.782,2.461,2.461c-1.496.978-3.427,1.858-5.316,2.385-.021.006-.042.011-.063.017Zm-3.753-14.555c1.248-1.248,2.828-1.934,4.453-1.934h.028c.255.001.513.019.771.053v4.456l-3.773,1.011-2.441-2.441c.316-.437.64-.823.961-1.145Zm-1.528,1.992l2.589,2.589-.666,2.485h-4.131c.006-.021.011-.042.017-.063.492-1.762,1.291-3.562,2.191-5.011Zm-1.574,11.93c-1.118-1.118-1.423-3.219-.875-5.855h4.61l2.12,2.12v4.611c-2.637.548-4.738.244-5.855-.875Zm13.922-3.103c-.249.249-.539.5-.859.747l-2.582-2.582.916-3.418h4.415c.022.174.037.348.044.521.073,1.732-.614,3.413-1.934,4.732Z"/>
</svg>
