<?xml version="1.0" encoding="UTF-8"?>
<svg xmlns="http://www.w3.org/2000/svg" id="Layer_1" data-name="Layer 1" viewBox="0 0 24 24" width="512" height="512"><path d="m15.5,4.968c1.379,0,2.5-1.122,2.5-2.5S16.879-.032,15.5-.032s-2.5,1.122-2.5,2.5,1.121,2.5,2.5,2.5Zm0-4c.827,0,1.5.673,1.5,1.5s-.673,1.5-1.5,1.5-1.5-.673-1.5-1.5.673-1.5,1.5-1.5Zm-4.924,15.543l3.391-8.035c-.376-.625-.9-1.062-1.531-1.296-.425-.19-.799-.226-1.184-.123-.492.132-.903.47-1.127.927l-2.825,6.778c-.391.798-.411,1.451.654,2.319l8.045,5.827v1.083l-13,.009v-1s11.411-.008,11.411-.008l-7.066-5.118c-1.315-1.072-1.612-2.186-.955-3.524l2.825-6.778c.363-.744,1.006-1.273,1.777-1.48.607-.163,1.223-.109,1.824.165.915.337,1.684,1.029,2.132,1.936l2.329,3.135,4.704-3.136.555.832-5.496,3.664-2.397-3.239-3.235,7.665-.831-.602Z"/></svg>
