<?xml version="1.0" encoding="UTF-8"?>
<svg xmlns="http://www.w3.org/2000/svg" id="Layer_1" data-name="Layer 1" width="512" height="512" viewBox="0 0 24 24"><path d="M21,3c0,.552-.448,1-1,1s-1-.448-1-1,.448-1,1-1,1,.448,1,1Zm-5,2c-.552,0-1,.448-1,1s.448,1,1,1,1-.448,1-1-.448-1-1-1Zm6,3c-.552,0-1,.448-1,1s.448,1,1,1,1-.448,1-1-.448-1-1-1ZM4.255,16.591c-1.984-1.611-3.255-4.065-3.255-6.814C1,4.938,4.937,1,9.777,1c1.194,0,2.346,.238,3.434,.709-1.996,1.38-3.869,4.036-4.154,7.026,.352-.3,.732-.565,1.137-.794,.574-2.591,2.446-4.892,4.285-5.83l.835-.427-.82-.456c-1.447-.804-3.078-1.229-4.717-1.229C4.386,0,0,4.386,0,9.777c0,3.245,1.595,6.117,4.036,7.897,.037-.372,.113-.733,.219-1.083Zm19.745,.409c0-2.757-2.243-5-5-5-.172,0-.348,.011-.529,.031-.858-1.854-2.67-3.031-4.721-3.031-2.895,0-5.25,2.355-5.25,5.25,0,.159,.011,.313,.025,.457-1.488,.515-2.525,1.937-2.525,3.543,0,2.067,1.683,3.75,3.75,3.75h.712v-1h-.712c-1.517,0-2.75-1.233-2.75-2.75,0-1.295,.919-2.426,2.186-2.69l.474-.099-.084-.477c-.035-.201-.075-.466-.075-.734,0-2.344,1.906-4.25,4.25-4.25,1.766,0,3.313,1.084,3.942,2.761l.147,.394,.414-.078c.27-.051,.514-.076,.746-.076,2.206,0,4,1.794,4,4s-1.794,4-4,4v1c2.757,0,5-2.243,5-5Zm-7.185,3.714c.225-.34,.245-.774,.052-1.133-.192-.358-.564-.581-.972-.581h-2.78c-.048,0-.076-.025-.092-.047-.012-.015-.022-.036-.023-.063l2.007-3.371-.859-.512-2.1,3.556c-.104,.341-.04,.701,.172,.987,.213,.286,.539,.45,.896,.45h2.78c.041,0,.071,.019,.091,.055s.018,.072-.021,.134l-1.898,3.31,.867,.498,1.882-3.282Zm-4.175,1.251c-.693-.105-1.314-.449-1.793-.965h-.847c-.276,0-.5,.224-.5,.5s.224,.5,.5,.5h2.62l.02-.035Zm6.359-.965h-.133c-.079,.26-.192,.513-.341,.75l-.143,.25h.617c.276,0,.5-.224,.5-.5s-.224-.5-.5-.5Z"/></svg>
