<?xml version="1.0" encoding="UTF-8"?>
<svg xmlns="http://www.w3.org/2000/svg" id="Layer_1" data-name="Layer 1" viewBox="0 0 24 24" width="512" height="512"><path d="M24,2.5v14.5h-1V2.5c0-.83-.67-1.5-1.5-1.5H2.5c-.83,0-1.5,.67-1.5,1.5V23H17v1H0V2.5C0,1.12,1.12,0,2.5,0H21.5c1.38,0,2.5,1.12,2.5,2.5ZM11,12c0,.55,.45,1,1,1s1-.45,1-1-.45-1-1-1-1,.45-1,1Zm8,0c0,.34-.03,.67-.08,1h1.01c.04-.33,.07-.66,.07-1,0-4.41-3.59-8-8-8S4,7.59,4,12s3.59,8,8,8c.34,0,.67-.03,1-.07v-1.01c-.33,.05-.66,.08-1,.08-3.86,0-7-3.14-7-7s3.14-7,7-7,7,3.14,7,7Zm1,3h-1v4h-4v1h4v4h1v-4h4v-1h-4v-4Z"/></svg>
