<?xml version="1.0" encoding="UTF-8"?>
<svg xmlns="http://www.w3.org/2000/svg" id="Layer_1" data-name="Layer 1" viewBox="0 0 24 24">
  <path d="m23.99,19.048c-.039-.357-.2-.694-.454-.951l-3.564-3.564c-.012-.146-.035-.291-.067-.435-.12-.527.122-1.088.601-1.397.448-.29.813-.684,1.083-1.172.255-.46.388-.99.386-1.528.002-.542-.131-1.072-.386-1.532h0c-.271-.488-.635-.882-1.084-1.172-.479-.309-.72-.87-.601-1.396.122-.532.104-1.081-.054-1.63-.296-1.03-1.119-1.852-2.147-2.146-.547-.157-1.095-.176-1.628-.055-.523.121-1.087-.121-1.396-.6-.29-.448-.684-.812-1.171-1.083-.937-.519-2.1-.519-3.037,0-.488.271-.882.636-1.171,1.084-.309.479-.872.721-1.396.6-.533-.121-1.081-.102-1.628.055-1.029.295-1.852,1.117-2.147,2.147-.157.548-.176,1.096-.055,1.629.12.526-.121,1.087-.6,1.396-.449.29-.814.685-1.083,1.171-.255.46-.388.99-.386,1.529-.002.543.131,1.073.386,1.532.27.487.634.882,1.084,1.172.479.309.72.87.6,1.396-.034.15-.056.301-.068.453l-3.542,3.548c-.253.255-.414.592-.453.949-.096.873.536,1.661,1.409,1.758l1.598.177.176,1.583c.035.363.198.706.458.966.168.168.376.299.596.375.175.062.356.093.536.093.417,0,.826-.164,1.122-.467l4.171-4.177c.124.093.256.178.396.256.468.259.993.389,1.518.389s1.05-.13,1.519-.39c.143-.08.279-.168.406-.263l4.18,4.18c.299.307.709.472,1.127.472.178,0,.357-.03.53-.092.224-.078.432-.208.601-.377.259-.26.422-.603.457-.959l.176-1.59,1.598-.177c.873-.097,1.504-.885,1.409-1.757Zm-18.799,3.782c-.155.16-.395.211-.613.134-.083-.029-.159-.077-.221-.139-.097-.097-.157-.224-.17-.364l-.265-2.385-2.393-.266c-.325-.036-.561-.33-.525-.655.015-.133.074-.259.167-.352l2.983-2.988c.316.988,1.12,1.771,2.12,2.057.548.157,1.097.176,1.628.055.525-.118,1.087.122,1.396.6.025.038.05.075.076.112l-4.184,4.19Zm7.831-4.093c-.628.349-1.44.349-2.067,0-.343-.189-.617-.442-.816-.751-.442-.686-1.192-1.088-1.967-1.088-.164,0-.328.018-.491.055-.366.083-.747.07-1.131-.041-.69-.197-1.263-.771-1.461-1.46-.11-.385-.124-.766-.041-1.132.212-.935-.203-1.922-1.033-2.458-.31-.2-.562-.475-.751-.817-.172-.31-.262-.671-.261-1.047-.001-.373.088-.733.261-1.044.189-.342.442-.616.751-.816.831-.536,1.246-1.523,1.033-2.458-.083-.366-.069-.747.041-1.132.198-.69.771-1.263,1.461-1.461.385-.109.766-.124,1.131-.041.934.213,1.923-.202,2.458-1.033.199-.309.473-.562.815-.751.628-.349,1.439-.348,2.067,0,.342.19.617.443.816.751.535.831,1.522,1.243,2.458,1.033.366-.083.747-.069,1.131.041.69.197,1.264.771,1.462,1.46.11.385.124.766.04,1.132-.212.935.204,1.922,1.033,2.458.309.2.562.474.751.817.172.311.262.672.261,1.047.001.372-.088.733-.261,1.043-.189.343-.442.617-.751.817-.83.535-1.246,1.523-1.033,2.458.083.366.07.747-.041,1.131-.198.69-.772,1.264-1.462,1.461-.384.11-.765.123-1.131.041-.936-.21-1.923.203-2.458,1.033-.2.309-.474.562-.816.751Zm9.449,1.074l-2.393.266-.266,2.391c-.013.134-.073.261-.169.357-.062.062-.139.11-.226.141-.215.075-.454.022-.613-.14l-4.195-4.195c.024-.034.047-.068.069-.102.31-.478.874-.719,1.396-.6.532.12,1.08.103,1.628-.055,1.004-.287,1.811-1.077,2.125-2.072l3,3c.094.095.154.221.168.354.036.325-.2.618-.525.654Zm-6.482-9.823c0-2.206-1.794-4-4-4s-4,1.794-4,4,1.794,4,4,4,4-1.794,4-4Zm-4,3c-1.654,0-3-1.346-3-3s1.346-3,3-3,3,1.346,3,3-1.346,3-3,3Z"/>
</svg>
