<?xml version="1.0" encoding="UTF-8"?>
<svg xmlns="http://www.w3.org/2000/svg" id="Layer_1" data-name="Layer 1" viewBox="0 0 24 24">
  <path d="m.412,15.107C.147,14.117-.007,13.083-.007,12.012-.007,5.395,5.376.012,11.993.012c1.072,0,2.106.155,3.095.419l-.814.814c-3.516-.741-7.324.247-10.054,2.978S.5,10.761,1.241,14.278l-.829.829Zm22.343-5.373c.737,3.514-.252,7.317-2.98,10.045-2.728,2.728-6.531,3.717-10.045,2.98l-.833.833c.989.265,2.023.419,3.095.419,6.617,0,12-5.383,12-12,0-1.072-.155-2.106-.419-3.096l-.818.818Zm-13.254,2.61l2.118,2.118c.973.973.973,2.556,0,3.529-.973.973-2.556.973-3.529,0l-2.118-2.118c-.973-.973-.973-2.556,0-3.529.973-.973,2.556-.973,3.529,0Zm1.411,2.825l-2.118-2.118c-.583-.583-1.532-.583-2.115,0s-.583,1.532,0,2.115l2.118,2.118c.583.583,1.532.583,2.115,0,.583-.583.583-1.532,0-2.115Zm4.974-1.4l-2.475-2.475,1.768-1.768-.707-.707-1.768,1.768-1.768-1.768,1.768-1.768-.707-.707-2.475,2.475,5.657,5.657.707-.707Zm8.132-8.132l-.707-.707-1.768,1.768-1.768-1.768,1.768-1.768-.707-.707-1.768,1.768-1.768-1.768,1.768-1.768-.707-.707-2.475,2.475,5.657,5.657,2.475-2.475Zm-5.657,5.657l2.475-2.475-.707-.707-1.768,1.768-1.768-1.768,1.768-1.768-.707-.707-1.768,1.768-1.768-1.768,1.768-1.768-.707-.707-2.475,2.475,5.657,5.657Zm-9.192,9.192l-5.657-5.657-.707.707,3.972,3.972-6.242-1.702-.559.559,5.657,5.657.707-.707-3.972-3.972,6.242,1.702.559-.559Z"/>
</svg>
