<?xml version="1.0" encoding="UTF-8"?>
<svg xmlns="http://www.w3.org/2000/svg" id="Layer_1" data-name="Layer 1" viewBox="0 0 24 24">
  <path d="m10.499,11.997h-1v-7h1v7Zm-.5,1c-.552,0-1,.448-1,1s.448,1,1,1,1-.448,1-1-.448-1-1-1Zm12.898,10.605l-3.604-3.605c-.77.616-1.733,1-2.793,1-2.481,0-4.5-2.019-4.5-4.5s2.019-4.5,4.5-4.5,4.5,2.019,4.5,4.5c0,1.06-.384,2.023-1,2.793l3.604,3.605-.707.707Zm-2.897-7.105c0-1.93-1.57-3.5-3.5-3.5s-3.5,1.57-3.5,3.5,1.57,3.5,3.5,3.5,3.5-1.57,3.5-3.5Zm-3.5-6.5c.299,0,.592.027.881.067L12.317,1.343c-.484-.832-1.35-1.334-2.323-1.343-.964.009-1.829.511-2.314,1.344L.372,13.934c-.493.846-.496,1.858-.008,2.708.489.849,1.365,1.355,2.344,1.355h7.472c-.077-.325-.13-.658-.156-1H2.708c-.616,0-1.169-.319-1.477-.854-.308-.535-.306-1.173.005-1.707L8.544,1.846c.306-.524.852-.84,1.45-.846.608.006,1.154.322,1.459.846l4.741,8.167c.102-.005.202-.015.305-.015Z"/>
</svg>
