<?xml version="1.0" encoding="UTF-8"?>
<svg xmlns="http://www.w3.org/2000/svg" id="Layer_1" data-name="Layer 1" viewBox="0 0 24 24">
  <path d="m21.446,2.554C18.49-.402,14.127-.851,11.723,1.552c-.876.877-1.403,2.04-1.521,3.364-.099,1.105-.775,2.179-1.854,2.946-1.895,1.346-2.744,3.698-2.164,5.994.201.796.587,1.528,1.105,2.148L.012,23.281l.707.707,7.278-7.278c.62.518,1.353.904,2.149,1.105.479.122.961.181,1.436.181,1.797,0,3.492-.845,4.557-2.344.767-1.079,1.84-1.755,2.946-1.854,1.325-.12,2.488-.646,3.364-1.522,2.404-2.405,1.955-6.767-1.002-9.723Zm.295,9.016c-.708.708-1.658,1.134-2.746,1.233-1.397.125-2.735.953-3.672,2.271-1.121,1.58-3.012,2.259-4.932,1.773-1.569-.397-2.84-1.668-3.237-3.237-.486-1.92.193-3.811,1.773-4.932,1.318-.937,2.146-2.274,2.271-3.671.098-1.088.524-2.038,1.232-2.747.849-.849,2.001-1.26,3.243-1.26,1.706,0,3.58.776,5.065,2.262,2.567,2.566,3.016,6.293,1.002,8.309Z"/>
</svg>
