<?xml version="1.0" encoding="UTF-8"?>
<svg xmlns="http://www.w3.org/2000/svg" id="Layer_1" data-name="Layer 1" viewBox="0 0 24 24">
  <path d="m19.549,5.158l1.554-1.554-.707-.707-1.553,1.553C15.67,1.486,11.184-.015,5.5-.015h-.5v1.93l.408.076c3.385.635,7.411,2.786,10.375,5.519L.127,23.166l.707.707,15.655-15.655c2.738,2.974,4.885,6.994,5.519,10.374l.077.414,1.914-.027v-.493c0-5.666-1.492-10.141-4.451-13.328Zm3.358,12.836c-.789-3.614-3.129-7.823-6.06-10.854C13.827,4.22,9.615,1.879,6,1.091v-.102c5.326.087,9.571,1.65,12.495,4.515,2.901,2.907,4.415,7.107,4.501,12.489h-.089Z"/>
</svg>
