<?xml version="1.0" encoding="UTF-8"?>
<svg xmlns="http://www.w3.org/2000/svg" id="Layer_1" data-name="Layer 1" viewBox="0 0 24 24">
  <path d="m9,12c3.309,0,6-2.691,6-6S12.309,0,9,0,3,2.691,3,6s2.691,6,6,6Zm0-11c2.757,0,5,2.243,5,5s-2.243,5-5,5-5-2.243-5-5S6.243,1,9,1Zm-4.5,13h6.056c-.181.31-.322.644-.414,1h-5.642c-1.93,0-3.5,1.57-3.5,3.5v5.5H0v-5.5c0-2.481,2.019-4.5,4.5-4.5Zm17.852.536l-4.352-.484v-2.052h-1v1.941l-4.332-.481-1.668,4.54c0,1.103.897,2,2,2s2-.897,2-2l-1.246-3.413,3.246.361v8.053h-3v1h7v-1h-3v-7.941l3.306.367-1.306,3.574c0,1.103.897,2,2,2s2-.897,2-2c0-.103-1.648-4.464-1.648-4.464Zm-8.386,3.464h-1.932l.966-2.576.966,2.576Zm8.048-1.614c.51,1.291.949,2.449.986,2.614h-1.966l.98-2.614Z"/>
</svg>
