<?xml version="1.0" encoding="UTF-8"?>
<svg xmlns="http://www.w3.org/2000/svg" id="Layer_1" data-name="Layer 1" viewBox="0 0 24 24">
  <path d="m21,9h-6v1h5v9h-4.707l-1,1h-4.586l-1-1h-4.707v-9h5v-1H3v10H1v2.5c0,1.379,1.122,2.5,2.5,2.5h17c1.378,0,2.5-1.121,2.5-2.5v-2.5h-2v-10Zm1,12.5c0,.827-.673,1.5-1.5,1.5H3.5c-.827,0-1.5-.673-1.5-1.5v-1.5h6.293l1,1h5.414l1-1h6.293v1.5Zm-10.5-5.844V7h1v8.655l2.646-2.646.707.707-2.881,2.882c-.268.268-.62.401-.972.401s-.704-.134-.972-.4l-2.882-2.883.707-.707,2.646,2.647Zm4.5-9.656h-1v-2h1v2Zm-3.5-3h-1V1h1v2Zm6.5-1h-1V0h1v2Zm-13,0h-1V0h1v2Zm3,4h-1v-2h1v2Zm-6.525,1L0,0h1.025l2.475,7h-1.025Zm19.051,0h-1.025l2.475-7h1.025l-2.475,7Z"/>
</svg>
