<?xml version="1.0" encoding="UTF-8"?>
<svg xmlns="http://www.w3.org/2000/svg" id="Layer_1" data-name="Layer 1" viewBox="0 0 24 24" width="512" height="512"><path d="M18,9C18,4.038,13.962,0,9,0S0,4.038,0,9v9H9c4.962,0,9-4.037,9-9Zm-9,8H1V9C1,4.589,4.589,1,9,1s8,3.589,8,8-3.589,8-8,8Zm15-1v8h-8c-2.955,0-5.535-1.615-6.92-4.004,.382-.003,.759-.025,1.131-.066,1.261,1.851,3.385,3.07,5.789,3.07h7v-7c0-2.404-1.219-4.528-3.07-5.789,.041-.372,.064-.749,.066-1.131,2.389,1.385,4.004,3.965,4.004,6.92ZM13,6.5v.5h-1v-.5c0-.827-.673-1.5-1.5-1.5h-3c-.827,0-1.5,.673-1.5,1.5,0,.876,.627,1.612,1.493,1.751l3.173,.51c1.353,.217,2.334,1.369,2.334,2.739,0,1.378-1.122,2.5-2.5,2.5h-1v2h-1v-2h-1c-1.378,0-2.5-1.122-2.5-2.5v-.5h1v.5c0,.827,.673,1.5,1.5,1.5h3c.827,0,1.5-.673,1.5-1.5,0-.876-.627-1.612-1.493-1.751l-3.173-.51c-1.353-.217-2.334-1.369-2.334-2.739,0-1.378,1.122-2.5,2.5-2.5h1V2h1v2h1c1.378,0,2.5,1.122,2.5,2.5Z"/></svg>
