<?xml version="1.0" encoding="UTF-8"?>
<svg xmlns="http://www.w3.org/2000/svg" id="Layer_1" data-name="Layer 1" viewBox="0 0 24 24">
  <path d="m5,20c0,.552-.448,1-1,1s-1-.448-1-1,.448-1,1-1,1,.448,1,1ZM24,7.357c0,.998-.6,1.643-1.526,1.643h-6.767l2.146,2.146-.707.707-2.146-2.146-1.793,1.793,2.896,2.896-.707.707-2.896-2.896-1.934,1.934,3.647,3.646-.707.707-3.647-3.646-1.55,1.55c1.41,1.53,2.433,3.42,2.909,5.51l.093.408-.384.163c-2.439,1.037-5.752,1.521-10.426,1.521h-.5v-.5c0-4.675.483-7.987,1.521-10.426l.164-.385.407.093c2.091.476,3.981,1.499,5.51,2.909l1.55-1.55-3.647-3.647.707-.707,3.647,3.647,1.934-1.934-2.896-2.896.707-.707,2.896,2.896,1.793-1.793-2.146-2.146.707-.707,2.146,2.146V1.526c0-.927.645-1.526,1.643-1.526,1.487,0,3.646,1.101,3.903,3.454,2.354.258,3.454,2.416,3.454,3.903Zm-13.859,14.361c-1.024-3.812-4.047-6.835-7.859-7.859-.838,2.186-1.248,5.115-1.279,9.139,4.023-.031,6.953-.44,9.139-1.279Zm12.859-14.361c0-.918-.737-2.929-2.929-2.929h-.5v-.5c0-2.191-2.011-2.929-2.929-2.929-.643,0-.643.355-.643.526v6.474h6.474c.171,0,.526,0,.526-.643Z"/>
</svg>
