<?xml version="1.0" encoding="UTF-8"?>
<svg xmlns="http://www.w3.org/2000/svg" id="Layer_1" data-name="Layer 1" viewBox="0 0 24 24">
  <path d="m.072,13l1.921,4.018c1.63,2.72,3.339,3,5.755,3,.302,0,.615-.004.94-.009.371-.005.762-.011,1.176-.011h1.635v3.002h-4.5v1h10v-1h-4.5v-3.002h1.75c.414,0,.806.006,1.176.011,2.924.045,4.862.068,6.719-3.032l1.898-3.977H.072Zm21.192,3.504c-1.538,2.564-2.969,2.546-5.825,2.505-.375-.005-.771-.011-1.189-.011h-4.385c-.419,0-.815.006-1.189.011-2.856.045-4.286.061-5.802-2.464l-1.215-2.545h20.8l-1.193,2.504ZM6.25,6c2.809,0,5.091,2.224,5.225,5h1.051c.134-2.776,2.416-5,5.225-5s5.091,2.224,5.225,5h1.013c-.13-3.275-2.785-5.911-6.071-5.998-.477-2.835-2.948-5.002-5.917-5.002s-5.44,2.167-5.917,5.002C2.798,5.089.143,7.725.013,11h1.013c.134-2.776,2.415-5,5.225-5ZM12,1c2.434,0,4.468,1.749,4.91,4.056-2.213.299-4.061,1.76-4.91,3.747-.849-1.987-2.698-3.448-4.91-3.747.443-2.307,2.476-4.056,4.91-4.056Z"/>
</svg>
