<?xml version="1.0" encoding="UTF-8"?>
<svg xmlns="http://www.w3.org/2000/svg" id="Layer_1" data-name="Layer 1" viewBox="0 0 24 24">
  <path d="m15.396,3.896l-.707-.707,2.75-2.75c.584-.585,1.537-.585,2.121,0l2.752,2.752-.707.707-2.605-2.605v6.454c-.308.204-.592.448-.847.728l-.153.169V1.293l-2.604,2.604Zm-11.396,3.41c0-1.692,1.775-3.743,3.362-4.503-.632-.53-1.362-1.349-1.362-2.303v-.5h5v.5c0,.954-.73,1.772-1.362,2.303,1.586.76,3.362,2.811,3.362,4.503,0,1.485-1.122,2.694-2.5,2.694h-4c-1.378,0-2.5-1.208-2.5-2.694Zm4.5-4.899c.433-.296,1.094-.838,1.371-1.407h-2.742c.277.569.938,1.111,1.371,1.407Zm-3.5,4.899c0,.934.673,1.694,1.5,1.694h4c.827,0,1.5-.76,1.5-1.694,0-1.481-2.062-3.725-3.5-3.799-1.371.088-3.5,2.318-3.5,3.799Zm18.362,5.876l-9.638,10.817H2.5c-1.378,0-2.5-1.121-2.5-2.5v-7c0-1.379,1.122-2.5,2.5-2.5h10.857c1.208,0,2.229.814,2.543,1.923l3.732-4.102c.451-.496,1.069-.787,1.739-.818.668-.022,1.312.2,1.809.652,1.013.923,1.094,2.506.182,3.528Zm-.855-2.789c-.298-.272-.685-.412-1.088-.393-.403.019-.774.194-1.046.492l-4.496,4.941c-.301.945-1.124,1.678-2.146,1.823l-5.667.738-.129-.992,5.661-.737c.798-.113,1.403-.812,1.403-1.624,0-.905-.737-1.643-1.643-1.643H2.5c-.827,0-1.5.673-1.5,1.5v7c0,.827.673,1.5,1.5,1.5h10.775l9.341-10.483c.549-.615.5-1.567-.109-2.123Z"/>
</svg>
