<?xml version="1.0" encoding="UTF-8"?>
<svg xmlns="http://www.w3.org/2000/svg" id="Layer_1" data-name="Layer 1" viewBox="0 0 24 24">
  <path d="m19,10c0,.552-.448,1-1,1s-1-.448-1-1,.448-1,1-1,1,.448,1,1Zm5,0v5h-1.865c-1.054,1.996-2.934,3.404-5.135,3.85v2.15h-4v-2h-4v2h-4v-2.428c-2.962-1.048-5-3.904-5-7.072,0-1.37.369-2.654,1.013-3.761-.673-.937-1.013-2.191-1.013-3.739h1c0,1.159.21,2.11.626,2.842,1.375-1.731,3.497-2.842,5.874-2.842h6.122c.438-1.763,2.006-3.001,3.878-3.001h.5v3.429c2.477.875,4.326,3.002,4.85,5.572h1.15Zm-1,1h-1.005l-.062-.429c-.357-2.5-2.153-4.581-4.576-5.301l-.357-.106v-3.125c-1.284.208-2.289,1.208-2.471,2.529l-.06.432h-6.97c-3.584,0-6.5,2.916-6.5,6.5,0,2.855,1.909,5.417,4.643,6.23l.357.106v2.164h2v-2h6v2h2v-2.005l.43-.062c2.157-.309,4.006-1.672,4.945-3.648l.135-.285h1.49v-3Z"/>
</svg>
