<?xml version="1.0" encoding="UTF-8"?>
<svg xmlns="http://www.w3.org/2000/svg" id="Layer_1" data-name="Layer 1" viewBox="0 0 24 24">
  <path d="m12.627,9.309c.081-.879.546-1.365,1.06-1.304.514.061.882.647.802,1.526-.239,2.124-2.025,1.854-1.862-.222Zm-1.255,0c-.082-.879-.546-1.365-1.062-1.304-.516.061-.881.647-.8,1.526.239,2.125,2.025,1.852,1.862-.222Zm-3.56.696c-.514.061-.882.647-.802,1.526.239,2.124,2.024,1.852,1.862-.222-.081-.879-.546-1.365-1.06-1.304Zm7.687,5.378c0,1.013-.623,1.617-1.666,1.617h-.021c-.312-.014-.624-.068-.926-.162-.572-.181-1.199-.181-1.769,0-.802.264-1.55.203-2.047-.172-.39-.294-.591-.757-.568-1.304.002-1.718,1.703-3.362,3.5-3.362s3.499,1.644,3.499,3.383Zm-1,0c0-1.18-1.261-2.383-2.499-2.383s-2.499,1.203-2.5,2.383c-.014.344.126.45.172.484.222.169.659.176,1.137.019.386-.122.79-.183,1.192-.183s.801.06,1.182.18c.214.066.437.105.66.116.478-.002.655-.17.655-.617Zm9.5-8.12c0,5.765-7.95,12.959-12,15.833v-.028c-.118-.083-12-8.768-12-15.806C0,3.868,2.977,1,6.5,1c2.336,0,4.427,1.288,5.5,3.298,1.073-2.01,3.164-3.298,5.5-3.298,3.523,0,6.5,2.868,6.5,6.263Zm-1,0c0-2.853-2.519-5.263-5.5-5.263-2.284,0-4.291,1.468-4.992,3.653l-.111.347h-.729l-.176-.347c-.701-2.185-2.707-3.653-4.992-3.653C3.519,2,1,4.41,1,7.263c0,5.852,9.255,13.229,11.008,14.571,4.529-3.292,10.992-9.71,10.992-14.571Zm-6.929,2.742c-.514-.061-.98.425-1.06,1.304-.163,2.075,1.623,2.346,1.862.222.08-.878-.287-1.464-.801-1.526Z"/>
</svg>
