<?xml version="1.0" encoding="UTF-8"?>
<svg xmlns="http://www.w3.org/2000/svg" id="Layer_1" data-name="Layer 1" viewBox="0 0 24 24" width="512" height="512"><path d="M16,5.742V0H8V5.742C6.673,6.712,0,11.938,0,19c0,2.206,1.794,4,4,4,1.459,0,2.739-.786,3.437-1.956,.783,1.741,2.534,2.956,4.563,2.956s3.78-1.215,4.563-2.956c.699,1.171,1.978,1.956,3.437,1.956,2.206,0,4-1.794,4-4,0-7.062-6.673-12.288-8-13.258Zm-1-4.742V5.829c-.197,.268-.605,.891-1.099,2.017-.798-1.334-1.455-2.096-1.525-2.175l-.375-.428-.375,.428c-.07,.08-.727,.841-1.525,2.175-.494-1.126-.903-1.749-1.099-2.016V1h6ZM4,22c-1.654,0-3-1.346-3-3,0-6.198,5.8-11.076,7.387-12.294,.245,.388,.641,1.102,1.091,2.252-1.209,2.324-2.478,5.778-2.478,10.042,0,1.654-1.346,3-3,3Zm8,1c-2.206,0-4-1.794-4-4,0-6.245,2.94-10.766,4-12.192,1.062,1.425,4,5.935,4,12.192,0,2.206-1.794,4-4,4Zm8-1c-1.654,0-3-1.346-3-3,0-4.264-1.269-7.718-2.478-10.042,.451-1.15,.846-1.864,1.091-2.252,1.587,1.218,7.387,6.096,7.387,12.294,0,1.654-1.346,3-3,3Z"/></svg>
