<?xml version="1.0" encoding="UTF-8"?>
<svg xmlns="http://www.w3.org/2000/svg" id="Layer_1" data-name="Layer 1" viewBox="0 0 24 24" width="512" height="512"><path d="M23.02,14.08c-.39-1.98-1.19-3.68-2.37-5.05l.76-.65c1.3,1.51,2.18,3.36,2.6,5.51l-.98,.19Zm.02,2.91l.95,.32c-1.1,3.29-2.59,4.69-4.99,4.69-1.58,0-3-.97-4.14-2.3-1.3,1.34-2.97,2.3-4.94,2.3-1.66,0-3.28-1.08-4.71-2.69-1.45,1.62-3.2,2.69-5.2,2.69v-1c1.67,0,3.21-1,4.53-2.51C1.87,15.06,0,9.93,0,7,0,4.34,2.3,2,4.93,2s5.07,2.38,5.07,5c0,2.88-1.5,8.07-4.15,11.53,1.28,1.48,2.68,2.47,4.07,2.47,1.72,0,3.18-.88,4.33-2.1-1.41-1.99-2.25-4.47-2.25-5.9,0-1.57,1.43-3,3.01-3s2.99,1.43,2.99,3c0,1.47-.88,3.96-2.47,5.94,.98,1.19,2.17,2.06,3.47,2.06,1.62,0,2.93-.68,4.04-4.01ZM9,7c0-2.06-1.98-4-4.07-4S1,4.91,1,7c0,2.68,1.78,7.47,4.18,10.69,2.34-3.14,3.82-7.81,3.82-10.69Zm7.99,6c0-1.03-.97-2-1.99-2s-2.01,.97-2.01,2c0,1.19,.74,3.34,1.92,5.11,1.33-1.75,2.08-3.87,2.08-5.11Z"/></svg>
