<?xml version="1.0" encoding="UTF-8"?>
<svg xmlns="http://www.w3.org/2000/svg" id="Layer_1" data-name="Layer 1" width="512" height="512" viewBox="0 0 24 24"><path d="M16.83,15.062l.869,2.129,3.897-1.548-.869-2.129,1.973-.784-1.128-2.842c-.696-1.751-1.807-3.341-3.213-4.597L14.302,1.668c-.747-.667-1.79-.851-2.721-.482L2.158,4.929c-.931,.37-1.563,1.22-1.648,2.219L.045,12.567c-.161,1.878,.122,3.797,.817,5.549l1.128,2.841,1.983-.788,.869,2.129,3.896-1.548-.869-2.129,8.96-3.559Zm3.458,.025l-2.038,.81-.491-1.203,2.038-.81,.491,1.203ZM1.505,7.232c.053-.618,.444-1.145,1.021-1.374L11.95,2.115c.197-.079,.401-.117,.604-.117,.392,0,.777,.143,1.082,.416l4.057,3.624c.187,.167,.368,.34,.543,.52L3.689,12.336h-.004l-.004,.003-2.678,1.064c.004-.251,.017-.502,.038-.751l.464-5.419Zm.287,10.514c-.416-1.046-.671-2.156-.758-3.28l2.555-1.015,.625,1.574c.078,.196,.266,.315,.465,.315,.062,0,.124-.011,.185-.035,.257-.102,.382-.393,.28-.649l-.625-1.574,10.938-4.346,.631,1.588c.078,.196,.266,.315,.465,.315,.062,0,.124-.011,.185-.035,.257-.102,.382-.393,.28-.649l-.631-1.588,2.555-1.015c.708,.877,1.284,1.859,1.7,2.905l.759,1.912L2.551,19.658l-.759-1.912Zm5.64,2.448l-2.037,.81-.492-1.204,2.038-.809,.491,1.204Zm16.568,3.806h-1c0-2.206-1.794-4-4-4s-4,1.794-4,4h-1c0-2.757,2.243-5,5-5s5,2.243,5,5Z"/></svg>
