<?xml version="1.0" encoding="UTF-8"?>
<svg xmlns="http://www.w3.org/2000/svg" id="Layer_1" data-name="Layer 1" viewBox="0 0 24 24">
  <path d="m15.508,8.001h-1.008c-3.038,0-6.059,1.654-8.482,3.36.047-1.363.182-2.721.399-4.024l.425-1.478c2.428-.612,4.158-2.817,4.158-5.357V.002h-.5C7.675.002,6.169,1.306,5.495,2.138,4.813,1.308,3.296.002.5.002h-.5v.5c0,2.13,1.225,4.055,3.104,4.971l-.227.345C.995,8.681,0,12.006,0,15.432v3.055c0,3.033,2.468,5.5,5.5,5.5h14c2.481,0,4.5-2.019,4.5-4.5v-2.988c0-4.683-3.81-8.495-8.492-8.498Zm7.492,11.486c0,1.93-1.57,3.5-3.5,3.5H5.5c-2.481,0-4.5-2.019-4.5-4.5v-3.055c0-3.23.938-6.365,2.713-9.064l.909-1.382-.604-.212c-1.641-.578-2.793-2.048-2.989-3.752,2.959.21,3.979,2.143,4.022,2.228l.451.903.447-.907c.042-.086,1.028-2.017,4.021-2.224-.223,1.94-1.677,3.549-3.622,3.925l-.301.058-.604,2.113c-.277,1.646-.425,3.322-.442,4.987-.752.567-1.426,1.114-2.002,1.579v1.317c2.35-2.008,7.5-6,11.5-6h1.008c4.131.004,7.492,3.367,7.492,7.499v2.988Zm-6-1.487c0,.552-.448,1-1,1s-1-.448-1-1,.448-1,1-1,1,.448,1,1Z"/>
</svg>
