<?xml version="1.0" encoding="UTF-8"?>
<svg xmlns="http://www.w3.org/2000/svg" id="Layer_1" data-name="Layer 1" viewBox="0 0 24 24" width="512" height="512"><path d="M21.5,0H2.5C1.12,0,0,1.12,0,2.5v6.5H11.5v6h-3.58l3.1,3.56c.25,.28,.61,.44,.99,.44h0c.38,0,.74-.16,1-.45l3.07-3.55h-3.58v-6h11.5V2.5c0-1.38-1.12-2.5-2.5-2.5Zm-7.61,16l-1.63,1.89c-.09,.1-.19,.11-.25,.11s-.16-.01-.24-.1l-1.65-1.9h3.78ZM23,2.5v.91l-4.59,4.59h-3.59L21.79,1.03c.69,.14,1.21,.74,1.21,1.47Zm-7.59-1.5l-7,7h-3.59L11.82,1h3.59ZM2.5,1h2.91L1,5.41V2.5c0-.83,.67-1.5,1.5-1.5ZM1,6.82L6.82,1h3.59L3.41,8H1v-1.18Zm8.82,1.18L16.82,1h3.59l-7,7h-3.59Zm10,0l3.18-3.18v3.18h-3.18Zm4.18,7v6.5c0,1.38-1.12,2.5-2.5,2.5H2.5c-1.38,0-2.5-1.12-2.5-2.5v-6.5H5.35l.87,1H1v5.5c0,.83,.67,1.5,1.5,1.5H21.5c.83,0,1.5-.67,1.5-1.5v-5.5h-5.22l.86-1h5.36Z"/></svg>
