<?xml version="1.0" encoding="UTF-8"?>
<svg xmlns="http://www.w3.org/2000/svg" id="Layer_1" data-name="Layer 1" viewBox="0 0 24 24" width="512" height="512"><path d="M10.55,9.91l1.77,1.02,.5-.87-1.76-1.02c.28-.63,.45-1.32,.45-2.05s-.17-1.42-.45-2.05l1.76-1.02-.5-.87-1.77,1.02c-.82-1.13-2.09-1.89-3.55-2.04V0h-1V2.05c-1.46,.15-2.73,.91-3.55,2.04L.68,3.07l-.5,.87,1.76,1.02c-.28,.63-.45,1.32-.45,2.05s.17,1.42,.45,2.05L.19,10.06l.5,.87,1.77-1.02c.82,1.13,2.09,1.89,3.55,2.04v2.05h1v-2.05c1.46-.15,2.73-.91,3.55-2.04Zm-4.05,1.09c-2.21,0-4-1.79-4-4S4.29,3,6.5,3s4,1.79,4,4-1.79,4-4,4Zm16,6c0-.73-.17-1.42-.45-2.05l1.76-1.02-.5-.87-1.77,1.02c-.82-1.13-2.09-1.89-3.55-2.04v-2.05h-1v2.05c-1.46,.15-2.73,.91-3.55,2.04l-1.77-1.02-.5,.87,1.76,1.02c-.28,.63-.45,1.32-.45,2.05s.17,1.42,.45,2.05l-1.76,1.02,.5,.87,1.77-1.02c.82,1.13,2.09,1.89,3.55,2.04v2.05h1v-2.05c1.46-.15,2.73-.91,3.55-2.04l1.77,1.02,.5-.87-1.76-1.02c.28-.63,.45-1.32,.45-2.05Zm-5,4c-2.21,0-4-1.79-4-4s1.79-4,4-4,4,1.79,4,4-1.79,4-4,4Z"/></svg>
