<?xml version="1.0" encoding="UTF-8"?>
<svg xmlns="http://www.w3.org/2000/svg" id="Layer_1" data-name="Layer 1" viewBox="0 0 24 24">
  <path d="m18,11.845l-1,.793v6.362H5v2c0,1.103-.897,2-2,2s-2-.897-2-2V2.5c0-.827.673-1.5,1.5-1.5h12.364l.286-1H2.5C1.122,0,0,1.121,0,2.5v18.5c0,1.654,1.346,3,3,3h15.5c1.378,0,2.5-1.121,2.5-2.5v-2.5h-3v-7.155Zm2,8.155v1.5c0,.827-.673,1.5-1.5,1.5H5.234c.476-.531.766-1.232.766-2v-1h14Zm-8-9H4v-1h8v1Zm-2-5v1h-6v-1h6Zm14-2h-4.059l-1.096-4h-1.667l-1.097,4h-4.082v1.601l2.858,1.647-1.324,3.622,1.279.95,3.199-2.537,3.193,2.562,1.332-.92-1.434-3.635,2.896-1.699v-1.592Zm-4.14,2.861l1.456,3.693-.065.045-3.234-2.596-3.223,2.557-.064-.048,1.356-3.71-3.085-1.78,3.844-.022,1.097-4h.142l1.096,4h3.822l-3.14,1.861Zm-15.86,7.139h8v1H4v-1Z"/>
</svg>
