<?xml version="1.0" encoding="UTF-8"?>
<svg xmlns="http://www.w3.org/2000/svg" id="Layer_1" data-name="Layer 1" viewBox="0 0 24 24">
  <path d="m11.5,4.949v2.081c.164-.02.33-.031.5-.031s.336.011.5.031v-2.081c1.14-.232,2-1.242,2-2.449,0-1.379-1.121-2.5-2.5-2.5s-2.5,1.121-2.5,2.5c0,1.208.86,2.217,2,2.449Zm.5-3.949c.827,0,1.5.673,1.5,1.5s-.673,1.5-1.5,1.5-1.5-.673-1.5-1.5.673-1.5,1.5-1.5Zm-5.741,7.274l1.779,1.186c.155-.298.33-.584.542-.84l-1.768-1.178c.119-.291.187-.608.187-.941,0-1.379-1.121-2.5-2.5-2.5s-2.5,1.121-2.5,2.5,1.121,2.5,2.5,2.5c.686,0,1.307-.278,1.759-.726Zm-3.259-1.774c0-.827.673-1.5,1.5-1.5s1.5.673,1.5,1.5-.673,1.5-1.5,1.5-1.5-.673-1.5-1.5Zm20,13.608v3.892h-1v-3.185l-8.5-3v-6.208c0-.789-.535-1.471-1.244-1.587-.451-.07-.886.046-1.227.336-.337.286-.529.703-.529,1.144v10.625s-3.468-2.713-3.479-2.723c-.606-.562-1.554-.53-2.115.072-.565.604-.534,1.557.064,2.118l2.535,2.37h-1.44l-1.783-1.646c-1-.937-1.048-2.518-.106-3.524.929-.996,2.487-1.055,3.495-.146h0s1.83,1.429,1.83,1.429v-8.574c0-.734.321-1.429.881-1.905.561-.476,1.307-.68,2.035-.561,1.188.193,2.084,1.3,2.084,2.573v5.501l8.5,3Zm-7.038-10.649l1.779-1.186c.452.448,1.073.726,1.759.726,1.379,0,2.5-1.121,2.5-2.5s-1.121-2.5-2.5-2.5-2.5,1.121-2.5,2.5c0,.333.068.65.187.941l-1.768,1.178c.212.256.387.542.542.84Zm3.538-4.46c.827,0,1.5.673,1.5,1.5s-.673,1.5-1.5,1.5-1.5-.673-1.5-1.5.673-1.5,1.5-1.5Z"/>
</svg>
