<?xml version="1.0" encoding="UTF-8"?>
<svg xmlns="http://www.w3.org/2000/svg" id="Layer_1" data-name="Layer 1" viewBox="0 0 24 24">
  <path d="m5.5,5c1.379,0,2.5-1.122,2.5-2.5S6.879,0,5.5,0s-2.5,1.122-2.5,2.5,1.121,2.5,2.5,2.5Zm0-4c.827,0,1.5.673,1.5,1.5s-.673,1.5-1.5,1.5-1.5-.673-1.5-1.5.673-1.5,1.5-1.5ZM23,0h-9v7h4v4h-5.739l-2.456-3.507c-.654-.935-1.726-1.493-2.866-1.493h-3.438c-1.379,0-2.5,1.122-2.5,2.5v8.5h2v7h1v-7h3v7h1v-15h-1v7H2v-7.5c0-.827.673-1.5,1.5-1.5h3.438c.814,0,1.58.399,2.048,1.066l2.753,3.934h7.261v-5h4V0Zm-1,6h-7V1h7v5Z"/>
</svg>
