<?xml version="1.0" encoding="UTF-8"?>
<svg xmlns="http://www.w3.org/2000/svg" id="Layer_1" data-name="Layer 1" width="512" height="512" viewBox="0 0 24 24"><path d="M10.831,17.648l.97,.242-1.5,6-.97-.242,1.5-6Zm-4.566,2.23l.97,.242,1.5-6-.97-.242-1.5,6Zm-.265,2.121c-.552,0-1,.448-1,1s.448,1,1,1,1-.448,1-1-.448-1-1-1Zm6-8c-.552,0-1,.448-1,1s.448,1,1,1,1-.448,1-1-.448-1-1-1Zm2,8c-.552,0-1,.448-1,1s.448,1,1,1,1-.448,1-1-.448-1-1-1Zm3.002-16.978C15.87,2.004,12.999,0,9.75,0,5.477,0,2,3.477,2,7.75c0,.763,.116,1.523,.345,2.267-1.476,1.032-2.345,2.681-2.345,4.483,0,2.589,1.8,4.76,4.213,5.342l.244-.976c-1.978-.473-3.457-2.245-3.457-4.366,0-1.582,.822-3.021,2.2-3.847l.354-.212-.141-.388c-.273-.752-.412-1.527-.412-2.304,0-3.722,3.028-6.75,6.75-6.75,2.931,0,5.51,1.873,6.417,4.661l.11,.339,.355,.007c3.511,.071,6.368,2.984,6.368,6.493,0,3.236-2.463,6.1-5.41,6.447l-.254,1.016c3.587-.203,6.664-3.597,6.664-7.463,0-3.933-3.108-7.216-6.998-7.478Zm-2.737,14.856l.97,.242,1.5-6-.97-.242-1.5,6Z"/></svg>
