<?xml version="1.0" encoding="UTF-8"?>
<svg xmlns="http://www.w3.org/2000/svg" id="Layer_1" data-name="Layer 1" viewBox="0 0 24 24" width="512" height="512"><path d="m12.008,0C5.391,0,.008,5.383.008,12s5.383,12,12,12,12-5.383,12-12S18.625,0,12.008,0Zm0,23c-6.065,0-11-4.935-11-11S5.942,1,12.008,1s11,4.935,11,11-4.935,11-11,11Zm7.861-14.142l-.707-.707-3.149,3.149-3.29-3.285,3.154-3.149-.707-.708-3.155,3.15-3.155-3.15-.707.708,3.154,3.149-3.29,3.285-3.149-3.149-.707.707,3.149,3.149-3.149,3.144.707.707,3.149-3.144,3.291,3.291-3.146,3.147.707.707,3.146-3.147,3.147,3.147.707-.707-3.147-3.147,3.291-3.291,3.149,3.144.707-.707-3.149-3.144,3.149-3.149Zm-7.854,6.44l-3.291-3.291,3.29-3.285,3.291,3.286-3.29,3.291Z"/></svg>
