<?xml version="1.0" encoding="UTF-8"?>
<svg xmlns="http://www.w3.org/2000/svg" id="Layer_1" data-name="Layer 1" viewBox="0 0 24 24">
  <path d="m21.5,1H2.5C1.122,1,0,2.122,0,3.5v19.5h24V3.5c0-1.378-1.122-2.5-2.5-2.5ZM2.5,2h19c.827,0,1.5.673,1.5,1.5v4.5H1V3.5c0-.827.673-1.5,1.5-1.5Zm-1.5,20v-13h22v13H1ZM3,5c0-.552.448-1,1-1s1,.448,1,1-.448,1-1,1-1-.448-1-1Zm3,0c0-.552.448-1,1-1s1,.448,1,1-.448,1-1,1-1-.448-1-1Zm3,0c0-.552.448-1,1-1s1,.448,1,1-.448,1-1,1-1-.448-1-1Zm7,7h1v8h-1v-8Zm-4,0h1v5c0,1.654-1.346,3-3,3s-3-1.346-3-3v-5h1v5c0,1.103.897,2,2,2s2-.897,2-2v-5Z"/>
</svg>
