<?xml version="1.0" encoding="UTF-8"?>
<svg xmlns="http://www.w3.org/2000/svg" id="Layer_1" data-name="Layer 1" viewBox="0 0 24 24" width="512" height="512"><path d="M19,12c0,.552-.448,1-1,1s-1-.448-1-1,.448-1,1-1,1,.448,1,1ZM10,1c1.654,0,3,1.346,3,3h1c0-2.206-1.794-4-4-4S6,1.794,6,4h1c0-1.654,1.346-3,3-3Zm14,10v6h-1.713c-.853,1.846-2.389,3.278-4.287,3.997v3.003h-5v-2h-3v2H5v-3.003C1.995,19.86,0,16.992,0,13.75c0-1.582,.477-3.055,1.294-4.282-.8-.553-1.294-1.47-1.294-2.468,0-1.654,1.346-3,3-3v1c-1.103,0-2,.897-2,2,0,.681,.345,1.305,.901,1.671,1.422-1.636,3.517-2.671,5.849-2.671h7.5c.116,0,.231,.003,.347,.008,.489-2.364,2.721-3.008,3.903-3.008h.5V7.626c1.121,.873,1.994,2.054,2.497,3.374h1.503Zm-1,1h-1.219l-.113-.345c-.437-1.342-1.312-2.54-2.461-3.375l-.207-.149V4.051c-.803,.139-2.299,.649-2.481,2.538l-.048,.504-.503-.055c-.236-.025-.475-.038-.718-.038H7.75c-3.722,0-6.75,3.028-6.75,6.75,0,2.931,1.871,5.511,4.655,6.418l.345,.112v2.72h3v-2h5v2h3v-2.72l.345-.112c1.885-.614,3.398-2.021,4.152-3.857l.127-.311h1.376v-4Z"/></svg>
