<?xml version="1.0" encoding="UTF-8"?>
<svg xmlns="http://www.w3.org/2000/svg" id="Layer_1" data-name="Layer 1" viewBox="0 0 24 24">
  <path d="m15.501,19c-.122,0-3.001-.042-3.001-2.5v-1.5h11.512l-2.103-12.902c-.197-1.216-1.234-2.098-2.467-2.098H4.577c-1.232,0-2.27.882-2.467,2.098L.008,15h11.492v1.5c0,2.458-2.879,2.5-3,2.5-1.379,0-2.5,1.122-2.5,2.5s1.121,2.5,2.5,2.5h7c1.379,0,2.5-1.122,2.5-2.5s-1.121-2.5-2.499-2.5ZM1.184,14L3.097,2.258c.119-.729.741-1.258,1.48-1.258h14.865c.739,0,1.361.529,1.48,1.259l1.913,11.741H1.184Zm14.316,9h-7c-.827,0-1.5-.673-1.5-1.5s.673-1.5,1.5-1.5c1.009,0,2.672-.389,3.5-1.672.828,1.283,2.491,1.672,3.5,1.672.827,0,1.5.673,1.5,1.5s-.673,1.5-1.5,1.5Z"/>
</svg>
