<?xml version="1.0" encoding="UTF-8"?>
<svg xmlns="http://www.w3.org/2000/svg" id="Layer_1" data-name="Layer 1" viewBox="0 0 24 24" width="512" height="512"><path d="M7,4.5c0-1.93-1.57-3.5-3.5-3.5S0,2.57,0,4.5c0,1.76,1.306,3.221,3,3.464v9.072c-1.694,.243-3,1.704-3,3.464,0,1.93,1.57,3.5,3.5,3.5s3.5-1.57,3.5-3.5c0-1.76-1.306-3.221-3-3.464V7.964c1.694-.243,3-1.704,3-3.464Zm-6,0c0-1.378,1.121-2.5,2.5-2.5s2.5,1.122,2.5,2.5-1.121,2.5-2.5,2.5-2.5-1.122-2.5-2.5ZM6,20.5c0,1.378-1.121,2.5-2.5,2.5s-2.5-1.122-2.5-2.5,1.121-2.5,2.5-2.5,2.5,1.122,2.5,2.5Zm15-3.464V6.5c0-1.378-1.121-2.5-2.5-2.5h-6.293L15.354,.854l-.707-.707-3.256,3.256c-.58,.58-.58,1.524,0,2.105l3.256,3.256,.707-.707-3.056-3.056h6.203c.827,0,1.5,.673,1.5,1.5v10.536c-1.694,.243-3,1.704-3,3.464,0,1.93,1.57,3.5,3.5,3.5s3.5-1.57,3.5-3.5c0-1.76-1.306-3.221-3-3.464Zm-.5,5.964c-1.379,0-2.5-1.122-2.5-2.5s1.121-2.5,2.5-2.5,2.5,1.122,2.5,2.5-1.121,2.5-2.5,2.5Z"/></svg>
