<?xml version="1.0" encoding="UTF-8"?>
<svg xmlns="http://www.w3.org/2000/svg" id="Layer_1" data-name="Layer 1" viewBox="0 0 24 24" width="512" height="512"><path d="M24,5.5c0-1.38-1.12-2.5-2.5-2.5H3.71L.75,.05,.05,.75,6.93,7.64c-.06,.1-.11,.22-.15,.34l-2.78,9.02h1.05l.62-2h4.67l.62,2h1.05l-2.78-9.02c-.19-.6-.67-.99-1.22-.99-.09,0-.19,.01-.28,.03l-3.02-3.02H21.5c.83,0,1.5,.67,1.5,1.5v14.5h-2.29l-3.16-3.16c1.42-.45,2.45-1.77,2.45-3.34v-3c0-1.93-1.57-3.5-3.5-3.5h-3.5v10h3.29l6.95,6.95,.71-.71-2.25-2.25h2.29V5.5Zm-16,2.48c.12,0,.22,.15,.26,.29l1.77,5.73H5.97l1.77-5.73c.04-.14,.14-.29,.26-.29Zm6,.02h2.5c1.38,0,2.5,1.12,2.5,2.5v3c0,1.38-1.12,2.5-2.5,2.5h-2.5V8Zm2.46,12l1,1H0V5.5c0-.55,.19-1.06,.49-1.47l.72,.72c-.13,.22-.21,.48-.21,.75v14.5h15.46Z"/></svg>
