<?xml version="1.0" encoding="UTF-8"?>
<svg xmlns="http://www.w3.org/2000/svg" id="Layer_1" data-name="Layer 1" viewBox="0 0 24 24" width="512" height="512"><path d="M7,10c0-.552,.448-1,1-1s1,.448,1,1-.448,1-1,1-1-.448-1-1Zm8,0c0,.552,.448,1,1,1s1-.448,1-1-.448-1-1-1-1,.448-1,1Zm-10.356-1.718l.393,.92c1.752-.747,3.181-1.935,4.132-3.434l-.845-.535c-.842,1.327-2.114,2.382-3.68,3.049Zm14.779,0c-1.58-.674-2.879-1.731-3.756-3.058l-.834,.552c.985,1.49,2.437,2.675,4.197,3.426l.393-.92Zm4.577,3.718C24,5.383,18.617,0,12,0h0C6.172,0,1.305,4.179,.227,9.696c.214-.243,.408-.448,.535-.574l.924-.91C3.235,4.01,7.267,1,12,1c6.065,0,11,4.935,11,11s-4.935,11-11,11c-3.453,0-6.535-1.602-8.553-4.098-.3,.063-.609,.098-.928,.098-.091,0-.176-.022-.266-.027,2.179,3.037,5.732,5.027,9.747,5.027h0c6.617,0,12-5.383,12-12ZM2.519,17C1.141,17,.019,15.878,.019,14.5c0-1.819,2.062-3.87,2.149-3.957l.354-.349,.351,.353c.22,.221,2.146,2.207,2.146,3.953,0,1.378-1.122,2.5-2.5,2.5Zm0-1c.827,0,1.5-.673,1.5-1.5,0-.925-.895-2.161-1.503-2.865-.607,.694-1.497,1.916-1.497,2.865,0,.827,.673,1.5,1.5,1.5Zm9.481-3c2.536,0,4.663,1.911,4.947,4.444l.062,.556h-2.042c-.2,1.524-1.296,3-2.967,3s-2.767-1.476-2.967-3h-2.042l.062-.556c.284-2.534,2.411-4.444,4.947-4.444Zm2,4.5v-2.957c-.59-.345-1.274-.543-2-.543s-1.41,.197-2,.543v2.957c0,1.202,.765,2.5,2,2.5s2-1.298,2-2.5Z"/></svg>
