<?xml version="1.0" encoding="UTF-8"?>
<svg xmlns="http://www.w3.org/2000/svg" id="Layer_1" data-name="Layer 1" viewBox="0 0 24 24" width="512" height="512"><path d="m12.5,7h-1V0h1v7Zm11.013,9.055l-1.937-8.395c-.498-2.155-2.39-3.661-4.602-3.661h-1.975v1h1.975c1.743,0,3.234,1.187,3.627,2.885l1.937,8.395c.307,1.326.462,2.689.462,4.051,0,.713-.276,1.382-.777,1.883-.501.5-1.188.786-1.885.786h-.004c-.284,0-.568-.047-.844-.139l-1.053-.448c-.392.261-.84.439-1.322.525l2.022.857c.414.14.805.204,1.195.205h.006c.96,0,1.904-.393,2.591-1.079.691-.689,1.071-1.609,1.071-2.59,0-1.438-.164-2.876-.487-4.276Zm-19.003,6.806c-.275.092-.56.139-.844.139h-.004c-.697,0-1.384-.287-1.885-.786-.501-.5-.777-1.169-.777-1.883,0-1.362.155-2.725.462-4.051l1.937-8.395c.393-1.699,1.884-2.885,3.627-2.885h1.975v-1h-1.975c-2.212,0-4.104,1.505-4.602,3.661L.487,16.055c-.323,1.4-.487,2.839-.487,4.276,0,.981.38,1.901,1.071,2.59.687.686,1.631,1.079,2.591,1.079h.006c.391,0,.781-.065,1.195-.205l2.022-.857c-.481-.086-.93-.264-1.322-.525l-1.053.448Zm11.99-1.861c-.827,0-1.5-.673-1.5-1.5,0-.231.053-.451.147-.646l-.695-.695c-.553.43-1.222.719-1.952.81v2.031h-1v-2.031c-.729-.091-1.398-.38-1.952-.81l-.695.695c.094.196.147.415.147.646,0,.827-.673,1.5-1.5,1.5s-1.5-.673-1.5-1.5.673-1.5,1.5-1.5c.231,0,.451.053.646.147l.695-.695c-.43-.553-.719-1.222-.81-1.952h-2.031v-1h2.031c.091-.729.38-1.398.81-1.952l-.695-.695c-.196.094-.415.147-.646.147-.827,0-1.5-.673-1.5-1.5s.673-1.5,1.5-1.5,1.5.673,1.5,1.5c0,.231-.053.451-.147.646l.695.695c.553-.43,1.222-.719,1.952-.81v-2.031h1v2.031c.729.091,1.398.38,1.952.81l.695-.695c-.094-.196-.147-.415-.147-.646,0-.827.673-1.5,1.5-1.5s1.5.673,1.5,1.5-.673,1.5-1.5,1.5c-.231,0-.451-.053-.646-.147l-.695.695c.43.553.719,1.222.81,1.952h2.031v1h-2.031c-.091.729-.38,1.398-.81,1.952l.695.695c.196-.094.415-.147.646-.147.827,0,1.5.673,1.5,1.5s-.673,1.5-1.5,1.5Zm-1.5-6c0-1.654-1.346-3-3-3s-3,1.346-3,3,1.346,3,3,3,3-1.346,3-3Zm1-4.5c0,.276.225.5.5.5s.5-.224.5-.5-.225-.5-.5-.5-.5.224-.5.5Zm-8.5.5c.275,0,.5-.224.5-.5s-.225-.5-.5-.5-.5.224-.5.5.225.5.5.5Zm.5,8.5c0-.276-.225-.5-.5-.5s-.5.224-.5.5.225.5.5.5.5-.224.5-.5Zm9,0c0-.276-.225-.5-.5-.5s-.5.224-.5.5.225.5.5.5.5-.224.5-.5Z"/></svg>
