<?xml version="1.0" encoding="UTF-8"?>
<svg xmlns="http://www.w3.org/2000/svg" id="Layer_1" data-name="Layer 1" viewBox="0 0 24 24" width="512" height="512"><path d="M22.264,3.728c-.847-.854-2.269-.938-3.289-.211l-3.358,2.191c.245-.518,.383-1.097,.383-1.707,0-2.206-1.794-4-4-4s-4,1.794-4,4c0,.61,.138,1.189,.383,1.707l-3.341-2.179c-1.034-.739-2.459-.655-3.306,.199-.524,.527-.789,1.25-.728,1.981,.062,.732,.44,1.398,1.054,1.837l4.938,3.253v3.665l-2.268,2.268c-.674,.674-.905,1.654-.603,2.562l1.026,2.996c.341,1.022,1.294,1.71,2.372,1.71,.413,0,.825-.105,1.195-.305,1.049-.568,1.537-1.906,1.133-3.119l-.492-1.406,2.17-2.17h.932l2.174,2.174-.47,1.409c-.402,1.205,.086,2.544,1.137,3.113,.374,.201,.775,.304,1.194,.304,1.077,0,2.03-.688,2.371-1.71l1-3c.301-.904,.069-1.885-.604-2.559l-2.268-2.268v-3.665l4.953-3.264c.598-.428,.977-1.094,1.038-1.826,.062-.731-.203-1.454-.728-1.981ZM12,1c1.654,0,3,1.346,3,3s-1.346,3-3,3-3-1.346-3-3,1.346-3,3-3Zm-3.788,17.908l.698,1.991c.251,.752-.034,1.576-.662,1.916-.809,.44-1.858,.013-2.145-.846l-1.026-2.996c-.181-.543-.042-1.131,.362-1.535l1.944-1.944,2.969,1.273-2.141,2.141Zm2.908-2.908l-3.12-1.33v-1.67h8v1.67l-3.12,1.33h-1.76Zm7.44,1.438c.404,.404,.543,.992,.362,1.535l-1,3c-.283,.853-1.334,1.279-2.141,.843-.629-.341-.914-1.165-.663-1.917l.665-1.995-2.137-2.137,2.969-1.273,1.944,1.944Zm3.435-11.813c-.037,.44-.265,.84-.608,1.085l-5.387,3.55v1.74H8v-1.74L2.629,6.721c-.359-.256-.587-.655-.624-1.096-.037-.445,.119-.869,.44-1.192,.507-.511,1.373-.55,2.033-.078l4.59,2.994c.598,.426,1.301,.651,2.035,.651h1.793c.734,0,1.438-.226,2.018-.64l4.624-3.018c.645-.461,1.51-.421,2.017,.09,.321,.323,.478,.747,.44,1.192Z"/></svg>
