<?xml version="1.0" encoding="UTF-8"?>
<svg xmlns="http://www.w3.org/2000/svg" id="Layer_1" data-name="Layer 1" viewBox="0 0 24 24">
  <path d="m16.486,6.033c.321-.194.63-.427.909-.707C19.572,3.15,18.967.028,18.967.028c0,0-3.388-.339-5.298,1.572-.748.748-1.162,1.699-1.389,2.564-.385-2.025-1.174-3.471-1.528-4.12l-.878.479c.419.769,1.493,2.738,1.615,5.466h-3.147C3.742,5.989,0,10.029,0,14.995s3.742,9,8.341,9c1.264,0,2.523-.311,3.659-.901,1.136.59,2.395.901,3.659.901,4.599,0,8.341-4.038,8.341-9,0-4.665-3.302-8.512-7.514-8.962Zm-2.11-3.726c1.103-1.103,2.815-1.292,3.629-1.316-.024.813-.214,2.526-1.316,3.629s-2.84,1.321-3.673,1.359c.037-.832.253-2.565,1.36-3.672Zm1.284,20.688c-1.201,0-2.35-.304-3.414-.905l-.246-.139-.246.139c-1.064.601-2.212.905-3.414.905-4.048,0-7.341-3.589-7.341-8s3.293-8.006,7.341-8.006h7.318c4.048,0,7.341,3.591,7.341,8.006s-3.293,8-7.341,8Z"/>
</svg>
