<?xml version="1.0" encoding="UTF-8"?>
<svg xmlns="http://www.w3.org/2000/svg" id="Layer_1" data-name="Layer 1" viewBox="0 0 24 24">
  <path d="m6.5,5c1.378,0,2.5-1.121,2.5-2.5S7.878,0,6.5,0s-2.5,1.121-2.5,2.5,1.122,2.5,2.5,2.5Zm0-4c.827,0,1.5.673,1.5,1.5s-.673,1.5-1.5,1.5-1.5-.673-1.5-1.5.673-1.5,1.5-1.5Zm11,10c-3.584,0-6.5,2.916-6.5,6.5s2.916,6.5,6.5,6.5,6.5-2.916,6.5-6.5-2.916-6.5-6.5-6.5Zm0,12c-3.033,0-5.5-2.468-5.5-5.5s2.467-5.5,5.5-5.5,5.5,2.468,5.5,5.5-2.467,5.5-5.5,5.5Zm1-2c0,.552-.448,1-1,1s-1-.448-1-1,.448-1,1-1,1,.448,1,1Zm1.461-5.949c.186,1.062-.318,2.123-1.255,2.64-.436.24-.706.543-.706,1.31h-1c0-1.355.698-1.896,1.223-2.186.571-.314.867-.939.753-1.591-.105-.601-.599-1.094-1.199-1.199-.456-.08-.895.035-1.24.326-.341.285-.537.705-.537,1.149h-1c0-.741.326-1.439.894-1.916.567-.476,1.317-.675,2.056-.544,1.006.176,1.834,1.003,2.012,2.011Zm-9.961-1.549v-5.002c0-.827-.673-1.5-1.5-1.5h-4c-.827,0-1.5.673-1.5,1.5v7.5h6v8h-1v-7h-3v7h-1v-7h-2v-8.5c0-1.379,1.122-2.5,2.5-2.5h4c1.378,0,2.5,1.121,2.5,2.5v3.528c-.382.454-.718.947-1,1.474Z"/>
</svg>
