<?xml version="1.0" encoding="UTF-8"?>
<svg xmlns="http://www.w3.org/2000/svg" id="Layer_1" data-name="Layer 1" viewBox="0 0 24 24" width="512" height="512"><path d="M23.23,4.51c1.03-1.03,1.03-2.71,0-3.74-1.03-1.03-2.71-1.03-3.74,0L8,12.26v3.74h3.74L23.23,4.51Zm-3.03-3.03c.64-.64,1.68-.64,2.32,0,.64,.64,.64,1.68,0,2.32l-1.5,1.5-2.32-2.32,1.5-1.5ZM9,15v-2.32L17.98,3.69l2.32,2.32L11.32,15h-2.32Zm15,8v1c-1.26,0-1.99-.89-2.64-1.68-.58-.71-1.08-1.32-1.86-1.32s-1.29,.61-1.86,1.32c-.65,.79-1.38,1.68-2.64,1.68s-1.99-.89-2.64-1.68c-.58-.71-1.08-1.32-1.86-1.32-.73,0-1.33,.53-2.03,1.15-.93,.82-2.09,1.84-3.95,1.85h-.02C2.03,23.99,.02,21.97,.02,19.5s2.02-4.5,4.5-4.5h1.48v1h-1.48c-1.93,0-3.5,1.57-3.5,3.5s1.56,3.49,3.49,3.5c1.49,0,2.41-.82,3.3-1.6,.78-.69,1.58-1.4,2.69-1.4,1.26,0,1.99,.89,2.64,1.68,.58,.71,1.08,1.32,1.86,1.32s1.29-.61,1.86-1.32c.65-.79,1.38-1.68,2.64-1.68s1.99,.89,2.64,1.68c.58,.71,1.08,1.32,1.86,1.32Z"/></svg>
