<?xml version="1.0" encoding="UTF-8"?>
<svg xmlns="http://www.w3.org/2000/svg" id="Layer_1" data-name="Layer 1" viewBox="0 0 24 24">
  <path d="m8.031,17.262l3.262-3.262-3.262-3.262.707-.707,3.262,3.262,3.262-3.262.707.707-3.262,3.262,3.262,3.262-.707.707-3.262-3.262-3.262,3.262-.707-.707Zm14.969-12.262h-1.552l-1.833,16.772c-.14,1.27-1.208,2.228-2.485,2.228H6.835c-1.281,0-2.35-.96-2.486-2.233L2.551,5h-1.551v-1h6v-1.5c0-1.379,1.122-2.5,2.5-2.5h5c1.378,0,2.5,1.121,2.5,2.5v1.5h6v1Zm-15-1h8v-1.5c0-.827-.673-1.5-1.5-1.5h-5c-.827,0-1.5.673-1.5,1.5v1.5Zm12.442,1H3.556l1.787,16.659c.082.765.723,1.341,1.492,1.341h10.294c.767,0,1.408-.574,1.491-1.337l1.821-16.663Z"/>
</svg>
