<?xml version="1.0" encoding="UTF-8"?>
<svg xmlns="http://www.w3.org/2000/svg" id="Layer_1" data-name="Layer 1" viewBox="0 0 24 24" width="512" height="512"><path d="M16.477,14.218l-.574,.383c-.831,.557-2.087,1.399-3.902,1.399-2.53,0-4.646-1.854-4.667-1.874l-.666,.747c.097,.087,2.415,2.127,5.333,2.127,.068,0,.135,0,.202-.003l1.106,1.62c.399,.584,1,1.039,1.646,1.246,.265,.084,.529,.126,.787,.126,.456,0,.891-.131,1.269-.39,1.274-.872,1.213-2.654,.44-3.783l-.973-1.598Zm-.032,4.556c-.425,.29-.879,.234-1.186,.136-.438-.14-.848-.453-1.125-.857l-.81-1.185c1.229-.249,2.168-.801,2.839-1.241l.446,.731c.516,.754,.599,1.893-.165,2.416ZM12,0C5.383,0,0,5.383,0,12s5.383,12,12,12,12-5.383,12-12S18.617,0,12,0Zm0,23c-6.065,0-11-4.935-11-11S5.935,1,12,1s11,4.935,11,11-4.935,11-11,11ZM6,11h-1c0-1.888,1.069-4,2.5-4s2.5,2.112,2.5,4h-1c0-1.43-.785-3-1.5-3s-1.5,1.57-1.5,3Zm13,0h-1c0-1.43-.785-3-1.5-3s-1.5,1.57-1.5,3h-1c0-1.888,1.069-4,2.5-4s2.5,2.112,2.5,4Z"/></svg>
