<?xml version="1.0" encoding="UTF-8"?>
<svg xmlns="http://www.w3.org/2000/svg" id="Layer_1" data-name="Layer 1" viewBox="0 0 24 24" width="512" height="512"><path d="M21.5,14h-.014c.253-.334,.427-.721,.488-1.146,.095-.661-.074-1.319-.475-1.854s-.986-.881-1.646-.975c-.663-.097-1.319,.074-1.854,.475-.741,.555-1.2,1.322-1.496,2.038-.296-.714-.763-1.483-1.504-2.038-1.104-.825-2.673-.603-3.5,.5-.401,.534-.569,1.192-.475,1.854,.061,.426,.236,.813,.488,1.146h-.013c-1.378,0-2.5,1.121-2.5,2.5v6.5H1V7.5c0-.827,.673-1.5,1.5-1.5H12.5c.827,0,1.5,.673,1.5,1.5v.745c.346,.106,.682,.249,1,.43v-1.175c0-1.379-1.122-2.5-2.5-2.5h-4.293l3.396-3.396-.707-.707-2.896,2.896V0h-1V3.793L4.104,.896l-.707,.707,3.396,3.396H2.5c-1.378,0-2.5,1.121-2.5,2.5V24H24v-7.5c0-1.379-1.122-2.5-2.5-2.5Zm-2.9-2.699c.32-.241,.716-.34,1.112-.286,.397,.057,.748,.265,.988,.585,.24,.32,.341,.716,.285,1.112s-.265,.747-.586,.988c-.161,.122-.351,.218-.553,.3h-2.756c.151-.716,.54-1.973,1.51-2.699Zm-6,2.398c-.32-.24-.528-.591-.585-.987s.044-.792,.285-1.112c.241-.32,.591-.528,.988-.585,.398-.053,.792,.045,1.112,.286,.969,.726,1.358,1.984,1.509,2.699h-2.755c-.202-.082-.392-.178-.554-.301Zm-2.6,2.801c0-.827,.673-1.5,1.5-1.5h4.5v8h-6v-6.5Zm13,6.5h-6l-.002-8h4.502c.827,0,1.5,.673,1.5,1.5v6.5Z"/></svg>
