<?xml version="1.0" encoding="UTF-8"?>
<svg xmlns="http://www.w3.org/2000/svg" id="Layer_1" data-name="Layer 1" viewBox="0 0 24 24">
  <path d="m22.5,0h-4.5v1h4.293l-6.421,6.421c-1.046-.886-2.398-1.421-3.872-1.421s-2.827.535-3.872,1.421l-1.83-1.83,1.818-1.818-.707-.707-1.818,1.818L1.707,1h4.293V0H1.5C.673,0,0,.673,0,1.5v4.5h1V1.707l3.884,3.884-1.975,1.975.707.707,1.975-1.975,1.83,1.83c-.886,1.046-1.421,2.398-1.421,3.872,0,3.14,2.425,5.724,5.5,5.979v3.021h-2.5v1h2.5v2h1v-2h2.5v-1h-2.5v-3.021c3.075-.255,5.5-2.839,5.5-5.979,0-1.475-.535-2.827-1.421-3.872l6.421-6.421v4.293h1V1.5c0-.827-.673-1.5-1.5-1.5Zm-10.5,17c-2.757,0-5-2.243-5-5s2.243-5,5-5,5,2.243,5,5-2.243,5-5,5Z"/>
</svg>
