<?xml version="1.0" encoding="UTF-8"?>
<svg xmlns="http://www.w3.org/2000/svg" id="Layer_1" data-name="Layer 1" viewBox="0 0 24 24">
  <path d="m13,11v-4h1v3.237l-.707.763h-.293Zm-1.242,11.997c-5.954-.13-10.758-5.013-10.758-10.997C1,5.935,5.935,1,12,1s10.978,4.913,11,10.96c.331.324.655.665.96,1.025.027-.325.041-.654.041-.985C24,5.383,18.617,0,12,0S0,5.383,0,12s5.383,12,12,12c.232,0,.463-.007.692-.02-.338-.301-.651-.629-.934-.983Zm12.242-4.997c0,3.309-2.691,6-6,6h-.002c-3.308-.001-5.998-2.692-5.998-6,0-2.284,1.164-3.965,2.141-4.973l.856-.884.003,1.23c.002.676.215,1.501.462,1.501.402,0,.524-.271.799-1.347.228-.89.51-1.997,1.361-2.98l.352-.406.38.38c.383.383.884.802,1.413,1.246,1.886,1.579,4.233,3.545,4.233,6.232Zm-4.5,3.5c0-.401-.156-.778-.439-1.062l-1.061-1.062-1.062,1.062c-.584.585-.584,1.537,0,2.122.293.293.678.44,1.062.439h0c.384,0,.768-.147,1.06-.439.283-.283.439-.66.439-1.061Zm3.5-3.5c0-2.221-2.148-4.021-3.875-5.466-.377-.315-.739-.619-1.063-.913-.461.701-.655,1.466-.831,2.154-.264,1.032-.536,2.1-1.769,2.1-.708,0-1.116-.579-1.313-1.304-.616.861-1.148,2.014-1.148,3.429,0,1.919,1.088,3.59,2.679,4.427-.358-.9-.174-1.969.553-2.696l1.769-1.769,1.768,1.769c.473.473.732,1.101.732,1.769,0,.323-.061.636-.177.926,1.59-.838,2.677-2.508,2.677-4.426Zm-15-7v-4h-1v4h1Zm3,0v-4h-1v4h1Zm-7,0h1v-4h-1v4Zm13-2.79v-1.21h-1v2.378c.038-.046,1-1.168,1-1.168Z"/>
</svg>
