<?xml version="1.0" encoding="UTF-8"?>
<svg xmlns="http://www.w3.org/2000/svg" id="Layer_1" data-name="Layer 1" viewBox="0 0 24 24">
  <path d="m8.149,4h3.851v1h-2.923l-.289,3h-1.024l.385-4Zm15.851,17.517v2.483H0v-2.483c0-1.378,1.122-2.5,2.5-2.5h.172l1.503-15.627c.242-1.938,1.886-3.389,3.825-3.389h8c1.939,0,3.583,1.451,3.823,3.375l1.505,15.642h.172c1.378,0,2.5,1.122,2.5,2.5Zm-20.324-2.5h16.648l-1.494-15.532c-.177-1.411-1.394-2.485-2.83-2.485h-8c-1.436,0-2.653,1.074-2.831,2.499l-1.493,15.518Zm19.324,2.5c0-.827-.673-1.5-1.5-1.5H2.5c-.827,0-1.5.673-1.5,1.5v1.483h22v-1.483Z"/>
</svg>
