<?xml version="1.0" encoding="UTF-8"?>
<svg xmlns="http://www.w3.org/2000/svg" id="Layer_1" data-name="Layer 1" viewBox="0 0 24 24">
  <path d="m1,23V2.5c0-.827.673-1.5,1.5-1.5h9.5v7h7v.587c.347.14.679.306,1,.492v-1.786L12.707,0H2.5C1.122,0,0,1.122,0,2.5v21.5h16c-1.404,0-2.723-.364-3.87-1H1ZM13,1.707l5.293,5.293h-5.293V1.707Zm10.995,21.581l-3.417-3.417c.886-1.046,1.423-2.396,1.423-3.87,0-3.309-2.691-6-6-6s-6,2.691-6,6,2.691,6,6,6c1.475,0,2.825-.537,3.87-1.423l3.417,3.417.707-.707Zm-7.995-2.288c-2.757,0-5-2.243-5-5s2.243-5,5-5,5,2.243,5,5-2.243,5-5,5Zm3.641-6.238l-3.457,3.399c-.226.226-.523.338-.821.338s-.598-.113-.826-.341l-1.852-1.794.696-.718,1.856,1.799c.07.069.176.07.241.005l3.459-3.402.701.713Zm-9.881-3.762h-5.76v-1h6.721c-.348.306-.67.639-.96,1Zm-1.498,3c-.084.326-.151.659-.193,1h-4.069v-1h4.262Zm-4.262,4h4.262c.088.342.194.677.325,1h-4.587v-1Z"/>
</svg>
