<?xml version="1.0" encoding="UTF-8"?>
<svg xmlns="http://www.w3.org/2000/svg" id="Layer_1" data-name="Layer 1" viewBox="0 0 24 24" width="512" height="512"><path d="M11,5v1c-1.654,0-3,1.346-3,3h-1c0-2.206,1.794-4,4-4Zm2,2v1c1.654,0,3,1.346,3,3h1c0-2.206-1.794-4-4-4Zm8.441,5.871l-2.023,11.129H4.583L2.559,12.871c-1.474-.412-2.559-1.768-2.559-3.371,0-1.573,1.039-2.925,2.522-3.353,.184-1.674,1.5-2.975,3.144-3.131,.485-1.397,1.934-2.346,3.525-1.922,.567-.691,1.405-1.094,2.309-1.094,1.29,0,2.411,.819,2.826,2.005,1.008-.062,1.958,.396,2.555,1.187,.366-.128,.741-.192,1.12-.192,1.812,0,3.306,1.383,3.482,3.148,1.48,.429,2.518,1.78,2.518,3.352,0,1.604-1.085,2.959-2.559,3.371Zm-12.536,10.129l-.404-7.473c0-1.405-1.122-2.527-2.5-2.527H3.599l1.818,10h3.487Zm5.003,0l.592-7.516c-.008-1.371-1.126-2.484-2.5-2.484s-2.5,1.122-2.5,2.5l.406,7.5h4.002Zm6.493-10h-2.401c-1.378,0-2.5,1.122-2.5,2.5l-.589,7.5h3.671l1.818-10Zm2.599-3.5c0-1.22-.876-2.253-2.083-2.457l-.417-.07v-.423c0-1.429-1.122-2.55-2.5-2.55-.368,0-.736,.088-1.092,.263l-.43,.21-.229-.421c-.353-.649-1.023-1.053-1.749-1.053-.137,0-.279,.017-.436,.052l-.51,.113-.091-.514c-.169-.957-.996-1.651-1.964-1.651-.69,0-1.322,.354-1.692,.947l-.219,.352-.386-.15c-.261-.101-.484-.148-.702-.148-.949,0-1.773,.674-1.96,1.604l-.081,.401-.51-.008c-1.328,.003-2.449,1.125-2.449,2.503v.423l-.417,.121c-1.207,.204-2.083,1.237-2.083,2.457,0,1.378,1.122,2.5,2.5,2.5h2.5c1.272,0,2.387,.682,3,1.699,.613-1.017,1.728-1.699,3-1.699s2.383,.68,2.997,1.694c.612-1.009,1.729-1.694,3.003-1.694h2.5c1.378,0,2.5-1.122,2.5-2.5Z"/></svg>
