<?xml version="1.0" encoding="UTF-8"?>
<svg xmlns="http://www.w3.org/2000/svg" id="Layer_1" data-name="Layer 1" viewBox="0 0 24 24">
  <path d="m21.439,3.46c.785-.839,1.561-2.029,1.561-3.46h-1c0,1.094-.616,2.045-1.255,2.738-.903-.811-2.023-1.384-3.257-1.615-2.742-.513-5.5.647-7.019,2.958-.523.796-1.288,1.29-2.098,1.356-2.225.182-4.32,1.152-5.898,2.73-3.504,3.504-3.238,8.856.633,12.728,1.82,1.82,4.066,2.915,6.327,3.083.211.016.419.023.627.023,2.164,0,4.149-.848,5.774-2.473,1.578-1.578,2.548-3.673,2.73-5.898.066-.811.561-1.575,1.356-2.099,2.31-1.519,3.471-4.274,2.958-7.02-.214-1.142-.721-2.187-1.438-3.052Zm-2.069,9.236c-1.054.694-1.712,1.733-1.804,2.852-.163,1.99-1.03,3.862-2.44,5.273-1.569,1.569-3.515,2.316-5.62,2.159-2.021-.15-4.043-1.143-5.694-2.793C.295,16.671.035,12.019,3.179,8.874c1.411-1.411,3.284-2.278,5.273-2.44,1.12-.092,2.159-.75,2.853-1.804,1.092-1.662,2.937-2.626,4.895-2.626.366,0,.735.034,1.105.103,2.276.425,4.164,2.313,4.59,4.589.439,2.348-.551,4.704-2.524,6Zm-4.37,2.304c0,.552-.448,1-1,1s-1-.448-1-1,.448-1,1-1,1,.448,1,1Zm-3,3c0,.552-.448,1-1,1s-1-.448-1-1,.448-1,1-1,1,.448,1,1Z"/>
</svg>
