<?xml version="1.0" encoding="UTF-8"?>
<svg xmlns="http://www.w3.org/2000/svg" id="Layer_1" data-name="Layer 1" viewBox="0 0 24 24" width="512" height="512"><path d="M12,0C5.38,0,0,5.38,0,12s5.38,12,12,12,12-5.38,12-12S18.62,0,12,0Zm11,12c0,2.85-1.1,5.45-2.89,7.4l-1.4-1.4h.29v-2.5c0-.83-.67-1.5-1.5-1.5h-.5c0-.59-.09-1.29-.23-2h2.23v-1h-2.45c-.17-.71-.37-1.4-.56-2h1.51c.83,0,1.5-.67,1.5-1.5v-2h-1v2c0,.28-.22,.5-.5,.5h-1.84c-.14-.41-.25-.69-.29-.78-.59-1.35-1.91-2.22-3.37-2.22s-2.78,.87-3.37,2.22c-.03,.07-.1,.26-.19,.51l-3.84-3.84c1.96-1.79,4.55-2.89,7.4-2.89,6.07,0,11,4.93,11,11Zm-7.18,3.12l-6.6-6.6c.16-.47,.28-.8,.32-.9,.43-.98,1.39-1.62,2.45-1.62s2.02,.64,2.45,1.62c.23,.53,1.55,4.33,1.55,6.38,0,.38-.07,.75-.18,1.12Zm1.07-.12h.61c.28,0,.5,.22,.5,.5v1.79l-1.39-1.39c.12-.29,.22-.6,.28-.91ZM1,12c0-2.85,1.1-5.45,2.89-7.4l15.52,15.51c-1.96,1.79-4.55,2.89-7.4,2.89-6.07,0-11-4.93-11-11Zm13.68,6.22c-.79,.5-1.71,.78-2.68,.78-2.41,0-4.43-1.72-4.9-4h-.6c-.28,0-.5,.22-.5,.5v2.5h-1v-2.5c0-.83,.67-1.5,1.5-1.5h.5c0-.59,.1-1.29,.24-2h-2.24v-1h2.45s0,0,0,0l.83,.83c-.17,.77-.29,1.55-.29,2.18,0,2.21,1.79,4,4,4,.7,0,1.37-.19,1.95-.51l.73,.73Z"/></svg>
