<?xml version="1.0" encoding="UTF-8"?>
<svg xmlns="http://www.w3.org/2000/svg" id="Layer_1" data-name="Layer 1" viewBox="0 0 24 24">
  <path d="m18.293,19l-1.646,1.646.707.707,1.646-1.646,1.646,1.646.707-.707-1.646-1.646,1.646-1.646-.707-.707-1.646,1.646-2.379-2.379c-1.045-1.045-1.621-2.436-1.621-3.914s.576-2.869,1.621-3.914l2.379-2.379,1.646,1.646.707-.707-1.646-1.646,1.396-1.396-.707-.707-1.396,1.396-1.646-1.646-.707.707,1.646,1.646-2.379,2.379c-1.045,1.045-2.436,1.621-3.914,1.621s-2.869-.576-3.914-1.621l-2.379-2.379,1.646-1.646-.707-.707-1.646,1.646-1.646-1.646-.707.707,1.646,1.646-1.646,1.646.707.707,1.646-1.646,2.379,2.379c1.045,1.045,1.621,2.436,1.621,3.914s-.576,2.869-1.621,3.914l-2.379,2.379-1.646-1.646-.707.707,1.646,1.646-1.646,1.646.707.707,1.646-1.646,1.646,1.646.707-.707-1.646-1.646,2.379-2.379c1.045-1.045,2.436-1.621,3.914-1.621s2.869.576,3.914,1.621l2.379,2.379Zm-6.293-5c-.868,0-1.71.169-2.49.49.321-.779.49-1.621.49-2.49s-.169-1.71-.49-2.49c.779.321,1.621.49,2.49.49s1.71-.169,2.49-.49c-.321.779-.49,1.621-.49,2.49s.169,1.71.49,2.49c-.779-.321-1.621-.49-2.49-.49ZM0,5C0,2.243,2.243,0,5,0s5,2.243,5,5c0,.428-.071.837-.173,1.234-.111-.087-.226-.168-.327-.269l-.543-.543c.015-.141.043-.278.043-.422,0-2.206-1.794-4-4-4S1,2.794,1,5s1.794,4,4,4c.144,0,.281-.028.422-.043l.543.543c.101.101.182.217.269.327-.397.102-.806.173-1.234.173C2.243,10,0,7.757,0,5Zm14.173,1.234c-.102-.397-.173-.806-.173-1.234,0-2.757,2.243-5,5-5s5,2.243,5,5-2.243,5-5,5c-.428,0-.837-.071-1.234-.173.087-.111.168-.226.269-.327l.543-.543c.141.015.278.043.422.043,2.206,0,4-1.794,4-4s-1.794-4-4-4-4,1.794-4,4c0,.144.028.281.043.422l-.543.543c-.101.101-.217.182-.327.269Zm-4.345,11.532c.102.397.173.806.173,1.234,0,2.757-2.243,5-5,5S0,21.757,0,19s2.243-5,5-5c.428,0,.837.071,1.234.173-.087.111-.168.226-.269.327l-.543.543c-.141-.015-.278-.043-.422-.043-2.206,0-4,1.794-4,4s1.794,4,4,4,4-1.794,4-4c0-.144-.028-.281-.043-.422l.543-.543c.101-.101.217-.182.327-.269Zm14.173,1.234c0,2.757-2.243,5-5,5s-5-2.243-5-5c0-.428.071-.837.173-1.234.111.087.226.168.327.269l.543.543c-.015.141-.043.278-.043.422,0,2.206,1.794,4,4,4s4-1.794,4-4-1.794-4-4-4c-.144,0-.281.028-.422.043l-.543-.543c-.101-.101-.182-.217-.269-.327.397-.102.806-.173,1.234-.173,2.757,0,5,2.243,5,5Z"/>
</svg>
