<?xml version="1.0" encoding="UTF-8"?>
<svg xmlns="http://www.w3.org/2000/svg" id="Layer_1" data-name="Layer 1" viewBox="0 0 24 24">
  <path d="m14.5,13c-2.853,0-7.049,3.568-7.226,3.721l-.48.412.512.372c.14.102,3.475,2.496,7.194,2.496,1.93,0,3.5-1.57,3.5-3.5s-1.57-3.5-3.5-3.5Zm0,6c-2.554,0-4.992-1.295-6.053-1.944,1.181-.928,4.101-3.056,6.053-3.056,1.379,0,2.5,1.122,2.5,2.5s-1.121,2.5-2.5,2.5Zm9.5-12.188v-1.125l-3.134-.952c-.582-2.704-2.991-4.736-5.866-4.736-3.309,0-6,2.691-6,6,0,1.292.41,2.49,1.108,3.47-1.082,1.253-3.359,3.53-5.608,3.53-1.061,0-2.15-1.314-2.48-1.82l-.501-.704-.386.796c-1.525,3.152-1.498,6.531.075,9.04,1.47,2.344,4.132,3.688,7.305,3.688h7.274c3.497,0,7.213-2.488,7.213-7.1,0-2.564-1.907-5.813-3.205-7.297.377-.5.677-1.06.884-1.664l3.322-1.127Zm-8.213,16.188h-7.274c-2.862,0-5.156-1.144-6.458-3.22-1.267-2.021-1.385-4.711-.334-7.359.588.669,1.604,1.579,2.779,1.579,2.52,0,4.888-2.188,6.262-3.757,1.086,1.085,2.585,1.757,4.238,1.757,1.594,0,3.045-.625,4.12-1.642,1.104,1.32,2.88,4.281,2.88,6.542,0,4.476-3.716,6.1-6.213,6.1Zm-.787-12c-2.757,0-5-2.243-5-5S12.243,1,15,1s5,2.243,5,5-2.243,5-5,5Z"/>
</svg>
