<?xml version="1.0" encoding="UTF-8"?>
<svg xmlns="http://www.w3.org/2000/svg" id="Layer_1" data-name="Layer 1" width="512" height="512" viewBox="0 0 24 24"><path d="M9.868,9.582c.193,.358,.172,.792-.053,1.132l-1.754,3.522-.895-.447,1.785-3.575c.053-.087,.055-.123,.036-.159s-.05-.055-.091-.055h-2.78c-.356,0-.683-.164-.896-.451-.212-.286-.275-.646-.171-.987l2.185-4.068,.88,.475-2.113,3.915c0,.03,.011,.055,.023,.07,.016,.021,.044,.047,.092,.047h2.78c.407,0,.78,.223,.972,.582ZM24,1V5.5c0,.827-.673,1.5-1.5,1.5h-.5v10.5c0,1.379-1.122,2.5-2.5,2.5h-4.5v4H0V2.5C0,1.121,1.122,0,2.5,0H12.5c1.378,0,2.5,1.121,2.5,2.5V19h4.5c.827,0,1.5-.673,1.5-1.5V7h-.5c-.827,0-1.5-.673-1.5-1.5V1h1V3h3V1h1ZM14,23V10h-2v-1h2V2.5c0-.827-.673-1.5-1.5-1.5H2.5c-.827,0-1.5,.673-1.5,1.5v6.5H3v1H1v13H14ZM23,4h-3v1.5c0,.275,.224,.5,.5,.5h2c.276,0,.5-.225,.5-.5v-1.5Z"/></svg>
