<?xml version="1.0" encoding="UTF-8"?>
<svg xmlns="http://www.w3.org/2000/svg" id="Layer_1" data-name="Layer 1" viewBox="0 0 24 24">
  <path d="m16,12h1v8h-1v-8Zm-4,5c0,1.103-.897,2-2,2s-2-.897-2-2v-5h-1v5c0,1.654,1.346,3,3,3s3-1.346,3-3v-5h-1v5ZM24,3.5v19.5H0V3.5C0,2.122,1.122,1,2.5,1h19c1.378,0,2.5,1.122,2.5,2.5ZM1,3.5v4.5h22V3.5c0-.827-.673-1.5-1.5-1.5H2.5c-.827,0-1.5.673-1.5,1.5Zm22,18.5v-13H1v13h22ZM4,6c.552,0,1-.448,1-1s-.448-1-1-1-1,.448-1,1,.448,1,1,1Zm3,0c.552,0,1-.448,1-1s-.448-1-1-1-1,.448-1,1,.448,1,1,1Zm3,0c.552,0,1-.448,1-1s-.448-1-1-1-1,.448-1,1,.448,1,1,1Z"/>
</svg>
