<?xml version="1.0" encoding="UTF-8"?>
<svg xmlns="http://www.w3.org/2000/svg" id="Layer_1" data-name="Layer 1" viewBox="0 0 24 24">
  <path d="m21.5,9.5c-1.208,0-2.217.86-2.449,2h-3.101c-.132-1.042-.66-1.953-1.435-2.586l1.61-2.581c.274.103.567.167.876.167,1.379,0,2.5-1.121,2.5-2.5s-1.121-2.5-2.5-2.5-2.5,1.121-2.5,2.5c0,.71.3,1.348.777,1.803l-1.606,2.574c-.51-.236-1.073-.377-1.671-.377s-1.161.141-1.672.378l-1.606-2.574c.477-.456.777-1.094.777-1.804,0-1.379-1.121-2.5-2.5-2.5s-2.5,1.121-2.5,2.5,1.121,2.5,2.5,2.5c.309,0,.602-.064.875-.166l1.61,2.581c-.776.633-1.303,1.543-1.435,2.585h-3.101c-.232-1.14-1.242-2-2.449-2-1.379,0-2.5,1.121-2.5,2.5s1.121,2.5,2.5,2.5c1.208,0,2.217-.86,2.449-2h3.101c.132,1.042.659,1.952,1.434,2.585l-1.61,2.581c-.273-.103-.566-.166-.875-.166-1.379,0-2.5,1.121-2.5,2.5s1.121,2.5,2.5,2.5,2.5-1.121,2.5-2.5c0-.71-.301-1.349-.778-1.804l1.606-2.574c.51.237,1.073.378,1.672.378s1.161-.141,1.671-.378l1.606,2.574c-.477.455-.777,1.094-.777,1.804,0,1.379,1.121,2.5,2.5,2.5s2.5-1.121,2.5-2.5-1.121-2.5-2.5-2.5c-.309,0-.602.064-.875.167l-1.61-2.581c.776-.633,1.303-1.543,1.435-2.586h3.101c.232,1.14,1.242,2,2.449,2,1.379,0,2.5-1.121,2.5-2.5s-1.121-2.5-2.5-2.5Zm-4.5-7c.827,0,1.5.673,1.5,1.5s-.673,1.5-1.5,1.5-1.5-.673-1.5-1.5.673-1.5,1.5-1.5Zm-11.5,1.5c0-.827.673-1.5,1.5-1.5s1.5.673,1.5,1.5-.673,1.5-1.5,1.5-1.5-.673-1.5-1.5Zm-3,9.5c-.827,0-1.5-.673-1.5-1.5s.673-1.5,1.5-1.5,1.5.673,1.5,1.5-.673,1.5-1.5,1.5Zm4.5,8c-.827,0-1.5-.673-1.5-1.5s.673-1.5,1.5-1.5,1.5.673,1.5,1.5-.673,1.5-1.5,1.5Zm11.5-1.5c0,.827-.673,1.5-1.5,1.5s-1.5-.673-1.5-1.5.673-1.5,1.5-1.5,1.5.673,1.5,1.5Zm-6.5-5c-1.654,0-3-1.346-3-3s1.346-3,3-3,3,1.346,3,3-1.346,3-3,3Zm9.5-1.5c-.827,0-1.5-.673-1.5-1.5s.673-1.5,1.5-1.5,1.5.673,1.5,1.5-.673,1.5-1.5,1.5Z"/>
</svg>
