<?xml version="1.0" encoding="UTF-8"?>
<svg xmlns="http://www.w3.org/2000/svg" id="Layer_1" data-name="Layer 1" viewBox="0 0 24 24">
  <path d="m24,13.149c0-.484-.078-.963-.231-1.424l-1.339-4.017c-.341-1.022-1.294-1.709-2.372-1.709h-5.059v12H0v2c0,1.654,1.346,3,3,3,1.043,0,1.962-.535,2.5-1.344.538.809,1.457,1.344,2.5,1.344,1.654,0,3-1.346,3-3v-1h6v1c0,1.654,1.346,3,3,3s3-1.346,3-3v-1h1v-5.851ZM3,22c-1.103,0-2-.897-2-2v-1h4v1c0,1.103-.897,2-2,2Zm7-2c0,1.103-.897,2-2,2s-2-.897-2-2v-1h4v1Zm10.059-13c.646,0,1.218.412,1.423,1.025l1.324,3.975h-6.806v-5h4.059Zm1.941,13c0,1.103-.897,2-2,2s-2-.897-2-2v-1h4v1Zm1-2h-7v-5h6.997c.002.05.003.1.003.149v4.851Z"/>
</svg>
