<?xml version="1.0" encoding="UTF-8"?>
<svg xmlns="http://www.w3.org/2000/svg" id="Layer_1" data-name="Layer 1" width="512" height="512" viewBox="0 0 24 24"><path d="M24,20h-3V2.5c0-1.379-1.122-2.5-2.5-2.5H2.5C1.122,0,0,1.121,0,2.5V21H4.036c.243,1.694,1.704,3,3.464,3s3.221-1.306,3.464-3h13.036v-1ZM1,7H7v4H1V7Zm0,5h7V6H1V2.5c0-.827,.673-1.5,1.5-1.5H18.5c.827,0,1.5,.673,1.5,1.5V20H10.964c-.243-1.694-1.704-3-3.464-3s-3.221,1.306-3.464,3H1V12Zm6.5,11c-1.378,0-2.5-1.121-2.5-2.5s1.122-2.5,2.5-2.5,2.5,1.121,2.5,2.5-1.122,2.5-2.5,2.5ZM17,6h-6v6h6V6Zm-1,5h-4V7h4v4Z"/></svg>
