<?xml version="1.0" encoding="UTF-8"?>
<svg xmlns="http://www.w3.org/2000/svg" id="Layer_1" data-name="Layer 1" viewBox="0 0 24 24" width="512" height="512"><path d="m8,23h4v1h-4v-1ZM23.242,4.436l-10.247,10.286-.651,2.921c-2.588,2.6-6.111,4.213-9.732,4.357H0v-1.588L19.577.762c.979-.982,2.686-.982,3.665,0,1.009,1.014,1.009,2.662,0,3.674Zm-11.254,10.206l-2.497-2.34L1,20.826v.174h1.591c3.302-.132,6.442-1.501,8.84-3.859l.557-2.499ZM22.533,1.467c-.601-.602-1.648-.603-2.249,0l-10.087,10.127,2.329,2.182L22.534,3.73c.621-.624.621-1.639,0-2.264Zm-2.533,21.533v1h4v-1h-4Zm-6,1h4v-1h-4v1Z"/></svg>
