<?xml version="1.0" encoding="UTF-8"?>
<svg xmlns="http://www.w3.org/2000/svg" id="Layer_1" data-name="Layer 1" viewBox="0 0 24 24">
  <path d="m10.939,6.561l-2.577-2.577.707-.707,2.431,2.43V0h1v5.707l2.45-2.45.707.707-2.597,2.596c-.292.292-.676.438-1.061.438s-.768-.146-1.061-.438Zm11.061,3.439v10h2v4h-10.495c1.06,0,2.022-.384,2.792-1h6.704v-2h-5.267c.114-.319.191-.653.229-1h.037v-10h-5.5v2h1.005c1.376,0,2.495,1.119,2.495,2.495v.505h-1v-.505c0-.824-.671-1.495-1.495-1.495h-3.01c-.824,0-1.495.671-1.495,1.495,0,.664.446,1.255,1.084,1.438l4.106,1.173c1.065.305,1.81,1.291,1.81,2.399,0,1.376-1.119,2.495-2.495,2.495h-1.005v2h-1v-2h-1.005c-1.376,0-2.495-1.119-2.495-2.495v-.505h1v.505c0,.824.671,1.495,1.495,1.495h3.01c.824,0,1.495-.671,1.495-1.495,0-.664-.446-1.255-1.085-1.438l-4.105-1.173c-1.065-.305-1.81-1.291-1.81-2.399,0-1.376,1.119-2.495,2.495-2.495h1.005v-2h-5.5v10h.037c.039.347.116.681.229,1H1v2h6.704c.769.616,1.732,1,2.792,1H0v-4h2v-10H0v-2.091c0-1.098.599-2.107,1.563-2.634l4.058-2.204.749.749-4.328,2.333c-.643.351-1.042,1.024-1.042,1.756v1.091h22v-1.091c0-.733-.399-1.406-1.042-1.756l-4.327-2.334.749-.749,4.057,2.205c.965.525,1.563,1.535,1.563,2.634v2.091h-2Zm-17,0h-2v10h2v-10Zm16,0h-2v10h2v-10Z"/>
</svg>
