<?xml version="1.0" encoding="UTF-8"?>
<svg xmlns="http://www.w3.org/2000/svg" id="Layer_1" data-name="Layer 1" viewBox="0 0 24 24" width="512" height="512"><path d="M16.5,13H7.5c-1.378,0-2.5,1.121-2.5,2.5s1.122,2.5,2.5,2.5h6.5v2.5c0,.276,.224,.5,.5,.5s.5-.224,.5-.5v-2.5h1.5c.565,0,1.081-.195,1.5-.513v6.013c0,.276,.224,.5,.5,.5s.5-.224,.5-.5V15.5c0-1.379-1.122-2.5-2.5-2.5Zm-10.5,2.5c0-.827,.673-1.5,1.5-1.5h1.5v3h-1.5c-.827,0-1.5-.673-1.5-1.5Zm4,1.5v-3h4v3h-4Zm6.5,0h-1.5v-3h1.5c.827,0,1.5,.673,1.5,1.5s-.673,1.5-1.5,1.5Zm-8.5-6c-.552,0-1-.448-1-1s.448-1,1-1,1,.448,1,1-.448,1-1,1Zm8,0c-.552,0-1-.448-1-1s.448-1,1-1,1,.448,1,1-.448,1-1,1Zm8,1v9.5c0,.276-.224,.5-.5,.5s-.5-.224-.5-.5V12c0-6.065-4.935-11-11-11S1,5.935,1,12v7.5c0,.276-.224,.5-.5,.5s-.5-.224-.5-.5v-7.5C0,5.383,5.383,0,12,0s12,5.383,12,12Zm-12,11c1.412,0,2.758-.277,4-.764v1.064c-1.253,.445-2.596,.7-4,.7-3.585,0-6.799-1.588-9-4.089v-1.606c1.992,2.835,5.28,4.695,9,4.695Z"/></svg>
