<?xml version="1.0" encoding="UTF-8"?>
<svg xmlns="http://www.w3.org/2000/svg" id="Layer_1" data-name="Layer 1" width="512" height="512" viewBox="0 0 24 24"><path d="M19.5,9.382c-.426-.853-1.283-1.382-2.236-1.382H6.736c-.953,0-1.81,.529-2.236,1.382l-2.286,4.572c-.794,1.588-1.214,3.366-1.214,5.143v2.903H3v2H7v-2h10v2h4v-2h2v-2.903c0-1.776-.42-3.555-1.214-5.143l-2.286-4.572ZM3.108,14.401l2.286-4.572c.256-.512,.77-.829,1.341-.829h10.528c.572,0,1.086,.317,1.342,.829l2.286,4.572c.098,.196,.19,.396,.276,.599H2.833c.086-.202,.177-.402,.276-.599Zm2.892,8.599h-2v-1h2v1Zm14,0h-2v-1h2v1Zm2-2H2v-1.903c0-1.047,.161-2.095,.469-3.097h2.531v2h1v-2h12v2h1v-2h2.531c.309,1.002,.469,2.05,.469,3.097v1.903Zm-1-18h3.024l-.237-.667c-.495-1.396-1.816-2.333-3.287-2.333-1.76,0-3.221,1.306-3.464,3H6.964c-.243-1.694-1.704-3-3.464-3C2.03,0,.709,.938,.212,2.332L-.025,3H3v1H-.025l.237,.668c.497,1.395,1.818,2.332,3.288,2.332,1.76,0,3.221-1.306,3.464-3h10.072c.243,1.694,1.704,3,3.464,3,1.471,0,2.792-.938,3.287-2.333l.237-.667h-3.024v-1ZM3.5,6c-.792,0-1.523-.383-1.987-1h2.487V2H1.513c.463-.617,1.195-1,1.987-1,1.378,0,2.5,1.121,2.5,2.5s-1.122,2.5-2.5,2.5Zm18.987-1c-.464,.617-1.195,1-1.987,1-1.379,0-2.5-1.121-2.5-2.5s1.121-2.5,2.5-2.5c.792,0,1.523,.383,1.987,1h-2.487v3h2.487Z"/></svg>
