<?xml version="1.0" encoding="UTF-8"?>
<svg xmlns="http://www.w3.org/2000/svg" id="Layer_1" data-name="Layer 1" viewBox="0 0 24 24">
  <path d="m17.987,2.28C16.075.575,13.51-.234,10.937.062c-3.992.458-7.293,3.674-7.847,7.647-.413,2.964.595,5.827,2.765,7.853,1.363,1.273,2.146,3.029,2.146,4.816v3.622h8v-3.853c0-1.686.752-3.309,2.118-4.571,1.831-1.694,2.882-4.091,2.882-6.576,0-2.563-1.098-5.012-3.013-6.72Zm-2.987,17.867v2.853h-6v-2.622c0-.464-.052-.924-.14-1.378h6.249c-.066.378-.109.76-.109,1.147Zm2.439-5.305c-.987.912-1.695,1.993-2.086,3.158h-6.759c-.407-1.185-1.107-2.281-2.058-3.169-1.928-1.801-2.823-4.347-2.456-6.984.492-3.528,3.424-6.385,6.97-6.792,2.32-.267,4.547.434,6.272,1.972,1.701,1.518,2.678,3.695,2.678,5.973,0,2.24-.909,4.315-2.561,5.842Zm-.939-5.842c0-.274-.03-.551-.094-.85l1.526-.897-1.521-2.586-1.516.892c-.408-.34-.882-.606-1.396-.786v-1.771h-3v1.771c-.515.18-.988.446-1.396.786l-1.516-.892-1.521,2.586,1.526.897c-.063.299-.094.576-.094.85s.03.551.094.85l-1.526.897,1.521,2.586,1.516-.892c.408.34.882.606,1.396.786v1.771h3v-1.771c.515-.18.988-.446,1.396-.786l1.516.892,1.521-2.586-1.526-.897c.063-.299.094-.576.094-.85Zm.063,2.103l-.507.862-1.351-.77c-.542.667-1.315,1.126-2.206,1.255v1.55h-1v-1.55c-.887-.128-1.659-.585-2.2-1.248l-1.356.763-.507-.862,1.335-.751c-.174-.416-.272-.872-.272-1.352,0-.472.096-.922.266-1.333l-1.329-.77.507-.862,1.344.779c.542-.671,1.319-1.134,2.213-1.263v-1.55h1v1.55c.887.128,1.659.585,2.2,1.248l1.356-.763.507.862-1.335.751c.174.416.272.872.272,1.352,0,.476-.097.93-.269,1.344l1.333.759Zm-4.563-4.103c-1.103,0-2,.897-2,2s.897,2,2,2,2-.897,2-2-.897-2-2-2Zm0,3c-.552,0-1-.449-1-1s.448-1,1-1,1,.449,1,1-.448,1-1,1Z"/>
</svg>
