<?xml version="1.0" encoding="UTF-8"?>
<svg xmlns="http://www.w3.org/2000/svg" id="Layer_1" data-name="Layer 1" viewBox="0 0 24 24" width="512" height="512"><path d="m9.5,12c0,1.379,1.122,2.5,2.5,2.5s2.5-1.121,2.5-2.5-1.122-2.5-2.5-2.5-2.5,1.121-2.5,2.5Zm4,0c0,.827-.673,1.5-1.5,1.5s-1.5-.673-1.5-1.5.673-1.5,1.5-1.5,1.5.673,1.5,1.5Zm10.5,0c0,5.182-3.307,9.594-7.917,11.27l.207-1.141c3.94-1.675,6.71-5.584,6.71-10.128,0-6.065-4.935-11-11-11S1,5.935,1,12c0,4.547,2.773,8.458,6.716,10.131l.203,1.139C3.309,21.595,0,17.183,0,12,0,5.383,5.383,0,12,0s12,5.383,12,12Zm-18,0c0,1.54.588,2.942,1.546,4.006-.193.31-.332.65-.421,1.007-1.308-1.273-2.124-3.048-2.124-5.012,0-3.859,3.14-7,7-7s7,3.141,7,7c0,1.958-.81,3.729-2.111,5-.092-.355-.232-.694-.427-1.003.953-1.062,1.538-2.461,1.538-3.997,0-3.309-2.691-6-6-6s-6,2.691-6,6Zm7.969,4.429c-1.085-.354-1.67-.429-1.969-.429s-.879.073-1.956.424c-.715.234-1.148.975-1.009,1.717l1.046,5.859h3.836l1.07-5.897c.126-.71-.321-1.444-1.019-1.674Zm.034,1.497l-.921,5.074h-2.164l-.9-5.039c-.048-.256.097-.508.336-.586,1.039-.339,1.497-.375,1.646-.375s.61.037,1.658.38c.23.075.385.32.345.546Z"/></svg>
