<?xml version="1.0" encoding="UTF-8"?>
<svg xmlns="http://www.w3.org/2000/svg" id="Layer_1" data-name="Layer 1" viewBox="0 0 24 24" width="512" height="512"><path d="m12,0C5.383,0,0,5.383,0,12s5.383,12,12,12,12-5.383,12-12S18.617,0,12,0Zm9.359,6.227l-2.187,2.188c-.372.372-.887.585-1.414.585h-2.758v-2.414l-2.346-2.345-2.932,1.759h-.723v-1.445l-2.341-2.168c1.583-.883,3.404-1.387,5.341-1.387,3.949,0,7.419,2.092,9.359,5.227Zm-5.359,5.688v1.809l-2.566,4.277h-.652l-1-4h-2.781c-.552,0-1-.449-1-1v-1.465l2.303-1.535h3.783l1.914,1.914Zm-4,11.086c-6.065,0-11-4.935-11-11,0-3.758,1.895-7.081,4.778-9.066l2.222,2.057v2.009h2l2.5-1.5,1.5,1.5v2h-4l-3,2v2c0,1.103.897,2,2,2h2l1,4h2l3-5v-2.5l-1.5-1.5h2.258c.79,0,1.563-.32,2.121-.878l1.985-1.986c.727,1.468,1.136,3.119,1.136,4.864,0,6.065-4.935,11-11,11Z"/></svg>
