<?xml version="1.0" encoding="UTF-8"?>
<svg xmlns="http://www.w3.org/2000/svg" id="Layer_1" data-name="Layer 1" viewBox="0 0 24 24" width="512" height="512"><path d="M23.045,8.035l-2.045-1.607V2h-1v3.641L13.545,.567c-.91-.715-2.182-.715-3.09,0L.955,8.035c-.607,.477-.955,1.193-.955,1.965v14H8V14.5c0-.827,.673-1.5,1.5-1.5h5c.827,0,1.5,.673,1.5,1.5v9.5h8V10c0-.772-.348-1.489-.955-1.965Zm-.045,14.965h-6V14.5c0-1.378-1.121-2.5-2.5-2.5h-5c-1.379,0-2.5,1.122-2.5,2.5v8.5H1V10c0-.463,.209-.893,.572-1.179L11.072,1.353c.547-.429,1.309-.429,1.855,0l9.5,7.468c.363,.286,.572,.716,.572,1.179v13Z"/></svg>
