<?xml version="1.0" encoding="UTF-8"?>
<svg xmlns="http://www.w3.org/2000/svg" id="Layer_1" data-name="Layer 1" viewBox="0 0 24 24">
  <path d="m22,23v-11.5c0-1.378-1.122-2.5-2.5-2.5h-7v-2.042c1.417-.239,2.5-1.474,2.5-2.958,0-1.578-2.416-3.523-2.691-3.739l-.309-.243-.309.243c-.275.216-2.691,2.161-2.691,3.739,0,1.484,1.083,2.719,2.5,2.958v2.042h-7c-1.378,0-2.5,1.122-2.5,2.5v11.5H0v1h24v-1h-2ZM10,4c0-.736,1.124-1.946,2-2.698.876.752,2,1.962,2,2.698,0,1.103-.897,2-2,2s-2-.897-2-2Zm-5.5,6h15c.827,0,1.5.673,1.5,1.5v4.348c-.246.101-.498.152-.75.152-1.277,0-2.25-1.333-2.25-2h-1c0,.685-.95,2-2.25,2-1.277,0-2.25-1.333-2.25-2h-1c0,.685-.95,2-2.25,2-1.277,0-2.25-1.333-2.25-2h-1c0,.685-.95,2-2.25,2-.252,0-.503-.052-.75-.154v-4.346c0-.827.673-1.5,1.5-1.5Zm-1.5,6.9c.246.066.497.1.75.1,1.139,0,2.172-.699,2.755-1.559.561.837,1.548,1.559,2.745,1.559,1.139,0,2.172-.699,2.755-1.559.561.837,1.548,1.559,2.745,1.559,1.139,0,2.172-.699,2.755-1.559.561.837,1.548,1.559,2.745,1.559.253,0,.504-.033.75-.099v6.099H3v-6.1Z"/>
</svg>
