<?xml version="1.0" encoding="UTF-8"?>
<svg xmlns="http://www.w3.org/2000/svg" id="Layer_1" data-name="Layer 1" viewBox="0 0 24 24">
  <path d="m21.058,9.817L24,.484l-.835-.484-4.407,8.502c-.857-.315-1.781-.501-2.746-.502h-1.513c-3.037,0-6.058,1.655-8.481,3.361.043-1.237.158-2.469.342-3.657.037-.238.09-.471.157-.702l.324-1.13c2.427-.612,4.158-2.817,4.158-5.356V.016h-.5C7.674.016,6.169,1.318,5.496,2.15,4.813,1.321,3.296.016.5.016h-.5v.5c0,2.13,1.225,4.056,3.104,4.971l-.227.346C1,8.69,0,12.034,0,15.453v3.047c0,3.038,2.462,5.5,5.5,5.5h10.21c4.413,0,8.216-3.447,8.289-7.859.042-2.546-1.115-4.83-2.941-6.323Zm-5.294,13.183H6.57c-3.557,0-5.57-2.015-5.57-4.5v-3.055c0-3.22.942-6.37,2.711-9.061l.911-1.386-.603-.212c-1.641-.577-2.793-2.048-2.989-3.752,2.958.21,3.979,2.143,4.022,2.228l.451.902.447-.906c.043-.087,1.029-2.017,4.021-2.225-.222,1.94-1.677,3.55-3.622,3.925l-.301.059-.508,1.779c-.063.222-.115.447-.151.674-.241,1.529-.37,3.084-.386,4.633-.752.567-1.426,1.114-2.002,1.579v1.317c2.35-2.008,7.5-6,11.5-6v.013l1.512-.013c4.161.003,7.485,3.677,6.927,7.943-.46,3.519-3.627,6.057-7.175,6.057Zm3.237-6c0,.552-.448,1-1,1s-1-.448-1-1,.448-1,1-1,1,.448,1,1Z"/>
</svg>
