<?xml version="1.0" encoding="UTF-8"?>
<svg xmlns="http://www.w3.org/2000/svg" id="Layer_1" data-name="Layer 1" viewBox="0 0 24 24" width="512" height="512"><path d="M24,12c0,6.617-5.383,12-12,12S0,18.617,0,12c0-1.21,.184-2.378,.519-3.48,.298,.148,.611,.268,.942,.347-.296,.994-.461,2.044-.461,3.133,0,6.065,4.935,11,11,11s11-4.935,11-11S18.065,1,12,1c-1.985,0-3.843,.536-5.452,1.459-.13-.315-.276-.615-.439-.902,1.742-.987,3.75-1.557,5.891-1.557,6.617,0,12,5.383,12,12ZM0,4.5C0,2.681,2.062,.631,2.149,.544l.354-.349,.351,.353c.22,.221,2.146,2.206,2.146,3.952,0,1.379-1.122,2.5-2.5,2.5S0,5.879,0,4.5Zm1,0c0,.827,.673,1.5,1.5,1.5s1.5-.673,1.5-1.5c0-.925-.895-2.16-1.503-2.864-.607,.693-1.497,1.916-1.497,2.864Zm7.402,12.698l.596,.803c.013-.01,1.375-1.001,3.002-1.001s2.989,.991,3.002,1.001l.596-.803c-.065-.049-1.633-1.198-3.598-1.198s-3.533,1.149-3.598,1.198Zm1.598-6.198H6v1h4v-1Zm8,0h-4v1h4v-1Z"/></svg>
