<?xml version="1.0" encoding="UTF-8"?>
<svg xmlns="http://www.w3.org/2000/svg" id="Layer_1" data-name="Layer 1" viewBox="0 0 24 24" width="512" height="512"><path d="M12,0C5.38,0,0,5.38,0,12s5.38,12,12,12,12-5.38,12-12S18.62,0,12,0Zm0,23c-6.07,0-11-4.93-11-11S5.93,1,12,1s11,4.93,11,11-4.93,11-11,11ZM3.97,13l.03,.53c.22,3.59,3.35,7.47,8,7.47s7.78-3.86,8.09-7.44l.05-.54H3.97Zm8.17,6.98c.45-1.74,2.01-2.99,3.86-2.99,.52,0,1.03,.1,1.5,.29-1.23,1.53-3.09,2.65-5.36,2.7Zm5.94-3.53c-.65-.3-1.36-.46-2.08-.46-2.38,0-4.37,1.66-4.87,3.94-3.28-.42-5.65-3.19-6.08-5.94h13.96c-.15,.85-.47,1.69-.94,2.46ZM7.5,6c-1.93,0-3.5,1.57-3.5,3.5v1.5h1v-1.5c0-1.3,1-2.35,2.26-2.48-.16,.29-.26,.63-.26,.98,0,1.1,.9,2,2,2,.36,0,.7-.1,1-.27v1.27h1v-1.5c0-1.93-1.57-3.5-3.5-3.5Zm1.5,3c-.55,0-1-.45-1-1,0-.33,.17-.63,.43-.82,.63,.25,1.13,.75,1.38,1.38-.19,.27-.48,.44-.81,.44Zm7.5-3c-1.93,0-3.5,1.57-3.5,3.5v1.5h1v-1.5c0-1.3,1-2.35,2.26-2.48-.16,.29-.26,.63-.26,.98,0,1.1,.9,2,2,2,.36,0,.7-.1,1-.27v1.27h1v-1.5c0-1.93-1.57-3.5-3.5-3.5Zm1.5,3c-.55,0-1-.45-1-1,0-.33,.17-.63,.43-.82,.63,.25,1.13,.75,1.38,1.38-.19,.27-.48,.44-.81,.44Z"/></svg>
