<?xml version="1.0" encoding="UTF-8"?>
<svg xmlns="http://www.w3.org/2000/svg" id="Layer_1" data-name="Layer 1" viewBox="0 0 24 24" width="512" height="512"><path d="m15.937,6.278c.299,1.702-.509,3.4-2.009,4.227-.761.42-1.428,1.647-1.428,2.628v.867h-1v-.867c0-1.341.873-2.912,1.945-3.503,1.144-.631,1.734-1.878,1.507-3.179-.212-1.203-1.2-2.191-2.404-2.403-.901-.156-1.784.074-2.477.654-.681.572-1.071,1.409-1.071,2.298h-1c0-1.185.521-2.301,1.429-3.063.907-.763,2.106-1.085,3.292-.873,1.611.282,2.934,1.604,3.216,3.215Zm-3.937,9.722c-.552,0-1,.448-1,1s.448,1,1,1,1-.448,1-1-.448-1-1-1ZM24,2.5v17.5h-7.032l-3.985,3.295c-.275.245-.626.368-.978.368-.356,0-.716-.126-1.001-.38l-3.898-3.283H0V2.5C0,1.121,1.121,0,2.5,0h19c1.379,0,2.5,1.121,2.5,2.5Zm-1,0c0-.827-.673-1.5-1.5-1.5H2.5c-.827,0-1.5.673-1.5,1.5v16.5h6.471l4.188,3.526c.199.179.485.177.674.009l4.276-3.535h6.392V2.5Z"/></svg>
