<?xml version="1.0" encoding="UTF-8"?>
<svg xmlns="http://www.w3.org/2000/svg" id="Layer_1" data-name="Layer 1" viewBox="0 0 24 24" width="512" height="512"><path d="m2.73,14.207L14.207,2.73l-.354-.354C10.689-.787,5.541-.787,2.377,2.377.844,3.909,0,5.947,0,8.115s.844,4.206,2.377,5.738l.354.354Zm.354-11.123c1.387-1.387,3.209-2.08,5.031-2.08,1.666,0,3.332.579,4.666,1.739L2.743,12.781c-1.127-1.295-1.743-2.933-1.743-4.666,0-1.9.74-3.688,2.084-5.031Zm-.084,16.916c0,.552-.448,1-1,1s-1-.448-1-1,.448-1,1-1,1,.448,1,1Zm11-8c0,.552-.448,1-1,1s-1-.448-1-1,.448-1,1-1,1,.448,1,1Zm6-9c0-.552.448-1,1-1s1,.448,1,1-.448,1-1,1-1-.448-1-1Zm3.354,3.713c-1.532,1.532-3.143,2.298-4.752,2.298s-3.22-.766-4.752-2.298l.707-.707c1.846,1.845,4.746,3.343,8.09,0l.707.707Zm-13.496,10.69c.482,2.044-.239,4.045-2.145,5.95l-.707-.707c1.644-1.644,2.275-3.33,1.878-5.013-.246-1.042-.877-2.077-1.878-3.077l.707-.707c1.134,1.133,1.855,2.329,2.145,3.554Zm8.139,1.916c.059,1.405-.556,2.763-1.828,4.034l-.707-.707c1.065-1.065,1.582-2.171,1.536-3.285-.073-1.748-1.491-2.968-1.505-2.979l.646-.764c.072.062,1.768,1.52,1.858,3.701Zm5.004-5.319c.552,0,1,.448,1,1s-.448,1-1,1-1-.448-1-1,.448-1,1-1Zm1,9c0,.552-.448,1-1,1s-1-.448-1-1,.448-1,1-1,1,.448,1,1Z"/></svg>
