<?xml version="1.0" encoding="UTF-8"?>
<svg xmlns="http://www.w3.org/2000/svg" id="Layer_1" data-name="Layer 1" viewBox="0 0 24 24" width="512" height="512"><path d="m21,20.5v3.5h-1v-3.5c0-1.379-1.122-2.5-2.5-2.5H6.5c-1.378,0-2.5,1.121-2.5,2.5v3.5h-1v-3.5c0-1.93,1.57-3.5,3.5-3.5h11c1.93,0,3.5,1.57,3.5,3.5Zm1-14.5v6h-2v3H4v-3h-2v-6h2v-1.5c0-1.379,1.122-2.5,2.5-2.5h5V0h1v2h5c1.378,0,2.5,1.121,2.5,2.5v1.5h2ZM4,11v-4h-1v4h1Zm15-6.5c0-.827-.673-1.5-1.5-1.5H6.5c-.827,0-1.5.673-1.5,1.5v9.5h14V4.5Zm2,2.5h-1v4h1v-4Zm-10,2c0,1.103-.897,2-2,2s-2-.897-2-2,.897-2,2-2,2,.897,2,2Zm-1,0c0-.552-.449-1-1-1s-1,.448-1,1,.449,1,1,1,1-.448,1-1Zm7,0c0,1.103-.897,2-2,2s-2-.897-2-2,.897-2,2-2,2,.897,2,2Zm-1,0c0-.552-.449-1-1-1s-1,.448-1,1,.449,1,1,1,1-.448,1-1Z"/></svg>
