<?xml version="1.0" encoding="UTF-8"?>
<svg xmlns="http://www.w3.org/2000/svg" id="Layer_1" data-name="Layer 1" viewBox="0 0 24 24">
  <path d="m17.5,19c1.378,0,2.5-1.122,2.5-2.5s-1.122-2.5-2.5-2.5-2.5,1.122-2.5,2.5,1.122,2.5,2.5,2.5Zm0-4c.827,0,1.5.673,1.5,1.5s-.673,1.5-1.5,1.5-1.5-.673-1.5-1.5.673-1.5,1.5-1.5Z"/>
  <path d="m7.5,18.5c1.93,0,3.5-1.57,3.5-3.5s-1.57-3.5-3.5-3.5-3.5,1.57-3.5,3.5,1.57,3.5,3.5,3.5Zm0-6c1.378,0,2.5,1.122,2.5,2.5s-1.122,2.5-2.5,2.5-2.5-1.122-2.5-2.5,1.122-2.5,2.5-2.5Z"/>
  <path d="m13.512.804c-1.663-1.108-3.83-1.068-5.393.1C2.667,4.98,1.05,10.534.984,10.768h.002c-.487,1.298-.986,3.138-.986,5.232,0,2.372.641,4.42,1.179,5.719.573,1.386,1.918,2.281,3.428,2.281h6.393v-1c0-1.103.897-2,2-2s2,.897,2,2v1h9v-15.758L13.512.804Zm-4.794.901c.63-.471,1.388-.707,2.151-.707.72,0,1.446.21,2.076.63l8.985,6.372H4.607c-.524,0-1.029.108-1.488.307,1.011-1.909,2.766-4.484,5.599-6.602Zm14.282,21.295h-7c0-1.654-1.346-3-3-3s-3,1.346-3,3h-5.393c-1.104,0-2.086-.653-2.504-1.663-.503-1.216-1.103-3.129-1.103-5.337s.6-4.121,1.103-5.337c.418-1.01,1.401-1.663,2.504-1.663h18.393v14Z"/>
</svg>
