<?xml version="1.0" encoding="UTF-8"?>
<svg xmlns="http://www.w3.org/2000/svg" id="Layer_1" data-name="Layer 1" viewBox="0 0 24 24" width="512" height="512"><path d="m24,4v1h-4v4h-1v-4h-4v-1h4V0h1v4h4Zm-6.473,9.837l5.68,5.679-2.88,2.879c-1.032,1.035-2.432,1.604-3.94,1.604C9.188,24,0,14.812,0,7.614c0-1.509.57-2.909,1.604-3.941L4.483.793l5.68,5.679-3.372,3.373c1.49,3.511,3.964,5.988,7.359,7.369l3.377-3.376Zm4.266,5.679l-4.266-4.265-3.131,3.13c-3.896-1.382-7.05-4.255-8.782-8.774l3.135-3.135L4.483,2.208l-2.172,2.172c-.846.844-1.312,1.993-1.312,3.234,0,6.615,8.771,15.386,15.387,15.386,1.241,0,2.389-.466,3.233-1.311l2.173-2.173Z"/></svg>
