<?xml version="1.0" encoding="UTF-8"?>
<svg xmlns="http://www.w3.org/2000/svg" id="Layer_1" data-name="Layer 1" viewBox="0 0 24 24">
  <path d="m21.5,3H2.5c-1.379,0-2.5,1.122-2.5,2.5v15.5h1.707l3.321-3.321,3.543,3.543,3.452-3.482,3.478,3.481,3.506-3.506,3.286,3.286h1.707V5.5c0-1.378-1.121-2.5-2.5-2.5Zm-2.167,1l2.461,2.461-2.875,2.9-2.787-2.787,2.574-2.574h.626Zm-10.018,2.609l2.609-2.609h.22l2.574,2.574-2.719,2.719-2.684-2.684Zm1.977,3.391l-2.796,2.796-2.683-2.685,2.795-2.795,2.684,2.684Zm4.133-2.719l2.79,2.79-2.707,2.731-2.802-2.802,2.719-2.719Zm1.867-3.281l-1.867,1.867-1.867-1.867h3.734Zm-6.782,0l-1.902,1.902-1.902-1.902h3.804Zm-5.218,0l2.609,2.609-2.794,2.794-2.901-2.903,2.5-2.5h.586Zm-4.293,1.5c0-.827.673-1.5,1.5-1.5h.793l-2.293,2.293v-.793Zm0,1.207l3.4,3.403-3.4,3.4v-6.804Zm.293,13.293h-.293v-6.349l3.321,3.321-3.028,3.028Zm3.735-3.735l-2.684-2.684,2.763-2.763,2.683,2.685-2.762,2.762Zm3.539,3.539l-2.832-2.832,2.762-2.762,2.819,2.821-2.749,2.772Zm3.452-3.482l-2.816-2.818,2.796-2.796,2.805,2.805-2.785,2.809Zm3.481,3.484l-2.774-2.776,2.785-2.81,2.788,2.788-2.799,2.799Zm.715-6.297l2.707-2.731,2.803,2.803-2.719,2.719-2.791-2.791Zm6.784,6.491h-.293l-2.993-2.993,3.286-3.286v6.279Zm0-6.559l-3.373-3.373,3.373-3.403v6.776Zm0-7.188l-2.253-2.253h.753c.827,0,1.5.673,1.5,1.5v.753Z"/>
</svg>
