<?xml version="1.0" encoding="UTF-8"?>
<svg xmlns="http://www.w3.org/2000/svg" id="Layer_1" data-name="Layer 1" viewBox="0 0 24 24" width="512" height="512"><path d="M21.513,11l1.592-4.976-3.902-1.24,.66-3.905L14.934,.038l-.332,1.962h-5.205L9.066,.038,4.137,.88l.66,3.905L.895,6.024l1.592,4.976H.058l2.037,10.957c.22,1.184,1.254,2.043,2.458,2.043h14.916c1.202,0,2.236-.857,2.457-2.039l2.056-10.961h-2.468Zm.334-4.326l-1.384,4.326h-2.311l.882-5.219,2.813,.893Zm-3.137-4.977l-1.573,9.303h-2.138V5.652l.753-4.46,2.957,.505Zm-8.71,1.303h4V11h-4V3Zm-1.753-1.808l.753,4.46v5.348h-2.138L5.29,1.697l2.957-.505ZM2.153,6.674l2.813-.893,.882,5.219H3.537l-1.384-4.326Zm18.79,15.103c-.133,.709-.753,1.224-1.475,1.224H4.553c-.722,0-1.343-.516-1.475-1.226L1.261,12H22.776l-1.833,9.776Z"/></svg>
