<?xml version="1.0" encoding="UTF-8"?>
<svg xmlns="http://www.w3.org/2000/svg" id="Layer_1" data-name="Layer 1" width="512" height="512" viewBox="0 0 24 24"><path d="M12,1C5.383,1,0,6.383,0,13c0,3.911,1.949,7.616,5.212,9.909l.129,.091h13.316l.129-.091c3.265-2.293,5.213-5.997,5.213-9.909,0-6.617-5.383-12-12-12Zm6.34,21H5.66c-2.878-2.085-4.66-5.519-4.66-9C1,6.935,5.935,2,12,2s11,4.935,11,11c0,3.481-1.782,6.916-4.66,9ZM6.343,7.343c.783-.783,1.689-1.369,2.657-1.759v1.1c-.705,.334-1.367,.784-1.95,1.366-2.729,2.729-2.729,7.171,0,9.9l-.707,.707c-3.119-3.119-3.119-8.195,0-11.314Zm11.314,11.314l-.707-.707c2.729-2.729,2.729-7.171,0-9.9-.582-.582-1.245-1.032-1.95-1.366v-1.1c.968,.39,1.874,.976,2.657,1.759,3.118,3.119,3.118,8.195,0,11.314Zm-5.157-7.594V5h-1v6.063c-.862,.223-1.5,1.007-1.5,1.937,0,1.103,.897,2,2,2s2-.897,2-2c0-.93-.638-1.714-1.5-1.937Zm-.5,2.937c-.551,0-1-.448-1-1s.449-1,1-1,1,.448,1,1-.449,1-1,1Z"/></svg>
