<?xml version="1.0" encoding="UTF-8"?>
<svg xmlns="http://www.w3.org/2000/svg" id="Layer_1" data-name="Layer 1" viewBox="0 0 24 24" width="512" height="512"><path d="m18.5,0H5.5c-1.379,0-2.5,1.122-2.5,2.5v21.5h18V2.5c0-1.378-1.121-2.5-2.5-2.5Zm1.5,23H4V2.5c0-.827.673-1.5,1.5-1.5h13c.827,0,1.5.673,1.5,1.5v20.5Zm-8-12c-2.757,0-5,2.243-5,5s2.243,5,5,5,5-2.243,5-5-2.243-5-5-5Zm0,9c-2.206,0-4-1.794-4-4s1.794-4,4-4,4,1.794,4,4-1.794,4-4,4Zm1.5-4c0,.828-.672,1.5-1.5,1.5s-1.5-.672-1.5-1.5.672-1.5,1.5-1.5,1.5.672,1.5,1.5Zm2-12h-7c-.827,0-1.5.673-1.5,1.5v2c0,.827.673,1.5,1.5,1.5h7c.827,0,1.5-.673,1.5-1.5v-2c0-.827-.673-1.5-1.5-1.5Zm.5,3.5c0,.276-.225.5-.5.5h-7c-.275,0-.5-.224-.5-.5v-2c0-.276.225-.5.5-.5h7c.275,0,.5.224.5.5v2Z"/></svg>
