<?xml version="1.0" encoding="UTF-8"?>
<svg xmlns="http://www.w3.org/2000/svg" id="Layer_1" data-name="Layer 1" viewBox="0 0 24 24" width="512" height="512"><path d="M19,6.379v5.121h-6.5V5h5.121L13.061,.439c-.566-.566-1.555-.566-2.121,0L6.379,5h5.121v6.5H5V6.379L.439,10.939c-.283,.283-.439,.66-.439,1.061s.156,.777,.439,1.061l4.561,4.561v-5.121h6.5v6.5H6.379l4.561,4.561c.283,.283,.66,.439,1.061,.439s.777-.156,1.061-.439l4.561-4.561h-5.121v-6.5h6.5v5.121l4.561-4.561c.283-.283,.439-.66,.439-1.061s-.156-.777-.439-1.061l-4.561-4.561ZM11.646,1.146c.189-.188,.518-.188,.707,0l2.854,2.854h-6.414l2.854-2.854ZM4,15.207l-2.854-2.854c-.094-.095-.146-.22-.146-.354s.052-.259,.146-.354l2.854-2.854v6.414Zm8.354,7.646c-.189,.189-.518,.189-.707,0l-2.854-2.854h6.414l-2.854,2.854Zm10.5-10.5l-2.854,2.854v-6.414l2.854,2.854c.094,.095,.146,.22,.146,.354s-.052,.259-.146,.354Z"/></svg>
