<?xml version="1.0" encoding="UTF-8"?>
<svg xmlns="http://www.w3.org/2000/svg" id="Layer_1" data-name="Layer 1" viewBox="0 0 24 24" width="512" height="512"><path d="M23.268,8.097L15.879,.707c-.946-.945-2.593-.945-3.536,0L.707,12.343c-.975,.975-.975,2.562,0,3.536l7.389,7.389c.472,.473,1.1,.732,1.768,.732s1.295-.26,1.768-.732l11.636-11.636c.473-.473,.732-1.101,.732-1.768s-.26-1.296-.732-1.768ZM13.051,1.414c.283-.283,.659-.439,1.061-.439s.777,.156,1.061,.439l3.322,3.322-3.025,3.025L11.086,3.379l1.965-1.965Zm-1.083,11.261l4.421,4.421-2.793,2.793-4.417-4.425,2.789-2.789Zm-3.495,2.081l-4.378-4.386,2.784-2.784,4.382,4.382-2.788,2.788Zm4.202-2.788l2.793-2.793,4.421,4.421-2.793,2.793-4.421-4.421Zm-.707-.707L7.586,6.879l2.793-2.793,4.382,4.382-2.793,2.793ZM1.414,13.05l1.973-1.973,4.378,4.386-3.03,3.03-3.321-3.321c-.584-.585-.584-1.537,0-2.122Zm9.511,9.511c-.568,.567-1.554,.565-2.122,0l-3.361-3.36,3.029-3.029,4.417,4.425-1.965,1.965Zm11.636-11.636l-1.964,1.964-4.421-4.421,3.025-3.025,3.36,3.361c.283,.283,.439,.659,.439,1.061s-.156,.777-.439,1.061Z"/></svg>
