<?xml version="1.0" encoding="UTF-8"?>
<svg xmlns="http://www.w3.org/2000/svg" id="Layer_1" data-name="Layer 1" viewBox="0 0 24 24">
  <path d="m21,4v16h3V4h-3Zm2,15h-1V5h1v14Zm-6,1h3V4h-3v16Zm1-15h1v14h-1V5Zm-5.305,3.603c-.274-.364-.705-.603-1.195-.603H3.652l.952-1.2c.604-.724.506-1.801-.219-2.404-.319-.266-.707-.396-1.092-.396-.489,0-.975.209-1.312.614l-1.982,2.752v1.651l2.768-3.784c.134-.149.324-.233.526-.233.116,0,.289.028.452.164.299.25.34.696.075,1.014l-1.321,1.665v1.157h9c.275,0,.5.225.5.5s-.225.5-.5.5h-4.33l-3,7H0v1h4.83l3-7h3.67c.174,0,.339-.036.495-.091l-2.533,8.342,2.871.872,4.647-15.311-2.87-.872-1.415,4.662Zm3.037-3.124l-4.065,13.396-.957-.29,4.066-13.396.956.29Z"/>
</svg>
