<?xml version="1.0" encoding="UTF-8"?>
<svg xmlns="http://www.w3.org/2000/svg" id="Layer_1" data-name="Layer 1" viewBox="0 0 24 24">
  <path d="m18,17.293l1.854,1.854-.707.707-2.146-2.146v-3.707h1v3.293Zm6,.207c0,3.584-2.916,6.5-6.5,6.5s-6.5-2.916-6.5-6.5,2.916-6.5,6.5-6.5,6.5,2.916,6.5,6.5Zm-1,0c0-3.033-2.468-5.5-5.5-5.5s-5.5,2.467-5.5,5.5,2.468,5.5,5.5,5.5,5.5-2.467,5.5-5.5Zm-22,.5V2.5c0-.827.673-1.5,1.5-1.5h18c.827,0,1.5.673,1.5,1.5v7.798c.351.22.686.46,1,.727V2.5c0-1.378-1.121-2.5-2.5-2.5H2.5C1.121,0,0,1.122,0,2.5v16.5h9.14c-.058-.327-.095-.661-.115-1H1Zm7-4.206V4.65l8.229,4.572-8.229,4.572Zm1-1.699l5.171-2.873-5.171-2.873v5.745Z"/>
</svg>
