<?xml version="1.0" encoding="UTF-8"?>
<svg xmlns="http://www.w3.org/2000/svg" id="Layer_1" data-name="Layer 1" viewBox="0 0 24 24">
  <path d="m8,1c0-.552.448-1,1-1s1,.448,1,1-.448,1-1,1-1-.448-1-1Zm7,1c.552,0,1-.448,1-1s-.448-1-1-1-1,.448-1,1,.448,1,1,1Zm9,21v1H0v-1h2v-7.5c0-1.379,1.122-2.5,2.5-2.5h.5v-3.5c0-1.379,1.122-2.5,2.5-2.5h.174l-.674-2.75c0-.689.561-1.25,1.25-1.25h1.5c.689,0,1.25.561,1.25,1.25l-.672,2.75h2.663l.59-2.954c.122-.606.658-1.046,1.274-1.046h.289c.616,0,1.152.439,1.274,1.045l.601,3.01c1.13.24,1.98,1.245,1.98,2.445v3.5h.5c1.379,0,2.5,1.121,2.5,2.5v7.5h2ZM14.01,7h1.98l-.551-2.759c-.028-.14-.151-.241-.294-.241h-.289c-.143,0-.266.102-.294.242l-.551,2.758Zm-5.307,0h.595l.699-2.795c-.021-.116-.124-.205-.246-.205h-1.5c-.123,0-.225.089-.246.205l.699,2.795Zm-2.703,6h12v-3.5c0-.827-.673-1.5-1.5-1.5H7.5c-.827,0-1.5.673-1.5,1.5v3.5Zm-3,2.5v3.346c.247.102.498.154.75.154,1.3,0,2.25-1.315,2.25-2h1c0,.667.973,2,2.25,2,1.3,0,2.25-1.315,2.25-2h1c0,.667.973,2,2.25,2,1.3,0,2.25-1.315,2.25-2h1c0,.667.973,2,2.25,2,.253,0,.504-.051.75-.152v-3.348c0-.827-.673-1.5-1.5-1.5H4.5c-.827,0-1.5.673-1.5,1.5Zm0,7.5h18v-3.099c-.246.065-.497.099-.75.099-1.197,0-2.184-.722-2.745-1.559-.583.86-1.616,1.559-2.755,1.559-1.197,0-2.184-.723-2.745-1.559-.583.859-1.616,1.559-2.755,1.559-1.197,0-2.184-.722-2.745-1.559-.582.86-1.615,1.559-2.755,1.559-.253,0-.504-.033-.75-.099v3.099Z"/>
</svg>
