<?xml version="1.0" encoding="UTF-8"?>
<svg xmlns="http://www.w3.org/2000/svg" id="Layer_1" data-name="Layer 1" viewBox="0 0 24 24">
  <path d="m9,11H2c-1.103,0-2,.897-2,2v11h11v-11c0-1.103-.897-2-2-2Zm1,12H1v-10c0-.551.449-1,1-1h7c.551,0,1,.449,1,1v10ZM3,14h5v1H3v-1Zm3,3h2v1h-2v-1Zm-3,0h2v1h-2v-1Zm3,3h2v1h-2v-1Zm-3,0h2v1h-2v-1ZM24,3c0-1.654-1.346-3-3-3H6c-1.654,0-3,1.346-3,3v6h1V3c0-1.103.897-2,2-2s2,.897,2,2v2h12v16.5c0,.827-.673,1.5-1.5,1.5h-5.5v1h5.5c1.378,0,2.5-1.122,2.5-2.5V5h3v-2Zm-1,1h-14v-1c0-.768-.29-1.469-.766-2h12.766c1.103,0,2,.897,2,2v1Z"/>
</svg>
