<?xml version="1.0" encoding="UTF-8"?>
<svg xmlns="http://www.w3.org/2000/svg" id="Layer_1" data-name="Layer 1" viewBox="0 0 24 24">
  <path d="m19.389,19.519l.707.707-3.202,3.203c-.384.384-.889.576-1.394.576s-1.01-.192-1.394-.576l-3.202-3.203.707-.707,3.202,3.203c.057.057.12.106.187.146v-9.868h1v9.868c.066-.04.129-.088.187-.146l3.202-3.203Zm-1.597-12.311c-.827-3.617-4.051-6.208-7.792-6.208C5.589,1,2,4.589,2,9c0,1.272.308,2.526.894,3.659-1.774.953-2.894,2.797-2.894,4.841,0,3.033,2.468,5.5,5.5,5.5h5.349l-1-1h-4.35c-2.481,0-4.5-2.019-4.5-4.5,0-1.826,1.093-3.458,2.783-4.157l.539-.223-.303-.499c-.667-1.097-1.02-2.35-1.02-3.622,0-3.86,3.141-7,7-7,3.372,0,6.265,2.406,6.878,5.722l.062.338.338.062c3.315.612,5.722,3.505,5.722,6.877,0,.974-.196,1.916-.582,2.8-.191.437-.436.836-.704,1.216l.714.714c.349-.473.664-.976.906-1.53.442-1.011.666-2.088.666-3.2,0-3.741-2.591-6.966-6.208-7.792Z"/>
</svg>
