<?xml version="1.0" encoding="UTF-8"?>
<svg xmlns="http://www.w3.org/2000/svg" id="Layer_1" data-name="Layer 1" viewBox="0 0 24 24" width="512" height="512"><path d="M23.096,16.193l-2.909-2.909c-.057-.057-.12-.106-.187-.146v10.862h-1V13.138c-.066,.04-.129,.088-.187,.146l-2.871,2.871-.707-.707,2.871-2.871c.768-.769,2.02-.769,2.787,0l2.909,2.909-.707,.707Zm-16.096,2.807h10v1H4.5c-.827,0-1.5,.673-1.5,1.5s.673,1.5,1.5,1.5h12.5v1H4.5c-1.379,0-2.5-1.122-2.5-2.5V2.5C2,1.122,3.121,0,4.5,0H20.5c.827,0,1.5,.673,1.5,1.5V11.562l-.045-.045c-.279-.28-.609-.484-.955-.651V1.5c0-.276-.225-.5-.5-.5H7V19ZM6,1h-1.5c-.827,0-1.5,.673-1.5,1.5V19.501c.418-.315,.938-.501,1.5-.501h1.5V1Z"/></svg>
