<?xml version="1.0" encoding="UTF-8"?>
<svg xmlns="http://www.w3.org/2000/svg" id="Layer_1" data-name="Layer 1" viewBox="0 0 24 24">
  <path d="m20,15c.552,0,1,.448,1,1s-.448,1-1,1-1-.448-1-1,.448-1,1-1Zm2-7v1h1v14H3c-1.103,0-2-.897-2-2v-12.513c.419.317.935.513,1.5.513h14.5v-1H2.5c-.827,0-1.5-.673-1.5-1.5s.673-1.5,1.5-1.5h10.5v-1H2.5C1.292,4,.283,4.86.051,6h-.051v15c0,1.654,1.346,3,3,3h21V8h-2Zm-3-6.721v7.721h1V1.318l3.017,3.016.707-.707-3.183-3.182c-.584-.585-1.537-.585-2.121,0l-3.182,3.182.707.707,3.055-3.055Z"/>
</svg>
