<?xml version="1.0" encoding="UTF-8"?>
<svg xmlns="http://www.w3.org/2000/svg" id="Layer_1" data-name="Layer 1" viewBox="0 0 24 24">
  <path d="m8.525,11.025h2.414l1.061,1.767,1.061-1.767h2.414l-1.207-2.012,1.208-2.012h-2.415l-1.061-1.768-1.061,1.768h-2.415l1.208,2.012-1.207,2.012Zm1.766-3.024h1.214l.494-.824.494.824h1.214l-.607,1.012.607,1.012h-1.215l-.494.824-.494-.824h-1.215l.607-1.012-.607-1.012Zm10.181,1.92l-2.472,1.724v-7.014L12,.043l-6,4.588v7.014l-2.472-1.724-3.528,2.646v11.433h3v-3.5c0-.276.224-.5.5-.5s.5.224.5.5v3.5h16v-3.5c0-.276.224-.5.5-.5s.5.224.5.5v3.5h3v-11.433l-3.528-2.646ZM12,1.302l5,3.823v17.875h-2v-5c0-1.654-1.346-3-3-3s-3,1.346-3,3v5h-2V5.125l5-3.823Zm2,21.698h-4v-5c0-1.103.897-2,2-2s2,.897,2,2v5Zm-10.5-4c-.827,0-1.5.673-1.5,1.5v2.5h-1v-9.933l2.549-1.912,2.451,1.709v10.135h-1v-2.5c0-.827-.673-1.5-1.5-1.5Zm19.5,4h-1v-2.5c0-.827-.673-1.5-1.5-1.5s-1.5.673-1.5,1.5v2.5h-1v-10.135l2.451-1.709,2.549,1.912v9.933Zm-18.75-5.5h-1.5v-2.25c0-.414.336-.75.75-.75s.75.336.75.75v2.25Zm15.5-2.25c0-.414.336-.75.75-.75s.75.336.75.75v2.25h-1.5v-2.25Z"/>
</svg>
