<?xml version="1.0" encoding="UTF-8"?>
<svg xmlns="http://www.w3.org/2000/svg" id="Layer_1" data-name="Layer 1" viewBox="0 0 24 24" width="512" height="512"><path d="M21.5,4h-3.5v-1.5c0-1.38-1.12-2.5-2.5-2.5H2.5C1.12,0,0,1.12,0,2.5v15.86c0,.61,.33,1.17,.87,1.45,.24,.13,.51,.2,.78,.2,.32,0,.64-.09,.91-.28l3.44-2.29v3.57h11.35l4.09,2.73c.28,.18,.59,.28,.91,.28,.27,0,.53-.06,.78-.2,.54-.29,.87-.84,.87-1.45V6.5c0-1.38-1.12-2.5-2.5-2.5ZM2.01,18.89c-.2,.14-.45,.15-.67,.03-.21-.11-.34-.33-.34-.57V2.5c0-.83,.67-1.5,1.5-1.5H15.5c.83,0,1.5,.67,1.5,1.5v13.5H6.35l-4.34,2.89Zm20.99,3.46c0,.24-.13,.46-.34,.57-.21,.12-.46,.1-.67-.03l-4.34-2.89H7v-3h11V5h3.5c.83,0,1.5,.67,1.5,1.5v15.86ZM7.9,13c-1.32,0-2.4-1.07-2.4-2.39v-.61h1v.61c0,.77,.63,1.39,1.4,1.39h2.21c.77,0,1.39-.63,1.39-1.39,0-.68-.49-1.26-1.17-1.38l-2.83-.47c-1.16-.19-2-1.19-2-2.36,0-1.32,1.07-2.39,2.4-2.39h.6v-1h1v1h.61c1.32,0,2.39,1.07,2.39,2.39v.61h-1v-.61c0-.77-.63-1.39-1.39-1.39h-2.21c-.77,0-1.4,.63-1.4,1.39,0,.68,.49,1.26,1.17,1.38l2.83,.47c1.16,.19,2,1.19,2,2.36,0,1.32-1.07,2.39-2.39,2.39h-.61v1h-1v-1h-.6Z"/></svg>
