<?xml version="1.0" encoding="UTF-8"?>
<svg xmlns="http://www.w3.org/2000/svg" id="Layer_1" data-name="Layer 1" viewBox="0 0 24 24" width="512" height="512"><path d="M12,0C5.383,0,0,5.383,0,12s5.383,12,12,12,12-5.383,12-12S18.617,0,12,0Zm0,23c-6.065,0-11-4.935-11-11S5.935,1,12,1s11,4.935,11,11-4.935,11-11,11Zm-3-12c0,.552-.448,1-1,1s-1-.448-1-1,.448-1,1-1,1,.448,1,1Zm7,1c-.552,0-1-.448-1-1s.448-1,1-1,1,.448,1,1-.448,1-1,1Zm-10.738-2.991l-.844-.535c.949-1.499,2.378-2.687,4.131-3.434l.393,.92c-1.566,.667-2.838,1.722-3.68,3.049Zm14.382-.543l-.834,.552c-.877-1.327-2.176-2.384-3.756-3.058l.393-.92c1.761,.751,3.212,1.936,4.197,3.426Zm-7.642,4.534h-.013c-4.3,0-5.9,4.92-5.966,5.129l-.276,.875,.886-.243c.027-.007,2.805-.762,5.362-.762s5.345,.754,5.373,.762l.886,.242-.277-.876c-.066-.209-1.676-5.128-5.975-5.128Zm-.007,4c-1.766,0-3.583,.329-4.659,.564,.62-1.29,2.079-3.564,4.653-3.564h.013c2.565,0,4.032,2.273,4.658,3.564-1.079-.236-2.899-.564-4.665-.564Z"/></svg>
