<?xml version="1.0" encoding="UTF-8"?>
<svg xmlns="http://www.w3.org/2000/svg" id="Layer_1" data-name="Layer 1" viewBox="0 0 24 24" width="512" height="512"><path d="M16.827,0L8.256,24h-1.095L15.733,0h1.095ZM7.586,17.675L11.855,6h-1.058l-4.152,11.337c-.145,.403-.514,.663-.94,.663s-.796-.261-.939-.661L1.057,6H-.019l3.842,11.674c.289,.806,1.027,1.326,1.882,1.326s1.593-.521,1.882-1.325Zm13.891-2.675h-6.967l-1.308,4h-1.077l3.842-11.674c.289-.806,1.027-1.326,1.882-1.326s1.593,.521,1.882,1.325l4.268,11.675h-1.058l-1.465-4Zm-.366-1l-2.321-6.337c-.145-.403-.514-.663-.94-.663s-.796,.261-.939,.661l-2.073,6.339h6.273Z"/></svg>
