<?xml version="1.0" encoding="UTF-8"?>
<svg xmlns="http://www.w3.org/2000/svg" id="Layer_1" data-name="Layer 1" viewBox="0 0 24 24">
  <path d="m17,15c-4.188,0-6.33,3.499-6.849,4.5.52,1.001,2.661,4.5,6.849,4.5s6.33-3.499,6.849-4.5c-.52-1.001-2.661-4.5-6.849-4.5Zm0,8c-3.302,0-5.033-2.288-5.717-3.5.685-1.212,2.415-3.5,5.717-3.5s5.033,2.288,5.717,3.5c-.685,1.212-2.415,3.5-5.717,3.5Zm-8-12.5h11v1h-11v-1Zm8,7c-1.103,0-2,.897-2,2s.897,2,2,2,2-.897,2-2-.897-2-2-2Zm0,3c-.551,0-1-.448-1-1s.449-1,1-1,1,.448,1,1-.449,1-1,1ZM6,5.5c0,.552-.448,1-1,1s-1-.448-1-1,.448-1,1-1,1,.448,1,1Zm0,5.5c0,.552-.448,1-1,1s-1-.448-1-1,.448-1,1-1,1,.448,1,1Zm14-5h-11v-1h11v1Zm-14,10.5c0,.552-.448,1-1,1s-1-.448-1-1,.448-1,1-1,1,.448,1,1ZM24,2.5v13.684c-.292-.327-.624-.66-1-.981V2.5c0-.827-.673-1.5-1.5-1.5H2.5c-.827,0-1.5.673-1.5,1.5v18.5h7.686c.161.279.377.624.653,1H0V2.5C0,1.122,1.122,0,2.5,0h19c1.378,0,2.5,1.122,2.5,2.5Z"/>
</svg>
