<?xml version="1.0" encoding="UTF-8"?>
<svg xmlns="http://www.w3.org/2000/svg" id="Layer_1" data-name="Layer 1" viewBox="0 0 24 24">
  <path d="m5.469,15H0v1h4v2H0v1h4v2H0v1h1c0,1.103.897,2,2,2,.6,0,1.133-.271,1.5-.691.367.42.9.691,1.5.691,1.103,0,2-.897,2-2h2v-1.5l-1.282-3.3c-.534-1.336-1.81-2.2-3.249-2.2Zm-.469,1h.469c1.028,0,1.939.617,2.321,1.571l.172.429h-2.962v-2Zm-2,7c-.552,0-1-.449-1-1h2c0,.551-.448,1-1,1Zm3,0c-.552,0-1-.449-1-1h2c0,.551-.448,1-1,1Zm3-2h-4v-2h3.362l.638,1.596v.404Zm10-9.007l3.535-3.458c.944-.944,1.465-2.2,1.465-3.536s-.521-2.591-1.465-3.536-2.2-1.464-3.535-1.464-2.592.52-3.535,1.464c-.944.944-1.465,2.2-1.465,3.536s.521,2.591,1.469,3.54l3.531,3.454Zm-2.828-9.822c.755-.755,1.76-1.171,2.828-1.171s2.072.416,2.828,1.171,1.172,1.76,1.172,2.829-.416,2.073-1.168,2.825l-2.832,2.77-2.828-2.766c-.756-.755-1.172-1.76-1.172-2.829s.416-2.073,1.172-2.829Zm7.828,16.329c0,1.93-1.57,3.5-3.5,3.5h-8.5v-1h8.5c1.378,0,2.5-1.122,2.5-2.5s-1.122-2.5-2.5-2.5h-9c-1.93,0-3.5-1.57-3.5-3.5s1.57-3.5,3.5-3.5h1.763c.239.341.505.667.807.969l.031.031h-2.602c-1.378,0-2.5,1.122-2.5,2.5s1.122,2.5,2.5,2.5h9c1.93,0,3.5,1.57,3.5,3.5Z"/>
  <circle cx="19.001" cy="4.787" r="1"/>
</svg>
