<?xml version="1.0" encoding="UTF-8"?>
<svg xmlns="http://www.w3.org/2000/svg" id="Layer_1" data-name="Layer 1" viewBox="0 0 24 24">
  <path d="m9,12c3.309,0,6-2.691,6-6S12.309,0,9,0,3,2.691,3,6s2.691,6,6,6Zm0-11c2.757,0,5,2.243,5,5s-2.243,5-5,5-5-2.243-5-5S6.243,1,9,1Zm5,14H4c-1.654,0-3,1.346-3,3v6H0v-6c0-2.206,1.794-4,4-4h10v1Zm9.483-2.633c-.329-.285-.765-.412-1.195-.352l-5,.714c-.734.105-1.288.743-1.288,1.485v5.287c-.418-.315-.938-.501-1.5-.501-1.378,0-2.5,1.122-2.5,2.5s1.122,2.5,2.5,2.5c1.207,0,2.217-.86,2.45-2h.05v-7.786c0-.247.185-.46.429-.495l5-.714c.147-.021.288.021.398.117.111.097.172.23.172.377v5.001c-.418-.315-.938-.501-1.5-.501-1.378,0-2.5,1.122-2.5,2.5s1.122,2.5,2.5,2.5c1.207,0,2.217-.86,2.45-2h.05v-7.5c0-.435-.188-.848-.517-1.133Zm-8.983,10.633c-.827,0-1.5-.673-1.5-1.5s.673-1.5,1.5-1.5,1.5.673,1.5,1.5-.673,1.5-1.5,1.5Zm7-1c-.827,0-1.5-.673-1.5-1.5s.673-1.5,1.5-1.5,1.5.673,1.5,1.5-.673,1.5-1.5,1.5Z"/>
</svg>
