<?xml version="1.0" encoding="UTF-8"?>
<svg xmlns="http://www.w3.org/2000/svg" id="Layer_1" data-name="Layer 1" viewBox="0 0 24 24">
  <path d="m13.061,8.39c-.585-.584-1.536-.584-2.121,0l-3.55,3.55c-.585.585-.585,1.536,0,2.121l3.55,3.55c.292.292.676.438,1.061.438s.768-.146,1.061-.438l3.55-3.55c.585-.585.585-1.536,0-2.121l-3.55-3.55Zm2.843,4.964l-3.55,3.55c-.195.195-.512.195-.707,0l-3.55-3.55c-.195-.195-.195-.512,0-.707l3.55-3.55c.098-.098.226-.146.354-.146s.256.049.354.146l3.55,3.55c.195.195.195.512,0,.707ZM19.318,0H4.682C2.1,0,0,2.101,0,4.682c0,1.525.743,2.93,2,3.811v15.508h20v-15.508c1.257-.881,2-2.285,2-3.811,0-2.581-2.1-4.682-4.682-4.682Zm1.919,7.797l-.237.146v15.057H3V7.943l-.237-.146c-1.104-.681-1.763-1.846-1.763-3.115,0-2.03,1.651-3.682,3.682-3.682h14.637c2.03,0,3.682,1.651,3.682,3.682,0,1.27-.659,2.435-1.763,3.115Z"/>
</svg>
