<?xml version="1.0" encoding="UTF-8"?>
<svg xmlns="http://www.w3.org/2000/svg" id="Layer_1" data-name="Layer 1" viewBox="0 0 24 24">
  <path d="m11,11c0,.552-.448,1-1,1s-1-.448-1-1,.448-1,1-1,1,.448,1,1Zm3-1c-.552,0-1,.448-1,1s.448,1,1,1,1-.448,1-1-.448-1-1-1Zm8-4.773v6.65c0,7.499-7.172,10.968-9.37,11.852l-.648.261-.628-.313c-2.194-1.098-9.354-5.192-9.354-11.8v-6.65c0-1.125.719-2.119,1.788-2.473L12,.031l8.212,2.723c1.069.354,1.788,1.348,1.788,2.473Zm-1,0c0-.693-.443-1.305-1.103-1.523l-7.897-2.619-7.897,2.619c-.659.218-1.103.831-1.103,1.523v6.65c0,6.035,6.96,9.985,9.024,11.018,2.051-.825,8.976-4.145,8.976-11.018v-6.65Zm-4.007,1.748c.01,3.153,0,5.056,0,5.056,0,2.753-2.24,4.993-4.993,4.993s-4.993-2.24-4.993-4.993c0,0-.01-1.899,0-5.056l.003-.847,2.685,1.492c1.445-.764,3.166-.764,4.611,0l2.685-1.492.003.847Zm-.998.85l-1.701.945-.248-.149c-1.285-.773-2.807-.773-4.092,0l-.248.149-1.701-.945c-.004,1.432.002,4.206.002,4.206,0,2.202,1.791,3.993,3.993,3.993s3.993-1.792,3.993-3.993c0,0,.006-2.777.002-4.206Z"/>
</svg>
