<?xml version="1.0" encoding="UTF-8"?>
<svg xmlns="http://www.w3.org/2000/svg" id="Layer_1" data-name="Layer 1" viewBox="0 0 24 24" width="512" height="512"><path d="M17,14.5c0,1.38-1.12,2.5-2.5,2.5h-5c-1.38,0-2.5-1.12-2.5-2.5v-1.5H0v8.5c0,1.38,1.12,2.5,2.5,2.5H21.5c1.38,0,2.5-1.12,2.5-2.5V13h-7v1.5Zm1-.5h5v7.5c0,.83-.67,1.5-1.5,1.5H2.5c-.83,0-1.5-.67-1.5-1.5v-7.5H6v.5c0,1.93,1.57,3.5,3.5,3.5h5c1.93,0,3.5-1.57,3.5-3.5v-.5ZM17,0V1.5c0,1.38-1.12,2.5-2.5,2.5h-5c-1.38,0-2.5-1.12-2.5-2.5V0H0V8.5c0,1.38,1.12,2.5,2.5,2.5H21.5c1.38,0,2.5-1.12,2.5-2.5V0h-7Zm6,8.5c0,.83-.67,1.5-1.5,1.5H2.5c-.83,0-1.5-.67-1.5-1.5V1H6v.5c0,1.93,1.57,3.5,3.5,3.5h5c1.93,0,3.5-1.57,3.5-3.5v-.5h5v7.5Z"/></svg>
