<?xml version="1.0" encoding="UTF-8"?>
<svg xmlns="http://www.w3.org/2000/svg" id="Layer_1" data-name="Layer 1" viewBox="0 0 24 24" width="512" height="512"><path d="M12,5c-1.103,0-2,.897-2,2s.897,2,2,2,2-.897,2-2-.897-2-2-2Zm0,3c-.551,0-1-.448-1-1s.449-1,1-1,1,.448,1,1-.449,1-1,1Zm11.045,.034l-2.045-1.607V2h-1v3.641L13.545,.567c-.91-.717-2.181-.716-3.09,0L.955,8.034c-.607,.478-.955,1.193-.955,1.966v14H9V12h6v12h9V10c0-.772-.348-1.488-.955-1.966ZM1,16h7v3H1v-3Zm0,7v-3h7v3H1Zm7-8H1v-3h7v3Zm15,8h-7v-3h7v3Zm0-4h-7v-3h7v3Zm0-4h-7v-3h7v3Zm0-4H1v-1c0-.463,.209-.893,.573-1.179L11.073,1.353c.546-.428,1.308-.429,1.854,0l9.5,7.468c.364,.286,.573,.716,.573,1.179v1Z"/></svg>
