<?xml version="1.0" encoding="UTF-8"?>
<svg xmlns="http://www.w3.org/2000/svg" id="Layer_1" data-name="Layer 1" viewBox="0 0 24 24">
  <path d="m8,13c2.206,0,4-1.794,4-4s-1.794-4-4-4-4,1.794-4,4,1.794,4,4,4Zm0-7c1.654,0,3,1.346,3,3s-1.346,3-3,3-3-1.346-3-3,1.346-3,3-3Zm7,12.5v5.5h-1v-5.5c0-1.379-1.122-2.5-2.5-2.5H0V5h1v10h10.5c1.93,0,3.5,1.57,3.5,3.5Zm-11-.5h1v6h-1v-6ZM22,0l-6.001.002c-1.103,0-1.999.899-1.999,2.001v7.707c.002.472.259.904.673,1.131.193.105.406.158.619.158.242,0,.483-.067.694-.203l1.728-1.791,6.286-.005V2c0-1.103-.897-2-2-2Zm1,8l-5.714.005-1.879,1.971c-.113.053-.213.009-.254-.012-.045-.025-.151-.1-.151-.254V2.003c-.002-.552.447-1,.998-1.001l6-.002c.552,0,1,.448,1,1v6Z"/>
</svg>
