<?xml version="1.0" encoding="UTF-8"?>
<svg xmlns="http://www.w3.org/2000/svg" id="Layer_1" data-name="Layer 1" viewBox="0 0 24 24" width="512" height="512"><path d="M17.031,6.262l2.771-2.771-2.771-2.771L17.738,.012l2.771,2.771L23.281,.012l.707,.707-2.771,2.771,2.771,2.771-.707,.707-2.771-2.771-2.771,2.771-.707-.707Zm6.969,14.238c0,1.93-1.57,3.5-3.5,3.5s-3.5-1.57-3.5-3.5c0-1.76,1.306-3.221,3-3.464V8h1v9.036c1.694,.243,3,1.704,3,3.464Zm-1,0c0-1.378-1.121-2.5-2.5-2.5s-2.5,1.122-2.5,2.5,1.121,2.5,2.5,2.5,2.5-1.122,2.5-2.5ZM4,6.964v10.072c1.694,.243,3,1.704,3,3.464,0,1.93-1.57,3.5-3.5,3.5s-3.5-1.57-3.5-3.5c0-1.76,1.306-3.221,3-3.464V6.964c-1.694-.243-3-1.704-3-3.464C0,1.57,1.57,0,3.5,0s3.5,1.57,3.5,3.5c0,1.76-1.306,3.221-3,3.464Zm-.5-.964c1.379,0,2.5-1.122,2.5-2.5S4.879,1,3.5,1,1,2.122,1,3.5s1.121,2.5,2.5,2.5Zm0,12c-1.379,0-2.5,1.122-2.5,2.5s1.121,2.5,2.5,2.5,2.5-1.122,2.5-2.5-1.121-2.5-2.5-2.5Z"/></svg>
