<?xml version="1.0" encoding="UTF-8"?>
<svg xmlns="http://www.w3.org/2000/svg" id="Layer_1" data-name="Layer 1" viewBox="0 0 24 24">
  <path d="m6.5,13h1v7h-1v-7Zm5,7h1v-7h-1v7Zm5,0h1v-7h-1v7Zm7.786-11l-1.962,12.75c-.2,1.304-1.303,2.25-2.623,2.25H4.299c-1.32,0-2.423-.946-2.623-2.25L-.286,9h2.312c.059-.867.258-1.711.611-2.513l.895-2.032c.311-.704.468-1.451.468-2.219v-1.236h-1V0h9v1h-1v1.236c0,.768.157,1.515.468,2.219l.896,2.033c.353.801.552,1.644.61,2.512h.107c.427-.911,1.203-2.409,1.203-2.409C16.65,2.017,19.773-.685,21.72.152c.477.207.84.618,1.05,1.188.59,1.601.023,4.52-1.468,7.659h2.985Zm-10.099,0h6.02c1.436-2.934,2.124-5.957,1.624-7.313-.116-.316-.283-.519-.51-.616-.894-.387-2.643.768-4.378,3.113l2.313,1.388-.514.857-2.373-1.424c-.409.619-.812,1.3-1.197,2.045,0,0-.629,1.212-.986,1.95Zm-11.161,0h8.947c-.057-.728-.229-1.436-.525-2.108l-.896-2.034c-.366-.831-.552-1.714-.552-2.621v-1.236h-5v1.236c0,.907-.186,1.79-.552,2.621l-.896,2.033c-.298.674-.47,1.382-.526,2.109Zm20.094,1H.88l1.784,11.598c.125.812.812,1.402,1.635,1.402h15.402c.822,0,1.51-.59,1.635-1.402l1.784-11.598Z"/>
</svg>
