<?xml version="1.0" encoding="UTF-8"?>
<svg xmlns="http://www.w3.org/2000/svg" id="Layer_1" data-name="Layer 1" viewBox="0 0 24 24">
  <path d="m20.593,13.414c1.453-.877,3.407-3.054,3.407-8.414h-1c0,7.405-3.894,7.982-4,8h-4.136L8.5.531l-2.666,12.469h-2.673L5.527,1.934l-.716-1.403-2.666,12.469H0v.5c0,1.416.455,2.727,1.226,3.795L0,23.031h1.016l1.027-4.805c.671.633,1.476,1.125,2.368,1.429l-.722,3.376h1.025l.669-3.128c.363.063.736.096,1.117.096h10.817l1.517,3.031h1.127l-1.517-3.031h5.556v-1.5c0-2.292-1.41-4.261-3.407-5.086Zm-19.571.586h4.598l-.998,4.669c-1.961-.715-3.405-2.515-3.599-4.669Zm21.978,5H6.5c-.309,0-.612-.026-.908-.075l1.053-4.925h5.365l-.508-1h-4.642l2.039-9.531,6.881,13.531h1.127l-1.531-3h3.125c2.481,0,4.5,2.019,4.5,4.5v.5Z"/>
</svg>
