<?xml version="1.0" encoding="UTF-8"?>
<svg xmlns="http://www.w3.org/2000/svg" id="Layer_1" data-name="Layer 1" viewBox="0 0 24 24" width="512" height="512"><path d="M24,4.5c0-1.93-1.57-3.5-3.5-3.5s-3.5,1.57-3.5,3.5c0,1.76,1.306,3.221,3,3.464v9.536c0,.827-.673,1.5-1.5,1.5h-6.157l3.056-3.056-.707-.707-3.256,3.256c-.281,.281-.436,.655-.436,1.053s.155,.771,.436,1.052l3.256,3.256,.707-.707-3.146-3.146h6.247c1.378,0,2.5-1.122,2.5-2.5V7.964c1.694-.243,3-1.704,3-3.464Zm-3.5,2.5c-1.378,0-2.5-1.122-2.5-2.5s1.122-2.5,2.5-2.5,2.5,1.122,2.5,2.5-1.122,2.5-2.5,2.5Zm-7.936-3.553L9.308,.192l-.707,.707,3.102,3.101H5.5c-1.378,0-2.5,1.122-2.5,2.5v9.536c-1.694,.243-3,1.704-3,3.464,0,1.93,1.57,3.5,3.5,3.5s3.5-1.57,3.5-3.5c0-1.76-1.306-3.221-3-3.464V6.5c0-.827,.673-1.5,1.5-1.5h6.203l-3.102,3.101,.707,.707,3.256-3.255c.581-.581,.581-1.525,0-2.105ZM6,19.5c0,1.378-1.122,2.5-2.5,2.5s-2.5-1.122-2.5-2.5,1.122-2.5,2.5-2.5,2.5,1.122,2.5,2.5Z"/></svg>
