<?xml version="1.0" encoding="UTF-8"?>
<svg xmlns="http://www.w3.org/2000/svg" id="Layer_1" data-name="Layer 1" viewBox="0 0 24 24">
  <path d="m12.5,0C6.71,0,2,4.71,2,10.5c0,2.859,1.183,5.574,3.243,7.55l-3.734,3.734,2.207,2.207,5.601-5.601-1.778-1.778c-.356-.82-.539-1.864-.539-3.112,0-4.136,3.364-7.5,7.5-7.5,3.593,0,6.688,2.562,7.358,6.093l.101.407h.843l.065-.424c.09-.588.132-1.089.132-1.576C23,4.71,18.29,0,12.5,0ZM3.716,22.577l-.793-.793,4.187-4.187.793.793-4.187,4.187ZM14.5,5c-4.687,0-8.5,3.813-8.5,8.5,0,1.27.175,2.369.521,3.272l-.581.581c-1.874-1.789-2.939-4.261-2.939-6.854C3,5.262,7.262,1,12.5,1c4.864,0,8.886,3.675,9.436,8.395-1.461-2.649-4.279-4.395-7.436-4.395Z"/>
</svg>
