<?xml version="1.0" encoding="UTF-8"?>
<svg xmlns="http://www.w3.org/2000/svg" id="Layer_1" data-name="Layer 1" width="512" height="512" viewBox="0 0 24 24"><path d="M22.812,17.572c-.496-.24-1.052-.268-1.567-.079-.055,.02-.107,.042-.16,.066-.156-.578-.546-1.085-1.11-1.358-.494-.239-1.052-.267-1.566-.079-.53,.193-.951,.589-1.187,1.115-.849,1.901,1.002,5.151,1.215,5.516l.173,.295,.338-.054c.408-.065,4.009-.694,4.862-2.606,.473-1.058,.025-2.32-.997-2.815Zm.085,2.407c-.484,1.083-2.638,1.731-3.768,1.964-.56-1.05-1.483-3.202-.995-4.297,.124-.276,.343-.484,.616-.583,.113-.042,.23-.062,.348-.062,.15,0,.301,.034,.44,.102,.542,.262,.775,.938,.521,1.506l.912,.408c.124-.277,.343-.484,.615-.584,.259-.095,.539-.081,.789,.04,.541,.262,.774,.938,.521,1.506Zm-3.897-10.479c0-1.378-1.121-2.5-2.5-2.5s-2.5,1.122-2.5,2.5v1.5h5v-1.5Zm-1,.5h-3v-.5c0-.827,.673-1.5,1.5-1.5s1.5,.673,1.5,1.5v.5Zm-8,1H5v-1h5v1Zm4.473,5c.325,.318,.527,.761,.527,1.25,0,.965-.785,1.75-1.75,1.75h-2.25v-1h2.25c.413,0,.75-.336,.75-.75s-.337-.75-.75-.75h-1.25v-1h1.25c.413,0,.75-.336,.75-.75s-.337-.75-.75-.75h-2.25v-1h2.25c.965,0,1.75,.785,1.75,1.75,0,.489-.202,.932-.527,1.25Zm1.468,6.258c.147,.331,.296,.637,.436,.904-1.358,.535-2.831,.838-4.377,.838C5.383,24,0,18.617,0,12S5.383,0,12,0s12,5.383,12,12c0,1.282-.207,2.516-.581,3.675-.316-.127-.64-.211-.971-.254,.354-1.078,.552-2.226,.552-3.421,0-6.065-4.935-11-11-11S1,5.935,1,12s4.935,11,11,11c1.39,0,2.715-.27,3.941-.742Z"/></svg>
