<?xml version="1.0" encoding="UTF-8"?>
<svg xmlns="http://www.w3.org/2000/svg" id="Layer_1" data-name="Layer 1" viewBox="0 0 24 24">
  <path d="m12,0C5.383,0,0,5.383,0,12s5.383,12,12,12,12-5.383,12-12S18.617,0,12,0Zm0,23c-6.065,0-11-4.935-11-11S5.935,1,12,1s11,4.935,11,11-4.935,11-11,11Zm-1.414-3.586c.378.378.88.586,1.414.586s1.036-.208,1.41-.582l6.566-6.418H4.023l6.562,6.414Zm2.121-.707c-.379.377-1.031.381-1.418-.004l-4.812-4.703h11.047l-4.816,4.707Zm.707-14.121c-.756-.756-2.076-.752-2.824-.004l-6.566,6.418h15.953l-6.562-6.414Zm2.461,3.803l1.648,1.611h-3.297l1.648-1.611Zm-3.079,1.611h-2.569l3.648-3.565,1.285,1.255-2.363,2.31Zm-1.503-4.707c.379-.377,1.031-.381,1.418.004l.449.439-4.363,4.265h-2.32l4.816-4.707Z"/>
</svg>
