<?xml version="1.0" encoding="UTF-8"?>
<svg xmlns="http://www.w3.org/2000/svg" id="Layer_1" data-name="Layer 1" viewBox="0 0 24 24" width="512" height="512"><path d="m21,23V5.438c0-1.321-.988-2.441-2.3-2.605l-6.2-.775V0h-1v2.059l-6.201.775c-1.311.164-2.299,1.284-2.299,2.605v17.562H1v1h22v-1h-2ZM5.423,3.826l6.577-.822,6.576.822c.661.083,1.19.558,1.363,1.174H4.06c.173-.616.702-1.092,1.362-1.174Zm-1.423,2.174h16v17H4V6Zm3,4h-1v-2h1v2Zm2,0h-1v-2h1v2Zm6-2h1v2h-1v-2Zm3,0v2h-1v-2h1Zm-11,5h-1v-2h1v2Zm2,0h-1v-2h1v2Zm6-2h1v2h-1v-2Zm-2-3h1v2h-1v-2Zm0,3h1v2h-1v-2Zm-3-3h1v2h-1v-2Zm0,3h1v2h-1v-2Zm7,0h1v2h-1v-2Zm-11,8h4v-4h-4v4Zm1-3h2v2h-2v-2Z"/></svg>
