<?xml version="1.0" encoding="UTF-8"?>
<svg xmlns="http://www.w3.org/2000/svg" id="Layer_1" data-name="Layer 1" viewBox="0 0 24 24">
  <path d="m12,14c1.103,0,2-.897,2-2s-.897-2-2-2c-.37,0-.712.108-1.01.283l-4.637-4.637-.707.707,4.637,4.637c-.176.297-.283.64-.283,1.01,0,1.103.897,2,2,2Zm1-2c0,.552-.449,1-1,1s-1-.448-1-1,.449-1,1-1,1,.448,1,1Zm-5.509,6.94l.654.756-2.713,2.347-.319-.225C1.911,19.567,0,15.897,0,12,0,5.383,5.383,0,12,0s12,5.383,12,12c0,1.985-.501,3.909-1.411,5.619l-.608-1.043c.654-1.42,1.019-2.974,1.019-4.576,0-6.065-4.935-11-11-11S1,5.935,1,12c0,3.442,1.628,6.693,4.374,8.771l2.117-1.831Zm9.509-6.933l6.996,11.992h-4.496v-1h2.754l-5.254-9.008-5.254,9.008h2.754v1h-4.496l6.996-11.992Zm.5,8.992h-1v-4h1v4Zm.5,2c0,.552-.448,1-1,1s-1-.448-1-1,.448-1,1-1,1,.448,1,1Z"/>
</svg>
