<?xml version="1.0" encoding="UTF-8"?>
<svg xmlns="http://www.w3.org/2000/svg" id="Layer_1" data-name="Layer 1" viewBox="0 0 24 24" width="512" height="512"><path d="m6,13h12v5h1V3.5c0-1.379,1.121-2.5,2.5-2.5h1.5V0h-1.5c-1.93,0-3.5,1.57-3.5,3.5v2.5H6v-2.5c0-1.379,1.121-2.5,2.5-2.5h1.5V0h-1.5c-1.93,0-3.5,1.57-3.5,3.5v14.5h1v-5Zm12-6v5H6v-5h12Zm5.978,16.719c-.47.187-.966.281-1.478.281-1.505,0-2.817-.835-3.5-2.065-.683,1.23-1.995,2.065-3.5,2.065s-2.817-.835-3.5-2.065c-.683,1.23-1.995,2.065-3.5,2.065s-2.817-.835-3.5-2.065c-.683,1.23-1.995,2.065-3.5,2.065-.512,0-1.008-.095-1.478-.281l.371-.93c.351.14.723.211,1.106.211,1.654,0,3-1.346,3-3h1c0,1.654,1.346,3,3,3s3-1.346,3-3h1c0,1.654,1.346,3,3,3s3-1.346,3-3h1c0,1.654,1.346,3,3,3,.384,0,.756-.071,1.106-.211l.371.93Z"/></svg>
