<?xml version="1.0" encoding="UTF-8"?>
<svg xmlns="http://www.w3.org/2000/svg" id="Layer_1" data-name="Layer 1" viewBox="0 0 24 24" width="512" height="512"><path d="M16,13c0,.552-.448,1-1,1s-1-.448-1-1,.448-1,1-1,1,.448,1,1Zm-5-1c-.552,0-1,.448-1,1s.448,1,1,1,1-.448,1-1-.448-1-1-1Zm2-3c-.552,0-1,.448-1,1s.448,1,1,1,1-.448,1-1-.448-1-1-1Zm2-1c.552,0,1-.448,1-1s-.448-1-1-1-1,.448-1,1,.448,1,1,1Zm2,1c-.552,0-1,.448-1,1s.448,1,1,1,1-.448,1-1-.448-1-1-1Zm-1,8.059v.569c0,.692-.291,1.36-.798,1.832l-2.702,2.509v2.032h-1v-2.032l-2.701-2.509c-.508-.471-.799-1.139-.799-1.832v-.569c-3.059-1.514-5-4.607-5-8.059C3,4.038,7.038,0,12,0s9,4.038,9,9c0,3.452-1.941,6.545-5,8.059Zm-1-.059h-6v.628c0,.416,.175,.816,.479,1.099l2.521,2.341,2.521-2.341c.304-.283,.479-.684,.479-1.099v-.628Zm5-8c0-4.411-3.589-8-8-8S4,4.589,4,9c0,2.949,1.594,5.603,4.133,7h7.735c2.538-1.397,4.132-4.051,4.132-7Z"/></svg>
