<?xml version="1.0" encoding="UTF-8"?>
<svg xmlns="http://www.w3.org/2000/svg" id="Layer_1" data-name="Layer 1" width="512" height="512" viewBox="0 0 24 24"><path d="M23.988,11.334l-3.095,3.095c-.384,.384-.889,.576-1.394,.576s-1.01-.192-1.394-.576l-3.114-3.114,.707-.707,3.114,3.114c.057,.057,.12,.106,.187,.146V0h1V13.868c.066-.04,.129-.088,.187-.146l3.095-3.095,.707,.707Zm-14.988,6.166c0,1.378-1.121,2.5-2.5,2.5s-2.5-1.122-2.5-2.5c0-1.207,.86-2.217,2-2.45v-2.05h1v2.05c1.14,.232,2,1.242,2,2.45Zm-1,0c0-.827-.673-1.5-1.5-1.5s-1.5,.673-1.5,1.5,.673,1.5,1.5,1.5,1.5-.673,1.5-1.5Zm5,0c0,1.964-.875,3.803-2.4,5.044-1.168,.951-2.616,1.454-4.111,1.454-.456,0-.917-.047-1.376-.142-2.466-.512-4.464-2.517-4.972-4.988-.461-2.245,.232-4.489,1.859-6.049V4.5C2,2.019,4.019,0,6.5,0s4.5,2.019,4.5,4.5V12.819c1.273,1.225,2,2.918,2,4.681Zm-1,0c0-1.554-.668-3.045-1.834-4.091l-.166-.149V4.5c0-1.93-1.57-3.5-3.5-3.5s-3.5,1.57-3.5,3.5V13.26l-.166,.149c-1.478,1.325-2.118,3.29-1.714,5.258,.429,2.086,2.114,3.778,4.195,4.21,1.664,.348,3.361-.057,4.653-1.108,1.291-1.051,2.031-2.606,2.031-4.269Z"/></svg>
