<?xml version="1.0" encoding="UTF-8"?>
<svg xmlns="http://www.w3.org/2000/svg" id="Layer_1" data-name="Layer 1" viewBox="0 0 24 24" width="512" height="512"><path d="M21,8.5c0-1.93-1.57-3.5-3.5-3.5h-5V1.006c3.525,.079,6.318,.962,6.348,.971l.306-.952c-.131-.042-3.231-1.024-7.153-1.024S4.978,.982,4.847,1.024l.307,.951c.029-.009,2.814-.891,6.347-.97v3.994H6.5c-1.93,0-3.5,1.57-3.5,3.5v12.5H7.83l-1.83,3h1.212l1.83-3h5.918l1.83,3h1.212l-1.83-3h4.83V8.5ZM6.5,6h11c1.208,0,2.218,.86,2.45,2H4.05c.232-1.14,1.242-2,2.45-2Zm-2.5,3h7.5v5H4v-5Zm16,11H4v-5h3v1.5c0,.276,.224,.5,.5,.5s.5-.224,.5-.5v-1.5h8v1.5c0,.276,.224,.5,.5,.5s.5-.224,.5-.5v-1.5h3v5Zm0-6h-7.5v-5h7.5v5Z"/></svg>
