<?xml version="1.0" encoding="UTF-8"?>
<svg xmlns="http://www.w3.org/2000/svg" id="Layer_1" data-name="Layer 1" width="512" height="512" viewBox="0 0 24 24"><path d="M4.5,9c.276,0,.5-.224,.5-.5v-1.5h11.782l-.182-.637c-.063-.223-.134-.443-.212-.662l-1.443-4.042c-.354-.993-1.3-1.659-2.354-1.659H4.41c-1.054,0-2,.667-2.354,1.659L.612,5.701c-.406,1.137-.612,2.325-.612,3.531v3.768H2v2h3v-3H1v-2.768c0-.755,.089-1.502,.266-2.232h2.734v1.5c0,.276,.224,.5,.5,.5Zm-.5,4v1h-1v-1h1ZM2.997,1.995c.213-.595,.781-.995,1.413-.995H12.59c.632,0,1.2,.4,1.413,.995l1.43,4.005H1.566L2.997,1.995ZM24,18.232c0-1.206-.206-2.394-.612-3.531l-1.443-4.042c-.354-.993-1.3-1.659-2.354-1.659H11.41c-1.054,0-2,.667-2.354,1.659l-1.443,4.042c-.406,1.137-.612,2.325-.612,3.531v3.768h2v2h3v-2h7v2h3v-2h2v-3.768Zm-14.003-7.237c.213-.595,.781-.995,1.413-.995h8.181c.632,0,1.2,.4,1.413,.995l1.43,4.005H8.566l1.43-4.005Zm1.003,12.005h-1v-1h1v1Zm10,0h-1v-1h1v1Zm2-2H8v-2.768c0-.755,.089-1.502,.266-2.232h2.734v1.5c0,.276,.224,.5,.5,.5s.5-.224,.5-.5v-1.5h7v1.5c0,.276,.224,.5,.5,.5s.5-.224,.5-.5v-1.5h2.734c.177,.73,.266,1.477,.266,2.232v2.768Z"/></svg>
