<?xml version="1.0" encoding="UTF-8"?>
<svg xmlns="http://www.w3.org/2000/svg" id="Layer_1" data-name="Layer 1" width="512" height="512" viewBox="0 0 24 24"><path d="M12,5c-3.859,0-7,3.141-7,7s3.141,7,7,7,7-3.141,7-7-3.141-7-7-7Zm0,13c-3.309,0-6-2.691-6-6s2.691-6,6-6,6,2.691,6,6-2.691,6-6,6Zm1-9c0,.552-.448,1-1,1s-1-.448-1-1,.448-1,1-1,1,.448,1,1Zm3,3c0,.552-.448,1-1,1s-1-.448-1-1,.448-1,1-1,1,.448,1,1Zm-6,0c0,.552-.448,1-1,1s-1-.448-1-1,.448-1,1-1,1,.448,1,1Zm3,3c0,.552-.448,1-1,1s-1-.448-1-1,.448-1,1-1,1,.448,1,1Zm9.579-5.998c-.232-.818-.562-1.608-.982-2.358,.533-.588,.517-1.501-.051-2.068l-2.121-2.121c-.283-.283-.66-.439-1.061-.439h0c-.379,0-.736,.14-1.012,.394-.755-.422-1.544-.751-2.354-.981-.038-.793-.695-1.427-1.498-1.427h-3c-.803,0-1.46,.634-1.498,1.427-.81,.23-1.599,.56-2.354,.981-.276-.254-.633-.394-1.012-.394h0c-.4,0-.777,.156-1.061,.439l-2.121,2.121c-.567,.567-.584,1.48-.051,2.068-.421,.75-.75,1.54-.982,2.358-.79,.041-1.421,.697-1.421,1.498v3c0,.801,.631,1.457,1.421,1.498,.232,.817,.562,1.608,.982,2.358-.251,.275-.389,.631-.389,1.007,0,.4,.156,.778,.439,1.062l2.121,2.121c.283,.283,.66,.439,1.061,.439h0c.379,0,.736-.14,1.012-.394,.755,.422,1.544,.751,2.354,.981,.038,.793,.695,1.427,1.498,1.427h3c.803,0,1.46-.634,1.498-1.427,.81-.23,1.599-.56,2.354-.981,.276,.254,.633,.394,1.012,.394h0c.4,0,.777-.156,1.061-.439l2.121-2.121c.283-.283,.439-.661,.439-1.062,0-.377-.138-.731-.389-1.007,.421-.75,.75-1.541,.982-2.358,.79-.041,1.421-.697,1.421-1.498v-3c0-.801-.631-1.457-1.421-1.498Zm.421,4.498c0,.275-.225,.5-.5,.5h-.699l-.093,.381c-.239,.979-.631,1.919-1.164,2.795l-.205,.335,.5,.5c.095,.095,.146,.22,.146,.353,0,.134-.052,.26-.146,.354l-2.121,2.121c-.095,.095-.22,.146-.354,.146h0c-.133,0-.258-.052-.354-.147l-.504-.501-.334,.202c-.885,.536-1.823,.927-2.79,1.163l-.382,.093v.705c0,.275-.225,.5-.5,.5h-3c-.275,0-.5-.225-.5-.5v-.705l-.382-.093c-.967-.236-1.905-.627-2.79-1.163l-.334-.202-.505,.502c-.095,.095-.22,.146-.353,.146h0c-.134,0-.259-.052-.354-.146l-2.121-2.121c-.095-.095-.146-.221-.146-.354,0-.133,.052-.258,.146-.353l.5-.5-.205-.335c-.533-.876-.925-1.815-1.164-2.795l-.093-.381h-.699c-.275,0-.5-.225-.5-.5v-3c0-.275,.225-.5,.5-.5h.699l.093-.381c.239-.979,.631-1.919,1.164-2.795l.205-.335-.5-.5c-.195-.195-.195-.512,0-.707l2.121-2.121c.095-.095,.22-.146,.354-.146h0c.133,0,.258,.052,.354,.147l.504,.501,.334-.202c.885-.536,1.823-.927,2.79-1.163l.382-.093v-.705c0-.275,.225-.5,.5-.5h3c.275,0,.5,.225,.5,.5v.705l.382,.093c.967,.236,1.905,.627,2.79,1.163l.334,.202,.505-.502c.095-.095,.22-.146,.353-.146h0c.134,0,.259,.052,.354,.146l2.121,2.121c.195,.195,.195,.512,0,.707l-.5,.5,.205,.335c.533,.876,.925,1.815,1.164,2.795l.093,.381h.699c.275,0,.5,.225,.5,.5v3Z"/></svg>
