<?xml version="1.0" encoding="UTF-8"?>
<svg xmlns="http://www.w3.org/2000/svg" id="Layer_1" data-name="Layer 1" viewBox="0 0 24 24">
  <path d="m19.362,13.541c-.76-1.659-1.763-3.179-2.966-4.523l.707-.707c1.299,1.442,2.381,3.077,3.193,4.865l-.933.364Zm-3.674-6.643c-1.442-1.299-3.077-2.381-4.865-3.193l-.364.933c1.659.76,3.179,1.764,4.523,2.967l.707-.707Zm5.312,14.102h1c0-2.084-.35-4.084-.972-5.962l-.931.363c.579,1.764.903,3.643.903,5.598ZM8.962,2.972c-1.878-.623-3.878-.972-5.962-.972v1c1.956,0,3.834.324,5.599.903l.363-.931ZM2.5,23c-.827,0-1.5-.673-1.5-1.5V0H0v21.5c0,1.379,1.122,2.5,2.5,2.5h21.5v-1H2.5Z"/>
</svg>
