<?xml version="1.0" encoding="UTF-8"?>
<svg xmlns="http://www.w3.org/2000/svg" id="Layer_1" data-name="Layer 1" viewBox="0 0 24 24">
  <path d="m17,15c0-2.688,1.23-5.182,3.293-6.671l.561-.405-.561-.405c-1.284-.927-2.768-1.428-4.308-1.493.317-.193.625-.41.901-.686,1.809-1.81,1.612-4.744,1.604-4.868l-.032-.43-.43-.032c-.122-.006-3.059-.204-4.868,1.604-.495.495-.84,1.079-1.085,1.667-.424-1.609-1.05-2.763-1.324-3.265l-.878.479c.379.695,1.477,2.741,1.602,5.506h-3.135c-1.657,0-3.259.525-4.634,1.519l-.561.405.561.405c2.062,1.489,3.293,3.983,3.293,6.671s-1.231,5.182-3.293,6.671l-.561.405.561.405c2.423,1.751,5.669,1.989,8.293.604,1.136.6,2.395.915,3.659.915,1.657,0,3.259-.525,4.634-1.519l.561-.405-.561-.405c-2.062-1.489-3.293-3.983-3.293-6.671Zm-3.133-12.68c1.103-1.103,2.815-1.292,3.629-1.316-.024.813-.214,2.526-1.316,3.629s-2.838,1.32-3.671,1.359c.039-.834.257-2.569,1.359-3.672Zm-1.618,19.761l-.249-.143-.249.143c-2.147,1.232-4.783,1.207-6.896-.042,1.981-1.702,3.146-4.282,3.146-7.039s-1.164-5.337-3.146-7.039c1.068-.631,2.261-.961,3.486-.961h7.318c1.226,0,2.418.33,3.486.961-1.981,1.702-3.146,4.282-3.146,7.039s1.164,5.337,3.146,7.039c-2.115,1.248-4.75,1.273-6.896.042Z"/>
</svg>
