<?xml version="1.0" encoding="UTF-8"?>
<svg xmlns="http://www.w3.org/2000/svg" id="Layer_1" data-name="Layer 1" viewBox="0 0 24 24">
  <path d="m16.862,9c.312,0,.605-.122.822-.339l3.456-3.399-.701-.713-3.459,3.402c-.082.082-.144.092-.241-.006l-1.856-1.799-.695.718,1.851,1.793c.22.221.513.342.824.342Z"/>
  <path d="m20,14.625c-.325.1-.66.174-1,.235v3.14h-9v3c0,1.103-.897,2-2,2s-2-.897-2-2V3c0-1.308-.78-2-.78-2h5.806c.306-.36.641-.695,1.003-1H3C1.346,0,0,1.346,0,3v3h5v15c0,1.654,1.346,3,3,3h13c1.654,0,3-1.346,3-3v-3h-4v-3.375ZM5,5H1v-2c0-1.103.897-2,2-2l.623.109c.797.263,1.377,1.007,1.377,1.891v2Zm18,14v2c0,1.103-.897,2-2,2h-10.766c.476-.531.766-1.232.766-2v-2h12Z"/>
  <path d="m17.5,13c3.584,0,6.5-2.916,6.5-6.5S21.084,0,17.5,0s-6.5,2.916-6.5,6.5,2.916,6.5,6.5,6.5Zm0-12c3.032,0,5.5,2.467,5.5,5.5s-2.468,5.5-5.5,5.5-5.5-2.467-5.5-5.5,2.468-5.5,5.5-5.5Z"/>
</svg>
