<?xml version="1.0" encoding="UTF-8"?>
<svg xmlns="http://www.w3.org/2000/svg" id="Layer_1" data-name="Layer 1" viewBox="0 0 24 24">
  <path d="m20.5,0H4.5c-1.378,0-2.5,1.121-2.5,2.5v19c0,1.379,1.122,2.5,2.5,2.5h16c.827,0,1.5-.673,1.5-1.5V1.5c0-.827-.673-1.5-1.5-1.5ZM4.5,1h1.5v18h-1.5c-.562,0-1.082.187-1.5.501V2.5c0-.827.673-1.5,1.5-1.5Zm16.5,21.5c0,.275-.225.5-.5.5H4.5c-.827,0-1.5-.673-1.5-1.5s.673-1.5,1.5-1.5h16.5v2.5Zm0-10.5h-3.5c-.827,0-1.5-.673-1.5-1.5s.673-1.5,1.5-1.5h3.5v3Zm-3.5-4c-1.379,0-2.5,1.121-2.5,2.5s1.121,2.5,2.5,2.5h3.5v6H7V1h13.5c.275,0,.5.225.5.5v6.5h-3.5Z"/>
</svg>
