<?xml version="1.0" encoding="UTF-8"?>
<svg xmlns="http://www.w3.org/2000/svg" id="Layer_1" data-name="Layer 1" viewBox="0 0 24 24" width="512" height="512"><path d="m21.5,7H2.5c-1.379,0-2.5,1.122-2.5,2.5v14.5h24v-14.5c0-1.378-1.121-2.5-2.5-2.5Zm-11.5,16h-5v-3.5c0-.827.673-1.5,1.5-1.5h2c.827,0,1.5.673,1.5,1.5v3.5Zm9,0h-5v-3.5c0-.827.673-1.5,1.5-1.5h2c.827,0,1.5.673,1.5,1.5v3.5Zm4,0h-3v-3.5c0-1.378-1.121-2.5-2.5-2.5h-2c-1.379,0-2.5,1.122-2.5,2.5v3.5h-2v-3.5c0-1.378-1.121-2.5-2.5-2.5h-2c-1.379,0-2.5,1.122-2.5,2.5v3.5H1v-13.5c0-.827.673-1.5,1.5-1.5h19c.827,0,1.5.673,1.5,1.5v13.5ZM7.5-.059L3.073,5h8.854L7.5-.059Zm0,1.519l2.224,2.541h-4.447l2.224-2.541Zm13.427-1.459h-8.854l4.427,5.059L20.927,0Zm-2.203,1l-2.224,2.541-2.224-2.541h4.447ZM7.5,10c-1.379,0-2.5,1.122-2.5,2.5s1.121,2.5,2.5,2.5,2.5-1.122,2.5-2.5-1.121-2.5-2.5-2.5Zm0,4c-.827,0-1.5-.673-1.5-1.5s.673-1.5,1.5-1.5,1.5.673,1.5,1.5-.673,1.5-1.5,1.5Zm9-4c-1.379,0-2.5,1.122-2.5,2.5s1.121,2.5,2.5,2.5,2.5-1.122,2.5-2.5-1.121-2.5-2.5-2.5Zm0,4c-.827,0-1.5-.673-1.5-1.5s.673-1.5,1.5-1.5,1.5.673,1.5,1.5-.673,1.5-1.5,1.5Z"/></svg>
