<?xml version="1.0" encoding="UTF-8"?>
<svg xmlns="http://www.w3.org/2000/svg" id="Layer_1" data-name="Layer 1" viewBox="0 0 24 24" width="512" height="512"><path d="M23,19h1v3H0v-3H1v2H23v-2Zm-1.5-17H2.5C1.12,2,0,3.12,0,4.5v.5H1v-.5c0-.83,.67-1.5,1.5-1.5H21.5c.83,0,1.5,.67,1.5,1.5v.5h1v-.5c0-1.38-1.12-2.5-2.5-2.5ZM1,17H0V8.5c0-.83,.67-1.5,1.5-1.5h2.5c1.65,0,3,1.35,3,3s-1.35,3-3,3H1v4Zm0-5h3c1.1,0,2-.9,2-2s-.9-2-2-2H1.5c-.28,0-.5,.22-.5,.5v3.5Zm12.45,.62l2.55,4.38h-1.23l-2.35-4.03c-.14,.02-.28,.03-.42,.03h-3v4h-1V8.5c0-.83,.67-1.5,1.5-1.5h2.5c1.65,0,3,1.35,3,3,0,1.13-.63,2.11-1.55,2.62Zm.55-2.62c0-1.1-.9-2-2-2h-2.5c-.28,0-.5,.22-.5,.5v3.5h3c1.1,0,2-.9,2-2Zm10,.5v3c0,1.93-1.57,3.5-3.5,3.5s-3.5-1.57-3.5-3.5v-3c0-1.93,1.57-3.5,3.5-3.5s3.5,1.57,3.5,3.5Zm-1,0c0-1.38-1.12-2.5-2.5-2.5s-2.5,1.12-2.5,2.5v3c0,1.38,1.12,2.5,2.5,2.5s2.5-1.12,2.5-2.5v-3Z"/></svg>
