<?xml version="1.0" encoding="UTF-8"?>
<svg xmlns="http://www.w3.org/2000/svg" id="Layer_1" data-name="Layer 1" viewBox="0 0 24 24" width="512" height="512"><path d="M21.119,8.595c-.56-.477-1.301-.678-2.035-.562-.639,.104-1.193,.472-1.569,.988-.456-.619-1.189-1.022-2.015-1.022-.817,0-1.544,.394-2,1.002-.456-.608-1.183-1.002-2-1.002-.562,0-1.082,.187-1.5,.501V2.607C10,1.333,9.104,.228,7.916,.034c-.732-.117-1.475,.085-2.035,.562-.56,.476-.881,1.17-.881,1.905v1.5H.293l2,2L.293,8H5v4.586l-2.326,2.724c-.944,1.105-.879,2.778,.149,3.807l4.884,4.884h14.293V10.5c0-.734-.321-1.429-.881-1.905Zm-5.619,.405c.827,0,1.5,.673,1.5,1.5v2c0,.827-.673,1.5-1.5,1.5s-1.5-.673-1.5-1.5v-2c0-.827,.673-1.5,1.5-1.5Zm-4,0c.827,0,1.5,.673,1.5,1.5v2c0,.827-.673,1.5-1.5,1.5s-1.5-.673-1.5-1.5v-2c0-.827,.673-1.5,1.5-1.5ZM6,2.5c0-.44,.193-.857,.529-1.143,.341-.29,.778-.408,1.227-.336,.709,.115,1.245,.797,1.245,1.586v1.393h-3v-1.5Zm-3.293,2.5h6.293v2H2.707l1-1-1-1Zm6.293,3v3.501c-.878-.661-2.097-.665-3,.004v-3.506h3Zm-.879,15l-4.591-4.591c-.662-.662-.704-1.738-.096-2.45l3.005-3.521c.584-.582,1.535-.583,2.122,.003,.283,.283,.439,.659,.438,1.06s-.157,.777-.47,1.092l-2.278,2.709,.766,.644,2.249-2.677c.259-.259,.454-.564,.578-.897,.441,.391,1.021,.629,1.656,.629,.817,0,1.544-.394,2-1.002,.456,.608,1.183,1.002,2,1.002s1.544-.394,2-1.002c.456,.608,1.183,1.002,2,1.002,.562,0,1.082-.187,1.5-.501v8.501H8.121Zm11.379-9c-.827,0-1.5-.673-1.5-1.5v-1.893c0-.789,.535-1.471,1.244-1.586,.451-.075,.886,.045,1.227,.336,.336,.286,.529,.703,.529,1.143v2c0,.827-.673,1.5-1.5,1.5Z"/></svg>
