<?xml version="1.0" encoding="UTF-8"?>
<svg xmlns="http://www.w3.org/2000/svg" id="Layer_1" data-name="Layer 1" viewBox="0 0 24 24" width="512" height="512"><path d="M24,4v1h-8v-1h8ZM9,22c0,1.1-.9,2-2,2s-2-.9-2-2,.9-2,2-2,2,.9,2,2Zm-1,0c0-.55-.45-1-1-1s-1,.45-1,1,.45,1,1,1,1-.45,1-1Zm11,0c0,1.1-.9,2-2,2s-2-.9-2-2,.9-2,2-2,2,.9,2,2Zm-1,0c0-.55-.45-1-1-1s-1,.45-1,1,.45,1,1,1,1-.45,1-1Zm2.94-8H5.88l-1.25-9H13v-1H4.49l-.26-1.84C4.06,.93,3,0,1.76,0H0V1H1.76c.75,0,1.38,.56,1.49,1.29l2.02,14.55c.17,1.23,1.23,2.16,2.48,2.16h12.26v-1H7.74c-.75,0-1.38-.56-1.49-1.29l-.24-1.71h15.74l1.4-7h-1.02l-1.2,6Z"/></svg>
