<?xml version="1.0" encoding="UTF-8"?>
<svg xmlns="http://www.w3.org/2000/svg" id="Layer_1" data-name="Layer 1" width="512" height="512" viewBox="0 0 24 24"><path d="M22,16.982V8h-1v4h-4v-.5c0-1.265-.945-2.314-2.166-2.478l-2.925-6.543c-.402-.899-1.297-1.479-2.282-1.479H5V6.01h-1.5c-1.378,0-2.5,1.122-2.5,2.5v6.848c-.622,.705-1,1.631-1,2.643,0,2.206,1.794,4,4,4H14c2.206,0,4-1.794,4-4,0-1.012-.378-1.937-1-2.643v-2.357h4v3.982c0,2.073,.808,4.022,2.273,5.488l.707-.707c-1.277-1.277-1.98-2.975-1.98-4.781ZM6,2h3.626c.591,0,1.128,.349,1.369,.888l2.733,6.112H6V2ZM3.5,7.01h1.5l.01,2.99H14.5c.827,0,1.5,.673,1.5,1.5v3.037c-.589-.341-1.272-.537-2-.537H4c-.728,0-1.411,.196-2,.537v-6.027c0-.827,.673-1.5,1.5-1.5Zm10.5,13.99H4c-1.654,0-3-1.346-3-3s1.346-3,3-3H14c1.654,0,3,1.346,3,3s-1.346,3-3,3Zm-8-3c0,.552-.448,1-1,1s-1-.448-1-1,.448-1,1-1,1,.448,1,1Zm8,0c0,.552-.448,1-1,1s-1-.448-1-1,.448-1,1-1,1,.448,1,1Zm-4,0c0,.552-.448,1-1,1s-1-.448-1-1,.448-1,1-1,1,.448,1,1Z"/></svg>
