<?xml version="1.0" encoding="UTF-8"?>
<svg xmlns="http://www.w3.org/2000/svg" id="Layer_1" data-name="Layer 1" viewBox="0 0 24 24">
  <path d="m23.988,23.281l-3.558-3.558c.976-1.137,1.569-2.611,1.569-4.224,0-3.584-2.916-6.5-6.5-6.5s-6.5,2.916-6.5,6.5,2.916,6.5,6.5,6.5c1.612,0,3.086-.594,4.224-1.569l3.558,3.558.707-.707Zm-8.488-2.281c-3.033,0-5.5-2.468-5.5-5.5s2.467-5.5,5.5-5.5,5.5,2.468,5.5,5.5-2.467,5.5-5.5,5.5ZM7,6h-3v-1h3v1Zm-3,9h3v1h-3v-1Zm5-9v-1h7v1h-7Zm-2,5h-3v-1h3v1Zm11.44,2.549l.701.713-3.457,3.399c-.217.218-.51.339-.822.339s-.604-.121-.825-.342l-1.851-1.794.696-.719,1.856,1.8c.062.062.186.062.241.006l3.46-3.402Zm-2.98,10.449l-7.46-.002v.004H0V2.501C0,1.122,1.121,0,2.5,0h15c1.378,0,2.5,1.12,2.5,2.499v3.5h0v2.298c-.32-.2-.653-.381-1-.538V2.5c0-.827-.673-1.5-1.5-1.5H2.5c-.827,0-1.5.674-1.5,1.501v20.499h10.503c1.181.631,2.527.991,3.957.998Z"/>
</svg>
