<?xml version="1.0" encoding="UTF-8"?>
<svg xmlns="http://www.w3.org/2000/svg" id="Layer_1" data-name="Layer 1" width="512" height="512" viewBox="0 0 24 24"><path d="M15.938,17.961l.922,.386-2.348,5.615-.922-.386,2.348-5.615Zm-6.618,5.615l.923,.386,2.348-5.615-.923-.386-2.348,5.615Zm-4.289,0l.923,.386,2.349-5.615-.923-.386-2.349,5.615Zm7.83-11.576h3.138v-1h-3.138l1.56-2.722-.867-.497-1.556,2.714-1.556-2.714-.867,.497,1.56,2.722h-3.137v1h3.137l-1.56,2.722,.867,.497,1.556-2.714,1.556,2.714,.867-.497-1.56-2.722Zm4.14-6.977C15.87,2.004,12.999,0,9.75,0,5.477,0,2,3.477,2,7.75c0,.763,.116,1.523,.345,2.266-1.476,1.033-2.345,2.681-2.345,4.484,0,2.658,1.896,4.881,4.406,5.39l.402-.96c-2.151-.336-3.807-2.186-3.807-4.43,0-1.583,.822-3.021,2.2-3.847l.354-.212-.141-.388c-.273-.752-.412-1.527-.412-2.304,0-3.722,3.028-6.75,6.75-6.75,2.931,0,5.51,1.874,6.417,4.662l.11,.338,.355,.007c3.511,.071,6.367,2.983,6.367,6.493,0,2.735-1.761,5.198-4.081,6.106l-.504,1.205c3.103-.743,5.585-3.841,5.585-7.312,0-3.933-3.107-7.216-6.997-7.477Z"/></svg>
