<?xml version="1.0" encoding="UTF-8"?>
<svg xmlns="http://www.w3.org/2000/svg" id="Layer_1" data-name="Layer 1" viewBox="0 0 24 24">
  <path d="m17,5c0,.552-.448,1-1,1s-1-.448-1-1,.448-1,1-1,1,.448,1,1Zm5-1c-.552,0-1,.448-1,1s.448,1,1,1,1-.448,1-1-.448-1-1-1Zm0-2c.552,0,1-.448,1-1s-.448-1-1-1-1,.448-1,1,.448,1,1,1Zm0,6c-.552,0-1,.448-1,1s.448,1,1,1,1-.448,1-1-.448-1-1-1Zm-3-6c-.552,0-1,.448-1,1s.448,1,1,1,1-.448,1-1-.448-1-1-1Zm0,4c-.552,0-1,.448-1,1s.448,1,1,1,1-.448,1-1-.448-1-1-1Zm-3,5v13H1v-13c0-2.206,1.794-4,4-4V2.5c0-1.378,1.121-2.5,2.5-2.5h2c1.379,0,2.5,1.122,2.5,2.5v4.5c2.206,0,4,1.794,4,4ZM6,7h5V2.5c0-.827-.673-1.5-1.5-1.5h-2c-.827,0-1.5.673-1.5,1.5v4.5Zm9,4c0-1.654-1.346-3-3-3h-7c-1.654,0-3,1.346-3,3v12h13v-12Zm-2,4.5c0,2.481-2.019,4.5-4.5,4.5s-4.5-2.019-4.5-4.5,2.019-4.5,4.5-4.5,4.5,2.019,4.5,4.5Zm-1,0c0-1.93-1.57-3.5-3.5-3.5s-3.5,1.57-3.5,3.5,1.57,3.5,3.5,3.5,3.5-1.57,3.5-3.5Z"/>
</svg>
