<?xml version="1.0" encoding="UTF-8"?>
<svg xmlns="http://www.w3.org/2000/svg" id="Layer_1" data-name="Layer 1" viewBox="0 0 24 24">
  <path d="m13.055,11.727l.139.273h1.807c3.309,0,6-2.691,6-6S18.309,0,15,0H6C2.691,0,0,2.691,0,6s2.691,6,6,6h1.854l.138-.278c.755-1.523,1.971-3.222,2.507-3.222s1.778,1.7,2.555,3.227Zm-5.817-.727h-1.237c-2.757,0-5-2.243-5-5S3.243,1,6,1h9c2.757,0,5,2.243,5,5s-2.243,5-5,5h-1.196c-.581-1.093-2.008-3.5-3.304-3.5s-2.693,2.404-3.263,3.5ZM24,0v17c0,3.859-3.141,7-7,7s-7-3.141-7-7v-3h1v3c0,3.309,2.691,6,6,6s6-2.691,6-6V0h1Z"/>
</svg>
