<?xml version="1.0" encoding="UTF-8"?>
<svg xmlns="http://www.w3.org/2000/svg" id="Layer_1" data-name="Layer 1" viewBox="0 0 24 24">
  <path d="m9,12c3.309,0,6-2.691,6-6S12.309,0,9,0,3,2.691,3,6s2.691,6,6,6Zm0-11c2.757,0,5,2.243,5,5s-2.243,5-5,5-5-2.243-5-5S6.243,1,9,1Zm-4.5,13h5.5v1h-5.5c-1.93,0-3.5,1.57-3.5,3.5v5.5H0v-5.5c0-2.481,2.019-4.5,4.5-4.5Zm19.5,2h-4.063l-1.096-3.832h-1.658l-1.097,3.832h-4.086v1.6l2.857,1.649-1.324,3.622,1.28.951,3.198-2.538,3.193,2.561,1.333-.917-1.434-3.636,2.896-1.699v-1.592Zm-4.14,2.861l1.455,3.693-.065.045-3.234-2.595-3.222,2.556-.065-.048,1.357-3.71-3.086-1.78,3.84-.022,1.097-3.832h.15l1.096,3.832h3.817l-3.14,1.861Z"/>
</svg>
