<?xml version="1.0" encoding="UTF-8"?>
<svg xmlns="http://www.w3.org/2000/svg" id="Layer_1" data-name="Layer 1" viewBox="0 0 24 24">
  <path d="m12,10c2.757,0,5-2.243,5-5S14.757,0,12,0s-5,2.243-5,5,2.243,5,5,5Zm0-9c2.206,0,4,1.794,4,4s-1.794,4-4,4-4-1.794-4-4,1.794-4,4-4Zm12,19h-4v-4.5c0-2.481-2.019-4.5-4.5-4.5h-7c-2.481,0-4.5,2.019-4.5,4.5v4.5H0v1h2v3h1v-3h18v3h1v-3h2v-1Zm-5-4.5v4.5h-4.61l-1.352-5.407,1.729-2.593h.732c1.93,0,3.5,1.57,3.5,3.5Zm-7-1.151l-1.566-2.349h3.132l-1.566,2.349Zm0,.212l1.36,5.439h-2.72l1.36-5.439Zm-7,.939c0-1.93,1.57-3.5,3.5-3.5h.732l1.729,2.593-1.352,5.407h-4.61v-4.5Z"/>
</svg>
