<?xml version="1.0" encoding="UTF-8"?>
<svg xmlns="http://www.w3.org/2000/svg" id="Layer_1" data-name="Layer 1" viewBox="0 0 24 24">
  <path d="m21.289,2c.437-.532.711-1.229.711-2h-1c0,1.103-.777,2-1.732,2h-5.536c-.955,0-1.731-.897-1.731-2h-1c0,.771.274,1.468.711,2h-2.711v.5c0,1.378,1.121,2.5,2.5,2.5h.084l.368,2h-7.452c-.726,0-1.406.316-1.881.862l-.002-.002L.027,10.284l.684.73,1.289-1.207v14.193h5v-1.527c2.684-.127,4.287-1.268,4.878-3.473h2.122v5h5v-8h-1v7h-3v-5H6v5h-3v-11.778c.735.493,1.599.778,2.5.778,2.31,0,4.197-1.756,4.449-4h2.186l.472,2.568c-.374.364-.608.87-.608,1.432,0,1.103.897,2,2,2h5c1.103,0,2-.897,2-2,0-.562-.235-1.069-.609-1.432l1.025-5.568h.084c1.379,0,2.5-1.122,2.5-2.5v-.5h-2.711Zm-10.445,17c-.521,1.591-1.742,2.37-3.845,2.476v-2.476h3.845Zm-5.345-8c-.946,0-1.842-.395-2.5-1.07v-.43c0-.354.119-.685.344-.956.287-.346.708-.544,1.156-.544h4.449c-.245,1.692-1.691,3-3.449,3Zm13.5,2h-5c-.552,0-1-.449-1-1s.448-1,1-1h5c.552,0,1,.449,1,1s-.448,1-1,1Zm2.5-9h-.916l-1.117,6.061c-.15-.036-.305-.061-.467-.061h-5c-.162,0-.317.025-.468.061l-1.116-6.061h-.916c-.652,0-1.208-.418-1.414-1h12.828c-.206.582-.762,1-1.414,1Zm-6,2c0,.552-.448,1-1,1s-1-.448-1-1,.448-1,1-1,1,.448,1,1Zm4,0c0,.552-.448,1-1,1s-1-.448-1-1,.448-1,1-1,1,.448,1,1Z"/>
</svg>
