<?xml version="1.0" encoding="UTF-8"?>
<svg xmlns="http://www.w3.org/2000/svg" id="Layer_1" data-name="Layer 1" width="512" height="512" viewBox="0 0 24 24"><path d="M12,0C5.383,0,0,5.383,0,12s5.383,12,12,12,12-5.383,12-12S18.617,0,12,0Zm0,23c-6.065,0-11-4.935-11-11S5.935,1,12,1s11,4.935,11,11-4.935,11-11,11Zm0-18.993c-4.411,0-8,3.589-8,8s3.589,8,8,8,8-3.589,8-8-3.589-8-8-8Zm6.294,4.939s-3.503,1.409-3.562,1.437l-.002-.005c-.51,.203-1.062,.145-1.516-.164-.454-.307-.714-.798-.714-1.347v-3.841c2.549,.181,4.726,1.733,5.794,3.921Zm-5.191,3.372c-.08,.286-.118,.576-.115,.863-.31-.12-.643-.183-.988-.183s-.679,.063-.988,.183c.003-.287-.035-.578-.115-.863-.092-.327-.234-.631-.419-.902,.306-.072,.6-.2,.868-.381,.256-.173,.475-.387,.651-.63,.177,.245,.398,.462,.656,.636,.267,.181,.56,.308,.864,.38-.183,.27-.324,.571-.415,.896Zm-1.604-7.292v3.834c0,.549-.261,1.039-.715,1.347-.454,.309-1.006,.366-1.516,.164l-.004,.011c-.057-.027-3.559-1.435-3.559-1.435,1.068-2.188,3.245-3.74,5.794-3.921Zm-6.5,6.982c0-.744,.117-1.46,.333-2.133l3.384,1.359c.599,.24,1.042,.733,1.216,1.354s.052,1.272-.334,1.788h0l-2.19,2.913c-1.476-1.284-2.41-3.176-2.41-5.281Zm3.209,5.882l2.406-3.199c.661-.879,2.108-.879,2.77,0l2.406,3.199c-1.093,.707-2.395,1.118-3.791,1.118s-2.698-.411-3.791-1.118Zm8.381-.601l-2.19-2.912h0c-.387-.516-.508-1.168-.334-1.789s.617-1.114,1.217-1.354l3.384-1.359c.216,.673,.333,1.39,.333,2.133,0,2.105-.934,3.996-2.41,5.281Z"/></svg>
