<?xml version="1.0" encoding="UTF-8"?>
<svg xmlns="http://www.w3.org/2000/svg" id="Layer_1" data-name="Layer 1" width="512" height="512" viewBox="0 0 24 24"><path d="M18.928,23c-.128-.887-.422-1.721-.85-2.469l4.97-2.9-.504-.863-5.025,2.932c-.497-.637-1.102-1.186-1.787-1.619l2.987-5.133-.865-.503-3.004,5.163c-.727-.325-1.518-.53-2.35-.589v-6.018h-1v6.018c-.826,.059-1.614,.261-2.337,.583l-3.038-5.148-.861,.508,3.016,5.112c-.694,.437-1.307,.993-1.809,1.639l-5.03-2.921-.502,.864,4.975,2.889c-.424,.745-.716,1.574-.843,2.456H0v1H24v-1h-5.072Zm-12.844,0c.477-2.834,2.948-5,5.916-5s5.439,2.166,5.916,5H6.084Zm4.523-14.571l-3.203-3.203,.707-.707,3.203,3.203c.057,.057,.12,.106,.187,.146V0h1V7.868c.066-.04,.129-.088,.187-.146l3.202-3.203,.707,.707-3.202,3.203c-.384,.384-.889,.576-1.394,.576s-1.009-.192-1.394-.576Z"/></svg>
