<?xml version="1.0" encoding="UTF-8"?>
<svg xmlns="http://www.w3.org/2000/svg" id="Layer_1" data-name="Layer 1" viewBox="0 0 24 24">
  <path d="m20.212,2.754L12,.031,3.788,2.754c-1.069.354-1.788,1.348-1.788,2.473v6.65c0,6.609,7.16,10.703,9.354,11.8l.626.313.65-.261c2.198-.884,9.37-4.353,9.37-11.852v-6.65c0-1.125-.719-2.119-1.788-2.473Zm.788,9.123c0,6.873-6.924,10.192-8.975,11.018-2.065-1.032-9.025-4.981-9.025-11.018v-6.65c0-.693.443-1.305,1.103-1.523l7.897-2.619,7.897,2.619c.659.218,1.103.831,1.103,1.523v6.65Z"/>
  <path d="m14.493,8.969c-.58-.868-1.502-1.407-2.493-1.47v-2.499h-.5c-1.654,0-3,1.346-3,3v.894l-1.496,3.082v.271c0,2.404,2.106,4.498,3.873,5.831l.598.451.914-3.529h2.349c.867,0,1.725-.361,2.352-.989.591-.593.915-1.357.912-2.149v-1.861h-1.552c-.628,0-1.501-.354-1.955-1.031Zm2.507,2.894c.002.526-.219,1.039-.621,1.442-.44.442-1.039.695-1.643.695h-3.124l-.728,2.811c-1.864-1.549-2.882-3.153-2.882-4.564v-.042l1.496-3.082v-1.123c0-.931.639-1.715,1.5-1.937v2.429h.805c.73,0,1.425.386,1.858,1.033.683,1.019,1.891,1.475,2.785,1.475h.552v.863Z"/>
</svg>
