<?xml version="1.0" encoding="UTF-8"?>
<svg xmlns="http://www.w3.org/2000/svg" id="Layer_1" data-name="Layer 1" viewBox="0 0 24 24">
  <path d="m21.5,2h-4V0h-1v2H7V0h-1v2h-3.5c-1.379,0-2.5,1.121-2.5,2.5v19.5h5v-1H1v-14h22v5h1V4.5c0-1.379-1.121-2.5-2.5-2.5ZM1,8v-3.5c0-.827.673-1.5,1.5-1.5h19c.827,0,1.5.673,1.5,1.5v3.5H1Zm22,8h1v8h-.79l-3.21-5.617v5.617h-1v-8h.79l3.21,5.617v-5.617Zm-6,0h1v5.5c0,1.379-1.121,2.5-2.5,2.5s-2.5-1.121-2.5-2.5v-5.5h1v5.5c0,.827.673,1.5,1.5,1.5s1.5-.673,1.5-1.5v-5.5Zm-5.028,6.056c-.183,1.127-1.162,1.944-2.328,1.944-.878,0-1.947-.551-2.474-1.084l.711-.703c.414.419,1.238.787,1.763.787.673,0,1.237-.465,1.342-1.104.037-.229.076-1.007-.976-1.432-.111-.042-1.208-.457-1.699-.763-.671-.473-.978-1.163-.88-1.917.104-.783.627-1.421,1.365-1.665.903-.299,1.822-.046,2.736.746l-.654.756c-.647-.562-1.21-.737-1.769-.553-.371.123-.634.447-.687.846-.05.38.103.717.428.948.334.204,1.213.554,1.522.67,1.395.563,1.731,1.711,1.599,2.523Z"/>
</svg>
