<?xml version="1.0" encoding="UTF-8"?>
<svg xmlns="http://www.w3.org/2000/svg" id="Layer_1" data-name="Layer 1" viewBox="0 0 24 24">
  <path d="m12,24C5.383,24,0,18.617,0,12S5.383,0,12,0s12,5.383,12,12-5.383,12-12,12Zm0-23C5.935,1,1,5.935,1,12s4.935,11,11,11,11-4.935,11-11S18.065,1,12,1Zm6,18H6v-.5c0-2.189,2.407-5.5,6.035-5.5,3.586,0,5.965,3.311,5.965,5.5v.5Zm-10.951-1h9.903c-.328-1.768-2.292-4-4.917-4-2.662,0-4.654,2.232-4.986,4Zm2.951-7h-5v-1.5c0-1.378,1.122-2.5,2.5-2.5s2.5,1.122,2.5,2.5v1.5Zm-4-1h3v-.5c0-.827-.673-1.5-1.5-1.5s-1.5.673-1.5,1.5v.5Zm13,1h-5v-1.5c0-1.378,1.122-2.5,2.5-2.5s2.5,1.122,2.5,2.5v1.5Zm-4-1h3v-.5c0-.827-.673-1.5-1.5-1.5s-1.5.673-1.5,1.5v.5Z"/>
</svg>
