<?xml version="1.0" encoding="UTF-8"?>
<svg xmlns="http://www.w3.org/2000/svg" id="Layer_1" data-name="Layer 1" viewBox="0 0 24 24">
  <path d="m22.311,14.276l-4.248-1.636,5.851-4.021-2.667-2.3,1.782-5.346-5.346,1.782L15.381.087l-4.021,5.851-1.636-4.248-2.769,2.17-2.955-2.414v3.554H.792l2.564,7.209-1.769,3.539,4.973.995L.041,23.262l.707.707,6.513-6.513.991,4.957,3.539-1.769,7.209,2.564v-3.208h3.554l-2.414-2.955,2.17-2.769Zm-1.864,4.724h-2.446v2.792l-6.276-2.232-2.749,1.375-.865-4.327,3.908-3.908-.707-.707-3.902,3.902-4.343-.869,1.375-2.749-2.232-6.276h2.792v-2.446l1.942,1.586,2.334-1.83,1.832,4.758L15.471,1.722l1.891,2.194,4.084-1.362-1.362,4.084,2.194,1.891-6.347,4.362,4.758,1.832-1.83,2.334,1.586,1.942Z"/>
</svg>
