<?xml version="1.0" encoding="UTF-8"?>
<svg xmlns="http://www.w3.org/2000/svg" id="Layer_1" data-name="Layer 1" viewBox="0 0 24 24" width="512" height="512"><path d="m12,5c1.379,0,2.5-1.121,2.5-2.5s-1.121-2.5-2.5-2.5-2.5,1.121-2.5,2.5,1.121,2.5,2.5,2.5Zm0-4c.827,0,1.5.673,1.5,1.5s-.673,1.5-1.5,1.5-1.5-.673-1.5-1.5.673-1.5,1.5-1.5Zm3,6.518c.202.156.382.343.531.558l3.605,5.208.822-.568-3.605-5.209c-.654-.943-1.73-1.507-2.878-1.507h-2.951c-1.147,0-2.224.563-2.878,1.508l-3.605,5.208.822.568,3.605-5.207c.149-.215.329-.403.531-.559v15.481h-5v1h16v-1h-5V7.518Zm-4.476-.518h2.951c.178,0,.354.019.524.056v7.944h-4v-7.944c.171-.037.346-.056.524-.056Zm-.524,16v-7h4v7h-4ZM21.3,2.481L20-.118l-1.301,2.6-2.6,1.301,2.6,1.3,1.301,2.601,1.3-2.601,2.601-1.3-2.601-1.301Zm-.746,1.854l-.554,1.11-.555-1.11-1.109-.554,1.109-.555.555-1.109.554,1.109,1.11.555-1.11.554Zm-13.686,1.064l-2.245-1.123-1.123-2.245-1.123,2.245L.132,5.4l2.245,1.123,1.123,2.245,1.123-2.245,2.245-1.123Zm-3.368,1.132l-.377-.755-.755-.377.755-.377.377-.755.377.755.755.377-.755.377-.377.755Z"/></svg>
