<?xml version="1.0" encoding="UTF-8"?>
<svg xmlns="http://www.w3.org/2000/svg" id="Layer_1" data-name="Layer 1" viewBox="0 0 24 24" width="512" height="512"><path d="m12,0C5.383,0,0,5.383,0,12s5.383,12,12,12,12-5.383,12-12S18.617,0,12,0Zm0,23c-6.065,0-11-4.935-11-11S5.935,1,12,1s11,4.935,11,11-4.935,11-11,11Zm-4-14.097c0,.847.569,1.6,1.384,1.832l5.511,1.562c1.24.357,2.105,1.507,2.105,2.795,0,1.604-1.304,2.907-2.907,2.907h-4.393c-1.615,0-2.7-1.105-2.7-2.75h1c0,1.096.636,1.75,1.7,1.75h4.393c1.052,0,1.907-.855,1.907-1.907,0-.846-.567-1.599-1.381-1.833l-5.509-1.562c-1.242-.354-2.11-1.503-2.11-2.794,0-1.601,1.303-2.903,2.903-2.903h4.396c1.489,0,2.7,1.233,2.7,2.75h-1c0-.965-.763-1.75-1.7-1.75h-4.396c-1.05,0-1.903.854-1.903,1.903Z"/></svg>
