<?xml version="1.0" encoding="UTF-8"?>
<svg xmlns="http://www.w3.org/2000/svg" id="Layer_1" data-name="Layer 1" viewBox="0 0 24 24">
  <path d="m16.5,16c-.966,0-1.118.689-1.198,1.087l-1.387,6.913,1.013.005.404-2.005h2.356l.41,1.995.996.005-1.389-6.882c-.093-.459-.239-1.118-1.205-1.118Zm-.966,5l.748-3.716c.024-.118.088-.223.163-.267.029-.017.048-.017.055-.017.017,0,.037.005.061.017.037.018.126.115.164.299l.758,3.684h-1.949ZM21.5,2h-3.5V0h-1v2H7V0h-1v2h-3.5c-1.378,0-2.5,1.121-2.5,2.5v19.5h6v-1H1v-14h22v5h1V4.5c0-1.379-1.121-2.5-2.5-2.5ZM1,8v-3.5c0-.827.673-1.5,1.5-1.5h19c.827,0,1.5.673,1.5,1.5v3.5H1Zm18,8h5v1h-2v7h-1v-7h-2v-1Zm-6.027,6.056c-.184,1.127-1.164,1.944-2.33,1.944-.878,0-1.947-.552-2.473-1.084l.712-.703c.414.42,1.237.787,1.761.787.673,0,1.238-.465,1.342-1.104.037-.229.076-1.007-.976-1.432-.112-.042-1.207-.457-1.699-.763-.671-.474-.977-1.164-.88-1.917.104-.783.627-1.421,1.366-1.665.901-.299,1.823-.046,2.736.746l-.655.756c-.647-.562-1.208-.737-1.768-.553-.371.123-.634.447-.687.846-.049.38.103.717.428.948.334.204,1.213.554,1.523.67,1.394.563,1.731,1.711,1.6,2.523Z"/>
</svg>
