<?xml version="1.0" encoding="UTF-8"?>
<svg xmlns="http://www.w3.org/2000/svg" id="Layer_1" data-name="Layer 1" viewBox="0 0 24 24">
  <path d="m7,5c.839,0,1.597.348,2.142.906-.275.193-.527.414-.758.656-.36-.346-.846-.562-1.384-.562-1.103,0-2,.897-2,2s.897,2,2,2c0,.339.035.67.1.99-.034.001-.066.01-.1.01-1.654,0-3-1.346-3-3s1.346-3,3-3Zm10,1c1.103,0,2,.897,2,2s-.897,2-2,2c0,.339-.035.67-.1.99.034.001.066.01.1.01,1.654,0,3-1.346,3-3s-1.346-3-3-3c-.839,0-1.597.348-2.142.906.275.193.527.414.758.656.36-.346.846-.562,1.384-.562Zm-8,4c0-1.654,1.346-3,3-3s3,1.346,3,3-1.346,3-3,3-3-1.346-3-3Zm1,0c0,1.103.897,2,2,2s2-.897,2-2-.897-2-2-2-2,.897-2,2ZM1,2.5c0-.827.673-1.5,1.5-1.5h4.5V0H2.5C1.122,0,0,1.121,0,2.5v4.5h1V2.5Zm0,19v-4.5H0v4.5c0,1.379,1.122,2.5,2.5,2.5h4.5v-1H2.5c-.827,0-1.5-.673-1.5-1.5Zm22,0c0,.827-.673,1.5-1.5,1.5h-4.5v1h4.5c1.378,0,2.5-1.121,2.5-2.5v-4.5h-1v4.5ZM21.5,0h-4.5v1h4.5c.827,0,1.5.673,1.5,1.5v4.5h1V2.5c0-1.379-1.122-2.5-2.5-2.5Zm-8,15h-3c-1.378,0-2.5,1.121-2.5,2.5v1.5h1v-1.5c0-.827.673-1.5,1.5-1.5h3c.827,0,1.5.673,1.5,1.5v1.5h1v-1.5c0-1.379-1.122-2.5-2.5-2.5Zm6.5.5v1.5h1v-1.5c0-1.379-1.122-2.5-2.5-2.5h-3c-.305,0-.594.063-.864.163.616.162,1.174.45,1.658.837h2.206c.827,0,1.5.673,1.5,1.5Zm-11.5-2.5h-3c-1.378,0-2.5,1.121-2.5,2.5v1.5h1v-1.5c0-.827.673-1.5,1.5-1.5h2.206c.483-.387,1.042-.675,1.658-.837-.27-.1-.559-.163-.864-.163Z"/>
</svg>
