<?xml version="1.0" encoding="UTF-8"?>
<svg xmlns="http://www.w3.org/2000/svg" id="Layer_1" data-name="Layer 1" viewBox="0 0 24 24" width="512" height="512"><path d="M21.5,6H2.5c-1.38,0-2.5,1.12-2.5,2.5v15.5H24V8.5c0-1.38-1.12-2.5-2.5-2.5Zm1.5,17H1V8.5c0-.83,.67-1.5,1.5-1.5H21.5c.83,0,1.5,.67,1.5,1.5v14.5ZM12,10c-4.49,0-8,2.2-8,5s3.51,5,8,5,8-2.2,8-5-3.51-5-8-5Zm0,9c-3.79,0-7-1.83-7-4s3.21-4,7-4,7,1.83,7,4-3.21,4-7,4Zm1.5-4c0,.55-.67,1-1.5,1s-1.5-.45-1.5-1,.67-1,1.5-1,1.5,.45,1.5,1ZM2.5,1C1.64,1,.84,1.26,.15,1.68,.49,.71,1.41,0,2.5,0H21.5c1.09,0,2.01,.71,2.35,1.68-.69-.42-1.49-.68-2.35-.68H2.5Zm0,3c-.86,0-1.66,.26-2.35,.68,.34-.97,1.26-1.68,2.35-1.68H21.5c1.09,0,2.01,.71,2.35,1.68-.69-.42-1.49-.68-2.35-.68H2.5Z"/></svg>
