<?xml version="1.0" encoding="UTF-8"?>
<svg xmlns="http://www.w3.org/2000/svg" id="Layer_1" data-name="Layer 1" viewBox="0 0 24 24" width="512" height="512"><path d="M12,0C5.383,0,0,5.383,0,12s5.383,12,12,12,12-5.383,12-12S18.617,0,12,0Zm0,23c-6.065,0-11-4.935-11-11S5.935,1,12,1s11,4.935,11,11-4.935,11-11,11Z"/><path d="M8.967,5.508l-.832-.555c-.911,1.365-2.137,2.383-3.544,2.945l.371,.929c1.596-.637,2.981-1.785,4.005-3.319Z"/><rect x="6.264" y="10" width="4.472" height="1" transform="translate(-3.798 4.91) rotate(-26.565)"/><path d="M14.5,18c-.299,0-.794-.477-1.191-.86-.582-.56-1.185-1.14-1.886-1.14-.651,0-1.117,.31-1.527,.584-.335,.223-.624,.416-.973,.416-.488,0-1.754-.962-2.646-1.854l-.707,.707c.358,.358,2.205,2.146,3.354,2.146,.651,0,1.117-.31,1.527-.584,.335-.223,.624-.416,.973-.416,.299,0,.794,.477,1.191,.86,.582,.56,1.185,1.14,1.886,1.14,1.926,0,3.664-2.917,3.856-3.25l-.866-.5c-.413,.713-1.848,2.75-2.99,2.75Z"/><path d="M16,13.5c1.29,0,2.3-1.538,2.3-3.5s-1.01-3.5-2.3-3.5-2.3,1.538-2.3,3.5,1.01,3.5,2.3,3.5Zm0-6c.615,0,1.3,1.027,1.3,2.5s-.685,2.5-1.3,2.5-1.3-1.027-1.3-2.5,.685-2.5,1.3-2.5Z"/></svg>
