<?xml version="1.0" encoding="UTF-8"?>
<svg xmlns="http://www.w3.org/2000/svg" id="Layer_1" data-name="Layer 1" viewBox="0 0 24 24">
  <path d="m12,5c1.379,0,2.5-1.122,2.5-2.5s-1.121-2.5-2.5-2.5-2.5,1.122-2.5,2.5,1.121,2.5,2.5,2.5Zm0-4c.827,0,1.5.673,1.5,1.5s-.673,1.5-1.5,1.5-1.5-.673-1.5-1.5.673-1.5,1.5-1.5Zm8,20h-6v-5h2v-7.5c0-1.378-1.121-2.5-2.5-2.5h-4.316L2.823.618l-.646.764,6.64,5.618h4.684c.827,0,1.5.673,1.5,1.5v6.5h-5v-6h-1v12h-5c-1.103,0-2,.897-2,2v1h1v-1c0-.551.448-1,1-1h16c.552,0,1,.449,1,1v1h1v-1c0-1.103-.897-2-2-2Zm-10-5h3v5h-3v-5Z"/>
</svg>
