<?xml version="1.0" encoding="UTF-8"?>
<svg xmlns="http://www.w3.org/2000/svg" id="Layer_1" data-name="Layer 1" viewBox="0 0 24 24" width="512" height="512"><path d="M24,17V3.5c0-1.93-1.57-3.5-3.5-3.5H3.5C1.57,0,0,1.57,0,3.5v13.5H4.559l.441,3.531v3.469h1v-3h3v3h1v-3h4.009l.003,3h1l-.003-3h2.991v3h1v-3.257l.456-3.743h4.544ZM1,16V3.5c0-1.378,1.122-2.5,2.5-2.5H20.5c1.378,0,2.5,1.122,2.5,2.5v12.5h-3.423l.487-4H3.934l.5,4H1Zm4.066-3h3.934v3h-3.559l-.375-3Zm4.934,0h4.001l.003,3h-4.004v-3Zm5.001,0h3.935l-.365,3h-3.566l-.003-3Zm-9.059,7l-.375-3h3.434v3h-3.059Zm4.059,0v-3h4.005l.003,3h-4.008Zm8.083,0h-3.075l-.003-3h3.443l-.365,3ZM7,10h-1V5h12v5h-1V6H7v4Z"/></svg>
