<?xml version="1.0" encoding="UTF-8"?>
<svg xmlns="http://www.w3.org/2000/svg" id="Layer_1" data-name="Layer 1" viewBox="0 0 24 24">
  <path d="m19.5,15.051v-5.343l4.496-4.496L18.789.005l-4.495,4.495h-5.294C9,2.019,6.981,0,4.5,0S0,2.019,0,4.5c0,2.31,1.756,4.197,4,4.449v7.051H.5v8h8v-8h-3.5v-7.051c1.909-.215,3.459-1.61,3.879-3.449h4.991l4.63,4.63v4.921c-2.244.253-4,2.14-4,4.45,0,2.481,2.019,4.5,4.5,4.5s4.5-2.019,4.5-4.5c0-2.31-1.756-4.197-4-4.45Zm-12,7.95H1.5v-6h6v6Zm-3-15c-1.93,0-3.5-1.57-3.5-3.5s1.57-3.5,3.5-3.5,3.5,1.57,3.5,3.5-1.57,3.5-3.5,3.5ZM18.789,1.419l3.793,3.793-3.793,3.793-3.793-3.793,3.793-3.793Zm.211,21.582c-1.93,0-3.5-1.57-3.5-3.5s1.57-3.5,3.5-3.5,3.5,1.57,3.5,3.5-1.57,3.5-3.5,3.5Z"/>
</svg>
