<?xml version="1.0" encoding="UTF-8"?>
<svg xmlns="http://www.w3.org/2000/svg" id="Layer_1" data-name="Layer 1" viewBox="0 0 24 24">
  <path d="m24,9.461c0-3.365-2.984-4.872-5.163-5.972-.811-.409-1.582-.803-2.004-1.19-.151-.224-.347-.643-.333-1.299h-1c0,.67-.189,1.082-.335,1.301-.423.387-1.193.78-2.002,1.188-2.179,1.1-5.163,2.607-5.163,5.972,0,1.181.596,2.444,1.628,3.539h-2.628v-7.333C7,2.963,3.95.391,3.82.282L3.5.016l-.32.267c-.13.108-3.18,2.681-3.18,5.384v18.333h10v-4.5c0-.827.673-1.5,1.5-1.5.855,0,1.5.694,1.5,1.615v4.385h4v-4.5c0-.827.673-1.5,1.5-1.5s1.5.673,1.5,1.5v4.5h4v-11h-1.625c1.031-1.094,1.625-2.356,1.625-3.539Zm-15,0c0-2.75,2.451-3.988,4.614-5.08.971-.49,1.858-.938,2.386-1.497.527.558,1.415,1.006,2.386,1.497,2.163,1.092,4.614,2.33,4.614,5.08,0,1.158-.804,2.497-2.101,3.539h-9.799c-1.315-1.053-2.1-2.365-2.1-3.539ZM3.5,1.34c.739.7,2.5,2.552,2.5,4.326v1.333H1v-1.333c0-1.774,1.761-3.626,2.5-4.326ZM1,23v-15h5v15H1Zm22,0h-2v-3.5c0-1.378-1.121-2.5-2.5-2.5s-2.5,1.122-2.5,2.5v3.5h-2v-3.385c0-1.466-1.098-2.615-2.5-2.615-1.379,0-2.5,1.122-2.5,2.5v3.5h-2v-9h16v9ZM4.25,13.5h-1.5v-2.25c0-.414.337-.75.75-.75s.75.336.75.75v2.25Zm0,6h-1.5v-2.25c0-.414.337-.75.75-.75s.75.336.75.75v2.25Z"/>
</svg>
