<?xml version="1.0" encoding="UTF-8"?>
<svg xmlns="http://www.w3.org/2000/svg" id="Layer_1" data-name="Layer 1" viewBox="0 0 24 24" width="512" height="512"><path d="M12,24C5.383,24,0,18.617,0,12S5.383,0,12,0s12,5.383,12,12-5.383,12-12,12ZM12,1C5.935,1,1,5.935,1,12s4.935,11,11,11,11-4.935,11-11S18.065,1,12,1Zm4,16h-6.93c.292-.985,1.454-1.545,2.771-2.18,1.853-.894,4.159-2.005,4.159-4.82,0-2.206-1.794-4-4-4s-4,1.794-4,4h1c0-1.654,1.346-3,3-3s3,1.346,3,3c0,2.188-1.746,3.028-3.593,3.919-1.675,.808-3.407,1.643-3.407,3.581v.5h8v-1Z"/></svg>
