<?xml version="1.0" encoding="UTF-8"?>
<svg xmlns="http://www.w3.org/2000/svg" id="Layer_1" data-name="Layer 1" viewBox="0 0 24 24">
  <path d="m5,5v2h6.671l1,1H4v-4h4.671l1,1h-4.671Zm8.111.611l.707.707c1.755-1.755,4.609-1.755,6.364,0l.707-.707c-2.145-2.145-5.634-2.145-7.778,0Zm3.889-5.611c-2.538,0-4.923.988-6.717,2.783l.707.707c1.605-1.605,3.74-2.49,6.01-2.49s4.405.884,6.01,2.49l.707-.707c-1.794-1.794-4.18-2.783-6.717-2.783ZM6,10h-2v1h2v-1Zm8,0h-2v1h2v-1Zm-8,3h-2v1h2v-1Zm8,0h-2v1h2v-1Zm-4-3h-2v1h2v-1Zm0,3h-2v1h2v-1Zm-4,3h-2v1h2v-1Zm8,0h-2v1h2v-1Zm-4,0h-2v1h2v-1Zm-6,4h2v-1h-2v1Zm8,0h2v-1h-2v1Zm-4,0h2v-1h-2v1Zm11,0h-1v-8h-1v11H1V2.5c0-.827.673-1.5,1.5-1.5h6.775c.398-.362.811-.701,1.249-1H2.5C1.122,0,0,1.122,0,2.5v21.5h18v-3h2v-9h-1v8Zm-1-11c0-.552-.448-1-1-1s-1,.448-1,1,.448,1,1,1,1-.448,1-1Z"/>
</svg>
