<?xml version="1.0" encoding="UTF-8"?>
<svg xmlns="http://www.w3.org/2000/svg" id="Layer_1" data-name="Layer 1" viewBox="0 0 24 24">
  <path d="m2.5,0C1.121,0,0,1.121,0,2.5v11.207l2.5,2.5,2.5-2.5V2.5c0-1.379-1.121-2.5-2.5-2.5Zm1.5,13.293l-1.5,1.5-1.5-1.5V2.5c0-.827.673-1.5,1.5-1.5s1.5.673,1.5,1.5v10.793Zm13.5.707h-8c-1.379,0-2.5,1.121-2.5,2.5v7.5h13v-7.5c0-1.379-1.121-2.5-2.5-2.5Zm-8,1h8c.483,0,.909.234,1.184.59l-3.864,3.864c-.705.705-1.934.705-2.639,0l-3.864-3.864c.275-.356.701-.59,1.184-.59Zm-1.5,8v-6.313l3.474,3.473c.542.542,1.261.84,2.026.84s1.484-.298,2.026-.84l3.474-3.473v6.313h-11ZM17.812,0h-8.628c-1.204,0-2.185.98-2.185,2.185v10.577c.307-.206.647-.359,1-.485V2.185c0-.653.531-1.185,1.185-1.185h7.815v6h6v13h-1v1h2V6.188L17.812,0Zm.188,1.602l4.398,4.398h-4.398V1.602Z"/>
</svg>
