<?xml version="1.0" encoding="UTF-8"?>
<svg xmlns="http://www.w3.org/2000/svg" id="Layer_1" data-name="Layer 1" viewBox="0 0 24 24">
  <path d="m23.492,16l.508,7h-.929l-.566-6.794-2.005,4.41-2.005-4.41-.465,6.794h-1.03l.508-7c.043-.705.472-1,.988-1,.342,0,.66.242.841.64l1.164,2.56,1.164-2.56c.181-.398.499-.64.841-.64.516,0,.945.295.988,1Zm.508-12.5v9.5h-1v-4H1v13h2v1H0V3.5C0,2.122,1.121,1,2.5,1h19c1.379,0,2.5,1.122,2.5,2.5Zm-1,4.5V3.5c0-.827-.673-1.5-1.5-1.5H2.5c-.827,0-1.5.673-1.5,1.5v4.5h22ZM4,4c-.552,0-1,.448-1,1s.448,1,1,1,1-.448,1-1-.448-1-1-1Zm3,0c-.552,0-1,.448-1,1s.448,1,1,1,1-.448,1-1-.448-1-1-1Zm3,0c-.552,0-1,.448-1,1s.448,1,1,1,1-.448,1-1-.448-1-1-1Zm-2.5,12c.827,0,1.5.673,1.5,1.5h1c0-1.379-1.121-2.5-2.5-2.5s-2.5,1.121-2.5,2.5v3c0,1.379,1.121,2.5,2.5,2.5s2.5-1.121,2.5-2.5h-1c0,.827-.673,1.5-1.5,1.5s-1.5-.673-1.5-1.5v-3c0-.827.673-1.5,1.5-1.5Zm7.364,3.591l1.136,3.409h-1.055l-1.014-3.044c-.141.025-.283.044-.431.044h-1.5v3h-1v-8h2.5c1.379,0,2.5,1.121,2.5,2.5,0,.875-.454,1.644-1.136,2.091Zm.136-2.091c0-.827-.673-1.5-1.5-1.5h-1.5v3h1.5c.827,0,1.5-.673,1.5-1.5Z"/>
</svg>
