<?xml version="1.0" encoding="UTF-8"?>
<svg xmlns="http://www.w3.org/2000/svg" id="Layer_1" data-name="Layer 1" viewBox="0 0 24 24">
  <path d="m14.363,12.949l-3.354,3.354-3.293-3.293,3.354-3.354-.707-.707-3.354,3.354-1.906-1.906-.707.707.792.792-2.079,2.079c-1.479,1.479-1.479,3.884,0,5.362l.423.423L.029,23.264l.707.707,3.504-3.504.423.423c.739.739,1.71,1.108,2.681,1.108s1.942-.369,2.682-1.108l2.079-2.079.792.792.707-.707-1.887-1.887,3.354-3.354-.707-.707Zm-5.045,7.233c-1.087,1.087-2.859,1.089-3.948,0l-1.553-1.553c-1.089-1.089-1.089-2.859,0-3.948l2.079-2.079,5.501,5.501-2.079,2.079Zm11.148-15.942l3.509-3.509-.707-.707-3.509,3.509-.423-.423c-1.479-1.479-3.884-1.478-5.362,0l-2.079,2.079-.792-.792-.707.707,8.5,8.5.707-.707-.792-.792,2.079-2.079c1.479-1.479,1.479-3.884,0-5.362l-.423-.423Zm-.284,5.078l-2.079,2.079-5.501-5.501,2.079-2.079c1.088-1.088,2.86-1.088,3.948,0l1.553,1.553c1.089,1.089,1.089,2.859,0,3.948Z"/>
</svg>
