<?xml version="1.0" encoding="UTF-8"?>
<svg xmlns="http://www.w3.org/2000/svg" id="Layer_1" data-name="Layer 1" viewBox="0 0 24 24">
  <path d="m5.364,6.671L.035.708.781.042l5.329,5.963c.573.642.89,1.47.89,2.332v9.366l3.102-3.102.707.707-3.256,3.256c-.29.29-.672.435-1.053.435s-.763-.145-1.053-.434l-3.256-3.257.707-.707,3.102,3.102v-9.367c0-.616-.226-1.207-.636-1.666Zm17.636,5.329v9.5c0,.827-.673,1.5-1.5,1.5H2.5c-.827,0-1.5-.673-1.5-1.5v-9.5H0v9.5c0,1.378,1.121,2.5,2.5,2.5h19c1.379,0,2.5-1.122,2.5-2.5v-9.5h-1Zm-5.5,7c.381,0,.763-.145,1.053-.435l3.256-3.256-.707-.707-3.102,3.102v-9.366c0-.616.226-1.207.636-1.666L23.965.708l-.746-.666-5.329,5.963c-.573.642-.89,1.47-.89,2.332v9.367l-3.102-3.102-.707.707,3.256,3.257c.29.29.672.434,1.053.434Z"/>
</svg>
