<?xml version="1.0" encoding="UTF-8"?>
<svg xmlns="http://www.w3.org/2000/svg" id="Layer_1" data-name="Layer 1" viewBox="0 0 24 24" width="512" height="512"><path d="M18.5,11.854c1.444-.432,2.5-1.772,2.5-3.354,0-1.93-1.57-3.5-3.5-3.5-.974,0-1.862,.395-2.5,1.045V1.5c0-.827-.673-1.5-1.5-1.5H7V1h2v7c0,.895-1.194,1.898-2.46,2.961-1.659,1.396-3.54,2.976-3.54,5.039,0,2.419,1.473,3.801,3.033,5.266,.614,.578,.967,1.393,.967,2.234v.5h10v-.5c0-.842,.353-1.656,.967-2.234,1.561-1.465,3.033-2.847,3.033-5.266,0-1.636-1.183-2.969-2.5-4.146Zm-3.466-3.771c.202-1.207,1.239-2.083,2.466-2.083,1.379,0,2.5,1.121,2.5,2.5s-1.118,2.496-2.494,2.5l-.046-.039c-1.229-1.032-2.391-2.008-2.457-2.883l.031,.005Zm-7.851,3.644c1.448-1.217,2.816-2.366,2.816-3.727V1h3.5c.275,0,.5,.225,.5,.5v6.5c0,1.36,1.368,2.51,2.816,3.727,.872,.733,1.76,1.48,2.376,2.273H4.807c.616-.794,1.504-1.541,2.376-2.273Zm12.816,4.273c0,1.986-1.214,3.125-2.719,4.537-.691,.651-1.133,1.529-1.25,2.463H7.969c-.117-.934-.559-1.812-1.25-2.463-1.505-1.412-2.719-2.551-2.719-4.537,0-.344,.075-.676,.208-1h15.584c.133,.324,.208,.656,.208,1Z"/></svg>
