<?xml version="1.0" encoding="UTF-8"?>
<svg xmlns="http://www.w3.org/2000/svg" id="Layer_1" data-name="Layer 1" viewBox="0 0 24 24">
  <path d="m15,13c1.103,0,2-.897,2-2s-.897-2-2-2-2,.897-2,2,.897,2,2,2Zm0-3c.552,0,1,.448,1,1s-.448,1-1,1-1-.448-1-1,.448-1,1-1Zm-6,3c1.103,0,2-.897,2-2s-.897-2-2-2-2,.897-2,2,.897,2,2,2Zm0-3c.551,0,1,.448,1,1s-.449,1-1,1-1-.448-1-1,.449-1,1-1ZM24,0h-1c0,2.206-1.794,4-4,4H5C2.794,4,1,2.206,1,0H0c0,2.757,2.243,5,5,5h.777l-2.58,6.842c-.581,1.657.167,3.501,1.796,4.312l2.076.726,1.526,7.121h6.809l1.525-7.121,2.135-.75c1.571-.786,2.318-2.63,1.734-4.299l-2.576-6.83h.777c2.757,0,5-2.243,5-5Zm-4.141,12.172c.414,1.185-.12,2.501-1.184,3.038l-2.605.911-1.475,6.879h-5.191l-1.474-6.879-2.548-.887c-1.123-.562-1.656-1.878-1.246-3.051l2.709-7.184h10.308l2.705,7.172Z"/>
</svg>
