<?xml version="1.0" encoding="UTF-8"?>
<svg xmlns="http://www.w3.org/2000/svg" id="Layer_1" data-name="Layer 1" viewBox="0 0 24 24">
  <path d="m24,2.5v8.5h-9.276c-.128-.357-.307-.688-.513-1h8.789V2.5c0-.827-.673-1.5-1.5-1.5H2.5c-.827,0-1.5.673-1.5,1.5v7.5h5.759c-.206.312-.366.647-.488,1H0V2.5C0,1.122,1.121,0,2.5,0h19c1.379,0,2.5,1.122,2.5,2.5Zm-10.998,10.115c0-1.273-.896-2.379-2.084-2.573-.729-.116-1.475.085-2.035.562-.56.476-.881,1.17-.881,1.905v7.601l-1.812-1.442c-1.007-.925-2.579-.869-3.514.133-.941,1.007-.894,2.588.106,3.524l1.783,1.684h1.44l-2.535-2.407c-.599-.562-.629-1.514-.064-2.118.562-.603,1.509-.635,2.115-.072.01.009.021.018.031.026h0s3.449,2.747,3.449,2.747v-9.675c0-.44.192-.857.528-1.143.341-.291.776-.41,1.228-.336.709.115,1.244.797,1.244,1.586v5.24l8,3v3.192h1v-3.885l-8-3v-4.546Z"/>
</svg>
