<?xml version="1.0" encoding="UTF-8"?>
<svg xmlns="http://www.w3.org/2000/svg" id="Layer_1" data-name="Layer 1" viewBox="0 0 24 24" width="512" height="512"><path d="M21.5,2H2.5C1.12,2,0,3.12,0,4.5V22H15.64l-1-1H1V8H23v8.64l1,1V4.5c0-1.38-1.12-2.5-2.5-2.5ZM1,7v-2.5c0-.83,.67-1.5,1.5-1.5H21.5c.83,0,1.5,.67,1.5,1.5v2.5H1Zm14.54,5h-3.54v3.54l7.73,7.73c.47,.47,1.1,.73,1.77,.73s1.3-.26,1.77-.73c.47-.47,.73-1.1,.73-1.77s-.26-1.3-.73-1.77l-7.73-7.73Zm7.02,10.56c-.57,.57-1.55,.57-2.12,0l-7.44-7.44v-2.12h2.12l7.44,7.44c.28,.28,.44,.66,.44,1.06s-.16,.78-.44,1.06Z"/></svg>
