<?xml version="1.0" encoding="UTF-8"?>
<svg xmlns="http://www.w3.org/2000/svg" id="Layer_1" data-name="Layer 1" viewBox="0 0 24 24" width="512" height="512"><path d="m17.5,11c-3.584,0-6.5,2.916-6.5,6.5s2.916,6.5,6.5,6.5,6.5-2.916,6.5-6.5-2.916-6.5-6.5-6.5Zm-5.5,6.5c0-3.032,2.468-5.5,5.5-5.5,1.337,0,2.563.48,3.517,1.276l-7.742,7.742c-.796-.954-1.276-2.181-1.276-3.517Zm5.5,5.5c-1.337,0-2.563-.48-3.517-1.276l7.742-7.742c.796.954,1.276,2.181,1.276,3.517,0,3.032-2.468,5.5-5.5,5.5Zm-6.474,0h-6.526c-.827,0-1.5-.673-1.5-1.5v-3.5h4v-1H3v-3h4v-1H3v-3h4v-1H3v-4h16v4.14c.34.061.675.135,1,.235v-4.375h2v-2.5c0-1.379-1.121-2.5-2.5-2.5H2.5C1.121,0,0,1.121,0,2.5v2.5h2v16.5c0,1.379,1.121,2.5,2.5,2.5h7.528c-.362-.305-.696-.64-1.003-1ZM1,2.5c0-.827.673-1.5,1.5-1.5h17c.827,0,1.5.673,1.5,1.5v1.5H1v-1.5Z"/></svg>
