<?xml version="1.0" encoding="UTF-8"?>
<svg xmlns="http://www.w3.org/2000/svg" id="Layer_1" data-name="Layer 1" viewBox="0 0 24 24" width="512" height="512"><path d="M14,5.29c-.63-.19-1.31-.29-2-.29-3.86,0-7,3.14-7,7s3.14,7,7,7,7-3.14,7-7c0-.69-.1-1.37-.29-2h1.04c.17,.64,.25,1.31,.25,2,0,4.41-3.59,8-8,8s-8-3.59-8-8S7.59,4,12,4c.69,0,1.36,.09,2,.25v1.04Zm-2.6,3.77l1.04-1.04c-.14-.02-.29-.02-.44-.02-2.21,0-4,1.79-4,4s1.79,4,4,4,4-1.79,4-4c0-.15,0-.3-.02-.44l-1.04,1.04c-.28,1.37-1.49,2.4-2.94,2.4-1.65,0-3-1.35-3-3,0-1.45,1.03-2.66,2.4-2.94Zm11.17-.09c.28,.96,.43,1.98,.43,3.03,0,6.07-4.93,11-11,11S1,18.07,1,12,5.93,1,12,1c1.05,0,2.07,.15,3.03,.43l.79-.8c-1.2-.41-2.49-.63-3.83-.63C5.38,0,0,5.38,0,12s5.38,12,12,12,12-5.38,12-12c0-1.34-.22-2.62-.62-3.82l-.8,.79Zm1.43-4.97v.71l-3.29,3.29h-4l-4.35,4.35-.71-.71,4.35-4.35V3.29l3.25-3.29h.75V4h4Zm-1.67,1h-3.33V1.68l-2,2.03v3.29h3.29l2.03-2Z"/></svg>
