<?xml version="1.0" encoding="UTF-8"?>
<svg xmlns="http://www.w3.org/2000/svg" id="Layer_1" data-name="Layer 1" viewBox="0 0 24 24" width="512" height="512"><path d="M24,24H0V2.5C0,1.12,1.12,0,2.5,0H21.5c1.38,0,2.5,1.12,2.5,2.5V24ZM1,23H23V2.5c0-.83-.67-1.5-1.5-1.5H2.5c-.83,0-1.5,.67-1.5,1.5V23ZM18,11c-.55,0-1,.45-1,1s.45,1,1,1,1-.45,1-1-.45-1-1-1Zm-6,0c-.55,0-1,.45-1,1s.45,1,1,1,1-.45,1-1-.45-1-1-1Zm-6,0c-.55,0-1,.45-1,1s.45,1,1,1,1-.45,1-1-.45-1-1-1Zm7,7c0-.55-.45-1-1-1s-1,.45-1,1,.45,1,1,1,1-.45,1-1Zm0-12c0-.55-.45-1-1-1s-1,.45-1,1,.45,1,1,1,1-.45,1-1Z"/></svg>
