<?xml version="1.0" encoding="UTF-8"?>
<svg xmlns="http://www.w3.org/2000/svg" id="Layer_1" data-name="Layer 1" viewBox="0 0 24 24">
  <path d="m15,10h1v14H0V2.5C0,1.121,1.122,0,2.5,0h2.5v1h-2.5c-.827,0-1.5.673-1.5,1.5v20.5h14v-13Zm-10,0h-2v1h2v-1Zm0,4h-2v1h2v-1Zm0-8h-2v1h2v-1Zm4,8h-2v1h2v-1Zm-6,5h2v-1h-2v1Zm6-1h-2v1h2v-1Zm4-4h-2v1h2v-1Zm-4-4h-2v1h2v-1Zm4,0h-2v1h2v-1Zm-2,9h2v-1h-2v1ZM24,2.5v3c0,1.379-1.122,2.5-2.5,2.5s-2.5-1.121-2.5-2.5v-3c0-1.379,1.122-2.5,2.5-2.5s2.5,1.121,2.5,2.5Zm-1,0c0-.827-.673-1.5-1.5-1.5s-1.5.673-1.5,1.5v3c0,.827.673,1.5,1.5,1.5s1.5-.673,1.5-1.5v-3Zm-7.5-1.5c.827,0,1.5.673,1.5,1.5h1c0-1.379-1.122-2.5-2.5-2.5s-2.5,1.121-2.5,2.5v3c0,1.379,1.122,2.5,2.5,2.5s2.5-1.121,2.5-2.5v-1.5h-2v1h1v.5c0,.827-.673,1.5-1.5,1.5s-1.5-.673-1.5-1.5v-3c0-.827.673-1.5,1.5-1.5Zm-7.5,1.383l3.21,5.617h.79V0h-1v5.617L7.79,0h-.79v8h1V2.383Z"/>
</svg>
