<?xml version="1.0" encoding="UTF-8"?>
<svg xmlns="http://www.w3.org/2000/svg" id="Layer_1" data-name="Layer 1" viewBox="0 0 24 24">
  <path d="m3,12h8v-4H3v4Zm1-3h6v2h-6v-2ZM17.5,0H7.5C4.62,0,2.254,2.227,2.023,5.048c-1.151.224-2.023,1.236-2.023,2.452v16.5h14V7.5c0-1.135-.764-2.084-1.801-2.388.625-2.404,2.768-4.112,5.301-4.112,3.032,0,5.5,2.468,5.5,5.5v10.315l-2.135-1.298-2.865,1.801-2-1.257v1.181l2,1.257,2.874-1.807,3.126,1.9V6.5c0-3.584-2.916-6.5-6.5-6.5Zm-4.5,7.5v15.5H1V7.5c0-.827.673-1.5,1.5-1.5h9c.827,0,1.5.673,1.5,1.5Zm-1.801-2.5H3.051c.252-2.244,2.139-4,4.449-4h6.549c-1.411.883-2.448,2.297-2.85,4Zm-7.199,9h2v1h-2v-1Zm4,0h2v1h-2v-1Zm-4,3h2v1h-2v-1Zm4,0h2v1h-2v-1Zm-4,3h2v1h-2v-1Zm4,0h2v1h-2v-1Z"/>
</svg>
