<?xml version="1.0" encoding="UTF-8"?>
<svg xmlns="http://www.w3.org/2000/svg" id="Layer_1" data-name="Layer 1" viewBox="0 0 24 24">
  <path d="m21,18c-1.654,0-3,1.346-3,3s1.346,3,3,3,3-1.346,3-3-1.346-3-3-3Zm0,5c-1.103,0-2-.897-2-2s.897-2,2-2,2,.897,2,2-.897,2-2,2Zm-6.872-12.421L23.945.762l-.707-.707-9.817,9.817-2.696-2.697-1.958,3.916c-1.682-.317-3.426.212-4.647,1.433-1.918,1.917-3.785,10.27-3.864,10.625l-.17.766.767-.169c.354-.079,8.707-1.946,10.625-3.863,1.231-1.232,1.756-2.951,1.432-4.648l3.915-1.958-2.696-2.697Zm-3.13-1.716l4.139,4.138-2.78,1.39-2.748-2.748,1.39-2.78Zm-.229,10.311c-1.285,1.285-6.621,2.761-9.359,3.415.654-2.738,2.13-8.073,3.416-9.358.999-.999,2.434-1.425,3.809-1.147l3.281,3.281c.282,1.389-.139,2.801-1.147,3.809Z"/>
</svg>
