<?xml version="1.0" encoding="UTF-8"?>
<svg xmlns="http://www.w3.org/2000/svg" id="Layer_1" data-name="Layer 1" viewBox="0 0 24 24" width="512" height="512"><path d="M5.64,12.64c.97-.97,2.11-1.68,3.36-2.13v1.07c-.98,.4-1.88,.99-2.66,1.76l-.71-.71ZM1.39,8.39c2.11-2.11,4.74-3.52,7.61-4.1v-1.02C5.87,3.87,2.99,5.38,.69,7.69l.71,.71Zm13.61,3.19c.98,.4,1.88,.99,2.66,1.76l.71-.71c-.97-.97-2.11-1.68-3.36-2.13v1.07Zm0-8.3v1.02c2.86,.58,5.49,1.98,7.61,4.1l.71-.71c-2.3-2.3-5.18-3.82-8.31-4.41Zm-1,15.72c0,1.1-.9,2-2,2s-2-.9-2-2,.9-2,2-2,2,.9,2,2Zm-1,0c0-.55-.45-1-1-1s-1,.45-1,1,.45,1,1,1,1-.45,1-1Zm-.5-16h-1V15h1V3Z"/></svg>
