<?xml version="1.0" encoding="UTF-8"?>
<svg xmlns="http://www.w3.org/2000/svg" id="Layer_1" data-name="Layer 1" viewBox="0 0 24 24" width="512" height="512"><path d="m13.006.045c-3.124-.276-6.117.728-8.423,2.838C2.306,4.965,1,7.924,1,11v6.52c0,1.379,1.122,2.5,2.5,2.5l1.5-.015v3.995h14v-3.995l1.5.015c1.378,0,2.5-1.121,2.5-2.5v-6.165C23,5.514,18.61.546,13.006.045Zm8.994,17.475c0,.827-.673,1.5-1.495,1.5l-2.505-.024v4.005h-2v-2h-1v2h-2.5v-2h-1v2h-2.5v-2h-1v2h-2v-4.005l-2.502.024c-.826,0-1.498-.674-1.498-1.5v-6.52c0-2.796,1.188-5.486,3.258-7.379,2.097-1.918,4.818-2.841,7.66-2.58,5.093.455,9.083,4.985,9.083,10.313v6.165ZM7.5,8c-1.378,0-2.5,1.121-2.5,2.5s1.122,2.5,2.5,2.5,2.5-1.121,2.5-2.5-1.122-2.5-2.5-2.5Zm0,4c-.827,0-1.5-.673-1.5-1.5s.673-1.5,1.5-1.5,1.5.673,1.5,1.5-.673,1.5-1.5,1.5Zm9-4c-1.378,0-2.5,1.121-2.5,2.5s1.122,2.5,2.5,2.5,2.5-1.121,2.5-2.5-1.122-2.5-2.5-2.5Zm0,4c-.827,0-1.5-.673-1.5-1.5s.673-1.5,1.5-1.5,1.5.673,1.5,1.5-.673,1.5-1.5,1.5Zm-4.5,2c-1.526,0-2.5,2.298-2.5,3.5,0,.458.129.818.383,1.07.445.441,1.553.43,2.117.43s1.721-.037,2.117-.43c.254-.252.383-.612.383-1.07,0-1.202-.974-3.5-2.5-3.5Zm1.412,3.86c-.149.148-1.412.14-1.412.14,0,0-1.262.009-1.412-.14-.073-.071-.088-.235-.088-.36,0-.987.805-2.5,1.5-2.5s1.5,1.513,1.5,2.5c0,.125-.015.289-.088.36Z"/></svg>
