<?xml version="1.0" encoding="UTF-8"?>
<svg xmlns="http://www.w3.org/2000/svg" id="Layer_1" data-name="Layer 1" viewBox="0 0 24 24">
  <path d="m14.707,0H4.5c-1.379,0-2.5,1.122-2.5,2.5v21.5h20V7.293L14.707,0Zm.293,1.707l5.293,5.293h-5.293V1.707ZM3,23V2.5c0-.827.673-1.5,1.5-1.5h9.5v7h7v15H3Zm3-13h12v1H6v-1Zm0,4h12v1H6v-1Zm11.085,3.721l.831.557c-.047.07-1.174,1.723-3.416,1.723-1.254,0-2.041-.432-2.735-.813-.671-.368-1.251-.687-2.239-.687h-.022c-1.61.008-2.593,1.287-2.603,1.299l-.802-.597c.051-.069,1.278-1.691,3.398-1.702h.027c1.245,0,2.029.43,2.722.81.674.37,1.257.69,2.254.69,1.693,0,2.55-1.227,2.585-1.279Z"/>
</svg>
