<?xml version="1.0" encoding="UTF-8"?>
<svg xmlns="http://www.w3.org/2000/svg" id="Layer_1" data-name="Layer 1" viewBox="0 0 24 24" width="512" height="512"><path d="m14,12c0-1.103-.897-2-2-2s-2,.897-2,2,.897,2,2,2,2-.897,2-2Zm-3,0c0-.552.448-1,1-1s1,.448,1,1-.448,1-1,1-1-.448-1-1Zm-4-2c1.103,0,2-.897,2-2s-.897-2-2-2-2,.897-2,2,.897,2,2,2Zm0-3c.552,0,1,.448,1,1s-.448,1-1,1-1-.448-1-1,.448-1,1-1Zm13,0c1.654,0,3-1.346,3-3s-1.346-3-3-3-3,1.346-3,3,1.346,3,3,3Zm0-5c1.103,0,2,.897,2,2s-.897,2-2,2-2-.897-2-2,.897-2,2-2Zm-8,3c3.859,0,7,3.141,7,7s-3.141,7-7,7-7-3.141-7-7c0-.183.014-.362.027-.541.305.175.631.312.98.402-.001.047-.007.093-.007.14,0,3.309,2.691,6,6,6s6-2.691,6-6-2.691-6-6-6c-.503,0-.988.069-1.455.186-.164-.319-.364-.614-.604-.876.651-.201,1.343-.31,2.059-.31Zm12,7c0,6.617-5.383,12-12,12S0,18.617,0,12,5.383,0,12,0c1.482,0,2.896.283,4.207.776-.223.262-.417.546-.583.85-1.137-.399-2.353-.626-3.625-.626C5.935,1,1,5.935,1,12s4.935,11,11,11,11-4.935,11-11c0-1.271-.228-2.488-.626-3.625.305-.166.588-.359.85-.583.493,1.312.776,2.725.776,4.207Z"/></svg>
