<?xml version="1.0" encoding="UTF-8"?>
<svg xmlns="http://www.w3.org/2000/svg" id="Layer_1" data-name="Layer 1" viewBox="0 0 24 24" width="512" height="512"><path d="M8,11c-.552,0-1-.448-1-1s.448-1,1-1,1,.448,1,1-.448,1-1,1Zm9-1c0-.552-.448-1-1-1s-1,.448-1,1,.448,1,1,1,1-.448,1-1Zm6.331-1.295c.835,.899,.783,2.309-.114,3.145l-6.49,6.102-.343-.308c-.019-.016-1.858-1.644-4.384-1.644s-4.646,1.854-4.667,1.873l-.666-.746c.097-.086,2.414-2.127,5.333-2.127,.393,0,.77,.033,1.128,.09l7.06-6.501c.896-.832,2.308-.781,3.144,.116Zm-2.465,.619l-6.57,6.05c1.11,.363,1.949,.905,2.396,1.237l.807-.759-.872-.969,.744-.669,.857,.952,1.317-1.238-.791-.87,.74-.673,.78,.858,1.274-1.198-.765-.842,.74-.673,.754,.829,.255-.24c.497-.462,.525-1.238,.065-1.733-.462-.495-1.237-.522-1.732-.062Zm1.919,5.448l-.202,.191c-1.298,4.629-5.545,8.037-10.583,8.037-6.065,0-11-4.935-11-11S5.935,1,12,1c3.888,0,7.304,2.034,9.261,5.087,.379-.071,.762-.08,1.144-.041C20.333,2.44,16.45,0,12,0,5.383,0,0,5.383,0,12s5.383,12,12,12c6.018,0,11.001-4.457,11.856-10.241l-1.07,1.013h0Z"/></svg>
