<?xml version="1.0" encoding="UTF-8"?>
<svg xmlns="http://www.w3.org/2000/svg" id="Layer_1" data-name="Layer 1" viewBox="0 0 24 24">
  <path d="m15.893,8.063c.408,1.784-.382,3.569-1.965,4.441-.895.493-1.428,1.325-1.428,2.228v.268h-1v-.268c0-1.271.728-2.432,1.946-3.103,1.188-.655,1.78-1.999,1.473-3.344-.245-1.073-1.131-1.96-2.205-2.205-.921-.21-1.864-.002-2.583.572-.719.573-1.131,1.429-1.131,2.347h-1c0-1.225.549-2.364,1.507-3.129.958-.765,2.209-1.045,3.429-.765,1.463.334,2.624,1.495,2.957,2.957Zm-3.893,8.937c-.552,0-1,.448-1,1s.448,1,1,1,1-.448,1-1-.448-1-1-1Zm10-11.855v6.726c0,7.497-7.172,10.968-9.37,11.853l-.65.261-.625-.312c-2.195-1.097-9.354-5.188-9.354-11.801v-6.725c0-1.079.687-2.033,1.708-2.372h0L12,.025l8.287,2.747c1.025.339,1.713,1.292,1.713,2.372Zm-1,0c0-.647-.413-1.22-1.027-1.423l-7.973-2.644-7.976,2.645c-.612.203-1.024.775-1.024,1.423v6.725c0,6.038,6.96,9.985,9.025,11.018,2.05-.826,8.975-4.147,8.975-11.018v-6.726Z"/>
</svg>
