<?xml version="1.0" encoding="UTF-8"?>
<svg xmlns="http://www.w3.org/2000/svg" id="Layer_1" data-name="Layer 1" viewBox="0 0 24 24" width="512" height="512"><path d="m12,6c-3.859,0-7,3.14-7,7,0,5.684,6.426,10.591,6.699,10.797l.301.227.301-.227c.273-.206,6.699-5.113,6.699-10.797,0-3.86-3.141-7-7-7Zm0,16.757c-1.255-1.033-6-5.237-6-9.757,0-3.309,2.691-6,6-6s6,2.691,6,6c0,4.521-4.745,8.725-6,9.757Zm8.622.223h3.378v1h-5.304l.564-.791c2.848-3.988,3.93-7.387,3.722-11.711h-.017c-.085-1.808-.488-3.383-1.168-4.556-.388-.667-.829-1.553-.798-2.486.044-1.324.555-2.648.925-3.444-1.579-.008-8.602.012-8.602.012-.735.005-1.384.01-1.878.035C5.897,1.311,1.326,5.857,1.037,11.39c-.227,4.366.851,7.785,3.718,11.8l.564.791H0v-1h3.394C.792,19.096-.186,15.661.039,11.338.354,5.299,5.343.336,11.396.039c.505-.025,1.168-.03,1.92-.036h10.291s-.436.746-.436.746c-.012.019-1.113,1.924-1.172,3.72-.022.678.342,1.399.663,1.951.747,1.291,1.194,2.989,1.297,4.918h.017c.225,4.322-.753,7.757-3.354,11.641Z"/></svg>
