<?xml version="1.0" encoding="UTF-8"?>
<svg xmlns="http://www.w3.org/2000/svg" id="Layer_1" data-name="Layer 1" viewBox="0 0 24 24" width="512" height="512"><path d="m21.5,2h-3.5V0h-1v2H7V0h-1v2h-3.5c-1.378,0-2.5,1.122-2.5,2.5v19.5h24V4.5c0-1.378-1.122-2.5-2.5-2.5ZM2.5,3h19c.827,0,1.5.673,1.5,1.5v3.5H1v-3.5c0-.827.673-1.5,1.5-1.5Zm-1.5,20v-14h22v14H1Zm15.945-9.013h-3.098l-.944-3.101h-1.914l-.89,3.101h-3.141l-.296,1.593,2.325,1.689-.866,2.822,1.379,1.065,2.478-1.678,2.439,1.654,1.473-1.006-.922-2.833,2.392-1.772-.415-1.534Zm-3.15,2.931l.913,2.805-.292.199-2.438-1.652-2.44,1.653-.258-.2.873-2.844-2.393-1.738.028-.154h3.064l.89-3.101h.419l.944,3.101h3.074l.037.136-2.422,1.794Z"/></svg>
