<?xml version="1.0" encoding="UTF-8"?>
<svg xmlns="http://www.w3.org/2000/svg" id="Layer_1" data-name="Layer 1" viewBox="0 0 24 24">
  <path d="m8,22.5v1.5h-1v-1.5c0-.827-.673-1.5-1.5-1.5h-3c-.827,0-1.5.673-1.5,1.5v1.5H0v-1.5c0-1.378,1.121-2.5,2.5-2.5h3c1.379,0,2.5,1.122,2.5,2.5Zm13.5-2.5h-3c-1.379,0-2.5,1.122-2.5,2.5v1.5h1v-1.5c0-.827.673-1.5,1.5-1.5h3c.827,0,1.5.673,1.5,1.5v1.5h1v-1.5c0-1.378-1.121-2.5-2.5-2.5Zm-17.5-1c-1.654,0-3-1.346-3-3s1.346-3,3-3,3,1.346,3,3-1.346,3-3,3Zm0-1c1.103,0,2-.897,2-2s-.897-2-2-2-2,.897-2,2,.897,2,2,2Zm16,1c-1.654,0-3-1.346-3-3s1.346-3,3-3,3,1.346,3,3-1.346,3-3,3Zm0-1c1.103,0,2-.897,2-2s-.897-2-2-2-2,.897-2,2,.897,2,2,2Zm-10,6h4v-1h-4v1ZM24,4.5v8.221c-.304-.346-.641-.659-1-.948v-2.773H1v2.773c-.359.289-.696.602-1,.948V4.5c0-1.378,1.121-2.5,2.5-2.5h3.5V0h1v2h10V0h1v2h3.5c1.379,0,2.5,1.122,2.5,2.5Zm-1,3.5v-3.5c0-.827-.673-1.5-1.5-1.5H2.5c-.827,0-1.5.673-1.5,1.5v3.5h22Z"/>
</svg>
