<?xml version="1.0" encoding="UTF-8"?>
<svg xmlns="http://www.w3.org/2000/svg" id="Layer_1" data-name="Layer 1" viewBox="0 0 24 24">
  <path d="m22,5c-1.103,0-2,.897-2,2,0,.215.043.418.106.613l-3.666,2.333c-.759-1.113-1.764-2.041-2.931-2.721l1.945-3.31c.175.05.355.085.546.085,1.103,0,2-.897,2-2s-.897-2-2-2-2,.897-2,2c0,.552.225,1.053.588,1.415l-1.97,3.352c-1.109-.489-2.331-.766-3.619-.766C4.037,6.001,0,10.039,0,15.001s4.037,9,9,9,9-4.037,9-9c0-1.516-.38-2.943-1.045-4.198l3.685-2.345c.357.334.833.542,1.36.542,1.103,0,2-.897,2-2s-.897-2-2-2Zm-6-4c.552,0,1,.449,1,1s-.448,1-1,1-1-.449-1-1,.448-1,1-1Zm-7.618,16.18c3.415-.83,6.136-3.389,7.17-6.756.45.642.809,1.352,1.056,2.113-.88,2.859-3.184,5.089-6.076,5.864-.778-.304-1.499-.717-2.15-1.22Zm6.381-7.714c-.813,3.586-3.7,6.289-7.324,6.872-.479-.496-.896-1.05-1.246-1.648,3.281-.784,5.945-3.307,6.901-6.55.614.368,1.176.812,1.669,1.326Zm-9.615,2.412c2.339-.76,4.242-2.491,5.218-4.752.638.111,1.252.292,1.829.545-.825,3.072-3.363,5.461-6.473,6.105-.262-.601-.454-1.237-.574-1.898Zm4.174-4.861c-.868,1.798-2.413,3.183-4.294,3.849-.011-.181-.028-.362-.028-.546,0-.829.127-1.645.357-2.433,1.094-.563,2.331-.887,3.643-.887.109,0,.214.012.322.016ZM1,15.001c0-.868.143-1.702.4-2.485.492,5.423,4.941,9.708,10.429,9.959-.881.335-1.832.526-2.83.526-4.411,0-8-3.589-8-8Zm12.792,6.39c-.48.071-.97.109-1.459.109-5.505,0-9.983-4.479-9.983-9.983,0-.29.009-.691.032-1.003.487-.715,1.091-1.342,1.777-1.867-.096.551-.159,1.108-.159,1.673,0,5.337,4.343,9.68,9.68,9.68.565,0,1.124-.063,1.675-.159-.448.586-.973,1.107-1.562,1.55Zm2.322-2.748c-.788.23-1.604.357-2.434.357-.509,0-1.005-.053-1.49-.137,2.074-.917,3.764-2.537,4.775-4.564.02.232.036.465.036.702,0,1.312-.324,2.548-.886,3.642Zm5.886-10.643c-.552,0-1-.449-1-1s.448-1,1-1,1,.449,1,1-.448,1-1,1Z"/>
</svg>
