<?xml version="1.0" encoding="UTF-8"?>
<svg xmlns="http://www.w3.org/2000/svg" id="Layer_1" data-name="Layer 1" viewBox="0 0 24 24">
  <path d="m17.5,11c-3.584,0-6.5,2.916-6.5,6.5s2.916,6.5,6.5,6.5,6.5-2.916,6.5-6.5-2.916-6.5-6.5-6.5Zm0,12c-3.033,0-5.5-2.468-5.5-5.5s2.467-5.5,5.5-5.5,5.5,2.468,5.5,5.5-2.467,5.5-5.5,5.5Zm2.94-7.451l.701.713-3.457,3.399c-.217.218-.51.339-.822.339s-.604-.121-.825-.342l-1.851-1.794.696-.719,1.856,1.8c.062.062.186.062.241.006l3.46-3.402Zm-9.414,7.451c.306.36.641.695,1.003,1H3.5c-1.378,0-2.5-1.121-2.5-2.5v-10.558c-.617-.631-1-1.492-1-2.442L2.632,0h18.735l2.632,8.5c0,.972-.4,1.852-1.043,2.487-.261-.219-.537-.421-.824-.608.51-.444.845-1.084.866-1.806l-2.367-7.573h-3.632v4h-1V1h-8v4h-1V1h-3.632l-2.367,7.573c.039,1.345,1.145,2.427,2.499,2.427h1c1.378,0,2.5-1.122,2.5-2.5v-.5h1v.5c0,1.378,1.122,2.5,2.5,2.5h1.528c-.362.305-.696.64-1.003,1h-.526c-1.28,0-2.39-.698-3-1.726-.61,1.028-1.72,1.726-3,1.726h-1c-.539,0-1.044-.133-1.5-.351v9.851c0,.827.673,1.5,1.5,1.5h7.526Z"/>
</svg>
