<?xml version="1.0" encoding="UTF-8"?>
<svg xmlns="http://www.w3.org/2000/svg" id="Layer_1" data-name="Layer 1" viewBox="0 0 24 24">
  <path d="m22.115,5c-.499,0-.948-.277-1.171-.724-.394-.787-1.186-1.276-2.065-1.276h-.882V0h-.5c-1.378,0-2.5,1.122-2.5,2.5v1.756l-1.351,3.744h-.175S1.624,0,1.624,0H0l11.705,8.001-6.211.003c-.935,0-1.814.364-2.475,1.025-.03.03-.051.066-.08.097-.558-.384-1.946-1.587-1.946-4.127H-.007C-.007,7.973,1.627,9.439,2.371,9.953c-.238.478-.378,1.002-.378,1.552l.003,12.499h4.997v-6.005l7.003-.003v6.004h5.003l-.008-5.91,1.306-7.09h1.199c1.378,0,2.5-1.122,2.5-2.5v-3.5h-1.882ZM5.993,17v6.004h-2.997l-.003-11.499c0-.668.26-1.296.732-1.769.472-.472,1.1-.732,1.769-.732l7.506-.004v7.996l-7.007.004Zm12.007,1v5h-3.003v-6.005h-.997s0-7.624,0-7.624l5.042,2.941-1.042,5.688Zm4.997-9.5c0,.827-.673,1.5-1.5,1.5h-2.032l-.232,1.265-4.711-2.748,1.445-4.004.03-2.013c0-.652.418-1.208,1-1.415v2.915h1.882c.499,0,.948.277,1.171.724.394.787,1.186,1.276,2.065,1.276h.882v2.5Z"/>
</svg>
