<?xml version="1.0" encoding="UTF-8"?>
<svg xmlns="http://www.w3.org/2000/svg" id="Layer_1" data-name="Layer 1" viewBox="0 0 24 24" width="512" height="512"><path d="m19,0v2H5V0H0v24h5v-2h14v2h5V0h-5ZM4,23H1V1h3v22Zm1-2V3h14v18H5Zm18,2h-3V1h3v22Z"/><path d="m14.111,8.505l-2.111-3.467-2.111,3.467h-4.264l2.133,3.499-2.132,3.501h4.267l2.107,3.455,2.107-3.455h4.267l-2.132-3.501,2.133-3.499h-4.264Zm-2.111-1.544l.94,1.544h-1.881l.94-1.544Zm1.549,2.544l1.521,2.498-1.526,2.502h-3.09l-1.526-2.502,1.521-2.498h3.099Zm-6.143,0h1.874l-.936,1.537-.937-1.537Zm0,5l.939-1.541.94,1.541h-1.878Zm4.595,2.534l-.935-1.534h1.871l-.935,1.534Zm4.595-2.534h-1.878l.94-1.541.939,1.541Zm-1.875-5h1.874l-.937,1.537-.936-1.537Z"/></svg>
