<?xml version="1.0" encoding="UTF-8"?>
<svg xmlns="http://www.w3.org/2000/svg" id="Layer_1" data-name="Layer 1" viewBox="0 0 24 24">
  <path d="m21.5,9.5C21.5,4.262,17.238,0,12,0S2.5,4.262,2.5,9.5c0,5.07,3.995,9.212,9,9.475v4.025h-5.5v1h12v-1h-5.5v-4.025c5.005-.263,9-4.405,9-9.475Zm-9.5,8.5c-1.817,0-3.499-.578-4.882-1.553,1.513-1.402,3.816-4.454,4.882-6.028,1.066,1.573,3.369,4.626,4.882,6.028-1.383.975-3.065,1.553-4.882,1.553Zm5.67-2.185c-1.293-1.153-3.523-4.044-4.676-5.713,2.025.311,5.688,1.281,7.125,1.917-.461,1.481-1.322,2.783-2.449,3.796Zm2.83-6.315c0,.525-.055,1.037-.146,1.535-1.754-.726-5.578-1.72-7.578-1.973.831-1.808,2.152-5.508,2.465-7.417,3.083,1.277,5.259,4.315,5.259,7.855ZM14.284,1.321c-.2,1.566-1.46,5.144-2.284,7.025-.824-1.881-2.084-5.459-2.284-7.025.728-.204,1.492-.321,2.284-.321s1.556.117,2.284.321Zm-5.524.325c.313,1.908,1.634,5.608,2.465,7.417-2,.254-5.824,1.247-7.578,1.973-.092-.499-.146-1.01-.146-1.535,0-3.54,2.176-6.578,5.259-7.855ZM3.881,12.019c1.437-.635,5.1-1.606,7.125-1.917-1.153,1.669-3.383,4.56-4.676,5.713-1.127-1.013-1.989-2.315-2.449-3.796Z"/>
</svg>
