<?xml version="1.0" encoding="UTF-8"?>
<svg xmlns="http://www.w3.org/2000/svg" id="Layer_1" data-name="Layer 1" viewBox="0 0 24 24">
  <path d="m11.539,10.957L23.284.028l.682.732-11.745,10.929-.682-.732Zm12.461-1.957v8.75c0,3.505-5.271,6.25-12,6.25S0,21.255,0,17.75v-8.75h0C0,5.636,5.272,3,12,3c1.664,0,3.237.162,4.665.456l-.925.86c-1.175-.201-2.433-.316-3.74-.316C6.037,4,1,6.29,1,9s5.037,5,11,5,11-2.29,11-5c0-1.027-.725-1.992-1.947-2.797l.75-.698c1.383.979,2.197,2.179,2.197,3.494h0Zm-9,5.818v7.975c1.477-.208,2.837-.563,4-1.029v-7.86c-1.185.419-2.535.732-4,.914Zm-10-.914v7.86c1.163.466,2.523.821,4,1.029v-7.975c-1.465-.182-2.815-.495-4-.914Zm-1,7.408v-7.804c-1.279-.566-2.307-1.269-3-2.068v6.31c0,1.359,1.15,2.617,3,3.561Zm8,1.689c.681,0,1.349-.032,2-.091v-7.988c-.649.052-1.317.08-2,.08s-1.351-.028-2-.08v7.988c.651.06,1.319.091,2,.091Zm11-11.56c-.693.799-1.721,1.502-3,2.068v7.804c1.85-.944,3-2.202,3-3.561v-6.31Z"/>
</svg>
