<?xml version="1.0" encoding="UTF-8"?>
<svg xmlns="http://www.w3.org/2000/svg" id="Layer_1" data-name="Layer 1" viewBox="0 0 24 24" width="512" height="512"><path d="m22,4h-5v-1.5c0-1.378-1.121-2.5-2.5-2.5h-5c-1.379,0-2.5,1.122-2.5,2.5v1.5H2v1h2v16.5c0,1.378,1.121,2.5,2.5,2.5h11c1.379,0,2.5-1.122,2.5-2.5V5h2v-1Zm-14-1.5c0-.827.673-1.5,1.5-1.5h5c.827,0,1.5.673,1.5,1.5v1.5h-8v-1.5Zm11,19c0,.827-.673,1.5-1.5,1.5H6.5c-.827,0-1.5-.673-1.5-1.5V5h14v16.5Zm-11.429-7.606c-.769-.769-.769-2.019,0-2.787l3.202-3.203.707.707-3.202,3.203c-.057.057-.106.12-.146.187h5.367c1.379,0,2.5,1.122,2.5,2.5v4.5h-1v-4.5c0-.827-.673-1.5-1.5-1.5h-5.367c.04.067.089.129.146.187l3.202,3.203-.707.707-3.202-3.203Z"/></svg>
