<?xml version="1.0" encoding="UTF-8"?>
<svg xmlns="http://www.w3.org/2000/svg" id="Layer_1" data-name="Layer 1" viewBox="0 0 24 24" width="512" height="512"><path d="M9.5,16c-3.032,0-5.5-2.467-5.5-5.5s2.468-5.5,5.5-5.5,5.5,2.467,5.5,5.5-2.468,5.5-5.5,5.5Zm0-10c-2.481,0-4.5,2.019-4.5,4.5s2.019,4.5,4.5,4.5,4.5-2.019,4.5-4.5-2.019-4.5-4.5-4.5Zm3.546,18C5.853,24,0,18.148,0,10.955v-1.045C0,4.445,4.445,0,9.909,0c3.704,0,7.036,2.021,8.759,5.294,3.059,.448,5.332,3.059,5.332,6.183,0,2.27-1.114,4.235-2.997,5.319-.12,3.794-3.858,7.204-7.957,7.204ZM9.909,1C4.997,1,1,4.997,1,9.909v1.045c0,6.642,5.403,12.045,12.046,12.045,3.643,0,6.96-3.047,6.96-6.393v-.306l.267-.247c1.733-.885,2.728-2.553,2.728-4.578,0-2.702-2.024-4.947-4.708-5.222l-.275-.028-.122-.248c-1.515-3.071-4.574-4.979-7.985-4.979Zm2.091,17c-.552,0-1,.448-1,1s.448,1,1,1,1-.448,1-1-.448-1-1-1Zm7-8c-.552,0-1,.448-1,1s.448,1,1,1,1-.448,1-1-.448-1-1-1Zm-4,6c-.552,0-1,.448-1,1s.448,1,1,1,1-.448,1-1-.448-1-1-1Z"/></svg>
