<?xml version="1.0" encoding="UTF-8"?>
<svg xmlns="http://www.w3.org/2000/svg" id="Layer_1" data-name="Layer 1" viewBox="0 0 24 24" width="512" height="512"><path d="m17.562,14.621l6.367-2.621-6.367-2.621,4.392-7.332-7.332,4.392L12,.071l-2.593,6.299L2.108,2.109l4.261,7.298L.071,12l6.367,2.621-4.392,7.332,7.332-4.392,2.621,6.367,2.621-6.367,7.332,4.392-4.392-7.332Zm1.485-9.668l-2.42,4.041-1.148-.473-.473-1.148,4.041-2.42Zm-14.155-.062l4.131,2.412-.501,1.218-1.218.502-2.411-4.132Zm.062,14.156l2.42-4.041,1.148.473.473,1.148-4.041,2.42Zm4.334-4.333l-6.589-2.713,6.589-2.713,2.713-6.588,2.713,6.588,6.589,2.713-6.589,2.713-2.713,6.588-2.713-6.588Zm6.191.766l1.148-.473,2.42,4.041-4.041-2.42.473-1.148Z"/></svg>
