<?xml version="1.0" encoding="UTF-8"?>
<svg xmlns="http://www.w3.org/2000/svg" id="Layer_1" data-name="Layer 1" viewBox="0 0 24 24">
  <path d="m12,4c1.103,0,2-.897,2-2s-.897-2-2-2-2,.897-2,2,.897,2,2,2Zm0-3c.551,0,1,.449,1,1s-.449,1-1,1-1-.449-1-1,.449-1,1-1Zm12,12v1h-1v-1c0-.551-.448-1-1-1h-2c-.552,0-1,.449-1,1v1h-1v-1c0-1.103.897-2,2-2h2c1.103,0,2,.897,2,2Zm-14-5h-1v-1c0-1.103.897-2,2-2h2c1.103,0,2,.897,2,2v1h-1v-1c0-.551-.448-1-1-1h-2c-.551,0-1,.449-1,1v1Zm11,2c1.103,0,2-.897,2-2s-.897-2-2-2-2,.897-2,2,.897,2,2,2Zm0-3c.552,0,1,.449,1,1s-.448,1-1,1-1-.449-1-1,.448-1,1-1Zm-18,1c1.103,0,2-.897,2-2s-.897-2-2-2-2,.897-2,2,.897,2,2,2Zm0-3c.551,0,1,.449,1,1s-.449,1-1,1-1-.449-1-1,.449-1,1-1Zm19,12h-4.5c-.364,0-.706.098-1,.269v-5.269c0-1.103-.897-2-2-2h-5c-1.103,0-2,.897-2,2v2.269c-.294-.171-.636-.269-1-.269H2c-1.103,0-2,.897-2,2v8h24v-5c0-1.103-.897-2-2-2Zm-13.5-5c0-.551.449-1,1-1h5c.552,0,1,.449,1,1v11h-7v-11Zm-7.5,4c0-.551.449-1,1-1h4.5c.551,0,1,.449,1,1v7H1v-7Zm22,7h-6.5v-4c0-.551.448-1,1-1h4.5c.552,0,1,.449,1,1v4ZM1,12H0v-1c0-1.103.897-2,2-2h2c1.103,0,2,.897,2,2v1h-1v-1c0-.551-.449-1-1-1h-2c-.551,0-1,.449-1,1v1Z"/>
</svg>
