<?xml version="1.0" encoding="UTF-8"?>
<svg xmlns="http://www.w3.org/2000/svg" id="Layer_1" data-name="Layer 1" viewBox="0 0 24 24">
  <path d="m24,1.5v5.5h-1V1.707l-5.646,5.646-.707-.707,5.646-5.646h-5.293V0h5.5c.827,0,1.5.673,1.5,1.5Zm-12,21.5c-6.065,0-11-4.935-11-11S5.935,1,12,1V0C5.383,0,0,5.383,0,12s5.383,12,12,12,12-5.383,12-12h-1c0,6.065-4.935,11-11,11Zm-.5-18v2h-1.005c-1.376,0-2.495,1.119-2.495,2.495,0,1.108.744,2.095,1.81,2.398l4.106,1.174c.638.183,1.084.773,1.084,1.438,0,.824-.671,1.495-1.495,1.495h-3.01c-.824,0-1.495-.671-1.495-1.495v-.505h-1v.505c0,1.376,1.119,2.495,2.495,2.495h1.005v2h1v-2h1.005c1.376,0,2.495-1.119,2.495-2.495,0-1.108-.744-2.095-1.81-2.398l-4.106-1.174c-.638-.183-1.084-.773-1.084-1.438,0-.824.671-1.495,1.495-1.495h3.01c.824,0,1.495.671,1.495,1.495v.505h1v-.505c0-1.376-1.119-2.495-2.495-2.495h-1.005v-2h-1Z"/>
</svg>
