<?xml version="1.0" encoding="UTF-8"?>
<svg xmlns="http://www.w3.org/2000/svg" id="Layer_1" data-name="Layer 1" viewBox="0 0 24 24">
  <path d="m21.228,19.482l-4.758-4.739,1.159-1.159c3.103-3.104,3.103-8.151,0-11.254-1.503-1.503-3.502-2.331-5.627-2.331s-4.124.828-5.627,2.331c-3.103,3.103-3.103,8.15-.003,11.251l1.098,1.114-4.806,4.786,4.6,4.512,4.683-4.754,4.683,4.754,4.599-4.512Zm-4.307-6.604l-1.16,1.16-3.07-3.058c1.17-.943,4.31-3.687,4.31-5.98,0-.902-.24-1.75-.66-2.481.201.161.395.334.58.519,2.712,2.713,2.712,7.127,0,9.84Zm-7.411-5.005c1.424-1.113,3.556-1.113,4.981,0-.829.96-1.821,1.842-2.49,2.378-.67-.537-1.662-1.418-2.491-2.378Zm6.491-2.873c0,.625-.362,1.358-.887,2.088-.882-.705-1.968-1.088-3.113-1.088s-2.233.383-3.114,1.088c-.524-.729-.886-1.462-.886-2.088,0-2.206,1.794-4,4-4s4,1.794,4,4Zm-8.92-1.962c.185-.185.379-.358.58-.519-.42.732-.66,1.579-.66,2.481,0,2.195,2.879,4.805,4.151,5.85l-.004.004,8.658,8.622-3.165,3.105L7.081,12.878c-2.712-2.713-2.712-7.127,0-9.84Zm.17,19.544l-3.166-3.105,4.086-4.068,3.073,3.119-3.993,4.054Z"/>
</svg>
