<?xml version="1.0" encoding="UTF-8"?>
<svg xmlns="http://www.w3.org/2000/svg" id="Layer_1" data-name="Layer 1" viewBox="0 0 24 24">
  <path d="m11.253,16.97l3.925,3.907,5.682-5.771-3.941-3.935-5.665,5.799Zm8.196-1.858l-4.279,4.348-2.509-2.499,4.267-4.367,2.521,2.519Zm3.915-1.463L12.172,2.463l-8,1L.717.007.009.714l3.458,3.458-.927,8.138,11.035,11.007c.453.451,1.047.677,1.644.677.603,0,1.208-.231,1.669-.693l6.496-6.641c.817-.835.808-2.186-.02-3.011Zm-.695,2.312l-6.492,6.637c-.515.516-1.383.521-1.896.012L3.589,11.942l.782-6.867,1.904,1.904c-.176.297-.284.64-.284,1.01,0,1.103.897,2,2,2s2-.897,2-2-.897-2-2-2c-.37,0-.712.108-1.009.284l-1.914-1.914,6.743-.843,10.848,10.841c.44.439.446,1.159.011,1.604ZM7.991,6.989c.552,0,1,.448,1,1s-.448,1-1,1-1-.448-1-1,.448-1,1-1Z"/>
</svg>
