<?xml version="1.0" encoding="UTF-8"?>
<svg xmlns="http://www.w3.org/2000/svg" id="Layer_1" data-name="Layer 1" viewBox="0 0 24 24">
  <path d="m24,21.173v1.395l-1.999-1.946v-8.31c-.001-.751-.237-1.468-.682-2.074L15.231,1.643c-.476-.679-1.413-.847-2.09-.371-.329.229-.548.573-.618.968s.019.792.248,1.121l4.184,6.133c.631.478,1.045,1.254,1.045,2.114v5.893h-1v-5.893c0-.789-.535-1.471-1.245-1.587-.45-.071-.886.046-1.226.336-.336.286-.529.703-.529,1.144v6.112c0,2.492,1,4.888,2.692,6.388h-1.42c-1.49-1.809-2.164-3.735-2.254-5.888h-.018v-6.612c0-.734.321-1.429.881-1.905.431-.366.97-.568,1.531-.588l-3.412-5.003-3.411,5.002c.561.02,1.099.222,1.53.588.56.477.881,1.171.881,1.905v6.612h-.018c-.09,2.152-.764,4.079-2.254,5.888h-1.42c1.692-1.5,2.692-3.896,2.692-6.388v-6.112c0-.44-.193-.857-.529-1.144-.34-.29-.776-.407-1.226-.336-.709.116-1.245.798-1.245,1.587v5.893h-1v-5.893c0-.86.414-1.636,1.045-2.114l4.181-6.13c.233-.333.321-.73.251-1.125s-.289-.738-.618-.968c-.677-.474-1.614-.31-2.089.369L2.686,10.231c-.451.613-.686,1.33-.686,2.081v8.31s-2,1.946-2,1.946v-1.395l1.001-.975v-7.886c-.001-.966.301-1.888.874-2.666L7.953,1.064c.789-1.128,2.35-1.402,3.48-.613.224.157.409.352.567.565.159-.213.343-.409.567-.565,1.13-.787,2.691-.513,3.481.615l6.082,8.587c.567.771.87,1.693.87,2.659v7.886s1,.975,1,.975Z"/>
</svg>
