<?xml version="1.0" encoding="UTF-8"?>
<svg xmlns="http://www.w3.org/2000/svg" id="Layer_1" data-name="Layer 1" viewBox="0 0 24 24" width="512" height="512"><path d="M24.047,22.013c-.404,.843-1.112,1.478-1.994,1.788-.38,.133-.772,.2-1.164,.2-.517,0-1.031-.116-1.511-.346L.242,14.314l.438-.898,19.133,9.339c.598,.287,1.278,.325,1.907,.103,.63-.222,1.136-.675,1.424-1.277l.902,.433ZM16,2.5c0-1.378,1.121-2.5,2.5-2.5s2.5,1.122,2.5,2.5-1.121,2.5-2.5,2.5-2.5-1.122-2.5-2.5Zm1,0c0,.827,.673,1.5,1.5,1.5s1.5-.673,1.5-1.5-.673-1.5-1.5-1.5-1.5,.673-1.5,1.5Zm-7.5,9.434c-.585,.892-.661,1.977-.199,2.832,.417,.773,1.219,1.235,2.143,1.235h5.672l.985,3.693,1.19,.581-1.407-5.274h-6.44c-.567,0-1.016-.252-1.263-.71-.287-.531-.228-1.224,.164-1.821l3.714-6.083,1.526,.967c.641,.61,.473,1.583-.011,2.189h0c-.013,.017-2.107,3.459-2.107,3.459h1.171l1.744-2.869c.74-.955,.951-2.495-.182-3.562l-2.456-1.569H4v1H13.122l-3.622,5.934Z"/></svg>
