<?xml version="1.0" encoding="UTF-8"?>
<svg xmlns="http://www.w3.org/2000/svg" id="Layer_1" data-name="Layer 1" viewBox="0 0 24 24">
  <path d="m16.5,17c-1.637,0-3.015,1.13-3.395,2.65-.333-.084-.716-.15-1.105-.15s-.772.065-1.105.15c-.381-1.52-1.759-2.65-3.395-2.65-1.93,0-3.5,1.57-3.5,3.5s1.57,3.5,3.5,3.5c1.877,0,3.413-1.485,3.496-3.342.297-.085.653-.158,1.004-.158s.707.073,1.004.158c.083,1.857,1.62,3.342,3.496,3.342,1.93,0,3.5-1.57,3.5-3.5s-1.57-3.5-3.5-3.5Zm-9,6c-1.378,0-2.5-1.121-2.5-2.5s1.122-2.5,2.5-2.5,2.5,1.121,2.5,2.5-1.122,2.5-2.5,2.5Zm9,0c-1.379,0-2.5-1.121-2.5-2.5s1.121-2.5,2.5-2.5,2.5,1.121,2.5,2.5-1.121,2.5-2.5,2.5Zm3.497-13.406C19.873.11,15.406,0,15.214,0c-.089,0-1.958.022-3.214,1.732C10.744.022,8.875,0,8.786,0c-.193,0-4.659.11-4.783,9.594-1.943.497-4.003,1.357-4.003,2.77,0,2.388,6.037,3.637,12,3.637s12-1.249,12-3.637c0-1.413-2.06-2.272-4.003-2.77ZM8.783,1c.075,0,1.853.042,2.767,1.919l.45.924.45-.924c.914-1.877,2.692-1.918,2.758-1.919.037,0,3.71.197,3.791,8.714-.653.345-2.819,1.286-6.999,1.286s-6.348-.942-6.999-1.286c.081-8.517,3.753-8.713,3.782-8.714Zm3.217,14c-6.715,0-11-1.562-11-2.637,0-.509,1.055-1.259,3.399-1.839.64.368,2.955,1.476,7.601,1.476s6.96-1.107,7.601-1.475c2.344.58,3.399,1.33,3.399,1.839,0,1.075-4.285,2.637-11,2.637Z"/>
</svg>
