<?xml version="1.0" encoding="UTF-8"?>
<svg xmlns="http://www.w3.org/2000/svg" id="Layer_1" data-name="Layer 1" viewBox="0 0 24 24" width="512" height="512"><path d="M18.25,10.07V3.49L12.74,.35c-.46-.26-1.03-.26-1.49,0L5.75,3.49v6.57L0,13.35v7.15l5.51,3.15c.23,.13,.49,.2,.74,.2s.51-.07,.74-.2l5.01-2.86,5.01,2.86c.23,.13,.49,.2,.74,.2s.51-.07,.74-.2l5.51-3.15v-7.15l-5.75-3.29Zm-.5,6.28l-4.74-2.71,4.74-2.71,4.74,2.71-4.74,2.71Zm-11.5,0L1.51,13.64l4.74-2.71,4.74,2.71-4.74,2.71Zm.5-11.71l4.75,2.71v5.42l-4.75-2.71V4.65Zm5.75,8.13V7.36l4.75-2.71v5.42l-4.75,2.71Zm-.75-11.56c.15-.09,.34-.09,.5,0l4.49,2.57-4.74,2.71L7.26,3.78,11.75,1.22ZM1,19.92v-5.42l4.75,2.71v5.42l-4.75-2.71Zm5.75,2.71v-5.42l4.75-2.71v5.42l-4.75,2.71Zm5.75-2.71v-5.42l4.75,2.71v5.42l-4.75-2.71Zm5.75,2.71v-5.42l4.75-2.71v5.42l-4.75,2.71Z"/></svg>
