<?xml version="1.0" encoding="UTF-8"?>
<svg xmlns="http://www.w3.org/2000/svg" id="Layer_1" data-name="Layer 1" viewBox="0 0 24 24">
  <path d="m22,19v-2.5c0-1.379-1.121-2.5-2.5-2.5h-2.227c-.433.381-.902.719-1.41,1h3.637c.827,0,1.5.673,1.5,1.5v2.5H3v-2.5c0-.827.673-1.5,1.5-1.5h3.637c-.507-.281-.977-.619-1.41-1h-2.227c-1.379,0-2.5,1.121-2.5,2.5v2.5H0v5h24v-5h-2Zm1,4H1v-3h6v2h1v-2h2v2h1v-2h2v2h1v-2h2v2h1v-2h6v3Zm-11.001-8.989c3.501,0,6.001-2.806,6.001-6.012,0-2.693-2.355-4.676-4.248-6.27-.524-.44-1.019-.856-1.398-1.236l-.38-.38-.352.406c-.83.959-1.165,2.09-1.435,2.999-.351,1.182-.516,1.525-.858,1.543-.142-.092-.392-.664-.514-1.177l-.211-.888-.635.655c-.592.611-1.97,2.259-1.97,4.347,0,3.204,2.498,6.012,5.999,6.012Zm-1.061-1.439c-.584-.585-.584-1.537,0-2.122l1.062-1.062,1.061,1.062c.585.585.585,1.537,0,2.122-.236.236-.561.427-1.061.428s-.826-.192-1.062-.428Zm-2.809-7.563c.233.544.592,1.036,1.12,1.036,1.231,0,1.569-1.14,1.896-2.241.211-.714.446-1.506.914-2.21.319.29.677.59,1.047.902,1.734,1.459,3.893,3.275,3.893,5.504,0,1.917-1.084,3.585-2.672,4.424.112-.287.172-.595.172-.913,0-.667-.26-1.295-.732-1.768l-1.768-1.769-1.769,1.769c-.723.723-.908,1.784-.558,2.681-1.588-.839-2.673-2.507-2.673-4.424,0-1.225.617-2.306,1.13-2.991Z"/>
</svg>
