<?xml version="1.0" encoding="UTF-8"?>
<svg xmlns="http://www.w3.org/2000/svg" id="Layer_1" data-name="Layer 1" viewBox="0 0 24 24">
  <path d="m10.327,13.004l.971-.004-.063.561c-.369,3.042-1.126,5.631-1.777,7.439h-1.07c.515-1.384,1.128-3.322,1.552-5.597-.379.403-.87.852-1.5,1.316l-.594-.805c1.887-1.394,2.353-2.577,2.357-2.589l.123-.322Zm7.663-3.285c0,7.575-3.137,14.031-3.265,14.281H0v-.95c.531-.979,3.501-7.859,3.581-13.292l.314-.266c.807-.669,1.975-.668,2.78,0,.789.655,1.937.655,2.726,0,.806-.667,1.974-.668,2.78,0,.789.655,1.937.655,2.726,0,.806-.667,1.974-.668,2.78,0l.304.228Zm-.99.504c-.432-.322-1.035-.311-1.455.038-1.152.956-2.851.956-4.003,0-.436-.362-1.067-.361-1.502,0-1.152.956-2.851.956-4.003,0-.423-.351-1.032-.359-1.464-.031-.144,5.07-2.572,10.975-3.425,12.77h12.958c.574-1.229,2.839-6.472,2.894-12.776Zm7.001-7.724v19.5h-6.015c.102-.307.21-.643.319-1h4.696V7c-.475,0-.926-.171-1.304-.496-.38-.325-.864-.504-1.362-.504s-.983.179-1.362.504c-.757.648-1.853.648-2.608,0-.758-.651-1.964-.651-2.725,0-.757.648-1.853.648-2.608,0-.758-.651-1.965-.651-2.725,0-.378.324-.829.496-1.304.496h-1V2.5c0-1.378,1.122-2.5,2.5-2.5h13c1.378,0,2.5,1.122,2.5,2.5Zm-1,0c0-.827-.673-1.5-1.5-1.5h-13c-.827,0-1.5.673-1.5,1.5v3.5c.233,0,.458-.088.654-.255,1.121-.961,2.905-.961,4.026,0,.391.334.92.333,1.307,0,1.122-.961,2.905-.96,4.026,0,.388.333.917.334,1.308,0,1.121-.961,2.905-.961,4.026,0,.195.167.421.255.654.255v-3.5Z"/>
</svg>
