<?xml version="1.0" encoding="UTF-8"?>
<svg xmlns="http://www.w3.org/2000/svg" id="Layer_1" data-name="Layer 1" viewBox="0 0 24 24">
  <path d="m19.071,2.929c-1.89-1.889-4.4-2.929-7.071-2.929s-5.182,1.04-7.071,2.929c-3.899,3.899-3.899,10.243.004,14.146l6.059,5.925h-5.991v1h14v-1h-5.991l6.063-5.929c3.899-3.899,3.899-10.243,0-14.143Zm-7.071,19.659l-6.364-6.224c-3.509-3.51-3.509-9.219,0-12.729,1.7-1.699,3.961-2.636,6.364-2.636s4.664.937,6.364,2.636c3.509,3.51,3.509,9.22.004,12.725l-6.368,6.228ZM7,6.894v6.665l5,2.5,5-2.5v-6.665l-5-2.45-5,2.45Zm8.382.32l-3.382,1.725-3.382-1.725,3.382-1.657,3.382,1.657Zm-3.382,7.728l-4-2v-4.92l4,2.04,4-2.04v4.92l-4,2Z"/>
</svg>
