<?xml version="1.0" encoding="UTF-8"?>
<svg xmlns="http://www.w3.org/2000/svg" id="Layer_1" data-name="Layer 1" viewBox="0 0 24 24" width="512" height="512"><path d="M20.5,0H4.5c-1.379,0-2.5,1.121-2.5,2.5V21.5c0,1.379,1.121,2.5,2.5,2.5H22V1.5c0-.827-.673-1.5-1.5-1.5Zm.5,23H4.5c-.827,0-1.5-.673-1.5-1.5s.673-1.5,1.5-1.5H21v3Zm0-4H4.5c-.562,0-1.082,.187-1.5,.501V2.5c0-.827,.673-1.5,1.5-1.5H20.5c.275,0,.5,.225,.5,.5V19ZM12,4c-3.309,0-6,2.691-6,6s2.691,6,6,6,6-2.691,6-6-2.691-6-6-6Zm0,1c.888,0,1.875,1.893,1.989,4.5h-3.978c.114-2.607,1.101-4.5,1.989-4.5Zm-1.972,.406c-.58,.986-.956,2.424-1.018,4.094h-1.984c.184-1.841,1.37-3.39,3.003-4.094Zm-3.003,5.094h1.984c.063,1.671,.439,3.108,1.018,4.094-1.633-.704-2.819-2.254-3.003-4.094Zm4.975,4.5c-.888,0-1.875-1.893-1.989-4.5h3.978c-.114,2.607-1.101,4.5-1.989,4.5Zm1.972-.406c.58-.986,.956-2.424,1.018-4.094h1.984c-.184,1.841-1.37,3.39-3.003,4.094Zm1.018-5.094c-.063-1.671-.439-3.108-1.018-4.094,1.633,.704,2.819,2.254,3.003,4.094h-1.984Z"/></svg>
