<?xml version="1.0" encoding="UTF-8"?>
<svg xmlns="http://www.w3.org/2000/svg" id="Layer_1" data-name="Layer 1" viewBox="0 0 24 24" width="512" height="512"><path d="m12,0C5.383,0,0,5.383,0,12s5.383,12,12,12,12-5.383,12-12S18.617,0,12,0Zm0,23c-6.065,0-11-4.935-11-11S5.935,1,12,1s11,4.935,11,11-4.935,11-11,11Zm-.25-17.25h-2.25c-1.379,0-2.5,1.122-2.5,2.5v7.5c0,1.378,1.121,2.5,2.5,2.5h2.25c3.446,0,6.25-2.804,6.25-6.25s-2.804-6.25-6.25-6.25Zm0,11.5h-2.25c-.827,0-1.5-.673-1.5-1.5v-7.5c0-.827.673-1.5,1.5-1.5h2.25c2.895,0,5.25,2.355,5.25,5.25s-2.355,5.25-5.25,5.25Z"/></svg>
