<?xml version="1.0" encoding="UTF-8"?>
<svg xmlns="http://www.w3.org/2000/svg" id="Layer_1" data-name="Layer 1" viewBox="0 0 24 24" width="512" height="512"><path d="m10,13.555l1,.998v9.446h-4v-11.5c0-.526.272-.989.683-1.257l.762.76c-.25.027-.445.24-.445.497v10.5h2v-9.445Zm6,9.445h-2v-5.452l-1-.998v7.45h4v-3.457l-1-.998v3.456Zm8.028.32l-.706.707L-.021.728.686.021l12.314,12.291v-5.812c0-.827.673-1.5,1.5-1.5h1c.827,0,1.5.673,1.5,1.5v9.805l2,1.996V1.5c0-.827.673-1.5,1.5-1.5h1c.827,0,1.5.673,1.5,1.5v20.794l1.028,1.026Zm-10.028-10.01l2,1.996V6.5c0-.275-.224-.5-.5-.5h-1c-.276,0-.5.225-.5.5v6.81ZM22,1.5c0-.275-.224-.5-.5-.5h-1c-.276,0-.5.225-.5.5v17.799l2,1.997V1.5ZM5,18.5v5.5H1v-5.5c0-.827.673-1.5,1.5-1.5h1c.827,0,1.5.673,1.5,1.5Zm-1,0c0-.275-.224-.5-.5-.5h-1c-.276,0-.5.225-.5.5v4.5h2v-4.5Z"/></svg>
