<?xml version="1.0" encoding="UTF-8"?>
<svg xmlns="http://www.w3.org/2000/svg" id="Layer_1" data-name="Layer 1" viewBox="0 0 24 24">
  <path d="m24,2v1h-3.118l-3.265-1.633c-1.28-.639-2.903-.399-3.94.579l-5.188,4.917c-.548.548-.652,1.409-.232,1.993.267.37.659.594,1.105.629.442.034.871-.123,1.183-.434l4.648-4.477.693.721-2.108,2.03,2.387,1.79c-.435.069-.861.164-1.272.296l-1.845-1.384-1.804,1.737c-.465.465-1.099.726-1.76.726-.067,0-.135-.003-.203-.008-.732-.059-1.401-.439-1.836-1.042-.703-.977-.554-2.393.346-3.293l3.519-3.336-.992-.903c-1.065-.972-2.727-1.144-3.937-.54l-3.265,1.633H0v-1h2.882L5.936.473c.62-.309,1.312-.473,2.003-.473,1.156,0,2.227.415,3.054,1.168l1.046.953.951-.901c1.338-1.26,3.428-1.568,5.074-.747l3.055,1.527h2.882Zm0,15.5c0,3.584-2.916,6.5-6.5,6.5s-6.5-2.916-6.5-6.5,2.916-6.5,6.5-6.5,6.5,2.916,6.5,6.5Zm-1,0c0-3.032-2.467-5.5-5.5-5.5s-5.5,2.468-5.5,5.5,2.467,5.5,5.5,5.5,5.5-2.468,5.5-5.5Zm-6.02,1.451c-.055.057-.18.057-.241-.006l-1.856-1.8-.696.719,1.851,1.794c.221.221.514.342.825.342s.604-.121.822-.339l3.457-3.399-.701-.713-3.46,3.402Zm-7.974-1.567l-5.839-4.384H0v1h2.833l6.261,4.701c-.056-.393-.094-.792-.094-1.201,0-.039.005-.077.006-.116Z"/>
</svg>
