<?xml version="1.0" encoding="UTF-8"?>
<svg xmlns="http://www.w3.org/2000/svg" id="Layer_1" data-name="Layer 1" viewBox="0 0 24 24" width="512" height="512"><path d="M12,17c-2.76,0-5-2.24-5-5s2.24-5,5-5,5,2.24,5,5-2.24,5-5,5Zm0-9c-2.21,0-4,1.79-4,4s1.79,4,4,4,4-1.79,4-4-1.79-4-4-4ZM12.5,0h-1V5h1V0Zm0,19h-1v5h1v-5Zm-7.5-7.5H0v1H5v-1Zm19,0h-5v1h5v-1Zm-3.16-7.63l-.71-.71-3.54,3.54,.71,.71,3.54-3.54ZM7.4,17.3l-.71-.71-3.54,3.54,.71,.71,3.54-3.54Zm0-10.61L3.87,3.16l-.71,.71,3.54,3.54,.71-.71Zm13.44,13.44l-3.54-3.54-.71,.71,3.54,3.54,.71-.71Z"/></svg>
