<?xml version="1.0" encoding="UTF-8"?>
<svg xmlns="http://www.w3.org/2000/svg" id="Layer_1" data-name="Layer 1" viewBox="0 0 24 24">
  <path d="m18,21.5v2.5h-1v-2.5c0-.827-.673-1.5-1.5-1.5h-7c-.827,0-1.5.673-1.5,1.5v2.5h-1v-2.5c0-1.378,1.122-2.5,2.5-2.5h7c1.378,0,2.5,1.122,2.5,2.5ZM14,4c0-2.206,1.794-4,4-4s4,1.794,4,4-1.794,4-4,4-4-1.794-4-4Zm1,0c0,1.654,1.346,3,3,3s3-1.346,3-3-1.346-3-3-3-3,1.346-3,3Zm2.191,6c.183.316.337.651.461,1h3.849c.827,0,1.5.673,1.5,1.5v2.5h1v-2.5c0-1.378-1.122-2.5-2.5-2.5h-4.309Zm6.813,13.296l-.707.707L-.003.704.704-.003l1.896,1.896c.723-1.163,2.014-1.893,3.4-1.893,2.206,0,4,1.794,4,4,0,1.386-.73,2.677-1.893,3.4l2.05,2.05c.567-.295,1.195-.45,1.843-.45,2.206,0,4,1.794,4,4,0,.644-.155,1.276-.45,1.843l8.453,8.453Zm-13.092-13.092l3.885,3.885c.134-.345.204-.714.204-1.089,0-1.654-1.346-3-3-3-.377,0-.745.07-1.089.204ZM3.333,2.626l4.042,4.042c.991-.512,1.626-1.548,1.626-2.667,0-1.654-1.346-3-3-3-1.12,0-2.156.635-2.667,1.626Zm4.877,9.119c-.133.401-.209.822-.209,1.255,0,2.206,1.794,4,4,4,.437,0,.858-.077,1.257-.208l-.845-.845c-.137.019-.27.053-.412.053-1.654,0-3-1.346-3-3,0-.141.031-.276.05-.414l-.841-.841Zm-.745-.745l-1-1h-3.964c-1.378,0-2.5,1.122-2.5,2.5v2.5h1v-2.5c0-.827.673-1.5,1.5-1.5h4.964Z"/>
</svg>
