<?xml version="1.0" encoding="UTF-8"?>
<svg xmlns="http://www.w3.org/2000/svg" id="Layer_1" data-name="Layer 1" viewBox="0 0 24 24">
  <path d="m13.672,8.84c.188.103.394.155.604.155.254,0,.515-.076.758-.234l2.15-1.756,4.816-.006V1.7c0-.938-.763-1.7-1.701-1.7l-5.6.003c-.454,0-.881.177-1.202.498-.321.321-.498.749-.497,1.202l.002,6.006c0,.472.257.904.67,1.131Zm.533-7.632c.132-.132.308-.205.495-.205l5.6-.003c.386,0,.701.314.701.7v4.301l-4.174.004-2.378,1.948c-.132.085-.25.035-.296.01-.045-.024-.15-.1-.15-.254l-.002-6.006c0-.188.073-.362.205-.495Zm-4.447,14.827c-.195.195-.195.513,0,.708.195.193.513.193.707,0l2.265-2.3,5.074,4.557h6.197v1h-5.703l-5.125,4h-2.344l-5.125-4H0v-1h6.047l5.125,4h1.656l4.244-3.312-4.301-3.861-1.597,1.621c-.588.587-1.539.587-2.124.003-.585-.585-.585-1.537,0-2.122l2.097-2.073-.809-.736c-.367-.335-.842-.519-1.338-.519-.649,0-2.882,1-2.882,1H0v-1h5.884c.47-.229,2.131-1,3.093-1,.769,0,1.483.276,2.035.778l.84.765.765-.74c.547-.515,1.274-.803,2.038-.803.953,0,2.943.793,3.446,1h5.9v1l-6.193-.039c-.886-.371-2.526-.961-3.153-.961-.508,0-.992.191-1.362.54l-3.534,3.495Zm-.744-7.24c.211.136.453.203.695.203.213,0,.426-.053.62-.158.413-.227.67-.659.67-1.131l.002-6.006c0-.453-.176-.881-.497-1.202C10.182.18,9.755.003,9.301.003l-5.601-.003c-.938,0-1.701.763-1.701,1.7v5.299l4.817.006,2.197,1.79ZM3,1.7c0-.386.314-.7.7-.7l5.601.003c.187,0,.362.073.495.205.132.133.205.308.205.495l-.002,6.006c0,.154-.105.229-.15.254-.045.024-.162.072-.249.024l-2.425-1.982-4.174-.004V1.7Z"/>
</svg>
