<?xml version="1.0" encoding="UTF-8"?>
<svg xmlns="http://www.w3.org/2000/svg" id="Layer_1" data-name="Layer 1" viewBox="0 0 24 24">
  <path d="m4,4c1.103,0,2-.897,2-2s-.897-2-2-2-2,.897-2,2,.897,2,2,2Zm0-3c.552,0,1,.449,1,1s-.448,1-1,1-1-.449-1-1,.448-1,1-1Zm5,4c1.103,0,2-.897,2-2s-.897-2-2-2-2,.897-2,2,.897,2,2,2Zm0-3c.552,0,1,.449,1,1s-.448,1-1,1-1-.449-1-1,.448-1,1-1Zm5,2c1.103,0,2-.897,2-2s-.897-2-2-2-2,.897-2,2,.897,2,2,2Zm0-3c.552,0,1,.449,1,1s-.448,1-1,1-1-.449-1-1,.448-1,1-1Zm9.181,8.655c-.496-.452-1.141-.674-1.809-.652-.67.032-1.288.322-1.739.818l-3.732,4.102c-.314-1.108-1.335-1.922-2.543-1.922H2.5c-1.379,0-2.5,1.122-2.5,2.5v7c0,1.378,1.121,2.5,2.5,2.5h11.225l9.638-10.818c.912-1.021.831-2.604-.182-3.527Zm-.564,2.862l-9.341,10.483H2.5c-.827,0-1.5-.673-1.5-1.5v-7c0-.827.673-1.5,1.5-1.5h10.857c.905,0,1.643.737,1.643,1.642,0,.812-.606,1.511-1.403,1.625l-5.661.737.129.991,5.668-.738c1.021-.146,1.844-.878,2.145-1.824l4.496-4.94c.271-.298.643-.473,1.046-.492.398-.018.789.12,1.088.393.609.555.658,1.507.109,2.123ZM6,7.5c0-.827.673-1.5,1.5-1.5h3c.827,0,1.5.673,1.5,1.5v1.5h-1v-1.5c0-.276-.225-.5-.5-.5h-3c-.275,0-.5.224-.5.5v1.5h-1v-1.5Zm9.5-2.5c.827,0,1.5.673,1.5,1.5v1.5h-1v-1.5c0-.276-.225-.5-.5-.5h-1.852c-.179-.372-.413-.714-.706-1h2.558Zm-13.5,3h-1v-1.5c0-.827.673-1.5,1.5-1.5h2.558c-.293.286-.527.628-.706,1h-1.852c-.275,0-.5.224-.5.5v1.5Z"/>
</svg>
