<?xml version="1.0" encoding="UTF-8"?>
<svg xmlns="http://www.w3.org/2000/svg" id="Layer_1" data-name="Layer 1" viewBox="0 0 24 24">
  <path d="m23.181,9.655c-.496-.452-1.141-.674-1.809-.652-.67.032-1.288.322-1.739.818l-3.732,4.102c-.314-1.108-1.335-1.922-2.543-1.922H2.5c-1.379,0-2.5,1.122-2.5,2.5v7c0,1.378,1.121,2.5,2.5,2.5h11.225l9.638-10.818c.912-1.021.831-2.604-.182-3.527Zm-.564,2.862l-9.341,10.483H2.5c-.827,0-1.5-.673-1.5-1.5v-7c0-.827.673-1.5,1.5-1.5h10.857c.905,0,1.643.737,1.643,1.642,0,.812-.606,1.511-1.403,1.625l-5.661.737.129.991,5.668-.738c1.021-.146,1.844-.878,2.145-1.824l4.496-4.94c.271-.298.643-.473,1.046-.492.398-.018.789.12,1.088.393.609.555.658,1.507.109,2.123ZM4,7.605v-.605h1v.605c0,.769.626,1.395,1.395,1.395h2.211c.769,0,1.395-.626,1.395-1.395,0-.685-.49-1.263-1.165-1.375l-2.834-.473c-1.159-.193-2.001-1.186-2.001-2.362,0-1.321,1.074-2.395,2.395-2.395h.605V0h1v1h.605c1.32,0,2.395,1.074,2.395,2.395v.605h-1v-.605c0-.769-.626-1.395-1.395-1.395h-2.211c-.769,0-1.395.626-1.395,1.395,0,.685.49,1.263,1.165,1.375l2.834.473c1.159.193,2.001,1.186,2.001,2.362,0,1.321-1.074,2.395-2.395,2.395h-.605v1h-1v-1h-.605c-1.32,0-2.395-1.074-2.395-2.395Zm15.682-2.605h-6.682v-1h6.721l-3.055-3.055.707-.707,3.182,3.182c.585.585.585,1.537,0,2.122l-3.182,3.182-.707-.707,3.016-3.016Z"/>
</svg>
