<?xml version="1.0" encoding="UTF-8"?>
<svg xmlns="http://www.w3.org/2000/svg" id="Layer_1" data-name="Layer 1" viewBox="0 0 24 24" width="512" height="512"><path d="M11,4h-1V0h1V4ZM15,0h-1V4h1V0ZM7,0h-1V4h1V0ZM24,12.643c0,1.82-1.603,3.357-3.5,3.357h-2.933c-1.278,2.702-2.706,4.86-2.8,5H5.232c-.166-.249-4.219-6.378-5.215-12.186-.115-.673,.078-1.368,.532-1.905,.487-.578,1.198-.909,1.951-.909h0l14.996,.003c.754,0,1.465,.332,1.952,.91,.453,.538,.646,1.232,.531,1.904-.068,.394-.149,.789-.241,1.182h.76c2.191,0,3.5,.988,3.5,2.643Zm-5.005-3.994c.066-.387-.043-.774-.31-1.091-.293-.347-.736-.555-1.188-.555l-14.996-.003h0c-.451,0-.895,.207-1.187,.554-.268,.316-.378,.704-.311,1.092,.854,4.986,4.05,10.224,4.769,11.354H14.228c.719-1.131,3.915-6.373,4.768-11.352Zm4.005,3.994c0-1.43-1.566-1.643-2.5-1.643h-1v-.067c-.397,1.422-.923,2.806-1.477,4.067h2.477c1.332,0,2.5-1.102,2.5-2.357ZM0,24H20v-1H0v1Z"/></svg>
