<?xml version="1.0" encoding="UTF-8"?>
<svg xmlns="http://www.w3.org/2000/svg" id="Layer_1" data-name="Layer 1" viewBox="0 0 24 24">
  <path d="m22.001,0h-6.001s0,0,0,0c-.532,0-1.034.208-1.412.587-.379.378-.587.88-.587,1.413l.002,7.272c0,.588.308,1.108.824,1.391.24.132.499.198.76.198.299,0,.599-.087.871-.262l2.325-1.602,5.218.003V2c0-1.103-.896-2-1.999-2Zm.999,8l-4.528-.002-2.567,1.769c-.185.118-.409.124-.598.021-.19-.104-.305-.297-.305-.514l-.002-7.272c0-.266.104-.517.294-.706s.44-.294.705-.294h6.002c.552,0,1,.449,1,1v6Zm-15.501,4c3.032,0,5.5-2.467,5.5-5.5S10.532,1,7.5,1,2,3.467,2,6.5s2.468,5.5,5.5,5.5Zm0-10c2.481,0,4.5,2.019,4.5,4.5s-2.019,4.5-4.5,4.5-4.5-2.019-4.5-4.5S5.019,2,7.5,2Zm7.5,16v6h-1v-6c0-1.654-1.346-3-3-3h-7c-1.654,0-3,1.346-3,3v6H0v-6c0-2.206,1.794-4,4-4h7c2.206,0,4,1.794,4,4Zm6.354-15.387l.699.714-2.882,2.824c-.216.217-.509.338-.821.338s-.604-.122-.824-.342l-1.35-1.292.691-.723,1.357,1.3c.101.102.16.09.243.008l2.886-2.828Z"/>
</svg>
