<?xml version="1.0" encoding="UTF-8"?>
<svg xmlns="http://www.w3.org/2000/svg" id="Layer_1" data-name="Layer 1" viewBox="0 0 24 24">
  <path d="m21.5,0H2.5C1.121,0,0,1.122,0,2.5v21.5h24V2.5c0-1.378-1.121-2.5-2.5-2.5Zm1.5,23H1V2.5c0-.827.673-1.5,1.5-1.5h19c.827,0,1.5.673,1.5,1.5v20.5Zm-5-18h1v3.5c0,.827-.673,1.5-1.5,1.5h-3.5v-1h3.189c-1.063-1.842-3.021-3-5.189-3-3.309,0-6,2.691-6,6h-1c0-3.86,3.141-7,7-7,2.489,0,4.748,1.305,6,3.395v-3.395Zm0,7h1c0,3.86-3.141,7-7,7-2.489,0-4.748-1.305-6-3.395v3.395h-1v-3.5c0-.827.673-1.5,1.5-1.5h3.5v1h-3.189c1.063,1.842,3.021,3,5.189,3,3.309,0,6-2.691,6-6Z"/>
</svg>
