<?xml version="1.0" encoding="UTF-8"?>
<svg xmlns="http://www.w3.org/2000/svg" id="Layer_1" data-name="Layer 1" viewBox="0 0 24 24" width="512" height="512"><path d="m13,12c0,.552-.448,1-1,1s-1-.448-1-1,.448-1,1-1,1,.448,1,1Zm11,5.579l-.875-.992c-1.257-1.425-2.882-2.479-4.698-3.049.181,1.303.151,2.587-.163,3.857-.959,3.887-4.538,6.603-8.703,6.604h-3.14s.992-.875.992-.875c1.425-1.257,2.479-2.882,3.049-4.698-1.304.18-2.587.15-3.857-.163C2.717,17.304.001,13.726,0,9.561v-3.14s.875.992.875.992c1.257,1.425,2.882,2.479,4.698,3.049-.181-1.303-.151-2.587.163-3.857C6.696,2.717,10.274.001,14.439,0h3.14s-.992.875-.992.875c-1.425,1.257-2.479,2.882-3.049,4.698,1.302-.182,2.586-.152,3.857.163,3.887.959,6.603,4.538,6.604,8.703v3.14Zm-1-3.14c0-3.645-2.458-6.896-5.844-7.732-1.125-.279-2.261-.305-3.38-.079-.362.071-.725-.047-.97-.32-.25-.278-.335-.675-.222-1.035.499-1.591,1.338-3.048,2.453-4.273h-.598c-3.645,0-6.896,2.458-7.732,5.844-.278,1.126-.305,2.263-.079,3.38.073.362-.047.724-.32.97-.279.25-.676.335-1.035.222-1.591-.499-3.048-1.338-4.273-2.453v.598c0,3.645,2.458,6.896,5.844,7.732,1.126.279,2.263.307,3.38.079.07-.014.14-.021.208-.021.289,0,.563.121.762.341.25.278.335.675.222,1.035-.499,1.591-1.338,3.048-2.453,4.273h.598c3.645,0,6.896-2.458,7.732-5.844.278-1.126.305-2.263.079-3.38-.073-.362.047-.724.32-.97.278-.25.675-.334,1.035-.222,1.591.499,3.048,1.338,4.273,2.453v-.598Z"/></svg>
