<?xml version="1.0" encoding="UTF-8"?>
<svg xmlns="http://www.w3.org/2000/svg" id="Layer_1" data-name="Layer 1" viewBox="0 0 24 24" width="512" height="512"><path d="m7,14c2.206,0,4-1.794,4-4s-1.794-4-4-4-4,1.794-4,4,1.794,4,4,4Zm0-7c1.654,0,3,1.346,3,3s-1.346,3-3,3-3-1.346-3-3,1.346-3,3-3Zm7,11.5v5.5h-1v-5.5c0-.827-.673-1.5-1.5-1.5H2.5c-.827,0-1.5.673-1.5,1.5v5.5H0v-5.5c0-1.379,1.122-2.5,2.5-2.5h9c1.378,0,2.5,1.121,2.5,2.5ZM21.5,0H7.5c-1.378,0-2.5,1.121-2.5,2.5v1.849c.322-.114.656-.203,1-.262v-1.586c0-.827.673-1.5,1.5-1.5h14c.827,0,1.5.673,1.5,1.5v14.5h-2v-3h-5v4h8V2.5c0-1.379-1.122-2.5-2.5-2.5Zm-4.5,17v-2h3v2h-3Z"/></svg>
