<?xml version="1.0" encoding="UTF-8"?>
<svg xmlns="http://www.w3.org/2000/svg" id="Layer_1" data-name="Layer 1" viewBox="0 0 24 24" width="512" height="512"><path d="M21,15c0-4.869-5.068-8.676-7.507-10.507,.608-.457,1.007-1.176,1.007-1.993,0-1.378-1.121-2.5-2.5-2.5s-2.5,1.122-2.5,2.5c0,.782,.369,1.473,.933,1.932-2.582,1.811-7.433,5.843-7.433,10.568,0,3.484,1.993,6.505,4.896,8H3v1H21v-1h-4.895c2.902-1.495,4.895-4.516,4.895-8ZM12,1c.827,0,1.5,.673,1.5,1.5s-.673,1.5-1.5,1.5-1.5-.673-1.5-1.5,.673-1.5,1.5-1.5ZM4,15c0-4.675,5.67-8.857,7.462-10.062,.174,.038,.353,.062,.538,.062,.152,0,.3-.019,.445-.045l.444,.336c.897,.673,2.169,1.632,3.391,2.805l-4.457,5.528,.778,.627,4.387-5.439c1.633,1.731,3.012,3.848,3.012,6.188,0,4.411-3.589,8-8,8s-8-3.589-8-8Z"/></svg>
