<?xml version="1.0" encoding="UTF-8"?>
<svg xmlns="http://www.w3.org/2000/svg" id="Layer_1" data-name="Layer 1" viewBox="0 0 24 24">
  <path d="m19.416,16.601l-2.639,2.746-.721-.693,2.616-2.721c.453-.541.439-1.384-.055-1.935-.267-.298-.634-.475-1.032-.496-.395-.011-.782.113-1.08.38l-3.493,3.531c-.653.66-1.013,1.534-1.013,2.462v4.125h-1v-4.125c0-1.192.462-2.316,1.302-3.165l3.515-3.552c.52-.467,1.158-.696,1.824-.654.666.036,1.277.33,1.722.826.824.919.848,2.325.054,3.271ZM1,2.5c0-.827.673-1.5,1.5-1.5h9.642c.092-.356.233-.69.414-1H2.5C1.121,0,0,1.121,0,2.5v21.5h9v-1H1V2.5Zm11,2.5v-1H4v4h8v-1h-7v-2h7Zm-6,5h-2v1h2v-1Zm0,3h-2v1h2v-1Zm2-2h2v-1h-2v1Zm0,3h2v-1h-2v1Zm-2,2h-2v1h2v-1Zm2,1h2v-1h-2v1Zm-4,3h2v-1h-2v1Zm4,0h2v-1h-2v1ZM22,0h-6c-1.105,0-2,.895-2,2v10c0,.048.011.093.014.141l.465-.47c.164-.147.343-.265.521-.386V2c0-.552.448-1,1-1h6c.552,0,1,.448,1,1v10c0,.552-.448,1-1,1h-.489c.159.322.284.655.362,1h.127c1.105,0,2-.895,2-2V2c0-1.105-.895-2-2-2Zm1,19.231c0,.371-.137.729-.386,1.005l-3.365,3.764h1.354l2.747-3.087c.422-.468.65-1.063.65-1.682v-3.788c-.31.181-.644.322-1,.414v3.373Z"/>
</svg>
