<?xml version="1.0" encoding="UTF-8"?>
<svg xmlns="http://www.w3.org/2000/svg" id="Layer_1" data-name="Layer 1" viewBox="0 0 24 24">
  <path d="m23.977.73l-.707-.707-6.363,6.363c-1.65-1.483-3.83-2.386-6.218-2.386-.727,0-1.482.111-2.244.332l-.359.104-.002.374c-.01,1.473-.588,2.855-1.628,3.896-1.258,1.26-3.062,1.84-4.821,1.557l-.356-.058-.167.319c-.727,1.388-1.11,2.828-1.11,4.165,0,2.388.904,4.568,2.386,6.218L.026,23.267l.707.707,2.36-2.36c1.65,1.483,3.83,2.386,6.218,2.386,1.353,0,2.81-.393,4.213-1.137l.33-.175-.074-.367c-.376-1.837.19-3.725,1.515-5.048,1.058-1.058,2.447-1.65,3.964-1.627l.392.002.096-.379c.169-.663.254-1.321.254-1.958,0-2.388-.904-4.568-2.386-6.218L23.977.73Zm-4.977,12.581c0,.437-.047.888-.139,1.345-1.615.087-3.12.757-4.273,1.91-1.472,1.471-2.15,3.531-1.854,5.577-1.157.562-2.334.856-3.423.856-2.112,0-4.042-.792-5.51-2.095l3.057-3.057-.707-.707-3.057,3.057c-1.302-1.468-2.095-3.398-2.095-5.51,0-1.079.29-2.244.841-3.392,1.96.206,3.925-.486,5.321-1.885,1.137-1.136,1.806-2.619,1.907-4.212.553-.133,1.096-.2,1.619-.2,2.112,0,4.042.792,5.51,2.095l-7.052,7.052.707.707,7.052-7.052c1.302,1.468,2.095,3.398,2.095,5.51Zm0-12.312c0-.552.448-1,1-1s1,.448,1,1-.448,1-1,1-1-.448-1-1Zm-2,2c0-.552.448-1,1-1s1,.448,1,1-.448,1-1,1-1-.448-1-1Zm7,1c0,.552-.448,1-1,1s-1-.448-1-1,.448-1,1-1,1,.448,1,1Zm-2,2c0,.552-.448,1-1,1s-1-.448-1-1,.448-1,1-1,1,.448,1,1Z"/>
</svg>
