<?xml version="1.0" encoding="UTF-8"?>
<svg xmlns="http://www.w3.org/2000/svg" id="Layer_1" data-name="Layer 1" viewBox="0 0 24 24">
  <path d="m21.5,6h-8.293L18.364.843l-.707-.707-5.657,5.657L6.343.136l-.707.707,5.157,5.157H2.5c-1.378,0-2.5,1.122-2.5,2.5v15.5h24v-15.5c0-1.378-1.122-2.5-2.5-2.5Zm1.5,17H1v-14.5c0-.827.673-1.5,1.5-1.5h19c.827,0,1.5.673,1.5,1.5v14.5Zm-19-3h13v-10H4v10Zm1-9h11v8H5v-8Zm16,0c0,.552-.448,1-1,1s-1-.448-1-1,.448-1,1-1,1,.448,1,1Zm0,4c0,.552-.448,1-1,1s-1-.448-1-1,.448-1,1-1,1,.448,1,1Zm0,4c0,.552-.448,1-1,1s-1-.448-1-1,.448-1,1-1,1,.448,1,1Z"/>
</svg>
