<?xml version="1.0" encoding="UTF-8"?>
<svg xmlns="http://www.w3.org/2000/svg" id="Layer_1" data-name="Layer 1" viewBox="0 0 24 24">
  <path d="m14,24c-1.603,0-3.109-.624-4.243-1.758s-1.757-2.64-1.757-4.242.624-3.109,1.757-4.242l4.243-4.497,4.252,4.508c1.124,1.122,1.748,2.629,1.748,4.231s-.624,3.109-1.758,4.242h0c-1.133,1.134-2.639,1.758-4.242,1.758Zm0-13.282l-3.526,3.736c-1.959,1.96-1.959,5.132-.01,7.081.944.944,2.2,1.465,3.536,1.465s2.591-.521,3.535-1.465h0c.944-.944,1.465-2.2,1.465-3.535s-.521-2.591-1.465-3.535l-3.535-3.747Zm-9,1.282c-1.336,0-2.592-.521-3.535-1.465-.944-.944-1.465-2.199-1.465-3.535s.521-2.591,1.465-3.535L5,.007l3.531,3.454c.948.948,1.469,2.203,1.469,3.539s-.521,2.591-1.465,3.535c-.943.944-2.199,1.465-3.535,1.465Zm0-10.595l-2.832,2.771c-.752.751-1.168,1.756-1.168,2.824s.416,2.073,1.172,2.828c1.51,1.512,4.146,1.512,5.656,0h0c.756-.755,1.172-1.76,1.172-2.828s-.416-2.073-1.172-2.828l-2.828-2.767Zm15,8.595c-1.068,0-2.072-.416-2.828-1.172-.756-.755-1.172-1.76-1.172-2.828s.416-2.073,1.172-2.828L19.983.051l2.86,3.138c.74.738,1.156,1.743,1.156,2.812s-.416,2.073-1.172,2.828c-.756.756-1.76,1.172-2.828,1.172Zm-.013-8.461l-2.091,2.321c-.584.585-.896,1.338-.896,2.14s.312,1.555.879,2.121c1.133,1.133,3.109,1.133,4.242,0h0c.566-.566.879-1.319.879-2.121s-.313-1.555-.879-2.121l-2.134-2.34Z"/>
</svg>
