<?xml version="1.0" encoding="UTF-8"?>
<svg xmlns="http://www.w3.org/2000/svg" id="Layer_1" data-name="Layer 1" width="512" height="512" viewBox="0 0 24 24"><path d="M23.045,8.034L13.545,.567c-.91-.717-2.181-.716-3.09,0L.955,8.034c-.607,.478-.955,1.193-.955,1.966v14H5V15h14v9h5V10c0-.772-.348-1.488-.955-1.966ZM5,14v-1.5c0-.827,.673-1.5,1.5-1.5h11c.827,0,1.5,.673,1.5,1.5v1.5H5Zm18,9h-3V12.5c0-1.379-1.122-2.5-2.5-2.5H6.5c-1.378,0-2.5,1.121-2.5,2.5v10.5H1V10c0-.463,.209-.893,.573-1.179L11.073,1.353c.546-.428,1.308-.429,1.854,0l9.5,7.468c.364,.286,.573,.716,.573,1.179v13Z"/></svg>
