<?xml version="1.0" encoding="UTF-8"?>
<svg xmlns="http://www.w3.org/2000/svg" id="Layer_1" data-name="Layer 1" viewBox="0 0 24 24" width="512" height="512"><path d="m7.514,9.196c-.107-.464-.403-.886-.842-1.07-.206-.086-.413-.126-.613-.126-.689,0-1.287.475-1.443,1.147l-1.616,6.853h1.003l.479-2h3.115l.462,2h1.014l-1.559-6.804Zm-2.793,3.804l.869-3.627c.051-.219.244-.373.469-.373.073,0,.149.016.226.049.111.046.213.197.253.371l.827,3.58h-2.645Z"/><path d="m21.5,4H2.5c-1.379,0-2.5,1.122-2.5,2.5v13.5h24V6.5c0-1.378-1.121-2.5-2.5-2.5ZM1,6.5c0-.827.673-1.5,1.5-1.5h9v14H1V6.5Zm22,12.5h-10.5V5h9c.827,0,1.5.673,1.5,1.5v12.5Z"/><path d="m18.5,8h-1v1h-3.5v1h5.964c-.102.852-.49,2.592-1.964,3.777-.653-.525-1.093-1.16-1.389-1.777h-1.069c.312.784.805,1.63,1.581,2.341-.799.403-1.819.659-3.122.659v1c1.722,0,3.021-.399,4-.999.979.6,2.277.999,4,.999v-1c-1.303,0-2.324-.257-3.122-.659,1.568-1.437,1.978-3.424,2.085-4.341h1.038v-1h-3.5v-1Z"/></svg>
