<?xml version="1.0" encoding="UTF-8"?>
<svg xmlns="http://www.w3.org/2000/svg" id="Layer_1" data-name="Layer 1" width="512" height="512" viewBox="0 0 24 24"><path d="M12,0C5.383,0,0,5.383,0,12s5.383,12,12,12,12-5.383,12-12S18.617,0,12,0Zm0,1c4.349,0,8.116,2.537,9.9,6.208l-8.107,1.621c-1.236,.246-2.491,.246-3.726,0l-7.979-1.596C3.867,3.548,7.641,1,12,1ZM1.013,12.518l4.549,.91c1.023,.205,1.895,.849,2.392,1.767l.625,1.153c.276,.51,.422,1.086,.422,1.666v4.57c-4.453-1.264-7.764-5.268-7.987-10.066Zm8.987,10.299v-4.804c0-.746-.188-1.487-.543-2.143l-.624-1.153c-.639-1.18-1.759-2.007-3.075-2.271l-4.746-.949c.053-1.164,.287-2.282,.675-3.325l8.183,1.637c.683,.137,1.371,.205,2.059,.205s1.376-.068,2.06-.205l8.314-1.663c.394,1.051,.632,2.177,.685,3.351l-4.746,.949c-1.315,.264-2.436,1.091-3.074,2.271l-.625,1.153c-.355,.655-.543,1.396-.543,2.143v4.804c-.649,.12-1.317,.183-2,.183s-1.351-.063-2-.183Zm5-.233v-4.57c0-.58,.146-1.156,.422-1.666l.625-1.153c.496-.918,1.368-1.562,2.391-1.767l4.549-.91c-.223,4.798-3.535,8.802-7.987,10.066Z"/></svg>
