<?xml version="1.0" encoding="UTF-8"?>
<svg xmlns="http://www.w3.org/2000/svg" id="Layer_1" data-name="Layer 1" viewBox="0 0 24 24" width="512" height="512"><path d="M20,13h-4.09l2.17-8.38-4.11-1.15,.42-2.61L9.56,.03V0s-.07,.01-.07,.01h0s0,0,0,0L4.63,.85l.44,2.61L.89,4.78,3.08,13H.08l1.89,9.39c.19,.93,1.01,1.61,1.96,1.61H20c2.21,0,4-1.79,4-4v-3c0-2.21-1.79-4-4-4Zm3,4v1H10v-1c0-1.65,1.35-3,3-3h7c1.65,0,3,1.35,3,3Zm-3.56,2l-1.94,1.38-1.91-1.38h3.85Zm-2.56-13.69l-1.99,7.69h-2.45l1.39-8.54,3.06,.85Zm-3.62-3.64l-1.84,11.32h-3.22L10.29,1.17l2.96,.51Zm-4.51-.51l.26,1.53-1.56,8.81L5.78,1.67l2.96-.5ZM2.11,5.44l3.13-.99,1.45,8.55h-2.57L2.11,5.44Zm.84,16.75L1.3,14H10.36c-.83,.73-1.36,1.81-1.36,3v3c0,1.19,.53,2.27,1.36,3H3.93c-.48,0-.89-.34-.98-.8Zm17.05,.8h-7c-1.65,0-3-1.35-3-3v-1h3.89l3.61,2.62,3.66-2.62h1.84v1c0,1.65-1.35,3-3,3Z"/></svg>
