<?xml version="1.0" encoding="UTF-8"?>
<svg xmlns="http://www.w3.org/2000/svg" id="Layer_1" data-name="Layer 1" viewBox="0 0 24 24" width="512" height="512"><path d="m23,4h-6v-1.5c0-1.378-1.121-2.5-2.5-2.5h-5c-1.379,0-2.5,1.122-2.5,2.5v1.5H1v1h1.551l1.799,16.767c.137,1.273,1.205,2.233,2.485,2.233h10.295c1.277,0,2.346-.958,2.485-2.229l1.833-16.771h1.552v-1Zm-15-1.5c0-.827.673-1.5,1.5-1.5h5c.827,0,1.5.673,1.5,1.5v1.5h-8v-1.5Zm10.621,19.163c-.084.763-.725,1.337-1.491,1.337H6.835c-.768,0-1.409-.576-1.491-1.34L3.556,5h16.886l-1.821,16.663Zm-11.05-7.769c-.769-.769-.769-2.019,0-2.787l3.202-3.203.707.707-3.202,3.203c-.057.057-.106.12-.146.187h5.367c1.379,0,2.5,1.122,2.5,2.5v4.5h-1v-4.5c0-.827-.673-1.5-1.5-1.5h-5.367c.04.067.089.129.146.187l3.202,3.203-.707.707-3.202-3.203Z"/></svg>
