<?xml version="1.0" encoding="UTF-8"?>
<svg xmlns="http://www.w3.org/2000/svg" id="Layer_1" data-name="Layer 1" viewBox="0 0 24 24" width="512" height="512"><path d="M8,7c0-.55,.45-1,1-1s1,.45,1,1-.45,1-1,1-1-.45-1-1Zm16-2.5v13.5H4V4.5c0-1.38,1.12-2.5,2.5-2.5h15c1.38,0,2.5,1.12,2.5,2.5Zm-19,0v12.32L13.03,8.79l3.3,3.3,6.67-6.67v-.92c0-.83-.67-1.5-1.5-1.5H6.5c-.83,0-1.5,.67-1.5,1.5Zm18,12.5V6.83l-6.67,6.67-3.3-3.3-6.79,6.79H23ZM1,8.5c0-.65,.42-1.2,1-1.41v-1.04c-1.14,.23-2,1.24-2,2.45v13.5H20v-1H1V8.5Z"/></svg>
