<?xml version="1.0" encoding="UTF-8"?>
<svg xmlns="http://www.w3.org/2000/svg" id="Layer_1" data-name="Layer 1" viewBox="0 0 24 24" width="512" height="512"><path d="M23.459,10c.354,.609,.541,1.294,.541,2,0,2.206-1.794,4-4,4-.712,0-1.396-.189-2-.545v8.583h-1V13.197l.858,.884c.576,.593,1.336,.919,2.142,.919,1.654,0,3-1.346,3-3,0-.613-.188-1.206-.543-1.713l-.201-.287,.201-.287c.355-.507,.543-1.1,.543-1.713,0-1.159-.685-2.226-1.744-2.717l-.317-.146s.061-.59,.061-.637c0-1.93-1.57-3.5-3.5-3.5s-3.5,1.57-3.5,3.5c0,.047,.061,.637,.061,.637l-.317,.146c-1.059,.491-1.744,1.558-1.744,2.717,0,.352,.072,.686,.184,1h-1.042c-.084-.322-.142-.653-.142-1,0-1.426,.774-2.746,2.001-3.456,0-2.481,2.018-4.544,4.499-4.544s4.499,2.062,4.499,4.544c1.227,.71,2.001,2.03,2.001,3.456,0,.706-.186,1.391-.541,2Zm-8.459,3.5v3.5h-2v3h2v1h-2v3h-1v-3H3v3h-1v-3H0v-1H2v-3H0v-3.5c0-1.379,1.122-2.5,2.5-2.5H12.5c1.378,0,2.5,1.121,2.5,2.5Zm-3,3.5H3v3H12v-3Zm2-3.5c0-.827-.673-1.5-1.5-1.5H2.5c-.827,0-1.5,.673-1.5,1.5v2.5H14v-2.5Z"/></svg>
