<?xml version="1.0" encoding="UTF-8"?>
<svg xmlns="http://www.w3.org/2000/svg" id="Layer_1" data-name="Layer 1" viewBox="0 0 24 24">
  <path d="m22,3H2c-1.103,0-2,.897-2,2v16h24V5c0-1.103-.897-2-2-2Zm1,17H1V5c0-.552.449-1,1-1h20c.551,0,1,.448,1,1v15ZM15,7h6v1h-6v-1Zm0,3h6v1h-6v-1Zm0,3h6v1h-6v-1Zm0,3h4v1h-4v-1Zm-6.24-9.375h-1.5l-.883,3.375h-3.377v1.485l2.391,1.33-.961,3.005,1.129.851,2.452-1.896,2.43,1.879,1.169-.814-.984-2.99,2.373-1.373v-1.476h-3.358l-.882-3.375Zm.663,5.765l.977,2.967-2.388-1.846-2.382,1.842.964-3.014-2.409-1.339h2.964l.861-3.29.859,3.29h2.957l-2.403,1.39Z"/>
</svg>
