<?xml version="1.0" encoding="UTF-8"?>
<svg xmlns="http://www.w3.org/2000/svg" id="Layer_1" data-name="Layer 1" viewBox="0 0 24 24" width="512" height="512"><path d="M24,5h-3.85c-.147-.225-.292-.427-.431-.599C17.113,.922,12.825-.66,8.532,.261,4.138,1.208,.844,4.711,.139,9.186c-.514,3.269,.326,6.515,2.306,8.904,.358,.432,.556,.986,.556,1.561v4.35h13v-3h2.358c1.188,0,2.22-.847,2.452-2.013l.793-3.987h2.396v-1.5s-.416-1.058-.603-1.5h.603V5Zm-1,6H14.5c-1.379,0-2.5-1.121-2.5-2.5s1.121-2.5,2.5-2.5h8.5v5ZM8.743,1.239c3.903-.841,7.795,.596,10.175,3.761h-4.418c-1.76,0-3.221,1.306-3.464,3H1.432c1.023-3.411,3.774-5.999,7.311-6.761Zm14.257,12.366v.395h-2.217l-.953,4.792c-.14,.7-.759,1.208-1.472,1.208h-3.358v3H4v-3.35c0-.807-.279-1.588-.786-2.199C1.418,15.283,.657,12.326,1.127,9.341c.018-.114,.038-.228,.06-.341H11.036c.243,1.694,1.704,3,3.464,3h7.813c.229,.547,.458,1.086,.687,1.605Z"/></svg>
