<?xml version="1.0" encoding="UTF-8"?>
<svg xmlns="http://www.w3.org/2000/svg" id="Layer_1" data-name="Layer 1" viewBox="0 0 24 24" width="512" height="512"><path d="M12,0C5.383,0,0,5.383,0,12s5.383,12,12,12,12-5.383,12-12S18.617,0,12,0ZM1,12c0-2.853,1.092-5.456,2.88-7.413l15.533,15.533c-1.957,1.788-4.56,2.88-7.413,2.88-6.065,0-11-4.935-11-11Zm7.013-4.694c.096-.736,.726-1.306,1.487-1.306h4c1.93,0,3.5,1.57,3.5,3.5,0,1.862-1.462,3.389-3.299,3.494l-5.688-5.688Zm12.107,12.107l-5.543-5.543c1.963-.484,3.423-2.259,3.423-4.37,0-2.481-2.019-4.5-4.5-4.5h-4c-1.024,0-1.905,.619-2.291,1.502l-2.621-2.621c1.957-1.788,4.56-2.88,7.413-2.88,6.065,0,11,4.935,11,11,0,2.853-1.092,5.456-2.88,7.413Zm-10.655-6.413l1,1h-2.465v5h-1V10.535l1,1v1.465h1.465Z"/></svg>
