<?xml version="1.0" encoding="UTF-8"?>
<svg xmlns="http://www.w3.org/2000/svg" id="Layer_1" data-name="Layer 1" viewBox="0 0 24 24">
  <path d="m8.5,5c1.379,0,2.5-1.121,2.5-2.5s-1.121-2.5-2.5-2.5-2.5,1.121-2.5,2.5,1.121,2.5,2.5,2.5Zm0-4c.827,0,1.5.673,1.5,1.5s-.673,1.5-1.5,1.5-1.5-.673-1.5-1.5.673-1.5,1.5-1.5Zm-3.5,9h-1v-1.5c0-1.379,1.121-2.5,2.5-2.5h4c1.379,0,2.5,1.121,2.5,2.5v1.5h-1v-1.5c0-.827-.673-1.5-1.5-1.5h-4c-.827,0-1.5.673-1.5,1.5v1.5Zm18.181-.346c-.497-.451-1.146-.683-1.809-.651-.67.031-1.288.321-1.739.817l-3.732,4.103c-.314-1.108-1.335-1.923-2.543-1.923H2.5c-1.379,0-2.5,1.121-2.5,2.5v7c0,1.379,1.121,2.5,2.5,2.5h11.225l9.638-10.817c.912-1.022.831-2.605-.182-3.528Zm-.564,2.862l-9.341,10.483H2.5c-.827,0-1.5-.673-1.5-1.5v-7c0-.827.673-1.5,1.5-1.5h10.857c.905,0,1.643.737,1.643,1.643,0,.812-.605,1.511-1.403,1.624l-5.661.737.129.992,5.667-.738c1.021-.146,1.845-.878,2.146-1.823l4.496-4.94c.271-.299.643-.474,1.046-.492.405-.019.789.12,1.088.392.609.556.658,1.508.109,2.123Z"/>
</svg>
