<?xml version="1.0" encoding="UTF-8"?>
<svg xmlns="http://www.w3.org/2000/svg" id="Layer_1" data-name="Layer 1" viewBox="0 0 24 24">
  <path d="m24,11c0,1.654-1.346,3-3,3h-.6c-.763,1.833-2.387,3.707-4.4,4.862v5.138h-1v-4.639c-.951.405-1.965.641-3,.641s-2.049-.237-3-.642v4.64h-1v-5.139c-2.011-1.156-3.631-3.029-4.394-4.861h1.094c1.22,2.518,4.155,5.002,7.3,5.002,3.425,0,6.605-2.944,7.588-5.672l.119-.33h1.293c1.103,0,2-.897,2-2s-.897-2-2-2h-.448l-.106-.439c-.474-4.311-4.104-7.561-8.445-7.561C7.198,1,3.995,4.166,3.213,9.686l-.156,1.352c1.774.061,7.718-.294,10.991-7.25l.904.426c-1.427,3.032-3.363,4.898-5.285,6.042.204.183.333.449.333.745,0,.552-.448,1-1,1-.525,0-.955-.404-.996-.918-2,.813-3.81.949-4.793.949-.476,0-.758-.032-.773-.034l-.492-.062.275-2.377C3.07,3.568,6.725,0,12,0c4.711,0,8.674,3.426,9.385,8.035,1.495.204,2.615,1.456,2.615,2.965Zm-8,0c0-.552-.448-1-1-1s-1,.448-1,1,.448,1,1,1,1-.448,1-1Z"/>
</svg>
