<?xml version="1.0" encoding="UTF-8"?>
<svg xmlns="http://www.w3.org/2000/svg" id="Layer_1" data-name="Layer 1" viewBox="0 0 24 24">
  <path d="m9.146,4.354c-.729-.729-1.146-1.737-1.146-2.768V0h1v1.586c0,.767.311,1.518.854,2.061.729.729,1.146,1.737,1.146,2.768v1.586h-1v-1.586c0-.767-.311-1.518-.854-2.061Zm4.854,1.061v1.586h1v-1.586c0-1.046-.407-2.029-1.146-2.768-.542-.542-.854-1.293-.854-2.061v-.586h-1v.586c0,1.03.418,2.039,1.146,2.768.551.55.854,1.282.854,2.061Zm9.969,7.484c-.761,4.712-4.052,9.305-7.856,11.102l-8.326-.048C3.981,22.155.792,17.61.032,12.899c-.117-.722.089-1.457.565-2.016.478-.562,1.174-.883,1.911-.883h18.983c.736,0,1.433.322,1.91.883.477.559.683,1.293.567,2.016Zm-1.328-1.367c-.288-.337-.707-.531-1.149-.531H2.508c-.443,0-.862.194-1.149.532-.286.335-.409.775-.339,1.208.704,4.363,3.613,8.563,7.094,10.26h7.773c3.48-1.696,6.39-5.897,7.095-10.26.069-.433-.055-.873-.341-1.208Z"/>
</svg>
