<?xml version="1.0" encoding="UTF-8"?>
<svg xmlns="http://www.w3.org/2000/svg" id="Layer_1" data-name="Layer 1" viewBox="0 0 24 24">
  <path d="m10,11v-4h1v4h-1Zm-9,1C1,5.935,5.935,1,12,1s11,4.935,11,11c0,0,.058,1.481-.401,3.005.34.016.671.08.985.188.279-1.013.428-2.092.428-3.192-.056-6.57-5.431-12-12.013-12C5.383,0,0,5.383,0,12s5.383,12,12,12c2.184,0,4.234-.587,6-1.611v-1.174c-1.727,1.128-3.788,1.785-6,1.785-6.065,0-11-4.935-11-11Zm16-1v-4h-1v4h1Zm-3,0v-4h-1v4h1Zm8.429,6h-3.837c-.189,0-.362-.087-.475-.238-.099-.135-.137-.299-.106-.46l3.404-5.021-.828-.561-3.517,5.229c-.147.486-.058,1,.245,1.408s.769.643,1.277.643h3.837c.213,0,.401.112.501.3.101.188.091.407-.011.562l-3.337,4.465.801.6,3.354-4.488c.32-.482.349-1.1.075-1.61-.274-.51-.804-.827-1.383-.827Zm-14.429-6v-4h-1v4h1Zm-4,0h1v-4h-1v4Z"/>
</svg>
