<?xml version="1.0" encoding="UTF-8"?>
<svg xmlns="http://www.w3.org/2000/svg" id="Layer_1" data-name="Layer 1" viewBox="0 0 24 24">
  <path d="m22,15v-.5c0-2.481-2.019-4.5-4.5-4.5s-4.5,2.019-4.5,4.5v.5h-2.05l.972,6.619c.2,1.357,1.385,2.381,2.756,2.381h5.65c1.372,0,2.557-1.023,2.756-2.381l.972-6.619h-2.056Zm-8-.5c0-1.93,1.57-3.5,3.5-3.5s3.5,1.57,3.5,3.5v.5h-7v-.5Zm8.095,6.974c-.128.87-.888,1.526-1.767,1.526h-5.65c-.879,0-1.639-.656-1.767-1.526l-.804-5.474h10.792l-.804,5.474ZM3,4c0-.552.448-1,1-1s1,.448,1,1-.448,1-1,1-1-.448-1-1Zm3,0c0-.552.448-1,1-1s1,.448,1,1-.448,1-1,1-1-.448-1-1Zm3,0c0-.552.448-1,1-1s1,.448,1,1-.448,1-1,1-1-.448-1-1Zm.809,17H1v-13h22v3.052c.372.591.639,1.251.807,1.948h.193V2.5c0-1.378-1.122-2.5-2.5-2.5H2.5C1.122,0,0,1.122,0,2.5v19.5h9.965c-.005-.031-.155-1-.155-1ZM2.5,1h19c.827,0,1.5.673,1.5,1.5v4.5H1V2.5c0-.827.673-1.5,1.5-1.5Z"/>
</svg>
