<?xml version="1.0" encoding="UTF-8"?>
<svg xmlns="http://www.w3.org/2000/svg" id="Layer_1" data-name="Layer 1" viewBox="0 0 24 24">
  <path d="m20,8c2.206,0,4-1.794,4-4s-1.794-4-4-4-4,1.794-4,4,1.794,4,4,4Zm0-7c1.654,0,3,1.346,3,3s-1.346,3-3,3-3-1.346-3-3,1.346-3,3-3Zm-2.5,11.008c-.827,0-1.557.467-1.903,1.221l-4.552,10.016-.045.756h13v-.549l-4.598-10.225c-.346-.752-1.075-1.219-1.902-1.219Zm-5.246,10.992l4.252-9.355c.184-.398.556-.637.994-.637s.811.238.993.635l4.253,9.357h-10.492Zm-1.258-16.358c-.186-.403-.558-.642-.996-.642s-.811.238-.994.637L1.267,23h7.733v1H0l.048-.763L8.1,6.214c.344-.747,1.073-1.214,1.9-1.214s1.557.467,1.902,1.219l2.475,5.238c-.236.281-.44.596-.601.944l-.028.061-2.753-5.821Z"/>
</svg>
