<?xml version="1.0" encoding="UTF-8"?>
<svg xmlns="http://www.w3.org/2000/svg" id="Layer_1" data-name="Layer 1" viewBox="0 0 24 24" width="512" height="512"><path d="M21.311,1.347c-1.089,.445-2.446,.675-3.802,.653-2.084-.037-3.927-.64-5.188-1.697l-.321-.269-.321,.269c-1.261,1.057-3.104,1.66-5.188,1.697-1.354,.029-2.713-.207-3.802-.653l-.689-.282V11.896c0,6.61,7.159,10.703,9.354,11.8l.628,.313,.648-.261c2.198-.884,9.37-4.353,9.37-11.852V1.065l-.689,.282ZM6.509,3c2.146-.039,4.077-.631,5.491-1.677,1.414,1.046,3.346,1.639,5.491,1.677,1.222,.011,2.442-.147,3.509-.48v5.48H3V2.52c1.066,.333,2.285,.493,3.509,.48Zm5.748,19.82l-.232,.093-.224-.112c-2.064-1.032-8.801-4.87-8.801-10.906v-2.896H21v2.896c0,6.873-6.692,10.099-8.743,10.924Z"/></svg>
