<?xml version="1.0" encoding="UTF-8"?>
<svg xmlns="http://www.w3.org/2000/svg" id="Layer_1" data-name="Layer 1" viewBox="0 0 24 24">
  <path d="m21.891,11.06l1.017-1.017c.473-.472.732-1.1.732-1.768s-.26-1.295-.732-1.768l-1.336-1.336c1.488-1.02,1.597-1.11,1.649-1.155.456-.395.73-.944.773-1.545.043-.601-.151-1.184-.544-1.636-.428-.501-1.014-.794-1.649-.825-.64-.039-1.229.197-1.669.622-.049.045-.061.057-1.282,1.819l-1.26-1.261c-.977-.976-2.563-.974-3.536,0l-1.886,1.886s2.36,1.626,2.401,1.66c.252.218.404.522.428.854s-.084.655-.282.884c-.628.642-1.312.696-1.834.201-.065-.084-1.819-2.494-1.819-2.494l-6.088,6.046c-.841-1.287-.927-1.389-.975-1.446-.412-.475-1.002-.76-1.618-.782-.628-.033-1.223.223-1.683.683-.893.857-.921,2.281-.061,3.176.032.033.051.052,1.515,1.146l-.892.878c-1.012,1.012-1.012,2.657,0,3.669l1.922,1.922s1.633-2.114,1.661-2.152c.483-.465,1.346-.42,1.826.079.224.258.344.607.329.957-.015.351-.159.662-.401.871-.074.062-2.101,1.561-2.101,1.561l1.948,1.947c1.01,1.011,2.658,1.012,3.667.003l1.2-1.181c1.276,1.766,1.285,1.774,1.328,1.814.422.406.973.627,1.557.627.601-.012,1.206-.258,1.608-.677.465-.447.711-1.039.694-1.667-.017-.634-.301-1.236-.784-1.655-.078-.066-.343-.26-1.644-1.158l4.968-4.931c1.05,1.408,1.072,1.429,1.105,1.462.933.894,2.213.832,3.306-.197.394-.454.587-1.034.544-1.634-.043-.599-.316-1.145-.773-1.541-.046-.04-.137-.117-1.33-.941Zm-9.384,7.919s2.493,1.728,2.558,1.781c.268.232.426.568.436.922.006.243-.057.601-.402.935-.231.24-.542.376-.876.383-.304.018-.649-.117-.847-.301-.071-.092-1.936-2.669-1.936-2.669l-2.032,2c-.622.621-1.634.622-2.255,0l-1.125-1.125c.709-.523,1.118-.83,1.22-.916.457-.396.723-.96.75-1.588.026-.603-.183-1.206-.589-1.674-.881-.917-2.375-.974-3.259-.124-.031.03-.047.045-1.062,1.361l-1.119-1.119c-.622-.622-.622-1.633-.003-2.252l1.72-1.692s-2.285-1.706-2.329-1.736c-.476-.495-.46-1.285.042-1.767.344-.344.708-.4.947-.397.34.012.667.171.892.431.039.047,1.566,2.368,1.566,2.368l3.168-3.119,2.252,2.251c-1.569,1.166-1.584,1.182-1.619,1.219-.419.436-.633,1.024-.601,1.655.03.604.293,1.187.741,1.616.958.829,2.443.749,3.25-.18.042-.05.146-.173,1.056-1.483l2.36,2.361-2.903,2.859Zm10.223-4.495c-.666.624-1.355.685-1.854.21-.067-.084-1.726-2.308-1.726-2.308l-3.03,3.03-3.211-3.211s-1.638,2.343-1.675,2.387c-.439.506-1.298.541-1.816.092-.247-.237-.398-.575-.416-.927-.018-.353.097-.677.282-.874.091-.073,2.466-1.838,2.466-1.838l-3.068-3.069,2.26-2.26c1.152,1.584,1.16,1.591,1.203,1.633.959.919,2.279.851,3.306-.197.394-.454.587-1.034.544-1.633-.042-.599-.316-1.146-.774-1.543-.045-.039-.146-.124-1.492-1.046l1.033-1.034c.585-.584,1.535-.586,2.122,0l2.107,2.108s1.805-2.604,1.832-2.65c.246-.237.58-.364.93-.346.357.018.69.187.94.479.22.253.328.578.305.913-.024.335-.177.641-.425.855-.049.04-2.561,1.771-2.561,1.771l2.188,2.188c.283.283.439.66.439,1.061s-.156.777-.439,1.061l-1.866,1.866s2.196,1.525,2.235,1.558c.252.218.403.521.428.854.023.333-.084.655-.268.87Z"/>
</svg>
