<?xml version="1.0" encoding="UTF-8"?>
<svg xmlns="http://www.w3.org/2000/svg" id="Layer_1" data-name="Layer 1" viewBox="0 0 24 24" width="512" height="512"><path d="M12.5,7h6.794L13.448,.611c-.696-.776-2.038-.777-2.736-.002L4.865,7h6.635v10H4.865l5.848,6.391c.348,.387,.846,.609,1.367,.609s1.021-.223,1.365-.607l5.85-6.393h-6.794V7Zm-1.048-5.718l.004-.004c.321-.36,.922-.363,1.251,.004l4.316,4.718H7.135L11.452,1.282Zm1.251,21.439c-.321,.359-.926,.36-1.248,0l-4.32-4.722h9.888l-4.32,4.722Z"/></svg>
