<?xml version="1.0" encoding="UTF-8"?>
<svg xmlns="http://www.w3.org/2000/svg" id="Layer_1" data-name="Layer 1" width="512" height="512" viewBox="0 0 24 24"><path d="M23.379,1.684c-.514-.535-1.255-.775-1.979-.639-.204,.038-.421,.15-.695,.293-.54,.279-1.278,.662-2.205,.662-1.271,0-2.633-1.34-2.647-1.354l-.354-.352-.353,.353c-.014,.014-1.374,1.353-3.146,1.353-1.76,0-3.134-1.341-3.147-1.354l-.354-.35-.352,.351c-.014,.013-1.375,1.354-2.647,1.354-.927,0-1.665-.383-2.205-.662-.274-.143-.492-.255-.696-.293-.727-.139-1.465,.103-1.979,.639C.099,2.229-.112,2.992,.054,3.71l1.946,9.84v6.95c0,1.93,1.57,3.5,3.5,3.5,1.76,0,3.221-1.306,3.464-3h6.072c.243,1.694,1.704,3,3.464,3,1.93,0,3.5-1.57,3.5-3.5v-6.95l1.942-9.824c.169-.733-.042-1.497-.563-2.042ZM5.5,23c-1.378,0-2.5-1.121-2.5-2.5s1.122-2.5,2.5-2.5,2.5,1.121,2.5,2.5-1.122,2.5-2.5,2.5Zm13,0c-1.378,0-2.5-1.121-2.5-2.5s1.122-2.5,2.5-2.5,2.5,1.121,2.5,2.5-1.122,2.5-2.5,2.5Zm0-6c-1.76,0-3.221,1.306-3.464,3h-6.072c-.243-1.694-1.704-3-3.464-3-.978,0-1.864,.404-2.5,1.053v-4.053H21v4.053c-.636-.65-1.522-1.053-2.5-1.053ZM22.964,3.517l-1.875,9.483H2.911L1.032,3.501c-.093-.404,.023-.825,.311-1.125,.283-.295,.677-.421,1.071-.349,.066,.015,.263,.116,.421,.198,.595,.309,1.494,.774,2.665,.774,.946,0,1.864-.496,2.5-.944v7.944h1V2.027c.691,.456,1.75,.973,3,.973s2.309-.518,3-.973v7.973h1V2.056c.636,.448,1.554,.944,2.5,.944,1.17,0,2.069-.466,2.665-.774,.158-.082,.355-.184,.419-.198,.397-.072,.79,.053,1.073,.349,.288,.3,.404,.721,.308,1.141Z"/></svg>
