<?xml version="1.0" encoding="UTF-8"?>
<svg xmlns="http://www.w3.org/2000/svg" id="Layer_1" data-name="Layer 1" viewBox="0 0 24 24">
  <path d="m18.113,21.655l.791.791c-.921.359-1.905.554-2.904.554H5.5c-3.033,0-5.5-2.467-5.5-5.5,0-2.044,1.119-3.888,2.894-4.841-.586-1.133-.894-2.388-.894-3.659,0-1,.195-1.984.553-2.904l.792.792c-.216.68-.346,1.389-.346,2.112,0,1.271.352,2.524,1.019,3.622l.303.499-.539.223c-1.69.699-2.782,2.331-2.782,4.157,0,2.481,2.019,4.5,4.5,4.5h10.5c.722,0,1.432-.129,2.113-.345Zm3.395-.854l2.46,2.46-.707.707L.031.738.738.031l3.461,3.461c1.509-1.59,3.593-2.492,5.801-2.492,3.741,0,6.965,2.591,7.792,6.208,3.617.826,6.208,4.051,6.208,7.792,0,2.21-.901,4.293-2.492,5.801ZM4.906,4.199l15.894,15.894c1.403-1.321,2.199-3.151,2.199-5.094,0-3.373-2.406-6.265-5.722-6.877l-.338-.062-.062-.338c-.613-3.315-3.506-5.722-6.878-5.722-1.941,0-3.773.796-5.094,2.199Z"/>
</svg>
