<?xml version="1.0" encoding="UTF-8"?>
<svg xmlns="http://www.w3.org/2000/svg" id="Layer_1" data-name="Layer 1" viewBox="0 0 24 24" width="512" height="512"><path d="m24,20h-4v4h-1v-4h-4v-1h4v-4h1v4h4v1Zm-15.866-11.913c-.203-.054-.414-.087-.634-.087H2.5c-1.378,0-2.5,1.122-2.5,2.5v3.5h1v-3.5c0-.827.673-1.5,1.5-1.5h3.527c.612-.456,1.324-.775,2.106-.913Zm7.366.913c.827,0,1.5.673,1.5,1.5v2.5h1v-2.5c0-1.378-1.122-2.5-2.5-2.5h-5c-.22,0-.431.033-.634.087.782.137,1.494.457,2.106.913h3.527ZM2,3c0-1.654,1.346-3,3-3s3,1.346,3,3-1.346,3-3,3-3-1.346-3-3Zm1,0c0,1.103.897,2,2,2s2-.897,2-2-.897-2-2-2-2,.897-2,2Zm7,0c0-1.654,1.346-3,3-3s3,1.346,3,3-1.346,3-3,3-3-1.346-3-3Zm1,0c0,1.103.897,2,2,2s2-.897,2-2-.897-2-2-2-2,.897-2,2Zm-2,7c1.654,0,3,1.346,3,3s-1.346,3-3,3-3-1.346-3-3,1.346-3,3-3Zm-2,3c0,1.103.897,2,2,2s2-.897,2-2-.897-2-2-2-2,.897-2,2Zm-.5,5c-1.378,0-2.5,1.121-2.5,2.5v3.5h1v-3.5c0-.827.673-1.5,1.5-1.5h5c.827,0,1.5.673,1.5,1.5v-1.987c-.419-.317-.935-.513-1.5-.513h-5Z"/></svg>
