<?xml version="1.0" encoding="UTF-8"?>
<svg xmlns="http://www.w3.org/2000/svg" id="Layer_1" data-name="Layer 1" viewBox="0 0 24 24">
  <path d="m5.5,10.489l-3.889,4.122c-2.145,2.145-2.145,5.634,0,7.778,1.039,1.039,2.42,1.611,3.889,1.611s2.85-.572,3.889-1.611c2.145-2.145,2.145-5.634.01-7.768l-3.899-4.132Zm3.182,11.193c-.85.85-1.98,1.318-3.182,1.318s-2.332-.468-3.182-1.318c-1.754-1.755-1.754-4.609.01-6.375l3.171-3.361,3.182,3.372c1.754,1.755,1.754,4.609,0,6.364Zm13.85-10.927l-3.532-3.454-3.535,3.458c-.945.944-1.465,2.2-1.465,3.536s.52,2.591,1.465,3.535c.944.944,2.199,1.464,3.535,1.464s2.591-.52,3.536-1.464,1.464-2.2,1.464-3.535-.52-2.591-1.468-3.54Zm-.703,6.368c-1.511,1.511-4.147,1.511-5.657,0-.756-.755-1.172-1.76-1.172-2.828s.416-2.073,1.168-2.825l2.832-2.771,2.829,2.767c1.56,1.56,1.56,4.097,0,5.657ZM10,.405l-2.828,2.767c-.756.755-1.172,1.76-1.172,2.828s.416,2.073,1.172,2.829,1.76,1.171,2.828,1.171,2.073-.416,2.829-1.171c1.56-1.56,1.56-4.098-.004-5.661L10,.405Zm2.122,7.716c-1.134,1.133-3.11,1.133-4.243,0-.567-.567-.879-1.32-.879-2.122s.312-1.555.875-2.117l2.125-2.079,2.122,2.075c1.169,1.169,1.169,3.073,0,4.243Z"/>
</svg>
