<?xml version="1.0" encoding="UTF-8"?>
<svg xmlns="http://www.w3.org/2000/svg" id="Layer_1" data-name="Layer 1" viewBox="0 0 24 24" width="512" height="512"><path d="M18.448,5.014c-.355-3.265-2.458-5.014-4.448-5.014V1c1.517,0,3.12,1.402,3.442,4.021-3.231,.247-5.442,2.636-5.442,5.979,0,3.037-1.963,5-5,5-2.907,0-5.018-2.458-5.646-6.575l-.064-.425H.283s-.283,1.423-.283,3c0,6.617,5.383,12,12,12s12-5.383,12-12v-1.046c0-2.845-1.905-5.722-5.552-5.94Zm2.776,2.026c-.643,1.209-1.877,1.96-3.223,1.96s-2.587-.755-3.229-1.97l-.021,.011c.794-.64,1.869-1.041,3.249-1.041,1.362,0,2.43,.404,3.223,1.04Zm1.777,4.96c0,6.065-4.935,11-11,11-6.018,0-10.923-4.858-10.999-10.858,1.109,3.086,3.246,4.858,5.999,4.858,3.589,0,6-2.411,6-6,0-1.158,.335-2.321,1.041-3.233,.85,1.385,2.34,2.233,3.959,2.233s3.1-.843,3.951-2.22c.709,.912,1.049,2.063,1.049,3.174v1.046Z"/></svg>
