<?xml version="1.0" encoding="UTF-8"?>
<svg xmlns="http://www.w3.org/2000/svg" id="Layer_1" data-name="Layer 1" width="512" height="512" viewBox="0 0 24 24"><path d="M23.61,15.788l.37,.929c-.472,.188-.97,.283-1.48,.283-1.504,0-2.817-.835-3.5-2.065-.683,1.231-1.996,2.065-3.5,2.065s-2.817-.835-3.5-2.065c-.683,1.231-1.996,2.065-3.5,2.065s-2.817-.835-3.5-2.065c-.683,1.231-1.996,2.065-3.5,2.065-.508,0-1.003-.094-1.471-.279l.368-.93c.351,.139,.722,.209,1.103,.209,1.654,0,3-1.346,3-3h1c0,1.654,1.346,3,3,3s3-1.346,3-3h1c0,1.654,1.346,3,3,3s3-1.346,3-3h1c0,1.654,1.346,3,3,3,.383,0,.757-.071,1.11-.212Zm-1.11,6.212c-1.654,0-3-1.346-3-3h-1c0,1.654-1.346,3-3,3s-3-1.346-3-3h-1c0,1.654-1.346,3-3,3s-3-1.346-3-3h-1c0,1.654-1.346,3-3,3-.382,0-.755-.071-1.107-.211l-.369,.93c.471,.187,.967,.281,1.477,.281,1.504,0,2.817-.835,3.5-2.065,.683,1.231,1.996,2.065,3.5,2.065s2.817-.835,3.5-2.065c.683,1.231,1.996,2.065,3.5,2.065s2.817-.835,3.5-2.065c.683,1.231,1.996,2.065,3.5,2.065,.509,0,1.006-.095,1.477-.281l-.369-.93c-.353,.14-.725,.211-1.107,.211ZM5,2.935c.683,1.231,1.996,2.065,3.5,2.065s2.817-.835,3.5-2.065c.683,1.231,1.996,2.065,3.5,2.065s2.817-.835,3.5-2.065c.683,1.231,1.996,2.065,3.5,2.065,.511,0,1.009-.095,1.48-.283l-.37-.929c-.353,.141-.727,.212-1.11,.212-1.654,0-3-1.346-3-3h-1c0,1.654-1.346,3-3,3s-3-1.346-3-3h-1c0,1.654-1.346,3-3,3s-3-1.346-3-3h-1c0,1.654-1.346,3-3,3-.381,0-.752-.07-1.103-.209L.029,4.721c.468,.186,.963,.279,1.471,.279,1.504,0,2.817-.835,3.5-2.065Zm0,6c.683,1.231,1.996,2.065,3.5,2.065s2.817-.835,3.5-2.065c.683,1.231,1.996,2.065,3.5,2.065s2.817-.835,3.5-2.065c.683,1.231,1.996,2.065,3.5,2.065,.509,0,1.006-.095,1.477-.281l-.369-.93c-.353,.14-.725,.211-1.107,.211-1.654,0-3-1.346-3-3h-1c0,1.654-1.346,3-3,3s-3-1.346-3-3h-1c0,1.654-1.346,3-3,3s-3-1.346-3-3h-1c0,1.654-1.346,3-3,3-.382,0-.755-.071-1.107-.211L.023,10.719c.471,.187,.967,.281,1.477,.281,1.504,0,2.817-.835,3.5-2.065Z"/></svg>
