<?xml version="1.0" encoding="UTF-8"?>
<svg xmlns="http://www.w3.org/2000/svg" id="Layer_1" data-name="Layer 1" viewBox="0 0 24 24">
  <path d="m12,0C5.383,0,0,5.383,0,12s5.383,12,12,12,12-5.383,12-12S18.617,0,12,0Zm0,23c-6.065,0-11-4.935-11-11S5.935,1,12,1s11,4.935,11,11-4.935,11-11,11Zm.746-16.364h-1.497l-.882,3.364h-3.367v1.481l2.382,1.327-.956,3.001,1.151.844,2.432-1.888,2.421,1.871,1.169-.81-.984-2.981,2.365-1.37v-1.476h-3.352l-.882-3.364Zm.665,5.751l.974,2.951-2.375-1.836-2.386,1.846.96-3.014-2.393-1.334h2.948l.859-3.275.859,3.275h2.949l-2.396,1.387Zm-1.41-9.387C7.038,3,3,7.037,3,12s4.038,9,9,9,9-4.037,9-9S16.962,3,12,3Zm0,17c-4.411,0-8-3.589-8-8S7.589,4,12,4s8,3.589,8,8-3.589,8-8,8Z"/>
</svg>
