<?xml version="1.0" encoding="UTF-8"?>
<svg xmlns="http://www.w3.org/2000/svg" id="arrow-circle-down" viewBox="0 0 24 24" width="512" height="512"><path d="M24,8V2c0-1.103-.897-2-2-2h-6V1h6c.033,0,.06,.016,.092,.019L11.921,11.189,1.777,1.045c.074-.017,.144-.045,.223-.045h6V0H2C.897,0,0,.897,0,2v6H1V2c0-.094,.029-.178,.054-.264L11.214,11.896,1.019,22.092c-.003-.032-.019-.059-.019-.092v-6H0v6c0,1.103,.897,2,2,2h6v-1H2c-.14,0-.272-.03-.393-.082L11.921,12.604l10.343,10.343c-.086,.024-.171,.053-.264,.053h-6v1h6c1.103,0,2-.897,2-2v-6h-1v6c0,.079-.028,.149-.045,.223L12.628,11.896,22.918,1.607c.052,.121,.082,.254,.082,.393v6h1Z"/></svg>
