<?xml version="1.0" encoding="UTF-8"?>
<svg xmlns="http://www.w3.org/2000/svg" id="Layer_1" data-name="Layer 1" viewBox="0 0 24 24">
  <path d="m11,2.607c0-1.273-.896-2.38-2.084-2.573-.729-.12-1.476.085-2.034.561-.561.477-.882,1.171-.882,1.905v12.602l-1.796-1.429c-.487-.454-1.101-.692-1.79-.671-.666.022-1.284.303-1.739.79-.941,1.007-.89,2.593.113,3.532l7.012,6.676h13.2v-12.684l-10-2.218V2.607Zm9,9.512v10.881h-11.8l-6.726-6.403c-.604-.565-.635-1.517-.069-2.121.562-.603,1.512-.638,2.146-.046l3.449,2.745V2.5c0-.44.192-.857.529-1.144.341-.29.776-.407,1.227-.336.709.116,1.244.798,1.244,1.587v7.294l10,2.218Zm4-9.119v1h-8.664l2.332,2.332-.707.707-2.628-2.628c-.484-.484-.484-1.273,0-1.758L16.961.026l.707.707-2.267,2.267h8.599Z"/>
</svg>
