<?xml version="1.0" encoding="UTF-8"?>
<svg xmlns="http://www.w3.org/2000/svg" id="Layer_1" data-name="Layer 1" viewBox="0 0 24 24">
  <path d="m19.138,2.831c-1.105-1.105-2.904-1.105-4.012.003l-3.1,3.15-8.964-1.919c-.716-.166-1.464-.008-2.054.431S.052,5.611.003,6.353c-.078,1.201.798,2.322,2.053,2.611l5.157,1.036-5.171,1.04C.802,11.326-.075,12.447.003,13.648c.048.742.414,1.419,1.004,1.857s1.337.595,2.037.434l6.578-1.28,1.468,7.34h12.91V7.7l-4.862-4.87Zm3.862,18.169h-11.09l-1.502-7.512-7.571,1.474c-.43.101-.878.005-1.232-.258-.359-.267-.573-.665-.603-1.121-.047-.717.498-1.391,1.252-1.565l10.034-2.018L2.268,7.986c-.769-.177-1.313-.852-1.266-1.568.03-.456.244-.854.603-1.121.354-.263.8-.359,1.24-.257l14.128,3.025.209-.978-3.998-.856,2.651-2.695c.715-.716,1.879-.717,2.595,0l4.57,4.577v12.886Z"/>
</svg>
