<?xml version="1.0" encoding="UTF-8"?>
<svg xmlns="http://www.w3.org/2000/svg" id="Layer_1" data-name="Layer 1" viewBox="0 0 24 24" width="512" height="512"><path d="M1,2.5c0-.83,.67-1.5,1.5-1.5H11V7h6v4.64l1-1V6.29L11.71,0H2.5C1.12,0,0,1.12,0,2.5V22H9v-1H1V2.5Zm11-.79l4.29,4.29h-4.29V1.71Zm11.27,10.03c-.94-.94-2.59-.94-3.54,0l-8.73,8.73v3.54h3.54l8.73-8.73c.47-.47,.73-1.1,.73-1.77s-.26-1.3-.73-1.77Zm-.71,2.83l-8.44,8.44h-2.12v-2.12l8.44-8.44c.57-.57,1.55-.57,2.12,0,.28,.28,.44,.66,.44,1.06s-.16,.78-.44,1.06Zm-8.56-1.56c0-1.1-.9-2-2-2s-2,.9-2,2c0,.81,.58,2.03,1.42,3.03-.62,.56-1.42,.97-2.42,.97-.8,0-1.58-.39-2.28-.99,1.41-1.6,2.28-3.79,2.28-5.01,0-1.65-1.35-3-3-3s-3,1.35-3,3c0,1.22,.87,3.4,2.28,5.01-.7,.6-1.48,.99-2.28,.99v1c1.11,0,2.13-.51,3-1.27,.87,.76,1.89,1.27,3,1.27,3.3,0,5-3.5,5-5Zm-10-2c0-1.1,.9-2,2-2s2,.9,2,2-.81,2.93-2,4.29c-1.19-1.36-2-3.2-2-4.29Zm7,2c0-.55,.45-1,1-1s1,.45,1,1c0,.45-.29,1.41-.91,2.27-.68-.85-1.09-1.8-1.09-2.27Z"/></svg>
