<?xml version="1.0" encoding="UTF-8"?>
<svg xmlns="http://www.w3.org/2000/svg" id="Layer_1" data-name="Layer 1" viewBox="0 0 24 24" width="512" height="512"><path d="m23.623,10.544l-4.721-8.163c-.492-.852-1.405-1.381-2.383-1.381H7.48c-.978,0-1.891.529-2.383,1.381L.377,10.544c-.505.871-.502,1.952.007,2.821l4.841,8.268c.495.844,1.405,1.368,2.376,1.368h8.799c.971,0,1.881-.524,2.376-1.368l4.841-8.267c.509-.869.512-1.95.007-2.821Zm-.865.501c.083.144.145.298.185.455h-3.269l-3.501-6.02,1.624-2.921c.091.097.172.204.24.322l4.721,8.163Zm-11.583.455h-5.662l2.886-4.991,2.776,4.991Zm-1.915-5.5h5.481l-2.74,4.927-2.741-4.927Zm1.866,6.5l-2.716,4.883-2.86-4.883h5.576Zm.875.483l2.79,5.017h-5.58l2.79-5.017Zm.875-.483h5.585l-2.864,4.892-2.721-4.892Zm-.05-1l2.781-5,2.891,5h-5.672Zm3.694-9.5c.142,0,.281.018.417.052l-1.639,2.948h-6.593l-1.64-2.948c.135-.034.275-.052.417-.052h9.039Zm-10.557.882c.068-.118.149-.225.24-.322l1.63,2.931-3.474,6.009H1.057c.04-.158.102-.311.185-.455L5.963,2.882ZM1.247,12.86c-.067-.115-.12-.236-.16-.36h3.304l3.454,5.898-1.625,2.922c-.048-.061-.092-.126-.132-.194L1.247,12.86Zm6.354,9.14c-.193,0-.383-.033-.562-.095l1.616-2.905h6.692l1.616,2.905c-.179.062-.369.095-.563.095H7.601Zm10.312-.874c-.04.068-.084.133-.132.194l-1.621-2.914,3.458-5.907h3.295c-.04.124-.092.245-.16.36l-4.841,8.267Z"/></svg>
