<?xml version="1.0" encoding="UTF-8"?>
<svg xmlns="http://www.w3.org/2000/svg" id="Layer_1" data-name="Layer 1" width="512" height="512" viewBox="0 0 24 24"><path d="M7.723,12.291l.277,.185,.277-.185c.278-.186,2.723-1.863,2.723-3.541,0-.965-.785-1.75-1.75-1.75-.489,0-.932,.202-1.25,.526-.318-.325-.761-.526-1.25-.526-.965,0-1.75,.785-1.75,1.75,0,1.678,2.444,3.355,2.723,3.541Zm-.973-4.291c.413,0,.75,.336,.75,.75v.25h1v-.25c0-.414,.337-.75,.75-.75s.75,.336,.75,.75c0,.778-1.131,1.873-1.999,2.513-.72-.537-2.001-1.666-2.001-2.513,0-.414,.337-.75,.75-.75Zm10.5-1c-.489,0-.932,.202-1.25,.526-.318-.325-.761-.526-1.25-.526-.965,0-1.75,.785-1.75,1.75,0,1.678,2.444,3.355,2.723,3.541l.277,.185,.277-.185c.278-.186,2.723-1.863,2.723-3.541,0-.965-.785-1.75-1.75-1.75Zm-1.249,4.263c-.72-.537-2.001-1.666-2.001-2.513,0-.414,.337-.75,.75-.75s.75,.336,.75,.75v.25h1v-.25c0-.414,.337-.75,.75-.75s.75,.336,.75,.75c0,.778-1.131,1.873-1.999,2.513ZM12,0C5.383,0,0,5.383,0,12s5.383,12,12,12,12-5.383,12-12S18.617,0,12,0Zm0,23c-6.065,0-11-4.935-11-11S5.935,1,12,1s11,4.935,11,11-4.935,11-11,11Zm-.005-8c-2.558,0-5.335-.754-5.362-.762l-.886-.243,.276,.875c.065,.209,1.666,5.129,5.966,5.129h.013c4.299,0,5.908-4.919,5.975-5.128l.278-.876-.887,.243c-.028,.008-2.81,.762-5.373,.762Zm.007,4h-.013c-2.565,0-4.027-2.273-4.65-3.563,1.076,.235,2.892,.563,4.656,.563s3.589-.329,4.667-.564c-.623,1.29-2.086,3.564-4.66,3.564Z"/></svg>
