<?xml version="1.0" encoding="UTF-8"?>
<svg xmlns="http://www.w3.org/2000/svg" id="Layer_1" data-name="Layer 1" viewBox="0 0 24 24">
  <path d="m6.918,6.811l-5.848,1.342.498-4.223c.074-.628.538-1.145,1.154-1.286l6.999-1.606c.111-.025.223-.038.334-.038.314,0,.62.099.874.28l.098-1.083c-.474-.2-1.008-.254-1.53-.134L2.499,1.669c-1.027.235-1.8,1.097-1.924,2.144L.072,8.075c-.141,1.198-.076,2.402.194,3.579l.842,3.673,1.95-.448.447,1.949,2.924-.671-.447-1.95.743-.171s.002-.007.003-.01l.396-1.108-5.265,1.208-.619-2.698c-.169-.737-.249-1.485-.24-2.235l2.665-.611.336,1.462c.053.231.259.388.487.388.037,0,.075-.004.112-.013.269-.062.438-.33.375-.599l-.336-1.462,3.11-.714-.832-.835Zm-2.662,8.819l-.224-.974.975-.224.224.974-.975.224Zm17.688-4.971c-.354-.993-1.3-1.659-2.354-1.659h-7.181c-1.054,0-2,.667-2.354,1.659l-1.443,4.042c-.406,1.137-.612,2.325-.612,3.531v3.768h2v2h3v-2h6v2h3v-2h2v-3.768c0-1.206-.206-2.395-.612-3.531l-1.443-4.042Zm-10.948.336c.213-.595.781-.995,1.413-.995h7.181c.632,0,1.2.4,1.413.995l1.43,4.005h-12.867l1.43-4.005Zm1.003,12.005h-1v-1h1v1Zm9,0h-1v-1h1v1Zm2-2h-14v-2.768c0-.756.095-1.503.272-2.232h2.728v1.5c0,.276.224.5.5.5s.5-.224.5-.5v-1.5h6v1.5c0,.276.224.5.5.5s.5-.224.5-.5v-1.5h2.728c.177.73.272,1.477.272,2.232v2.768ZM10.401,7.475l-2.411-2.422,4.643-.422L13.055-.015l2.945,2.945L18.945-.015l.422,4.646,4.643.422-2.412,2.421c-.329-.164-.68-.289-1.044-.369l1.245-1.25-3.352-.305-.305-3.349-2.142,2.143-2.142-2.143-.305,3.349-3.352.305,1.244,1.25c-.364.08-.715.205-1.044.369Z"/>
</svg>
