<?xml version="1.0" encoding="UTF-8"?>
<svg xmlns="http://www.w3.org/2000/svg" id="Layer_1" data-name="Layer 1" viewBox="0 0 24 24">
  <path d="m10,12c0-1.103-.897-2-2-2s-2,.897-2,2,.897,2,2,2,2-.897,2-2Zm-3,0c0-.551.449-1,1-1s1,.449,1,1-.449,1-1,1-1-.449-1-1Zm11,0c0-1.103-.897-2-2-2s-2,.897-2,2,.897,2,2,2,2-.897,2-2Zm-3,0c0-.551.449-1,1-1s1,.449,1,1-.449,1-1,1-1-.449-1-1ZM22.5,0h-7c-.827,0-1.5.673-1.5,1.5v6.5h2.772l1.5,1.241c.195.174.441.26.685.26.239,0,.477-.083.662-.249l1.513-1.253h2.868V1.5c0-.827-.673-1.5-1.5-1.5Zm.5,7h-2.228l-1.849,1.482-1.791-1.482h-2.132V1.5c0-.276.224-.5.5-.5h7c.276,0,.5.224.5.5v5.5Zm-13,11v-1c0-.551-.449-1-1-1h-2c-.551,0-1,.449-1,1v1h-1v-1c0-1.103.897-2,2-2h2c1.103,0,2,.897,2,2v1h-1Zm4,0h-1v-1c0-1.103.897-2,2-2h2c1.103,0,2,.897,2,2v1h-1v-1c0-.551-.449-1-1-1h-2c-.551,0-1,.449-1,1v1Zm8-8.193l-1,.892v8.301h-5.707l-1,1h-4.586l-1-1H3V7h9v-1H2v13H0v2.5c0,1.378,1.122,2.5,2.5,2.5h19c1.378,0,2.5-1.122,2.5-2.5v-2.5h-2v-9.193Zm1,11.693c0,.827-.673,1.5-1.5,1.5H2.5c-.827,0-1.5-.673-1.5-1.5v-1.5h7.293l1,1h5.414l1-1h7.293v1.5Z"/>
</svg>
