<?xml version="1.0" encoding="UTF-8"?>
<svg xmlns="http://www.w3.org/2000/svg" id="Layer_1" data-name="Layer 1" viewBox="0 0 24 24">
  <path d="m20.5,8.977c-3.031,0-5.308,2.382-6.103,3.343-.556-.206-1.191-.343-1.897-.343-1.849,0-3.602.98-4.816,1.873.476-1.868.414-3.834.361-5.497-.031-.948-.058-1.791.034-2.353h2.729l1-2h1.182l.02-1c0-1.454-1.227-3-3.5-3-1.67,0-2.99,1.147-3.02,1.175C-.1,6.244-.026,14.225.006,17.633l.004.786c.155.223,3.785,5.453,11.5,5.581,7.398.123,12.295-3.222,12.49-3.353v-10.848s-1.205-.823-3.5-.823Zm2.5,11.125c-.998.593-5.288,2.898-11.49,2.898-6.364,0-9.906-4.147-10.501-4.907l-.003-.469c-.033-3.535-.102-10.891,6.119-15.677.011-.01,1.1-.947,2.385-.947,1.821,0,2.5,1.227,2.5,1.99l-.818.01h-1.191v-1h-1v2h1.691l-.5,1h-2.856l-.118.333c-.247.699-.214,1.737-.172,3.052.067,2.088.043,4.785-1.012,6.892l.729.686c.028-.03,2.844-2.985,5.738-2.985,2.326,0,3.776,1.877,3.791,1.896l.8-.601c-.042-.056-.669-.858-1.761-1.499.82-.932,2.761-2.795,5.17-2.795,1.521,0,2.229.405,2.5.511v9.614Z"/>
</svg>
