<?xml version="1.0" encoding="UTF-8"?>
<svg xmlns="http://www.w3.org/2000/svg" id="Layer_1" data-name="Layer 1" viewBox="0 0 24 24" width="512" height="512"><path d="m13.5,14H4.5c-2.481,0-4.5,2.019-4.5,4.5v5.5h1v-5.5c0-1.93,1.57-3.5,3.5-3.5h.5v3.058c-.872.215-1.521,1.004-1.521,1.942,0,1.103.897,2,2,2s2-.897,2-2c0-.922-.628-1.7-1.479-1.931v-3.069h6v3.55c-1.14.232-2,1.242-2,2.45v3h1v-3c0-.827.673-1.5,1.5-1.5s1.5.673,1.5,1.5v3h1v-3c0-1.208-.86-2.218-2-2.45v-3.55h.5c1.93,0,3.5,1.57,3.5,3.5v5.5h1v-5.5c0-2.481-2.019-4.5-4.5-4.5Zm-7.021,6c0,.552-.448,1-1,1s-1-.448-1-1,.448-1,1-1,1,.448,1,1ZM3.021,6C3.021,2.691,5.713,0,9.021,0c1.507,0,2.882.562,3.936,1.483-.175.299-.329.612-.459.937-.901-.875-2.125-1.42-3.478-1.42-2.757,0-5,2.243-5,5s2.243,5,5,5c1.12,0,2.144-.383,2.979-1.008v1.209c-.879.505-1.894.799-2.979.799-3.309,0-6-2.691-6-6ZM19,0c-2.757,0-5,2.243-5,5v5h5c2.757,0,5-2.243,5-5S21.757,0,19,0Zm0,9h-4v-4c0-2.206,1.794-4,4-4s4,1.794,4,4-1.794,4-4,4Z"/></svg>
