<?xml version="1.0" encoding="UTF-8"?>
<svg xmlns="http://www.w3.org/2000/svg" id="Layer_1" data-name="Layer 1" viewBox="0 0 24 24">
  <path d="m18.909,14.683l-9.867-3.588c-.555-.203-1.174-.066-1.593.354-.42.42-.555,1.029-.352,1.588l3.588,9.869,3.758-3.758,4.818,4.821.707-.707-4.818-4.821,3.758-3.758Zm-10.872-1.988c-.072-.199-.029-.391.12-.54.1-.1.227-.155.356-.155.062,0,.125.012.188.034l8.391,3.052-6.002,6.002-3.052-8.394ZM5.15,3h1v5h-1V3Zm6.731,0v.092c.157-.056.324-.092.5-.092.828,0,1.5.672,1.5,1.5v3.5h-1v-3.5c0-.276-.224-.5-.5-.5s-.5.224-.5.5v3.5h-1V3h1Zm-3.731,1.5v2c0,.276.224.5.5.5s.5-.224.5-.5v-.5h-.5v-1h1.5v1.5c0,.828-.672,1.5-1.5,1.5s-1.5-.672-1.5-1.5v-2c0-.828.672-1.5,1.5-1.5.652,0,1.202.419,1.408,1h-1.408c-.276,0-.5.224-.5.5Zm13.35-1.5h-1.5v5h1v-2h.5c.828,0,1.5-.672,1.5-1.5s-.672-1.5-1.5-1.5Zm0,2h-.5v-1h.5c.276,0,.5.224.5.5s-.224.5-.5.5Zm-4.5-2v3.5c0,.276.224.5.5.5s.5-.224.5-.5v-3.5h1v3.5c0,.828-.672,1.5-1.5,1.5s-1.5-.672-1.5-1.5v-3.5h1ZM21.5.003H2.5C1.122.003,0,1.125,0,2.503v8.5h5v-.003h.355c.169-.349.391-.678.679-.965.013-.013.027-.022.04-.035h-2.074v.003H1v-2.659c.432.419,1.032.656,1.667.656.846,0,1.558-.541,1.691-1.286.1-.562-.154-1.295-1.167-1.669-.545-.202-1.042-.42-1.055-.42-.118-.08-.114-.202-.108-.25.01-.066.057-.226.3-.299.545-.162,1.048.231,1.069.248l.618-.728c-.037-.032-.894-.841-1.986-.512-.556.168-.949.606-1.027,1.144-.001.008-.002.017-.003.025v-1.75c0-.827.673-1.5,1.5-1.5h19c.827,0,1.5.673,1.5,1.5v7.5h-6v-.003h-5.117l2.75,1h1.367v.003h8V2.503C24,1.125,22.878.003,21.5.003ZM1.647,5.537s.562.251,1.185.481c.132.049.557.229.506.515-.038.212-.299.432-.671.432-.388,0-.761-.156-.998-.418l-.669.607v-2.579c.048.376.265.719.647.963Z"/>
</svg>
