<?xml version="1.0" encoding="UTF-8"?>
<svg xmlns="http://www.w3.org/2000/svg" id="Layer_1" data-name="Layer 1" viewBox="0 0 24 24" width="512" height="512"><path d="M12,0C5.383,0,0,5.383,0,12s5.383,12,12,12h12V12C24,5.383,18.617,0,12,0Zm11,23H12c-6.065,0-11-4.935-11-11S5.935,1,12,1s11,4.935,11,11v11Zm-6.354-10.184l.707,.707-3.889,3.889c-.394,.394-.91,.591-1.423,.591-.503,0-1.004-.19-1.385-.57l-3.91-3.91,.707-.707,3.91,3.91c.042,.042,.088,.079,.136,.112V6h1v10.891c.093-.047,.181-.109,.258-.186l3.889-3.889Z"/></svg>
