<?xml version="1.0" encoding="UTF-8"?>
<svg xmlns="http://www.w3.org/2000/svg" id="Layer_1" data-name="Layer 1" viewBox="0 0 24 24" width="512" height="512"><path d="m5,6c0-.552.448-1,1-1s1,.448,1,1-.448,1-1,1-1-.448-1-1Zm19-3.5v17.5h-7.032l-3.985,3.295c-.275.245-.626.368-.979.368-.356,0-.715-.126-1.001-.38l-3.897-3.283H0V2.5C0,1.121,1.122,0,2.5,0h19c1.379,0,2.5,1.121,2.5,2.5ZM1,2.5v15.793l10-10,4,4,8-8v-1.793c0-.827-.673-1.5-1.5-1.5H2.5c-.827,0-1.5.673-1.5,1.5Zm22,16.5V5.707l-8,8-4-4L1.707,19h5.764l4.187,3.526c.199.178.484.18.675.009l4.276-3.535h6.392Z"/></svg>
