<?xml version="1.0" encoding="UTF-8"?>
<svg xmlns="http://www.w3.org/2000/svg" id="Layer_1" data-name="Layer 1" viewBox="0 0 24 24" width="512" height="512"><path d="M12,19c0,.552-.448,1-1,1s-1-.448-1-1,.448-1,1-1,1,.448,1,1Zm1-5c-.552,0-1,.448-1,1s.448,1,1,1,1-.448,1-1-.448-1-1-1Zm5,0c-.552,0-1,.448-1,1s.448,1,1,1,1-.448,1-1-.448-1-1-1Zm-2,4c-.552,0-1,.448-1,1s.448,1,1,1,1-.448,1-1-.448-1-1-1Zm7-12.5V24H7.712L.786,17.322c-1-.938-1.052-2.524-.111-3.53,.94-1.007,2.522-1.059,3.529-.119l1.796,1.428V4.5c0-.734,.321-1.429,.881-1.905s1.305-.677,2.035-.562c.403,.066,.772,.236,1.084,.483v-.016c0-1.378,1.121-2.5,2.5-2.5,1.073,0,1.989,.679,2.344,1.63,.441-.391,1.021-.63,1.656-.63,1.379,0,2.5,1.122,2.5,2.5v.016c.312-.246,.681-.417,1.084-.482,.73-.117,1.476,.085,2.035,.562s.881,1.17,.881,1.905Zm-1,0c0-.44-.192-.857-.528-1.143-.341-.291-.776-.411-1.228-.336-.709,.115-1.244,.797-1.244,1.586v5.393h-1V3.5c0-.827-.673-1.5-1.5-1.5s-1.5,.673-1.5,1.5v7.5h-1V2.5c0-.827-.673-1.5-1.5-1.5s-1.5,.673-1.5,1.5V11h-1V4.607c0-.789-.535-1.471-1.244-1.586-.45-.074-.887,.045-1.228,.336-.336,.286-.528,.703-.528,1.143v12.675l-3.449-2.746c-.631-.589-1.582-.558-2.146,.045-.565,.604-.534,1.557,.069,2.123l6.642,6.402h13.884V5.5Z"/></svg>
