<?xml version="1.0" encoding="UTF-8"?>
<svg xmlns="http://www.w3.org/2000/svg" id="Layer_1" data-name="Layer 1" viewBox="0 0 24 24">
  <path d="m23.946,10.815l-.516-.857-13.407,8.056c-.845.01-4.423.09-5.541.704-1.36.748-1.858,2.463-1.11,3.823.362.659.96,1.138,1.683,1.347.26.076.525.113.789.113.468,0,.931-.118,1.353-.35,1.133-.623,2.867-3.854,3.348-4.782l13.402-8.053ZM6.714,22.775c-.425.233-.915.287-1.381.152s-.851-.443-1.084-.869c-.234-.424-.288-.915-.153-1.38.136-.465.444-.851.869-1.084.619-.34,2.739-.513,4.36-.564-.819,1.502-2,3.41-2.611,3.746Zm6.286-13.275c0-3.158-2.387-5.546-4.304-7.466-.53-.53-1.03-1.031-1.434-1.5l-.426-.496-.367.541c-.77,1.136-.996,2.395-1.178,3.407-.272,1.522-.433,2.014-1.292,2.014-.231,0-.636-.968-.76-2.057l-.12-1.051-.736.759c-1.125,1.162-2.384,3.909-2.384,5.848,0,3.584,2.916,6.5,6.5,6.5s6.5-2.916,6.5-6.5Zm-12,0c0-1.289.7-3.105,1.46-4.308.232.856.683,1.808,1.54,1.808,1.768,0,2.026-1.442,2.276-2.838.141-.782.296-1.648.695-2.459.315.335.659.68,1.017,1.038,1.881,1.882,4.012,4.015,4.012,6.759,0,3.033-2.468,5.5-5.5,5.5S1,12.533,1,9.5Zm7.989,2c0-.668-.26-1.296-.732-1.769l-1.767-1.769-1.769,1.769c-.473.472-.732,1.1-.732,1.768s.26,1.296.732,1.769c.473.472,1.101.732,1.768.732s1.296-.26,1.768-.732c.473-.472.732-1.1.732-1.768Zm-1.439,1.061c-.564.566-1.553.568-2.121,0-.283-.284-.439-.661-.439-1.062s.156-.777.439-1.061l1.062-1.061,1.06,1.061c.283.284.439.661.439,1.062s-.156.777-.439,1.061Z"/>
</svg>
