<?xml version="1.0" encoding="UTF-8"?>
<svg xmlns="http://www.w3.org/2000/svg" id="Layer_1" data-name="Layer 1" viewBox="0 0 24 24">
  <path d="m23.159,4.058l-.316-.61-4.019,4.068c-.644.645-1.694.645-2.339,0-.312-.312-.484-.728-.484-1.169s.172-.857.486-1.172l4.005-4.055-.611-.31c-1.062-.538-2.2-.811-3.38-.811-4.136,0-7.5,3.364-7.5,7.5,0,1.05.218,2.068.648,3.032L.838,19.343c-1.064,1.063-1.064,2.795,0,3.858.532.532,1.23.798,1.929.798s1.397-.266,1.929-.798l8.827-8.827c.949.416,1.949.626,2.977.626,4.136,0,7.5-3.364,7.5-7.5,0-1.207-.283-2.365-.841-3.442Zm-6.659,9.942c-.993,0-1.956-.228-2.862-.675l-.322-.159L3.989,22.494c-.674.674-1.771.673-2.444,0-.674-.674-.674-1.771,0-2.444l9.315-9.315-.163-.322c-.463-.92-.698-1.899-.698-2.912,0-3.584,2.916-6.5,6.5-6.5.79,0,1.557.142,2.29.42l-3.013,3.05c-.501.501-.777,1.167-.777,1.877s.276,1.375.777,1.876c1.035,1.034,2.719,1.034,3.755-.002l3.028-3.064c.292.747.44,1.533.44,2.344,0,3.584-2.916,6.5-6.5,6.5Z"/>
</svg>
