<?xml version="1.0" encoding="UTF-8"?>
<svg xmlns="http://www.w3.org/2000/svg" id="Layer_1" data-name="Layer 1" viewBox="0 0 24 24" width="512" height="512"><path d="M12,6c-2.206,0-4,1.794-4,4s1.794,4,4,4c1.201,0,2.266-.542,3-1.382v.882c0,1.93-1.57,3.5-3.5,3.5h-2.5v1h2.5c2.481,0,4.5-2.019,4.5-4.5v-3.5c0-2.206-1.794-4-4-4Zm0,7c-1.654,0-3-1.346-3-3s1.346-3,3-3,3,1.346,3,3-1.346,3-3,3ZM12,0C5.383,0,0,5.383,0,12s5.383,12,12,12,12-5.383,12-12S18.617,0,12,0Zm0,23c-6.065,0-11-4.935-11-11S5.935,1,12,1s11,4.935,11,11-4.935,11-11,11Z"/></svg>
