<?xml version="1.0" encoding="UTF-8"?>
<svg xmlns="http://www.w3.org/2000/svg" id="Layer_1" data-name="Layer 1" viewBox="0 0 24 24">
  <path d="m4.5,5c1.379,0,2.5-1.122,2.5-2.5S5.879,0,4.5,0s-2.5,1.122-2.5,2.5,1.121,2.5,2.5,2.5Zm0-4c.827,0,1.5.673,1.5,1.5s-.673,1.5-1.5,1.5-1.5-.673-1.5-1.5.673-1.5,1.5-1.5Zm4.771,8h6.729v1h-6.729l2.178,2.178-.707.707-2.288-2.288c-.604-.605-.604-1.588,0-2.193l2.288-2.288.707.707-2.178,2.178Zm6.274,4.403c.604.605.604,1.588,0,2.193l-2.288,2.288-.707-.707,2.178-2.178h-6.729v-1h6.729l-2.178-2.178.707-.707,2.288,2.288Zm3.954-8.403c1.379,0,2.5-1.122,2.5-2.5s-1.121-2.5-2.5-2.5-2.5,1.122-2.5,2.5,1.121,2.5,2.5,2.5Zm0-4c.827,0,1.5.673,1.5,1.5s-.673,1.5-1.5,1.5-1.5-.673-1.5-1.5.673-1.5,1.5-1.5Zm4.5,16h-2v7h-1v-7h-3v7h-1v-7h-.031c.295-.298.516-.64.684-1h5.347v-7.5c0-.827-.673-1.5-1.5-1.5h-5.987c.457-.603,1.174-1,1.987-1h4c1.379,0,2.5,1.122,2.5,2.5v8.5ZM6.5,6c.439,0,.846.124,1.205.323,0,0-.714.729-.741.758-.147-.048-.301-.081-.465-.081H2.5c-.827,0-1.5.673-1.5,1.5v7.5h6v8h-1v-7h-3v7h-1v-7H0v-8.5c0-1.378,1.121-2.5,2.5-2.5h4Z"/>
</svg>
