<?xml version="1.0" encoding="UTF-8"?>
<svg xmlns="http://www.w3.org/2000/svg" id="Layer_1" data-name="Layer 1" width="512" height="512" viewBox="0 0 24 24"><path d="M24,7.827l-7.005,2.115c-.524,.149-1.089,.003-1.418-.315l-.638-.895c-.473-.473-1.1-.732-1.768-.732h-3.172V4h3v-1H6v1h3v4H4.584l-2.413-.841c-.469-.233-1.015-.209-1.46,.066s-.711,.752-.711,1.275v3.146c0,.953,.529,1.811,1.433,2.259l2.567,.943v5.15H15.238l8.762-10.823v-1.35ZM1.829,12.989c-.512-.256-.829-.77-.829-1.342v-3.146c0-.251,.166-.381,.237-.425,.071-.045,.261-.134,.545,.002l2.218,.776v4.93l-2.171-.795Zm12.933,6.011H5V9H13.172c.395,0,.781,.16,1.005,.373l.638,.895c.642,.642,1.578,.885,2.462,.634l5.349-1.615-7.863,9.714Zm8.526-2.245l-1.788-2.021-1.768,1.999c-.975,.975-.975,2.561,0,3.535,.473,.473,1.1,.732,1.768,.732s1.295-.26,1.768-.732c.975-.975,.975-2.561,.021-3.513Zm-.728,2.806c-.566,.566-1.555,.566-2.121,0-.585-.585-.585-1.536,.021-2.144l1.04-1.175,1.061,1.197c.585,.585,.585,1.536,0,2.121Z"/></svg>
