<?xml version="1.0" encoding="UTF-8"?>
<svg xmlns="http://www.w3.org/2000/svg" id="Layer_1" data-name="Layer 1" viewBox="0 0 24 24">
  <path d="m20.5,0H4.5c-1.378,0-2.5,1.121-2.5,2.5v19c0,1.379,1.122,2.5,2.5,2.5h17.5V1.5c0-.827-.673-1.5-1.5-1.5ZM4.5,1h16c.276,0,.5.225.5.5v17.5H4.5c-.565,0-1.081.195-1.5.513V2.5c0-.827.673-1.5,1.5-1.5Zm0,22c-.827,0-1.5-.673-1.5-1.5s.673-1.5,1.5-1.5h16.5v3H4.5Zm3.5-13.05v5.05h8v-5.05c1.14-.232,2-1.243,2-2.45,0-1.379-1.122-2.5-2.5-2.5-.618,0-1.21.232-1.664.639-1.048-.82-2.624-.82-3.672,0-.454-.406-1.046-.639-1.664-.639-1.378,0-2.5,1.121-2.5,2.5,0,1.207.86,2.218,2,2.45Zm.5-3.95c.485,0,.943.239,1.225.64l.365.517.418-.474c.778-.881,2.205-.881,2.983,0l.418.474.365-.517c.282-.4.74-.64,1.225-.64.827,0,1.5.673,1.5,1.5s-.673,1.5-1.5,1.5h-.5v5h-6v-5h-.5c-.827,0-1.5-.673-1.5-1.5s.673-1.5,1.5-1.5Z"/>
</svg>
