<?xml version="1.0" encoding="UTF-8"?>
<svg xmlns="http://www.w3.org/2000/svg" id="Layer_1" data-name="Layer 1" viewBox="0 0 24 24" width="512" height="512"><path d="M18,11V4h-5c0-2.206-1.794-4-4-4S5,1.794,5,4H0V15.5c0,1.379,1.122,2.5,2.5,2.5H7v3.5c0,1.379,1.122,2.5,2.5,2.5h12c1.378,0,2.5-1.121,2.5-2.5V11h-6ZM9,1c1.654,0,3,1.346,3,3H6c0-1.654,1.346-3,3-3Zm-2,10v6H2.5c-.827,0-1.5-.673-1.5-1.5V5H5v3h1v-3h6v3h1v-3h4v6H7Zm16,10.5c0,.827-.673,1.5-1.5,1.5H9.5c-.827,0-1.5-.673-1.5-1.5V12h15v9.5Zm-11-5v-2.5h1v2.5c0,1.379,1.122,2.5,2.5,2.5s2.5-1.121,2.5-2.5v-2.5h1v2.5c0,1.93-1.57,3.5-3.5,3.5s-3.5-1.57-3.5-3.5Z"/></svg>
