<?xml version="1.0" encoding="UTF-8"?>
<svg xmlns="http://www.w3.org/2000/svg" id="Layer_1" data-name="Layer 1" viewBox="0 0 24 24">
  <path d="m19,8c0,.828-.448,1.5-1,1.5s-1-.672-1-1.5.448-1.5,1-1.5,1,.672,1,1.5Zm-8.5,15c-1.378,0-2.5-1.122-2.5-2.5v-4.5h4.464l-1-1h-6.964c-1.897,0-3.5-3.206-3.5-7,0-1.082.134-2.136.375-3.089l-.811-.811c-.363,1.172-.564,2.503-.564,3.9,0,4.486,1.977,8,4.5,8h2.5v4.5c0,1.93,1.57,3.5,3.5,3.5h9.964l-1-1h-8.964Zm13.489.282l-.707.707L-.019.688.688-.019l1.321,1.321c.73-.854,1.583-1.302,2.491-1.302h13.5c2.073,0,3.761,3.003,4,7v14c0,.108.009.215.025.318l1.963,1.963Zm-7.954-8.282c-1.224-1.353-2.035-3.952-2.035-7s.811-5.647,2.035-7H4.5c-.753,0-1.359.502-1.781,1.012l12.988,12.988h.328Zm4.965-1.656c-.727,1.638-1.793,2.656-3,2.656h-1.293l4.293,4.293v-6.949Zm0-5.344c0-4.125-1.581-7-3-7s-3,2.875-3,7,1.581,7,3,7,3-2.875,3-7Z"/>
</svg>
