<?xml version="1.0" encoding="UTF-8"?>
<svg xmlns="http://www.w3.org/2000/svg" id="Layer_1" data-name="Layer 1" viewBox="0 0 24 24">
  <path d="m21.973,21l-4.667-7h2.667l-4-6h2.207L13.361.554c-.704-.713-1.94-.713-2.645,0l-4.849,7.446h2.237l-4,6h2.667l-4.667,7h9.396v3h1v-3h9.473Zm-13.333-8h-2.667l4-6h-2.264l3.751-5.774c.316-.289.838-.289,1.157,0l3.727,5.775h-2.239l4,6h-2.667l4.667,7H3.973l4.667-7Zm2.361,2c0,.552-.448,1-1,1s-1-.448-1-1,.448-1,1-1,1,.448,1,1Zm4,2c0,.552-.448,1-1,1s-1-.448-1-1,.448-1,1-1,1,.448,1,1Zm-2-5c-.552,0-1-.448-1-1s.448-1,1-1,1,.448,1,1-.448,1-1,1Zm-1-4c-.552,0-1-.448-1-1s.448-1,1-1,1,.448,1,1-.448,1-1,1Z"/>
</svg>
