<?xml version="1.0" encoding="UTF-8"?>
<svg xmlns="http://www.w3.org/2000/svg" id="Layer_1" data-name="Layer 1" viewBox="0 0 24 24" width="512" height="512"><path d="m23.162,6.354c-.902.831-2.346,1.942-4.162,2.6v-4.953h-1v5h-2V2h-.5c-1.079,0-3.21.268-5.555.824C7.348,1.062,4.423.133,1.113.02L.015-.018l.829,1.018c.827,1.01,1.954,2.389,2.186,4.422-1.792,1.084-3.029,2.438-3.029,4.078,0,1.582,1.152,2.898,2.842,3.962L.021,23.013l-.021.987h5.846l2.212-8.325c3.033.897,6.078,1.325,7.442,1.325h.5v-7h2v5h1v-4.964c1.83.653,3.266,1.764,4.159,2.596l.841.782v-7.832l-.838.771ZM2.192,1.087c2.395.216,4.369.873,6.336,2.102-1.58.443-3.181,1.012-4.562,1.714-.28-1.641-1.061-2.882-1.774-3.817Zm2.885,21.913H1.067l2.666-9.024c1.025.542,2.182,1.008,3.37,1.401l-2.026,7.623Zm9.923-7.013c-4.104-.202-14-2.705-14-6.487S10.896,3.215,15,3.013v12.975Zm8-4.813c-.723-.577-1.63-1.188-2.692-1.682,1.058-.496,1.966-1.108,2.692-1.686v3.367Z"/></svg>
