<?xml version="1.0" encoding="UTF-8"?>
<svg xmlns="http://www.w3.org/2000/svg" id="Layer_1" data-name="Layer 1" viewBox="0 0 24 24" width="512" height="512"><path d="m16.911,3.436c-1.031-.725-2.472-.54-3.368.355l-1.543,1.543-1.543-1.543c-.896-.896-2.345-1.092-3.368-.355C2.923,6.436,0,11.903,0,11.903v.262s4.475,7.835,12,7.835,12-7.846,12-7.846v-.259s-2.897-5.51-7.089-8.459Zm-9.275.837c.66-.432,1.55-.338,2.114.226l2.25,2.25,2.25-2.25c.564-.563,1.453-.657,2.114-.226,1.654,1.08,4.143,3.662,6.204,7.129-1.589-.38-6.266-1.401-10.568-1.401-4.326,0-8.974,1.006-10.563,1.383,2.122-3.485,4.647-6.097,6.199-7.111Zm13.152,7.757c-2.138.435-5.592,1.016-8.788,1.016s-6.665-.586-8.802-1.022c2.138-.437,5.601-1.023,8.802-1.023s6.656.587,8.788,1.029Zm-8.788,6.971c-5.436,0-9.125-4.39-10.484-6.319,1.659.39,6.228,1.365,10.484,1.365s8.832-.973,10.488-1.361c-1.355,1.924-5.046,6.316-10.488,6.316Z"/></svg>
