<?xml version="1.0" encoding="UTF-8"?>
<svg xmlns="http://www.w3.org/2000/svg" id="Layer_1" data-name="Layer 1" viewBox="0 0 24 24">
  <path d="m8,4c1.103,0,2-.897,2-2s-.897-2-2-2-2,.897-2,2,.897,2,2,2Zm0-3c.551,0,1,.449,1,1s-.449,1-1,1-1-.449-1-1,.449-1,1-1Zm4,6c1.103,0,2-.897,2-2s-.897-2-2-2-2,.897-2,2,.897,2,2,2Zm0-3c.551,0,1,.449,1,1s-.449,1-1,1-1-.449-1-1,.449-1,1-1Zm4,0c1.103,0,2-.897,2-2s-.897-2-2-2-2,.897-2,2,.897,2,2,2Zm0-3c.551,0,1,.449,1,1s-.449,1-1,1-1-.449-1-1,.449-1,1-1Zm8,5.5v13.231c0,.618-.229,1.214-.645,1.676l-2.307,2.593h-1.343l2.908-3.263c.25-.277.387-.635.387-1.006V6.5c0-.827-.673-1.5-1.5-1.5s-1.5.673-1.5,1.5v9h-.007c0,.57-.19,1.14-.577,1.601l-3.098,3.206-.719-.695,3.074-3.179c.225-.269.335-.614.327-.96v-.005c-.009-.346-.135-.694-.382-.969-.55-.613-1.497-.666-2.113-.116l-3.858,3.55c.221.379.353.808.353,1.254v4.814h-1v-4.814c0-.418-.177-.821-.484-1.104l-4.026-3.705c-.609-.546-1.558-.494-2.108.12-.494.551-.507,1.394-.032,1.96l3.051,3.153-.719.695-3.074-3.179c-.399-.474-.594-1.053-.598-1.627h-.01V6.5c0-.827-.673-1.5-1.5-1.5s-1.5.673-1.5,1.5v13.231c0,.371.137.729.387,1.006l2.908,3.263h-1.343l-2.307-2.593c-.416-.462-.645-1.058-.645-1.676V6.5c0-1.378,1.122-2.5,2.5-2.5,1,0,1.858.594,2.258,1.444.342-.274.77-.444,1.242-.444h2c0,.348.057.68.143,1h-2.143c-.552,0-1,.448-1,1v6.5c.933-.699,2.261-.669,3.162.137l3.838,3.532,3.833-3.528c.905-.811,2.234-.841,3.167-.142v-6.499c0-.552-.448-1-1-1h-2.143c.086-.32.143-.652.143-1h2c.472,0,.9.17,1.242.444.4-.85,1.258-1.444,2.258-1.444,1.378,0,2.5,1.122,2.5,2.5Zm-9,5.289v-1.789c0-.552-.448-1-1-1h-4c-.552,0-1,.448-1,1v1.786c-.318-.215-.649-.398-1-.522v-1.264c0-1.105.895-2,2-2h4c1.105,0,2,.895,2,2v1.269c-.35.124-.681.307-1,.52Z"/>
</svg>
