<?xml version="1.0" encoding="UTF-8"?>
<svg xmlns="http://www.w3.org/2000/svg" id="Layer_1" data-name="Layer 1" viewBox="0 0 24 24" width="512" height="512"><path d="m19,13.5c0-.691.973-1.874,1.914-3.017,1.446-1.759,3.087-3.753,3.087-5.802,0-.714,0-2.61-2.591-2.61-1.176,0-2.289.481-3.365.946-1.118.483-2.274.983-3.545.983-1.168,0-2.281-1.03-3.358-2.027-1.097-1.015-2.132-1.973-3.349-1.973-.273-.004-.649,0-1.005.13-.904.333-1.218,1.214-1.422,2.118-.185.825-.366,2.973-.366,3.752,0,1.001-1.1,1.626-2.264,2.288C1.454,9.016,0,9.841,0,11.389,0,12.739,1.145,13.374,2.154,13.933c1.158.643,1.86,1.102,1.846,2.06-.007.44-.654,1.838-1.119,2.678-.365.66-.599,1.233-.731,1.804-.159.676-.09,1.65.625,2.173.682.498,1.562.268,2.034.143.736-.195,1.581-.7,2.476-1.234,1.219-.729,2.601-1.556,3.716-1.556.989,0,3.624,1.617,4.672,2.462.712.574,2.133,1.538,3.647,1.538,1.646,0,2.591-.944,2.591-2.591,0-1.745-.804-3.104-1.581-4.419-.684-1.156-1.329-2.249-1.329-3.49Zm.319,9.5c-1.253,0-2.528-.92-3.019-1.316-.734-.592-3.8-2.684-5.301-2.684-1.392,0-2.899.902-4.229,1.697-.832.498-1.617.967-2.218,1.126-.429.113-.913.219-1.188.017-.285-.208-.337-.729-.242-1.137.112-.479.313-.97.634-1.548.05-.091,1.23-2.234,1.244-3.147.025-1.625-1.298-2.359-2.36-2.949-1.016-.563-1.639-.945-1.639-1.67,0-.965,1.083-1.581,2.229-2.231,1.299-.738,2.771-1.574,2.771-3.157,0-.775.187-2.841.342-3.532.164-.726.361-1.241.792-1.399.187-.068.383-.067.69-.068.794,0,1.689.829,2.639,1.707,1.161,1.075,2.478,2.293,4.037,2.293,1.478,0,2.73-.542,3.942-1.065,1.027-.444,1.999-.864,2.968-.864,1.591,0,1.591.819,1.591,1.61,0,1.69-1.52,3.537-2.859,5.166-1.149,1.397-2.142,2.603-2.142,3.652,0,1.515.746,2.778,1.469,3.999.741,1.254,1.441,2.439,1.441,3.911,0,.741-.181,1.591-1.591,1.591Zm-11.319-14c0-.551.448-1,1-1s1,.449,1,1-.448,1-1,1-1-.449-1-1Zm7,2c-.552,0-1-.449-1-1s.448-1,1-1,1,.449,1,1-.448,1-1,1Zm-5,5c-.552,0-1-.449-1-1s.448-1,1-1,1,.449,1,1-.448,1-1,1Z"/></svg>
