<?xml version="1.0" encoding="UTF-8"?>
<svg xmlns="http://www.w3.org/2000/svg" id="Layer_1" data-name="Layer 1" viewBox="0 0 24 24">
  <path d="m19,4.257V0H5v4.257c-1.746.619-3,2.287-3,4.243v13c0,1.378,1.121,2.5,2.5,2.5h15c1.379,0,2.5-1.122,2.5-2.5v-13c0-1.956-1.254-3.624-3-4.243ZM6,1h12v3.028c-.164-.018-.331-.028-.5-.028H6.5c-.169,0-.336.01-.5.028V1Zm-3,10h12v7H3v-7Zm18,10.5c0,.827-.673,1.5-1.5,1.5H4.5c-.827,0-1.5-.673-1.5-1.5v-2.5h13v-9H3v-1.5c0-1.93,1.57-3.5,3.5-3.5h11c1.93,0,3.5,1.57,3.5,3.5v13Z"/>
</svg>
