<?xml version="1.0" encoding="UTF-8"?>
<svg xmlns="http://www.w3.org/2000/svg" id="Layer_1" data-name="Layer 1" viewBox="0 0 24 24">
  <path d="m11.104,7.604l-1.396,1.396,1.396,1.396-.707.707-1.396-1.396-1.396,1.396-.707-.707,1.396-1.396-1.396-1.396.707-.707,1.396,1.396,1.396-1.396.707.707Zm5.293-.668l-1.396,1.396-1.396-1.396-.707.707,1.396,1.396-1.396,1.396.707.707,1.396-1.396,1.396,1.396.707-.707-1.396-1.396,1.396-1.396-.707-.707Zm1.104,10.065H6.5c-1.93,0-3.5,1.57-3.5,3.5v3.5h1v-3.5c0-1.378,1.121-2.5,2.5-2.5h11c1.379,0,2.5,1.122,2.5,2.5v3.5h1v-3.5c0-1.93-1.57-3.5-3.5-3.5Zm4.5-11v6h-2v3H4v-3h-2v-6h2v-1.5c0-1.378,1.121-2.5,2.5-2.5h5V0h1v2h5c1.379,0,2.5,1.122,2.5,2.5v1.5h2ZM4,11v-4h-1v4h1Zm15-6.5c0-.827-.673-1.5-1.5-1.5H6.5c-.827,0-1.5.673-1.5,1.5v9.5h14V4.5Zm2,2.5h-1v4h1v-4Z"/>
</svg>
