<?xml version="1.0" encoding="UTF-8"?>
<svg xmlns="http://www.w3.org/2000/svg" id="Layer_1" data-name="Layer 1" viewBox="0 0 24 24" width="512" height="512"><path d="M23.046,7.895c-1.214-1.18-3.182-1.16-4.401,.06-.019,.021-1.962,2.045-6.646,2.045s-6.623-2.021-6.65-2.05c-1.18-1.221-3.145-1.265-4.377-.099C.368,8.422,.022,9.194-.002,10.026c-.023,.832,.278,1.623,.849,2.227,.079,.083,.718,.746,1.918,1.52-.577,.411-1.045,.966-1.355,1.619-.993,2.09-.113,4.605,1.961,5.607,2.151,1.04,4.686,2.001,8.629,2.001s6.478-.962,8.629-2.001c2.074-1.001,2.954-3.517,1.961-5.607-.313-.658-.778-1.211-1.354-1.62,1.191-.769,1.837-1.434,1.917-1.519,1.174-1.244,1.127-3.158-.107-4.358Zm-2.852,12.203c-2.045,.988-4.453,1.902-8.194,1.902s-6.149-.914-8.194-1.902c-1.581-.763-2.25-2.682-1.493-4.278,.336-.708,.916-1.265,1.631-1.568,.394-.167,.813-.25,1.232-.25,.469,0,.938,.104,1.369,.313,1.473,.711,2.964,1.186,5.455,1.186s3.981-.474,5.455-1.186c.762-.367,1.618-.416,2.415-.135,.804,.283,1.45,.866,1.818,1.641,.758,1.596,.088,3.515-1.493,4.278Zm2.232-8.532c-.032,.034-.79,.826-2.226,1.67-1.048-.369-2.179-.306-3.18,.178-1.388,.67-2.712,1.086-5.02,1.086s-3.632-.416-5.02-1.086c-.995-.481-2.14-.542-3.18-.178-1.447-.85-2.193-1.635-2.226-1.669-.388-.411-.592-.948-.576-1.512,.016-.565,.251-1.089,.661-1.477,.838-.791,2.172-.76,2.962,.057,.088,.097,2.218,2.366,7.379,2.366s7.294-2.272,7.367-2.353c.821-.821,2.159-.836,2.982-.036,.838,.815,.872,2.113,.078,2.955ZM12.5,6h-1V1h1V6Zm3.5-1h-1V1h1V5Zm-7,0h-1V1.011h1v3.989Z"/></svg>
