<?xml version="1.0" encoding="UTF-8"?>
<svg xmlns="http://www.w3.org/2000/svg" id="Layer_1" data-name="Layer 1" viewBox="0 0 24 24">
  <path d="m12,4c1.103,0,2-.897,2-2s-.897-2-2-2-2,.897-2,2,.897,2,2,2Zm0-3c.552,0,1,.448,1,1s-.448,1-1,1-1-.448-1-1,.448-1,1-1Zm9,10h-.767l-5.302-6.296c-.227.246-.479.466-.761.649l4.755,5.647H5.075l4.755-5.647c-.282-.183-.534-.403-.761-.649l-5.302,6.296h-.767c-1.654,0-3,1.346-3,3v10h24v-10c0-1.654-1.346-3-3-3Zm2,12H1v-9c0-1.103.897-2,2-2h18c1.103,0,2,.897,2,2v9Zm-15-9h3v1h-2v2h2v1h-2v2h2v1h-3v-7Zm-1,2.25c0-1.24-1.01-2.25-2.25-2.25h-1.75v7h1v-2.5h.75c.107,0,.21-.017.313-.032l1.024,2.532h1.046l-1.139-2.878c.606-.404,1.006-1.092,1.006-1.872Zm-3,1.25v-2.5h.75c.689,0,1.25.561,1.25,1.25s-.561,1.25-1.25,1.25h-.75Zm11-3.5h1v7h-.83l-2.17-4.064v4.064h-1v-7h.83l2.17,5.064v-5.064Zm2,0h4v1h-1.5v6h-1v-6h-1.5v-1Z"/>
</svg>
