<?xml version="1.0" encoding="UTF-8"?>
<svg xmlns="http://www.w3.org/2000/svg" id="Layer_1" data-name="Layer 1" viewBox="0 0 24 24">
  <path d="m24,2.5v9.5h-9.051c-.043-.344-.111-.681-.225-1h8.276V2.5c0-.827-.673-1.5-1.5-1.5H2.5c-.827,0-1.5.673-1.5,1.5v8.5h5.271c-.112.323-.185.656-.22,1H0V2.5C0,1.122,1.122,0,2.5,0h19c1.378,0,2.5,1.122,2.5,2.5ZM4.368,8.695l1.638-1.266,1.63,1.261.378-.262-.663-2.015,1.648-.955v.003l1.66.924-.652,2.039.36.272,1.638-1.266,1.63,1.261.378-.262-.663-2.015,1.648-.955v.003l1.66.924-.652,2.039.36.272,1.638-1.266,1.63,1.261.378-.262-.663-2.015,1.648-.955v-.458h-2.163l-.588-2.251h-.486l-.588,2.251h-4.338l-.588-2.251h-.486l-.588,2.251h-4.338l-.588-2.251h-.486l-.588,2.251h-2.175v.462l1.66.924-.652,2.039.36.272Zm8.632,3.873c0-1.273-.896-2.379-2.084-2.573-.733-.117-1.475.085-2.035.562-.56.476-.881,1.17-.881,1.905v7.601l-1.815-1.445c-1.007-.922-2.577-.865-3.511.136-.941,1.007-.894,2.588.106,3.524l1.783,1.684h1.44l-2.535-2.407c-.599-.562-.629-1.514-.064-2.118.562-.603,1.509-.635,2.115-.072.01.009.031.027.031.027l3.449,2.746v-9.675c0-.44.193-.857.529-1.143.341-.29.777-.408,1.227-.336.709.115,1.245.797,1.245,1.586v5.24l8,3v3.192h1v-3.885l-8-3v-4.546Z"/>
</svg>
