<?xml version="1.0" encoding="UTF-8"?>
<svg xmlns="http://www.w3.org/2000/svg" id="Layer_1" data-name="Layer 1" viewBox="0 0 24 24">
  <path d="m12.055,9.876c.312,1.834,2.017,3.105,3.877,3.105h3.686c2.311,0,4.016-1.271,4.328-3.105.242-1.422-.331-2.802-1.445-3.638v-.739c0-.932-.285-1.798-.772-2.517.72-.11,1.272-.732,1.272-1.483,0-.828-.672-1.5-1.5-1.5-.818,0-1.483.655-1.499,1.47-.603-.301-1.282-.47-2.001-.47s-1.398.169-2.001.47c-.016-.815-.681-1.47-1.499-1.47-.828,0-1.5.672-1.5,1.5,0,.751.552,1.373,1.272,1.483-.399.589-.661,1.276-.744,2.017h-4.68c-3.543,0-6.802,2.309-7.638,5.752-.398,1.642-.213,3.291.419,4.733L.064,18.254l.871.492,1.252-2.216c.689,1.077,1.651,1.98,2.812,2.595v4.875h5v-4h4v4h5v-4.875c1.866-.988,3.21-2.723,3.743-4.72-.378.183-.778.327-1.197.424-.629,1.617-1.881,2.97-3.546,3.664v4.507h-3v-4h-6v4h-3v-4.499l-.082-.039c-2.195-1.045-3.771-3.161-3.908-5.588-.212-3.753,2.781-6.874,6.489-6.874h5v.239c-1.114.836-1.687,2.216-1.445,3.638Zm2.445-3.104v-1.273c0-1.93,1.57-3.5,3.5-3.5s3.5,1.57,3.5,3.5v1.273l.23.148c.795.511,1.27,1.375,1.27,2.311,0,1.516-1.233,2.75-2.75,2.75h-4.5c-1.517,0-2.75-1.234-2.75-2.75,0-.936.475-1.8,1.27-2.311l.23-.148Zm.5,3.227c0-.552.448-1,1-1s1,.448,1,1-.448,1-1,1-1-.448-1-1Zm4,0c0-.552.448-1,1-1s1,.448,1,1-.448,1-1,1-1-.448-1-1Z"/>
</svg>
