<?xml version="1.0" encoding="UTF-8"?>
<svg xmlns="http://www.w3.org/2000/svg" id="Layer_1" data-name="Layer 1" viewBox="0 0 24 24">
  <path d="m.992,6.008c.552,0,1-.448,1-1s-.448-1-1-1S-.008,4.456-.008,5.008s.448,1,1,1Zm18.674,3h4.326v.917l-3.311,2.111,1.337,3.827-.75.523-3.261-2.521-3.275,2.532-.721-.543,1.292-3.874-3.312-2.05v-.922h4.35l1.178-4.5h.97l1.176,4.5Zm2.336,1h-3.108l-.195-.747-.694-2.655-.695,2.656-.195.747h-3.096l1.812,1.122.673.416-.25.75-.747,2.239,1.89-1.461.612-.473.612.473,1.871,1.446-.753-2.154-.261-.747.668-.426,1.859-1.185Zm-2.01,10c-.552,0-1,.448-1,1s.448,1,1,1,1-.448,1-1-.448-1-1-1ZM5.98,7.432l.301,1.153c.356-.397.726-.789,1.112-1.176,3.995-3.994,8.672-6.395,11.86-6.395,1.147,0,2.102.311,2.762.971,1.057,1.057,1.219,2.87.641,5.022h1.059c.577-2.396.293-4.443-.993-5.729-2.975-2.976-10.019-.592-16.036,5.424-.242.242-.477.485-.707.73Zm.013-5.424c.552,0,1-.448,1-1S6.545.008,5.992.008s-1,.448-1,1,.448,1,1,1Zm-3.415,12.415L-.008,13.657v-1.314l2.587-.755.764-2.579h1.315l.753,2.58,2.581.754v1.314l-2.58.765-.755,2.587h-1.315l-.766-2.586Zm-1.275-1.421l2.08.616.616,2.081.608-2.082,2.077-.615-2.079-.606-.606-2.077-.615,2.076-2.081.607Zm5.69,9.684c-2.148.576-3.958.413-5.014-.643-.66-.66-.971-1.614-.971-2.762,0-.637.121-1.346.306-2.084l-.345-1.165-.372-.11c-.957,2.864-.805,5.349.674,6.828,1.287,1.286,3.334,1.57,5.729.993,2.482-.6,5.335-2.138,8.108-4.433l-.789-.657c-2.498,2.021-5.094,3.433-7.327,4.033Z"/>
</svg>
