<?xml version="1.0" encoding="UTF-8"?>
<svg xmlns="http://www.w3.org/2000/svg" id="Layer_1" data-name="Layer 1" viewBox="0 0 24 24">
  <path d="m19.861,14h2.297l-3.704-6h2.301L15.945.801c-.8-1.018-2.588-1.074-3.468.056l-.481.816-.551-.872c-.8-1.018-2.595-1.063-3.461.045l-4.475,7.154h2.237l-3.935,6h2.326L.139,21h8.861v3h1v-3h4v3h1v-3h8.861l-4-7Zm-9.861,6v-9h-1v9H1.861l4-7h-2.197l3.935-6h-2.284l3.486-5.58c.42-.529,1.473-.485,1.829-.043l3.551,5.623h-2.25l3.703,6h-2.226l4,7h-7.408Zm8.559,0l-3.429-6h2.296l-3.703-6h2.271l-3.399-5.378.704-1.202c.419-.529,1.467-.496,1.836-.032l3.747,5.612h-2.223l3.704,6h-2.227l4,7h-3.579Z"/>
</svg>
