<?xml version="1.0" encoding="UTF-8"?>
<svg xmlns="http://www.w3.org/2000/svg" id="Layer_1" data-name="Layer 1" viewBox="0 0 24 24">
  <path d="m7,8.027c3,0,3.595-2.438,3.451-3.027-.384,1.102-1.451,1.5-2.451,1.5-1.094,0-2-.658-2-1.5,0-1.811,1.876-1.996,3.131-1.996.131,0,.255.002.369.004,1.453.03,3.5.992,3.5,2.992,0,1.62-1.031,3.11-2.549,4,2.24-.202,4.549-2,4.549-5C15,1.779,11.754.026,8.716.026c-.958,0-1.896.174-2.704.532-1.988.615-3.036,2.314-3.011,3.942.023,1.536,1,3.527,4,3.527Zm-.693-6.514s.693-.488,2.409-.488c2.561,0,5.284,1.393,5.284,3.974,0,.178-.01.351-.029.518-.292-2.358-2.705-3.473-4.45-3.51-.121-.003-.252-.005-.39-.005-.649,0-1.608.042-2.435.402-1.094.476-1.696,1.398-1.696,2.594,0,.794.422,1.49,1.094,1.945-1.898-.377-2.086-1.937-2.094-2.46-.017-1.118.69-2.471,2.307-2.971Zm16.873,8.141c-.497-.452-1.142-.68-1.809-.652-.67.032-1.288.322-1.739.818l-3.732,4.102c-.314-1.108-1.335-1.922-2.543-1.922H2.5c-1.379,0-2.5,1.122-2.5,2.5v7c0,1.378,1.121,2.5,2.5,2.5h11.225l9.638-10.818c.912-1.021.831-2.604-.182-3.527Zm-.564,2.862l-9.341,10.483H2.5c-.827,0-1.5-.673-1.5-1.5v-7c0-.827.673-1.5,1.5-1.5h10.857c.905,0,1.643.737,1.643,1.642,0,.812-.606,1.511-1.403,1.625l-5.661.737.129.991,5.668-.738c1.021-.146,1.844-.878,2.145-1.824l4.496-4.94c.271-.298.643-.473,1.046-.492.402-.019.79.12,1.088.393.609.555.658,1.507.109,2.123Z"/>
</svg>
