<?xml version="1.0" encoding="UTF-8"?>
<svg xmlns="http://www.w3.org/2000/svg" id="Layer_1" data-name="Layer 1" viewBox="0 0 24 24" width="512" height="512"><path d="M19.791,.023l-7.291,1.888V0h-1V2.171l-7.365,1.907L.039,13.806l-.039,.694c0,2.481,2.019,4.5,4.5,4.5s4.5-2.019,4.5-4.5v-.5L5.183,4.839l6.317-1.636V23H4v1H20v-1h-7.5V2.945l6.09-1.577-3.55,8.439-.039,.694c0,2.481,2.019,4.5,4.5,4.5s4.5-2.019,4.5-4.5v-.5L19.791,.023ZM4.5,18c-1.76,0-3.221-1.306-3.464-3H7.964c-.243,1.694-1.704,3-3.464,3ZM1.042,14L4.5,5.788l3.458,8.212H1.042ZM19.477,1.836l3.479,8.164h-6.914L19.477,1.836Zm.023,12.164c-1.76,0-3.221-1.306-3.464-3h6.929c-.243,1.694-1.704,3-3.464,3Z"/></svg>
