<?xml version="1.0" encoding="UTF-8"?>
<svg xmlns="http://www.w3.org/2000/svg" id="Layer_1" data-name="Layer 1" viewBox="0 0 24 24">
  <path d="m10,21.5v2.5h-1v-2.5c0-.827-.673-1.5-1.5-1.5H2.5c-.827,0-1.5.673-1.5,1.5v2.5H0v-2.5c0-1.378,1.121-2.5,2.5-2.5h5c1.379,0,2.5,1.122,2.5,2.5ZM2,14c0-1.654,1.346-3,3-3s3,1.346,3,3-1.346,3-3,3-3-1.346-3-3Zm1,0c0,1.103.897,2,2,2s2-.897,2-2-.897-2-2-2-2,.897-2,2Zm11.694-5l-2.02,1.746c-.19.169-.432.254-.673.254-.243,0-.487-.086-.682-.259l-1.977-1.741h-3.344V2.5c0-1.378,1.121-2.5,2.5-2.5h7c1.379,0,2.5,1.122,2.5,2.5v6.5h-3.306Zm-.373-1h2.679V2.5c0-.827-.673-1.5-1.5-1.5h-7c-.827,0-1.5.673-1.5,1.5v5.5h2.721l2.262,1.993,2.339-1.993Zm7.179,11h-5c-1.379,0-2.5,1.122-2.5,2.5v2.5h1v-2.5c0-.827.673-1.5,1.5-1.5h5c.827,0,1.5.673,1.5,1.5v2.5h1v-2.5c0-1.378-1.121-2.5-2.5-2.5Zm-2.5-8c1.654,0,3,1.346,3,3s-1.346,3-3,3-3-1.346-3-3,1.346-3,3-3Zm-2,3c0,1.103.897,2,2,2s2-.897,2-2-.897-2-2-2-2,.897-2,2Z"/>
</svg>
