<?xml version="1.0" encoding="UTF-8"?>
<svg xmlns="http://www.w3.org/2000/svg" id="Layer_1" data-name="Layer 1" viewBox="0 0 24 24">
  <path d="m17.5,5c1.378,0,2.5-1.122,2.5-2.5s-1.122-2.5-2.5-2.5-2.5,1.122-2.5,2.5,1.122,2.5,2.5,2.5Zm0-4c.827,0,1.5.673,1.5,1.5s-.673,1.5-1.5,1.5-1.5-.673-1.5-1.5.673-1.5,1.5-1.5Zm5.95,13.099l.546-.838-3.178-2.071-.841-3.491c-.292-.937-1.361-1.699-2.381-1.699-1.411,0-2.096.594-2.208.721l-4.388,3.151v5.128h1v-4.615l3-2.16v5.182c0,.815.398,1.581,1.075,2.055l4.949,3.305-.024,5.231,1,.005.027-5.769-2.027-1.354v-5.03l3.45,2.249Zm-4.45,2.113l-2.36-1.576c-.4-.281-.64-.74-.64-1.229v-5.904c.046-.048.53-.503,1.596-.503.579,0,1.226.442,1.404.925v8.287Zm-3.298,1.349l.837.593-2.327,5.846h-1.083l2.573-6.439ZM7.912,1.203L1.685,6.075c-.436.341-.685.853-.685,1.406v8.519h8v1H0V7.481c0-.863.39-1.662,1.069-2.194L7.295.416c.709-.556,1.7-.555,2.409,0l3.349,2.621c.075.622.271,1.201.572,1.718l-4.538-3.552c-.347-.271-.83-.271-1.177,0Zm-3.912,11.797h4v-4h-4v4Zm1-3h2v2h-2v-2Z"/>
</svg>
