<?xml version="1.0" encoding="UTF-8"?>
<svg xmlns="http://www.w3.org/2000/svg" id="Layer_1" data-name="Layer 1" viewBox="0 0 24 24" width="512" height="512"><path d="m23.954,23.246l-1.368-1.368c.642-.971.537-2.293-.316-3.146-.853-.851-2.175-.957-3.146-.316l-1.125-1.125c.71-.804,1.244-1.732,1.581-2.73l3.158.792.243-.971-3.142-.788c.105-.521.16-1.055.16-1.596,0-.449-.038-.89-.109-1.319l3.091-.775-.243-.971-3.074.771c-.336-1.121-.912-2.139-1.668-2.995l1.126-1.126c.395.262.869.415,1.378.415,1.378,0,2.5-1.121,2.5-2.5s-1.122-2.5-2.5-2.5-2.5,1.121-2.5,2.5c0,.509.153.982.415,1.378l-1.126,1.126c-.852-.752-1.865-1.326-2.979-1.663l.769-3.064-.97-.244-.773,3.08c-.435-.073-.881-.112-1.336-.112-.538,0-1.068.054-1.586.158l-.784-3.126-.97.244.788,3.14c-1.002.337-1.933.872-2.74,1.585l-1.123-1.123c.642-.97.536-2.293-.318-3.146-.823-.825-2.183-.93-3.143-.315L.753.047.046.754l23.2,23.199.707-.707Zm-2.391-3.807c.461.461.557,1.149.291,1.707l-1.998-1.998c.557-.266,1.247-.17,1.707.291Zm-1.063-17.439c.827,0,1.5.673,1.5,1.5s-.673,1.5-1.5,1.5-1.5-.673-1.5-1.5.673-1.5,1.5-1.5Zm-8.5,3c3.147,0,5.814,2.087,6.693,4.949l-.027.007.243.971.008-.002c.054.351.083.71.083,1.075,0,1.693-.605,3.31-1.709,4.583L7.417,6.71c1.273-1.104,2.891-1.71,4.583-1.71Zm-7.439-2.561c.283.283.439.66.439,1.061,0,.228-.051.448-.146.647l-1.996-1.996c.556-.252,1.259-.156,1.703.288Zm4.439,11.561c.551,0,1,.448,1,1s-.449,1-1,1-1-.448-1-1,.449-1,1-1Zm6-4c-.551,0-1-.448-1-1s.449-1,1-1,1,.448,1,1-.449,1-1,1Zm-.148,8.387c-.258.115-.523.215-.793.299v-.006s-.838.211-.838.211c-.401.072-.809.11-1.221.11-3.86,0-7-3.141-7-7,0-.991.215-1.962.612-2.852l-.744-.744c-.211.419-.387.855-.523,1.304l-3.083-.773-.243.971,3.095.776c-.075.433-.114.874-.114,1.318,0,.546.055,1.08.16,1.596l-3.142.788.243.971,3.159-.792c.344,1.016.888,1.94,1.583,2.727l-1.128,1.128c-.395-.261-.868-.414-1.375-.414-1.378,0-2.5,1.121-2.5,2.498s1.122,2.498,2.5,2.498,2.5-1.121,2.5-2.498c0-.509-.154-.983-.417-1.378l1.127-1.127c.791.699,1.721,1.244,2.743,1.588l-.794,3.166.97.244.791-3.152c.511.103,1.039.157,1.58.157.448,0,.892-.04,1.328-.116l.781,3.111.97-.244-.777-3.099c.446-.136.879-.311,1.295-.521l-.745-.745Zm-11.352,3.613c-.827,0-1.5-.672-1.5-1.498s.673-1.498,1.5-1.498,1.5.672,1.5,1.498-.673,1.498-1.5,1.498Z"/></svg>
