<?xml version="1.0" encoding="UTF-8"?>
<svg xmlns="http://www.w3.org/2000/svg" id="Layer_1" data-name="Layer 1" viewBox="0 0 24 24">
  <path d="m19.897,19.19l1.551-14.19h1.552v-1h-6v-1.5c0-1.379-1.122-2.5-2.5-2.5h-5c-1.378,0-2.5,1.121-2.5,2.5v1.5h-2.293L.753.047.046.754l23.2,23.199.707-.707-4.056-4.056ZM8,2.5c0-.827.673-1.5,1.5-1.5h5c.827,0,1.5.673,1.5,1.5v1.5h-8v-1.5Zm12.442,2.5l-1.452,13.283L5.707,5h14.736Zm-1.936,17.042l.752.752c-.441.725-1.229,1.206-2.129,1.206H6.835c-1.281,0-2.35-.96-2.486-2.233l-1.668-15.549,1.127,1.126,1.536,14.315c.082.765.723,1.341,1.492,1.341h10.294c.63,0,1.156-.397,1.377-.958Z"/>
</svg>
