<?xml version="1.0" encoding="UTF-8"?>
<svg xmlns="http://www.w3.org/2000/svg" id="Layer_1" data-name="Layer 1" viewBox="0 0 24 24">
  <path d="m24,13.5c0-.817-.394-1.544-1.002-2h.002v-2c0-4.687-3.813-8.5-8.5-8.5h-5C4.813,1,1,4.813,1,9.5v2h.002c-.608.456-1.002,1.183-1.002,2v.171c0,.81.393,1.55,1,2.008v3.821c0,1.93,1.57,3.5,3.5,3.5h15c1.93,0,3.5-1.57,3.5-3.5v-4h-.002c.608-.456,1.002-1.183,1.002-2ZM2,9.5c0-4.136,3.364-7.5,7.5-7.5h5c4.136,0,7.5,3.364,7.5,7.5v1.55c-.162-.033-.329-.05-.5-.05H2.5c-.171,0-.338.017-.5.05v-1.55Zm20,10c0,1.378-1.121,2.5-2.5,2.5H4.5c-1.379,0-2.5-1.122-2.5-2.5v-3.382c.011.002.021.004.032.006,1.741.285,3.365,1.046,4.696,2.202.514.445,1.143.668,1.771.668s1.258-.223,1.771-.668c1.729-1.5,3.94-2.327,6.229-2.327h5c.171,0,.338-.017.5-.05v3.55Zm-.5-4.5h-5c-2.529,0-4.974.913-6.885,2.572-.646.561-1.584.561-2.23,0-1.472-1.278-3.267-2.12-5.19-2.435-.681-.111-1.194-.742-1.194-1.466v-.171c0-.827.673-1.5,1.5-1.5h19c.827,0,1.5.673,1.5,1.5s-.673,1.5-1.5,1.5ZM9,5c0-.552.448-1,1-1s1,.448,1,1-.448,1-1,1-1-.448-1-1Zm-3,3c0-.552.448-1,1-1s1,.448,1,1-.448,1-1,1-1-.448-1-1Z"/>
</svg>
