<?xml version="1.0" encoding="UTF-8"?>
<svg xmlns="http://www.w3.org/2000/svg" id="Layer_1" data-name="Layer 1" viewBox="0 0 24 24" width="512" height="512"><path d="M14.75,7c-1.2,0-2.19,.55-2.75,1.43-.56-.88-1.55-1.43-2.75-1.43-1.79,0-3.25,1.57-3.25,3.5,0,3.36,5.48,7.25,5.71,7.41l.29,.2,.29-.2c.23-.16,5.71-4.05,5.71-7.41,0-1.93-1.46-3.5-3.25-3.5Zm-2.75,9.88c-1.63-1.2-5-4.16-5-6.38,0-1.38,1.01-2.5,2.25-2.5,1.32,0,2.25,.92,2.25,2.23v.77h1v-.77c0-1.31,.93-2.23,2.25-2.23,1.24,0,2.25,1.12,2.25,2.5,0,2.22-3.37,5.18-5,6.38ZM12,0C5.38,0,0,5.38,0,12s5.38,12,12,12,12-5.38,12-12S18.62,0,12,0Zm0,23c-6.07,0-11-4.93-11-11S5.93,1,12,1s11,4.93,11,11-4.93,11-11,11Z"/></svg>
