<?xml version="1.0" encoding="UTF-8"?>
<svg xmlns="http://www.w3.org/2000/svg" id="Layer_1" data-name="Layer 1" viewBox="0 0 24 24">
  <path d="m21,20v4h-1v-4c0-1.654-1.346-3-3-3H7c-1.654,0-3,1.346-3,3v4h-1v-4c0-2.206,1.794-4,4-4h10c2.206,0,4,1.794,4,4Zm2.917-17.046c-.104.146-1.925,2.63-5.917,4.057v.989c0,3.309-2.691,6-6,6s-6-2.691-6-6v-.99C2.016,5.582.206,3.099.102,2.953l.815-.579c.023.032,1.647,2.24,5.197,3.593.503-2.808,2.482-5.967,3.386-5.967.605,0,1.067.302,1.476.567.356.232.664.433,1.024.433.349,0,.638-.192.973-.416.411-.273.876-.584,1.527-.584.904,0,2.883,3.16,3.386,5.969,3.559-1.354,5.194-3.564,5.218-3.596l.813.581ZM7.07,6.295c1.388.424,3.026.705,4.929.705s3.54-.281,4.93-.704c-.368-2.405-1.99-4.897-2.517-5.292-.311.029-.579.208-.885.412-.411.273-.876.584-1.527.584-.658,0-1.143-.316-1.57-.595-.302-.197-.567-.37-.843-.4-.528.396-2.148,2.887-2.516,5.29Zm9.93,1.037c-1.424.405-3.085.668-5,.668s-3.577-.263-5-.669v.669c0,2.757,2.243,5,5,5s5-2.243,5-5v-.668Z"/>
</svg>
