<?xml version="1.0" encoding="UTF-8"?>
<svg xmlns="http://www.w3.org/2000/svg" id="Layer_1" data-name="Layer 1" width="512" height="512" viewBox="0 0 24 24"><path d="M1.5,18c-.507,0-1.001-.094-1.471-.279l.367-.93c.352,.139,.723,.209,1.104,.209,1.654,0,3-1.346,3-3h1c0,1.654,1.346,3,3,3s3-1.346,3-3h1c0,1.654,1.346,3,3,3s3-1.346,3-3h1c0,1.654,1.346,3,3,3,.383,0,.757-.071,1.111-.212l.369,.93c-.472,.188-.97,.282-1.48,.282-1.504,0-2.817-.835-3.5-2.065-.683,1.231-1.996,2.065-3.5,2.065s-2.817-.835-3.5-2.065c-.683,1.231-1.996,2.065-3.5,2.065s-2.817-.835-3.5-2.065c-.683,1.231-1.996,2.065-3.5,2.065Zm21,5c-1.654,0-3-1.346-3-3h-1c0,1.654-1.346,3-3,3s-3-1.346-3-3h-1c0,1.654-1.346,3-3,3s-3-1.346-3-3h-1c0,1.654-1.346,3-3,3-.383,0-.756-.071-1.107-.211l-.37,.93c.47,.187,.966,.281,1.477,.281,1.504,0,2.817-.835,3.5-2.065,.683,1.231,1.996,2.065,3.5,2.065s2.817-.835,3.5-2.065c.683,1.231,1.996,2.065,3.5,2.065s2.817-.835,3.5-2.065c.683,1.231,1.996,2.065,3.5,2.065,.511,0,1.007-.095,1.477-.281l-.37-.93c-.351,.14-.724,.211-1.107,.211ZM12,11.005c.504,0,1.009-.192,1.394-.576l3.203-3.202-.707-.707-3.203,3.202c-.057,.057-.12,.106-.187,.146V0h-1V9.867c-.066-.04-.129-.088-.187-.146l-3.203-3.202-.707,.707,3.203,3.202c.384,.385,.889,.576,1.394,.576Z"/></svg>
