<?xml version="1.0" encoding="UTF-8"?>
<svg xmlns="http://www.w3.org/2000/svg" id="Layer_1" data-name="Layer 1" viewBox="0 0 24 24" width="512" height="512"><path d="M7.5,24c-2.01,0-3.74-1.3-4.31-3.19-1.89-.57-3.19-2.3-3.19-4.31,0-2.48,2.02-4.5,4.5-4.5,1.04,0,2.03,.35,2.83,1l5.67-5.67c-.65-.8-1-1.79-1-2.83,0-2.48,2.02-4.5,4.5-4.5,2.01,0,3.74,1.3,4.31,3.19,1.89,.57,3.19,2.3,3.19,4.31,0,2.48-2.02,4.5-4.5,4.5-1.04,0-2.03-.35-2.83-1l-5.67,5.67c.65,.8,1,1.79,1,2.83,0,2.48-2.02,4.5-4.5,4.5Zm-3-11c-1.93,0-3.5,1.57-3.5,3.5,0,1.64,1.12,3.04,2.71,3.41l.3,.07,.07,.31c.37,1.6,1.77,2.71,3.41,2.71,1.93,0,3.5-1.57,3.5-3.5,0-.94-.37-1.83-1.04-2.49l-.36-.35,7.06-7.06,.35,.36c.66,.67,1.55,1.04,2.49,1.04,1.93,0,3.5-1.57,3.5-3.5,0-1.64-1.12-3.04-2.71-3.41l-.3-.07-.07-.31c-.37-1.6-1.77-2.71-3.41-2.71-1.93,0-3.5,1.57-3.5,3.5,0,.94,.37,1.83,1.04,2.49l.36,.35-7.06,7.06-.35-.36c-.66-.67-1.55-1.04-2.49-1.04Z"/></svg>
