<?xml version="1.0" encoding="UTF-8"?>
<svg xmlns="http://www.w3.org/2000/svg" id="Layer_1" data-name="Layer 1" viewBox="0 0 24 24" width="512" height="512"><path d="M22,7.5V24H2S2,7.5,2,7.5c0-1.38,1.12-2.5,2.5-2.5h4.5v1H4.5c-.83,0-1.5,.67-1.5,1.5v15.51H21V7.5c0-.4-.15-.77-.43-1.05-.28-.29-.66-.44-1.06-.44h-4.51s0-1.01,0-1.01h4.51c.67,0,1.3,.27,1.77,.74,.47,.47,.73,1.1,.72,1.76ZM6.83,11.66l-.73,.68,4.84,5.22c.29,.29,.67,.44,1.06,.44s.78-.15,1.08-.45l4.83-5.21-.73-.68-4.67,5.04V0h-1V16.7l-4.67-5.04Z"/></svg>
