<?xml version="1.0" encoding="UTF-8"?>
<svg xmlns="http://www.w3.org/2000/svg" id="Layer_1" data-name="Layer 1" viewBox="0 0 24 24" width="512" height="512"><path d="m10.5,14h-1V6h1v8Zm-1.5,3c0,.552.448,1,1,1s1-.448,1-1-.448-1-1-1-1,.448-1,1Zm7.108-4.432l-2.474-2.431-.701.713,2.475,2.432c.482.473,1.115.709,1.748.709.637,0,1.273-.239,1.758-.717l4.972-4.915-.703-.711-4.972,4.914c-.578.573-1.522.574-2.103.006Zm-6.108,8.432c-4.963,0-9-4.037-9-9S5.037,3,10,3c4.045,0,7.474,2.683,8.604,6.362l.784-.775c-1.399-3.836-5.074-6.587-9.387-6.587C4.486,2,0,6.486,0,12s4.486,10,10,10c4.328,0,8.012-2.769,9.401-6.624-.404.234-.837.412-1.295.51-1.454,3.02-4.536,5.115-8.106,5.115Z"/></svg>
