<?xml version="1.0" encoding="UTF-8"?>
<svg xmlns="http://www.w3.org/2000/svg" id="Layer_1" data-name="Layer 1" viewBox="0 0 24 24" width="512" height="512"><path d="M1,16H5v1H0V7.34c0-.77,.35-1.49,.96-1.97L6.96,.68C7.87-.03,9.13-.03,10.04,.68l3.96,3.1V1h1v3.56l1.04,.81c.61,.48,.96,1.19,.96,1.97v.66h-1v-.66c0-.46-.21-.89-.58-1.18L9.42,1.47c-.54-.43-1.3-.43-1.85,0L1.58,6.16c-.37,.29-.58,.72-.58,1.18v8.66Zm23,3v2.5c0,1.38-1.12,2.5-2.5,2.5H8.5c-1.38,0-2.5-1.12-2.5-2.5v-2.5h1v-6.5c0-1.38,1.12-2.5,2.5-2.5h11c1.38,0,2.5,1.12,2.5,2.5v6.5h1Zm-16,0h3.71l1,1h4.59l1-1h3.71v-6.5c0-.83-.67-1.5-1.5-1.5H9.5c-.83,0-1.5,.67-1.5,1.5v6.5Zm15,1h-4.29l-1,1h-5.41l-1-1H7v1.5c0,.83,.67,1.5,1.5,1.5h13c.83,0,1.5-.67,1.5-1.5v-1.5Z"/></svg>
