<?xml version="1.0" encoding="UTF-8"?>
<svg xmlns="http://www.w3.org/2000/svg" id="Layer_1" data-name="Layer 1" viewBox="0 0 24 24">
  <path d="m22.49,14.711c-.042-.035-4.156-3.415-7.275-5.403-.388-3.678-1.579-8.868-1.591-8.921l-.089-.388h-3.069l-.089.388c-.012.053-1.203,5.243-1.591,8.921-3.119,1.988-7.233,5.368-7.275,5.403l-.307.253,1.369,2.747.387-.093c.22-.053,5.103-1.232,8.55-2.502l-.03,7.883h-4.525v1h10.045v-1h-4.521l.03-7.876c3.447,1.267,8.312,2.441,8.532,2.495l.387.093,1.369-2.747-.307-.253Zm-1.601,1.84c-1.287-.32-5.506-1.401-8.375-2.493l-.513-.199s-.301.117-.359.14c0,0-7.239,2.232-8.53,2.553l-.657-1.318c1.036-.838,4.467-3.578,7.069-5.208l.208-.13.024-.245c.298-3.056,1.22-7.349,1.508-8.649h1.474c.288,1.3,1.21,5.594,1.508,8.649l.024.245.208.13c2.603,1.63,6.034,4.37,7.069,5.208l-.657,1.318Zm-7.889-5.551c0,.552-.448,1-1,1s-1-.448-1-1,.448-1,1-1,1,.448,1,1Z"/>
</svg>
