<?xml version="1.0" encoding="UTF-8"?>
<svg xmlns="http://www.w3.org/2000/svg" id="Layer_1" data-name="Layer 1" width="512" height="512" viewBox="0 0 24 24"><path d="M12,15c2.918,0,5.236,2.04,5.333,2.127l-.666,.747c-.021-.019-2.138-1.874-4.667-1.874s-4.646,1.854-4.667,1.874l-.666-.747c.097-.087,2.415-2.127,5.333-2.127Zm-3.324-4.946c-.393,.135-.676,.507-.676,.946,0,.552,.448,1,1,1s.996-.444,1-.993c0,.005,0,.006,0-.007,0-.731-.548-3-4-3v1c1.571,0,2.319,.535,2.676,1.054Zm15.324,1.946c0,6.617-5.383,12-12,12S0,18.617,0,12,5.383,0,12,0s12,5.383,12,12Zm-1,0c0-6.065-4.935-11-11-11S1,5.935,1,12s4.935,11,11,11,11-4.935,11-11Zm-5-3v-1c-3.954,0-4,2.97-4,3,0,.552,.448,1,1,1s1-.448,1-1c0-.443-.288-.818-.686-.95,.352-.515,1.1-1.05,2.686-1.05Z"/></svg>
