<?xml version="1.0" encoding="UTF-8"?>
<svg xmlns="http://www.w3.org/2000/svg" id="Layer_1" data-name="Layer 1" viewBox="0 0 24 24">
  <path d="m23.901,13.322l-1.654-11.188c-.18-1.217-1.243-2.134-2.473-2.134h-3.774v1h3.774c.737,0,1.376.551,1.484,1.28l1.585,10.72h-6.344c-1.391,0-2.585.822-3.149,2h-2.702c-.564-1.178-1.758-2-3.149-2H1.156L2.741,2.28c.108-.729.747-1.28,1.484-1.28h3.774V0h-3.774C2.996,0,1.933.917,1.753,2.134L.099,13.32c-.065.427-.099.861-.099,1.291v5.889c0,1.93,1.57,3.5,3.5,3.5h4c1.93,0,3.5-1.57,3.5-3.5v-4c0-.171-.027-.335-.051-.5h2.101c-.024.165-.051.329-.051.5v4c0,1.93,1.57,3.5,3.5,3.5h4c1.93,0,3.5-1.57,3.5-3.5v-5.889c0-.43-.033-.864-.099-1.289Zm-13.901,7.178c0,1.379-1.121,2.5-2.5,2.5H3.5c-1.379,0-2.5-1.121-2.5-2.5v-5.889c0-.203.009-.407.025-.611h6.475c.336,0,.655.069.948.189l-6.448,4.132v1.179l7.331-4.69c.412.446.669,1.036.669,1.69v4Zm13,0c0,1.379-1.121,2.5-2.5,2.5h-4c-1.379,0-2.5-1.121-2.5-2.5v-4c0-1.379,1.121-2.5,2.5-2.5h5.152l-6.652,4.287v1.187l7.988-5.144c.004.094.012.188.012.282v5.889Z"/>
</svg>
