<?xml version="1.0" encoding="UTF-8"?>
<svg xmlns="http://www.w3.org/2000/svg" id="Layer_1" data-name="Layer 1" viewBox="0 0 24 24" width="512" height="512"><path d="M23.64,8.48l.36-.1v-3.88c0-1.38-1.12-2.5-2.5-2.5H2.5C1.12,2,0,3.12,0,4.5v3.87s.36,.11,.36,.11c.07,.02,1.64,.51,1.64,2.02S.43,12.5,.36,12.52l-.36,.1v9.38H24V12.63s-.36-.11-.36-.11c-.07-.02-1.64-.51-1.64-2.02s1.57-2,1.64-2.02Zm-3.64,12.52v-2h-1v2h-4v-2h-1v2h-4v-2h-1v2H5v-2h-1v2H1v-3H23v3h-3Zm3-7.65v3.65H1v-3.65c.84-.37,2-1.27,2-2.85s-1.16-2.48-2-2.85v-3.15c0-.83,.67-1.5,1.5-1.5H21.5c.83,0,1.5,.67,1.5,1.5v3.15c-.84,.37-2,1.27-2,2.85s1.16,2.48,2,2.85ZM11.5,6h1V15h-1V6Zm-5.5,0h1V15h-1V6Zm11,0h1V15h-1V6Z"/></svg>
