<?xml version="1.0" encoding="UTF-8"?>
<svg xmlns="http://www.w3.org/2000/svg" id="Layer_1" data-name="Layer 1" viewBox="0 0 24 24" width="512" height="512"><path d="M17.944,2c-2.431,0-4.944,2.618-4.944,7,0,1.471,.707,2.98,1.456,4.58,.759,1.621,1.544,3.297,1.544,4.92v2c0,1.93,1.57,3.5,3.5,3.5s3.5-1.57,3.5-3.5v-2c0-1.732,.275-2.987,.542-4.201,.235-1.072,.458-2.085,.458-3.299,0-8.748-5.436-9-6.056-9Zm4.056,18.5c0,1.378-1.121,2.5-2.5,2.5s-2.5-1.122-2.5-2.5v-2c0-.167-.007-.334-.02-.5h5.028c-.005,.163-.008,.329-.008,.5v2Zm.565-6.415c-.187,.854-.393,1.789-.497,2.915h-5.239c-.284-1.315-.884-2.595-1.469-3.845-.7-1.495-1.361-2.907-1.361-4.155,0-3.756,2.006-6,3.944-6,.518,0,5.056,.225,5.056,8,0,1.106-.211,2.067-.435,3.085ZM6.056,0C5.436,0,0,.252,0,9c0,1.214,.223,2.227,.458,3.299,.267,1.213,.542,2.468,.542,4.201v2c0,1.93,1.57,3.5,3.5,3.5s3.5-1.57,3.5-3.5v-2c0-1.623,.785-3.299,1.544-4.92,.749-1.599,1.456-3.109,1.456-4.58C11,2.618,8.486,0,6.056,0Zm.944,18.5c0,1.378-1.121,2.5-2.5,2.5s-2.5-1.122-2.5-2.5v-2c0-.171-.003-.337-.008-.5H7.02c-.013,.166-.02,.333-.02,.5v2Zm1.639-7.345c-.585,1.25-1.185,2.53-1.469,3.845H1.931c-.104-1.126-.309-2.061-.497-2.915-.224-1.018-.435-1.979-.435-3.085C1,1.225,5.538,1,6.056,1c1.938,0,3.944,2.244,3.944,6,0,1.248-.661,2.66-1.361,4.155Z"/></svg>
