<?xml version="1.0" encoding="UTF-8"?>
<svg xmlns="http://www.w3.org/2000/svg" id="Layer_1" data-name="Layer 1" width="512" height="512" viewBox="0 0 24 24"><path d="M12,15c-1.654,0-3-1.346-3-3s1.346-3,3-3,3,1.346,3,3-1.346,3-3,3Zm0-5c-1.103,0-2,.897-2,2s.897,2,2,2,2-.897,2-2-.897-2-2-2Zm-2.091,14h-2.909v-1c2.579,0,3.972-1.205,4.615-2.008-5.25-.211-9.615-4.7-9.615-9.992C2,4.626,7.085,0,14.091,0h2.909V1c-2.579,0-3.972,1.205-4.615,2.008,5.25,.211,9.615,4.7,9.615,9.992,0,6.374-5.085,11-12.091,11ZM13.126,1.032C7.203,1.431,3,5.499,3,11c0,4.879,4.122,9,9,9h1.294l-.315,.704c-.038,.083-.614,1.328-2.106,2.264,5.924-.398,10.126-4.467,10.126-9.968,0-4.879-4.122-9-9-9h-1.294l.315-.704c.038-.083,.614-1.328,2.106-2.264Z"/></svg>
