<?xml version="1.0" encoding="UTF-8"?>
<svg xmlns="http://www.w3.org/2000/svg" id="Layer_1" data-name="Layer 1" width="512" height="512" viewBox="0 0 24 24"><path d="M23.956,14.263l-.454-5.301c-.084-.98-.704-1.815-1.623-2.18l-6.724-2.6c-.913-.362-1.938-.181-2.672,.474l-3.968,3.543c-1.376,1.229-2.463,2.785-3.145,4.5l-1.108,2.791,1.934,.76-.855,2.113,3.832,1.522,.86-2.127,6.239,2.452-.845,2.088,3.831,1.521,.85-2.102,1.94,.762,1.108-2.787c.682-1.715,.958-3.594,.8-5.432ZM13.149,5.402c.45-.402,1.079-.512,1.641-.289l6.724,2.6c.561,.222,.94,.733,.992,1.334,0,0,.487,5.779,.491,6.019l-14.334-5.626c.167-.171,4.487-4.039,4.487-4.039Zm-4.532,13.188l-1.972-.784,.481-1.189,1.976,.776-.484,1.197Zm10.085,3.935l-1.972-.783,.471-1.165,1.974,.776-.474,1.172Zm2.784-1.338L5.562,14.927l.738-1.858c.425-1.07,1.702-2.814,1.702-2.814l2.439,.957-.632,1.59c-.102,.256,.023,.547,.28,.649,.061,.024,.123,.035,.185,.035,.199,0,.387-.119,.465-.315l.633-1.594,8.178,3.209-.642,1.617c-.102,.257,.023,.547,.28,.649,.061,.024,.123,.035,.185,.035,.199,0,.387-.119,.465-.315l.644-1.621,2.443,.959s-.273,2.147-.697,3.213l-.739,1.861ZM4.151,7.5l-2.083,2.5h1.933v1H-.067l2.917-3.5L-.067,4H4V-.067l3.5,2.917L11-.067V4h-1v-1.933l-2.5,2.083-2.5-2.083v2.933H2.067l2.083,2.5Z"/></svg>
