<?xml version="1.0" encoding="UTF-8"?>
<svg xmlns="http://www.w3.org/2000/svg" id="Layer_1" data-name="Layer 1" viewBox="0 0 24 24" width="512" height="512"><path d="M4,16c0,2.206,1.794,4,4,4s4-1.794,4-4-1.794-4-4-4-4,1.794-4,4Zm7,0c0,1.654-1.346,3-3,3s-3-1.346-3-3,1.346-3,3-3,3,1.346,3,3Zm-1-11h-1V0h1V5Zm2.961,1.198l-.875-.483L14.503,1.337l.875,.483-2.417,4.377Zm-6.899,0L3.646,1.821l.875-.483,2.416,4.377-.875,.483Zm2.174,1.802C3.977,8,.371,11.212,.029,15.312c-.192,2.297,.607,4.563,2.192,6.219,1.512,1.579,3.605,2.469,5.787,2.469,.106,0,.212-.002,.319-.006,2.855-.114,5.552-1.931,6.87-4.628,.55-1.126,.82-2.296,.802-3.479-.012-.771,.504-1.425,1.226-1.556l6.775-1.232v-5.099H8.236Zm14.764,4.264l-5.954,1.083c-1.206,.219-2.066,1.294-2.047,2.556,.016,1.038-.213,2.027-.701,3.024-1.159,2.371-3.519,3.968-6.012,4.067-2.01,.092-3.957-.705-5.344-2.154-1.387-1.448-2.086-3.433-1.918-5.443,.3-3.587,3.467-6.396,7.211-6.396h14.764v3.264Z"/></svg>
