<?xml version="1.0" encoding="UTF-8"?>
<svg xmlns="http://www.w3.org/2000/svg" id="Layer_1" data-name="Layer 1" viewBox="0 0 24 24" width="512" height="512"><path d="M24,7.5c0-1.379-1.122-2.5-2.5-2.5h-2.5V2h3V1h-7v1h3v3H2.5c-1.378,0-2.5,1.121-2.5,2.5v13.5H2v2h1v-2H21v2h1v-2h2V7.5Zm-1,12.5H1V7.5c0-.827,.673-1.5,1.5-1.5H21.5c.827,0,1.5,.673,1.5,1.5v12.5ZM9,4H2v-1h7v1Zm8,5c-2.206,0-4,1.794-4,4s1.794,4,4,4,4-1.794,4-4-1.794-4-4-4Zm0,7c-1.186,0-2.203-.697-2.69-1.698l2.69-1.306-2.716-1.251c.477-1.027,1.511-1.746,2.716-1.746,1.654,0,3,1.346,3,3s-1.346,3-3,3ZM7,9c-2.206,0-4,1.794-4,4,0,2.5,2,4,4,4,2.206,0,4-1.794,4-4s-1.794-4-4-4Zm0,7c-.292,0-.57-.055-.837-.134l.83-2.874-2.845,.89c-.087-.281-.148-.574-.148-.883,0-1.654,1.346-3,3-3s3,1.346,3,3-1.346,3-3,3Z"/></svg>
