<?xml version="1.0" encoding="UTF-8"?>
<svg xmlns="http://www.w3.org/2000/svg" id="Layer_1" data-name="Layer 1" viewBox="0 0 24 24" width="512" height="512"><path d="M12.5,12.5h3.5v1h-3.5v3.5h-1v-3.5h-3.5v-1h3.5v-3.5h1v3.5Zm7.231,8.314l2.138,2.35-.739,.673-2.139-2.35c-1.902,1.57-4.338,2.514-6.991,2.514s-5.089-.944-6.991-2.514l-2.139,2.35-.739-.673,2.138-2.35c-2.016-1.995-3.269-4.76-3.269-7.814C1,7.103,5.667,2.289,11.5,2.025V0h1V2.025c5.833,.264,10.5,5.078,10.5,10.975,0,3.054-1.253,5.819-3.269,7.814Zm-7.731,2.186c5.514,0,10-4.486,10-10S17.514,3,12,3,2,7.486,2,13s4.486,10,10,10ZM22.733,4.812l.795-.607c-1.159-1.517-2.581-2.773-4.228-3.734l-.504,.863c1.533,.895,2.857,2.065,3.937,3.479ZM5.196,1.337l-.505-.863C3.04,1.439,1.614,2.703,.453,4.229l.796,.605c1.082-1.421,2.41-2.598,3.948-3.497Z"/></svg>
