<?xml version="1.0" encoding="UTF-8"?>
<svg xmlns="http://www.w3.org/2000/svg" id="Layer_1" data-name="Layer 1" viewBox="0 0 24 24">
  <path d="m23.99,19.049c-.038-.357-.199-.695-.454-.951l-3.564-3.564c-.013-.146-.035-.292-.068-.436-.119-.525.122-1.087.601-1.396.449-.29.814-.685,1.084-1.172.255-.459.388-.989.386-1.528.002-.543-.131-1.072-.386-1.532-.27-.487-.635-.882-1.085-1.172-.478-.309-.719-.87-.6-1.396.122-.534.104-1.083-.055-1.63-.295-1.029-1.117-1.852-2.146-2.146-.549-.158-1.098-.176-1.629-.055-.525.121-1.087-.121-1.396-.6-.289-.449-.684-.813-1.172-1.084-.934-.519-2.099-.52-3.036,0-.487.27-.882.635-1.172,1.084-.309.479-.87.722-1.396.6-.535-.122-1.081-.103-1.628.055-1.029.295-1.852,1.117-2.146,2.146-.158.548-.177,1.097-.055,1.63.119.527-.122,1.088-.601,1.396-.449.29-.814.685-1.084,1.172-.255.459-.388.989-.386,1.528-.002.543.131,1.073.386,1.532.27.487.635.882,1.085,1.172.478.309.719.869.6,1.396-.034.15-.057.302-.069.454l-3.541,3.547c-.254.255-.415.593-.453.949-.047.423.074.838.341,1.171.266.331.646.54,1.068.587l1.597.177.177,1.584c.036.363.198.706.458.966.169.169.376.299.595.375.176.062.356.093.536.093.418,0,.826-.164,1.122-.467l4.171-4.177c.124.093.256.178.396.256.468.26.993.39,1.519.39s1.05-.13,1.518-.39c.144-.08.279-.168.406-.263l4.179,4.18c.3.307.71.472,1.127.472.178,0,.357-.03.53-.092.224-.078.431-.208.6-.377.26-.26.422-.603.458-.96l.177-1.59,1.597-.177c.423-.047.803-.256,1.068-.587.267-.333.388-.748.341-1.17Zm-18.798,3.781c-.156.16-.396.214-.614.134-.082-.028-.158-.076-.221-.139-.097-.097-.157-.224-.171-.364l-.265-2.385-2.394-.265c-.157-.018-.299-.095-.397-.219-.1-.124-.145-.278-.127-.437.015-.133.074-.258.167-.352l2.984-2.989c.316.988,1.12,1.772,2.12,2.058.547.157,1.093.177,1.629.055.524-.119,1.087.121,1.396.601.025.038.05.075.077.112l-4.183,4.188Zm7.83-4.093c-.63.351-1.439.35-2.067,0-.342-.189-.617-.441-.816-.75-.441-.686-1.191-1.089-1.966-1.089-.163,0-.328.019-.491.056-.365.082-.748.068-1.132-.041-.689-.198-1.263-.771-1.461-1.462-.11-.384-.124-.765-.041-1.132.212-.935-.203-1.923-1.032-2.457-.311-.2-.563-.475-.752-.816-.172-.311-.263-.672-.261-1.048-.002-.372.089-.733.261-1.044.188-.342.441-.616.751-.816.83-.534,1.245-1.522,1.033-2.458-.083-.366-.069-.747.041-1.132.198-.689.771-1.263,1.461-1.461.383-.11.764-.124,1.131-.041.938.213,1.923-.202,2.458-1.032.199-.31.475-.562.816-.751.63-.35,1.439-.349,2.067,0,.343.189.616.441.815.751.536.83,1.522,1.247,2.458,1.032.366-.082.747-.068,1.132.041.689.198,1.263.771,1.461,1.462.11.384.124.765.041,1.131-.213.935.202,1.923,1.032,2.458.311.2.563.475.752.816.172.311.263.672.261,1.048.002.372-.089.733-.261,1.044-.188.342-.441.616-.751.816-.831.535-1.246,1.523-1.033,2.458.083.366.069.747-.041,1.132-.198.689-.771,1.263-1.461,1.461-.385.109-.768.123-1.131.041-.933-.21-1.923.203-2.46,1.033-.198.309-.472.561-.814.75Zm9.847.855c-.099.124-.24.201-.397.219l-2.394.265-.265,2.391c-.014.135-.074.262-.171.358-.062.062-.139.11-.226.141-.215.077-.454.023-.613-.14l-4.194-4.195c.023-.033.046-.067.068-.102.309-.479.875-.719,1.397-.601.533.12,1.081.102,1.628-.055,1.004-.288,1.811-1.078,2.124-2.071l3.001,3.001c.094.095.153.22.168.354.018.157-.027.312-.127.436ZM12.913,5l.087.5v8.5h-1v-7.353l-1.641,1.7-.719-.695,2.561-2.652h.712Z"/>
</svg>
