<?xml version="1.0" encoding="UTF-8"?>
<svg xmlns="http://www.w3.org/2000/svg" id="Layer_1" data-name="Layer 1" viewBox="0 0 24 24" width="512" height="512"><path d="m20.714,15.188c.778-.642,1.286-1.602,1.286-2.688,0-1.623-1.116-2.979-2.617-3.373.379-.438.617-1.003.617-1.627,0-1.379-1.122-2.5-2.5-2.5h-1.082c-.158-1.078-.849-2.355-1.864-3.394-.998-1.021-2.111-1.606-3.054-1.606h-.5v.5c0,2.369-1.003,3.744-1.899,4.5h-2.601c-1.378,0-2.5,1.121-2.5,2.5,0,.624.238,1.188.617,1.627-1.501.394-2.617,1.75-2.617,3.373,0,1.086.507,2.045,1.286,2.688-1.889.534-3.286,2.255-3.286,4.312,0,2.481,2.019,4.5,4.5,4.5h15c2.481,0,4.5-2.019,4.5-4.5,0-2.058-1.396-3.779-3.286-4.312Zm-1.214,7.812H4.5c-1.93,0-3.5-1.57-3.5-3.5s1.57-3.5,3.5-3.5h9.5v-1H5.5c-1.378,0-2.5-1.121-2.5-2.5s1.122-2.5,2.5-2.5h8.5v-1h-7.5c-.827,0-1.5-.673-1.5-1.5s.673-1.5,1.5-1.5h3c.842-.663,2.307-2.252,2.481-4.927.577.165,1.239.601,1.857,1.232.819.837,1.399,1.858,1.564,2.694h-2.402v1h4.5c.827,0,1.5.673,1.5,1.5s-.673,1.5-1.5,1.5h-.5v1h1.5c1.378,0,2.5,1.121,2.5,2.5s-1.122,2.5-2.5,2.5h-1.5v1h2.5c1.93,0,3.5,1.57,3.5,3.5s-1.57,3.5-3.5,3.5Z"/></svg>
