<?xml version="1.0" encoding="UTF-8"?>
<svg xmlns="http://www.w3.org/2000/svg" id="Layer_1" data-name="Layer 1" viewBox="0 0 24 24" width="512" height="512"><path d="M16.53,16.48c-1.1,.33-2.29,.52-3.53,.52-1.63,0-3.22-.32-4.65-.92-.34-.66-1.39-2.64-2.1-3.35-.64-.64-1.61-.85-2.46-.61-.52-.99-.79-2.04-.79-3.12C3,4.59,7.49,1,13,1s10,3.59,10,8c0,1.75-.72,3.37-1.92,4.69l.48,.95c1.53-1.55,2.45-3.51,2.45-5.65C24,4.04,19.07,0,13,0S2,4.04,2,9c0,1.24,.3,2.45,.9,3.57-.06,.05-.12,.1-.17,.15-.47,.47-.73,1.09-.73,1.76,0,.46,.13,.91,.36,1.29-1,.92-2.36,2.57-2.36,4.72,0,2.77,2.29,3.5,3.5,3.5h.5v-1h-.5c-.26,0-2.5-.09-2.5-2.5,0-1.84,1.3-3.3,2.07-4.01,.87,.45,2.62,.53,3.85,.53,.42,0,.79-.01,1.03-.02,1.55,.65,3.28,1,5.04,1,.2,0,.39-.02,.58-.02l2.93-1.46,.02-.04Zm-13.09-.93c-.28-.28-.44-.66-.44-1.05s.15-.77,.44-1.05,.66-.44,1.05-.44,.77,.16,1.05,.44c.45,.45,1.16,1.69,1.64,2.58-1.7,0-3.43-.16-3.75-.48Zm9.9-7.23l-2.35,1.17,2.35,1.17,1.17,2.35,1.17-2.35,2.35-1.17-2.35-1.17-1.17-2.34-1.17,2.34Zm6.17,6.7l-1.5,3-3,1.5,3,1.5,1.5,3,1.5-3,3-1.5-3-1.5-1.5-3Zm.75,5.25l-.75,1.5-.75-1.5-1.5-.75,1.5-.75,.75-1.5,.75,1.5,1.5,.75-1.5,.75Z"/></svg>
