<?xml version="1.0" encoding="UTF-8"?>
<svg xmlns="http://www.w3.org/2000/svg" id="Layer_1" data-name="Layer 1" viewBox="0 0 24 24" width="512" height="512"><path d="m24,3.5V0h-1c0,1.654-1.346,3-3,3H6.5C2.916,3,0,5.916,0,9.5v.5h3v9h-.5c-1.379,0-2.5,1.121-2.5,2.5s1.121,2.5,2.5,2.5h21.5v-1H2.5c-.827,0-1.5-.673-1.5-1.5s.673-1.5,1.5-1.5h21.5v-1h-4v-9.5c2.347-.982,4-3.301,4-6Zm-17.5.5h13.5c1.193,0,2.267-.525,3-1.357v.857c0,3.032-2.468,5.5-5.5,5.5H1.022c.253-2.8,2.613-5,5.478-5Zm4.5,6v9h-3v-9h3Zm1,0h3v9h-3v-9Zm-8,0h3v9h-3v-9Zm15,9h-3v-9h1.5c.516,0,1.018-.061,1.5-.175v9.175Z"/></svg>
