<?xml version="1.0" encoding="UTF-8"?>
<svg xmlns="http://www.w3.org/2000/svg" id="Layer_1" data-name="Layer 1" viewBox="0 0 24 24" width="512" height="512"><path d="m1,2.5c0-.827.673-1.5,1.5-1.5h9.5v7h7v1.766c.308-.202.648-.35,1-.472v-2.001L12.707,0H2.5C1.122,0,0,1.122,0,2.5v21.5h9v-1H1V2.5Zm12-.793l5.293,5.293h-5.293V1.707Zm10.268,10.025c-.943-.944-2.592-.944-3.535,0l-8.732,8.732v3.536h3.536l8.732-8.732c.472-.472.732-1.1.732-1.768s-.26-1.296-.732-1.768Zm-.707,2.828l-8.439,8.439h-2.122v-2.122l8.439-8.439c.566-.566,1.555-.566,2.121,0,.283.283.439.66.439,1.061s-.156.777-.439,1.061Z"/></svg>
