<?xml version="1.0" encoding="UTF-8"?>
<svg xmlns="http://www.w3.org/2000/svg" id="Layer_1" data-name="Layer 1" viewBox="0 0 24 24" width="512" height="512"><path d="m23.472,1.964c-.41-.526-1.001-.862-1.662-.944-.619-.08-1.318.097-1.848.512-.016.012-.03.024-.046.037-.087-.214-.203-.417-.35-.604-.41-.527-1.001-.862-1.66-.943-.102-.014-.214-.021-.325-.021-1.252,0-2.312.944-2.462,2.17l-1.165,6.625-2.346-6.979c-.304-1.069-1.293-1.815-2.406-1.815-.232,0-.465.033-.687.097-.639.182-1.17.604-1.497,1.188-.158.287-.259.595-.297.914-.521-.242-1.16-.297-1.727-.13-.64.182-1.17.604-1.494,1.188-.325.584-.403,1.259-.21,1.933l3.788,10.536-2.876-2.056c-.947-.886-2.628-.845-3.529.118-.942,1.009-.889,2.596.125,3.544l7.424,6.668h13.219l2.54-20.192c.082-.663-.1-1.317-.51-1.843Zm-.482,1.72l-2.431,19.316h-11.953l-7.131-6.406c-.604-.565-.636-1.518-.07-2.124.54-.579,1.5-.64,2.167-.029l4.592,3.207.438-.643L4.242,4.883c-.109-.385-.062-.79.133-1.141.194-.351.512-.604.897-.713.661-.195,1.395.125,1.734.751l2.649,7.564.944-.329L7.761,2.912c-.109-.385-.062-.79.132-1.14.196-.351.515-.604.898-.713.769-.223,1.637.262,1.862,1.053l2.987,8.889h.941l1.525-8.682c.102-.818.884-1.405,1.672-1.305.397.049.752.25.998.566.247.316.356.71.308,1.106l-1.269,8.238.988.153,1.224-7.861c.068-.354.264-.672.55-.896.318-.25.728-.354,1.105-.307.398.05.753.25.999.566.247.316.355.708.307,1.105Z"/></svg>
