<?xml version="1.0" encoding="UTF-8"?>
<svg xmlns="http://www.w3.org/2000/svg" id="Layer_1" data-name="Layer 1" viewBox="0 0 24 24">
  <path d="m16.5,0c-4.275,0-7.5,1.505-7.5,3.5v4c0,.923.773,1.6.827,1.649,0,0,.002.002.003.003,1.223,1.118,3.692,1.849,6.67,1.849,2.846,0,5.227-.667,6.5-1.702v2.202c0,1.183-2.67,2.5-6.5,2.5-.839,0-1.622-.063-2.333-.174.165.344.307.701.426,1.069.605.069,1.243.105,1.907.105,2.846,0,5.227-.667,6.5-1.702v2.202c0,1.183-2.67,2.5-6.5,2.5-.527,0-1.032-.025-1.511-.071-.017.338-.054.67-.109.996.519.049,1.06.075,1.62.075,2.846,0,5.227-.667,6.5-1.702v2.202c0,1.183-2.67,2.5-6.5,2.5-.965,0-1.857-.084-2.651-.228-.183.315-.387.617-.608.904.975.208,2.076.324,3.258.324,4.275,0,7.5-1.505,7.5-3.5V3.5c0-1.995-3.225-3.5-7.5-3.5Zm0,1c3.83,0,6.5,1.317,6.5,2.5s-2.67,2.5-6.5,2.5-6.5-1.317-6.5-2.5,2.67-2.5,6.5-2.5Zm0,9c-3.83,0-6.5-1.317-6.5-2.5v-2.202c1.273,1.035,3.654,1.702,6.5,1.702s5.227-.667,6.5-1.702v2.202c0,1.183-2.67,2.5-6.5,2.5Zm-8.903,4.459l2.223,2.222-.707.707-2.112-2.111v5.223h-1v-5.247l-2.123,2.123-.707-.707,2.21-2.21c.611-.611,1.605-.611,2.217,0Zm-1.097-3.459c-3.584,0-6.5,2.916-6.5,6.5s2.916,6.5,6.5,6.5,6.5-2.916,6.5-6.5-2.916-6.5-6.5-6.5Zm0,12c-3.032,0-5.5-2.467-5.5-5.5s2.468-5.5,5.5-5.5,5.5,2.467,5.5,5.5-2.468,5.5-5.5,5.5Z"/>
</svg>
