<?xml version="1.0" encoding="UTF-8"?>
<svg xmlns="http://www.w3.org/2000/svg" id="Layer_1" data-name="Layer 1" width="512" height="512" viewBox="0 0 24 24"><path d="M10.5,5c1.378,0,2.5-1.122,2.5-2.5s-1.122-2.5-2.5-2.5-2.5,1.122-2.5,2.5,1.122,2.5,2.5,2.5Zm0-4c.827,0,1.5,.673,1.5,1.5s-.673,1.5-1.5,1.5-1.5-.673-1.5-1.5,.673-1.5,1.5-1.5Zm10.687,17.271l2.813-3.599v-3.287L14.905,4.109l-.625,.781,1.542,1.234c.166,.391,1.178,2.85,1.177,4.564-.019,1.826-1.574,3.312-3.467,3.312h-2.532v1h2.532c2.439,0,4.443-1.93,4.468-4.365,0-1.042-.33-2.302-.655-3.293l5.655,4.524v2.461l-2.601,3.328c-.668,.854-1.673,1.345-2.758,1.345H7.719l1.103-1.976c.193-.359,.231-.771,.109-1.16-.123-.389-.39-.704-.726-.873l-3.375-1.982c-.358-.179-.625-.487-.752-.867-.127-.38-.098-.787,.057-1.102l2.024-3.211c.179-.358,.487-.625,.867-.752,.379-.127,.786-.098,1.145,.081,.177,.089,.74,.389,1.454,.773l-2.32,3.795,.854,.521,2.348-3.841c1.685,.91,3.646,1.976,3.678,1.994l.478-.879c-.22-.12-5.408-2.94-6.044-3.258-.598-.298-1.275-.347-1.909-.135-.633,.211-1.147,.656-1.421,1.21l-2.024,3.211c-.298,.597-.347,1.275-.135,1.909,.211,.633,.656,1.147,1.224,1.429l3.373,1.981c.122,.061,.21,.167,.251,.296,.041,.13,.028,.267-.032,.379l-1.371,2.456H2.998l-1.942-4h1.436c-.324-.291-.606-.624-.832-1H0v1.115l1.92,3.954c-1.099,.263-1.92,1.253-1.92,2.431,0,1.378,1.122,2.5,2.5,2.5h7c1.378,0,2.5-1.122,2.5-2.5,0-.562-.187-1.082-.501-1.5h5.692l1.5,3h-3.691v1h5.5c1.93,0,3.5-1.57,3.5-3.5v-.5h-1v.5c0,1.378-1.122,2.5-2.5,2.5h-.691l-1.523-3.046c1.143-.163,2.176-.756,2.901-1.683Zm-10.187,3.229c0,.827-.673,1.5-1.5,1.5H2.5c-.827,0-1.5-.673-1.5-1.5s.673-1.5,1.5-1.5h7c.827,0,1.5,.673,1.5,1.5Z"/></svg>
