<?xml version="1.0" encoding="UTF-8"?>
<svg xmlns="http://www.w3.org/2000/svg" id="Layer_1" data-name="Layer 1" viewBox="0 0 24 24">
  <path d="m12,10c-2.628.047-2.628,3.953,0,4,2.628-.047,2.628-3.954,0-4Zm0,3c-1.307-.007-1.307-1.993,0-2,1.307.007,1.307,1.993,0,2Z"/>
  <path d="m24,12c0-1.668-1.544-3.184-4.229-4.207,1.285-6.335-2.772-8.917-7.771-4.729C7.001-1.127,2.945,1.46,4.229,7.793c-5.596,2.016-5.595,6.399,0,8.414-1.342,6.636,3.112,8.742,7.771,4.736,4.661,4.009,9.112,1.896,7.771-4.736,2.686-1.023,4.229-2.538,4.229-4.207Zm-6.262-9.694c1.947.932,1.244,6.016.167,8.438-.643-1.29-1.487-2.716-2.332-3.85h0c-.837-1.152-1.768-2.211-2.802-3.18,2.005-1.58,3.839-2.107,4.967-1.408Zm-.92,10.882c-.547,1.074-1.218,2.165-1.925,3.145-1.922.215-3.864.215-5.786,0-.971-1.341-1.821-2.823-2.485-4.333.664-1.511,1.515-2.991,2.485-4.333,1.921-.217,3.865-.217,5.786,0,.97,1.342,1.821,2.822,2.485,4.333-.173.391-.372.794-.561,1.188ZM6.263,2.305c2.629-1.286,5.983,2.087,7.809,4.275-2.974-.203-6.05.001-8.899.874-.436-2.548-.041-4.453,1.089-5.149ZM1,12c-.187-2.047,4.34-3.836,6.754-4.14-1.523,2.306-2.649,4.747-3.324,7.364-2.159-.852-3.43-2.036-3.43-3.224Zm5.263,9.694c-1.948-.934-1.244-6.016-.167-8.438,1.304,2.615,3.009,5.045,5.134,7.03-2.005,1.58-3.84,2.11-4.967,1.408Zm11.475,0h0c-1.937,1.414-6.226-2.076-7.809-4.274,2.974.203,6.051,0,8.899-.875.436,2.549.041,4.453-1.089,5.149Zm1.305-6.275c-.895.313-1.844.543-2.796.721,1.524-2.307,2.649-4.747,3.324-7.363,4.836,1.866,4.364,4.996-.527,6.643Z"/>
</svg>
