<?xml version="1.0" encoding="UTF-8"?>
<svg xmlns="http://www.w3.org/2000/svg" id="Layer_1" data-name="Layer 1" viewBox="0 0 24 24">
  <path d="m7.838,13.916l.803.548-1.667,4.537h-1l1.863-5.084Zm3.162,5.084h1v-2.159l-1-.682v2.841Zm12.525,1.157c-.646,1.154-1.815,1.843-3.127,1.843H3.598c-1.312,0-2.48-.689-3.127-1.843-.659-1.176-.632-2.564.072-3.713L8.95,2.721c.68-1.11,1.767-1.721,3.06-1.721,1.278,0,2.356.611,3.036,1.721l8.407,13.723c.704,1.149.73,2.537.072,3.713Zm-.924-3.19L14.193,3.244c-.506-.825-1.24-1.244-2.184-1.244s-1.708.43-2.207,1.244l-3.784,6.176,2.704,1.776.653-1.88c.192-.537.602-.962,1.126-1.173.522-.211,1.113-.188,1.62.064l.284.142c.649.323,1.143.877,1.391,1.56l1.005,2.929-.946.324-1.002-2.921c-.156-.432-.475-.789-.894-.997l-.284-.142c-.249-.124-.542-.135-.8-.031-.26.104-.462.314-.557.577l-.734,2.114,5.8,3.81,1.78-2.737,3.083,6.166h-7.092l1.684-2.59-9.344-6.137-4.101,6.694c-.512.836-.531,1.846-.052,2.702.467.834,1.31,1.332,2.254,1.332h16.8c.944,0,1.787-.498,2.254-1.332.479-.856.46-1.866-.052-2.702Zm-7.602,1.034h3.631l-1.578-3.157-2.053,3.157Zm-2.999-13c-.552,0-1,.448-1,1s.448,1,1,1,1-.448,1-1-.448-1-1-1Z"/>
</svg>
