<?xml version="1.0" encoding="UTF-8"?>
<svg xmlns="http://www.w3.org/2000/svg" id="Layer_1" data-name="Layer 1" viewBox="0 0 24 24">
  <path d="m12,0C5.383,0,0,5.383,0,12s5.383,12,12,12,12-5.383,12-12S18.617,0,12,0Zm0,23c-6.065,0-11-4.935-11-11S5.935,1,12,1s11,4.935,11,11-4.935,11-11,11Z"/>
  <path d="m20,8v-1h-3v-3h-1v3h-3.5v-3h-1v3h-3.5v-3h-1v3h-3v1h3v3.5h-3v1h3v3.5h-3v1h3v3h1v-3h3.5v3h1v-3h3.5v3h1v-3h3v-1h-3v-3.5h3v-1h-3v-3.5h3Zm-12,0h3.5v3.5h-3.5v-3.5Zm0,8v-3.5h3.5v3.5h-3.5Zm8,0h-3.5v-3.5h3.5v3.5Zm0-4.5h-3.5v-3.5h3.5v3.5Z"/>
</svg>
