<?xml version="1.0" encoding="UTF-8"?>
<svg xmlns="http://www.w3.org/2000/svg" id="Layer_1" data-name="Layer 1" viewBox="0 0 24 24">
  <path d="m21.5,2h-3.5V0h-1v2H7V0h-1v2h-3.5c-1.378,0-2.5,1.122-2.5,2.5v19.5h12.721c-.348-.306-.67-.639-.96-1H1v-14h22v2.773c.359.289.696.602,1,.948V4.5c0-1.378-1.122-2.5-2.5-2.5ZM1,8v-3.5c0-.827.673-1.5,1.5-1.5h19c.827,0,1.5.673,1.5,1.5v3.5H1Zm17,4c-3.309,0-6,2.691-6,6s2.691,6,6,6,6-2.691,6-6-2.691-6-6-6Zm-2,10.582v-1.582c0-.551.449-1,1-1h2c.551,0,1,.449,1,1v1.582c-.613.269-1.289.418-2,.418s-1.387-.149-2-.418Zm5-.585v-.997c0-1.103-.897-2-2-2h-2c-1.103,0-2,.897-2,2v.997c-1.214-.913-2-2.365-2-3.997,0-2.757,2.243-5,5-5s5,2.243,5,5c0,1.632-.786,3.084-2,3.997Zm-3-7.997c-1.103,0-2,.897-2,2s.897,2,2,2,2-.897,2-2-.897-2-2-2Zm0,3c-.551,0-1-.449-1-1s.449-1,1-1,1,.449,1,1-.449,1-1,1Z"/>
</svg>
