<?xml version="1.0" encoding="UTF-8"?>
<svg xmlns="http://www.w3.org/2000/svg" id="Layer_1" data-name="Layer 1" viewBox="0 0 24 24">
  <path d="m1,23h9v1H0V2.5C0,1.121,1.121,0,2.5,0h11c1.379,0,2.5,1.121,2.5,2.5v7.551c-.354.051-.689.151-1,.301V2.5c0-.827-.673-1.5-1.5-1.5H2.5c-.827,0-1.5.673-1.5,1.5v20.5Zm6-10h-3v1h3v-1Zm-3,5h3v-1h-3v1Zm3-13h-3v1h3v-1Zm5,0h-3v1h3v-1Zm-5,4h-3v1h3v-1Zm2,1h3v-1h-3v1Zm15,6v8h-12v-8c0-1.103.897-2,2-2h1v-.5c0-.827.673-1.5,1.5-1.5h3c.827,0,1.5.673,1.5,1.5v.5h1c1.103,0,2,.897,2,2Zm-8-2h4v-.5c0-.275-.225-.5-.5-.5h-3c-.275,0-.5.225-.5.5v.5Zm-3,2v2h10v-2c0-.552-.448-1-1-1h-8c-.552,0-1,.448-1,1Zm10,7v-4h-4.5v2h-1v-2h-4.5v4h10Zm-14-9h1.556c.221-.378.498-.714.826-1h-2.382v1Z"/>
</svg>
