<?xml version="1.0" encoding="UTF-8"?>
<svg xmlns="http://www.w3.org/2000/svg" id="Layer_1" data-name="Layer 1" viewBox="0 0 24 24" width="512" height="512"><path d="m15.16,8.162l7.096-7.124c-.082-.024-.168-.037-.256-.037h-5V0h5c1.087,0,1.971.897,1.971,2l.029,4.997-1,.006-.029-5c0-.081-.01-.16-.029-.236l-7.073,7.101-.709-.706Zm2.367,5.675l5.68,5.68-2.88,2.879c-1.032,1.034-2.432,1.604-3.94,1.604C9.188,24,0,14.812,0,7.614c0-1.509.57-2.909,1.604-3.941L4.483.793l5.68,5.679-3.372,3.373c1.489,3.51,3.964,5.987,7.359,7.369l3.377-3.377Zm4.266,5.68l-4.266-4.266-3.131,3.131-.303-.116c-3.92-1.496-6.731-4.307-8.356-8.352l-.123-.307,3.135-3.135L4.483,2.208l-2.172,2.172c-.846.844-1.312,1.993-1.312,3.234,0,6.615,8.771,15.386,15.387,15.386,1.241,0,2.389-.466,3.233-1.312l2.173-2.172Z"/></svg>
