<?xml version="1.0" encoding="UTF-8"?>
<svg xmlns="http://www.w3.org/2000/svg" id="Layer_1" data-name="Layer 1" viewBox="0 0 24 24">
  <path d="m18.852,12.632c.199-.401.199-.862,0-1.264-.679-1.368-3.345-4.368-6.852-4.368s-6.173,3-6.852,4.368c-.199.402-.199.862,0,1.264.679,1.369,3.346,4.368,6.852,4.368s6.173-3,6.852-4.368Zm-6.852,3.368c-3.342,0-5.58-3.056-5.955-3.812-.06-.119-.06-.255,0-.375.504-1.018,2.853-3.812,5.955-3.812s5.451,2.795,5.955,3.812h0c.061.121.061.254,0,.375-.504,1.018-2.853,3.812-5.955,3.812Zm0-6.5c-1.379,0-2.5,1.121-2.5,2.5s1.121,2.5,2.5,2.5,2.5-1.121,2.5-2.5-1.121-2.5-2.5-2.5Zm0,4c-.827,0-1.5-.673-1.5-1.5s.673-1.5,1.5-1.5,1.5.673,1.5,1.5-.673,1.5-1.5,1.5Zm-6.707-7.5L.069.776.776.069l5.224,5.224V1h1v4.5c0,.827-.673,1.5-1.5,1.5H1v-1h4.293Zm11.719-.488l-.012-4.511,1-.002.011,4.283L23.224.069l.707.707-5.224,5.224h4.293v1h-4.5c-.82,0-1.488-.668-1.488-1.488Zm-10.012,12.988v4.5h-1v-4.293L.776,23.931l-.707-.707,5.224-5.224H1v-1h4.5c.827,0,1.5.673,1.5,1.5Zm11.707-.5l5.224,5.224-.707.707-5.213-5.213-.011,4.283-1-.002.012-4.512c0-.819.668-1.487,1.488-1.487h4.5v1h-4.293Z"/>
</svg>
