<?xml version="1.0" encoding="UTF-8"?>
<svg xmlns="http://www.w3.org/2000/svg" id="Layer_1" data-name="Layer 1" viewBox="0 0 24 24">
  <path d="m21,4c1.103,0,2-.897,2-2s-.897-2-2-2-2,.897-2,2,.897,2,2,2Zm0-3c.551,0,1,.449,1,1s-.449,1-1,1-1-.449-1-1,.449-1,1-1ZM3,4c1.103,0,2-.897,2-2S4.103,0,3,0,1,.897,1,2s.897,2,2,2Zm0-3c.551,0,1,.449,1,1s-.449,1-1,1-1-.449-1-1,.449-1,1-1Zm1,5H1.5c-.276,0-.5.224-.5.5v1.5H0v-1.5c0-.828.672-1.5,1.5-1.5h2.569c-.041.328-.069.661-.069,1Zm20,.5v1.5h-1v-1.5c0-.276-.224-.5-.5-.5h-2.5c0-.339-.028-.672-.069-1h2.569c.828,0,1.5.672,1.5,1.5Zm-10-2.5c0-1.103-.897-2-2-2s-2,.897-2,2,.897,2,2,2,2-.897,2-2Zm-3,0c0-.551.449-1,1-1s1,.449,1,1-.449,1-1,1-1-.449-1-1Zm3.5,13.108l8.502,3v3.893h-1v-3.185l-8.502-3v-5.209c0-.789-.535-1.471-1.245-1.586-.452-.073-.886.046-1.227.336-.336.286-.529.703-.529,1.143v9.637s-3.469-2.763-3.48-2.773c-.606-.562-1.554-.53-2.115.072-.565.604-.534,1.557.064,2.118l2.535,2.446h-1.44l-1.783-1.722c-1-.937-1.048-2.518-.106-3.524.93-.997,2.491-1.055,3.499-.143l1.827,1.452v-7.562c0-.734.321-1.429.881-1.905.56-.476,1.304-.678,2.035-.562,1.188.194,2.084,1.3,2.084,2.573v4.501ZM6,6C6,2.692,8.691,0,12,0s6,2.691,6,6c0,1.75-.779,3.362-2.031,4.477-.156-.303-.332-.593-.547-.853.977-.923,1.578-2.22,1.578-3.624,0-2.757-2.243-5-5-5s-5,2.243-5,5c0,1.4.597,2.694,1.569,3.617-.219.261-.409.54-.562.841-1.239-1.115-2.007-2.718-2.007-4.458Zm5,1h2c1.103,0,2,.897,2,2v.195c-.361-.336-.776-.607-1.231-.809-.183-.23-.453-.386-.769-.386h-2c-.318,0-.59.159-.773.392-.407.175-.798.388-1.142.68-.032.027-.054.062-.085.09v-.162c0-1.103.897-2,2-2Z"/>
</svg>
