<?xml version="1.0" encoding="UTF-8"?>
<svg xmlns="http://www.w3.org/2000/svg" id="Layer_1" data-name="Layer 1" viewBox="0 0 24 24">
  <path d="m7.005,12.824c1.544,1.425,3.546,1.654,4.495,1.675v2.5h1v-2.506c.949-.021,2.952-.248,4.501-1.67,1.325-1.217,1.997-3.008,1.997-5.324v-.5h-.5c-3.18,0-5.399,1.44-6.5,4.188-1.102-2.715-3.348-4.188-6.466-4.188h-.498l-.002.498c-.011,2.316.653,4.108,1.973,5.327Zm10.98-4.81c-.088,1.769-.644,3.136-1.654,4.067-1.287,1.186-3.019,1.386-3.831,1.41v-.492h0v-.03c.685-3.121,2.53-4.786,5.486-4.956Zm-6.486,4.956v.527c-.813-.025-2.542-.227-3.822-1.414-1.006-.932-1.555-2.299-1.635-4.069,2.945.169,4.78,1.834,5.457,4.956Zm10.501-8.867l1.758-4.103H.242l1.758,4.103v15.795L.244,24.024h23.512l-1.756-4.126V4.103ZM1.758,1h20.484l-.858,2H2.586l-.828-2Zm19.242,19H2.96l.04-16h18.04l-.04,16Zm1.244,3.024H1.756l.862-2.024h18.794l.833,2.024Z"/>
</svg>
