<?xml version="1.0" encoding="UTF-8"?>
<svg xmlns="http://www.w3.org/2000/svg" id="Layer_1" data-name="Layer 1" viewBox="0 0 24 24" width="512" height="512"><path d="M12,0C5.383,0,0,5.383,0,12s5.383,12,12,12,12-5.383,12-12S18.617,0,12,0Zm0,23c-6.065,0-11-4.935-11-11S5.935,1,12,1s11,4.935,11,11-4.935,11-11,11Z"/><path d="M7,16h2v.5c0,1.684,1.147,3.5,3,3.5s3-1.816,3-3.5v-.5h2v-1H7v1Zm7,.5c0,1.202-.765,2.5-2,2.5s-2-1.298-2-2.5v-.5h4v.5Z"/><path d="M17,6.5c-1.93,0-3.5,1.57-3.5,3.5s1.57,3.5,3.5,3.5,3.5-1.57,3.5-3.5-1.57-3.5-3.5-3.5Zm0,6c-1.379,0-2.5-1.121-2.5-2.5s1.121-2.5,2.5-2.5,2.5,1.121,2.5,2.5-1.121,2.5-2.5,2.5Z"/><circle cx="17" cy="10" r="1"/><path d="M7.607,10.007c.755,.05,1.499,.387,2.041,.923l.703-.711c-.71-.703-1.686-1.144-2.678-1.21-.814-.053-2.02,.115-3.132,1.239l.711,.703c.846-.854,1.739-.984,2.354-.944Z"/></svg>
