<?xml version="1.0" encoding="UTF-8"?>
<svg xmlns="http://www.w3.org/2000/svg" id="Layer_1" data-name="Layer 1" viewBox="0 0 24 24">
  <path d="m21,12c0,.552-.448,1-1,1s-1-.448-1-1,.448-1,1-1,1,.448,1,1Zm-1,7c-.552,0-1,.448-1,1s.448,1,1,1,1-.448,1-1-.448-1-1-1Zm-16,0c-.552,0-1,.448-1,1s.448,1,1,1,1-.448,1-1-.448-1-1-1Zm0-8c-.552,0-1,.448-1,1s.448,1,1,1,1-.448,1-1-.448-1-1-1Zm17.5-3h-.5v1h.5c.827,0,1.5.673,1.5,1.5v12.5H1v-12.5c0-.827.673-1.5,1.5-1.5h13.5v-1H2.5c-1.378,0-2.5,1.122-2.5,2.5v13.5h24v-13.5c0-1.378-1.122-2.5-2.5-2.5Zm-9.5,4c2.206,0,4,1.794,4,4s-1.794,4-4,4-4-1.794-4-4,1.794-4,4-4Zm0,1c-1.654,0-3,1.346-3,3s1.346,3,3,3,3-1.346,3-3-1.346-3-3-3ZM18,1.279v7.721h1V1.318l3.016,3.017.707-.707-3.182-3.182c-.585-.585-1.537-.584-2.122,0l-3.182,3.182.707.707,3.055-3.055Z"/>
</svg>
