<?xml version="1.0" encoding="UTF-8"?>
<svg xmlns="http://www.w3.org/2000/svg" id="Layer_1" data-name="Layer 1" viewBox="0 0 24 24" width="512" height="512"><path d="M17,12h-4v-1h4v1Zm0,4h-6v1h6v-1Zm4,5.5V2h-5.05c-.232-1.14-1.242-2-2.45-2h-3c-1.208,0-2.217,.86-2.45,2H3V21.5c0,1.378,1.122,2.5,2.5,2.5h13c1.378,0,2.5-1.122,2.5-2.5ZM9,3v-.5c0-.827,.673-1.5,1.5-1.5h3c.827,0,1.5,.673,1.5,1.5v.5h5V21.5c0,.827-.673,1.5-1.5,1.5H5.5c-.827,0-1.5-.673-1.5-1.5V3h5Zm.489,8.661l3.362-3.305-.701-.713-3.365,3.308c-.056,.056-.18,.055-.242-.006l-1.779-1.721-.695,.719,1.773,1.715c.22,.22,.513,.342,.825,.342s.605-.122,.822-.339Zm-.489,4.339h-2v1h2v-1Z"/></svg>
