<?xml version="1.0" encoding="UTF-8"?>
<svg xmlns="http://www.w3.org/2000/svg" id="Layer_1" data-name="Layer 1" viewBox="0 0 24 24" width="512" height="512"><path d="M23.065,.935c-1.045-1.045-2.941-1.22-5.341-.493-1.954,.592-3.937,1.694-5.052,2.81-1.079,1.079-1.673,2.513-1.673,4.038,0,1.358,.471,2.642,1.335,3.669L.007,23.286l.707,.707L13.042,11.665c1.027,.864,2.312,1.335,3.669,1.335,1.525,0,2.959-.594,4.038-1.673,1.115-1.115,2.218-3.098,2.81-5.052,.727-2.399,.552-4.296-.493-5.341Zm-.464,5.052c-.539,1.779-1.567,3.642-2.56,4.634-.89,.89-2.073,1.38-3.331,1.38s-2.441-.49-3.331-1.38-1.38-2.073-1.38-3.331,.49-2.441,1.38-3.331c.992-.992,2.854-2.021,4.634-2.56,.88-.267,1.678-.398,2.361-.398,.872,0,1.558,.216,1.983,.642,.76,.761,.849,2.344,.243,4.345Z"/></svg>
