<?xml version="1.0" encoding="UTF-8"?>
<svg xmlns="http://www.w3.org/2000/svg" id="Layer_1" data-name="Layer 1" viewBox="0 0 24 24">
  <path d="m24,0v1h-8V0h8Zm-8,21h8v-1h-8v1Zm0-9h8v-1h-8v1Zm0-6h8v-2h-8v2Zm0,3h8v-2h-8v2Zm0,9h8v-2h-8v2Zm0-3h8v-1h-8v1Zm0,9h8v-1h-8v1ZM4.5,4h9.5v9h-5.141l-.672,2h.813v1h-1.149l-1.973,5.873c-.396,1.275-1.584,2.099-2.863,2.099-.294,0-.593-.043-.889-.135-1.579-.491-2.465-2.176-1.975-3.755l2.512-7.474c-1.568-.704-2.663-2.28-2.663-4.108,0-2.481,2.019-4.5,4.5-4.5Zm3.305,9h-3.305c-.303,0-.599-.03-.885-.088l-2.513,7.477c-.323,1.042.268,2.165,1.32,2.493,1.061.328,2.176-.264,2.504-1.316l2.878-8.565Zm5.195-8H4.5c-1.93,0-3.5,1.57-3.5,3.5s1.57,3.5,3.5,3.5h8.5v-7Z"/>
</svg>
