<?xml version="1.0" encoding="UTF-8"?>
<svg xmlns="http://www.w3.org/2000/svg" id="Layer_1" data-name="Layer 1" width="512" height="512" viewBox="0 0 24 24"><path d="M9,15h1v3h-1v-3Zm-3,9h1v-3h-1v3Zm6,0h1v-3h-1v3ZM17.002,5.023C15.87,2.004,12.999,0,9.75,0,5.477,0,2,3.477,2,7.75c0,.763,.116,1.523,.345,2.266-1.476,1.033-2.345,2.681-2.345,4.484,0,2.512,1.695,4.633,4,5.288v-1.082c-1.741-.618-3-2.254-3-4.206,0-1.583,.822-3.021,2.2-3.847l.354-.212-.141-.388c-.273-.752-.412-1.527-.412-2.304,0-3.722,3.028-6.75,6.75-6.75,2.931,0,5.51,1.874,6.417,4.662l.11,.338,.355,.007c3.512,.071,6.368,2.983,6.368,6.493,0,2.29-1.237,4.388-3,5.545v1.151c2.32-1.249,4-3.843,4-6.697,0-3.933-3.108-7.216-6.998-7.477Zm-2.002,12.977h1v-3h-1v3Zm3,6h1v-3h-1v3Z"/></svg>
