<?xml version="1.0" encoding="UTF-8"?>
<svg xmlns="http://www.w3.org/2000/svg" id="Layer_1" data-name="Layer 1" viewBox="0 0 24 24" width="512" height="512"><path d="M21.12,1.6c-.56-.48-1.3-.68-2.04-.56-1.19,.19-2.08,1.3-2.08,2.57v4.89c-.42-.31-.94-.5-1.5-.5-.82,0-1.54,.39-2,1-.46-.61-1.18-1-2-1-.56,0-1.08,.19-1.5,.5V2.61C10,1.33,9.1,.23,7.92,.03c-.73-.12-1.47,.09-2.04,.56-.56,.48-.88,1.17-.88,1.9V10.5h.01c-.11,.08-.22,.17-.32,.27l-2.99,3.75c-.93,1.12-.92,2.56,.03,3.5l6.06,5.97h14.21V3.5c0-.73-.32-1.43-.88-1.9Zm-5.62,7.4c.83,0,1.5,.67,1.5,1.5v2c0,.83-.67,1.5-1.5,1.5s-1.5-.67-1.5-1.5v-2c0-.83,.67-1.5,1.5-1.5Zm-4,0c.83,0,1.5,.67,1.5,1.5v2c0,.83-.67,1.5-1.5,1.5s-1.5-.67-1.5-1.5v-2c0-.83,.67-1.5,1.5-1.5Zm9.5,14H8.21l-5.77-5.68c-.58-.58-.56-1.44,.04-2.16l2.96-3.72c.57-.57,1.55-.57,2.12,0,.28,.28,.44,.66,.44,1.06s-.16,.78-.48,1.11l-2.41,3.09,.79,.62,2.37-3.04c.47-.47,.73-1.1,.73-1.77s-.26-1.3-.73-1.77c-.6-.6-1.46-.83-2.27-.67V2.5c0-.44,.19-.86,.53-1.14,.34-.29,.78-.41,1.23-.34,.71,.12,1.24,.8,1.24,1.59V12.5c0,1.38,1.12,2.5,2.5,2.5,.82,0,1.54-.39,2-1,.46,.61,1.18,1,2,1,1.38,0,2.5-1.12,2.5-2.5V3.61c0-.79,.54-1.47,1.24-1.59,.45-.08,.89,.05,1.23,.34,.34,.29,.53,.7,.53,1.14V23Z"/></svg>
