<?xml version="1.0" encoding="UTF-8"?>
<svg xmlns="http://www.w3.org/2000/svg" id="Layer_1" data-name="Layer 1" viewBox="0 0 24 24" width="512" height="512"><path d="M1,7H0V2.5C0,1.12,1.12,0,2.5,0H7V1H2.5c-.83,0-1.5,.67-1.5,1.5V7Zm0,14.5v-4.5H0v4.5c0,1.38,1.12,2.5,2.5,2.5H7v-1H2.5c-.83,0-1.5-.67-1.5-1.5ZM24.01,4l-7.01,4V0l7.01,4Zm-6.01,2.28l3.99-2.28-3.99-2.28V6.28Zm5,15.22c0,.83-.67,1.5-1.5,1.5h-4.5v1h4.5c1.38,0,2.5-1.12,2.5-2.5v-4.5h-1v4.5Zm-7.84-8.15l1.17,3.91-.67,.51-3.66-2.37-3.65,2.37-.67-.51,1.17-3.91-3.13-2.52v-.83h4.34l1.52-4.34h.85l1.52,4.34h4.34v.83l-3.13,2.52Zm-.22,2.77l-.93-3.12,2.47-1.99h-3.25l-1.24-3.53-1.24,3.53h-3.25l2.47,1.99-.93,3.12,2.94-1.91,2.94,1.91Z"/></svg>
