<?xml version="1.0" encoding="UTF-8"?>
<svg xmlns="http://www.w3.org/2000/svg" id="Layer_1" data-name="Layer 1" viewBox="0 0 24 24">
  <path d="m12,4c.552,0,1,.448,1,1s-.448,1-1,1-1-.448-1-1,.448-1,1-1ZM2,3c.552,0,1-.448,1-1s-.448-1-1-1-1,.448-1,1,.448,1,1,1Zm13-1c0-1.103.897-2,2-2s2,.897,2,2-.897,2-2,2-2-.897-2-2Zm1,0c0,.551.448,1,1,1s1-.449,1-1-.448-1-1-1-1,.449-1,1Zm-.43,5.178c.622.461,1.151,1.04,1.556,1.703,1.722,1.056,2.874,2.955,2.874,5.119,0,4.962-4.071,9-9.126,8.999-.021,0-.011,0,0,0-.09.351-.227.684-.404.991.176.006.352.01.53.01,5.514,0,10-4.486,10-10,0-3.32-2.324-6.107-5.43-6.822ZM0,17.318v1.619c.877,1.021,1.894,1.919,3.02,2.664.036-.363.121-.713.248-1.041-1.265-.887-2.371-1.985-3.267-3.243Zm8.43-.495c-.622-.461-1.151-1.04-1.556-1.703-1.722-1.056-2.874-2.955-2.874-5.119C4,5.038,8.066,1.011,13.126,1.001c.021,0,.011,0,0,0,.09-.351.227-.684.404-.991-.176-.006-.352-.01-.53-.01C7.486,0,3,4.486,3,10c0,3.32,2.324,6.107,5.43,6.822Zm3.57-.822c-2.206,0-4-1.794-4-4s1.794-4,4-4,4,1.794,4,4-1.794,4-4,4Zm0-1c1.654,0,3-1.346,3-3s-1.346-3-3-3-3,1.346-3,3,1.346,3,3,3Zm0,4c0,.552.448,1,1,1s1-.448,1-1-.448-1-1-1-1,.448-1,1Zm8,3c-.552,0-1,.448-1,1s.448,1,1,1,1-.448,1-1-.448-1-1-1Zm.98-19.601c-.036.363-.121.713-.248,1.041,1.265.887,2.371,1.985,3.267,3.243v-1.619c-.877-1.021-1.894-1.919-3.02-2.664Zm2.02,15.601c-.552,0-1,.448-1,1s.448,1,1,1,1-.448,1-1-.448-1-1-1Zm-14,4c0,1.103-.897,2-2,2s-2-.897-2-2,.897-2,2-2,2,.897,2,2Zm-1,0c0-.552-.448-1-1-1s-1,.448-1,1,.448,1,1,1,1-.448,1-1Z"/>
</svg>
