<?xml version="1.0" encoding="UTF-8"?>
<svg xmlns="http://www.w3.org/2000/svg" id="Layer_1" data-name="Layer 1" viewBox="0 0 24 24" width="512" height="512"><path d="M14.509,6.172c.137-2.586,1.875-4.172,3.491-4.172V1c-2.069,0-4.294,1.921-4.486,5.058-.324-.026-.662-.044-1.014-.052V0h-1V6.006c-.352,.008-.69,.026-1.014,.052-.192-3.137-2.418-5.058-4.486-5.058v1c1.616,0,3.355,1.586,3.491,4.172-5.641,.847-6.491,4.701-6.491,8.828,0,4.675,1.09,9,9,9s9-4.325,9-9c0-4.127-.85-7.981-6.491-8.828Zm5.491,8.828c0,1.281-.091,2.436-.34,3.443l-3.402-3.402,3.418-3.418c.237,.992,.324,2.124,.324,3.377Zm-.665-4.45l-3.784,3.784-2.846-2.846,3.774-3.774c1.447,.601,2.334,1.565,2.855,2.836Zm-4.491,4.491l-2.845,2.845-2.846-2.846,2.845-2.845,2.846,2.846Zm-2.846-4.26l-3.416-3.416c.944-.24,2.073-.365,3.418-.365s2.471,.125,3.415,.364l-3.417,3.417Zm-4.48-3.066l3.773,3.773-2.845,2.845-3.781-3.781c.521-1.271,1.408-2.236,2.854-2.837Zm-3.518,7.284c0-1.252,.086-2.383,.323-3.374l3.415,3.415-3.399,3.399c-.249-1.007-.339-2.16-.339-3.44Zm.688,4.505l3.757-3.757,2.846,2.846-3.715,3.715c-1.458-.59-2.357-1.544-2.888-2.803Zm3.96,3.146l3.35-3.35,3.351,3.351c-.93,.229-2.036,.348-3.349,.348s-2.421-.12-3.352-.349Zm7.773-.341l-3.716-3.716,2.845-2.845,3.76,3.76c-.532,1.259-1.431,2.212-2.889,2.801Z"/></svg>
