<?xml version="1.0" encoding="UTF-8"?>
<svg xmlns="http://www.w3.org/2000/svg" id="Layer_1" data-name="Layer 1" viewBox="0 0 24 24">
  <path d="m22,13v-1c0-.815-.444-1.564-1.161-1.955l-7.772-4.239c-.181-.099-.372-.166-.566-.211v-.751l3.959-2.386-3.966-2.458h-.993v5.594c-.195.045-.386.112-.566.211l-7.772,4.239c-.716.39-1.161,1.14-1.161,1.955v1h2v8h-2v3h1v-2h18v2h1v-3h-2v-8h2ZM12.5,1.181l2.041,1.266-2.041,1.229V1.181ZM3.64,10.923l7.772-4.24c.368-.199.808-.199,1.176,0l7.772,4.239c.395.216.64.629.64,1.078H3c0-.449.245-.862.64-1.077Zm6.36,2.077v8h-2v-8h2Zm1,0h2v8h-2v-8Zm3,0h2v8h-2v-8Zm-9,0h2v8h-2v-8Zm14,8h-2v-8h2v8Z"/>
</svg>
