<?xml version="1.0" encoding="UTF-8"?>
<svg xmlns="http://www.w3.org/2000/svg" id="Layer_1" data-name="Layer 1" viewBox="0 0 24 24">
  <path d="m22.771,11.064l-2.771-2.771v15.707h-1v-15.707l-2.767,2.767-.707-.707,2.913-2.914c.584-.585,1.537-.585,2.121,0l2.918,2.918-.707.707ZM11.5,1.293v6.707h1V1.293l2.771,2.771.707-.707L13.061.439c-.584-.585-1.537-.585-2.121,0l-2.913,2.914.707.707,2.767-2.767Zm-3.021,7.064l-2.918-2.918c-.584-.585-1.537-.585-2.121,0l-2.913,2.914.707.707,2.767-2.767v17.707h1V6.293l2.771,2.771.707-.707Zm5.026,3.643h-1.005v-2h-1v2h-1.005c-1.376,0-2.495,1.119-2.495,2.495,0,1.108.744,2.095,1.81,2.399l4.105,1.173c.639.182,1.085.773,1.085,1.438,0,.824-.671,1.495-1.495,1.495h-3.01c-.824,0-1.495-.671-1.495-1.495v-.505h-1v.505c0,1.376,1.119,2.495,2.495,2.495h1.005v2h1v-2h1.005c1.376,0,2.495-1.119,2.495-2.495,0-1.108-.744-2.095-1.81-2.399l-4.105-1.173c-.639-.182-1.085-.773-1.085-1.438,0-.824.671-1.495,1.495-1.495h3.01c.824,0,1.495.671,1.495,1.495v.505h1v-.505c0-1.376-1.119-2.495-2.495-2.495Z"/>
</svg>
