<?xml version="1.0" encoding="UTF-8"?>
<svg xmlns="http://www.w3.org/2000/svg" id="Layer_1" data-name="Layer 1" viewBox="0 0 24 24">
  <path d="m21.5,0H2.5C1.121,0,0,1.122,0,2.5l.002,5.042,1.038,12.458h1.96v1c0,1.654,1.346,3,3,3s3-1.346,3-3v-1h1.231c-.079-.327-.143-.659-.181-1H1.96l-.918-11h21.915l-.312,3.746c.314.292.625.6.925.924l.43-5.17V2.5c0-1.378-1.121-2.5-2.5-2.5Zm-13.5,21c0,1.103-.897,2-2,2s-2-.897-2-2v-1h4v1ZM10,1h4v6h-4V1Zm-1,6h-4V1h4v6ZM15,1h4v6h-4V1ZM2.5,1h1.5v6H1V2.5c0-.827.673-1.5,1.5-1.5Zm20.501,6h-3.001V1h1.5c.827,0,1.5.673,1.5,1.5v4.5Zm-3.233,4.892c-.529-.443-1.03-.863-1.413-1.246l-.38-.38-.352.406c-.852.983-1.134,2.09-1.361,2.98-.274,1.076-.396,1.347-.799,1.347-.247,0-.46-.825-.462-1.5l-.003-1.231-.856.883c-.977,1.008-2.141,2.689-2.141,4.973,0,3.308,2.69,5.999,5.998,6,0,0,0,0,.001,0,0,0,0,0,0,0,0,0,0,0,0,0,3.309,0,6-2.691,6-6,0-2.688-2.348-4.653-4.233-6.233Zm-.706,10.793c-.586.584-1.536.585-2.122,0-.584-.586-.584-1.538,0-2.123l1.062-1.061,1.061,1.061c.283.284.439.661.439,1.062s-.156.777-.439,1.061Zm1.269-.163c.109-.283.171-.585.171-.897,0-.668-.26-1.296-.732-1.769l-1.768-1.768-1.769,1.768c-.719.719-.903,1.771-.56,2.666-1.58-.841-2.671-2.486-2.671-4.397,0-1.415.532-2.568,1.148-3.428.197.724.605,1.303,1.313,1.303,1.232,0,1.505-1.067,1.769-2.1.176-.688.37-1.454.831-2.154.324.293.687.597,1.063.912,1.727,1.446,3.875,3.246,3.875,5.466,0,1.911-1.091,3.556-2.671,4.397Z"/>
</svg>
