<?xml version="1.0" encoding="UTF-8"?>
<svg xmlns="http://www.w3.org/2000/svg" id="Layer_1" data-name="Layer 1" viewBox="0 0 24 24">
  <path d="m22.015,5.895l1.955-2.754L20.86.03l-2.754,1.954-.4,3.602-2.413,2.414h-7.293C3.589,8,0,11.589,0,16c0,2.137.832,4.146,2.343,5.657,1.512,1.511,3.521,2.343,5.657,2.343,4.411,0,8-3.589,8-8v-7.293l2.413-2.413,3.602-.399Zm-2.964-3.354l1.699-1.206,1.916,1.915-1.206,1.699-2.71.302.301-2.71Zm-4.051,13.459c0,3.859-3.14,7-7,7-1.869,0-3.627-.729-4.95-2.05-1.322-1.322-2.05-3.08-2.05-4.95,0-3.859,3.14-7,7-7h6.293l-4.556,4.556c-.491-.35-1.09-.556-1.737-.556-1.654,0-3,1.346-3,3s1.346,3,3,3,3-1.346,3-3c0-.647-.206-1.246-.556-1.737l4.556-4.556v6.293Zm-5,0c0,1.103-.897,2-2,2s-2-.897-2-2,.897-2,2-2,2,.897,2,2Z"/>
</svg>
