<?xml version="1.0" encoding="UTF-8"?>
<svg xmlns="http://www.w3.org/2000/svg" id="Layer_1" data-name="Layer 1" viewBox="0 0 24 24" width="512" height="512"><path d="m13,10c0,.552-.448,1-1,1s-1-.448-1-1,.448-1,1-1,1,.448,1,1Zm4-1c-.552,0-1,.448-1,1s.448,1,1,1,1-.448,1-1-.448-1-1-1Zm-10,0c-.552,0-1,.448-1,1s.448,1,1,1,1-.448,1-1-.448-1-1-1ZM24,2.5v17.5h-7.032l-3.985,3.295c-.275.245-.626.368-.978.368-.356,0-.716-.126-1.001-.379l-3.898-3.284H0V2.5C0,1.122,1.121,0,2.5,0h19c1.379,0,2.5,1.122,2.5,2.5Zm-1,0c0-.827-.673-1.5-1.5-1.5H2.5c-.827,0-1.5.673-1.5,1.5v16.5h6.471l4.188,3.527c.199.178.485.176.674.008l4.276-3.536h6.392V2.5Z"/></svg>
