<?xml version="1.0" encoding="UTF-8"?>
<svg xmlns="http://www.w3.org/2000/svg" id="Layer_1" data-name="Layer 1" viewBox="0 0 24 24">
  <path d="m18.5,23h1.5v1h-1.5c-.817,0-1.544-.394-2-1.002-.456.608-1.183,1.002-2,1.002h-1.5v-1h1.5c.827,0,1.5-.673,1.5-1.5V2.5c0-.827-.673-1.5-1.5-1.5h-1.5V0h1.5c.817,0,1.544.394,2,1.002.456-.608,1.183-1.002,2-1.002h1.5v1h-1.5c-.827,0-1.5.673-1.5,1.5v19c0,.827.673,1.5,1.5,1.5Zm-4.5-3H1V5.5c0-.827.673-1.5,1.5-1.5h11.5v-1H2.5c-1.378,0-2.5,1.121-2.5,2.5v15.5h14v-1ZM21.5,3h-2.5v1h2.5c.827,0,1.5.673,1.5,1.5v14.5h-3.5v1h4.5V5.5c0-1.379-1.122-2.5-2.5-2.5Zm-13.5,14v-9h4v-1H3v1h4v9h1Z"/>
</svg>
