<?xml version="1.0" encoding="UTF-8"?>
<svg xmlns="http://www.w3.org/2000/svg" id="Layer_1" data-name="Layer 1" viewBox="0 0 24 24">
  <path d="m22.193,2.83c.479-.251.807-.753.807-1.33,0-.827-.673-1.5-1.5-1.5H2.5c-.827,0-1.5.673-1.5,1.5,0,.577.328,1.079.807,1.33C.654,4.984,0,7.491,0,9.81c0,4.223,2.772,10.063,5.519,13.978l.149.213h12.663l.149-.213c2.747-3.914,5.519-9.755,5.519-13.978,0-2.319-.654-4.826-1.807-6.98ZM2.5,1h19c.276,0,.5.224.5.5s-.224.5-.5.5h-5.5c-1.103,0-2,.897-2,2v4.5c0,.276-.224.5-.5.5s-.5-.224-.5-.5v-4.5c0-1.103-.897-2-2-2s-2,.897-2,2v8.5c0,.276-.224.5-.5.5s-.5-.224-.5-.5V4c0-1.103-.897-2-2-2h-3.5c-.276,0-.5-.224-.5-.5s.224-.5.5-.5Zm15.311,22H6.189C3.582,19.219,1,13.74,1,9.81c0-2.233.691-4.757,1.856-6.81h3.144c.551,0,1,.449,1,1v8.5c0,.827.673,1.5,1.5,1.5s1.5-.673,1.5-1.5V4c0-.551.449-1,1-1s1,.449,1,1v4.5c0,.827.673,1.5,1.5,1.5s1.5-.673,1.5-1.5v-4.5c0-.551.449-1,1-1h5.144c1.165,2.053,1.856,4.576,1.856,6.81,0,3.931-2.582,9.409-5.189,13.19Z"/>
</svg>
