<?xml version="1.0" encoding="UTF-8"?>
<svg xmlns="http://www.w3.org/2000/svg" id="Layer_1" data-name="Layer 1" viewBox="0 0 24 24">
  <path d="m13,10.298v-1.298h1v.76c-.347.157-.68.338-1,.538Zm-2.5,2.385v-3.683h-1v5.65c.25-.702.584-1.364,1-1.967Zm13.5,4.817c0,3.584-2.916,6.5-6.5,6.5s-6.5-2.916-6.5-6.5,2.916-6.5,6.5-6.5,6.5,2.916,6.5,6.5Zm-1,0c0-3.032-2.468-5.5-5.5-5.5s-5.5,2.468-5.5,5.5,2.468,5.5,5.5,5.5,5.5-2.468,5.5-5.5Zm-5-3h-1v3.207l2.146,2.146.707-.707-1.854-1.854v-2.793Zm-5.972,9.5h-7.528c-1.379,0-2.5-1.121-2.5-2.5V5H0v-1h5v-1.5c0-1.379,1.121-2.5,2.5-2.5h5c1.379,0,2.5,1.121,2.5,2.5v1.5h5v1h-2v4h-1v-4H3v16.5c0,.827.673,1.5,1.5,1.5h6.526c.306.36.641.695,1.003,1ZM6,4h8v-1.5c0-.827-.673-1.5-1.5-1.5h-5c-.827,0-1.5.673-1.5,1.5v1.5Zm1,15v-10h-1v10h1Z"/>
</svg>
