<?xml version="1.0" encoding="UTF-8"?>
<svg xmlns="http://www.w3.org/2000/svg" id="Layer_1" data-name="Layer 1" viewBox="0 0 24 24">
  <path d="m12,0C5.383,0,0,5.383,0,12s5.383,12,12,12,12-5.383,12-12S18.617,0,12,0Zm0,23c-6.065,0-11-4.935-11-11S5.935,1,12,1s11,4.935,11,11-4.935,11-11,11Zm-3.536-14.536c-1.95,1.95-1.95,5.122,0,7.071s5.122,1.949,7.071,0l.707.707c-1.042,1.042-2.378,1.593-3.743,1.707v2.051h-1v-2.051c-1.365-.114-2.7-.664-3.743-1.707-2.339-2.339-2.339-6.146,0-8.485,1.042-1.042,2.378-1.593,3.743-1.707v-2.05h1v2.05c1.365.114,2.7.665,3.743,1.707l-.707.707c-1.949-1.949-5.122-1.949-7.071,0Z"/>
</svg>
