<?xml version="1.0" encoding="UTF-8"?>
<svg xmlns="http://www.w3.org/2000/svg" id="Layer_1" data-name="Layer 1" viewBox="0 0 24 24">
  <path d="m21.5,3H2.5c-1.379,0-2.5,1.122-2.5,2.5v15.5h8.537l2.163-4.248c.272-.467.759-.747,1.3-.747s1.027.279,1.287.724l2.203,4.271h8.51V5.5c0-1.378-1.121-2.5-2.5-2.5Zm1.5,17h-6.9l-1.937-3.752c-.453-.778-1.263-1.243-2.163-1.243s-1.71.464-2.177,1.268l-1.899,3.727H1V5.5c0-.827.673-1.5,1.5-1.5h19c.827,0,1.5.673,1.5,1.5v14.5Zm-6-12c-1.654,0-3,1.346-3,3s1.346,3,3,3,3-1.346,3-3-1.346-3-3-3Zm0,5c-1.103,0-2-.897-2-2s.897-2,2-2,2,.897,2,2-.897,2-2,2Zm-10-5c-1.654,0-3,1.346-3,3s1.346,3,3,3,3-1.346,3-3-1.346-3-3-3Zm0,5c-1.103,0-2-.897-2-2s.897-2,2-2,2,.897,2,2-.897,2-2,2Z"/>
</svg>
