<?xml version="1.0" encoding="UTF-8"?>
<svg xmlns="http://www.w3.org/2000/svg" id="Layer_1" data-name="Layer 1" viewBox="0 0 24 24" width="512" height="512"><path d="M12,9.09V2.607C12,1.333,11.104,.228,9.916,.034c-.732-.116-1.475,.085-2.035,.562-.56,.476-.881,1.17-.881,1.905v1.5H2.293l2,2-2,2H7v3.291L2.732,15.49c-.472,.472-.732,1.1-.732,1.768s.26,1.296,.732,1.768l4.975,4.975h14.293V11.09l-10-2ZM8,2.5c0-.44,.193-.857,.529-1.143,.341-.29,.779-.407,1.227-.336,.709,.115,1.245,.797,1.245,1.586v1.393h-3v-1.5Zm-3.293,2.5h6.293v2H4.707l1-1-1-1ZM21,23H8.121l-4.682-4.682c-.283-.283-.439-.66-.439-1.061s.156-.777,.437-1.058l3.563-3.506v4.307h1V8h3v1.91l10,2v11.09Z"/></svg>
