<?xml version="1.0" encoding="UTF-8"?>
<svg xmlns="http://www.w3.org/2000/svg" id="Layer_1" data-name="Layer 1" viewBox="0 0 24 24" width="512" height="512"><path d="M12.5,24h-1V0h1V24ZM24,1c0-.55-.45-1-1-1s-1,.45-1,1,.45,1,1,1,1-.45,1-1Zm-5,0c0-.55-.45-1-1-1s-1,.45-1,1,.45,1,1,1,1-.45,1-1Zm0,22c0-.55-.45-1-1-1s-1,.45-1,1,.45,1,1,1,1-.45,1-1ZM7,1c0-.55-.45-1-1-1s-1,.45-1,1,.45,1,1,1,1-.45,1-1Zm0,22c0-.55-.45-1-1-1s-1,.45-1,1,.45,1,1,1,1-.45,1-1Zm17,0c0-.55-.45-1-1-1s-1,.45-1,1,.45,1,1,1,1-.45,1-1Zm0-5c0-.55-.45-1-1-1s-1,.45-1,1,.45,1,1,1,1-.45,1-1Zm0-6c0-.55-.45-1-1-1s-1,.45-1,1,.45,1,1,1,1-.45,1-1Zm0-6c0-.55-.45-1-1-1s-1,.45-1,1,.45,1,1,1,1-.45,1-1ZM2,1c0-.55-.45-1-1-1S0,.45,0,1s.45,1,1,1,1-.45,1-1Zm0,22c0-.55-.45-1-1-1s-1,.45-1,1,.45,1,1,1,1-.45,1-1Zm0-5c0-.55-.45-1-1-1s-1,.45-1,1,.45,1,1,1,1-.45,1-1Zm0-6c0-.55-.45-1-1-1s-1,.45-1,1,.45,1,1,1,1-.45,1-1Zm0-6c0-.55-.45-1-1-1s-1,.45-1,1,.45,1,1,1,1-.45,1-1Zm4,7c.55,0,1-.45,1-1s-.45-1-1-1-1,.45-1,1,.45,1,1,1Zm12,0c.55,0,1-.45,1-1s-.45-1-1-1-1,.45-1,1,.45,1,1,1Z"/></svg>
