<?xml version="1.0" encoding="UTF-8"?>
<svg xmlns="http://www.w3.org/2000/svg" id="Layer_1" data-name="Layer 1" viewBox="0 0 24 24" width="512" height="512"><path d="M14.85,7.85c.2,.09,.42,.15,.65,.15,.83,0,1.5-.67,1.5-1.5s-.67-1.5-1.5-1.5-1.5,.67-1.5,1.5c0,.23,.05,.45,.15,.65l-.7,.7c-.55-.43-1.22-.72-1.95-.81v-2.03h-1v2.03c-.73,.09-1.4,.38-1.95,.81l-.7-.7c.09-.2,.15-.42,.15-.65,0-.83-.67-1.5-1.5-1.5s-1.5,.67-1.5,1.5,.67,1.5,1.5,1.5c.23,0,.45-.05,.65-.15l.7,.7c-.43,.55-.72,1.22-.81,1.95h-2.03v1h2.03c.09,.73,.38,1.4,.81,1.95l-.7,.7c-.2-.09-.42-.15-.65-.15-.83,0-1.5,.67-1.5,1.5s.67,1.5,1.5,1.5,1.5-.67,1.5-1.5c0-.23-.05-.45-.15-.65l.7-.7c.55,.43,1.22,.72,1.95,.81v2.03h1v-2.03c.73-.09,1.4-.38,1.95-.81l.7,.7c-.09,.2-.15,.42-.15,.65,0,.83,.67,1.5,1.5,1.5s1.5-.67,1.5-1.5-.67-1.5-1.5-1.5c-.23,0-.45,.05-.65,.15l-.7-.7c.43-.55,.72-1.22,.81-1.95h2.03v-1h-2.03c-.09-.73-.38-1.4-.81-1.95l.7-.7Zm.65-1.85c.28,0,.5,.22,.5,.5s-.22,.5-.5,.5-.5-.22-.5-.5,.22-.5,.5-.5Zm-1.5,5c0,1.65-1.35,3-3,3s-3-1.35-3-3,1.35-3,3-3,3,1.35,3,3ZM6.5,7c-.28,0-.5-.22-.5-.5s.22-.5,.5-.5,.5,.22,.5,.5-.22,.5-.5,.5Zm0,9c-.28,0-.5-.22-.5-.5s.22-.5,.5-.5,.5,.22,.5,.5-.22,.5-.5,.5Zm9-1c.28,0,.5,.22,.5,.5s-.22,.5-.5,.5-.5-.22-.5-.5,.22-.5,.5-.5Zm7.36-4.28c-1.07-2.57-2.08-5.01-3.14-6.32C17.11,.92,12.83-.66,8.53,.26,4.14,1.21,.84,4.71,.14,9.19c-.51,3.27,.33,6.51,2.31,8.9,.36,.43,.56,.99,.56,1.56v4.35h13v-3h2.36c1.19,0,2.22-.85,2.45-2.01l.79-3.99h2.4v-1.5s-.77-1.9-1.14-2.78Zm.14,3.28h-2.22l-.95,4.79c-.14,.7-.76,1.21-1.47,1.21h-3.36v3H4v-3.35c0-.81-.28-1.59-.79-2.2C1.42,15.28,.66,12.33,1.13,9.34,1.77,5.28,4.76,2.1,8.74,1.24c3.91-.84,7.81,.6,10.19,3.78,.98,1.21,2.01,3.69,3.01,6.09,.35,.85,.71,1.7,1.06,2.5v.39Z"/></svg>
