<?xml version="1.0" encoding="UTF-8"?>
<svg xmlns="http://www.w3.org/2000/svg" id="Layer_1" data-name="Layer 1" viewBox="0 0 24 24">
  <path d="m12.922,0c-1.076,0-2.087.419-2.847,1.18-.952.952-1.307,2.434-.925,3.867l.854,3.201c-.602.435-1.191.926-1.747,1.483l-4.204,4.26c-.697.697-1.832.697-2.529,0s-.697-1.832,0-2.529l2.768-2.773-.707-.707-2.768,2.773c-1.087,1.087-1.087,2.856,0,3.943s2.856,1.087,3.945-.002l.385-.39,1.944,1.944-3.942,3.942.707.707,3.942-3.942,1.952,1.952-.327.332c-1.087,1.087-1.087,2.856,0,3.943.544.544,1.258.815,1.972.815s1.428-.271,1.972-.815l2.772-2.768-.707-.707-2.772,2.768c-.697.697-1.832.697-2.529,0s-.697-1.832.003-2.532l4.138-4.203c.556-.556,1.047-1.144,1.481-1.745l3.201.854c.382.102.767.151,1.144.151,1.041,0,2.024-.377,2.724-1.076.761-.76,1.18-1.771,1.18-2.847V0h-11.078Zm.64,15.037l-3.11,3.159-4.603-4.603,3.117-3.158c3.079-3.078,7.344-4.069,8.943-4.345-.275,1.6-1.267,5.865-4.348,8.946Zm9.438-3.959c0,.809-.314,1.568-.887,2.14-.701.701-1.811.954-2.902.665l-2.868-.765c2.247-3.6,2.636-7.372,2.655-7.57l.058-.604-.604.058c-.197.02-3.969.408-7.57,2.656l-.765-2.869c-.291-1.089-.036-2.201.665-2.902.571-.572,1.331-.887,2.14-.887h10.078v10.078Z"/>
</svg>
