<?xml version="1.0" encoding="UTF-8"?>
<svg xmlns="http://www.w3.org/2000/svg" id="Layer_1" data-name="Layer 1" viewBox="0 0 24 24" width="512" height="512"><path d="m12,0C5.383,0,0,5.383,0,12s5.383,12,12,12,12-5.383,12-12S18.617,0,12,0Zm0,23c-6.065,0-11-4.935-11-11S5.935,1,12,1s11,4.935,11,11-4.935,11-11,11Zm6-15.771v10.771h-1V7.229c0-.179-.093-.209-.124-.219-.086-.023-.204-.005-.284.108l-4.593,7.463-4.612-7.492c-.061-.081-.18-.106-.265-.079-.03.01-.124.04-.124.219v10.771h-1V7.229c0-.552.321-1.012.819-1.171.513-.164,1.079.026,1.402.479l3.779,6.137,3.76-6.107c.341-.481.905-.673,1.421-.508.498.159.819.619.819,1.171Z"/></svg>
