<?xml version="1.0" encoding="UTF-8"?>
<svg xmlns="http://www.w3.org/2000/svg" id="Layer_1" data-name="Layer 1" viewBox="0 0 24 24">
  <path d="m7,8h10v-4H7v4Zm1-3h8v2h-8v-2Zm-1,5h2v1h-2v-1Zm8,0h2v1h-2v-1Zm-8,3h2v1h-2v-1Zm8,0h2v1h-2v-1Zm-4-3h2v1h-2v-1Zm0,3h2v1h-2v-1Zm-4,3h2v1h-2v-1Zm8,0h2v1h-2v-1Zm-4,0h2v1h-2v-1Zm-4,3h2v1h-2v-1Zm8,0h2v1h-2v-1Zm-4,0h2v1h-2v-1Zm12-15h-2v-1.5c0-1.379-1.121-2.5-2.5-2.5H5.5c-1.378,0-2.5,1.121-2.5,2.5v21.5h18v-3h2V4Zm-3,19H4V2.5c0-.827.673-1.5,1.5-1.5h13c.827,0,1.5.673,1.5,1.5v20.5Zm2-3h-1V5h1v15Z"/>
</svg>
