<?xml version="1.0" encoding="UTF-8"?>
<svg xmlns="http://www.w3.org/2000/svg" id="Layer_1" data-name="Layer 1" viewBox="0 0 24 24" width="512" height="512"><path d="M22.451,7.586l-.67,1.34c.142,.67,.219,1.363,.219,2.074,0,2.643-1.014,5.12-2.859,7H4.859c-1.845-1.88-2.859-4.357-2.859-7C2,5.486,6.486,1,12,1c1.403,0,2.739,.293,3.952,.818l.561-.281,.225-.449c-1.437-.69-3.04-1.088-4.738-1.088C5.935,0,1,4.935,1,11c0,2.792,1.029,5.417,2.91,7.454l-2.91,3.879v1.667H23v-1.667l-2.91-3.879c1.88-2.036,2.91-4.661,2.91-7.454,0-1.192-.197-2.338-.549-3.414Zm-.451,15.414H2v-.333l2.75-3.667h14.5l2.75,3.667v.333Zm-3.997-16.978l1.497,2.993,1.497-2.993,2.993-1.497-2.993-1.497L19.5,.037l-1.497,2.991-2.993,1.497,2.993,1.497Zm.746-2.248l.751-1.503,.751,1.503,1.503,.751-1.503,.751-.751,1.503-.751-1.503-1.503-.751,1.503-.751Zm-5.226,3.197l-1.168,2.335-2.335,1.168,2.335,1.168,1.168,2.335,1.168-2.335,2.333-1.168-2.333-1.168-1.168-2.335Zm.422,3.925l-.422,.845-.422-.845-.845-.422,.845-.422,.422-.845,.422,.845,.845,.422-.845,.422Z"/></svg>
