<?xml version="1.0" encoding="UTF-8"?>
<svg xmlns="http://www.w3.org/2000/svg" id="Layer_1" data-name="Layer 1" viewBox="0 0 24 24">
  <path d="m22.897,3.292l-.259-.258c-2.651-2.643-6.922-2.724-9.518-.185-.289.283-.548.586-.776.903l-3.599-2.257c-1.393-.876-3.219-.562-4.245.726L.615,7.097c-.8,1.003-.821,2.421-.054,3.447l2.074,2.777c-2.291,2.652-2.143,6.748.386,9.267l.259.258c.753.75,1.741,1.125,2.731,1.125s1.979-.375,2.731-1.125l14.154-14.105c.73-.728,1.133-1.695,1.133-2.724s-.402-1.997-1.133-2.725ZM1.396,7.72l3.887-4.877c.71-.891,1.968-1.107,2.933-.502l7.802,4.895-4.451,4.451c-3.073-.351-6.182-.627-8.204.936l-2-2.678c-.496-.663-.481-1.578.034-2.226Zm6.642,14.417c-1.12,1.114-2.937,1.112-4.053,0l-.259-.258c-2.217-2.209-2.293-5.837-.171-8.087,1.006-1.065,2.568-1.377,4.343-1.377,1.269,0,2.646.16,4.003.317.003,0,.007,0,.01.001l.012.012.009-.009c1.927.222,3.787.435,5.331.208l-9.225,9.193Zm4.797-10.305l4.052-4.052,3.41,2.139-1.152,1.147h0c-1.222,1.217-3.649,1.062-6.31.765Zm9.357-3.8l-1.168,1.164-7.83-4.912c.184-.252.394-.493.626-.721,2.206-2.159,5.848-2.08,8.113.178l.259.258c.54.539.838,1.255.838,2.017s-.298,1.478-.838,2.016Z"/>
</svg>
