<?xml version="1.0" encoding="UTF-8"?>
<svg xmlns="http://www.w3.org/2000/svg" id="Layer_1" data-name="Layer 1" viewBox="0 0 24 24">
  <path d="m22,16v-7h-2V0h-1v2h-2V0h-1v2h-2V0h-1v2h-2V0h-1v2h-2V0h-1v2h-2V0h-1v9h-2v7H0v8h11v-3c0-.551.449-1,1-1s1,.449,1,1v3h11v-8h-2ZM5,3h14v6h-2v-4h-1v4h-2v-2c0-1.103-.897-2-2-2s-2,.897-2,2v2h-2v-4h-1v4h-2V3Zm8,6h-2v-2c0-.551.449-1,1-1s1,.449,1,1v2Zm-10,1h18v6h-3v-4h-1v4h-3v-2c0-1.103-.897-2-2-2s-2,.897-2,2v2h-3v-4h-1v4h-3v-6Zm10,6h-2v-2c0-.551.449-1,1-1s1,.449,1,1v2Zm10,7h-2v-4h-1v4h-3v-4h-1v4h-2v-2c0-1.103-.897-2-2-2s-2,.897-2,2v2h-2v-4h-1v4h-3v-4h-1v4H1v-6h22v6Z"/>
</svg>
