<?xml version="1.0" encoding="UTF-8"?>
<svg xmlns="http://www.w3.org/2000/svg" id="Layer_1" data-name="Layer 1" viewBox="0 0 24 24">
  <path d="m1.213,0l1.785,21.705c.106,1.287,1.201,2.295,2.492,2.295h12.9c1.306,0,2.376-.98,2.491-2.281L22.79,0H1.213Zm20.484,1l-1.379,15.695c-.409.2-.859.305-1.319.305-1.654,0-3-1.346-3-3h-1c0,1.654-1.346,3-3,3s-3-1.346-3-3h-1c0,1.654-1.346,3-3,3-.495,0-.981-.122-1.414-.354L2.299,1h19.398Zm-1.813,20.631c-.069.78-.711,1.369-1.495,1.369H5.49c-.774,0-1.431-.604-1.495-1.377l-.316-3.847c.422.147.869.224,1.321.224,1.504,0,2.817-.835,3.5-2.065.683,1.231,1.996,2.065,3.5,2.065s2.817-.835,3.5-2.065c.683,1.231,1.996,2.065,3.5,2.065.417,0,.828-.065,1.221-.19l-.336,3.821Zm-7.885-10.631c1.654,0,3-1.346,3-3,0-1.831-2.387-4.111-2.659-4.366l-.341-.318-.341.318c-.272.254-2.659,2.535-2.659,4.366,0,1.654,1.346,3,3,3Zm0-6.297c.766.792,2,2.283,2,3.297,0,1.103-.897,2-2,2s-2-.897-2-2c0-1.014,1.234-2.505,2-3.297Z"/>
</svg>
