<?xml version="1.0" encoding="UTF-8"?>
<svg xmlns="http://www.w3.org/2000/svg" id="Layer_1" data-name="Layer 1" viewBox="0 0 24 24" width="512" height="512"><path d="M21.5,18c.322,0,.635-.037,.938-.102-2.064,3.638-5.966,6.102-10.438,6.102C5.383,24,0,18.617,0,12S5.383,0,12,0c5.806,0,10.661,4.146,11.763,9.633-.356-.209-.74-.371-1.149-.477C21.356,4.467,17.081,1,12,1,5.935,1,1,5.935,1,12s4.935,11,11,11c3.852,0,7.242-1.994,9.208-5h.292Zm-14.167-.127c.021-.019,2.138-1.873,4.667-1.873v-1c-2.918,0-5.236,2.04-5.333,2.127l.666,.746Zm7.667-9.873c0,.552,.448,1,1,1s1-.448,1-1-.448-1-1-1-1,.448-1,1Zm-6,0c0-.552-.448-1-1-1s-1,.448-1,1,.448,1,1,1,1-.448,1-1Zm12.5,3h-7.5v1h7.5c.827,0,1.5,.673,1.5,1.5s-.673,1.5-1.5,1.5h-7.5v1h7.5c1.378,0,2.5-1.121,2.5-2.5s-1.122-2.5-2.5-2.5Z"/></svg>
