<?xml version="1.0" encoding="UTF-8"?>
<svg xmlns="http://www.w3.org/2000/svg" id="Layer_1" data-name="Layer 1" viewBox="0 0 24 24">
  <path d="m22.5,18c0-.274-.03-.551-.094-.85l1.526-.897-1.521-2.586-1.516.892c-.408-.34-.882-.606-1.396-.786v-1.771h-3v1.771c-.515.18-.988.446-1.396.786l-1.516-.892-1.521,2.586,1.526.897c-.063.299-.094.576-.094.85s.03.551.094.85l-1.526.897,1.521,2.586,1.516-.892c.408.34.882.606,1.396.786v1.771h3v-1.771c.515-.18.988-.446,1.396-.786l1.516.892,1.521-2.586-1.526-.897c.063-.299.094-.576.094-.85Zm.063,2.103l-.507.862-1.331-.796c-.543.68-1.325,1.15-2.225,1.281v1.551h-1v-1.551c-.895-.13-1.673-.595-2.216-1.269l-1.341.784-.507-.862,1.328-.776c-.169-.41-.265-.857-.265-1.327,0-.464.095-.906.26-1.312l-1.324-.791.507-.862,1.331.796c.543-.68,1.325-1.15,2.225-1.281v-1.551h1v1.551c.903.131,1.687.603,2.23,1.286l1.327-.802.507.862-1.321.798c.163.404.258.843.258,1.305,0,.465-.095.906-.26,1.312l1.324.791Zm-4.553-13.084l-.01,2.979,1,.004.016-4.533L9.515.04.015,5.469v12.059l9.501,5.421.484-.278-.002-11.051,8.012-4.601ZM1.015,16.947V7.08l7.984,4.542.015,9.89-7.999-4.565Zm8.482-6.192L1.12,5.989,9.515,1.191l8.338,4.766-8.356,4.799Zm8.503,5.245c-1.103,0-2,.897-2,2s.897,2,2,2,2-.897,2-2-.897-2-2-2Zm0,3c-.552,0-1-.449-1-1s.448-1,1-1,1,.449,1,1-.448,1-1,1Z"/>
</svg>
