<?xml version="1.0" encoding="UTF-8"?>
<svg xmlns="http://www.w3.org/2000/svg" id="Layer_1" data-name="Layer 1" viewBox="0 0 24 24">
  <path d="m14,8.5c0-.828.672-1.5,1.5-1.5s1.5.672,1.5,1.5-.672,1.5-1.5,1.5-1.5-.672-1.5-1.5Zm7.874,1.276c-.128.641-.35,1.247-.652,1.806l2.778,5.341-5.31-2.761c-.588.332-1.232.576-1.914.712l-1.276,2.126-1.276-2.126c-1.112-.222-2.122-.729-2.951-1.44L.719,23.988.012,23.281l10.555-10.555c-.712-.829-1.218-1.84-1.44-2.951l-2.126-1.276,2.126-1.276c.136-.683.38-1.327.713-1.915L7.077,0l5.342,2.777c.558-.302,1.165-.524,1.805-.652l1.276-2.126,1.276,2.126c.655.131,1.274.36,1.843.672L24,0l-2.799,5.381c.312.568.542,1.188.673,1.843l2.126,1.276-2.126,1.276Zm-2.308-6.343c.369.297.705.633,1.001,1.001l1.085-2.086-2.086,1.085Zm-9.087.943c.293-.356.623-.681.985-.968l-2.039-1.06,1.055,2.028Zm-.479,4.124c0,3.033,2.468,5.5,5.5,5.5s5.5-2.467,5.5-5.5-2.468-5.5-5.5-5.5-5.5,2.467-5.5,5.5Zm10.592,4.035c-.287.361-.611.692-.968.985l2.028,1.055-1.061-2.039Z"/>
</svg>
