<?xml version="1.0" encoding="UTF-8"?>
<svg xmlns="http://www.w3.org/2000/svg" id="Layer_1" data-name="Layer 1" viewBox="0 0 24 24" width="512" height="512"><path d="m24,11v1h-3.783l-2.572-4.273c-.027-.045-.057-.088-.089-.13l-3.057,7.147-.864-.547,3.065-7.157c-.111-.026-.225-.041-.341-.041h-2.582l-2.613,6.244c-.276.671-.029,1.443.587,1.833l5.248,3.14v5.783h-1v-5.217l-4.772-2.854c-1.038-.655-1.448-1.943-.987-3.067l2.452-5.861h-2.884l-1.862,3.724-.895-.447,2.138-4.276h7.169c.872,0,1.692.464,2.142,1.211l2.281,3.789h3.217ZM14,2.5c0-1.379,1.122-2.5,2.5-2.5s2.5,1.121,2.5,2.5-1.122,2.5-2.5,2.5-2.5-1.121-2.5-2.5Zm1,0c0,.827.673,1.5,1.5,1.5s1.5-.673,1.5-1.5-.673-1.5-1.5-1.5-1.5.673-1.5,1.5Zm-5.138,14.887l-.691,1.613h-4.691c-.445,2.614-1.075,4-1.479,4-.679,0-2-3.883-2-11S2.321,1,3,1s2,3.883,2,11c0,1.905-.096,3.571-.248,5h.99c.184-1.792.258-3.605.258-5C6,7.85,5.373,0,3,0S0,7.85,0,12s.627,12,3,12c1.114,0,1.841-1.734,2.3-4h4.529l.879-2.051-.507-.303c-.123-.077-.227-.172-.34-.258Z"/></svg>
