<?xml version="1.0" encoding="UTF-8"?>
<svg xmlns="http://www.w3.org/2000/svg" id="Layer_1" data-name="Layer 1" viewBox="0 0 24 24">
  <path d="m21.5,19c-.578,0-1.111.198-1.535.529l-6.317-5.751c.224-.374.352-.811.352-1.278,0-1.035-.632-1.924-1.53-2.304l1.039-5.196c1.203-.005,2.209-.863,2.44-2h3.1c.232,1.14,1.242,2,2.45,2,1.379,0,2.5-1.121,2.5-2.5s-1.121-2.5-2.5-2.5c-1.208,0-2.218.86-2.45,2h-3.1c-.232-1.14-1.242-2-2.45-2-1.378,0-2.5,1.121-2.5,2.5,0,1.035.631,1.924,1.529,2.304l-1.039,5.196c-1.203.005-2.208.863-2.44,2h-4.101c-.232-1.14-1.242-2-2.45-2-1.378,0-2.5,1.121-2.5,2.5s1.122,2.5,2.5,2.5c1.207,0,2.217-.86,2.45-2h4.101c.232,1.14,1.242,2,2.45,2,.551,0,1.06-.179,1.474-.482l6.34,5.771c-.199.359-.314.772-.314,1.211,0,1.379,1.121,2.5,2.5,2.5s2.5-1.121,2.5-2.5-1.121-2.5-2.5-2.5Zm0-18c.827,0,1.5.673,1.5,1.5s-.673,1.5-1.5,1.5-1.5-.673-1.5-1.5.673-1.5,1.5-1.5ZM2.5,14c-.827,0-1.5-.673-1.5-1.5s.673-1.5,1.5-1.5,1.5.673,1.5,1.5-.673,1.5-1.5,1.5ZM12,2.5c0-.827.673-1.5,1.5-1.5s1.5.673,1.5,1.5-.673,1.5-1.5,1.5-1.5-.673-1.5-1.5Zm-.5,11.5c-.827,0-1.5-.673-1.5-1.5s.673-1.5,1.5-1.5,1.5.673,1.5,1.5-.673,1.5-1.5,1.5Zm10,9c-.827,0-1.5-.673-1.5-1.5s.673-1.5,1.5-1.5,1.5.673,1.5,1.5-.673,1.5-1.5,1.5Zm-16.5-2c0,.552-.448,1-1,1s-1-.448-1-1,.448-1,1-1,1,.448,1,1Zm19-9c0,.552-.448,1-1,1s-1-.448-1-1,.448-1,1-1,1,.448,1,1Zm-12,11c0,.552-.448,1-1,1s-1-.448-1-1,.448-1,1-1,1,.448,1,1ZM0,1C0,.448.448,0,1,0s1,.448,1,1-.448,1-1,1-1-.448-1-1Zm4,4c0-.552.448-1,1-1s1,.448,1,1-.448,1-1,1-1-.448-1-1Z"/>
</svg>
