<?xml version="1.0" encoding="UTF-8"?>
<svg xmlns="http://www.w3.org/2000/svg" id="Layer_1" data-name="Layer 1" viewBox="0 0 24 24" width="512" height="512"><path d="m19.5,0H3.5c-.827,0-1.5.673-1.5,1.5v22.5h17.5c1.378,0,2.5-1.122,2.5-2.5V2.5c0-1.378-1.122-2.5-2.5-2.5ZM3.5,1h16c.827,0,1.5.673,1.5,1.5v17.013c-.419-.317-.935-.513-1.5-.513H3V1.5c0-.276.224-.5.5-.5Zm16,22H3v-3h16.5c.827,0,1.5.673,1.5,1.5s-.673,1.5-1.5,1.5Z"/><path d="m7.758,9.993l-2.133,3.502h4.268l2.107,3.455,2.107-3.455h4.268l-2.133-3.502,2.133-3.498h-4.264l-2.112-3.467-2.112,3.467h-4.264l2.133,3.498Zm-.352,2.502l.938-1.541.94,1.541h-1.878Zm1.524-2.502l1.521-2.498h3.099l1.521,2.498-1.526,2.502h-3.091l-1.526-2.502Zm3.071,5.036l-.936-1.534h1.871l-.936,1.534Zm4.595-2.534h-1.878l.94-1.541.938,1.541Zm0-5l-.937,1.537-.936-1.537h1.874Zm-4.594-2.544l.94,1.544h-1.881l.94-1.544Zm-3.657,4.081l-.937-1.537h1.874l-.936,1.537Z"/></svg>
