<?xml version="1.0" encoding="UTF-8"?>
<svg xmlns="http://www.w3.org/2000/svg" id="Layer_1" data-name="Layer 1" viewBox="0 0 24 24">
  <path d="m20.314,3.107l-3.107-3.107L6.787.008l-3.086,3.1L.008,5.218l-.008,18.782h9.172l-1-1H1l.008-17.202,2.931-1.675,5.679,5.204.853,1.28-1.886,9.963,3.416,3.416,3.416-3.416-1.886-9.963.854-1.281,5.693-5.204,2.932,1.675-.008,17.202h-7.172l-1,1h9.172l.008-18.782-3.694-2.111Zm-4.618-2.106l-3.696,3.327-3.7-3.321,7.396-.006Zm-4.428,8.999l-.691-1.036,1.423-2.846,1.423,2.846-.691,1.036h-1.465ZM7.015,1.197l4.368,3.92-1.533,3.066L4.73,3.491l2.285-2.294Zm4.985,21.375l-2.334-2.334,1.749-9.237h1.172l1.749,9.237-2.334,2.334Zm2.151-14.387l-1.534-3.067,4.364-3.928,2.303,2.303-5.133,4.693Z"/>
</svg>
