<?xml version="1.0" encoding="UTF-8"?>
<svg xmlns="http://www.w3.org/2000/svg" id="Layer_1" data-name="Layer 1" viewBox="0 0 24 24" width="512" height="512"><path d="M24,12c0,3.542-1.552,6.721-4,8.919v-1.392c1.854-1.97,3-4.614,3-7.526,0-6.065-4.935-11-11-11S1,5.935,1,12c0,3.896,2.042,7.317,5.106,9.272,.094,.494,.256,.969,.473,1.42C2.682,20.707,0,16.665,0,12,0,5.383,5.383,0,12,0s12,5.383,12,12Zm-10.163,10.17c-1.104,1.104-2.9,1.106-4.007,0-.535-.535-.83-1.247-.83-2.004v-.785l6.322-6.323-.707-.707-5.615,5.616v-2.967h-1v5.166c0,1.024,.398,1.986,1.123,2.711,.747,.747,1.729,1.121,2.711,1.121s1.963-.374,2.71-1.121l3.917-3.916-.707-.707-3.917,3.916Zm-1.823-4.18l.707,.707,4.859-4.86-.707-.707-4.859,4.86Zm2.18,2.18l4.094-4.094-.707-.707-4.094,4.094,.707,.707ZM4.646,8.146l.707,.707c1.588-1.588,3.185-2.552,4.744-2.863l-.195-.98c-1.757,.351-3.525,1.406-5.256,3.137Zm9.256-2.156c1.56,.312,3.156,1.275,4.744,2.863l.707-.707c-1.73-1.73-3.499-2.786-5.256-3.137l-.195,.98Zm-4.902,7.01c0-1.654,1.346-3,3-3,.607,0,1.17,.184,1.643,.495l.712-.712c-.662-.486-1.472-.783-2.355-.783-2.206,0-4,1.794-4,4h1Z"/></svg>
