<?xml version="1.0" encoding="UTF-8"?>
<svg xmlns="http://www.w3.org/2000/svg" id="Layer_1" data-name="Layer 1" width="512" height="512" viewBox="0 0 24 24"><path d="M24,4.5c0-1.93-1.57-3.5-3.5-3.5H3.5C1.57,1,0,2.57,0,4.5V15.707l3,3v1.293c0,1.654,1.346,3,3,3s3-1.346,3-3v-1h7v1c0,1.654,1.346,3,3,3s3-1.346,3-3v-1h2v-4.892c0-.815-.222-1.616-.641-2.315l-3.476-5.792h4.117v-1.5ZM1,6h7v3H1v-3Zm7,14c0,1.103-.897,2-2,2s-2-.897-2-2v-1h4v1Zm13,0c0,1.103-.897,2-2,2s-2-.897-2-2v-1h4v1Zm2-2H15v-5h7.82c.119,.356,.18,.73,.18,1.108v3.892Zm-.683-6h-7.317V7.5c0-.827,.673-1.5,1.5-1.5h2.217l3.601,6Zm.683-7h-6.5c-1.378,0-2.5,1.122-2.5,2.5v10.5H3.707l-2.707-2.707v-5.293H9V5H1v-.5c0-1.378,1.122-2.5,2.5-2.5H20.5c1.378,0,2.5,1.122,2.5,2.5v.5Z"/></svg>
