<?xml version="1.0" encoding="UTF-8"?>
<svg xmlns="http://www.w3.org/2000/svg" id="Layer_1" data-name="Layer 1" viewBox="0 0 24 24">
  <path d="m21.5,7h-5v-1h4.692c-2.023-3.091-5.474-5-9.192-5C5.935,1,1,5.935,1,12s4.935,11,11,11c.052,0,1.377-.068,1.972-.177l.178.984c-.443.08-1.649.192-2.149.192C5.383,24,0,18.617,0,12S5.383,0,12,0c4.04,0,7.789,2.066,10,5.414V.5h1v5c0,.827-.673,1.5-1.5,1.5Zm-2.401,13.404l.646.762c.531-.45,1.025-.947,1.468-1.477l-.768-.641c-.405.485-.858.941-1.347,1.355Zm-3.284,1.916l.346.938c.649-.239,1.283-.539,1.884-.89l-.504-.863c-.551.321-1.131.596-1.726.815Zm7.186-10.32c0,.64-.055,1.28-.163,1.903l.984.172c.119-.681.179-1.378.179-2.075h-1Zm-1.46,5.48l.867.5c.347-.602.643-1.238.878-1.892l-.939-.34c-.217.598-.487,1.181-.806,1.731ZM11.5,5.038v7.283l5.243,3.146.514-.857-4.757-2.854v-6.717h-1Z"/>
</svg>
