<?xml version="1.0" encoding="UTF-8"?>
<svg xmlns="http://www.w3.org/2000/svg" id="Layer_1" data-name="Layer 1" viewBox="0 0 24 24" width="512" height="512"><path d="m11.05,13c.232,1.14,1.242,2,2.45,2,1.378,0,2.5-1.121,2.5-2.5,0-1.208-.86-2.217-2-2.45v-5.101c1.14-.232,2-1.242,2-2.45,0-1.379-1.122-2.5-2.5-2.5-1.207,0-2.217.86-2.45,2h-6.101c-.232-1.14-1.242-2-2.45-2C1.122,0,0,1.121,0,2.5c0,1.208.86,2.217,2,2.45v5.101c-1.14.232-2,1.242-2,2.45,0,1.379,1.122,2.5,2.5,2.5,1.207,0,2.217-.86,2.45-2h6.101Zm3.95-.5c0,.827-.673,1.5-1.5,1.5s-1.5-.673-1.5-1.5.673-1.5,1.5-1.5,1.5.673,1.5,1.5Zm-1.5-11.5c.827,0,1.5.673,1.5,1.5s-.673,1.5-1.5,1.5-1.5-.673-1.5-1.5.673-1.5,1.5-1.5ZM1,2.5c0-.827.673-1.5,1.5-1.5s1.5.673,1.5,1.5-.673,1.5-1.5,1.5-1.5-.673-1.5-1.5Zm1.5,11.5c-.827,0-1.5-.673-1.5-1.5s.673-1.5,1.5-1.5,1.5.673,1.5,1.5-.673,1.5-1.5,1.5Zm.5-3.95v-5.101c.978-.199,1.75-.971,1.95-1.95h6.101c.199.978.972,1.75,1.95,1.95v5.101c-.978.199-1.75.971-1.95,1.95h-6.101c-.199-.978-.972-1.75-1.95-1.95Zm19,9v-4.101c1.14-.232,2-1.242,2-2.45,0-1.379-1.122-2.5-2.5-2.5s-2.5,1.121-2.5,2.5c0,1.208.86,2.217,2,2.45v4.101c-.978.199-1.75.971-1.95,1.95h-6.05c-.199-.978-.972-1.75-1.95-1.95v-2.55h-1v2.55c-1.14.232-2,1.242-2,2.45,0,1.379,1.122,2.5,2.5,2.5,1.207,0,2.217-.86,2.45-2h6.05c.232,1.14,1.242,2,2.45,2,1.378,0,2.5-1.121,2.5-2.5,0-1.208-.86-2.217-2-2.45Zm-11.45,3.95c-.827,0-1.5-.673-1.5-1.5s.673-1.5,1.5-1.5,1.5.673,1.5,1.5-.673,1.5-1.5,1.5Zm9.45-10.5c0-.827.673-1.5,1.5-1.5s1.5.673,1.5,1.5-.673,1.5-1.5,1.5-1.5-.673-1.5-1.5Zm1.5,10.5c-.827,0-1.5-.673-1.5-1.5s.673-1.5,1.5-1.5,1.5.673,1.5,1.5-.673,1.5-1.5,1.5Z"/></svg>
