<?xml version="1.0" encoding="UTF-8"?>
<svg xmlns="http://www.w3.org/2000/svg" id="Layer_1" data-name="Layer 1" viewBox="0 0 24 24">
  <path d="m24,0h-1c0,1.056-.633,1.544-1.196,1.773-.257-.459-.742-.773-1.304-.773-.651,0-1.201.419-1.408,1H3.858c-1.765,0-3.258,1.321-3.474,3.072L.024,8h12.225c1.778,0,3.272-1.332,3.477-3.099l.22-1.901h3.037c-.182,4.555-2.809,11.556-7.118,15.893-1.162,1.177-1.149,3.081.028,4.243.583.576,1.346.863,2.107.863.774,0,1.549-.297,2.135-.891,5.559-5.632,5.855-18.284,5.865-20.345,1.257-.434,2-1.438,2-2.763Zm-9.267,4.787c-.146,1.262-1.213,2.213-2.483,2.213H1.155l.222-1.806c.154-1.251,1.221-2.194,2.481-2.194h11.081l-.206,1.787Zm.69,17.618c-.774.785-2.044.793-2.828.019-.785-.774-.793-2.043-.02-2.827,4.823-4.854,7.425-12.431,7.425-17.096,0-.276.224-.5.5-.5s.5.224.5.5v.005c.001.141.064,14.186-5.577,19.9Zm-.423-1.405c0,.552-.448,1-1,1s-1-.448-1-1,.448-1,1-1,1,.448,1,1Z"/>
</svg>
