<?xml version="1.0" encoding="UTF-8"?>
<svg xmlns="http://www.w3.org/2000/svg" id="Layer_1" data-name="Layer 1" viewBox="0 0 24 24" width="512" height="512"><path d="M22,21.29V12.94c.62-.63,1-1.49,1-2.44L20.38,1H3.65l-.51,1.43L.75,.05,.05,.75,23.25,23.95l.71-.71-1.95-1.95Zm-6.5-9.01c.61,1.02,1.72,1.72,3,1.72h1c.54,0,1.04-.13,1.5-.35v6.64l-6.76-6.76c.53-.3,.96-.74,1.27-1.25ZM4.35,2h3.65v3h1V2h6v3h1V2h3.62l2.38,8.56c-.03,1.35-1.14,2.44-2.5,2.44h-1c-1.38,0-2.5-1.12-2.5-2.5v-.5h-1v.5c0,1-.59,1.89-1.5,2.29L3.92,3.21l.43-1.21Z"/><path d="M4.5,22c-.83,0-1.5-.67-1.5-1.5v-6.85c.46,.22,.96,.35,1.5,.35h1c1.34,0,2.5-.77,3.08-1.88l-.75-.75c-.35,.95-1.26,1.63-2.34,1.63h-1c-1.36,0-2.46-1.09-2.5-2.44l1.09-3.94-.81-.81-1.26,4.55-.02,.13c0,.95,.38,1.82,1,2.45h0v7.55c0,1.38,1.12,2.5,2.5,2.5h14.96l-1-1H4.5Z"/></svg>
