<?xml version="1.0" encoding="UTF-8"?>
<svg xmlns="http://www.w3.org/2000/svg" id="Layer_1" data-name="Layer 1" viewBox="0 0 24 24" width="512" height="512"><path d="M7.511,11.025c-.329,.329-.511,.767-.511,1.232s.182,.903,.511,1.232c.34,.339,.786,.509,1.231,.509s.893-.17,1.232-.509c.56-.56,.847-2.3,.922-2.82l.095-.661-.661,.095c-.52,.075-2.26,.362-2.819,.922Zm1.757,1.757c-.288,.289-.76,.291-1.05,0-.141-.14-.218-.327-.218-.525s.077-.385,.218-.525c.166-.166,.851-.372,1.568-.519-.147,.718-.353,1.403-.519,1.569Zm4.396-2.687l-.666-.098,.098,.666c.077,.521,.371,2.268,.93,2.826,.34,.34,.786,.51,1.232,.51s.892-.17,1.231-.51c.329-.329,.511-.766,.511-1.232s-.182-.903-.511-1.232c-.559-.559-2.304-.853-2.825-.929Zm2.118,2.687c-.288,.289-.76,.291-1.05,0-.166-.167-.374-.853-.523-1.574,.721,.15,1.406,.357,1.573,.524,.141,.14,.218,.327,.218,.525s-.077,.385-.218,.525Zm8.218,1.218c0-3.601-5.537-8-12-8C5.242,6,0,10.331,0,14.056c0,.971,.561,2.764,2.659,2.941l.816,4.913c.201,1.211,1.238,2.09,2.466,2.09h12.119c1.229,0,2.266-.879,2.467-2.09l.817-4.924c2.091-.18,2.657-2,2.657-2.985Zm-4.46,7.746c-.121,.727-.743,1.254-1.48,1.254H5.94c-.736,0-1.358-.527-1.479-1.254l-.574-3.457c.595,.451,1.333,.712,2.113,.712,1.242,0,2.376-.66,3-1.697,.624,1.037,1.758,1.697,3,1.697s2.376-.66,3-1.697c.624,1.037,1.758,1.697,3,1.697,.781,0,1.518-.261,2.114-.712l-.574,3.458Zm1.46-5.746h-.524l-.118,.333c-.353,.997-1.3,1.667-2.357,1.667s-2.005-.67-2.357-1.667l-.118-.333h-1.049l-.118,.333c-.353,.997-1.3,1.667-2.357,1.667s-2.005-.67-2.357-1.667l-.118-.333h-1.049l-.118,.333c-.353,.997-1.3,1.667-2.357,1.667s-2.005-.67-2.357-1.667l-.126-.357-.542,.036c-1.901,0-1.973-1.759-1.975-1.957,0-3.196,4.906-7.056,11-7.056,6.276,0,11,4.247,11,7,0,.082-.022,2-2,2ZM12.5,4h-1V0h1V4Zm4.5,0h-1V0h1V4Zm-9,0h-1V0h1V4Z"/></svg>
