<?xml version="1.0" encoding="UTF-8"?>
<svg xmlns="http://www.w3.org/2000/svg" id="Layer_1" data-name="Layer 1" viewBox="0 0 24 24" width="512" height="512"><path d="m16.34,19.875l.841.841c-.71.177-1.44.284-2.181.284h-1v-1h1c.452,0,.899-.05,1.34-.125Zm-5.34,1.475l-5.321-4.35h-3.179c-.827,0-1.5-.673-1.5-1.5v-7c0-.827.673-1.5,1.5-1.5h.964l-.997-.997c-1.364.018-2.468,1.129-2.468,2.497v7c0,1.378,1.121,2.5,2.5,2.5h2.821l6.679,5.458v-7.923l-1-1v6.814Zm13.004,1.947l-.707.707L-.004.704.703-.003l5.384,5.384L12,.585v10.708l4.44,4.44c1.536-.593,2.56-2.079,2.56-3.733,0-2.206-1.794-4-4-4h-1v-1h1c2.757,0,5,2.243,5,5,0,1.921-1.105,3.66-2.801,4.492l2.195,2.195c2.262-1.487,3.607-3.972,3.607-6.686,0-4.411-3.589-8-8-8h-1v-1h1c4.963,0,9,4.038,9,9,0,2.984-1.445,5.723-3.886,7.407l3.89,3.89ZM6.798,6.091l4.202,4.202V2.684l-4.202,3.407Z"/></svg>
