<?xml version="1.0" encoding="UTF-8"?>
<svg xmlns="http://www.w3.org/2000/svg" id="Layer_1" data-name="Layer 1" viewBox="0 0 24 24" width="512" height="512"><path d="m23.491.509c-1.507-1.505-5.268.662-7.609,2.276-1.194-.505-2.506-.784-3.882-.784C6.486,2,2,6.486,2,12c0,1.376.28,2.688.785,3.883-1.613,2.341-3.781,6.103-2.276,7.609.34.34.812.496,1.387.496,1.518,0,3.758-1.087,6.21-2.777,1.198.508,2.514.79,3.894.79,5.514,0,10-4.486,10-10,0-1.376-.279-2.688-.784-3.882.407-.59.777-1.166,1.107-1.722,1.197-2.021,2.372-4.684,1.169-5.887Zm-11.491,2.491c3.532,0,6.595,2.046,8.068,5.014-1.476,2.071-3.394,4.308-5.57,6.484-2.351,2.351-4.562,4.201-6.487,5.568-2.967-1.473-5.011-4.535-5.011-8.066C3,7.038,7.037,3,12,3ZM1.216,22.784c-.565-.565-.11-2.581,2.078-5.87.895,1.58,2.208,2.894,3.788,3.79-3.063,2.025-5.251,2.695-5.866,2.08Zm19.784-10.784c0,4.962-4.037,9-9,9-1.021,0-2.002-.171-2.918-.486,2.037-1.499,4.17-3.356,6.123-5.309,2.04-2.04,3.859-4.136,5.314-6.111.312.912.481,1.889.481,2.905Zm-.293-4.914c-.896-1.582-2.211-2.897-3.793-3.793,3.289-2.189,5.307-2.641,5.87-2.078.438.438.321,1.896-1.322,4.67-.231.391-.484.791-.755,1.2Z"/></svg>
