<?xml version="1.0" encoding="UTF-8"?>
<svg xmlns="http://www.w3.org/2000/svg" id="Layer_1" data-name="Layer 1" viewBox="0 0 24 24">
  <path d="m9.5,14.005v-.554l-.524-.299-4.144,2.368c-.355-.32-.819-.52-1.333-.52-1.103,0-2,.897-2,2s.897,2,2,2,2-.897,2-2c0-.226-.046-.44-.116-.643l4.116-2.352Zm-6,3.995c-.552,0-1-.448-1-1s.448-1,1-1,1,.448,1,1-.448,1-1,1ZM11.5,3.929v4.905l.5.286.5-.286V3.929c.86-.224,1.5-1,1.5-1.929,0-1.103-.897-2-2-2s-2,.897-2,2c0,.929.64,1.705,1.5,1.929Zm.5-2.929c.552,0,1,.448,1,1s-.448,1-1,1-1-.448-1-1,.448-1,1-1Zm8.5,14c-.514,0-.978.2-1.333.52l-4.144-2.368-.524.299v.554l4.116,2.352c-.07.203-.116.417-.116.643,0,1.103.897,2,2,2s2-.897,2-2-.897-2-2-2Zm0,3c-.552,0-1-.448-1-1s.448-1,1-1,1,.448,1,1-.448,1-1,1Zm2-12v7.555c-.31-.181-.644-.321-1-.413v-5.994l-9,5.143v10.264l5.018-2.911c.234.264.494.504.79.698l-6.308,3.659-6.305-3.661c.296-.195.554-.435.788-.699l5.017,2.913v-10.263L2.5,7.147v5.994c-.356.092-.69.233-1,.413v-7.555l6.527-3.73c.024.36.095.705.208,1.033l-5.223,2.984,8.988,5.136,8.988-5.136-5.223-2.984c.114-.328.184-.673.208-1.033l6.527,3.73Z"/>
</svg>
