<?xml version="1.0" encoding="UTF-8"?>
<svg xmlns="http://www.w3.org/2000/svg" id="Layer_1" data-name="Layer 1" viewBox="0 0 24 24" width="512" height="512"><path d="M21.54,13.07c-.47-.67-1.24-1.07-2.06-1.07h-6.99V3.01c3.24,.17,6.12,2.05,7.57,4.99l.9-.45c-1.63-3.28-4.84-5.37-8.47-5.54V0h-1V2.01C6.22,2.28,2.01,6.66,2.01,12s4.21,9.73,9.49,9.99v2.01h1v-2.01c4.15-.21,8.03-2.95,9.36-6.67,.27-.76,.16-1.58-.31-2.24ZM3.01,12C3.01,7.21,6.77,3.28,11.5,3.01V20.99c-4.72-.26-8.49-4.19-8.49-8.99Zm17.9,2.98c-1.19,3.34-4.68,5.8-8.42,6.01v-7.99h6.99c.49,0,.96,.24,1.24,.65,.28,.4,.35,.88,.19,1.33Z"/></svg>
