<?xml version="1.0" encoding="UTF-8"?>
<svg xmlns="http://www.w3.org/2000/svg" id="Layer_1" data-name="Layer 1" viewBox="0 0 24 24">
  <path d="m18,15.5c0-2.481-2.019-4.5-4.5-4.5h-7c-2.481,0-4.5,2.019-4.5,4.5v4.5H0v1h1v3h1v-3h16v3h1v-3h1v-1h-2v-4.5Zm-1,0v4.5h-4.61l-1.352-5.406,1.729-2.594h.732c1.93,0,3.5,1.57,3.5,3.5Zm-7-1.152l-1.566-2.348h3.131l-1.566,2.348Zm0,.212l1.36,5.439h-2.72l1.36-5.439Zm-7,.939c0-1.93,1.57-3.5,3.5-3.5h.732l1.729,2.594-1.352,5.406H3v-4.5Zm7-5.5c2.757,0,5-2.243,5-5S12.757,0,10,0s-5,2.243-5,5,2.243,5,5,5Zm0-9c2.206,0,4,1.794,4,4s-1.794,4-4,4-4-1.794-4-4S7.794,1,10,1Zm14-1h-7v1h1v6.707l2.5-2.5,2.5,2.5V1h1V0Zm-2,5.293l-1.5-1.5-1.5,1.5V1h3v4.293Z"/>
</svg>
