<?xml version="1.0" encoding="UTF-8"?>
<svg xmlns="http://www.w3.org/2000/svg" id="Layer_1" data-name="Layer 1" viewBox="0 0 24 24" width="512" height="512"><path d="M9,14h2v1h-2v-1Zm4,1h2v-1h-2v1Zm-4,4h2v-1h-2v1Zm4,0h2v-1h-2v1ZM9,7h2v-1h-2v1Zm4,0h2v-1h-2v1Zm-4,4h2v-1h-2v1Zm4,0h2v-1h-2v1Zm11-3.5V24H0V11.5c0-1.379,1.122-2.5,2.5-2.5h2.5V2.5c0-1.379,1.122-2.5,2.5-2.5h9c1.378,0,2.5,1.121,2.5,2.5v2.5h2.5c1.378,0,2.5,1.121,2.5,2.5Zm-1,0c0-.827-.673-1.5-1.5-1.5h-3.5V2.5c0-.827-.673-1.5-1.5-1.5H7.5c-.827,0-1.5,.673-1.5,1.5v7.5H2.5c-.827,0-1.5,.673-1.5,1.5v11.5H23V7.5Zm-5,7.5h2v-1h-2v1Zm0,4h2v-1h-2v1ZM4,15h2v-1h-2v1Zm0,4h2v-1h-2v1Zm14-8h2v-1h-2v1Z"/></svg>
