<?xml version="1.0" encoding="UTF-8"?>
<svg xmlns="http://www.w3.org/2000/svg" id="Layer_1" data-name="Layer 1" viewBox="0 0 24 24">
  <path d="m22.682,8.975l-3.479-3.48L23.943.754l-.707-.707-4.741,4.741-3.47-3.47c-.85-.85-1.98-1.318-3.183-1.318h-2.843v1h2.843c.936,0,1.814.364,2.476,1.025l1.098,1.098L6.904,11.585c-2.428,2.428-4.439,5.211-5.98,8.274L-.017,21.761c-.136.617.05,1.252.496,1.699.351.35.816.54,1.299.54.133,0,.267-.015.399-.044l1.901-.94c3.065-1.543,5.849-3.556,8.273-5.98l8.512-8.463,1.11,1.11c.651.652,1.025,1.554,1.025,2.475v2.843h1v-2.843c0-1.184-.48-2.344-1.318-3.182Zm-11.035,7.353c-2.35,2.351-5.047,4.3-8.017,5.795l-1.722.867c-.271.042-.527-.043-.722-.237-.193-.194-.278-.454-.237-.721l.867-1.723c1.493-2.967,3.443-5.665,5.794-8.016L16.123,3.83l1.665,1.665L7.296,15.988l.707.707,10.492-10.493,1.663,1.663-8.512,8.462Z"/>
</svg>
