<?xml version="1.0" encoding="UTF-8"?>
<svg xmlns="http://www.w3.org/2000/svg" id="Layer_1" data-name="Layer 1" viewBox="0 0 24 24" width="512" height="512"><path d="M17.5,11c-3.584,0-6.5,2.916-6.5,6.5s2.917,6.5,6.5,6.5,6.5-2.916,6.5-6.5-2.916-6.5-6.5-6.5Zm0,12c-3.033,0-5.5-2.467-5.5-5.5s2.467-5.5,5.5-5.5,5.5,2.467,5.5,5.5-2.468,5.5-5.5,5.5Zm-8.475-5H1v-1.468c0-1.53,.155-3.046,.463-4.532h2.537v3h1v-3h6.026c.306-.36,.641-.695,1.003-1H1.694c.182-.714,.4-1.421,.654-2.118L4.491,2.987c.215-.591,.781-.987,1.41-.987h12.198c.629,0,1.195,.396,1.41,.987l2.142,5.889,.002,.005c.179,.493,.335,.993,.479,1.496,.466,.303,.899,.65,1.296,1.036-.219-.974-.494-1.935-.836-2.874h0l-2.144-5.895c-.357-.984-1.302-1.646-2.35-1.646H5.901c-1.048,0-1.992,.661-2.349,1.646L1.408,8.54c-.935,2.569-1.408,5.257-1.408,7.992v2.468H2v4H7v-4h2.14c-.058-.327-.095-.661-.115-1Zm-3.025,4H3v-3h3v3Zm13.864-4.399c.197,.368,.18,.81-.048,1.153l-1.892,3.012-.848-.532,1.898-3.022c.041-.062,.019-.117,.008-.138-.015-.027-.042-.059-.087-.059h-2.78c-.362,0-.691-.163-.902-.447-.206-.277-.267-.629-.165-.965l.051-.115,1.974-3.248,.855,.52-1.917,3.154c.021,.079,.051,.102,.104,.102h2.78c.402,0,.773,.225,.968,.585Z"/></svg>
