<?xml version="1.0" encoding="UTF-8"?>
<svg xmlns="http://www.w3.org/2000/svg" id="Layer_1" data-name="Layer 1" width="512" height="512" viewBox="0 0 24 24"><path d="M12,15.05v-3.05h-1v3.05c-1.14,.232-2,1.242-2,2.45,0,1.378,1.121,2.5,2.5,2.5s2.5-1.122,2.5-2.5c0-1.207-.86-2.217-2-2.45Zm-.5,3.95c-.827,0-1.5-.673-1.5-1.5s.673-1.5,1.5-1.5,1.5,.673,1.5,1.5-.673,1.5-1.5,1.5ZM21.5,0c-1.379,0-2.5,1.122-2.5,2.5s1.121,2.5,2.5,2.5,2.5-1.122,2.5-2.5-1.121-2.5-2.5-2.5Zm0,4c-.827,0-1.5-.673-1.5-1.5s.673-1.5,1.5-1.5,1.5,.673,1.5,1.5-.673,1.5-1.5,1.5Zm-5.5,8.819V4.5c0-2.481-2.019-4.5-4.5-4.5S7,2.019,7,4.5V12.818c-1.627,1.561-2.32,3.805-1.859,6.049,.508,2.471,2.506,4.476,4.972,4.988,.459,.095,.92,.142,1.376,.142,1.495,0,2.943-.503,4.111-1.454,1.525-1.241,2.4-3.08,2.4-5.044,0-1.763-.727-3.456-2-4.681Zm-1.031,8.95c-1.291,1.051-2.989,1.457-4.653,1.108-2.081-.432-3.767-2.124-4.195-4.21-.404-1.968,.236-3.933,1.714-5.258l.166-.149V4.5c0-1.93,1.57-3.5,3.5-3.5s3.5,1.57,3.5,3.5V13.26l.166,.149c1.166,1.046,1.834,2.537,1.834,4.091,0,1.662-.74,3.218-2.031,4.269Z"/></svg>
