<?xml version="1.0" encoding="UTF-8"?>
<svg xmlns="http://www.w3.org/2000/svg" id="Layer_1" data-name="Layer 1" viewBox="0 0 24 24" width="512" height="512"><path d="M24,12h-2V0h-1V12H12.6L5.34,.84C4.9,.14,4.1-.16,3.3,.08c-.79,.23-1.3,.92-1.3,1.74V12H0v1H2v11h1V13H12.05l6.6,10.16c.35,.54,.9,.84,1.51,.84,.18,0,.35-.03,.53-.08,.79-.23,1.3-.92,1.3-1.74V13h2v-1Zm-21,0V1.82c0-.45,.3-.7,.59-.78,.28-.08,.67-.04,.92,.34l6.9,10.62H3Zm18,10.18c0,.45-.3,.7-.59,.78-.28,.08-.67,.04-.92-.34l-6.25-9.62h7.75v9.18Z"/></svg>
