<?xml version="1.0" encoding="UTF-8"?>
<svg xmlns="http://www.w3.org/2000/svg" id="Layer_1" data-name="Layer 1" viewBox="0 0 24 24" width="512" height="512"><path d="M.476,15.315c-.304-1.054-.476-2.164-.476-3.315C0,5.383,5.383,0,12,0c1.15,0,2.259,.172,3.313,.476-.126,.307-.205,.632-.253,.966-.973-.283-1.998-.442-3.06-.442C5.935,1,1,5.935,1,12c0,1.058,.158,2.077,.438,3.046-.333,.047-.653,.141-.962,.269ZM22.209,7.926c.505,1.262,.791,2.634,.791,4.074,0,6.065-4.935,11-11,11-1.463,0-2.857-.293-4.134-.813-.199,.289-.412,.563-.632,.821,1.462,.636,3.073,.993,4.766,.993,6.617,0,12-5.383,12-12,0-1.686-.353-3.291-.984-4.748-.307,.276-.586,.503-.807,.674Zm-13.209,3.074h1c0-1.888-1.069-4-2.5-4s-2.5,2.112-2.5,4h1c0-1.43,.785-3,1.5-3s1.5,1.57,1.5,3Zm5,0h1c0-1.43,.785-3,1.5-3s1.5,1.57,1.5,3h1c0-1.888-1.069-4-2.5-4s-2.5,2.112-2.5,4Zm3.333,4.873l-.666-.746c-.021,.019-2.137,1.873-4.667,1.873s-4.646-1.854-4.667-1.873l-.666,.746c.097,.086,2.414,2.127,5.333,2.127s5.236-2.041,5.333-2.127Zm-.333-13.877c.01-.565,.238-1.084,.641-1.462,.393-.368,.909-.557,1.444-.531,.566,.027,1.067,.283,1.415,.677,.348-.394,.849-.65,1.415-.677,.529-.033,1.051,.164,1.444,.531,.402,.378,.631,.897,.641,1.462,.034,2.035-2.871,4.246-3.202,4.491l-.298,.22-.298-.22c-.331-.245-3.236-2.456-3.202-4.49Zm1,.017c0,1.154,1.592,2.702,2.5,3.438,.907-.737,2.5-2.287,2.5-3.438,0-.781-.775-1.024-1.038-1.011-.594,.028-.962,.541-.962,.999h-1c0-.458-.368-.971-.962-.999-.016,0-1.038,0-1.038,1.012ZM7,18.995c.034,2.035-2.871,4.246-3.202,4.491l-.298,.22-.298-.22c-.331-.245-3.236-2.456-3.202-4.49,.01-.565,.238-1.084,.641-1.462,.393-.368,.914-.554,1.444-.531,.566,.027,1.067,.283,1.415,.677,.348-.394,.849-.65,1.415-.677,.529-.025,1.051,.164,1.444,.531,.402,.378,.631,.897,.641,1.462Zm-1,.017c-.005-.292-.12-.558-.325-.749-.193-.182-.445-.279-.713-.262-.594,.028-.962,.541-.962,.999h-1c0-.458-.368-.971-.962-.999-.016,0-.031,0-.047,0-.249,0-.484,.092-.666,.263-.205,.191-.32,.458-.325,.75-.02,1.154,1.592,2.702,2.5,3.438,.907-.737,2.52-2.287,2.5-3.438Z"/></svg>
