<?xml version="1.0" encoding="UTF-8"?>
<svg xmlns="http://www.w3.org/2000/svg" id="Layer_1" data-name="Layer 1" viewBox="0 0 24 24">
  <path d="m8,12c0,2.206,1.794,4,4,4s4-1.794,4-4-1.794-4-4-4-4,1.794-4,4Zm7,0c0,1.654-1.346,3-3,3s-3-1.346-3-3,1.346-3,3-3,3,1.346,3,3ZM4,7c.552,0,1,.448,1,1s-.448,1-1,1-1-.448-1-1,.448-1,1-1Zm17,9c0,.552-.448,1-1,1s-1-.448-1-1,.448-1,1-1,1,.448,1,1Zm-20-.898l-1,1V6.5c0-1.378,1.122-2.5,2.5-2.5h20.155l-2.578-2.578.707-.707,2.784,2.784c.552.552.552,1.45,0,2.002l-2.784,2.784-.707-.707,2.578-2.578H2.5c-.827,0-1.5.673-1.5,1.5v8.602Zm23-7.205v12.102H1.345l2.578,2.578-.707.707-2.784-2.784c-.552-.552-.552-1.45,0-2.002l2.784-2.784.707.707-2.578,2.578h21.655v-10.102l1-1Z"/>
</svg>
