<?xml version="1.0" encoding="UTF-8"?>
<svg xmlns="http://www.w3.org/2000/svg" id="Layer_1" data-name="Layer 1" viewBox="0 0 24 24" width="512" height="512"><path d="M12,0C5.383,0,0,5.383,0,12s5.383,12,12,12,12-5.383,12-12S18.617,0,12,0Zm0,23c-6.065,0-11-4.935-11-11S5.935,1,12,1s11,4.935,11,11-4.935,11-11,11Z"/><path d="M16.5,7.5c-1.93,0-3.5,1.57-3.5,3.5s1.57,3.5,3.5,3.5,3.5-1.57,3.5-3.5-1.57-3.5-3.5-3.5Zm0,6c-1.379,0-2.5-1.121-2.5-2.5s1.121-2.5,2.5-2.5,2.5,1.121,2.5,2.5-1.121,2.5-2.5,2.5Z"/><path d="M11,11c0-1.93-1.57-3.5-3.5-3.5s-3.5,1.57-3.5,3.5,1.57,3.5,3.5,3.5,3.5-1.57,3.5-3.5Zm-3.5,2.5c-1.379,0-2.5-1.121-2.5-2.5s1.121-2.5,2.5-2.5,2.5,1.121,2.5,2.5-1.121,2.5-2.5,2.5Z"/><path d="M7.941,5.218l-.393-.92c-1.752,.747-3.181,1.935-4.131,3.435l.844,.535c.83-1.309,2.137-2.392,3.68-3.05Z"/><path d="M19.81,8.275l.834-.551c-.985-1.49-2.437-2.675-4.197-3.427l-.393,.92c1.58,.674,2.879,1.731,3.756,3.058Z"/><path d="M12,15c-1.93,0-3.5,1.57-3.5,3.5v.5h7v-.5c0-1.93-1.57-3.5-3.5-3.5Zm-2.45,3c.232-1.14,1.243-2,2.45-2s2.218,.86,2.45,2h-4.9Z"/><circle cx="16.5" cy="11" r="1"/><circle cx="7.5" cy="11" r="1"/></svg>
