<?xml version="1.0" encoding="UTF-8"?>
<svg xmlns="http://www.w3.org/2000/svg" id="Layer_1" data-name="Layer 1" viewBox="0 0 24 24">
  <path d="m24,16.257v-2.507c0-3.116-2.125-5.738-5-6.512v-2.738c0-2.481-2.019-4.5-4.5-4.5h-2.563c-2.24,0-4.111,1.607-4.449,3.823l-2.918,19.177H0v1h5.43L8.477,3.974c.263-1.723,1.719-2.974,3.461-2.974h2.563c1.93,0,3.5,1.57,3.5,3.5v2.544c-.247-.027-.496-.044-.75-.044h-4.25v17h7.723c1.824-.117,3.277-1.647,3.277-3.5,0-1.93-1.57-3.5-3.5-3.5s-3.5,1.57-3.5,3.5c0,.98.407,1.864,1.058,2.5h-4.058v-15h3.25c3.171,0,5.75,2.579,5.75,5.75v1.855c.357.183.694.399,1,.652Zm-6,4.243c0-1.379,1.121-2.5,2.5-2.5s2.5,1.121,2.5,2.5-1.121,2.5-2.5,2.5-2.5-1.121-2.5-2.5Z"/>
</svg>
