<?xml version="1.0" encoding="UTF-8"?>
<svg xmlns="http://www.w3.org/2000/svg" id="Layer_1" data-name="Layer 1" viewBox="0 0 24 24">
  <path d="m21.016,14.99c0,.547-.443.99-.99.99s-.99-.443-.99-.99.443-.99.99-.99.99.443.99.99Zm-5-4.99c.552,0,1-.452,1-1.01s-.448-1.01-1-1.01-1,.452-1,1.01.448,1.01,1,1.01Zm8,2c0,6.617-5.383,12-12,12h-.016C5.383,24,0,18.617,0,12S5.383,0,12,0s12.016,5.383,12.016,12Zm-1,0c0-6.065-4.935-11-11-11S1,5.935,1,12s4.935,11,11,11h.016c6.065,0,11-4.935,11-11Zm-3.193-4l-4.806,8h1.194l4.806-8h-1.194Zm-14.239,5.498c1.141-.779,2.433-1.662,2.433-2.998,0-1.378-1.122-2.5-2.5-2.5s-2.5,1.122-2.5,2.5v.5h1v-.5c0-.827.673-1.5,1.5-1.5s1.5.673,1.5,1.5c0,.808-1.015,1.501-1.997,2.172-1.03.704-2.003,1.368-2.003,2.328v1h5v-1h-4c0-.432.833-1.001,1.567-1.502Zm5.917-2.498h-1.5v-2h3.5v-1h-4.5v4h2.5c.827,0,1.5.673,1.5,1.5s-.673,1.5-1.5,1.5h-2.5v1h2.5c1.378,0,2.5-1.122,2.5-2.5s-1.122-2.5-2.5-2.5Z"/>
</svg>
