<?xml version="1.0" encoding="UTF-8"?>
<svg xmlns="http://www.w3.org/2000/svg" id="Layer_1" data-name="Layer 1" width="512" height="512" viewBox="0 0 24 24"><path d="M.59,13.912c.196,1.891,.84,3.74,1.862,5.346l1.656,2.6,1.811-1.154,1.297,2.048,3.562-2.269-1.297-2.049,8.22-5.235,1.297,2.048,3.562-2.269-1.297-2.049,1.813-1.155-1.655-2.6c-1.023-1.606-2.427-2.972-4.058-3.949L12.576,.356c-.817-.491-1.823-.477-2.628,.035L1.157,5.99C.354,6.502-.085,7.409,.014,8.357l.576,5.555Zm8.811,6.264l-1.875,1.194-.762-1.204,1.875-1.194,.762,1.203Zm11.783-7.504l-1.875,1.194-.762-1.204,1.875-1.194,.762,1.204Zm-.604-4.959l1.118,1.756L4.415,20.477l-1.119-1.756c-.611-.96-1.075-2.015-1.375-3.114l2.349-1.496,.995,1.563c.096,.15,.257,.231,.422,.231,.093,0,.186-.025,.269-.078,.232-.148,.302-.458,.153-.69l-.995-1.563L15.091,7.219l.987,1.549c.096,.15,.257,.231,.422,.231,.093,0,.186-.025,.269-.078,.233-.148,.302-.458,.153-.69l-.987-1.55,2.404-1.531c.869,.736,1.629,1.603,2.241,2.563ZM1.694,6.833L10.485,1.235c.247-.158,.526-.236,.806-.236,.266,0,.532,.071,.771,.215l4.79,2.872c.219,.131,.434,.271,.643,.417L1.69,14.569c-.044-.252-.079-.506-.106-.76l-.576-5.555c-.059-.568,.204-1.113,.687-1.42ZM24,23v1H0v-1H24Z"/></svg>
