<?xml version="1.0" encoding="UTF-8"?>
<svg xmlns="http://www.w3.org/2000/svg" id="Layer_1" data-name="Layer 1" width="512" height="512" viewBox="0 0 24 24"><path d="M14.761,10h-5.521L.09,23.125l-.09,.218v.657H23.5l.5-.089v-.657L14.761,10Zm-5,1h4.479l2.205,3.163c-.752,.239-1.395,.725-1.833,1.363-.516-.91-1.493-1.526-2.611-1.526s-2.096,.616-2.611,1.526c-.437-.638-1.08-1.124-1.833-1.363l2.205-3.163ZM1.396,23l5.548-7.96c1.167,.21,2.055,1.233,2.055,2.46v1.5h1v-2c0-1.103,.897-2,2-2s2,.897,2,2v4h1v-3.5c0-1.227,.888-2.249,2.055-2.46l5.548,7.96H1.396ZM2,5.5c0-1.491,1.325-2.704,2.84-2.474,.567-1.229,1.785-2.026,3.16-2.026,.45,0,.89,.089,1.313,.267,.661-.8,1.637-1.267,2.687-1.267s2.025,.466,2.687,1.267c.424-.177,.863-.267,1.313-.267,1.375,0,2.593,.797,3.16,2.026,1.516-.229,2.84,.983,2.84,2.474,0,1.378-1.121,2.5-2.5,2.5-.585,0-1.145-.208-1.59-.581-.571,.377-1.234,.581-1.91,.581h-3v-1h3c.598,0,1.16-.214,1.629-.621l.389-.337,.326,.399c.29,.355,.711,.559,1.156,.559,.827,0,1.5-.673,1.5-1.5s-.673-1.5-1.5-1.5c-.151,0-.31,.029-.484,.089l-.488,.168-.152-.493c-.453-1.461-2.186-2.23-3.6-1.43l-.414,.234-.255-.402c-.463-.731-1.25-1.167-2.106-1.167s-1.644,.437-2.106,1.167l-.255,.402-.414-.234c-1.415-.801-3.147-.031-3.6,1.43l-.152,.493-.488-.168c-.175-.06-.333-.089-.484-.089-.827,0-1.5,.673-1.5,1.5s.673,1.5,1.5,1.5c.445,0,.866-.204,1.156-.559l.326-.399,.389,.337c.469,.406,1.031,.621,1.629,.621h3v1h-3c-.676,0-1.339-.204-1.91-.581-.445,.374-1.005,.581-1.59,.581-1.379,0-2.5-1.122-2.5-2.5Z"/></svg>
