<?xml version="1.0" encoding="UTF-8"?>
<svg xmlns="http://www.w3.org/2000/svg" id="Layer_1" data-name="Layer 1" viewBox="0 0 24 24" width="512" height="512"><path d="M8.5,0H2.5C1.12,0,0,1.12,0,2.5V11H11V2.5c0-1.38-1.12-2.5-2.5-2.5Zm1.5,10H1V2.5c0-.83,.67-1.5,1.5-1.5h6c.83,0,1.5,.67,1.5,1.5v7.5Zm11.5,3h-6c-1.38,0-2.5,1.12-2.5,2.5v8.5h11V15.5c0-1.38-1.12-2.5-2.5-2.5Zm1.5,10H14v-7.5c0-.83,.67-1.5,1.5-1.5h6c.83,0,1.5,.67,1.5,1.5v7.5ZM13.44,5.56c-.58-.58-.58-1.54,0-2.12L16.73,.15l.71,.71-3.15,3.15h4.21c1.93,0,3.5,1.57,3.5,3.5v3.5h-1v-3.5c0-1.38-1.12-2.5-2.5-2.5h-4.21l3.15,3.15-.71,.71-3.29-3.29Zm-2.88,12.88c.58,.58,.58,1.54,0,2.12l-3.29,3.29-.71-.71,3.15-3.15H5.5c-1.93,0-3.5-1.57-3.5-3.5v-3.5h1v3.5c0,1.38,1.12,2.5,2.5,2.5h4.21l-3.15-3.15,.71-.71,3.29,3.29Z"/></svg>
