<?xml version="1.0" encoding="UTF-8"?>
<svg xmlns="http://www.w3.org/2000/svg" id="Layer_1" data-name="Layer 1" viewBox="0 0 24 24" width="512" height="512"><path d="M24,3.5c0-1.93-1.57-3.5-3.5-3.5s-3.5,1.57-3.5,3.5c0,1.76,1.306,3.221,3,3.464v2.536c0,.827-.673,1.5-1.5,1.5h-4.5c-.817,0-1.544,.394-2,1.002-.456-.608-1.183-1.002-2-1.002H5.5c-.827,0-1.5-.673-1.5-1.5v-2.536c1.694-.243,3-1.704,3-3.464,0-1.93-1.57-3.5-3.5-3.5S0,1.57,0,3.5c0,1.76,1.306,3.221,3,3.464v2.536c0,1.378,1.122,2.5,2.5,2.5h4.5c.827,0,1.5,.673,1.5,1.5v3.536c-1.694,.243-3,1.704-3,3.464,0,1.93,1.57,3.5,3.5,3.5s3.5-1.57,3.5-3.5c0-1.76-1.306-3.221-3-3.464v-3.536c0-.827,.673-1.5,1.5-1.5h4.5c1.379,0,2.5-1.122,2.5-2.5v-2.536c1.694-.243,3-1.704,3-3.464ZM1,3.5c0-1.378,1.122-2.5,2.5-2.5s2.5,1.122,2.5,2.5-1.122,2.5-2.5,2.5S1,4.878,1,3.5ZM14.5,20.5c0,1.378-1.121,2.5-2.5,2.5s-2.5-1.122-2.5-2.5,1.122-2.5,2.5-2.5,2.5,1.122,2.5,2.5Zm6-14.5c-1.379,0-2.5-1.122-2.5-2.5s1.121-2.5,2.5-2.5,2.5,1.122,2.5,2.5-1.121,2.5-2.5,2.5Z"/></svg>
