<?xml version="1.0" encoding="UTF-8"?>
<svg xmlns="http://www.w3.org/2000/svg" id="Layer_1" data-name="Layer 1" viewBox="0 0 24 24">
  <path d="m0,14.5v5.5h2v4h1v-4h2v-1H1v-4.5c0-.827.673-1.5,1.5-1.5h2.5v-1h-2.5c-1.378,0-2.5,1.122-2.5,2.5Z"/>
  <path d="m18.5,5c1.378,0,2.5-1.122,2.5-2.5s-1.122-2.5-2.5-2.5-2.5,1.122-2.5,2.5,1.122,2.5,2.5,2.5Zm0-4c.827,0,1.5.673,1.5,1.5s-.673,1.5-1.5,1.5-1.5-.673-1.5-1.5.673-1.5,1.5-1.5Z"/>
  <path d="m4.5,6c-1.378,0-2.5,1.122-2.5,2.5s1.122,2.5,2.5,2.5,2.5-1.122,2.5-2.5-1.122-2.5-2.5-2.5Zm0,4c-.827,0-1.5-.673-1.5-1.5s.673-1.5,1.5-1.5,1.5.673,1.5,1.5-.673,1.5-1.5,1.5Z"/>
  <path d="m20.5,6h-4c-1.378,0-2.5,1.122-2.5,2.5v9.5h2v6h1v-6h3v6h1v-6h2v-9.5c0-1.378-1.122-2.5-2.5-2.5Zm1.5,11h-7v-8.5c0-.827.673-1.5,1.5-1.5h4c.827,0,1.5.673,1.5,1.5v8.5Z"/>
  <path d="m7,11.5v7.5h2v5h1v-5h2v-1h-4v-6.5c0-.827.673-1.5,1.5-1.5h2.5v-1h-2.5c-1.378,0-2.5,1.122-2.5,2.5Z"/>
  <path d="m11.5,3c-1.378,0-2.5,1.122-2.5,2.5s1.122,2.5,2.5,2.5,2.5-1.122,2.5-2.5-1.122-2.5-2.5-2.5Zm0,4c-.827,0-1.5-.673-1.5-1.5s.673-1.5,1.5-1.5,1.5.673,1.5,1.5-.673,1.5-1.5,1.5Z"/>
</svg>
