<?xml version="1.0" encoding="UTF-8"?>
<svg xmlns="http://www.w3.org/2000/svg" id="Layer_1" data-name="Layer 1" viewBox="0 0 24 24" width="512" height="512"><path d="M21.5,4h-3.5V1.5c0-.827-.673-1.5-1.5-1.5H7.5c-.827,0-1.5,.673-1.5,1.5v2.5H2.5c-1.379,0-2.5,1.122-2.5,2.5V24H24V6.5c0-1.378-1.121-2.5-2.5-2.5ZM7,1.5c0-.276,.225-.5,.5-.5h9c.275,0,.5,.224,.5,.5v2.5H7V1.5ZM2.5,5H21.5c.827,0,1.5,.673,1.5,1.5v3.5h-4v-2h-1v2H6v-2h-1v2H1v-3.5c0-.827,.673-1.5,1.5-1.5ZM1,23V11H5v2h1v-2h12v2h1v-2h4v12H1Z"/></svg>
