<?xml version="1.0" encoding="UTF-8"?>
<svg xmlns="http://www.w3.org/2000/svg" id="Layer_1" data-name="Layer 1" viewBox="0 0 24 24">
  <path d="m16,15v-1.5c0-1.378,1.121-2.5,2.5-2.5,1.208,0,2.217.86,2.45,2h1.014c-.243-1.694-1.704-3-3.464-3-1.93,0-3.5,1.57-3.5,3.5v1.5h-2v6.5c0,1.378,1.121,2.5,2.5,2.5h6c1.379,0,2.5-1.122,2.5-2.5v-6.5h-8Zm7,6.5c0,.827-.673,1.5-1.5,1.5h-6c-.827,0-1.5-.673-1.5-1.5v-5.5h9v5.5ZM5,14h6v1h-6c-2.206,0-4,1.794-4,4v5H0v-5c0-2.757,2.243-5,5-5ZM8,0C4.691,0,2,2.691,2,6s2.691,6,6,6,6-2.691,6-6S11.309,0,8,0Zm0,11c-2.757,0-5-2.243-5-5S5.243,1,8,1s5,2.243,5,5-2.243,5-5,5Zm11,9.5h-1v-2h1v2Z"/>
</svg>
