<?xml version="1.0" encoding="UTF-8"?>
<svg xmlns="http://www.w3.org/2000/svg" id="Layer_1" data-name="Layer 1" viewBox="0 0 24 24">
  <path d="m16.9,4.002c-.464-2.281-2.485-4.002-4.9-4.002s-4.436,1.722-4.9,4.002c-2.826.08-5.1,2.403-5.1,5.248,0,.914.245,1.797.762,2.679l9.238,12.078,9.273-12.131c.482-.829.727-1.712.727-2.626,0-2.844-2.274-5.168-5.1-5.248Zm4.1,5.248c0,.253-.024.504-.07.75h-8.359c-.047-.248-.072-.499-.072-.75,0-2.344,1.907-4.25,4.25-4.25s4.25,1.906,4.25,4.25ZM12,1c1.886,0,3.471,1.312,3.891,3.071-1.724.285-3.167,1.412-3.891,2.944-.724-1.532-2.167-2.659-3.891-2.944.42-1.759,2.005-3.071,3.891-3.071Zm-4.75,4c2.343,0,4.25,1.906,4.25,4.25,0,.251-.024.502-.072.75H3.071c-.047-.247-.071-.497-.071-.75,0-2.344,1.907-4.25,4.25-4.25Zm4.75,17.36L3.591,11.374c-.072-.123-.137-.248-.195-.374h17.215c-.051.109-.106.217-.166.321l-8.444,11.039Z"/>
</svg>
