<?xml version="1.0" encoding="UTF-8"?>
<svg xmlns="http://www.w3.org/2000/svg" id="Layer_1" data-name="Layer 1" viewBox="0 0 24 24">
  <path d="m21.5,4h-3.25L15.25,0h-6.5l-3,4h-3.25c-1.378,0-2.5,1.121-2.5,2.5v17.5h24V6.5c0-1.379-1.122-2.5-2.5-2.5ZM9.25,1h5.5l2.25,3H7l2.25-3Zm13.75,22H1V6.5c0-.827.673-1.5,1.5-1.5h19c.827,0,1.5.673,1.5,1.5v16.5Zm-6-15h1v3.5c0,.827-.673,1.5-1.5,1.5h-3.5v-1h3.5c.022,0,.044-.002.066-.005-.772-1.761-2.52-2.995-4.566-2.995-2.419,0-4.436,1.718-4.899,4h-1.011c.477-2.837,2.938-5,5.91-5,2.092,0,3.929,1.073,5,2.697v-2.697Zm-.101,7h1.011c-.477,2.837-2.938,5-5.91,5-2.094,0-3.93-1.076-5-2.704v2.704h-1v-3.5c0-.827.673-1.5,1.5-1.5h3.5v1h-3.5c-.021,0-.041.002-.061.004.772,1.761,2.516,2.996,4.561,2.996,2.419,0,4.436-1.718,4.899-4Z"/>
</svg>
