<?xml version="1.0" encoding="UTF-8"?>
<svg xmlns="http://www.w3.org/2000/svg" id="Layer_1" data-name="Layer 1" viewBox="0 0 24 24" width="512" height="512"><path d="M22,9H13v6h9c1.1,0,2-.9,2-2v-2c0-1.1-.9-2-2-2Zm1,4c0,.55-.45,1-1,1H14v-4h8c.55,0,1,.45,1,1v2ZM22,0H13V6h9c1.1,0,2-.9,2-2V2c0-1.1-.9-2-2-2Zm1,4c0,.55-.45,1-1,1H14V1h8c.55,0,1,.45,1,1v2Zm-1,14H13v6h9c1.1,0,2-.9,2-2v-2c0-1.1-.9-2-2-2Zm1,4c0,.55-.45,1-1,1H14v-4h8c.55,0,1,.45,1,1v2ZM8.5,13H2.5c-1.38,0-2.5,1.12-2.5,2.5v8.5H11V15.5c0-1.38-1.12-2.5-2.5-2.5Zm1.5,10H1v-7.5c0-.83,.67-1.5,1.5-1.5h6c.83,0,1.5,.67,1.5,1.5v7.5ZM8.5,0H2.5C1.12,0,0,1.12,0,2.5V11H11V2.5c0-1.38-1.12-2.5-2.5-2.5Zm1.5,10H1V2.5c0-.83,.67-1.5,1.5-1.5h6c.83,0,1.5,.67,1.5,1.5v7.5Z"/></svg>
