<?xml version="1.0" encoding="UTF-8"?>
<svg xmlns="http://www.w3.org/2000/svg" id="Layer_1" data-name="Layer 1" viewBox="0 0 24 24">
  <path d="m5.5,10c-3.084,0-5.5,1.318-5.5,3v8c0,1.682,2.416,3,5.5,3s5.5-1.318,5.5-3v-8c0-1.682-2.416-3-5.5-3Zm0,13c-2.652,0-4.5-1.054-4.5-2v-2.254c.987.764,2.62,1.254,4.5,1.254s3.513-.49,4.5-1.254v2.254c0,.946-1.848,2-4.5,2Zm0-4c-2.652,0-4.5-1.054-4.5-2v-2.254c.987.764,2.62,1.254,4.5,1.254s3.513-.49,4.5-1.254v2.254c0,.946-1.848,2-4.5,2Zm0-4c-2.652,0-4.5-1.054-4.5-2s1.848-2,4.5-2,4.5,1.054,4.5,2-1.848,2-4.5,2Zm18.5,5h-2v2h-1v-2h-8v-1h10v-3h-3v-1h3V5h-3v-1h3v-1.5c0-.827-.673-1.5-1.5-1.5H2.5c-.827,0-1.5.673-1.5,1.5v6.418c-.361.172-.696.365-1,.578V2.5C0,1.122,1.122,0,2.5,0h19c1.378,0,2.5,1.122,2.5,2.5v17.5ZM11,5c-2.058,0-3.83,1.25-4.596,3.032-.295-.021-.596-.032-.904-.032-.053,0-.105,0-.157.001.825-2.329,3.049-4.001,5.657-4.001,3.309,0,6,2.691,6,6,0,2.608-1.672,4.831-4,5.657v-1.075c1.764-.773,3-2.536,3-4.582,0-2.757-2.243-5-5-5Z"/>
</svg>
