<?xml version="1.0" encoding="UTF-8"?>
<svg xmlns="http://www.w3.org/2000/svg" id="Layer_1" data-name="Layer 1" viewBox="0 0 24 24" width="512" height="512"><path d="m23.685,10.737l-4.445-8.361c-.451-.849-1.327-1.376-2.286-1.376H7.067c-.957,0-1.832.525-2.284,1.372L.316,10.737c-.423.794-.423,1.742,0,2.535l4.466,8.356c.452.846,1.327,1.371,2.283,1.371h9.887c.959,0,1.835-.527,2.286-1.376l4.445-8.361c.421-.79.421-1.735,0-2.525Zm-.883,2.057l-4.445,8.361c-.277.521-.814.845-1.403.845H7.067c-.587,0-1.124-.322-1.401-.842L1.199,12.802c-.266-.499-.267-1.095,0-1.594L5.666,2.843c.278-.52.815-.843,1.402-.843h9.887c.588,0,1.125.324,1.403.845l4.445,8.361c.264.497.264,1.091,0,1.588Zm-10.302,1.206h-1V6h1v8Zm.5,3c0,.552-.448,1-1,1s-1-.448-1-1,.448-1,1-1,1,.448,1,1Z"/></svg>
