<?xml version="1.0" encoding="UTF-8"?>
<svg xmlns="http://www.w3.org/2000/svg" id="Layer_1" data-name="Layer 1" viewBox="0 0 24 24">
  <path d="m12.5,8.989l-1.497-2.993-2.993-1.497,2.993-1.497L12.5.011l1.497,2.993,2.993,1.497-2.993,1.497-1.497,2.993Zm-2.254-4.489l1.503.751.751,1.502.751-1.502,1.503-.751-1.503-.751-.751-1.502-.751,1.502-1.503.751Zm-5.246,7.5c-.552,0-1,.448-1,1s.448,1,1,1,1-.448,1-1-.448-1-1-1ZM1,8c-.552,0-1,.448-1,1s.448,1,1,1,1-.448,1-1-.448-1-1-1Zm4-4c-.552,0-1,.448-1,1s.448,1,1,1,1-.448,1-1-.448-1-1-1ZM1,0C.448,0,0,.448,0,1s.448,1,1,1,1-.448,1-1-.448-1-1-1Zm22,12c-.552,0-1,.448-1,1s.448,1,1,1,1-.448,1-1-.448-1-1-1Zm-4-4c-.552,0-1,.448-1,1s.448,1,1,1,1-.448,1-1-.448-1-1-1Zm4-4c-.552,0-1,.448-1,1s.448,1,1,1,1-.448,1-1-.448-1-1-1ZM19,0c-.552,0-1,.448-1,1s.448,1,1,1,1-.448,1-1-.448-1-1-1Zm-5,22c-.552,0-1,.448-1,1s.448,1,1,1,1-.448,1-1-.448-1-1-1Zm-3-5c-.552,0-1,.448-1,1s.448,1,1,1,1-.448,1-1-.448-1-1-1Zm4-4c-.552,0-1,.448-1,1s.448,1,1,1,1-.448,1-1-.448-1-1-1Zm-5-3c-.552,0-1,.448-1,1s.448,1,1,1,1-.448,1-1-.448-1-1-1Zm9.513,13.989l-1.497-2.993-2.993-1.497,2.993-1.497,1.497-2.993,1.497,2.993,2.993,1.497-2.993,1.497-1.497,2.993Zm-2.254-4.489l1.503.751.751,1.502.751-1.502,1.503-.751-1.503-.751-.751-1.502-.751,1.502-1.503.751Zm-12.746,4.489l-1.497-2.993L.022,19.5l2.993-1.497,1.497-2.993,1.497,2.993,2.993,1.497-2.993,1.497-1.497,2.993Zm-2.254-4.489l1.503.751.751,1.502.751-1.502,1.503-.751-1.503-.751-.751-1.502-.751,1.502-1.503.751Z"/>
</svg>
