<?xml version="1.0" encoding="UTF-8"?>
<svg xmlns="http://www.w3.org/2000/svg" id="Layer_1" data-name="Layer 1" viewBox="0 0 24 24">
  <path d="m21.5,6H5.534L21.153.976l-.307-.952L2.214,6.017c-1.244.142-2.214,1.201-2.214,2.483v15.5h24v-15.5c0-1.378-1.122-2.5-2.5-2.5Zm1.5,17H1v-14.5c0-.828.672-1.5,1.5-1.5h19c.828,0,1.5.672,1.5,1.5v14.5ZM3,13h6v1H3v-1Zm0,3h6v1H3v-1Zm0,3h6v1H3v-1Zm0-9h6v1H3v-1Zm13,0c-2.757,0-5,2.243-5,5s2.243,5,5,5,5-2.243,5-5-2.243-5-5-5Zm0,9c-2.206,0-4-1.794-4-4s1.794-4,4-4,4,1.794,4,4-1.794,4-4,4Zm0-6c-1.103,0-2,.897-2,2s.897,2,2,2,2-.897,2-2-.897-2-2-2Zm0,3c-.551,0-1-.449-1-1s.449-1,1-1,1,.449,1,1-.449,1-1,1Z"/>
</svg>
