<?xml version="1.0" encoding="UTF-8"?>
<svg xmlns="http://www.w3.org/2000/svg" id="Layer_1" data-name="Layer 1" width="512" height="512" viewBox="0 0 24 24"><path d="M24,12.5c0-1.378-1.121-2.5-2.5-2.5h-.739L15.93,3.07c-.467-.67-1.233-1.07-2.051-1.07h-4.879V10H0v7H2v1c0,1.654,1.346,3,3,3s3-1.346,3-3v-1h8v1c0,1.654,1.346,3,3,3s3-1.346,3-3v-1h2v-4.5ZM10,3h3.879c.49,0,.95,.24,1.23,.643l4.432,6.357H10V3Zm-3,15c0,1.103-.897,2-2,2s-2-.897-2-2v-1H7v1Zm14,0c0,1.103-.897,2-2,2s-2-.897-2-2v-1h4v1Zm2-2H1v-5H21.5c.827,0,1.5,.673,1.5,1.5v3.5Z"/></svg>
