<?xml version="1.0" encoding="UTF-8"?>
<svg xmlns="http://www.w3.org/2000/svg" id="Layer_1" data-name="Layer 1" viewBox="0 0 24 24" width="512" height="512"><path d="m21.5,4h-6.5v-1c0-1.654-1.346-3-3-3s-3,1.346-3,3v1H2.5c-1.378,0-2.5,1.121-2.5,2.5v17.5h24V6.5c0-1.379-1.122-2.5-2.5-2.5Zm-11.5-1c0-1.103.897-2,2-2s2,.897,2,2v4h-4V3Zm13,20H1V6.5c0-.827.673-1.5,1.5-1.5h6.5v3h6v-3h6.5c.827,0,1.5.673,1.5,1.5v16.5Zm-6-3.5v1.5h-1v-1.5c0-.827-.673-1.5-1.5-1.5h-5c-.827,0-1.5.673-1.5,1.5v1.5h-1v-1.5c0-1.379,1.122-2.5,2.5-2.5h5c1.378,0,2.5,1.121,2.5,2.5Zm-5-3.5c1.654,0,3-1.346,3-3s-1.346-3-3-3-3,1.346-3,3,1.346,3,3,3Zm0-5c1.103,0,2,.897,2,2s-.897,2-2,2-2-.897-2-2,.897-2,2-2Z"/></svg>
