<?xml version="1.0" encoding="UTF-8"?>
<svg xmlns="http://www.w3.org/2000/svg" id="Layer_1" data-name="Layer 1" viewBox="0 0 24 24">
  <path d="m19.667,4c-1.594,0-3.089,1.063-3.833,2.515-.645-1.257-1.852-2.223-3.2-2.459.348-1.625.949-2.891,1.307-3.547l-.879-.479c-.397.729-1.074,2.157-1.441,3.987-1.5.132-2.783,1.037-3.454,2.317-.727-1.387-2.172-2.334-3.833-2.334C1.944,4,0,5.96,0,8.371c0,3.235,3.193,15.629,8.5,15.629,1.503,0,2.811-.777,3.488-2.004.989,1.222,2.157,2.004,3.512,2.004,5.405,0,8.5-12.283,8.5-15.629,0-2.41-1.943-4.371-4.333-4.371Zm-4.167,19c-1.422,0-2.643-1.234-3.645-3h-1.154c.195.369.399.723.613,1.057-.402,1.169-1.509,1.943-2.814,1.943-4.304,0-7.5-11.202-7.5-14.629,0-1.858,1.496-3.371,3.333-3.371s3.333,1.512,3.333,3.371c0,1.544.566,5.226,1.754,8.629h1.085c-1.198-3.301-1.839-7.041-1.839-8.629,0-1.858,1.496-3.371,3.333-3.371,1.71,0,3.327,1.701,3.327,3.5h1.013c0-1.799,1.617-3.5,3.327-3.5,1.838,0,3.333,1.512,3.333,3.371,0,3.536-3.112,14.629-7.5,14.629Z"/>
</svg>
