<?xml version="1.0" encoding="UTF-8"?>
<svg xmlns="http://www.w3.org/2000/svg" id="Layer_1" data-name="Layer 1" width="512" height="512" viewBox="0 0 24 24"><path d="M12.007,20c-3.574,0-5.945-3.249-6.007-5.486v-.515h12v.501c0,2.189-2.39,5.5-5.993,5.5Zm-4.947-5.001c.36,1.749,2.275,4.001,4.947,4.001,2.64,0,4.615-2.232,4.944-4-3.201-.002-8.229,0-9.892,0Zm4.94,9.001C5.383,24,0,18.617,0,12S5.383,0,12,0s12,5.383,12,12-5.383,12-12,12ZM12,1C5.935,1,1,5.935,1,12s4.935,11,11,11,11-4.935,11-11S18.065,1,12,1Zm5.979,10.643l-2.679-2.143,2.679-2.143-.625-.781-3.654,2.924,3.654,2.924,.625-.781Zm-7.679-2.143l-3.654-2.924-.625,.781,2.679,2.143-2.679,2.143,.625,.781,3.654-2.924Z"/></svg>
