<?xml version="1.0" encoding="UTF-8"?>
<svg xmlns="http://www.w3.org/2000/svg" id="Layer_1" data-name="Layer 1" viewBox="0 0 24 24" width="512" height="512"><path d="M12,23.987l-7.067-6.912c-3.902-3.903-3.902-10.247-.004-14.146C6.817,1.04,9.329,0,12,0s5.182,1.04,7.07,2.929c3.898,3.899,3.898,10.243,0,14.142l-7.07,6.916ZM12,1c-2.404,0-4.664,.936-6.364,2.636-3.509,3.509-3.509,9.219,0,12.728l6.364,6.225,6.367-6.229c3.505-3.505,3.505-9.215-.004-12.724h0c-1.699-1.7-3.959-2.636-6.363-2.636Zm-.442,11.563l5.793-5.707-.701-.712-5.796,5.709c-.193,.195-.512,.195-.713-.005l-2.793-2.707-.695,.718,2.787,2.702c.293,.293,.678,.439,1.062,.439s.767-.146,1.057-.437Z"/></svg>
