<?xml version="1.0" encoding="UTF-8"?>
<svg xmlns="http://www.w3.org/2000/svg" id="Layer_1" data-name="Layer 1" viewBox="0 0 24 24">
  <path d="m20,11.5c0-.608.23-1.2.65-1.666l.301-.334-.301-.334c-.42-.466-.65-1.057-.65-1.666,0-.887.487-1.716,1.271-2.163l.57-.325L17.588.759c-.979-.979-2.686-.979-3.664,0L1.759,12.924c-1.01,1.01-1.01,2.654,0,3.664l6.653,6.653c.505.505,1.168.758,1.832.758s1.327-.252,1.832-.758l9.398-9.398-.463-.346c-.643-.481-1.012-1.208-1.012-1.997Zm-12.939-2.464l3.824-3.824,4.065,4.064-3.824,3.824-4.065-4.065Zm8.595.948l4.132,4.132-3.824,3.824-4.132-4.132,3.824-3.824Zm.707-.707l2.82-2.82c-.108.336-.183.683-.183,1.044,0,.715.225,1.411.64,2-.415.589-.64,1.285-.64,2,0,.155.024.306.044.457l-2.681-2.68Zm-1.733-7.811c.311-.31.718-.465,1.125-.465s.814.155,1.125.465l2.939,2.94-4.164,4.164-4.065-4.064,3.039-3.039Zm-3.262,21.068c-.62.62-1.63.62-2.25,0l-6.653-6.653c-.62-.62-.62-1.63,0-2.25l3.888-3.888,8.903,8.904-3.888,3.888Z"/>
</svg>
