<?xml version="1.0" encoding="UTF-8"?>
<svg xmlns="http://www.w3.org/2000/svg" id="Layer_1" data-name="Layer 1" viewBox="0 0 24 24">
  <path d="m23.041,13.64l-5.448-4.263c-.645-.504-1.541-.504-2.186,0l-5.448,4.263c-.61.478-.959,1.195-.959,1.969v8.391h15v-8.391c0-.774-.35-1.491-.959-1.969Zm-.041,9.36h-13v-7.391c0-.464.21-.895.576-1.182l5.449-4.263c.279-.219.672-.219.951,0l5.448,4.263c.366.287.576.717.576,1.182v7.391Zm-9-3h5v-5h-5v5Zm1-4h3v3h-3v-3Zm-7.855-1.531c-.086.333-.135.678-.143,1.031-.634-.265-1.218-.628-1.732-1.07l-2.127,2.126-.707-.707,2.127-2.127c-.873-1.019-1.437-2.31-1.544-3.726H0v-1h3.019c.109-1.416.674-2.706,1.547-3.723l-2.138-2.138.707-.707,2.138,2.138c1.018-.873,2.308-1.438,3.723-1.547V0h1v3.019c1.416.108,2.707.671,3.726,1.544l2.136-2.135.707.707-2.135,2.134c.47.546.85,1.171,1.119,1.852-.32.083-.631.21-.926.379-.802-2.047-2.796-3.5-5.124-3.5-3.033,0-5.5,2.467-5.5,5.5,0,2.19,1.287,4.086,3.145,4.969Z"/>
</svg>
