<?xml version="1.0" encoding="UTF-8"?>
<svg xmlns="http://www.w3.org/2000/svg" id="Layer_1" data-name="Layer 1" viewBox="0 0 24 24" width="512" height="512"><path d="M13.676,3.946c1.038-.979,2.663-1.217,3.94-.579l3.266,1.633h3.118v-1h-2.882l-3.055-1.527c-1.644-.821-3.736-.515-5.074,.747l-.951,.901-1.045-.952c-.826-.753-1.897-1.168-3.054-1.168-.691,0-1.385,.164-2.003,.473l-1.838,.919L.754,.046,.047,.753,23.246,23.954l.707-.707-5.334-5.334,2.548-1.912h2.833v-1h-3.078l-6.451-6.343,1.415-1.362-.693-.721-4.03,3.881-2.118-2.118L13.676,3.946Zm-7.292-.579c1.207-.604,2.87-.431,3.936,.54l.991,.903-2.974,2.819-3.492-3.492,1.539-.77Zm7.367,5.984l6.325,6.218-2.17,1.629-6.036-6.036,1.881-1.811ZM1.465,5H0v-1H.465l1,1Zm14.017,14.018l.714,.714-4.196,3.15L2.833,16H0v-1H3.167l8.833,6.631,3.482-2.614Z"/></svg>
