<?xml version="1.0" encoding="UTF-8"?>
<svg xmlns="http://www.w3.org/2000/svg" id="Layer_1" data-name="Layer 1" width="512" height="512" viewBox="0 0 24 24"><path d="M19,11c-.357,0-.704,.038-1.04,.109l-.879-2.746c.141-.042,.543-.126,.543-.126,.621-.118,1.01-.192,1.43-.222,.238,1.132,1.244,1.985,2.446,1.985h1.5V5h-1.5c-1.212,0-2.225,.867-2.452,2.013-.501,.031-1.721,.263-1.721,.263-.186,.035-.37,.081-.55,.135l-1.411-4.411h-4.365v1h3.635l1.212,3.788c-.586,.303-1.117,.712-1.568,1.212h-5.832c-.044-.211-.115-.419-.214-.619-.427-.852-1.283-1.381-2.236-1.381H2v1h3.996c.58,0,1.082,.31,1.342,.829s.207,1.106-.142,1.571l-.636,.848c-.501-.165-1.024-.248-1.56-.248-2.757,0-5,2.243-5,5s2.243,5,5,5,5-2.243,5-5c0-.07-.002-.139-.005-.208,.394-.171,.743-.442,1.005-.792l3.752-5.002c.385-.514,.864-.934,1.405-1.241l.851,2.658c-1.768,.771-3.007,2.536-3.007,4.585,0,2.757,2.243,5,5,5s5-2.243,5-5-2.243-5-5-5Zm2.5-5h.5v3h-.5c-.827,0-1.5-.673-1.5-1.5s.673-1.5,1.5-1.5ZM5,20c-2.206,0-4-1.794-4-4s1.794-4,4-4c.313,0,.619,.035,.917,.105l-1.121,1.495c-.343,.458-.396,1.06-.141,1.571,.255,.511,.77,.829,1.341,.829h3.004c0,2.206-1.794,4-4,4Zm5.199-5.6c-.281,.375-.729,.6-1.199,.6h-3.004c-.193,0-.36-.103-.447-.276-.086-.173-.068-.369,.048-.524l2.4-3.2c.227-.303,.378-.645,.451-1h5.052l-3.3,4.4Zm8.801,5.6c-2.206,0-4-1.794-4-4,0-1.604,.948-2.99,2.314-3.627l.945,2.955c-.161,.178-.26,.413-.26,.672,0,.552,.448,1,1,1s1-.448,1-1c0-.479-.337-.88-.787-.977l-.946-2.955c.238-.044,.483-.068,.733-.068,2.206,0,4,1.794,4,4s-1.794,4-4,4Z"/></svg>
