<?xml version="1.0" encoding="UTF-8"?>
<svg xmlns="http://www.w3.org/2000/svg" id="Layer_1" data-name="Layer 1" width="512" height="512" viewBox="0 0 24 24"><path d="M22,3.5c0-1.93-1.57-3.5-3.5-3.5H5.5c-1.93,0-3.5,1.57-3.5,3.5v15.5H6.062l-3.062,5h1.174l3.062-5h9.528l3.062,5h1.174l-3.062-5h4.062V3.5ZM5.5,1h13c1.379,0,2.5,1.122,2.5,2.5v.5H3v-.5c0-1.378,1.121-2.5,2.5-2.5Zm7,11V5h8.5v7H12.5Zm-9.5,0V5H11.5v7H3Zm0,6v-5h3v1.5c0,.276,.224,.5,.5,.5s.5-.224,.5-.5v-1.5h10v1.5c0,.276,.224,.5,.5,.5s.5-.224,.5-.5v-1.5h3v5H3Z"/></svg>
