<?xml version="1.0" encoding="UTF-8"?>
<svg xmlns="http://www.w3.org/2000/svg" id="Layer_1" data-name="Layer 1" viewBox="0 0 24 24">
  <path d="m24,11.185l-2.729-4.185h-4.271c0-2.586-1.98-4.694-4.5-4.949V0h-1v2.051c-2.52.255-4.5,2.364-4.5,4.949H2.729L0,11.185v.815h1v12h3v-6.5c0-.276.225-.5.5-.5s.5.224.5.5v6.5h3v-5c0-2.206,1.794-4,4-4s4,1.794,4,4v5h3v-6.5c0-.276.225-.5.5-.5s.5.224.5.5v6.5h3v-12h1v-.815ZM3.271,8h4.729v-1c0-2.206,1.794-4,4-4s4,1.794,4,4v1h4.729l1.956,3H1.314l1.956-3Zm18.729,15h-1v-5.5c0-.827-.673-1.5-1.5-1.5s-1.5.673-1.5,1.5v5.5h-1v-4c0-2.757-2.243-5-5-5s-5,2.243-5,5v4h-1v-5.5c0-.827-.673-1.5-1.5-1.5s-1.5.673-1.5,1.5v5.5h-1v-11h20v11ZM12,4c-1.654,0-3,1.346-3,3s1.346,3,3,3,3-1.346,3-3-1.346-3-3-3Zm0,5c-1.103,0-2-.897-2-2s.897-2,2-2,2,.897,2,2-.897,2-2,2Zm.5-2.207l.854.854-.707.707-1.146-1.146v-1.707h1v1.293Z"/>
</svg>
