<?xml version="1.0" encoding="UTF-8"?>
<svg xmlns="http://www.w3.org/2000/svg" id="Layer_1" data-name="Layer 1" viewBox="0 0 24 24">
  <path d="m21.5,0h-11c-1.378,0-2.5,1.122-2.5,2.5v.28c-.532-.48-1.229-.78-2-.78-1.654,0-3,1.346-3,3,0,.771.301,1.468.78,2H1V0H0v24h1v-3h22v3h1V2.5c0-1.378-1.122-2.5-2.5-2.5Zm-12.5,2.5c0-.827.673-1.5,1.5-1.5h11c.827,0,1.5.673,1.5,1.5v4.5h-14V2.5Zm-5,2.5c0-1.103.897-2,2-2s2,.897,2,2-.897,2-2,2-2-.897-2-2Zm-3,3h22v5h-12.5c-1.378,0-2.5,1.122-2.5,2.5v.28c-.532-.48-1.229-.78-2-.78-1.654,0-3,1.346-3,3,0,.771.301,1.468.78,2H1v-12Zm3,10c0-1.103.897-2,2-2s2,.897,2,2-.897,2-2,2-2-.897-2-2Zm5,2v-4.5c0-.827.673-1.5,1.5-1.5h12.5v6h-14Z"/>
</svg>
