<?xml version="1.0" encoding="UTF-8"?>
<svg xmlns="http://www.w3.org/2000/svg" id="Layer_1" data-name="Layer 1" viewBox="0 0 24 24">
  <path d="m2.957,21.043c.005.005.004.005.002.003.011.013-.02-.02-.002-.003Zm16.93-1.157c-2.406,2.406-5.484,3.856-8.668,4.083-.292.021-.581.031-.868.031-2.849,0-5.474-1.06-7.394-2.958C.88,18.931-.196,15.963.03,12.782c.227-3.184,1.677-6.263,4.083-8.668C6.52,1.708,9.598.257,12.782.03c3.206-.225,6.145.811,8.261,2.927,4.349,4.349,3.83,11.943-1.156,16.929ZM3.36,15.873c2.3-4.599,7.913-10.212,12.512-12.512,1.166-.582,2.096-.876,2.838-.98-1.47-.904-3.202-1.381-5.062-1.381-.263,0-.527.009-.794.028-2.944.21-5.797,1.557-8.033,3.793S1.238,9.909,1.028,12.853c-.154,2.16.32,4.178,1.352,5.855.105-.741.398-1.671.981-2.835Zm4.32,3.873c4.434-2.217,9.846-7.629,12.065-12.065.961-1.923,1.182-3.424.59-4.016-.219-.219-.562-.327-1.006-.327-.755,0-1.799.312-3.01.917-4.435,2.218-9.847,7.63-12.064,12.065-.953,1.906-1.162,3.413-.59,4.016.603.573,2.111.362,4.016-.59Zm13.94-14.452c-.105.741-.398,1.67-.98,2.834-2.301,4.6-7.914,10.213-12.512,12.512-1.164.582-2.093.876-2.834.98,1.677,1.03,3.695,1.502,5.854,1.352,2.944-.21,5.796-1.557,8.033-3.793,4.017-4.017,4.919-9.839,2.44-13.886Z"/>
</svg>
