<?xml version="1.0" encoding="UTF-8"?>
<svg xmlns="http://www.w3.org/2000/svg" id="Layer_1" data-name="Layer 1" viewBox="0 0 24 24" width="512" height="512"><path d="M14.92,6.15c-.61-.82-1.56-1.28-2.67-1.13-.57-.65-1.39-1.03-2.26-1.03-1.16,0-2.22,.68-2.71,1.72-1.08,.44-1.79,1.48-1.79,2.65,0,0,0,.02,0,.03-.92,.53-1.5,1.52-1.5,2.6,0,1.65,1.35,3,3,3,.75,0,1.46-.28,2-.77v6.77h1v-7c.82-.05,1.54-.42,2.09-1h1.91c1.65,0,3-1.35,3-3,0-1.3-.84-2.45-2.08-2.85Zm-.92,4.85h-2.36l-.15,.18c-.43,.52-1.06,.82-1.73,.82-.17,0-.9-.17-.9-.17l-.2,.29c-.37,.55-.99,.88-1.65,.88-1.1,0-2-.9-2-2,0-.81,.48-1.53,1.23-1.84l.35-.2s-.07-.51-.07-.58c0-.82,.53-1.53,1.32-1.78l.23-.07,.09-.23c.3-.79,1.03-1.3,1.86-1.3,.65,0,1.27,.32,1.64,.86l.2,.28,.33-.08c.17-.04,.32-.06,.45-.06,.63,0,1.22,.32,1.57,.86l.11,.16,.19,.05c.89,.23,1.51,1.02,1.51,1.93,0,1.1-.9,2-2,2Zm8.86-.29c-1.07-2.57-2.08-5-3.14-6.31C17.11,.92,12.83-.66,8.53,.26,4.14,1.21,.84,4.71,.14,9.18c-.51,3.27,.33,6.52,2.3,8.9,.36,.43,.56,.99,.56,1.56v4.35h13v-3h2.36c1.19,0,2.22-.85,2.45-2.01l.79-3.99h2.4v-1.5s-.77-1.91-1.14-2.79Zm.14,3.29h-2.22l-.95,4.79c-.14,.7-.76,1.21-1.47,1.21h-3.36v3H4v-3.35c0-.81-.28-1.59-.79-2.2C1.42,15.28,.66,12.33,1.13,9.34,1.77,5.28,4.76,2.1,8.74,1.24c3.91-.84,7.81,.6,10.19,3.78,.98,1.21,2.01,3.69,3.01,6.08,.35,.85,.71,1.71,1.06,2.51v.39Z"/></svg>
