<?xml version="1.0" encoding="UTF-8"?>
<svg xmlns="http://www.w3.org/2000/svg" id="Layer_1" data-name="Layer 1" viewBox="0 0 24 24">
  <path d="m6,6h-1V2c0-1.103.897-2,2-2h4v1h-4c-.552,0-1,.448-1,1v4ZM22,0h-4v1h4c.552,0,1,.448,1,1v4h1V2c0-1.103-.897-2-2-2Zm-3.155,13.3l-3.546-.935-1.833,3.633-.866-.148-.424-3.319L.732,23.975l-.707-.707,11.428-11.428-3.298-.421-.116-.86,3.648-1.88-1.001-3.51.626-.626,2.953,2.953,3.852-2.255.662.656-2.258,3.854,2.937,2.937-.613.613Zm-1.654-1.465l-1.924-1.924,1.645-2.807-2.809,1.645-1.897-1.899.667,2.342-2.831,1.459,2.951.377.376,2.944,1.403-2.782,2.419.646Zm5.809,5.165c0,.552-.448,1-1,1h-4v1h4c1.103,0,2-.897,2-2v-4h-1v4Z"/>
</svg>
