<?xml version="1.0" encoding="UTF-8"?>
<svg xmlns="http://www.w3.org/2000/svg" id="Layer_1" data-name="Layer 1" viewBox="0 0 24 24">
  <path d="m16.757,16.615c-.956.574-1.939,1.161-3.257,1.426v-1.03c1.056-.25,1.886-.739,2.743-1.254.831-.499,1.684-1.005,2.757-1.304v1.047c-.827.271-1.525.684-2.243,1.114Zm-.757-1.875c.314-.187.643-.377,1-.559v-4.735c-.314.187-.647.373-1,.554v4.74Zm-3.5-10.763V0h-1v3.977c.161.013.325.023.5.023s.339-.01.5-.023Zm6.5,2.524c-1.073.299-1.926.805-2.757,1.304-.857.515-1.687,1.003-2.743,1.254v1.03c1.318-.265,2.3-.852,3.257-1.426.718-.431,1.416-.843,2.243-1.114v-1.047ZM6,3.729v-1.102c-.834-.365-1.784-.627-3-.627H0v1h3c1.236,0,2.159.308,3,.729ZM4,0h-1v1c.343,0,.674.023,1,.06V0Zm4,0h-1v5.995c.356.182.686.372,1,.559V0Zm7,5.373v-1.102c-.841.421-1.764.729-3,.729s-2.159-.308-3-.729v1.102c.834.365,1.784.627,3,.627s2.166-.262,3-.627Zm0,6.898c-.841.421-1.764.729-3,.729s-2.159-.308-3-.729v1.102c.834.365,1.784.627,3,.627s2.166-.262,3-.627v-1.102ZM17,0h-1v6.554c.314-.187.644-.376,1-.559V0Zm-4.5,11.977v-5.001c-.165.009-.326.023-.5.023s-.335-.014-.5-.023v5.001c.161.013.325.023.5.023s.339-.01.5-.023Zm-9.5-2.977c.343,0,.674.023,1,.06v-4.964c-.322-.059-.648-.096-1-.096v5ZM21,0h-1v1.06c.326-.037.657-.06,1-.06V0Zm-9.5,14.977v5.001c.161.013.325.023.5.023s.339-.009.5-.023v-5.001c-.165.009-.326.023-.5.023s-.335-.014-.5-.023Zm-6.5.524c.827.271,1.525.684,2.243,1.114.956.574,1.939,1.161,3.257,1.426v-1.03c-1.056-.25-1.886-.739-2.743-1.254-.831-.499-1.684-1.005-2.757-1.304v1.047Zm3-5.5c-.353-.181-.686-.367-1-.554v4.549c.357.182.686.372,1,.559v-4.553Zm2.5.088v-1.03c-1.056-.25-1.886-.739-2.743-1.254-.831-.499-1.684-1.005-2.757-1.304v1.047c.827.271,1.525.684,2.243,1.114.956.574,1.939,1.161,3.257,1.426Zm-3.5,13.912h1v-6c-.353-.181-.686-.367-1-.554v6.554Zm15-9h2v-1h-2v1Zm-1-3c-.364,0-.692.033-1,.088v4.972c.317-.036.646-.06,1-.06v-5Zm-3-1.373v1.102c.841-.421,1.764-.729,3-.729h3v-1h-3c-1.216,0-2.166.262-3,.627Zm0,8v1.102c.841-.421,1.764-.729,3-.729h3v-1h-3c-1.216,0-2.166.262-3,.627Zm2,5.373h1v-4c-.364,0-.692.033-1,.088v3.912Zm1-20c-.352,0-.678.037-1,.096v4.964c.317-.036.646-.06,1-.06v-5Zm0-2c-1.216,0-2.166.262-3,.627v1.102c.841-.421,1.764-.729,3-.729h3v-1h-3Zm1,5h2v-1h-2v1ZM3,24h1v-3.904c-.322-.059-.648-.096-1-.096v4Zm0-7c.343,0,.674.023,1,.06v-4.964c-.322-.059-.648-.096-1-.096v5Zm13,7h1v-6.367c-.315.187-.648.373-1,.554v5.814ZM2,14H0v1h2v-1Zm4-2.271v-1.102c-.834-.365-1.784-.627-3-.627H0v1h3c1.236,0,2.159.308,3,.729ZM2,6H0v1h2v-1Zm7,14.271v1.102c.834.365,1.784.627,3,.627s2.166-.262,3-.627v-1.102c-.841.421-1.764.729-3,.729s-2.159-.309-3-.729ZM0,18v1h3c1.236,0,2.159.308,3,.729v-1.102c-.834-.365-1.784-.627-3-.627H0Zm11.5,4.977v1.023h1v-1.023c-.165.009-.326.023-.5.023s-.335-.014-.5-.023Z"/>
</svg>
