<?xml version="1.0" encoding="UTF-8"?>
<svg xmlns="http://www.w3.org/2000/svg" id="Layer_1" data-name="Layer 1" viewBox="0 0 24 24" width="512" height="512"><path d="m14.067,13.021c-.348,0-.58-.02-.613-.022l-.415-.038-.038-.415c-.011-.121-.253-2.978,1.136-4.367,1.389-1.389,4.245-1.148,4.367-1.137l.415.038.038.415c.011.121.253,2.978-1.136,4.367-1.015,1.015-2.812,1.159-3.754,1.159Zm-.09-.999c.899.017,2.402-.133,3.137-.867s.878-2.254.868-3.136c-.889-.003-2.402.133-3.137.867-.737.737-.878,2.254-.868,3.136Zm-4.045.999c-.942,0-2.739-.145-3.754-1.159-1.39-1.389-1.147-4.246-1.136-4.367l.038-.415.415-.038c.122-.011,2.977-.252,4.367,1.137,1.39,1.389,1.147,4.246,1.136,4.367l-.038.415-.415.038c-.033.003-.265.022-.613.022Zm-3.914-5.002c-.01.883.132,2.401.867,3.136.735.734,2.274.881,3.136.867.01-.883-.132-2.401-.867-3.136-.735-.734-2.261-.873-3.136-.867Zm5.981,15.954l-.267-.168c-.397-.25-9.733-6.227-9.733-13.804C2,4.486,6.486,0,12,0s10,4.486,10,10c0,7.577-9.336,13.553-9.733,13.804l-.267.168Zm0-22.972C7.038,1,3,5.038,3,10c0,6.342,7.48,11.749,9,12.781,1.52-1.032,9-6.438,9-12.781,0-4.962-4.038-9-9-9Z"/></svg>
