<?xml version="1.0" encoding="UTF-8"?>
<svg xmlns="http://www.w3.org/2000/svg" id="Layer_1" data-name="Layer 1" viewBox="0 0 24 24" width="512" height="512"><path d="M9,16h-2v-1h2v1Zm4-1h-2v1h2v-1Zm-6,5h10v-1H7v1Zm8-4h2v-1h-2v1Zm9-6h-2v11.5c0,1.379-1.121,2.5-2.5,2.5H4.5c-1.379,0-2.5-1.121-2.5-2.5V10H0v-1H2v-2h2V2.5c0-1.379,1.121-2.5,2.5-2.5h11c1.379,0,2.5,1.121,2.5,2.5V7h2v2h2v1ZM5,7h5v1h-1.5c-.827,0-1.5,.673-1.5,1.5s.673,1.5,1.5,1.5h7c.827,0,1.5-.673,1.5-1.5s-.673-1.5-1.5-1.5h-1.5v-1h5V2.5c0-.827-.673-1.5-1.5-1.5H6.5c-.827,0-1.5,.673-1.5,1.5V7Zm16,1h-3.512c.317,.419,.512,.935,.512,1.5,0,1.379-1.121,2.5-2.5,2.5h-7c-1.379,0-2.5-1.121-2.5-2.5,0-.565,.195-1.081,.512-1.5H3v13.5c0,.827,.673,1.5,1.5,1.5h15c.827,0,1.5-.673,1.5-1.5V8Z"/></svg>
