<?xml version="1.0" encoding="UTF-8"?>
<svg xmlns="http://www.w3.org/2000/svg" id="Layer_1" data-name="Layer 1" viewBox="0 0 24 24" width="512" height="512"><path d="M12,16c-2.206,0-4-1.794-4-4s1.794-4,4-4,4,1.794,4,4-1.794,4-4,4Zm0-7c-1.654,0-3,1.346-3,3s1.346,3,3,3,3-1.346,3-3-1.346-3-3-3Zm-7-2c-.552,0-1,.448-1,1s.448,1,1,1,1-.448,1-1-.448-1-1-1Zm13,3c0,.552,.448,1,1,1s1-.448,1-1-.448-1-1-1-1,.448-1,1Zm-13,3c-.552,0-1,.448-1,1s.448,1,1,1,1-.448,1-1-.448-1-1-1Zm13,3c0,.552,.448,1,1,1s1-.448,1-1-.448-1-1-1-1,.448-1,1Zm-.772,5c-1.635,0-3.527-.517-5.358-1.018-1.767-.483-3.594-.982-5.095-.982-2.996,0-6.042,1.328-6.073,1.341l-.702,.309V6.802c0-.974,.534-1.855,1.394-2.299,1.331-.686,3.344-1.503,5.381-1.503,1.646,0,3.277,.521,4.855,1.023,1.575,.502,3.062,.977,4.552,.977,1.622,0,2.891-.376,3.91-.679,.242-.072,.468-.139,.676-.194,.773-.204,1.582-.042,2.218,.448,.645,.496,1.015,1.247,1.015,2.061v12.765l-.294,.133c-.132,.06-3.271,1.466-6.479,1.466Zm-10.453-3c1.635,0,3.528,.518,5.359,1.018,1.767,.483,3.593,.982,5.094,.982,2.447,0,4.937-.915,5.772-1.253V6.636c0-.5-.228-.963-.624-1.268-.39-.299-.882-.398-1.353-.274-.199,.053-.415,.117-.647,.186-1.024,.304-2.427,.72-4.194,.72-1.646,0-3.278-.521-4.856-1.024-1.574-.502-3.061-.976-4.551-.976-1.836,0-3.69,.757-4.922,1.392-.525,.271-.852,.812-.852,1.41v12.345c1.124-.416,3.432-1.147,5.774-1.147Z"/></svg>
