<?xml version="1.0" encoding="UTF-8"?>
<svg xmlns="http://www.w3.org/2000/svg" id="Layer_1" data-name="Layer 1" viewBox="0 0 24 24">
  <path d="m22,8c0-1.202-.444-2.291-1.153-3.154,1.897-.198,2.788-1.829,2.992-2.728l.217-.959-.975-.113c-1.383-.155-2.485.093-3.289.745-.633.513-.903,1.142-1.02,1.549-.553-.211-1.146-.34-1.772-.34-2.176,0-4.012,1.406-4.698,3.349l-.834-1.894c-.311-.704-.468-1.451-.468-2.219v-1.236h1V0H3v1h1v1.236c0,.768-.157,1.515-.468,2.219l-.895,2.032c-.423.959-.638,1.977-.638,3.025v.723l-2-1.029v12.293c0,1.379,1.121,2.5,2.5,2.5h19c1.379,0,2.5-1.121,2.5-2.5v-12.293l-2.757,1.418c.486-.786.757-1.692.757-2.625Zm-1.578-5.433c.563-.458,1.387-.638,2.408-.542-.208.709-.912,1.859-2.353,1.859-.382,0-.656-.079-.782-.125.042-.211.197-.763.727-1.192Zm-3.422,1.433c2.206,0,4,1.794,4,4,0,.932-.33,1.836-.924,2.552l-2.313-1.437-2.881,1.79-1.277-.793c-.395-.633-.605-1.362-.605-2.112,0-2.206,1.794-4,4-4ZM3,9.513c0-.909.186-1.791.553-2.622l.896-2.033c.366-.831.552-1.714.552-2.621v-1.236h5v1.236c0,.907.186,1.79.552,2.621l.896,2.034c.314.712.487,1.463.532,2.236l-2.862,1.778-2.881-1.79-2.906,1.806-.331-.17v-1.238Zm-2,11.987v-10.654l2.378,1.224,2.859-1.776,2.881,1.79,2.882-1.79,2,1.242v9.965c0,.565.195,1.081.512,1.5H2.5c-.827,0-1.5-.673-1.5-1.5Zm22,0c0,.827-.673,1.5-1.5,1.5h-5c-.827,0-1.5-.673-1.5-1.5v-9.49l2.763-1.717,2.859,1.776,2.378-1.224v10.654Z"/>
</svg>
