<?xml version="1.0" encoding="UTF-8"?>
<svg xmlns="http://www.w3.org/2000/svg" id="Layer_1" data-name="Layer 1" viewBox="0 0 24 24">
  <path d="m20,19V4h-1v10h-2.886l-2.31-11.974c-.227-1.174-1.259-2.026-2.455-2.026H2.5C1.122,0,0,1.121,0,2.5v18.5c0,1.654,1.346,3,3,3s3-1.346,3-3v-1h5v1c0,1.654,1.346,3,3,3s3-1.346,3-3l-.009-2.454-.684-3.546h2.693v5h5v-1h-4ZM1,2.5c0-.827.673-1.5,1.5-1.5h8.849c.718,0,1.337.512,1.473,1.216l2.28,11.784h-5.223l-.33-1.176c-.302-1.074-1.292-1.824-2.407-1.824H1V2.5Zm4,18.5c0,1.103-.897,2-2,2s-2-.897-2-2v-1h4v1Zm11,0c0,1.103-.897,2-2,2s-2-.897-2-2v-1h4v1Zm0-2.359v.359H1v-7h6.142c.669,0,1.264.45,1.444,1.094l.535,1.906h6.175l.704,3.641Z"/>
</svg>
