<?xml version="1.0" encoding="UTF-8"?>
<svg xmlns="http://www.w3.org/2000/svg" id="Layer_1" data-name="Layer 1" viewBox="0 0 24 24">
  <path d="m24.008,23.3l-6.598-6.597c1.607-1.775,2.596-4.12,2.596-6.697C20.006,4.492,15.52.006,10.006.006S.006,4.492.006,10.006s4.486,10,10,10c2.577,0,4.922-.989,6.697-2.596l6.598,6.597.707-.707ZM1.006,10.006C1.006,5.043,5.043,1.006,10.006,1.006s9,4.038,9,9-4.037,9-9,9S1.006,14.968,1.006,10.006Zm12.947-3.252l-3.247,3.246,3.247,3.246-.707.707-3.247-3.246-3.247,3.246-.707-.707,3.247-3.246-3.247-3.246.707-.707,3.247,3.246,3.247-3.246.707.707Z"/>
</svg>
