<?xml version="1.0" encoding="UTF-8"?>
<svg xmlns="http://www.w3.org/2000/svg" id="Layer_1" data-name="Layer 1" viewBox="0 0 24 24">
  <path d="m14.413,9.156c.391-.441.629-1.021.629-1.656,0-1.378-1.121-2.5-2.5-2.5h-3.5v9h4.5c1.379,0,2.5-1.122,2.5-2.5,0-1.072-.679-1.989-1.629-2.344Zm-4.371-3.156h2.5c.827,0,1.5.673,1.5,1.5s-.673,1.5-1.5,1.5h-2.5v-3Zm3.5,7h-3.5v-3h3.5c.827,0,1.5.673,1.5,1.5s-.673,1.5-1.5,1.5Zm6.336,1.86c1.048-1.527,1.664-3.372,1.664-5.36C21.542,4.262,17.28,0,12.042,0S2.542,4.262,2.542,9.5c0,1.985.614,3.828,1.659,5.353L.04,19.013h4.989v5.015l5.205-5.205c.586.113,1.189.177,1.808.177.615,0,1.214-.064,1.797-.176l5.203,5.203v-5.015h4.989l-4.153-4.153Zm-13.849,6.753v-3.601h-3.575l2.362-2.361c1.127,1.322,2.607,2.331,4.294,2.88l-3.081,3.081Zm-2.487-12.113C3.542,4.813,7.355,1,12.042,1s8.5,3.813,8.5,8.5-3.813,8.5-8.5,8.5S3.542,14.187,3.542,9.5Zm14.5,8.513v3.601l-3.078-3.078c1.689-.548,3.17-1.557,4.298-2.878l2.355,2.355h-3.575Z"/>
</svg>
