<?xml version="1.0" encoding="UTF-8"?>
<svg xmlns="http://www.w3.org/2000/svg" id="Layer_1" data-name="Layer 1" viewBox="0 0 24 24">
  <path d="m17,17H7c-2.206,0-4,1.794-4,4v3h1v-3c0-1.654,1.346-3,3-3h.066l2.934,4.401,2-3,2,3,2.935-4.401h.065c1.654,0,3,1.346,3,3v3h1v-3c0-2.206-1.794-4-4-4Zm-8.732,1h3.465l-1.732,2.599-1.732-2.599Zm5.732,2.599l-1.732-2.599h3.465l-1.733,2.599ZM6.677,3.028c1.725-1.538,3.95-2.239,6.27-1.974,3.55.406,6.483,3.264,6.974,6.795.192,1.387.031,2.792-.467,4.063-.488,1.248-1.776,2.087-3.205,2.087h-2.526c.172-.295.278-.634.278-1,0-1.103-.897-2-2-2s-2,.897-2,2,.897,2,2,2h4.248c1.836,0,3.499-1.094,4.137-2.722.56-1.432.741-3.01.525-4.565C20.358,3.736,17.057.519,13.06.061c-2.569-.289-5.136.517-7.048,2.221-1.914,1.708-3.011,4.156-3.011,6.719h1c0-2.277.976-4.454,2.677-5.972Zm4.323,9.972c0-.552.449-1,1-1s1,.448,1,1-.449,1-1,1-1-.448-1-1Zm-4-4c0,1.177.426,2.247,1.11,3.102-.067.29-.11.588-.11.898,0,.173.03.338.051.506-1.254-1.1-2.051-2.71-2.051-4.506,0-3.309,2.691-6,6-6s6,2.691,6,6c0,1.094-.299,2.117-.814,3h-1.227c.639-.839,1.04-1.867,1.04-3,0-2.757-2.243-5-5-5s-5,2.243-5,5Z"/>
</svg>
