<?xml version="1.0" encoding="UTF-8"?>
<svg xmlns="http://www.w3.org/2000/svg" id="Layer_1" data-name="Layer 1" width="512" height="512" viewBox="0 0 24 24"><path d="M12,0C5.383,0,0,5.383,0,12s5.383,12,12,12,12-5.383,12-12S18.617,0,12,0Zm0,23c-6.065,0-11-4.935-11-11S5.935,1,12,1s11,4.935,11,11-4.935,11-11,11Zm-3-13c0,.552-.448,1-1,1s-1-.448-1-1,.448-1,1-1,1,.448,1,1Zm8,0c0,.552-.448,1-1,1s-1-.448-1-1,.448-1,1-1,1,.448,1,1Zm-2.527,6c.325,.318,.527,.761,.527,1.25,0,.965-.785,1.75-1.75,1.75h-2.25v-1h2.25c.413,0,.75-.336,.75-.75s-.337-.75-.75-.75h-1.25v-1h1.25c.413,0,.75-.336,.75-.75s-.337-.75-.75-.75h-2.25v-1h2.25c.965,0,1.75,.785,1.75,1.75,0,.489-.202,.932-.527,1.25Z"/></svg>
