<?xml version="1.0" encoding="UTF-8"?>
<svg xmlns="http://www.w3.org/2000/svg" id="Layer_1" data-name="Layer 1" viewBox="0 0 24 24">
  <path d="m.948,5.533c-.611-.611-.948-1.426-.948-2.292S.337,1.56.948.949c1.219-1.225,3.36-1.226,4.585,0l5.118,5.118-.707.707L4.826,1.655c-.848-.847-2.327-.845-3.17,0-.423.423-.656.985-.656,1.586s.232,1.162.655,1.585l5.118,5.119-.707.707L.948,5.533Zm17.005,7.835l-.707.707,5.754,5.754v3.171h-3.171l-5.754-5.754-.707.707,6.047,6.047h4.585v-4.585l-6.047-6.047Zm-6.981,4.142c.145,1.447-.335,2.945-1.441,4.051-1.844,1.844-8.202,2.312-8.921,2.36l-.569.037.037-.569c.048-.719.517-7.077,2.36-8.921,1.106-1.106,2.604-1.586,4.051-1.441L18.59.929c1.236-1.236,3.246-1.236,4.482,0s1.235,3.245,0,4.481l-12.1,12.1Zm-3.325-4.226c.688.241,1.334.635,1.884,1.184.549.549.944,1.195,1.185,1.884l11.649-11.649c.845-.846.846-2.222,0-3.067s-2.223-.846-3.068,0L7.647,13.284Zm1.177,1.891c-.783-.782-1.812-1.174-2.84-1.174s-2.057.392-2.839,1.174c-1.216,1.216-1.83,5.538-2.024,7.703,2.165-.194,6.487-.809,7.703-2.024,1.565-1.565,1.564-4.112,0-5.679Z"/>
</svg>
