<?xml version="1.0" encoding="UTF-8"?>
<svg xmlns="http://www.w3.org/2000/svg" id="Layer_1" data-name="Layer 1" viewBox="0 0 24 24">
  <path d="m23.294,5.706l.707-.707L19.001,0l-.707.707,2.146,2.146-7.863,7.863-2.922-2.922c-1.056-1.056-2.772-1.056-3.828,0L.04,13.58l10.38,10.38,5.787-5.787c.512-.511.793-1.191.793-1.914s-.281-1.403-.793-1.914l-2.922-2.922,7.863-7.863,2.146,2.146Zm-7.294,10.553c0,.456-.178.885-.5,1.207l-5.08,5.08-1.629-1.629,4.063-4.063-.707-.707-4.063,4.063-1.793-1.793,4.063-4.063-.707-.707-4.063,4.063-1.793-1.793,4.063-4.063-.707-.707-4.063,4.063-1.629-1.629,5.08-5.08c.666-.665,1.748-.665,2.414,0l6.552,6.552c.322.322.5.751.5,1.207Z"/>
</svg>
