<?xml version="1.0" encoding="UTF-8"?>
<svg xmlns="http://www.w3.org/2000/svg" id="Layer_1" data-name="Layer 1" viewBox="0 0 24 24" width="512" height="512"><path d="M24,12h-3v-1.5c0-.83-.67-1.5-1.5-1.5h-3c-.83,0-1.5,.67-1.5,1.5v1.5h-3v1h1v8.5c0,1.38,1.12,2.5,2.5,2.5h5c1.38,0,2.5-1.12,2.5-2.5V13h1v-1Zm-8-1.5c0-.28,.22-.5,.5-.5h3c.28,0,.5,.22,.5,.5v1.5h-4v-1.5Zm6,11c0,.83-.67,1.5-1.5,1.5h-5c-.83,0-1.5-.67-1.5-1.5V13h8v8.5Zm-21-.5H11v1H0V2.5C0,1.12,1.12,0,2.5,0H19.5c1.38,0,2.5,1.12,2.5,2.5v5.55c-.29-.29-.63-.54-1-.72V2.5c0-.83-.67-1.5-1.5-1.5H2.5c-.83,0-1.5,.67-1.5,1.5V21ZM5,8.21l4.21-4.21H4v14h7v-1H5V8.21Zm0-3.21h1.79l-1.79,1.79v-1.79Zm12,2v-2h-3.79l-4.21,4.21v4.79h-1v-5.21l4.79-4.79h5.21v3h-1Z"/></svg>
