<?xml version="1.0" encoding="UTF-8"?>
<svg xmlns="http://www.w3.org/2000/svg" id="Layer_1" data-name="Layer 1" viewBox="0 0 24 24">
  <path d="m15,10H3V0h1v9h10V0h1v10Zm-6.039-7c1.654,0,3-1.346,3-3h-1c0,1.103-.897,2-2,2s-2-.897-2-2h-1c0,1.654,1.346,3,3,3Zm14.402,10.183l-9.639,10.817H2.5c-1.378,0-2.5-1.121-2.5-2.5v-7c0-1.379,1.122-2.5,2.5-2.5h10.858c1.208,0,2.229.814,2.542,1.923l3.732-4.103c.451-.496,1.069-.786,1.739-.817.666-.035,1.312.2,1.809.651,1.012.923,1.094,2.505.183,3.528Zm-.856-2.789c-.298-.271-.689-.412-1.088-.392-.403.019-.775.193-1.047.492l-4.495,4.94c-.301.945-1.124,1.678-2.146,1.823l-5.667.738-.129-.992,5.661-.737c.798-.113,1.404-.812,1.404-1.624,0-.905-.737-1.643-1.642-1.643H2.5c-.827,0-1.5.673-1.5,1.5v7c0,.827.673,1.5,1.5,1.5h10.776l9.34-10.483c.549-.615.5-1.567-.109-2.123Zm-16.507-2.394c.552,0,1-.448,1-1s-.448-1-1-1-1,.448-1,1,.448,1,1,1Zm5-1c0,.552.448,1,1,1s1-.448,1-1-.448-1-1-1-1,.448-1,1Z"/>
</svg>
