<?xml version="1.0" encoding="UTF-8"?>
<svg xmlns="http://www.w3.org/2000/svg" id="Layer_1" data-name="Layer 1" viewBox="0 0 24 24" width="512" height="512"><path d="M2.533,18.074l-1.517,4.9,4.9-1.468,3.066,2.454,1.998-10.943L.087,15.016l2.446,3.058Zm5.767,4.059l-2.168-1.735-3.605,1.081,1.118-3.615-1.731-2.166,7.824-1.436-1.438,7.871Zm4.152-6.033l2.076-2.055,2.496,2.496,2.121-2.143,.711,.703-2.828,2.857-2.504-2.503-2.385,2.361,.314-1.717Zm11.549-4.1c0,6.617-5.383,12-12,12-.331,0-.657-.023-.982-.05l.181-.991c.265,.019,.531,.041,.801,.041,6.065,0,11-4.935,11-11S18.065,1,12,1,1,5.935,1,12c0,.272,.021,.54,.041,.807l-.991,.182c-.027-.327-.05-.655-.05-.989C0,5.383,5.383,0,12,0s12,5.383,12,12Zm-6.021-4.643l-2.679,2.143,2.679,2.143-.625,.781-3.655-2.924,3.655-2.924,.625,.781ZM6.021,11.643l2.679-2.143-2.679-2.143,.625-.781,3.655,2.924-3.655,2.924-.625-.781Z"/></svg>
