<?xml version="1.0" encoding="UTF-8"?>
<svg xmlns="http://www.w3.org/2000/svg" id="Layer_1" data-name="Layer 1" viewBox="0 0 24 24" width="512" height="512"><path d="M.057,.763L23.237,23.944l.707-.707-6.963-6.963,5.102-5.109c1.235-1.235,1.916-2.878,1.916-4.625s-.681-3.39-1.916-4.625S19.207,0,17.46,0s-3.39,.68-4.625,1.916L7.726,7.018,.764,.056,.057,.763ZM8.433,7.726L13.542,2.623c1.047-1.047,2.438-1.623,3.918-1.623s2.871,.576,3.917,1.623c1.047,1.046,1.623,2.438,1.623,3.918,0,1.479-.576,2.871-1.623,3.917l-5.102,5.109-3.568-3.568,3.713-3.712-.707-.707-3.713,3.712-3.566-3.566ZM1.916,12.817l3.704-3.697,.707,.708-3.704,3.697c-1.047,1.046-1.623,2.438-1.623,3.918,0,1.479,.576,2.871,1.623,3.917,1.049,1.049,2.441,1.631,3.92,1.64,1.491,.01,2.871-.562,3.915-1.605l3.715-3.722,.707,.706-3.715,3.722c-1.226,1.226-2.892,1.899-4.628,1.899-1.743-.01-3.385-.696-4.621-1.933C.681,20.832,0,19.189,0,17.443s.681-3.39,1.916-4.625Zm6.372,3.6l-.707-.707,2.308-2.307,.707,.707-2.308,2.307Z"/></svg>
