<?xml version="1.0" encoding="UTF-8"?>
<svg xmlns="http://www.w3.org/2000/svg" id="Layer_1" data-name="Layer 1" viewBox="0 0 24 24">
  <path d="m8,10H0v8h8v-8Zm-1,7H1s0-6,0-6h6s0,6,0,6Zm-2.695-12.991l2.885-2.827.699.714-2.881,2.824c-.225.225-.522.338-.82.338s-.598-.113-.826-.341l-1.349-1.293.691-.722,1.356,1.3c.072.072.179.073.244.007Zm3.695.566v3.424H0V0h5.517l-1.012,1H1v6h6s0-1.436,0-1.436l1-.988Zm-4,18.424h11v-3s3.358,0,3.358,0c.713,0,1.332-.508,1.472-1.208l.953-4.792h2.217v-.395c-.354-.802-.708-1.653-1.062-2.504-.997-2.396-2.027-4.873-3.021-6.101-1.894-2.529-4.78-3.987-7.92-4-.33.001-.664.022-.998.053V.052C10.32.025,10.641,0,10.96,0c.015,0,.027.006.042.007V0c3.456.015,6.633,1.619,8.705,4.386,1.072,1.326,2.084,3.757,3.154,6.332.365.878.73,1.756,1.096,2.58l.043,1.703h-2.396s-.793,3.988-.793,3.988c-.232,1.166-1.264,2.012-2.452,2.012h-2.358v3s-13,0-13,0v-4s1,0,1,0v3Z"/>
</svg>
