<?xml version="1.0" encoding="UTF-8"?>
<svg xmlns="http://www.w3.org/2000/svg" id="Layer_1" data-name="Layer 1" viewBox="0 0 24 24">
  <path d="m22.968,7.866L13.658.572c-.977-.765-2.34-.765-3.316,0L1.033,7.866c-.657.514-1.033,1.287-1.033,2.121v14.013h24v-14.013c0-.834-.376-1.607-1.032-2.121Zm.032,15.134H1v-13.013c0-.525.236-1.011.649-1.333L10.959,1.359c.613-.48,1.469-.48,2.082,0l9.311,7.294c.412.322.648.808.648,1.333v13.013Zm-8.52-14c-1.08,0-1.977.479-2.5,1.254-.523-.774-1.42-1.254-2.5-1.254-1.654,0-3,1.436-3,3.2,0,3.054,5.002,6.562,5.215,6.71l.285.198.285-.198c.213-.148,5.215-3.656,5.215-6.71,0-1.765-1.346-3.2-3-3.2Zm-2.5,8.885c-1.48-1.09-4.5-3.719-4.5-5.685,0-1.213.897-2.2,2-2.2,1.178,0,2.021.875,2.021,2.026h1v-.304h-.01c.103-1.025.891-1.722,1.988-1.722,1.103,0,2,.987,2,2.2,0,1.965-3.02,4.595-4.5,5.685Z"/>
</svg>
