<?xml version="1.0" encoding="UTF-8"?>
<svg xmlns="http://www.w3.org/2000/svg" id="Layer_1" data-name="Layer 1" viewBox="0 0 24 24">
  <path d="m12,10c-1.103,0-2,.897-2,2s.897,2,2,2,2-.897,2-2-.897-2-2-2Zm0,3c-.551,0-1-.449-1-1s.449-1,1-1,1,.449,1,1-.449,1-1,1Zm5.289-5.825l-1.936,1.131c-.537-.489-1.167-.852-1.853-1.068v-2.238h-3v2.238c-.687.216-1.316.579-1.853,1.068l-1.937-1.131-1.513,2.591,1.942,1.133c-.094.386-.14.749-.14,1.1s.046.714.14,1.101l-1.942,1.133,1.513,2.59,1.937-1.13c.536.488,1.166.851,1.853,1.068v2.238h3v-2.238c.687-.216,1.316-.58,1.853-1.068l1.936,1.13,1.513-2.591-1.941-1.133c.094-.385.14-.748.14-1.101s-.046-.715-.14-1.1l1.941-1.133-1.513-2.591Zm-1.611,3.256l.12.381c.136.433.202.822.202,1.188,0,.371-.064.748-.202,1.188l-.119.38,1.755,1.024-.504.863-1.747-1.02-.273.291c-.55.586-1.249.989-2.021,1.165l-.389.088v2.019h-1v-2.019l-.389-.088c-.773-.176-1.472-.579-2.021-1.165l-.272-.291-1.748,1.02-.504-.864,1.755-1.024-.119-.38c-.138-.442-.202-.82-.202-1.189s.064-.747.202-1.188l.119-.38-1.755-1.024.504-.864,1.748,1.02.272-.291c.549-.586,1.248-.988,2.021-1.165l.389-.088v-2.02h1v2.02l.389.089c.772.175,1.471.578,2.021,1.164l.272.291,1.747-1.02.504.864-1.755,1.024Zm-14.678,1.568H0C0,5.383,5.383,0,12,0c3.482,0,6.705,1.484,8.985,4.074.002-.026.015-.048.015-.074V0h1v4c0,1.103-.897,2-2,2h-4v-1h4c.14,0,.273-.03.394-.083-2.098-2.488-5.121-3.917-8.394-3.917C5.935,1,1,5.935,1,12Zm23,0c0,6.617-5.383,12-12,12-3.483,0-6.705-1.484-8.985-4.074-.002.026-.015.048-.015.074v4h-1v-4c0-1.103.897-2,2-2h4v1h-4c-.14,0-.273.03-.394.083,2.097,2.488,5.121,3.917,8.394,3.917,6.065,0,11-4.935,11-11h1Z"/>
</svg>
