<?xml version="1.0" encoding="UTF-8"?>
<svg xmlns="http://www.w3.org/2000/svg" id="Layer_1" data-name="Layer 1" viewBox="0 0 24 24">
  <path d="m19,7c1.103,0,2-.897,2-2s-.897-2-2-2-2,.897-2,2,.897,2,2,2Zm0-3c.552,0,1,.448,1,1s-.448,1-1,1-1-.448-1-1,.448-1,1-1Zm-3.511,4.553l3.511,3.257,3.535-3.28c.944-.943,1.465-2.199,1.465-3.535s-.521-2.592-1.465-3.536S20.336-.006,19-.006s-2.591.52-3.535,1.464-1.465,2.2-1.465,3.536.524,2.596,1.489,3.559Zm.683-6.388c.755-.755,1.76-1.171,2.828-1.171s2.073.416,2.828,1.171,1.172,1.761,1.172,2.829-.416,2.073-1.158,2.815l-2.842,2.637-2.817-2.613c-.763-.762-1.183-1.77-1.183-2.839s.416-2.073,1.172-2.829Zm6.828,8.66v5.175h-7.293l-5.707-5.707V1h3.256c.236-.337.828-.985.844-1H2.5C1.122,0,0,1.121,0,2.5v21.5h24v-14.113c-.018.018-1,.937-1,.937ZM2.5,1h6.5v9.191L1,14.191V2.5c0-.827.673-1.5,1.5-1.5Zm-1.5,14.309l8.401-4.201,5.451,5.451-4.459,6.441H1v-7.691Zm10.608,7.691l4.154-6h7.238v6h-11.392Z"/>
</svg>
