<?xml version="1.0" encoding="UTF-8"?>
<svg xmlns="http://www.w3.org/2000/svg" id="Layer_1" data-name="Layer 1" viewBox="0 0 24 24" width="512" height="512"><path d="M11.5,5c1.379,0,2.5-1.122,2.5-2.5s-1.121-2.5-2.5-2.5-2.5,1.122-2.5,2.5,1.121,2.5,2.5,2.5Zm0-4c.827,0,1.5,.673,1.5,1.5s-.673,1.5-1.5,1.5-1.5-.673-1.5-1.5,.673-1.5,1.5-1.5Zm3.591,8.7l-.3-1.648c-.217-1.189-1.251-2.052-2.46-2.052h-1.661c-1.209,0-2.243,.864-2.46,2.054l-2.165,11.946h2.955v4h1v-4h3v4h1v-4h2.773l.116-.337c.046-.131,1.11-3.246,1.11-5.038,0-2.311-1.081-4.129-2.909-4.925Zm.965,9.3H7.242l1.134-6.253,3.401,1.7,.447-.895-3.662-1.831,.633-3.489c.13-.714,.75-1.232,1.476-1.232h1.661c.726,0,1.346,.518,1.476,1.231l.401,2.202,.269,.099c1.58,.578,2.523,2.108,2.523,4.094,0,1.304-.674,3.531-.944,4.375Z"/></svg>
