<?xml version="1.0" encoding="UTF-8"?>
<svg xmlns="http://www.w3.org/2000/svg" id="Layer_1" data-name="Layer 1" viewBox="0 0 24 24" width="512" height="512"><path d="M6.146,9.604c-.195,.195-.195,.512,0,.707l3.75,3.75-.707,.707-3.75-3.75c-.585-.585-.585-1.536,0-2.121l3.75-3.75,.707,.707-3.75,3.75ZM14.811,5.146l-.707,.707,3.75,3.75c.195,.195,.195,.512,0,.707l-3.75,3.75,.707,.707,3.75-3.75c.585-.585,.585-1.536,0-2.121l-3.75-3.75Zm9.189-2.646V20h-7.032l-3.985,3.295c-.275,.245-.626,.368-.978,.368-.357,0-.715-.126-1.001-.38l-3.898-3.283H0V2.5C0,1.121,1.122,0,2.5,0H21.5c1.378,0,2.5,1.121,2.5,2.5Zm-1,0c0-.827-.673-1.5-1.5-1.5H2.5c-.827,0-1.5,.673-1.5,1.5V19H7.471l4.187,3.526c.198,.177,.484,.176,.674,.009l4.276-3.535h6.392V2.5Z"/></svg>
