<?xml version="1.0" encoding="UTF-8"?>
<svg xmlns="http://www.w3.org/2000/svg" id="Layer_1" data-name="Layer 1" width="512" height="512" viewBox="0 0 24 24"><path d="M24,12.5v-1h-4.016c-.068-1.103-.361-2.146-.833-3.084l3.48-2.026-.504-.865-3.481,2.026c-.585-.871-1.336-1.62-2.207-2.204l2.02-3.473-.865-.502-2.019,3.471c-.936-.469-1.975-.76-3.074-.828V0h-1V4.016c-1.094,.068-2.129,.357-3.062,.822L6.423,1.373l-.865,.502,2.015,3.465c-.875,.583-1.628,1.334-2.215,2.206L1.889,5.526l-.504,.863,3.468,2.019c-.474,.94-.768,1.986-.837,3.091H0v1H4.016c.068,1.103,.361,2.146,.833,3.085l-3.458,2.013,.504,.863,3.458-2.013c.582,.867,1.329,1.614,2.196,2.197l-2.02,3.473,.865,.502,2.018-3.47c.939,.473,1.983,.766,3.087,.835v4.016h1v-4.016c1.109-.069,2.157-.364,3.099-.841l2.022,3.476,.865-.502-2.024-3.48c.864-.583,1.608-1.33,2.189-2.196l3.469,2.02,.504-.863-3.47-2.02c.47-.936,.762-1.977,.83-3.077h4.016Zm-12,6.5c-1.106,0-2.152-.258-3.083-.717l.019-.032-.865-.502-.017,.029c-.719-.493-1.341-1.115-1.834-1.834l.032-.019-.504-.863-.032,.019c-.458-.93-.716-1.976-.716-3.08s.259-2.156,.719-3.087l.019,.011,.504-.863-.018-.01c1.263-1.84,3.381-3.05,5.776-3.05,3.859,0,7,3.141,7,7s-3.141,7-7,7Zm0-7c0-2.595,2.338-3.463,2.338-3.463l1.041-.374-.966-.535c-.741-.411-1.575-.628-2.413-.628-2.757,0-5,2.243-5,5s2.243,5,5,5c1.004,0,1.978-.304,2.815-.878l.927-.636-1.094-.263c-.108-.026-2.648-.667-2.648-3.224Zm0,4c-2.206,0-4-1.794-4-4s1.794-4,4-4c.342,0,.677,.043,1.002,.129-.966,.685-2.002,1.944-2.002,3.871,0,1.979,1.214,3.17,2.326,3.771-.424,.151-.871,.229-1.326,.229Z"/></svg>
