<?xml version="1.0" encoding="UTF-8"?>
<svg xmlns="http://www.w3.org/2000/svg" id="Layer_1" data-name="Layer 1" viewBox="0 0 24 24" width="512" height="512"><path d="M11,7.173v-2.173h3v-1h-3v-1.5c0-1.378-1.122-2.5-2.5-2.5h-2c-1.378,0-2.5,1.122-2.5,2.5V7.173C1.629,8.285,0,10.838,0,13.5v10.5H15V13.5c0-2.662-1.629-5.215-4-6.327ZM5,2.5c0-.827,.673-1.5,1.5-1.5h2c.827,0,1.5,.673,1.5,1.5V7H5V2.5ZM14,23H1V13.5c0-2.311,1.508-4.608,3.6-5.5h5.801c2.091,.892,3.6,3.189,3.6,5.5v9.5ZM3,19H12v-5H3v5Zm1-4h7v3H4v-3ZM18,5c0,.552-.448,1-1,1s-1-.448-1-1,.448-1,1-1,1,.448,1,1Zm6,0c0,.552-.448,1-1,1s-1-.448-1-1,.448-1,1-1,1,.448,1,1Zm-2-4c0-.552,.448-1,1-1s1,.448,1,1-.448,1-1,1-1-.448-1-1Zm2,8c0,.552-.448,1-1,1s-1-.448-1-1,.448-1,1-1,1,.448,1,1Zm-3-6c0,.552-.448,1-1,1s-1-.448-1-1,.448-1,1-1,1,.448,1,1Zm0,4c0,.552-.448,1-1,1s-1-.448-1-1,.448-1,1-1,1,.448,1,1Z"/></svg>
