<?xml version="1.0" encoding="UTF-8"?>
<svg xmlns="http://www.w3.org/2000/svg" id="Layer_1" data-name="Layer 1" viewBox="0 0 24 24" width="512" height="512"><path d="m7,12h-2.665c-.273-.729-.399-1.557-.394-2.574.004-.699.176-1.418.584-2.426h2.475V2h-2.568c-.854,0-1.668.343-2.291.965C.788,4.317-.013,6.732,0,9.425c.01,2.17.577,5.046,2.141,6.61.623.623,1.437.965,2.291.965h2.568v-5Zm-1,4h-1.568c-.588,0-1.15-.239-1.584-.672-1.111-1.111-1.837-3.43-1.848-5.908-.011-2.432.68-4.581,1.848-5.749.434-.433.996-.672,1.585-.672h1.567v3h-2.138c-.387.907-.914,2.29-.921,3.42-.008,1.287.321,2.657.734,3.58h2.324v3Zm15.077,2.048L23.912,0h-14.912v18.036c-1.694.243-3,1.704-3,3.464v2.5h18v-2.5c0-1.733-1.267-3.176-2.923-3.452Zm-11.077-4.048h3v-1h-3v-3h3v-1h-3v-3h3v-1h-3V1h12.742l-2.67,17h-10.072v-4Zm13,9H7v-1.5c0-1.378,1.121-2.5,2.5-2.5h11c1.379,0,2.5,1.122,2.5,2.5v1.5Z"/></svg>
