<?xml version="1.0" encoding="UTF-8"?>
<svg xmlns="http://www.w3.org/2000/svg" id="Layer_1" data-name="Layer 1" viewBox="0 0 24 24">
  <path d="m12,0C5.383,0,0,5.383,0,12s5.383,12,12,12,12-5.383,12-12S18.617,0,12,0Zm0,23c-6.065,0-11-4.935-11-11S5.935,1,12,1s11,4.935,11,11-4.935,11-11,11Zm5.5-15c-1.379,0-2.5,1.122-2.5,2.5v3c0,1.378,1.121,2.5,2.5,2.5s2.5-1.122,2.5-2.5v-3c0-1.378-1.121-2.5-2.5-2.5Zm1.5,5.5c0,.827-.673,1.5-1.5,1.5s-1.5-.673-1.5-1.5v-3c0-.827.673-1.5,1.5-1.5s1.5.673,1.5,1.5v3Zm-7-5.5h1v8h-1v-8Zm-3.103,3.427c.371-.363.603-.868.603-1.427,0-1.103-.897-2-2-2h-2.5v8h2.5c1.379,0,2.5-1.122,2.5-2.5,0-.862-.438-1.623-1.103-2.073Zm-2.897-2.427h1.5c.552,0,1,.449,1,1s-.448,1-1,1h-1.5v-2Zm1.5,6h-1.5v-3h1.5c.827,0,1.5.673,1.5,1.5s-.673,1.5-1.5,1.5Z"/>
</svg>
