<?xml version="1.0" encoding="UTF-8"?>
<svg xmlns="http://www.w3.org/2000/svg" id="Layer_1" data-name="Layer 1" viewBox="0 0 24 24">
  <path d="m22,16.721c0-4.196-3.749-5.891-6.486-7.129-1.128-.51-2.204-1-2.709-1.533-.084-.278-.173-.641-.233-1.076,1.297-.085,2.419-.896,2.896-2.128l.407-1.054-1.055.408c-1.584.611-3.191-.612-3.191-2.185,0-.278.055-.562.164-.843l.407-1.054-1.055.407c-1.303.503-2.145,1.727-2.145,3.118,0,1.532,1.04,2.813,2.447,3.21-.056.482-.145.883-.23,1.178-.497.54-1.588,1.036-2.731,1.553-2.737,1.238-6.486,2.933-6.486,7.129,0,1.339.74,2.881,2.007,4.279h-2.007v3h1v-2h18v2h1v-3h-2.007c1.266-1.398,2.007-2.94,2.007-4.279ZM10,3.651c0-.609.231-1.173.628-1.596.018,1.821,1.495,3.3,3.316,3.317-.423.397-.986.628-1.596.628-1.295,0-2.349-1.054-2.349-2.349Zm-4.597,17.349c-1.486-1.369-2.403-2.996-2.403-4.279,0-3.55,3.134-4.967,5.898-6.218,1.291-.584,2.465-1.115,3.102-1.83.637.715,1.811,1.246,3.102,1.83,2.765,1.25,5.898,2.667,5.898,6.218,0,1.284-.917,2.911-2.403,4.279H5.403Z"/>
</svg>
