<?xml version="1.0" encoding="UTF-8"?>
<svg xmlns="http://www.w3.org/2000/svg" id="Layer_1" data-name="Layer 1" viewBox="0 0 24 24">
  <path d="m17,.5c0,3.032-2.468,5.5-5.5,5.5H2.5c-1.378,0-2.5,1.121-2.5,2.5v4c0,1.035.632,1.924,1.529,2.304l4.088,9.196h2.13c.765,0,1.471-.383,1.888-1.024.417-.642.48-1.441.169-2.141l-2.593-5.835h4.289c3.032,0,5.5,2.468,5.5,5.5v.5h1V0h-1v.5Zm-8.11,20.741c.175.395.141.828-.094,1.189-.235.362-.617.569-1.049.569h-1.481l-3.555-8h3.405l2.774,6.241Zm8.11-4.201c-1.152-1.825-3.187-3.04-5.5-3.04H2.5c-.827,0-1.5-.673-1.5-1.5v-4c0-.827.673-1.5,1.5-1.5h9c2.313,0,4.348-1.215,5.5-3.04v13.08Zm4.065-4.182l2.288,2.288-.707.707-2.288-2.288.707-.707Zm.038-4.755l-.707-.707,2.25-2.25.707.707-2.25,2.25Zm2.896,1.896v1h-3v-1h3Z"/>
</svg>
