<?xml version="1.0" encoding="UTF-8"?>
<svg xmlns="http://www.w3.org/2000/svg" id="Layer_1" data-name="Layer 1" viewBox="0 0 24 24" width="512" height="512"><path d="m18.995,12l3.5-6h-7.001L11.999.008l-3.495,5.992H1.504l3.5,6-3.5,6h6.999l3.495,5.992,3.496-5.992h7.001l-3.5-6Zm1.759-5l-2.338,4.008-2.338-4.008h4.676Zm-2.917,5l-2.917,5h-5.842l-2.916-5,2.916-5h5.842l2.917,5ZM11.999,1.992l2.338,4.008h-4.676l2.338-4.008ZM3.246,7h4.675l-2.338,4.008-2.337-4.008Zm0,10l2.337-4.008,2.338,4.008H3.246Zm8.753,5.008l-2.338-4.008h4.676l-2.338,4.008Zm6.417-9.016l2.338,4.008h-4.676l2.338-4.008Z"/></svg>
