<?xml version="1.0" encoding="UTF-8"?>
<svg xmlns="http://www.w3.org/2000/svg" id="Layer_1" data-name="Layer 1" viewBox="0 0 24 24">
  <path d="m7,9h2v1h-2v2h-1v-2h-2v-1h2v-2h1v2Zm8,0c-.552,0-1,.448-1,1s.448,1,1,1,1-.448,1-1-.448-1-1-1Zm2,0c.552,0,1-.448,1-1s-.448-1-1-1-1,.448-1,1,.448,1,1,1Zm2,0c-.552,0-1,.448-1,1s.448,1,1,1,1-.448,1-1-.448-1-1-1Zm-2,2c-.552,0-1,.448-1,1s.448,1,1,1,1-.448,1-1-.448-1-1-1Zm7,.978c0,5.526-2.019,10.022-4.5,10.022-2.113,0-3.472-3.732-3.872-5h-7.257c-.4,1.268-1.758,5-3.872,5-2.481,0-4.5-4.496-4.5-10.022C0,6.616,3.153,3.139,3.281,3h17.438c.128.139,3.281,3.616,3.281,8.978Zm-1,0c0-4.34-2.16-7.277-2.731-7.978H3.731c-.57.703-2.731,3.654-2.731,7.978,0,5.164,1.848,9.022,3.5,9.022,1.245,0,2.513-2.844,3.019-4.636l.103-.364h8.757l.103.364c.506,1.792,1.773,4.636,3.019,4.636,1.652,0,3.5-3.858,3.5-9.022Z"/>
</svg>
