<?xml version="1.0" encoding="UTF-8"?>
<svg xmlns="http://www.w3.org/2000/svg" id="Layer_1" data-name="Layer 1" viewBox="0 0 24 24" width="512" height="512"><path d="M12,0C5.383,0,0,5.383,0,12s5.383,12,12,12,12-5.383,12-12S18.617,0,12,0Zm0,23c-6.065,0-11-4.935-11-11S5.935,1,12,1s11,4.935,11,11-4.935,11-11,11ZM8.942,5.96c-1.566,.668-2.838,1.723-3.68,3.05l-.845-.535c.95-1.5,2.379-2.688,4.132-3.435l.393,.92Zm10.702,2.507l-.834,.551c-.878-1.327-2.177-2.385-3.755-3.058l.392-.92c1.76,.75,3.211,1.935,4.198,3.427Zm-10.644,2.533c0,.552-.448,1-1,1s-1-.448-1-1,.448-1,1-1,1,.448,1,1Zm7,1c-.552,0-1-.448-1-1s.448-1,1-1,1,.448,1,1-.448,1-1,1Zm-4,2c-2.536,0-4.663,1.91-4.947,4.444l-.062,.556h10.018l-.062-.556c-.284-2.534-2.411-4.444-4.947-4.444Zm-3.851,4c.447-1.744,2.015-3,3.851-3s3.404,1.256,3.851,3h-7.702Z"/></svg>
