<?xml version="1.0" encoding="UTF-8"?>
<svg xmlns="http://www.w3.org/2000/svg" id="Layer_1" data-name="Layer 1" width="512" height="512" viewBox="0 0 24 24"><path d="M9.5,18c-1.93,0-3.5-1.57-3.5-3.5s1.57-3.5,3.5-3.5,3.5,1.57,3.5,3.5-1.57,3.5-3.5,3.5Zm0-6c-1.378,0-2.5,1.121-2.5,2.5s1.122,2.5,2.5,2.5,2.5-1.121,2.5-2.5-1.122-2.5-2.5-2.5Zm-.326,11.995c-2.349,0-4.699-.894-6.487-2.683-3.577-3.577-3.577-9.397,0-12.975C6.105,4.92,14.933,1.195,15.307,1.039l.693-.291V3.715L24.035-.034l-3.75,8.034h2.947l-.289,.692c-.156,.374-3.863,9.202-7.281,12.62-1.789,1.789-4.138,2.683-6.488,2.683ZM15,2.262c-2.173,.959-8.865,4.042-11.606,6.783C.208,12.232,.208,17.418,3.394,20.605c3.188,3.189,8.375,3.188,11.561,0,2.741-2.741,5.812-9.434,6.766-11.605h-3.006l3.25-6.966-6.965,3.251V2.262Z"/></svg>
