<?xml version="1.0" encoding="UTF-8"?>
<svg xmlns="http://www.w3.org/2000/svg" id="Layer_1" data-name="Layer 1" viewBox="0 0 24 24">
  <path d="m12.5,21v2h4.5v1H7v-1h4.5v-2H0V6.5c0-1.378,1.121-2.5,2.5-2.5h.5v1h-.5c-.827,0-1.5.673-1.5,1.5v13.5h22V6.5c0-.827-.673-1.5-1.5-1.5h-.5v-1h.5c1.379,0,2.5,1.122,2.5,2.5v14.5h-11.5Zm-.5-12c-1.103,0-2-.897-2-2s.897-2,2-2,2,.897,2,2-.897,2-2,2Zm0-3c-.552,0-1,.449-1,1s.448,1,1,1,1-.449,1-1-.448-1-1-1Zm1.5,8h-3v-2.238c-.687-.216-1.316-.579-1.853-1.068l-1.937,1.131-1.512-2.591,1.94-1.133c-.094-.384-.14-.748-.14-1.101s.046-.716.14-1.101l-1.94-1.133,1.512-2.591,1.937,1.13c.537-.488,1.166-.852,1.853-1.067V0h3v2.238c.687.216,1.315.579,1.853,1.067l1.937-1.13,1.512,2.591-1.94,1.133c.094.384.14.748.14,1.101s-.046.716-.14,1.101l1.94,1.133-1.512,2.591-1.937-1.131c-.536.489-1.166.852-1.853,1.068v2.238Zm-2-1h1v-2.019l.389-.088c.772-.176,1.472-.579,2.021-1.165l.272-.291,1.747,1.02.504-.863-1.756-1.025.12-.381c.138-.438.202-.816.202-1.187s-.064-.749-.202-1.188l-.12-.38,1.756-1.025-.504-.863-1.747,1.02-.272-.291c-.55-.586-1.249-.989-2.021-1.165l-.389-.088V1h-1v2.019l-.389.088c-.772.176-1.472.579-2.021,1.165l-.272.291-1.747-1.02-.504.863,1.756,1.025-.12.38c-.138.439-.202.817-.202,1.188s.064.749.202,1.187l.12.381-1.756,1.025.504.863,1.747-1.02.272.291c.55.586,1.249.989,2.021,1.165l.389.088v2.019Z"/>
</svg>
