<?xml version="1.0" encoding="UTF-8"?>
<svg xmlns="http://www.w3.org/2000/svg" id="Layer_1" data-name="Layer 1" viewBox="0 0 24 24" width="512" height="512"><path d="m21,18v6h-1v-6c0-1.654-1.346-3-3-3H7c-1.654,0-3,1.346-3,3v6h-1v-6c0-2.206,1.794-4,4-4h10c2.206,0,4,1.794,4,4Zm-5.042,0c-.629.623-1.143,1.415-1.471,2.386-.229.719-.414,1.583-.486,2.614,0,.024,1.5-1.5,2.286-1.5.593,0,1.367.587,1.714,1-.1-.863-.257-1.515-.586-2.294-.329-.803-.836-1.591-1.457-2.206ZM4,7.5v-2c0-.827.673-1.5,1.5-1.5h.518C7.024,1.599,9.374,0,12,0s4.977,1.599,5.983,4h.517c.827,0,1.5.673,1.5,1.5v2c0,.827-.673,1.5-1.5,1.5h-.517c-1.006,2.401-3.356,4-5.983,4s-4.976-1.599-5.982-4h-.518c-.827,0-1.5-.673-1.5-1.5Zm12.891,1.5H7.11c.93,1.817,2.809,3,4.89,3s3.96-1.183,4.891-3ZM7.11,4h9.781c-.931-1.817-2.81-3-4.891-3s-3.959,1.183-4.89,3Zm-2.11,3.5c0,.275.225.5.5.5h13c.275,0,.5-.225.5-.5v-2c0-.275-.225-.5-.5-.5H5.5c-.275,0-.5.225-.5.5v2Z"/></svg>
