<?xml version="1.0" encoding="UTF-8"?>
<svg xmlns="http://www.w3.org/2000/svg" id="Layer_1" data-name="Layer 1" viewBox="0 0 24 24" width="512" height="512"><path d="m10.5,3C4.71,3,0,7.71,0,13.5s4.71,10.5,10.5,10.5,10.5-4.71,10.5-10.5S16.29,3,10.5,3Zm-.413,1.01l-1.296,1.419,1.37,2.284-1.858-.929-2.717,2.717.5.5h-1.66l-1.784-1.833c1.638-2.407,4.353-4.025,7.445-4.158Zm.413,18.99c-5.238,0-9.5-4.262-9.5-9.5,0-1.606.401-3.12,1.108-4.448l1.896,1.948h2.996l1,1v2l2,2v3h2l3-5.5-4-2.5h-2.5l-1.5-1.5,1.5-1.5,2,1,1-1-1.469-2.447,1.379-1.509c4.813.46,8.59,4.525,8.59,9.456,0,5.238-4.262,9.5-9.5,9.5Zm-1.5-9.414v-1.586h1.713l2.957,1.849-2.264,4.151h-.406v-2.414l-2-2ZM21.5,0c-1.379,0-2.5,1.122-2.5,2.5s1.121,2.5,2.5,2.5,2.5-1.122,2.5-2.5-1.121-2.5-2.5-2.5Zm0,4c-.827,0-1.5-.673-1.5-1.5s.673-1.5,1.5-1.5,1.5.673,1.5,1.5-.673,1.5-1.5,1.5Z"/></svg>
