<?xml version="1.0" encoding="UTF-8"?>
<svg xmlns="http://www.w3.org/2000/svg" id="Layer_1" data-name="Layer 1" width="512" height="512" viewBox="0 0 24 24"><path d="M12,24C5.383,24,0,18.617,0,12S5.383,0,12,0s12,5.383,12,12-5.383,12-12,12ZM12,1C5.935,1,1,5.935,1,12s4.935,11,11,11,11-4.935,11-11S18.065,1,12,1Zm-4,8c-.552,0-1,.448-1,1s.448,1,1,1,1-.448,1-1-.448-1-1-1Zm8,0c-.552,0-1,.448-1,1s.448,1,1,1,1-.448,1-1-.448-1-1-1Zm-8,9c-1.103,0-2-.897-2-2,0-1.359,1.477-2.884,1.646-3.053l.351-.353,.354,.349c.168,.166,1.649,1.665,1.649,3.057,0,1.103-.897,2-2,2Zm.002-3.956c-.437,.524-1.002,1.344-1.002,1.956,0,.552,.449,1,1,1s1-.448,1-1c0-.623-.568-1.442-.998-1.956Zm3.998-.044c-.16,0-.311,.027-.467,.039,.139,.309,.253,.634,.334,.973,.045-.001,.088-.011,.133-.011,2.53,0,4.646,1.854,4.667,1.873l.666-.746c-.097-.087-2.414-2.127-5.333-2.127Z"/></svg>
