<?xml version="1.0" encoding="UTF-8"?>
<svg xmlns="http://www.w3.org/2000/svg" id="Layer_1" data-name="Layer 1" viewBox="0 0 24 24">
  <path d="m10,9.5v2.5h-1v-2.5c0-.827-.673-1.5-1.5-1.5H2.5c-.827,0-1.5.673-1.5,1.5v2.5H0v-2.5c0-1.379,1.122-2.5,2.5-2.5h5c1.378,0,2.5,1.121,2.5,2.5ZM2,3c0-1.654,1.346-3,3-3s3,1.346,3,3-1.346,3-3,3-3-1.346-3-3Zm1,0c0,1.103.897,2,2,2s2-.897,2-2-.897-2-2-2-2,.897-2,2Zm18.5,15h-8c-1.378,0-2.5,1.121-2.5,2.5v3.5h1v-3.5c0-.827.673-1.5,1.5-1.5h8c.827,0,1.5.673,1.5,1.5v3.5h1v-3.5c0-1.379-1.121-2.5-2.5-2.5Zm-8.5-6.5c0-2.481,2.019-4.5,4.5-4.5s4.5,2.019,4.5,4.5-2.019,4.5-4.5,4.5-4.5-2.019-4.5-4.5Zm1,0c0,1.93,1.57,3.5,3.5,3.5s3.5-1.57,3.5-3.5-1.57-3.5-3.5-3.5-3.5,1.57-3.5,3.5Zm-5.435,7.947c.579.581.579,1.524,0,2.105l-2.507,2.506-.707-.707,2.352-2.352H2.5c-1.378,0-2.5-1.121-2.5-2.5v-4.5h1v4.5c0,.827.673,1.5,1.5,1.5h5.204l-2.352-2.352.707-.707,2.506,2.506Z"/>
</svg>
