<?xml version="1.0" encoding="UTF-8"?>
<svg xmlns="http://www.w3.org/2000/svg" id="Layer_1" data-name="Layer 1" viewBox="0 0 24 24">
  <path d="m24,3.633v17.144l-12,2.182L0,20.777V3.633c0-.771.339-1.496.931-1.989.592-.494,1.367-.696,2.124-.56l1.493.271c-.252.283-.491.577-.71.887l-.963-.175c-.459-.083-.939.041-1.304.344-.363.303-.571.748-.571,1.221v16.309l10.5,1.91V7h1v14.851l10.5-1.91V3.633c0-.473-.208-.918-.571-1.222-.364-.304-.845-.429-1.304-.344l-.963.175c-.219-.31-.458-.604-.71-.887l1.493-.271c.755-.137,1.531.065,2.124.56.592.494.931,1.219.931,1.989ZM4,9.071h1v-1.071c0-3.86,3.141-7,7-7s7,3.14,7,7v1.071h1v-1.071C20,3.589,16.411,0,12,0S4,3.589,4,8v1.071Zm14-.071v-1c0-3.309-2.691-6-6-6s-6,2.691-6,6v1h1v-1c0-2.757,2.243-5,5-5s5,2.243,5,5v1h1Zm-9-1c0-1.654,1.346-3,3-3s3,1.346,3,3v1h1v-1c0-2.206-1.794-4-4-4s-4,1.794-4,4v1h1v-1Zm8.303,10h.404l.519-1.778,1.773-.525v-.404l-1.774-.518-.518-1.774h-.404l-.525,1.773-1.778.519v.404l1.777.526.526,1.777Zm-13.303-4.708v.404l1.777.526.526,1.777h.404l.519-1.778,1.773-.525v-.404l-1.774-.518-.518-1.774h-.404l-.525,1.773-1.778.519Z"/>
</svg>
