<?xml version="1.0" encoding="UTF-8"?>
<svg xmlns="http://www.w3.org/2000/svg" id="Layer_1" data-name="Layer 1" viewBox="0 0 24 24">
  <path d="m23.498.502c-.473-.472-1.154-.626-1.787-.398-3.879,1.399-7.924,3.011-11.676,5.896h-.439c-3.767,0-7.502,1.935-9.596,4.839v4.161h3.293l2.5,2.5-2.647,2.646.707.707,2.647-2.646,2.5,2.5v3.293h4.161c2.904-2.094,4.839-5.829,4.839-9.596v-.439c2.886-3.753,4.499-7.798,5.896-11.676.227-.63.073-1.314-.398-1.787ZM3.207,14H1v-2.836c1.767-2.363,4.677-3.899,7.771-4.133-.492.426-.977.877-1.456,1.355-1.948,1.948-3.614,4.748-4.108,5.613Zm9.629,9h-2.836v-2.207c.865-.493,3.664-2.159,5.613-4.108.478-.478.929-.964,1.355-1.456-.234,3.094-1.769,6.004-4.133,7.771ZM22.955,1.949c-1.705,4.73-3.73,9.71-8.049,14.028-1.785,1.784-4.412,3.374-5.322,3.899l-5.462-5.461c.526-.91,2.116-3.538,3.9-5.322C12.34,4.775,17.32,2.75,22.051,1.045c.266-.099.542-.034.739.165.199.198.261.475.165.739Zm-10.955,11.051c0,.552-.448,1-1,1s-1-.448-1-1,.448-1,1-1,1,.448,1,1Zm6-6c0,.552-.448,1-1,1s-1-.448-1-1,.448-1,1-1,1,.448,1,1Zm-3,3c0,.552-.448,1-1,1s-1-.448-1-1,.448-1,1-1,1,.448,1,1Z"/>
</svg>
