<?xml version="1.0" encoding="UTF-8"?>
<svg xmlns="http://www.w3.org/2000/svg" id="Layer_1" data-name="Layer 1" viewBox="0 0 24 24">
  <path d="m20.5,0H4.5c-1.379,0-2.5,1.122-2.5,2.5v19c0,1.378,1.121,2.5,2.5,2.5h17.5V1.5c0-.827-.673-1.5-1.5-1.5Zm.5,1.5v17.5H7V1h13.5c.275,0,.5.224.5.5ZM4.5,1h1.5v18h-1.5c-.565,0-1.081.195-1.5.513V2.5c0-.827.673-1.5,1.5-1.5Zm0,22c-.827,0-1.5-.673-1.5-1.5s.673-1.5,1.5-1.5h16.5v3H4.5Zm8.293-10l-2.646-2.646.707-.707,2.646,2.646,2.646-2.646.707.707-2.646,2.646,2.646,2.646-.707.707-2.646-2.646-2.646,2.646-.707-.707,2.646-2.646Zm-.27-5.342l-2.373-2.314.699-.716,2.377,2.319c.06.062.185.059.239.004l3.767-3.709.701.713-3.764,3.707c-.218.218-.511.339-.822.339s-.604-.122-.824-.342Z"/>
</svg>
