<?xml version="1.0" encoding="UTF-8"?>
<svg xmlns="http://www.w3.org/2000/svg" id="Layer_1" data-name="Layer 1" viewBox="0 0 24 24">
  <path d="m16.611,8.144l.701.712-5.793,5.707c-.28.281-.657.437-1.058.437s-.777-.156-1.061-.439l-2.788-2.702.696-.718,2.793,2.707c.2.199.524.195.712.005l5.797-5.71Zm7.074,5.119l-4.445,8.362c-.452.848-1.328,1.375-2.286,1.375H7.067c-.957,0-1.831-.525-2.283-1.371L.317,13.272c-.424-.793-.424-1.741,0-2.535L4.784,2.372c.452-.847,1.327-1.372,2.284-1.372h9.887c.958,0,1.834.527,2.286,1.375l4.445,8.362c.42.791.42,1.734,0,2.525Zm-.883-2.056l-4.445-8.361c-.278-.521-.815-.846-1.403-.846H7.067c-.587,0-1.124.323-1.402.843L1.199,11.208c-.266.499-.266,1.094,0,1.593l4.466,8.356c.278.52.815.843,1.401.843h9.887c.588,0,1.125-.324,1.403-.846l4.445-8.36c.264-.497.264-1.09,0-1.587Z"/>
</svg>
