<?xml version="1.0" encoding="UTF-8"?>
<svg xmlns="http://www.w3.org/2000/svg" id="Layer_1" data-name="Layer 1" viewBox="0 0 24 24">
  <path d="m22,20.5c0-1.378-1.122-2.5-2.5-2.5h-4.5v-2.5c0-.827.673-1.5,1.5-1.5h4c1.93,0,3.5-1.57,3.5-3.5s-1.57-3.5-3.5-3.5h-3.357c-.756-.189-9.007-2.341-12.039-6.782l-.149-.218h-.955v15h.955l.149-.218c3.03-4.437,11.284-6.592,12.04-6.782h3.357c1.378,0,2.5,1.122,2.5,2.5s-1.122,2.5-2.5,2.5h-4c-1.378,0-2.5,1.122-2.5,2.5v2.5H4.5c-1.378,0-2.5,1.122-2.5,2.5v2.5H0v1h24v-1h-2v-2.5ZM5,13.292V1.708c2.747,3.122,7.638,4.979,10.24,5.792-2.602.813-7.493,2.669-10.24,5.792Zm-2,7.208c0-.827.673-1.5,1.5-1.5h15c.827,0,1.5.673,1.5,1.5v2.5H3v-2.5Z"/>
</svg>
