<?xml version="1.0" encoding="UTF-8"?>
<svg xmlns="http://www.w3.org/2000/svg" id="Layer_1" data-name="Layer 1" viewBox="0 0 24 24" width="512" height="512"><path d="M21.5,5h-1.5V3c0-1.654-1.346-3-3-3s-3,1.346-3,3v2h-4V3c0-1.654-1.346-3-3-3s-3,1.346-3,3v2h-1.5c-1.378,0-2.5,1.122-2.5,2.5v11.5c0,2.757,2.243,5,5,5,2.716,0,4.923-2.18,4.988-4.881h.012v-7.119h4v7.119h.012c.065,2.701,2.272,4.881,4.988,4.881,2.757,0,5-2.243,5-5V7.5c0-1.378-1.122-2.5-2.5-2.5Zm-6.5-2c0-1.103,.897-2,2-2s2,.897,2,2v2h-4V3Zm-10,0c0-1.103,.897-2,2-2s2,.897,2,2v2H5V3Zm0,20c-2.206,0-4-1.794-4-4s1.794-4,4-4,4,1.794,4,4-1.794,4-4,4Zm14,0c-2.206,0-4-1.794-4-4s1.794-4,4-4,4,1.794,4,4-1.794,4-4,4Zm0-9c-1.641,0-3.088,.806-4,2.031v-5.031h-6v5.031c-.912-1.225-2.359-2.031-4-2.031s-3.088,.806-4,2.031V7.5c0-.827,.673-1.5,1.5-1.5H21.5c.827,0,1.5,.673,1.5,1.5v8.531c-.912-1.225-2.359-2.031-4-2.031Z"/></svg>
