<?xml version="1.0" encoding="UTF-8"?>
<svg xmlns="http://www.w3.org/2000/svg" id="Layer_1" data-name="Layer 1" viewBox="0 0 24 24">
  <path d="m12,1C5.383,1,0,6.383,0,13c0,3.912,1.948,7.616,5.213,9.909l.129.091h13.316l.129-.091c3.265-2.293,5.213-5.997,5.213-9.909,0-6.617-5.383-12-12-12Zm6.34,21H5.66c-2.878-2.084-4.66-5.519-4.66-9C1,6.935,5.935,2,12,2s11,4.935,11,11c0,3.481-1.782,6.916-4.66,9Zm-.371-14.262l-.707-.707-4.247,4.247c-.298-.176-.645-.278-1.015-.278-1.103,0-2,.897-2,2s.897,2,2,2,2-.897,2-2c0-.37-.102-.717-.278-1.015l4.247-4.247Zm-5.969,6.262c-.552,0-1-.448-1-1s.448-1,1-1,1,.448,1,1-.448,1-1,1Zm-4.95-5.95c-2.729,2.729-2.729,7.171,0,9.9l-.707.707c-3.118-3.119-3.118-8.195,0-11.314,2.502-2.502,6.26-2.992,9.26-1.481l-.752.752c-2.571-1.143-5.694-.67-7.801,1.435Zm10.607,10.607l-.707-.707c2.105-2.106,2.579-5.229,1.435-7.801l.752-.752c1.51,3,1.02,6.758-1.48,9.26Z"/>
</svg>
