<?xml version="1.0" encoding="UTF-8"?>
<svg xmlns="http://www.w3.org/2000/svg" id="Layer_1" data-name="Layer 1" viewBox="0 0 24 24">
  <path d="m23.685,20.808L14.003,6.149,2.732,23H0v1h21.845c.798,0,1.504-.407,1.888-1.091.371-.66.356-1.439-.048-2.102Zm-12.717,2.193l3.033-4.592,3.033,4.593h-6.066Zm11.894-.582c-.205.364-.585.582-1.017.582h-3.613s-4.232-6.407-4.232-6.407l-4.232,6.407H3.936S13.997,7.956,13.997,7.956l8.844,13.388c.206.339.214.73.021,1.075ZM3.447,8.566L.148,5.267l.707-.707,3.145,3.145V.001h1v7.702l3.145-3.144.707.707-3.299,3.299c-.29.29-.672.435-1.053.435s-.763-.145-1.053-.434Z"/>
</svg>
