<?xml version="1.0" encoding="UTF-8"?>
<svg xmlns="http://www.w3.org/2000/svg" id="Layer_1" data-name="Layer 1" viewBox="0 0 24 24" width="512" height="512"><path d="M23.58,8.944l-3.516-5.274c-.27-.405-.649-.72-1.096-.911L12.985,.194c-.626-.269-1.344-.269-1.969,0L5.032,2.759c-.447,.191-.826,.506-1.096,.911L.42,8.944c-.275,.412-.42,.891-.42,1.387v13.669H24V10.331c0-.496-.145-.975-.42-1.387Zm-10.803,9.096l5.048-4.241c.111,.209,.174,.448,.174,.701v7.927l-5.222-4.387Zm4.35,4.96H6.873l5.127-4.307,5.127,4.307Zm-5.127-5.613l-5.082-4.269c.179-.076,.376-.118,.582-.118h9c.206,0,.403,.042,.582,.118l-5.082,4.269Zm-6-2.887c0-.253,.063-.491,.174-.701l5.048,4.241-5.222,4.387v-7.927Zm17,8.5h-4V14.5c0-1.378-1.122-2.5-2.5-2.5H7.5c-1.378,0-2.5,1.122-2.5,2.5v8.5H1V10.331c0-.297,.087-.585,.252-.832l3.516-5.274c.162-.243,.389-.432,.657-.547L11.41,1.113c.375-.161,.805-.161,1.181,0l5.984,2.564c.268,.115,.495,.304,.657,.547l3.516,5.274c.165,.247,.252,.535,.252,.832v12.669ZM12,5c-1.103,0-2,.897-2,2s.897,2,2,2,2-.897,2-2-.897-2-2-2Zm0,3c-.551,0-1-.449-1-1s.449-1,1-1,1,.449,1,1-.449,1-1,1Z"/></svg>
