<?xml version="1.0" encoding="UTF-8"?>
<svg xmlns="http://www.w3.org/2000/svg" id="Layer_1" data-name="Layer 1" viewBox="0 0 24 24">
  <path d="m11,11c0,.552-.448,1-1,1s-1-.448-1-1,.448-1,1-1,1,.448,1,1Zm3-1c-.552,0-1,.448-1,1s.448,1,1,1,1-.448,1-1-.448-1-1-1Zm8.534-3.742c.973,2.104,1.466,4.204,1.466,6.242v3.501l-1.486-1.366c-.698,2.675-1.3,4.406-1.516,4.869l-1.342,2.948-1.139-2.092c-2.341,1.618-5.776,3.31-6.512,3.648-.688-.315-4.184-2.031-6.523-3.648l-1.139,2.092-1.345-2.956c-.212-.456-.813-2.184-1.512-4.861l-1.486,1.366v-3.501c0-2.038.493-4.138,1.466-6.242l-1.536.254.685-.975C1.768,3.894,4.98.063,9.877,0l2.123.999L14.123,0c4.886.062,8.104,3.892,9.26,5.535l.687.977-1.536-.255Zm-.908.42l-.793-1.715.97.16c-1.409-1.676-4.009-4.023-7.573-4.12l-2.23,1.114-2.23-1.114c-3.572.097-6.171,2.445-7.577,4.121l.974-.161-.793,1.715c-.911,1.972-1.374,3.931-1.374,5.822v1.224l1.034-.95.42,1.609c.7,2.684,1.291,4.348,1.453,4.695l.517,1.136.712-1.309.915.633c2.097,1.449,4.981,2.905,5.954,3.368.975-.467,3.866-1.932,5.945-3.368l.915-.633.712,1.309.514-1.128c.165-.354.756-2.021,1.456-4.703l.42-1.609,1.034.95v-1.224c0-1.892-.462-3.851-1.374-5.822Zm-4.516-2.177c.071.086,1.89,2.293,1.89,4.279,0,2.003-.71,3.651-.97,4.186l.585,2.331-4.262,3.703h-4.707l-4.262-3.703.585-2.331c-.259-.534-.97-2.183-.97-4.186,0-1.905,1.722-4.028,1.927-4.277.334.02,2.851.057,5.073,1.35,2.322-1.351,5.002-1.339,5.11-1.353Zm-.143,8.338c.009-.018,1.032-1.925,1.032-4.059,0-1.315-.983-2.763-1.363-3.271-.666.039-2.886.415-4.637,1.521-1.751-1.105-3.972-1.481-4.637-1.521-.379.509-1.363,1.956-1.363,3.271,0,2.134,1.023,4.04,1.032,4.058l-.528,2.107,3.517,3.055h1.469l-.044-2.037-1.445-.963v-1h4v1l-1.5,1h-.054l.043,2h1.49l3.517-3.055-.528-2.106Z"/>
</svg>
