<?xml version="1.0" encoding="UTF-8"?>
<svg xmlns="http://www.w3.org/2000/svg" id="Layer_1" data-name="Layer 1" viewBox="0 0 24 24">
  <path d="m21.5,16h-5.5v-6h-1v6H2.5c-1.378,0-2.5,1.121-2.5,2.5v5.5h24v-5.5c0-1.379-1.121-2.5-2.5-2.5Zm1.5,7H1v-4.5c0-.827.673-1.5,1.5-1.5h19c.827,0,1.5.673,1.5,1.5v4.5ZM15.5,5c1.685,0,3.268.656,4.458,1.847l-.707.707c-1.002-1.002-2.334-1.554-3.751-1.554s-2.749.552-3.75,1.554l-.707-.707c1.19-1.191,2.773-1.847,4.458-1.847Zm-7.372-.946l-.707-.707C9.579,1.188,12.448,0,15.5,0s5.921,1.188,8.079,3.347l-.707.707c-1.97-1.969-4.588-3.054-7.372-3.054s-5.403,1.084-7.372,3.054Zm-3.128,15.946c0,.552-.448,1-1,1s-1-.448-1-1,.448-1,1-1,1,.448,1,1Zm4,0c0,.552-.448,1-1,1s-1-.448-1-1,.448-1,1-1,1,.448,1,1Z"/>
</svg>
