<?xml version="1.0" encoding="UTF-8"?>
<svg xmlns="http://www.w3.org/2000/svg" id="Layer_1" data-name="Layer 1" viewBox="0 0 24 24" width="512" height="512"><path d="M23.981,12c0,6.617-5.383,12-12,12-4.015,0-7.568-1.989-9.747-5.027,.09,.005,.175,.027,.266,.027,.318,0,.628-.035,.928-.098,2.018,2.496,5.101,4.098,8.553,4.098,6.065,0,11-4.935,11-11S18.046,1,11.981,1C7.248,1,3.216,4.01,1.667,8.212l-.924,.91c-.128,.126-.321,.331-.535,.574C1.286,4.178,6.152,0,11.981,0c6.617,0,12,5.383,12,12Zm-16,0c.552,0,1-.448,1-1s-.448-1-1-1-1,.448-1,1,.448,1,1,1Zm7-1c0,.552,.448,1,1,1s1-.448,1-1-.448-1-1-1-1,.448-1,1Zm-3,3c2.536,0,4.663,1.911,4.946,4.444l.062,.556H6.972l.062-.556c.284-2.533,2.41-4.444,4.947-4.444Zm0,1c-1.837,0-3.405,1.256-3.851,3h7.702c-.446-1.744-2.014-3-3.851-3Zm-9.481,2c-1.378,0-2.5-1.121-2.5-2.5,0-1.819,2.062-3.869,2.149-3.956l.354-.349,.351,.353c.22,.221,2.146,2.206,2.146,3.952,0,1.379-1.122,2.5-2.5,2.5Zm0-1c.827,0,1.5-.673,1.5-1.5,0-.925-.895-2.16-1.503-2.864-.607,.693-1.497,1.916-1.497,2.864,0,.827,.673,1.5,1.5,1.5Zm2.144-7.718l.393,.92c1.751-.747,3.181-1.935,4.132-3.435l-.845-.535c-.83,1.309-2.137,2.393-3.68,3.05Zm14.779,0c-1.58-.674-2.879-1.731-3.756-3.058l-.834,.551c.985,1.49,2.437,2.675,4.197,3.427l.393-.92Z"/></svg>
