<?xml version="1.0" encoding="UTF-8"?>
<svg xmlns="http://www.w3.org/2000/svg" id="Layer_1" data-name="Layer 1" width="512" height="512" viewBox="0 0 24 24"><path d="M23.481,8.52c.335,1.102,.519,2.27,.519,3.48,0,6.617-5.383,12-12,12S0,18.617,0,12,5.383,0,12,0c2.141,0,4.149,.57,5.891,1.557-.162,.287-.309,.587-.439,.902-1.609-.923-3.468-1.459-5.452-1.459C5.935,1,1,5.935,1,12s4.935,11,11,11,11-4.935,11-11c0-1.089-.165-2.139-.461-3.133,.331-.079,.644-.199,.942-.347Zm-15.981-.52c.715,0,1.5,1.57,1.5,3h1c0-1.888-1.069-4-2.5-4s-2.5,2.112-2.5,4h1c0-1.43,.785-3,1.5-3Zm9-1c-1.431,0-2.5,2.112-2.5,4h1c0-1.43,.785-3,1.5-3s1.5,1.57,1.5,3h1c0-1.888-1.069-4-2.5-4ZM6.023,14.871l-.276-.875,.885,.243c.028,.007,2.805,.762,5.363,.762s5.344-.754,5.373-.762l.886-.242-.277,.876c-.066,.209-1.676,5.128-5.975,5.128h-.012c-4.3,0-5.9-4.92-5.966-5.129Zm1.315,.566c.623,1.29,2.085,3.563,4.651,3.563h.012c2.565,0,4.033-2.273,4.659-3.564-1.079,.236-2.899,.564-4.665,.564s-3.581-.328-4.657-.563ZM19,4.5c0-1.746,1.926-3.732,2.146-3.953l.351-.353,.354,.349c.088,.086,2.149,2.137,2.149,3.957,0,1.378-1.121,2.5-2.5,2.5s-2.5-1.122-2.5-2.5Zm1,0c0,.827,.673,1.5,1.5,1.5s1.5-.673,1.5-1.5c0-.949-.89-2.171-1.497-2.865-.608,.704-1.503,1.94-1.503,2.865Z"/></svg>
