<?xml version="1.0" encoding="UTF-8"?>
<svg xmlns="http://www.w3.org/2000/svg" id="Layer_1" data-name="Layer 1" viewBox="0 0 24 24">
  <path d="m2,23.001c0,.552-.448,1-1,1s-1-.448-1-1,.448-1,1-1,1,.448,1,1ZM0,17.001v1c3.309,0,6,2.691,6,6h1C7,20.142,3.859,17.001,0,17.001ZM0,12.001v1c6.065,0,11,4.935,11,11h1C12,17.384,6.617,12.001,0,12.001Zm17.5-4v5h-5v-5h5Zm-1,1h-3v3h3v-3Zm6.542-3.375L16.542.533c-.908-.711-2.176-.711-3.084,0l-6.499,5.093c-.609.477-.959,1.193-.959,1.968v3.777c.341.163.675.335,1,.524v-4.301c0-.465.209-.895.575-1.181L14.075,1.32c.545-.426,1.305-.426,1.85,0l6.501,5.093c.365.286.574.716.574,1.181v9.407h-10.894c.189.325.362.659.524,1h11.37V7.594c0-.774-.35-1.491-.958-1.968Z"/>
</svg>
