<?xml version="1.0" encoding="UTF-8"?>
<svg xmlns="http://www.w3.org/2000/svg" id="Layer_1" data-name="Layer 1" viewBox="0 0 24 24" width="512" height="512"><path d="M24,2.5V15.522c-.303-.27-.643-.499-1-.705V2.5c0-.827-.673-1.5-1.5-1.5H2.5c-.827,0-1.5,.673-1.5,1.5V23H7.43c.161,.356,.361,.691,.595,1H0V2.5C0,1.122,1.122,0,2.5,0H21.5c1.378,0,2.5,1.122,2.5,2.5ZM3,4c0,.552,.448,1,1,1s1-.448,1-1-.448-1-1-1-1,.448-1,1Zm5-1c-.552,0-1,.448-1,1s.448,1,1,1,1-.448,1-1-.448-1-1-1ZM24,20c0,2.206-1.794,4-4,4H12c-1.654,0-3-1.346-3-3,0-1.353,.881-2.499,2.128-2.872-.085-.368-.128-.745-.128-1.128,0-2.757,2.243-5,5-5,2.444,0,4.497,1.74,4.921,4.106,1.78,.421,3.079,2.031,3.079,3.894Zm-1,0c0-1.493-1.114-2.771-2.591-2.973l-.39-.053-.041-.391c-.211-2.043-1.921-3.584-3.979-3.584-2.206,0-4,1.794-4,4,0,.462,.078,.913,.231,1.344l.216,.605-.64,.061c-1.031,.098-1.808,.953-1.808,1.99,0,1.103,.897,2,2,2h8c1.654,0,3-1.346,3-3Z"/></svg>
