<?xml version="1.0" encoding="UTF-8"?>
<svg xmlns="http://www.w3.org/2000/svg" id="Layer_1" data-name="Layer 1" viewBox="0 0 24 24" width="512" height="512"><path d="M17,9c0-2.206-1.794-4-4-4h-3.5c-1.378,0-2.5,1.121-2.5,2.5v11.5h1v-6h4.265l-.021,.012,3.565,5.988h1.191l-3.596-6.041c2.014-.206,3.596-1.891,3.596-3.959Zm-4,3h-5V7.5c0-.827,.673-1.5,1.5-1.5h3.5c1.654,0,3,1.346,3,3s-1.346,3-3,3ZM12,0C5.383,0,0,5.383,0,12s5.383,12,12,12,12-5.383,12-12S18.617,0,12,0Zm0,23c-6.065,0-11-4.935-11-11S5.935,1,12,1s11,4.935,11,11-4.935,11-11,11Z"/></svg>
