<?xml version="1.0" encoding="UTF-8"?>
<svg xmlns="http://www.w3.org/2000/svg" id="Layer_1" data-name="Layer 1" viewBox="0 0 24 24">
  <path d="m23.263,6.637l.707-.707L18.07.03l-.707.707,2.596,2.596-9.766,9.766-3.739-3.739-4.243,4.244c-1.426,1.425-2.211,3.321-2.211,5.338v5.057h5.057c2.017,0,3.913-.785,5.338-2.211l4.244-4.243-3.739-3.739,9.766-9.766,2.596,2.596Zm-10.038,10.909l-3.537,3.536c-1.237,1.237-2.881,1.918-4.631,1.918H1v-4.057c0-1.75.681-3.395,1.918-4.631l3.536-3.537,3.032,3.032-3.84,3.84.707.707,3.84-3.84,3.032,3.032Z"/>
</svg>
