<?xml version="1.0" encoding="UTF-8"?>
<svg xmlns="http://www.w3.org/2000/svg" id="Layer_1" data-name="Layer 1" viewBox="0 0 24 24">
  <path d="m17,12H7v9.5c0,1.379,1.122,2.5,2.5,2.5h8.5c1.103,0,2-.897,2-2v-3h-3v-7Zm-9,9.5v-8.5h8v9c0,.366.106.705.278,1h-6.778c-.827,0-1.5-.673-1.5-1.5Zm11,.5c0,.552-.449,1-1,1s-1-.448-1-1v-2h2v2ZM7.388,9.685l-2.178-2.673c.486-.533.79-1.235.79-2.012,0-1.654-1.346-3-3-3S0,3.346,0,5s1.346,3,3,3c.517,0,.996-.143,1.421-.374l2.191,2.69.775-.631ZM1,5c0-1.103.897-2,2-2s2,.897,2,2-.897,2-2,2-2-.897-2-2Zm10.5.949v4.051h1v-4.051c1.416-.24,2.5-1.466,2.5-2.949,0-1.654-1.346-3-3-3s-3,1.346-3,3c0,1.483,1.084,2.71,2.5,2.949Zm.5-4.949c1.103,0,2,.897,2,2s-.897,2-2,2-2-.897-2-2,.897-2,2-2Zm9,1c-1.654,0-3,1.346-3,3,0,.777.304,1.478.79,2.012l-2.178,2.673.775.631,2.191-2.69c.425.231.904.374,1.421.374,1.654,0,3-1.346,3-3s-1.346-3-3-3Zm0,5c-1.103,0-2-.897-2-2s.897-2,2-2,2,.897,2,2-.897,2-2,2Zm-11,8h4v1h-4v-1Zm0,2h4v1h-4v-1Zm0,2h3v1h-3v-1Z"/>
</svg>
