<?xml version="1.0" encoding="UTF-8"?>
<svg xmlns="http://www.w3.org/2000/svg" id="Layer_1" data-name="Layer 1" viewBox="0 0 24 24" width="512" height="512"><path d="m24,0H7s0,1,0,1h2v8.654l-4.402,1.544C1.151,12.274-.776,15.955.299,19.403c.86,2.75,3.372,4.597,6.25,4.597.662,0,1.32-.101,1.967-.304l8.864-2.999c2.764-.935,4.62-3.523,4.62-6.441V1h2s0-1,0-1Zm-3,14.256c0,2.489-1.584,4.697-3.94,5.494l-8.854,2.996c-.539.169-1.097.254-1.657.254-2.438,0-4.566-1.565-5.295-3.896-.912-2.921.722-6.041,3.658-6.958l5.088-1.784V1h11v13.256Z"/></svg>
