<?xml version="1.0" encoding="UTF-8"?>
<svg xmlns="http://www.w3.org/2000/svg" id="Layer_1" data-name="Layer 1" viewBox="0 0 24 24">
  <path d="m24.039,7.137c0-1.03-.601-1.983-1.531-2.428L13.198.263c-.737-.352-1.583-.352-2.319,0L1.569,4.709C.639,5.154.039,6.106.039,7.138l.039,16.863,1-.002-.009-3.999h22l.009,4.001,1-.002-.039-16.862ZM2,5.611L11.31,1.165c.461-.221.993-.222,1.458,0l9.309,4.446c.196.094.358.233.501.389H1.499c.143-.156.305-.295.501-.389Zm10.5,13.389v-4.793l1.256-1.256c.08.021.157.049.244.049.552,0,1-.448,1-1s-.448-1-1-1-1,.448-1,1c0,.086.029.164.049.244l-1.549,1.549v5.207H1.066l-.027-11.863c0-.047.016-.09.02-.137h2.942v2h1v-2h4v2h1v-2h4v2h1v-2h4v2h1v-2h3.019c.008.046.02.09.02.138l.027,11.862h-10.566Zm5.513,4l.403,1H5.584l.403-1h12.026Zm-.698-2l.403,1H6.231l.403-1h10.682Z"/>
</svg>
