<?xml version="1.0" encoding="UTF-8"?>
<svg xmlns="http://www.w3.org/2000/svg" id="Layer_1" data-name="Layer 1" viewBox="0 0 24 24">
  <path d="m7.006,24c-1.858,0-3.633-.727-4.956-2.05C.554,20.454-.18,18.38.038,16.261c.289-2.817,2.325-5.228,5.066-5.997,1.302-.365,2.61-.354,3.893.032L18.561.732c.473-.472,1.1-.732,1.768-.732h2.172c.827,0,1.5.673,1.5,1.5v2.171c0,.668-.26,1.296-.732,1.768l-1.561,1.561h-2.707v3h-3v2.707l-2.296,2.296c.386,1.283.396,2.591.031,3.893-.769,2.741-3.178,4.777-5.997,5.067-.244.025-.489.038-.732.038Zm-.004-13.001c-.542,0-1.085.076-1.628.228-2.349.659-4.094,2.724-4.342,5.137-.187,1.818.442,3.596,1.725,4.879,1.283,1.283,3.06,1.912,4.88,1.725,2.413-.248,4.478-1.993,5.136-4.342.338-1.204.301-2.413-.111-3.596l-.103-.296,2.441-2.441v-3.293h3v-3h3.293l1.268-1.268c.283-.283.439-.66.439-1.061V1.5c0-.276-.225-.5-.5-.5h-2.172c-.395,0-.781.16-1.061.439l-10.002,10.001-.296-.103c-.649-.226-1.307-.339-1.968-.339Zm-2.002,7.001c0,.552.448,1,1,1s1-.448,1-1-.448-1-1-1-1,.448-1,1Z"/>
</svg>
