<?xml version="1.0" encoding="UTF-8"?>
<svg xmlns="http://www.w3.org/2000/svg" id="Layer_1" data-name="Layer 1" viewBox="0 0 24 24">
  <path d="m12,0C8.134,0,2,.814,2,3c0,.017,0,.033.001.05h-.001v17.95c0,2.069,5.848,3,10,3s10-.946,10-3.05V3c0-2.186-6.134-3-10-3Zm0,1c5.495,0,9,1.313,9,2s-3.505,2-9,2S3,3.687,3,3,6.505,1,12,1Zm0,22c-5.289,0-9-1.298-9-2v-2.645c1.849,1.126,5.898,1.645,9,1.645s7.151-.528,9-1.673v2.623c0,.72-3.712,2.05-9,2.05Zm0-4c-5.289,0-9-1.298-9-2v-8.645c1.849,1.126,5.898,1.645,9,1.645s7.151-.528,9-1.673v8.623c0,.72-3.712,2.05-9,2.05Zm0-10c-5.289,0-9-1.298-9-2v-2.621c1.898,1.16,6.091,1.621,9,1.621s7.102-.461,9-1.621v2.571c0,.72-3.712,2.05-9,2.05Z"/>
</svg>
