<?xml version="1.0" encoding="UTF-8"?>
<svg xmlns="http://www.w3.org/2000/svg" id="Layer_1" data-name="Layer 1" viewBox="0 0 24 24">
  <path d="m17.996,0c-3.309,0-6,2.691-6,6s2.691,6,6,6,6-2.691,6-6S21.305,0,17.996,0Zm-2,10.576v-1.576c0-.552.448-1,1-1h2c.552,0,1,.448,1,1v1.576c-.614.269-1.288.424-2,.424s-1.386-.154-2-.424Zm5-.602v-.974c0-1.103-.897-2-2-2h-2c-1.103,0-2,.897-2,2v.974c-1.207-.914-2-2.348-2-3.974,0-2.757,2.243-5,5-5s5,2.243,5,5c0,1.627-.793,3.061-2,3.974Zm-3-7.974c-1.103,0-2,.897-2,2s.897,2,2,2,2-.897,2-2-.897-2-2-2Zm0,3c-.552,0-1-.448-1-1s.448-1,1-1,1,.448,1,1-.448,1-1,1Zm-9.311,13.367c-.817.817-2.24.815-3.056,0-.842-.843-.842-2.213,0-3.056l5.443-5.442-3.505-3.505-5.486,5.486c-2.774,2.774-2.774,7.29,0,10.065,1.388,1.388,3.21,2.081,5.033,2.081s3.646-.693,5.033-2.081l5.486-5.486-3.505-3.505-5.443,5.442Zm.973-8.498l-1.139,1.139-2.091-2.091,1.139-1.139,2.091,2.091Zm1.782,11.34c-2.385,2.385-6.267,2.385-8.652,0-2.385-2.386-2.385-6.267,0-8.651l2.933-2.933,2.091,2.091-2.89,2.889c-1.232,1.232-1.232,3.237,0,4.47s3.238,1.233,4.47,0l2.89-2.889,2.091,2.091-2.933,2.933Zm3.64-3.64l-2.091-2.091,1.139-1.139,2.091,2.091-1.139,1.139Z"/>
</svg>
