<?xml version="1.0" encoding="UTF-8"?>
<svg xmlns="http://www.w3.org/2000/svg" id="Layer_1" data-name="Layer 1" viewBox="0 0 24 24" width="512" height="512"><path d="m18.813,9.717c.057.057.12.106.187.146V0h1v9.863c.066-.04.129-.088.187-.146l2.909-2.91.707.707-2.909,2.91c-.384.384-.889.576-1.394.576s-1.01-.192-1.394-.576l-2.871-2.871.707-.707,2.871,2.871Zm4.187,1.429v11.854H1V6.883l7.799,7.799c.877.877,2.029,1.315,3.183,1.315s2.305-.438,3.182-1.315l2.231-2.295c-.25-.158-.489-.336-.703-.55l-.082-.082-2.153,2.22c-1.364,1.364-3.584,1.366-4.95,0L1.232,5.701c.266-.421.735-.701,1.268-.701h14.5v-1H2.5c-1.379,0-2.5,1.122-2.5,2.5v17.5h24v-13.855l-1,1Z"/></svg>
