<?xml version="1.0" encoding="UTF-8"?>
<svg xmlns="http://www.w3.org/2000/svg" id="Layer_1" data-name="Layer 1" viewBox="0 0 24 24">
  <path d="m12,0C5.383,0,0,5.383,0,12s5.383,12,12,12,12-5.383,12-12S18.617,0,12,0Zm0,1c5.303,0,9.741,3.772,10.773,8.774-1.934-1.656-5.978-2.774-10.773-2.774s-8.839,1.119-10.773,2.774C2.259,4.772,6.697,1,12,1Zm11,11c0,1.892-4.518,4-11,4S1,13.892,1,12s4.518-4,11-4,11,2.108,11,4Zm-11,11c-5.303,0-9.741-3.772-10.773-8.774,1.934,1.656,5.978,2.774,10.773,2.774s8.839-1.119,10.773-2.774c-1.032,5.002-5.47,8.774-10.773,8.774Z"/>
</svg>
