<?xml version="1.0" encoding="UTF-8"?>
<svg xmlns="http://www.w3.org/2000/svg" id="Layer_1" data-name="Layer 1" viewBox="0 0 24 24" width="512" height="512"><path d="M23.18,9.66c-.5-.45-1.14-.68-1.81-.65-.67,.03-1.29,.32-1.74,.82l-3.73,4.1c-.31-1.11-1.33-1.92-2.54-1.92H2.5C1.13,12,0,13.12,0,14.5v7c0,1.38,1.12,2.5,2.5,2.5H13.73l9.64-10.82c.91-1.02,.83-2.6-.18-3.53Zm-.56,2.86l-9.34,10.48H2.5c-.83,0-1.5-.67-1.5-1.5v-7c0-.83,.67-1.5,1.5-1.5H13.36c.91,0,1.64,.74,1.64,1.64,0,.81-.61,1.51-1.4,1.62l-5.66,.74,.13,.99,5.67-.74c1.02-.15,1.84-.88,2.15-1.82l4.5-4.94c.27-.3,.64-.47,1.05-.49,.39-.01,.79,.12,1.09,.39,.61,.56,.66,1.51,.11,2.12ZM4,7.6v-.6h1v.6c0,.77,.63,1.4,1.4,1.4h2.21c.77,0,1.4-.63,1.4-1.4,0-.68-.49-1.26-1.17-1.38l-2.83-.47c-1.16-.19-2-1.19-2-2.36,0-1.32,1.07-2.39,2.4-2.39h.6V0h1V1h.6c1.32,0,2.4,1.07,2.4,2.39v.61h-1v-.61c0-.77-.63-1.39-1.4-1.39h-2.21c-.77,0-1.4,.63-1.4,1.39,0,.68,.49,1.26,1.17,1.38l2.83,.47c1.16,.19,2,1.19,2,2.36,0,1.32-1.07,2.4-2.4,2.4h-.6v1h-1v-1h-.6c-1.32,0-2.4-1.07-2.4-2.4Z"/></svg>
