<?xml version="1.0" encoding="UTF-8"?>
<svg xmlns="http://www.w3.org/2000/svg" id="Layer_1" data-name="Layer 1" viewBox="0 0 24 24">
  <path d="m24,11.5c0-2.481-2.019-4.5-4.5-4.5h-2.5v-2.5c0-1.379-1.122-2.5-2.5-2.5h-1.5v1h1.5c.827,0,1.5.673,1.5,1.5v14.5H1v-7H0v8h2.18c-.116.32-.18.656-.18,1,0,1.654,1.346,3,3,3s3-1.346,3-3c0-.344-.064-.68-.18-1h8.359c-.116.32-.18.656-.18,1,0,1.654,1.346,3,3,3s3-1.346,3-3c0-.344-.064-.68-.18-1h2.18v-8.5ZM7,21c0,1.103-.897,2-2,2s-2-.897-2-2c0-.354.119-.691.304-1h3.392c.185.309.304.646.304,1Zm12.5-13c1.93,0,3.5,1.57,3.5,3.5v1.5h-6v-5h2.5Zm1.5,13c0,1.103-.897,2-2,2s-2-.897-2-2c0-.354.119-.691.304-1h3.392c.185.309.304.646.304,1Zm-4-2v-5h6v5h-6ZM11,2c0-1.103-.897-2-2-2H2C.897,0,0,.897,0,2v8h11V2Zm-1,7H1V2c0-.552.449-1,1-1h7c.551,0,1,.448,1,1v7ZM4,3h3v1h-3v-1Z"/>
</svg>
