<?xml version="1.0" encoding="UTF-8"?>
<svg xmlns="http://www.w3.org/2000/svg" id="Layer_1" data-name="Layer 1" viewBox="0 0 24 24">
  <path d="m15,12c-.552,0-1-.448-1-1s.448-1,1-1,1,.448,1,1-.448,1-1,1Zm8.983,5.183c-.102-1.131-.683-2.19-1.594-2.906-2.751-2.162-3.856-4.383-4.925-6.532-.711-1.429-1.383-2.778-2.464-3.97V-.042l-.573.084c-1.63.239-2.968,1.475-3.329,3.074h0C4.149,3.928,0,8.931,0,16.5v7.5h1v-7.5c0-7.012,3.818-11.644,10.214-12.391l.703-.082.156-.691c.227-1.005.97-1.819,1.926-2.162v2.985l.259.287c.989,1.09,1.63,2.379,2.31,3.745,1.118,2.247,2.274,4.571,5.203,6.872.695.546,1.138,1.352,1.215,2.209.077.853-.205,1.708-.774,2.35l-1.224,1.387-10.095-6.287,2.072,4.73c.558,1.279,1.159,2.473,1.78,3.535l.551,1.013h1.138l-.819-1.504c-.608-1.041-1.191-2.199-1.734-3.443l-.777-1.775,8.075,5.029,1.782-2.022c.75-.845,1.122-1.976,1.021-3.102Z"/>
</svg>
