<?xml version="1.0" encoding="UTF-8"?>
<svg xmlns="http://www.w3.org/2000/svg" id="Layer_1" data-name="Layer 1" viewBox="0 0 24 24">
  <path d="m24,9h-2v-3.5c0-1.378-1.121-2.5-2.5-2.5h-7V0h-1v3h-7c-1.379,0-2.5,1.122-2.5,2.5v3.5H0v7h2v5h13.349l4.089,2.726c.276.184.595.277.914.277.267,0,.534-.065.778-.195.537-.288.87-.844.87-1.453v-6.355h2v-7ZM1,15v-5h1v5h-1Zm20,7.355c0,.243-.128.457-.342.571-.217.115-.465.101-.666-.032l-4.341-2.894H3V5.5c0-.827.673-1.5,1.5-1.5h15c.827,0,1.5.673,1.5,1.5v16.855Zm2-7.355h-1v-5h1v5Zm-13-6c0-1.103-.897-2-2-2s-2,.897-2,2,.897,2,2,2,2-.897,2-2Zm-3,0c0-.551.448-1,1-1s1,.449,1,1-.448,1-1,1-1-.449-1-1Zm9-2c-1.103,0-2,.897-2,2s.897,2,2,2,2-.897,2-2-.897-2-2-2Zm0,3c-.552,0-1-.449-1-1s.448-1,1-1,1,.449,1,1-.448,1-1,1Zm.667,4.127l.666.746c-.097.086-2.414,2.127-5.333,2.127s-5.236-2.041-5.333-2.127l.666-.746c.021.019,2.137,1.873,4.667,1.873s4.646-1.854,4.667-1.873Z"/>
</svg>
