<?xml version="1.0" encoding="UTF-8"?>
<svg xmlns="http://www.w3.org/2000/svg" id="Layer_1" data-name="Layer 1" viewBox="0 0 24 24">
  <path d="m16.561,14.439l-2-2c-.584-.585-1.537-.585-2.121,0-.585.585-.585,1.536,0,2.121l2,2c.283.283.66.439,1.061.439s.777-.156,1.061-.439c.585-.585.585-1.536,0-2.121Zm-.707,1.414c-.189.188-.518.188-.707,0l-2-2c-.195-.195-.195-.512,0-.707.098-.098.226-.146.354-.146s.256.048.354.146l2,2c.195.195.195.512,0,.707Zm8.145,7.437l-3.229-3.229c1.604-1.949,1.634-4.825-.031-6.776-3.995-4.682-7.1-8.12-9.489-10.51L8.53.057l-.707.707,1.478,1.478-1.264,1.265-1.478-1.478-.707.707,1.478,1.478-1.216,1.216-1.478-1.478-.707.707,1.478,1.478-1.203,1.203-1.478-1.478-.707.707,1.478,1.478-1.255,1.255-1.478-1.479-.707.707,2.718,2.718c2.365,2.365,5.901,5.557,10.512,9.489.981.838,2.201,1.252,3.42,1.252,1.201,0,2.386-.426,3.354-1.223l3.231,3.231.707-.707ZM9.982,2.974c1.669,1.951,1.581,4.898-.265,6.744-.938.938-2.187,1.456-3.515,1.456-1.198,0-2.331-.42-3.229-1.19l7.009-7.009Zm3.952,17.002c-3.669-3.129-6.639-5.777-8.887-7.915.377.073.763.112,1.155.112,1.595,0,3.095-.621,4.222-1.749,1.461-1.461,2.003-3.496,1.63-5.386,2.132,2.239,4.737,5.162,7.921,8.895,1.373,1.609,1.326,3.995-.042,5.575l-.424.424c-1.58,1.368-3.966,1.416-5.575.043Z"/>
</svg>
