<?xml version="1.0" encoding="UTF-8"?>
<svg xmlns="http://www.w3.org/2000/svg" id="Layer_1" data-name="Layer 1" viewBox="0 0 24 24" width="512" height="512"><path d="M19.5,19h-.5V8.95c1.14-.232,2-1.243,2-2.45V0H3V6.5c0,1.207,.86,2.218,2,2.45v10.05h-.5c-1.378,0-2.5,1.121-2.5,2.5v2.5H22v-2.5c0-1.379-1.122-2.5-2.5-2.5ZM5.5,8c-.827,0-1.5-.673-1.5-1.5V1h4V5h1V1h6V5h1V1h4V6.5c0,.827-.673,1.5-1.5,1.5h-.5v11H6V8h-.5Zm15.5,15H3v-1.5c0-.827,.673-1.5,1.5-1.5h15c.827,0,1.5,.673,1.5,1.5v1.5Zm-7-13c0-1.103-.897-2-2-2s-2,.897-2,2v3h4v-3Zm-1,2h-2v-2c0-.552,.449-1,1-1s1,.448,1,1v2Z"/></svg>
