<?xml version="1.0" encoding="UTF-8"?>
<svg xmlns="http://www.w3.org/2000/svg" id="Layer_1" data-name="Layer 1" viewBox="0 0 24 24" width="512" height="512"><path d="M1.753,13.765L7.781,7.754c2.336-2.335,6.135-2.335,8.47,0,.769,.769,1.259,1.702,1.522,2.684l-.838,.838c-.148-1.03-.6-2.024-1.39-2.815-1.945-1.945-5.11-1.945-7.056,0L2.46,14.473c-.942,.942-1.461,2.198-1.461,3.536s.519,2.594,1.461,3.536c1.945,1.947,5.11,1.945,7.056,0l.003,.003,1.595-1.595c.288,.031,.579,.05,.873,.05,.173,0,.344-.014,.515-.025l-2.278,2.278c-.012,.012-.028,.017-.041,.027-1.163,1.144-2.678,1.72-4.197,1.72-1.533,0-3.067-.584-4.234-1.751C.622,21.121,0,19.614,0,18.009c0-1.605,.623-3.112,1.754-4.244Zm10.235,4.232c1.534,0,3.067-.583,4.234-1.751l6.028-6.011c2.34-2.34,2.34-6.147,0-8.486-2.322-2.322-6.09-2.331-8.429-.033-.014,.011-.031,.016-.044,.029l-2.277,2.278c.171-.011,.342-.025,.515-.025,.294,0,.585,.019,.873,.05l1.595-1.595,.004,.004c1.944-1.944,5.109-1.945,7.055,0,1.95,1.95,1.95,5.122,0,7.072l-6.028,6.011c-1.946,1.945-5.11,1.945-7.055,0h0c-.791-.791-1.243-1.785-1.39-2.815l-.838,.838c.263,.982,.753,1.915,1.522,2.684h0c1.167,1.168,2.701,1.751,4.235,1.751Z"/></svg>
