<?xml version="1.0" encoding="UTF-8"?>
<svg xmlns="http://www.w3.org/2000/svg" id="Layer_1" data-name="Layer 1" viewBox="0 0 24 24" width="512" height="512"><path d="M22.5,17c0-.73-.157-1.424-.44-2.05l1.755-1.011-.499-.866-1.756,1.012c-.817-1.134-2.096-1.914-3.559-2.06v-2.025h-1v2.025c-1.463,.146-2.743,.926-3.559,2.06l-1.756-1.012-.499,.866,1.755,1.011c-.283,.626-.44,1.32-.44,2.05s.157,1.424,.44,2.05l-1.755,1.011,.499,.866,1.756-1.012c.817,1.134,2.096,1.914,3.559,2.06v2.025h1v-2.025c1.463-.146,2.743-.926,3.559-2.06l1.756,1.012,.499-.866-1.755-1.011c.283-.626,.44-1.32,.44-2.05Zm-5,4c-2.206,0-4-1.794-4-4s1.794-4,4-4,4,1.794,4,4-1.794,4-4,4Zm-11-3h3.5v1h-3.5c-.827,0-1.5,.673-1.5,1.5v3.5h-1v-3.5c0-1.378,1.122-2.5,2.5-2.5Zm-.473-9H2.5c-.827,0-1.5,.673-1.5,1.5v3.5H0v-3.5c0-1.378,1.122-2.5,2.5-2.5H7.5c.22,0,.431,.033,.634,.087-.782,.137-1.494,.457-2.106,.913Zm2.973,1c.772,0,1.471,.301,2.003,.783-.229,.24-.443,.493-.646,.757-.357-.332-.832-.54-1.357-.54-1.103,0-2,.897-2,2,0,1.013,.759,1.843,1.738,1.973-.074,.322-.134,.649-.172,.983-1.447-.213-2.565-1.451-2.565-2.956,0-1.654,1.346-3,3-3ZM5,6c1.654,0,3-1.346,3-3S6.654,0,5,0,2,1.346,2,3s1.346,3,3,3Zm0-5c1.103,0,2,.897,2,2s-.897,2-2,2-2-.897-2-2,.897-2,2-2ZM13,6c1.654,0,3-1.346,3-3s-1.346-3-3-3-3,1.346-3,3,1.346,3,3,3Zm0-5c1.103,0,2,.897,2,2s-.897,2-2,2-2-.897-2-2,.897-2,2-2Zm-1.027,8c-.688-.513-1.51-.841-2.407-.943,.154-.033,.311-.057,.475-.057h5.959v1h-4.027Z"/></svg>
