<?xml version="1.0" encoding="UTF-8"?>
<svg xmlns="http://www.w3.org/2000/svg" id="Layer_1" data-name="Layer 1" width="512" height="512" viewBox="0 0 24 24"><path d="M16,5c.552,0,1,.448,1,1s-.448,1-1,1-1-.448-1-1,.448-1,1-1ZM1,9.777C1,4.938,4.938,1,9.777,1c1.194,0,2.346,.238,3.434,.709-1.996,1.38-3.869,4.036-4.154,7.026,.352-.3,.732-.565,1.137-.794,.574-2.591,2.446-4.892,4.285-5.83l.835-.427-.82-.456c-1.447-.804-3.078-1.229-4.717-1.229C4.386,0,0,4.386,0,9.777c0,3.245,1.595,6.117,4.036,7.897,.037-.372,.113-.733,.219-1.083-1.984-1.611-3.255-4.065-3.255-6.814ZM20,4c.552,0,1-.448,1-1s-.448-1-1-1-1,.448-1,1,.448,1,1,1Zm2,6c.552,0,1-.448,1-1s-.448-1-1-1-1,.448-1,1,.448,1,1,1Zm-3,14h1v-5h-1v5Zm0-12c-.172,0-.347,.01-.529,.031-.858-1.854-2.669-3.031-4.721-3.031-2.895,0-5.25,2.355-5.25,5.25,0,.159,.01,.312,.025,.456-1.488,.515-2.525,1.938-2.525,3.544,0,1.811,1.29,3.326,3,3.674v-1.041c-1.151-.329-2-1.378-2-2.633,0-1.294,.919-2.426,2.185-2.691l.473-.099-.083-.476c-.037-.214-.075-.469-.075-.734,0-2.343,1.907-4.25,4.25-4.25,1.766,0,3.313,1.083,3.942,2.76l.147,.394,.413-.078c.271-.051,.516-.076,.748-.076,2.206,0,4,1.794,4,4,0,1.005-.385,1.914-1,2.618v1.357c1.207-.914,2-2.348,2-3.974,0-2.757-2.243-5-5-5Zm-4,12h1v-5h-1v5Zm-4,0h1v-5h-1v5Z"/></svg>
