<?xml version="1.0" encoding="UTF-8"?>
<svg xmlns="http://www.w3.org/2000/svg" id="Layer_1" data-name="Layer 1" viewBox="0 0 24 24">
  <path d="m18.909,14.681l-9.867-3.589c-.555-.202-1.174-.065-1.593.354-.42.421-.555,1.029-.352,1.589l3.588,9.868,3.758-3.757,4.819,4.82.707-.707-4.819-4.82,3.758-3.758Zm-7.82,6.405l-3.052-8.394c-.072-.198-.03-.391.119-.54.1-.101.227-.155.356-.155.062,0,.125.012.188.034l8.391,3.052-6.002,6.003ZM6.959,7.896c.037-.229.076-1.006-.975-1.431-.112-.042-1.208-.459-1.699-.764-.662-.466-.976-1.173-.879-1.916.103-.784.626-1.422,1.365-1.665.903-.298,1.821-.045,2.736.746l-.655.756c-.648-.562-1.208-.737-1.768-.553-.372.122-.634.446-.687.846-.049.38.103.717.427.946.334.205,1.214.555,1.524.672,1.394.563,1.73,1.71,1.599,2.522-.183,1.127-1.163,1.945-2.329,1.945-.878,0-1.948-.552-2.474-1.086l.712-.701c.414.419,1.237.787,1.762.787.673,0,1.238-.465,1.342-1.105ZM15,2v7h2v1h-3V2h1Zm4,0v7h2v1h-3V2h1Zm-9,1v2.5h3v1.001h-3s0,2.499,0,2.499h3v1h-4V2h4v1h-3Zm14-.5v9.503l-6-.003h-.609l-2.75-1h4.359s4,.003,4,.003V2.5c0-.827-.673-1.5-1.5-1.5H2.5c-.827,0-1.5.673-1.5,1.5v8.503l2-.002h0s2.354,0,2.354,0c-.153.318-.256.654-.307,1h-1.047l-4,.003V2.5C0,1.121,1.122,0,2.5,0h19c1.378,0,2.5,1.121,2.5,2.5Z"/>
</svg>
