<?xml version="1.0" encoding="UTF-8"?>
<svg xmlns="http://www.w3.org/2000/svg" id="Layer_1" data-name="Layer 1" viewBox="0 0 24 24" width="512" height="512"><path d="M2.5,21h3.5v1H2.5c-1.378,0-2.5-1.122-2.5-2.5v-3.5H1v3.5c0,.827,.673,1.5,1.5,1.5Zm20.5-1.5c0,.827-.673,1.5-1.5,1.5h-3.5v1h3.5c1.378,0,2.5-1.122,2.5-2.5v-3.5h-1v3.5Zm-1.5-17.5h-3.5v1h3.5c.827,0,1.5,.673,1.5,1.5v3.5h1v-3.5c0-1.378-1.122-2.5-2.5-2.5ZM0,4.5v3.5H1v-3.5c0-.827,.673-1.5,1.5-1.5h3.5v-1H2.5C1.122,2,0,3.122,0,4.5Zm4,1.5v12h1V6h-1Zm10,12h1V6h-1v12Zm-7,0h2V6h-2v12Zm3,0h2V6h-2v12ZM20,6h-2v12h2V6Zm-4,12h1V6h-1v12Z"/></svg>
