<?xml version="1.0" encoding="UTF-8"?>
<svg xmlns="http://www.w3.org/2000/svg" id="Layer_1" data-name="Layer 1" viewBox="0 0 24 24" width="512" height="512"><path d="M23.294,6.653l-5.906,5.906c-.565,.566-1.555,.567-2.12,0l-1.558-1.562,6.965-6.965-.707-.707-6.964,6.964-1.564-1.567c-.585-.585-.585-1.536,0-2.121L17.346,.695,16.639-.012l-5.906,5.906c-.975,.975-.975,2.561,0,3.535l1.564,1.568L.03,23.263l.707,.707L13.002,11.705l1.558,1.561c.473,.473,1.101,.732,1.768,.732s1.296-.26,1.768-.732l5.906-5.906-.707-.707Z"/></svg>
