<?xml version="1.0" encoding="UTF-8"?>
<svg xmlns="http://www.w3.org/2000/svg" id="Layer_1" data-name="Layer 1" viewBox="0 0 24 24" width="512" height="512"><path d="m21,18c-.556,0-1.071.162-1.519.427l-3.449-4.234c.591-.548.967-1.325.967-2.193s-.378-1.648-.971-2.196l3.42-4.249c.454.277.981.445,1.551.445,1.654,0,3-1.346,3-3s-1.346-3-3-3c-1.302,0-2.402.839-2.816,2H5.816c-.414-1.161-1.514-2-2.816-2C1.346,0,0,1.346,0,3c0,1.302.839,2.402,2,2.816v12.369c-1.161.414-2,1.514-2,2.816,0,1.654,1.346,3,3,3,1.302,0,2.402-.839,2.816-2h12.369c.414,1.161,1.514,2,2.816,2,1.654,0,3-1.346,3-3s-1.346-3-3-3Zm-5-6c0,1.103-.897,2-2,2s-2-.897-2-2,.897-2,2-2c.356,0,.685.101.975.265l.414.333.015-.019c.367.363.595.865.595,1.421ZM21,1c1.103,0,2,.897,2,2s-.897,2-2,2-2-.897-2-2,.897-2,2-2ZM1,3c0-1.103.897-2,2-2s2,.897,2,2-.897,2-2,2-2-.897-2-2Zm2,20c-1.103,0-2-.897-2-2s.897-2,2-2,2,.897,2,2-.897,2-2,2Zm3-2c0-1.654-1.346-3-3-3V6c1.654,0,3-1.346,3-3h12c0,.723.268,1.378.695,1.897l-3.504,4.353c-.366-.159-.768-.249-1.191-.249-1.654,0-3,1.346-3,3s1.346,3,3,3c.425,0,.828-.091,1.195-.252l3.524,4.326c-.442.523-.719,1.189-.719,1.925H6Zm15,2c-1.103,0-2-.897-2-2s.897-2,2-2,2,.897,2,2-.897,2-2,2Z"/></svg>
