<?xml version="1.0" encoding="UTF-8"?>
<svg xmlns="http://www.w3.org/2000/svg" id="Layer_1" data-name="Layer 1" viewBox="0 0 24 24">
  <path d="m24,19V3.5c0-1.378-1.121-2.5-2.5-2.5H2.5C1.121,1,0,2.122,0,3.5v15.5h11.5v3h-5.5v1h12v-1h-5.5v-3h11.5ZM1,3.5c0-.827.673-1.5,1.5-1.5h19c.827,0,1.5.673,1.5,1.5v14.5H1V3.5Zm13.623,4.596l-1.909,1.908,1.909,1.908-.707.707-1.909-1.909-1.909,1.909-.707-.707,1.909-1.908-1.909-1.908.707-.707,1.909,1.909,1.909-1.909.707.707Zm6.991,0l-1.908,1.908,1.908,1.908-.707.707-1.908-1.908-1.908,1.908-.707-.707,1.908-1.908-1.908-1.908.707-.707,1.908,1.908,1.908-1.908.707.707Zm-13.991-.007l-1.908,1.908,1.908,1.908-.707.707-1.908-1.908-1.908,1.908-.707-.707,1.908-1.908-1.908-1.908.707-.707,1.908,1.908,1.908-1.908.707.707Z"/>
</svg>
