<?xml version="1.0" encoding="UTF-8"?>
<svg xmlns="http://www.w3.org/2000/svg" id="Layer_1" data-name="Layer 1" viewBox="0 0 24 24">
  <path d="m14,13.842c0-.568-.407-1.048-.968-1.142l-2.238-.415c-1.036-.173-1.794-1.068-1.794-2.127,0-1.19.968-2.158,2.158-2.158h.342v-1h1v1h.342c1.251,0,2.158.841,2.158,2h-1c0-.691-.582-1-1.158-1h-1.684c-.639,0-1.158.52-1.158,1.158,0,.568.407,1.048.967,1.142l2.238.415c1.036.173,1.795,1.068,1.795,2.127,0,1.19-.968,2.158-2.158,2.158h-.342v1h-1v-1h-.342c-1.25,0-2.158-.841-2.158-2h1c0,.691.582,1,1.158,1h1.684c.639,0,1.158-.52,1.158-1.158ZM23.635,2.555L21.091.011l-.707.707,2.281,2.282h-10.665C7.038,3,3,7.038,3,12c0,2.306.879,4.406,2.311,6h1.415c-1.667-1.467-2.726-3.61-2.726-6,0-4.411,3.589-8,8-8h10.666l-2.282,2.282.707.707,2.544-2.543c.253-.252.392-.588.392-.945s-.139-.693-.392-.945Zm-6.361,3.445c1.667,1.467,2.726,3.61,2.726,6,0,4.411-3.589,8-8,8H1.334l2.288-2.288-.707-.707-2.549,2.549c-.521.522-.521,1.371,0,1.893l2.549,2.549.707-.707-2.288-2.288h10.666c4.963,0,9-4.038,9-9,0-2.306-.879-4.406-2.311-6h-1.415Z"/>
</svg>
