<?xml version="1.0" encoding="UTF-8"?>
<svg xmlns="http://www.w3.org/2000/svg" id="Layer_1" data-name="Layer 1" viewBox="0 0 24 24" width="512" height="512"><path d="m2.41,21.601h0c0,.017,0,.009,0,0Zm21.539-12.669l-.072.617-.588-.202c-.664-.229-1.348-.344-2.031-.344-3.446,0-6.25,2.804-6.25,6.25,0,.218.083,1.114.083,1.114l-.465.078c-3.223.54-6.91.558-6.91.558l-2.466,2.466c1.008.244,1.758,1.153,1.758,2.235,0,1.268-1.031,2.3-2.3,2.3s-2.298-.953-2.298-2.402c0-.017,0-.009,0,0-1.307.054-2.402-.995-2.402-2.297,0-1.269,1.031-2.3,2.3-2.3,1.082,0,1.991.75,2.236,1.758l2.466-2.466s-.017-10.59,3.343-13.949c3.119-3.119,8.194-3.12,11.313,0,1.735,1.735,2.567,4.135,2.284,6.585ZM3.502,19.802c.071-.164.107-.332.107-.499,0-.717-.584-1.3-1.301-1.3s-1.3.583-1.3,1.3c0,.884.931,1.563,1.801,1.192l.693-.693Zm.705.709l-.692.692c-.071.165-.107.333-.107.5,0,.717.583,1.3,1.3,1.3s1.3-.583,1.3-1.3c0-.884-.93-1.563-1.801-1.193ZM20.958,3.054c-2.729-2.73-7.172-2.729-9.899,0-2.82,2.82-3.034,11.404-3.05,12.835l.113.114c.717-.008,3.221-.064,5.891-.473-.003-.092-.005-.184-.005-.277,0-3.998,3.252-7.25,7.25-7.25.585,0,1.168.073,1.742.216.062-1.933-.665-3.789-2.042-5.165Z"/></svg>
