<?xml version="1.0" encoding="UTF-8"?>
<svg xmlns="http://www.w3.org/2000/svg" id="Layer_1" data-name="Layer 1" viewBox="0 0 24 24">
  <path d="m11.696,9.011l.285.198.285-.198c.192-.134,4.715-3.306,4.715-6.081,0-1.616-1.233-2.93-2.75-2.93-.951,0-1.761.435-2.25,1.128-.489-.693-1.299-1.128-2.25-1.128-1.517,0-2.75,1.314-2.75,2.93,0,2.774,4.522,5.947,4.715,6.081Zm-1.965-8.011c1.014,0,1.75.736,1.75,1.75h.019v.25h1v-.528c.121-.868.812-1.472,1.731-1.472.965,0,1.75.866,1.75,1.93,0,1.735-2.664,4.065-4,5.054-1.336-.988-4-3.316-4-5.054,0-1.064.785-1.93,1.75-1.93Zm14.269,4.5v13.231c0,.618-.229,1.214-.645,1.676l-3.197,3.593h-1.344l3.799-4.263c.25-.277.387-.635.387-1.006V5.5c0-.827-.673-1.5-1.5-1.5s-1.5.673-1.5,1.5v9h-.005c0,.57-.193,1.14-.58,1.601l-3.098,3.206-.719-.695,3.074-3.179c.219-.262.329-.595.327-.932h0v-.041c-.011-.344-.137-.689-.382-.962-.55-.613-1.497-.666-2.113-.116l-3.849,3.542c.222.38.343.815.343,1.262v5.814h-1v-5.814c0-.418-.177-.821-.484-1.104l-4.026-3.705c-.609-.546-1.557-.494-2.108.12-.494.551-.507,1.394-.032,1.96l3.051,3.153-.719.695-3.074-3.179c-.399-.474-.597-1.052-.6-1.627h-.008V5.5c0-.827-.673-1.5-1.5-1.5s-1.5.673-1.5,1.5v13.231c0,.371.137.729.387,1.006l3.799,4.263h-1.344l-3.197-3.593c-.416-.462-.645-1.058-.645-1.676V5.5c0-1.378,1.122-2.5,2.5-2.5s2.5,1.122,2.5,2.5v6.998c.933-.699,2.262-.667,3.162.139l3.838,3.532,3.833-3.528c.904-.811,2.234-.842,3.167-.143v-6.998c0-1.378,1.122-2.5,2.5-2.5s2.5,1.122,2.5,2.5Z"/>
</svg>
