<?xml version="1.0" encoding="UTF-8"?>
<svg xmlns="http://www.w3.org/2000/svg" id="Layer_1" data-name="Layer 1" viewBox="0 0 24 24">
  <path d="m24,12C24,5.383,18.617,0,12,0c-3.03,0-5.896,1.131-8.116,3.176L.754.046.047.753l23.199,23.2.707-.707-3.129-3.129c2.045-2.221,3.176-5.088,3.176-8.117ZM12,1c6.065,0,11,4.935,11,11,0,2.763-1.027,5.377-2.884,7.409l-5.354-5.354,4.305-9.147-8.968,4.484L4.591,3.884c2.031-1.856,4.645-2.884,7.409-2.884Zm-1.156,9.137l6.089-3.045-2.923,6.211-3.167-3.167Zm6.957,11.2l.726.726c-1.925,1.255-4.168,1.937-6.527,1.937C5.383,24,0,18.617,0,12c0-2.36.682-4.602,1.937-6.528l.726.726c-1.077,1.724-1.664,3.711-1.664,5.801,0,6.065,4.935,11,11,11,2.09,0,4.077-.587,5.801-1.663Zm-8.607-8.607l-2.13,4.259,4.444-1.944.759.759-7.332,3.208,3.513-7.027.745.745Z"/>
</svg>
