<?xml version="1.0" encoding="UTF-8"?>
<svg xmlns="http://www.w3.org/2000/svg" id="Layer_1" data-name="Layer 1" viewBox="0 0 24 24">
  <path d="m5.5,13h.007c1.378-.003,2.496-1.128,2.493-2.507-.003-1.376-1.125-2.493-2.5-2.493h-.007c-1.378.003-2.496,1.128-2.493,2.507.003,1.376,1.125,2.493,2.5,2.493Zm-.005-4h.004c.826,0,1.499.67,1.5,1.496.002.827-.668,1.502-1.496,1.504h-.004c-.826,0-1.499-.67-1.5-1.496-.002-.827.668-1.502,1.496-1.504Zm6.941,13.224l3.883-4.224h4.68v-1h-5.12l-4.013,4.367-2.854-6.897,3.987-.532v-5.938h-1v5.062l-7,.938H1v-5H0v6l3.996-.003,3.188,7.462c.396.94,1.308,1.525,2.305,1.525.19,0,.384-.021.577-.065l5.509-1.529,5.19,1.501.277-.961-5.462-1.579-3.144.873Zm-2.616.727c-.71.161-1.432-.208-1.716-.882l-3.022-7.074,2.905-.388,3.286,7.94-1.453.403Zm10.353-12.999l1.428,4.217-3.813-1.313-.758,2.145h-1.082l1.23-3.419,2.828.992-.002-.005-1.04-3.051,2.751-1.679-2.834-1.011,1.026-2.826-3.033,1.028-1.746-2.716-1.016,2.777-2.749-.998.646,1.907h-1.056l-1.204-3.557h0,0s3.767,1.367,3.767,1.367l1.461-3.811,2.335,3.826,4.245-1.438-1.392,3.836,3.816,1.361-3.806,2.366Z"/>
</svg>
