<?xml version="1.0" encoding="UTF-8"?>
<svg xmlns="http://www.w3.org/2000/svg" id="Layer_1" data-name="Layer 1" width="512" height="512" viewBox="0 0 24 24"><path d="M24,10.5c0-1.378-1.122-2.5-2.5-2.5h-1.5V4h-1v4h-3.723L11.011,1.175c-.459-.735-1.252-1.175-2.12-1.175H4V8h-1.5c-1.378,0-2.5,1.122-2.5,2.5v2.221c.306-.348,.639-.67,1-.96v-1.26c0-.827,.673-1.5,1.5-1.5H21.5c.827,0,1.5,.673,1.5,1.5v2.333l-2.847,3.797c-.622-.399-1.361-.63-2.153-.63-2.206,0-4,1.794-4,4s1.794,4,4,4,4-1.794,4-4c0-1.054-.41-2.014-1.078-2.729l3.078-4.104v-2.667ZM5,1h3.892c.521,0,.996,.264,1.272,.705l3.934,6.295H5V1Zm13,22c-1.654,0-3-1.346-3-3s1.346-3,3-3,3,1.346,3,3-1.346,3-3,3Zm-8.486-7.807l1.082-1.082-.707-.707-1.082,1.082c-.647-.518-1.441-.862-2.307-.958v-1.528h-1v1.528c-.867,.096-1.66,.44-2.307,.958l-1.082-1.082-.707,.707,1.082,1.082c-.518,.647-.862,1.441-.958,2.307H0v1H1.528c.096,.867,.44,1.66,.958,2.307l-1.082,1.082,.707,.707,1.082-1.082c.647,.518,1.441,.862,2.307,.958v1.528h1v-1.528c.867-.096,1.66-.44,2.307-.958l1.082,1.082,.707-.707-1.082-1.082c.518-.647,.862-1.441,.958-2.307h1.528v-1h-1.528c-.096-.867-.44-1.66-.958-2.307Zm-3.514,6.307c-1.93,0-3.5-1.57-3.5-3.5s1.57-3.5,3.5-3.5,3.5,1.57,3.5,3.5-1.57,3.5-3.5,3.5Z"/></svg>
