<?xml version="1.0" encoding="UTF-8"?>
<svg xmlns="http://www.w3.org/2000/svg" id="Layer_1" data-name="Layer 1" viewBox="0 0 24 24">
  <path d="m23.901,13.322l-1.654-11.188c-.18-1.217-1.243-2.134-2.473-2.134h-3.774v1h3.774c.737,0,1.376.551,1.484,1.281l1.585,10.719h-6.344c-1.393,0-2.599.819-3.162,2h-2.677c-.563-1.181-1.769-2-3.162-2H1.156L2.741,2.281c.108-.73.747-1.281,1.484-1.281h3.774V0h-3.774C2.996,0,1.933.917,1.753,2.134L.099,13.32c-.065.428-.099.862-.099,1.292v5.888c0,1.93,1.57,3.5,3.5,3.5h4c1.93,0,3.5-1.57,3.5-3.5v-4c0-.17-.012-.337-.036-.5h2.072c-.023.163-.036.33-.036.5v4c0,1.93,1.57,3.5,3.5,3.5h4c1.93,0,3.5-1.57,3.5-3.5v-5.888c0-.43-.033-.864-.099-1.29Zm-13.901,7.178c0,1.378-1.121,2.5-2.5,2.5H3.5c-1.379,0-2.5-1.122-2.5-2.5v-5.888c0-.203.009-.407.025-.612h6.475c1.379,0,2.5,1.122,2.5,2.5v4Zm13,0c0,1.378-1.121,2.5-2.5,2.5h-4c-1.379,0-2.5-1.122-2.5-2.5v-4c0-1.378,1.121-2.5,2.5-2.5h6.475c.017.204.025.409.025.612v5.888Z"/>
</svg>
