<?xml version="1.0" encoding="UTF-8"?>
<svg xmlns="http://www.w3.org/2000/svg" id="Layer_1" data-name="Layer 1" viewBox="0 0 24 24" width="512" height="512"><path d="M11,17c0,.552-.448,1-1,1s-1-.448-1-1,.448-1,1-1,1,.448,1,1Zm-3,2c-.552,0-1,.448-1,1s.448,1,1,1,1-.448,1-1-.448-1-1-1Zm4,0c-.552,0-1,.448-1,1s.448,1,1,1,1-.448,1-1-.448-1-1-1ZM20,6.236v15.264c0,1.378-1.122,2.5-2.5,2.5H6.5c-1.378,0-2.5-1.122-2.5-2.5V6.236c-.638-.569-1-1.37-1-2.236,0-1.654,1.346-3,3-3,.453,0,.895,.103,1.3,.3,.661-.822,1.639-1.3,2.7-1.3,.715,0,1.411,.225,2,.64,.589-.415,1.285-.64,2-.64,1.062,0,2.04,.478,2.7,1.3,.405-.197,.847-.3,1.3-.3,1.654,0,3,1.346,3,3,0,.866-.362,1.667-1,2.236Zm-1,15.264c.385-6.308-8.731-14.5-14-14.973v14.973c0,.827,.673,1.5,1.5,1.5h11c.827,0,1.45-.674,1.5-1.5Zm0-14.98c-2.111,.163-4.391,1.33-5.938,3.017,2.457,2.004,4.702,4.604,5.938,7.454V6.52Zm1-2.52c0-1.103-.897-2-2-2-.412,0-.812,.129-1.155,.373l-.44,.313-.278-.463c-.459-.766-1.255-1.223-2.127-1.223-.608,0-1.2,.231-1.666,.65l-.334,.301-.334-.301c-.466-.419-1.057-.65-1.666-.65-.872,0-1.667,.457-2.127,1.223l-.278,.463-.44-.313c-.343-.244-.743-.373-1.155-.373-1.103,0-2,.897-2,2,0,.584,.247,1.124,.682,1.504,1.166,.044,2.64,.508,4.21,1.298,.806-1.084,1.706-2.143,2.797-2.85l.544,.839c-.926,.601-1.725,1.524-2.45,2.489,.825,.469,1.664,1.019,2.49,1.64,1.811-2,4.562-3.353,7.045-3.416,.435-.38,.682-.919,.682-1.503Z"/></svg>
