<?xml version="1.0" encoding="UTF-8"?>
<svg xmlns="http://www.w3.org/2000/svg" id="Layer_1" data-name="Layer 1" viewBox="0 0 24 24">
  <path d="m12,13c-4.038,0-8,3.962-8,8,0,1.935,1.065,3,3,3,.701,0,1.37-.213,2.078-.438.826-.263,1.763-.562,2.922-.562s2.096.298,2.922.562c.708.226,1.377.438,2.078.438,1.935,0,3-1.065,3-3,0-4.038-3.962-8-8-8Zm5,10c-.545,0-1.115-.182-1.774-.392-.896-.285-1.911-.608-3.226-.608s-2.33.323-3.226.608c-.659.21-1.229.392-1.774.392-1.383,0-2-.617-2-2,0-3.533,3.467-7,7-7s7,3.467,7,7c0,1.383-.617,2-2,2Zm-1.533-12c1.417,0,2.761-1.789,2.997-3.987.122-1.131-.072-2.156-.547-2.886-.007-.01-.014-.02-.021-.03.054-.205.084-.404.097-.597.15-2.148-2.5-3.5-2.5-3.5,0,0,.557,1.242.5,2.5-.008.168-.032.336-.07.501-1.501-.009-2.664,1.378-2.887,3.455-.125,1.164.072,2.328.542,3.193.25.461.909,1.351,1.889,1.351Zm-1.436-4.438c.165-1.533.917-2.562,1.873-2.562.481,0,.917.274,1.175.672.349.537.488,1.331.391,2.234-.206,1.914-1.302,3.09-2.069,3.09h-.004c-.471-.048-.814-.592-.939-.824-.375-.691-.53-1.643-.426-2.61Zm7.469-1.062s.557,1.242.5,2.5c-.015.342-.097.684-.233,1.004-1.39-.071-2.5,1.161-2.709,3.016-.116,1.027.067,2.054.501,2.816.227.398.876,1.164,1.689,1.164,1.281,0,2.5-1.565,2.718-3.49.096-.85-.021-1.631-.328-2.24.247-.448.333-.873.361-1.27.15-2.148-2.5-3.5-2.5-3.5Zm1.473,6.898c-.182,1.61-1.125,2.6-1.775,2.6h-.003c-.375-.036-.662-.472-.767-.657-.332-.582-.469-1.387-.376-2.208.144-1.275.788-2.132,1.603-2.132.417,0,.766.217.981.532.303.443.422,1.106.336,1.866Zm-18.025-.378c-.21-1.856-1.296-3.096-2.709-3.017-.136-.319-.217-.662-.233-1.003-.057-1.258.5-2.5.5-2.5C2.506,5.5-.144,6.852.006,9c.028.397.114.822.361,1.27-.307.609-.424,1.389-.328,2.24.217,1.924,1.437,3.49,2.718,3.49.05,0,.935,0,1.69-1.164.434-.763.617-1.79.501-2.816Zm-1.37,2.32c-.106.186-.393.621-.821.66-.598,0-1.542-.99-1.724-2.602-.086-.76.034-1.423.336-1.865.216-.315.631-.533.982-.533.814,0,1.459.857,1.603,2.132.093.821-.044,1.626-.375,2.208Zm1.963-7.328c.235,2.199,1.58,3.987,2.997,3.987,1.128,0,1.639-.89,1.889-1.351.469-.865.667-2.029.542-3.193-.223-2.077-1.382-3.468-2.887-3.456-.038-.165-.062-.333-.07-.5-.057-1.258.5-2.5.5-2.5,0,0-2.65,1.352-2.5,3.5.013.192.083.616.076.627-.474.73-.667,1.755-.546,2.886Zm4.433-.45c.104.967-.052,1.918-.426,2.61-.125.232-.469.776-1.01.828-.698,0-1.797-1.177-2.002-3.094-.097-.904.042-1.697.39-2.234.259-.397.766-.672,1.176-.672.956,0,1.708,1.03,1.873,2.562Z"/>
</svg>
