<?xml version="1.0" encoding="UTF-8"?>
<svg xmlns="http://www.w3.org/2000/svg" id="Layer_1" data-name="Layer 1" viewBox="0 0 24 24" width="512" height="512"><path d="M17.75,24c-2.506,0-3.548-1.104-4.468-2.078-.934-.989-1.815-1.922-4.282-1.922C4.29,20,0,15.19,0,9.909,0,4.445,4.445,0,9.909,0c9.836,0,14.091,11.754,14.091,17.75,0,3.446-2.804,6.25-6.25,6.25ZM9.909,1C4.997,1,1,4.997,1,9.909c0,5.12,4.3,9.091,8,9.091,2.898,0,4.02,1.188,5.009,2.236,.894,.947,1.666,1.764,3.741,1.764,2.895,0,5.25-2.355,5.25-5.25C23,11.738,18.625,1,9.909,1Zm4.184,3.2L4.277,14.016c.189,.284,.394,.552,.612,.802L14.942,4.765c-.273-.206-.558-.391-.849-.565ZM3,9.909c0,.256,.015,.507,.042,.756L10.646,3.061c-.245-.023-.484-.061-.737-.061-.219,0-.435,.013-.649,.033L3.033,9.26c-.02,.214-.033,.43-.033,.649Zm14.227-2.843L7.568,16.725c.388,.141,.777,.226,1.159,.255L17.815,7.892c-.189-.282-.383-.558-.589-.825Zm3.569,8.431l-4.854,4.854c.285,.272,.536,.444,.872,.542l4.143-4.143c-.033-.401-.09-.821-.161-1.253Zm-.967-3.619c-.125-.339-.255-.678-.4-1.014l-6.83,6.83c.339,.15,.643,.315,.922,.492l6.307-6.307Z"/></svg>
