<?xml version="1.0" encoding="UTF-8"?>
<svg xmlns="http://www.w3.org/2000/svg" id="Layer_1" data-name="Layer 1" viewBox="0 0 24 24">
  <path d="m13,23c0,.552-.448,1-1,1s-1-.448-1-1,.448-1,1-1,1,.448,1,1Zm4.792-15.792c-.827-3.617-4.051-6.208-7.792-6.208C5.589,1,2,4.589,2,9c0,1.272.308,2.526.894,3.659-1.774.953-2.894,2.797-2.894,4.841,0,3.033,2.468,5.5,5.5,5.5h2.5v-1h-2.5c-2.481,0-4.5-2.019-4.5-4.5,0-1.826,1.093-3.458,2.783-4.157l.539-.223-.303-.499c-.667-1.097-1.02-2.35-1.02-3.622,0-3.86,3.141-7,7-7,3.372,0,6.265,2.406,6.878,5.722l.062.338.338.062c3.315.612,5.722,3.505,5.722,6.877,0,3.86-3.141,7-7,7v1c4.411,0,8-3.589,8-8,0-3.741-2.591-6.966-6.208-7.792Zm-8.62,12.963l.707.707c1.133-1.133,3.109-1.133,4.242,0l.707-.707c-1.51-1.511-4.146-1.511-5.656,0Zm7.778-2.121l.707-.707c-3.119-3.119-8.195-3.119-11.314,0l.707.707c2.73-2.729,7.17-2.729,9.9,0Z"/>
</svg>
