<?xml version="1.0" encoding="UTF-8"?>
<svg xmlns="http://www.w3.org/2000/svg" id="Layer_1" data-name="Layer 1" viewBox="0 0 24 24">
  <path d="m22.038,8h-1V0h1v8Zm-16.038,1.001l.039,15,1-.003-.039-15-1,.003Zm-4.961,2.999h1v12h-1v-12Zm10.961-6.001l.039,18-1,.002-.039-18,1-.002Zm11,9.084v-.505c0-.824-.671-1.495-1.495-1.495h-3.01c-.824,0-1.495.671-1.495,1.495,0,.664.446,1.255,1.085,1.437l4.105,1.173c1.065.305,1.81,1.291,1.81,2.399,0,1.376-1.119,2.495-2.495,2.495h-1.005v1.917h-1v-1.917h-1.005c-1.376,0-2.495-1.119-2.495-2.495v-.505h1v.505c0,.824.671,1.495,1.495,1.495h3.01c.824,0,1.495-.671,1.495-1.495,0-.664-.446-1.255-1.085-1.438l-4.105-1.173c-1.065-.305-1.81-1.291-1.81-2.399,0-1.376,1.119-2.495,2.495-2.495h1.005v-2h1v2h1.005c1.376,0,2.495,1.119,2.495,2.495v.505h-1Zm-7-4.058V3h1v6.763c-.396.372-.708.776-1,1.262Z"/>
</svg>
