<?xml version="1.0" encoding="UTF-8"?>
<svg xmlns="http://www.w3.org/2000/svg" id="Layer_1" data-name="Layer 1" viewBox="0 0 24 24" width="512" height="512"><path d="m12.021,12c3.309,0,6-2.691,6-6S15.33,0,12.021,0s-6,2.691-6,6,2.691,6,6,6Zm0-11c2.757,0,5,2.243,5,5s-2.243,5-5,5-5-2.243-5-5S9.265,1,12.021,1Zm4.479,13H7.5c-2.481,0-4.5,2.019-4.5,4.5v5.5h1v-5.5c0-1.93,1.57-3.5,3.5-3.5h.5v3.064c-.871.216-1.521.999-1.521,1.936,0,1.103.897,2,2,2s2-.897,2-2c0-.921-.63-1.691-1.479-1.922v-3.078h6v3.551c-1.14.232-2,1.242-2,2.449v3h1v-3c0-.827.673-1.5,1.5-1.5s1.5.673,1.5,1.5v3h1v-3c0-1.208-.86-2.217-2-2.449v-3.551h.5c1.93,0,3.5,1.57,3.5,3.5v5.5h1v-5.5c0-2.481-2.019-4.5-4.5-4.5Zm-7.021,6c0,.552-.448,1-1,1s-1-.448-1-1,.448-1,1-1,1,.448,1,1Z"/></svg>
