<?xml version="1.0" encoding="UTF-8"?>
<svg xmlns="http://www.w3.org/2000/svg" id="Layer_1" data-name="Layer 1" viewBox="0 0 24 24">
  <path d="m19.791.593l-.791-.565v.972c0,4.819-.252,8.026-4.611,8.812.383-.504.611-1.132.611-1.812v-4l-1.439,1.439c-.455-.278-.99-.439-1.561-.439s-1.106.161-1.561.439l-1.439-1.439v4c0,.68.228,1.308.611,1.812-4.359-.786-4.611-3.993-4.611-8.812V.028l-.791.565C1.042,2.855-.052,8.795.002,12.009c.021,1.146.485,3.954.505,4.073l.111.666.604-.3c.01-.005.912-.448,1.777-.448.239,0,.536.117.883.349,1.214.809,1.888,2.788,1.894,2.808l.193.578.529-.302c.514-.293,1.007-.431,1.494-.432.744.01,1.468.365,2.151,1.056l.016-.016c.652,1.838,1.348,3.104,1.402,3.202l.438.787.437-.787c.055-.098.75-1.364,1.402-3.202l.016.016c.684-.691,1.407-1.046,2.151-1.056h.028c.471,0,.964.145,1.466.432l.528.302.194-.577c.006-.02.681-2,1.895-2.809.346-.231.643-.348.882-.348.865,0,1.768.443,1.777.448l.604.3.111-.666c.02-.119.486-2.927.505-4.074.054-3.213-1.04-9.153-4.207-11.415Zm-10.137,17.843c-.528-.282-1.079-.429-1.648-.436-.5-.005-.989.097-1.489.308-.32-.744-1.011-2.079-2.08-2.791-.52-.348-.99-.517-1.437-.517-.597,0-1.184.154-1.605.3-.14-.9-.379-2.547-.393-3.309-.049-2.899.862-7.559,3.001-9.882.037,4.047.483,7.939,5.812,8.74-.451.741-.814,1.766-.814,3.15,0,1.544.28,3.076.654,4.436Zm2.346,3.443c-.701-1.503-2-4.715-2-7.879,0-1.453.463-2.419.949-3.032.334.021.684.032,1.051.032s.717-.011,1.051-.032c.485.613.949,1.579.949,3.032,0,3.164-1.299,6.375-2,7.879Zm0-11.879c-1.105,0-2-.895-2-2s.895-2,2-2,2,.895,2,2-.895,2-2,2Zm10.998,1.992c-.013.762-.253,2.409-.393,3.309-.421-.146-1.009-.3-1.605-.3-.447,0-.918.169-1.438.517-1.068.712-1.76,2.048-2.08,2.792-.499-.211-.999-.312-1.489-.308-.569.008-1.119.154-1.648.436.375-1.36.654-2.892.654-4.436,0-1.384-.363-2.409-.814-3.15,5.328-.801,5.774-4.693,5.812-8.74,2.139,2.323,3.05,6.983,3.001,9.882Z"/>
</svg>
