<?xml version="1.0" encoding="UTF-8"?>
<svg xmlns="http://www.w3.org/2000/svg" id="Layer_1" data-name="Layer 1" viewBox="0 0 24 24" width="512" height="512"><path d="M18.33,21.87l.71,.71c-.73,.87-1.82,1.43-3.04,1.43-2.21,0-4-1.79-4-4v-3c0-.43,.08-.85,.21-1.26l.84,.84c-.02,.14-.05,.27-.05,.41v3c0,1.65,1.35,3,3,3,.95,0,1.78-.45,2.33-1.13ZM4.06,7.6c.26,1.73,1.62,3.08,3.34,3.34l-3.34-3.34ZM18,1.64V11h1V0h-.8l-3.36,3.45,.72,.7,2.44-2.51ZM7.2,13l-3.36,3.45,.72,.7,2.44-2.51v9.36h1V13h-.8Zm16.8,10.3l-.71,.71L0,.7,.7,0l3.36,3.36c.31-1.9,1.95-3.36,3.94-3.36,2.21,0,4,1.79,4,4v3c0,1.14-.49,2.22-1.32,2.97l3.48,3.48c.57-.29,1.19-.45,1.84-.45,2.21,0,4,1.79,4,4v2.29l4,4ZM14.92,14.21l4.08,4.08v-1.29c0-1.65-1.35-3-3-3-.38,0-.74,.08-1.08,.21ZM5,4.29l4.95,4.95c.65-.57,1.05-1.38,1.05-2.25v-3c0-1.65-1.35-3-3-3s-3,1.35-3,3v.29Z"/></svg>
