<?xml version="1.0" encoding="UTF-8"?>
<svg xmlns="http://www.w3.org/2000/svg" id="Layer_1" data-name="Layer 1" width="512" height="512" viewBox="0 0 24 24"><path d="M8,12c-1.122,0-2-1.318-2-3s.878-3,2-3,2,1.318,2,3-.878,3-2,3Zm0-5c-.472,0-1,.855-1,2s.528,2,1,2,1-.855,1-2-.528-2-1-2Zm8,5c-1.122,0-2-1.318-2-3s.878-3,2-3,2,1.318,2,3-.878,3-2,3Zm0-5c-.472,0-1,.855-1,2s.528,2,1,2,1-.855,1-2-.528-2-1-2Zm-4,17C5.383,24,0,18.617,0,12S5.383,0,12,0s12,5.383,12,12-5.383,12-12,12ZM12,1C5.935,1,1,5.935,1,12s4.935,11,11,11,11-4.935,11-11S18.065,1,12,1Zm.001,19h-.012c-4.3,0-5.9-4.92-5.966-5.129l-.276-.875,.885,.243c.028,.007,2.805,.762,5.363,.762s5.345-.754,5.373-.762l.886-.242-.278,.876c-.066,.209-1.676,5.128-5.975,5.128Zm-4.663-4.563c.623,1.29,2.085,3.563,4.651,3.563h.012c2.565,0,4.033-2.273,4.658-3.564-1.079,.236-2.898,.564-4.664,.564s-3.581-.328-4.657-.563Z"/></svg>
