<?xml version="1.0" encoding="UTF-8"?>
<svg xmlns="http://www.w3.org/2000/svg" id="Layer_1" data-name="Layer 1" viewBox="0 0 24 24" width="512" height="512"><path d="M17.06,13.44c.58,.58,.58,1.54,0,2.12l-4.24,4.24-.71-.71,4.1-4.1H6v-1h10.21l-4.1-4.1,.71-.71,4.24,4.24Zm6.94-6.94V24H0V6.5c0-1.38,1.12-2.5,2.5-2.5h3.5V1.5c0-.83,.67-1.5,1.5-1.5h9c.83,0,1.5,.67,1.5,1.5v2.5h3.5c1.38,0,2.5,1.12,2.5,2.5ZM7,4h10V1.5c0-.28-.22-.5-.5-.5H7.5c-.28,0-.5,.22-.5,.5v2.5Zm16,2.5c0-.83-.67-1.5-1.5-1.5H2.5c-.83,0-1.5,.67-1.5,1.5V23H23V6.5Z"/></svg>
