<?xml version="1.0" encoding="UTF-8"?>
<svg xmlns="http://www.w3.org/2000/svg" id="Layer_1" data-name="Layer 1" viewBox="0 0 24 24" width="512" height="512"><path d="m23.519,11.414c.365-.875.421-1.815.163-2.72h0c-.324-1.134-1.123-2.078-2.191-2.59-.373-.179-.631-.519-.674-.887-.133-1.148-.713-2.158-1.634-2.842-.909-.675-2.03-.944-3.154-.753-.375.064-.784-.088-1.101-.405C14.145.436,13.109.006,12.011.006s-2.133.43-2.916,1.211c-.316.316-.731.469-1.101.405-1.127-.188-2.245.078-3.153.753-.921.685-1.502,1.694-1.634,2.843-.042.367-.301.707-.674.886-1.068.512-1.867,1.457-2.191,2.59-.259.905-.203,1.846.163,2.72.162.387.162.797,0,1.184-.365.874-.421,1.814-.162,2.721.324,1.133,1.123,2.077,2.191,2.59.373.179.631.519.674.886.132,1.148.713,2.158,1.634,2.843.908.675,2.029.942,3.154.753.37-.065.783.088,1.1.404.783.781,1.818,1.212,2.916,1.212s2.133-.431,2.916-1.212c.316-.316.726-.47,1.101-.404,1.127.19,2.245-.078,3.154-.753.921-.684,1.501-1.693,1.634-2.843.042-.367.301-.707.674-.886,1.068-.513,1.867-1.457,2.191-2.59.258-.906.202-1.847-.163-2.721-.162-.387-.162-.796,0-1.184Zm-.799,3.629c-.246.858-.852,1.574-1.663,1.963-.68.327-1.153.968-1.234,1.673-.101.872-.541,1.638-1.238,2.155-.688.512-1.536.714-2.391.569-.692-.118-1.43.138-1.975.684-1.187,1.186-3.23,1.186-4.417,0-.458-.458-1.053-.711-1.64-.711-.112,0-.223.009-.333.027-.858.144-1.703-.059-2.391-.569-.697-.518-1.137-1.283-1.237-2.155-.082-.705-.555-1.347-1.234-1.673-.811-.389-1.417-1.104-1.662-1.963-.196-.686-.153-1.398.124-2.061.263-.63.263-1.324,0-1.954-.277-.663-.32-1.375-.124-2.06.246-.859.852-1.575,1.663-1.964.68-.327,1.153-.968,1.234-1.673.101-.871.54-1.636,1.238-2.154.688-.511,1.536-.711,2.39-.569.696.118,1.43-.14,1.974-.684,1.186-1.185,3.231-1.184,4.417,0,.545.545,1.283.8,1.975.684.853-.145,1.702.057,2.391.569.697.518,1.137,1.283,1.238,2.154.082.706.554,1.347,1.234,1.673.811.389,1.417,1.105,1.663,1.964.195.684.152,1.396-.124,2.06-.263.63-.263,1.324,0,1.954.277.663.319,1.376.124,2.061Zm-15.717-2.041c0,.551-.447.998-.998.998s-.997-.447-.997-.998.447-.998.997-.998.998.447.998.998Zm5.005,5c0,.551-.447.997-.997.997s-.997-.447-.997-.997.447-.997.997-.997.997.447.997.997Zm-1.997-10.998c-.552,0-1-.448-1-1s.448-1,1-1,1,.448,1,1-.448,1-1,1Zm3.997,3.994c0,.551-.447.998-.998.998s-.998-.447-.998-.998.447-.998.998-.998.998.447.998.998Zm5,3.004c0,.551-.447.998-.998.998s-.997-.447-.997-.998.447-.997.997-.997.998.447.998.997Z"/></svg>
