<?xml version="1.0" encoding="UTF-8"?>
<svg xmlns="http://www.w3.org/2000/svg" id="Layer_1" data-name="Layer 1" viewBox="0 0 24 24" width="512" height="512"><path d="M21.5,0H2.5C1.122,0,0,1.122,0,2.5V24H24V2.5c0-1.378-1.122-2.5-2.5-2.5Zm1.5,23H1V2.5c0-.827,.673-1.5,1.5-1.5H21.5c.827,0,1.5,.673,1.5,1.5V23Zm-14-4h11v1H9v-1Zm9.438-10.611l2.587,2.586-.707,.707-2.318-2.317v7.635h-1v-7.635l-2.5,2.5-2.5-2.5v7.635h-1v-7.635l-2.318,2.317-.707-.707,2.587-2.586c.518-.518,1.358-.518,1.876,0l2.062,2.062,2.062-2.062c.518-.518,1.358-.518,1.876,0Z"/></svg>
