<?xml version="1.0" encoding="UTF-8"?>
<svg xmlns="http://www.w3.org/2000/svg" id="Layer_1" data-name="Layer 1" viewBox="0 0 24 24">
  <path d="m10.219,6.508l-3.341-3.341.707-.707,3.341,3.341c.257.257.703.257.959,0L17.761.014l.701.713-5.872,5.784c-.314.314-.736.489-1.185.489s-.87-.175-1.187-.492Zm11.281-3.508c-1.379,0-2.5,1.122-2.5,2.5v6.997c-.391-.294-.86-.466-1.359-.494-.664-.042-1.306.188-1.808.637l-3.833,3.528-3.838-3.532c-.9-.805-2.229-.836-3.162-.137v-6.999c0-1.378-1.122-2.5-2.5-2.5S0,4.122,0,5.5v13.231c0,.618.229,1.214.645,1.676l3.197,3.593h1.344l-3.799-4.263c-.25-.277-.387-.635-.387-1.006V5.5c0-.827.673-1.5,1.5-1.5s1.5.673,1.5,1.5v9h.01c.003.574.199,1.153.598,1.627l3.074,3.179.719-.695-3.051-3.153c-.476-.567-.462-1.409.032-1.96.55-.614,1.499-.666,2.108-.12l4.026,3.705c.308.283.484.685.484,1.104v5.814h1v-5.814c0-.446-.132-.874-.353-1.253l3.858-3.55c.298-.267.688-.4,1.08-.38.398.022.766.198,1.032.496.246.274.372.621.382.967v.01c.007.345-.101.689-.326.957l-3.075,3.179.719.695,3.099-3.206c.387-.461.576-1.031.577-1.601h.007V5.5c0-.827.673-1.5,1.5-1.5s1.5.673,1.5,1.5v13.231c0,.371-.137.729-.387,1.006l-3.799,4.263h1.344l3.197-3.593c.416-.462.645-1.058.645-1.676V5.5c0-1.378-1.121-2.5-2.5-2.5Z"/>
</svg>
