<?xml version="1.0" encoding="UTF-8"?>
<svg xmlns="http://www.w3.org/2000/svg" id="Layer_1" data-name="Layer 1" viewBox="0 0 24 24" width="512" height="512"><path d="m23.415,11.899c-.45-.532-1.093-.851-1.783-.888.241-.491.376-1.038.376-1.564,0-1.413-.774-2.725-2-3.435v-.006c0-2.206-1.794-4-4-4-.201,0-.404.019-.62.057C14.726.801,13.441.006,12.008.006s-2.719.795-3.381,2.058c-.216-.038-.419-.057-.62-.057-2.206,0-4,1.794-4,4,0,.138.007.276.021.415-1.238.705-2.021,2.019-2.021,3.444,0,.405.064.793.191,1.162-.62.079-1.192.386-1.602.871-.477.564-.679,1.305-.556,2.03.743,4.37,3.604,8.026,7.85,10.03l8.129.048.102-.048c4.246-2.005,7.106-5.661,7.849-10.03.123-.726-.079-1.466-.556-2.03ZM4.782,7.159l.364-.164s-.14-.789-.14-.988c0-1.654,1.346-3,3-3,.544,0,1.207.231,1.207.231l.163-.415c.435-1.104,1.468-1.817,2.631-1.817s2.195.713,2.63,1.817l.163.415s.659-.231,1.207-.231c1.654,0,3,1.346,3,3,0,.039-.055.601-.055.601l.314.146c1.073.5,1.74,1.531,1.74,2.693,0,.543-.202,1.119-.542,1.561H3.272c-.177-.355-.264-.73-.264-1.142,0-1.16.696-2.223,1.774-2.707Zm18.202,6.603c-.681,4.009-3.298,7.373-7.189,9.246h-7.576c-3.891-1.873-6.509-5.236-7.19-9.246-.074-.435.047-.878.333-1.217.288-.342.709-.537,1.154-.537h18.982c.444,0,.865.195,1.153.537.286.339.407.782.333,1.217Zm-13.977-7.755c0-.552.448-1,1-1s1,.448,1,1-.448,1-1,1-1-.448-1-1Zm5,2.99c0-.55.446-.996.996-.996s.996.446.996.996-.446.996-.996.996-.996-.446-.996-.996Z"/></svg>
