<?xml version="1.0" encoding="UTF-8"?>
<svg xmlns="http://www.w3.org/2000/svg" id="Layer_1" data-name="Layer 1" viewBox="0 0 24 24">
  <path d="m20.987,9.089c-.589-.441-1.145-.857-1.494-1.251-.449-.507-.505-2.089-.554-3.485-.072-2.084-.136-3.884-1.284-4.266-1.062-.356-2.229.389-3.576,1.25-1.121.717-2.391,1.529-3.634,1.666-1.119.125-2.465-.386-3.759-.878-1.744-.664-3.549-1.35-4.844-.377-1.575,1.181-.701,3.141.144,5.037.571,1.28,1.161,2.604,1.019,3.648-.171,1.252-.876,2.106-1.557,2.933-.712.863-1.448,1.756-1.448,3.018,0,2.101,1.996,2.251,3.927,2.396,1.254.094,2.676.201,3.802.785,1.235.64,1.899,1.503,2.542,2.339.829,1.079,1.612,2.097,3.372,2.097,1.465,0,2.054-2.058,2.624-4.047.314-1.101.641-2.238,1.039-2.695.39-.446,1.538-.833,2.648-1.207,1.989-.669,4.046-1.361,4.046-2.955,0-1.751-1.601-2.95-3.013-4.008Zm-1.352,6.015c-1.294.435-2.517.847-3.084,1.497-.544.624-.886,1.815-1.247,3.077-.401,1.402-.951,3.322-1.662,3.322-1.268,0-1.817-.716-2.58-1.707-.676-.879-1.441-1.875-2.873-2.617-1.309-.678-2.839-.793-4.188-.895-2.133-.161-3.001-.333-3.001-1.399,0-.902.565-1.588,1.22-2.381.734-.891,1.566-1.899,1.775-3.433.182-1.327-.468-2.783-1.095-4.191-.868-1.946-1.331-3.175-.458-3.83.854-.641,2.329-.081,3.889.512,1.404.535,2.859,1.091,4.224.938,1.475-.162,2.85-1.041,4.063-1.817,1.085-.693,2.112-1.35,2.721-1.145.49.163.557,2.082.602,3.352.06,1.716.116,3.337.805,4.113.417.47,1.012.917,1.643,1.389,1.225.917,2.612,1.957,2.612,3.208,0,.875-1.865,1.502-3.364,2.007Z"/>
</svg>
