<?xml version="1.0" encoding="UTF-8"?>
<svg xmlns="http://www.w3.org/2000/svg" id="Layer_1" data-name="Layer 1" viewBox="0 0 24 24">
  <path d="m13.5,10h-3c-1.378,0-2.5,1.121-2.5,2.5v6.5h2v5h1v-5h2v5h1v-5h2v-6.5c0-1.379-1.122-2.5-2.5-2.5Zm1.5,8h-6v-5.5c0-.827.673-1.5,1.5-1.5h3c.827,0,1.5.673,1.5,1.5v5.5Zm-.5-11.5c0-1.379-1.122-2.5-2.5-2.5s-2.5,1.121-2.5,2.5,1.122,2.5,2.5,2.5,2.5-1.121,2.5-2.5Zm-4,0c0-.827.673-1.5,1.5-1.5s1.5.673,1.5,1.5-.673,1.5-1.5,1.5-1.5-.673-1.5-1.5Zm1.5-6.5C4.935,0,0,2.262,0,5.5v13.372c0,2.037,2,4.109,6,5.022v-14.578c-2.946-.827-5-2.283-5-3.816C1,2.935,5.729,1,12,1s11,1.935,11,4.5c0,1.533-2.054,2.989-5,3.816v14.578c3.788-.971,6-2.985,6-5.022V5.5c0-3.238-4.935-5.5-12-5.5Zm-7,10.07v12.461c-2.519-.891-4-2.234-4-3.659V7.869c.839.9,2.19,1.649,4,2.201Zm18,8.802c0,1.425-1.481,2.769-4,3.659v-12.461c1.81-.552,3.161-1.301,4-2.201v11.003Z"/>
</svg>
