<?xml version="1.0" encoding="UTF-8"?>
<svg xmlns="http://www.w3.org/2000/svg" id="Layer_1" data-name="Layer 1" viewBox="0 0 24 24">
  <path d="m4.5,5c1.379,0,2.5-1.122,2.5-2.5S5.879,0,4.5,0s-2.5,1.122-2.5,2.5,1.121,2.5,2.5,2.5Zm0-4c.827,0,1.5.673,1.5,1.5s-.673,1.5-1.5,1.5-1.5-.673-1.5-1.5.673-1.5,1.5-1.5Zm6.5,20h13v1h-14c-.552,0-1,.449-1,1v1h-1v-1c0-1.103.897-2,2-2v-4H3v7h-1v-7H0v-8.5c0-1.378,1.121-2.5,2.5-2.5h4.867l6.885-3.934.496.868-7.115,4.066H2.5c-.827,0-1.5.673-1.5,1.5v7.5h5v-7h1v7h4v5Zm-2.248-11.626l2-1.143.496.868-2,1.143-.496-.868Zm3.163-1.808l2.837-1.621.496.868-2.837,1.621-.496-.868Zm9.504-4.985l-.754-2.581h-1.313l-.765,2.58-2.587.755v1.314l2.585.767.767,2.585h1.313l.756-2.587,2.579-.765v-1.314l-2.581-.754Zm-.805,2.029l-.608,2.081-.616-2.08-2.08-.616,2.082-.608.614-2.076.606,2.077,2.078.606-2.076.616Z"/>
</svg>
