<?xml version="1.0" encoding="UTF-8"?>
<svg xmlns="http://www.w3.org/2000/svg" id="Layer_1" data-name="Layer 1" viewBox="0 0 24 24" width="512" height="512"><path d="M8.974,12.026c3.323,0,6.026-2.703,6.026-6.026S12.297-.026,8.974-.026,2.949,2.677,2.949,6s2.703,6.026,6.025,6.026ZM8.974,.974c2.771,0,5.026,2.254,5.026,5.026s-2.254,5.026-5.026,5.026S3.949,8.771,3.949,6,6.203,.974,8.974,.974ZM4.5,14h4.5v1H4.5c-1.93,0-3.5,1.57-3.5,3.5v5.5H0v-5.5c0-2.481,2.019-4.5,4.5-4.5Zm18,3c0-.73-.157-1.424-.44-2.05l1.755-1.011-.499-.866-1.756,1.012c-.817-1.134-2.096-1.914-3.559-2.06v-2.025h-1v2.025c-1.463,.146-2.743,.926-3.559,2.06l-1.756-1.012-.499,.866,1.755,1.011c-.283,.626-.44,1.32-.44,2.05s.157,1.424,.44,2.05l-1.755,1.011,.499,.866,1.756-1.012c.817,1.134,2.096,1.914,3.559,2.06v2.025h1v-2.025c1.463-.146,2.743-.926,3.559-2.06l1.756,1.012,.499-.866-1.755-1.011c.283-.626,.44-1.32,.44-2.05Zm-5,4c-2.206,0-4-1.794-4-4s1.794-4,4-4,4,1.794,4,4-1.794,4-4,4Z"/></svg>
