<?xml version="1.0" encoding="UTF-8"?>
<svg xmlns="http://www.w3.org/2000/svg" id="Layer_1" data-name="Layer 1" viewBox="0 0 24 24" width="512" height="512"><path d="M11.55,11.43c-.24,.24-.47,.49-.69,.76-.26-.12-.55-.19-.86-.19-1.1,0-2,.9-2,2,0,.81,.48,1.5,1.17,1.82-.07,.33-.11,.67-.14,1.02-1.18-.41-2.03-1.52-2.03-2.84,0-1.65,1.35-3,3-3,.57,0,1.1,.16,1.55,.43Zm-2.17,8.57c.11,.34,.23,.68,.38,1H0V3C0,1.35,1.35,0,3,0H15.83l5.17,5.16v4.59c-.32-.15-.66-.27-1-.38v-3.8L15.42,1h-.42v7H4V1h-1C1.9,1,1,1.9,1,3V20H9.37ZM14,1H5V7H14V1Zm10,16.5c0,3.58-2.92,6.5-6.5,6.5s-6.5-2.92-6.5-6.5,2.92-6.5,6.5-6.5,6.5,2.92,6.5,6.5Zm-1,0c0-3.03-2.47-5.5-5.5-5.5s-5.5,2.47-5.5,5.5,2.47,5.5,5.5,5.5,5.5-2.47,5.5-5.5Zm-3.51-2.7l-1.99,1.99-1.99-1.99-.71,.71,1.99,1.99-1.99,1.99,.71,.71,1.99-1.99,1.99,1.99,.71-.71-1.99-1.99,1.99-1.99-.71-.71Z"/></svg>
