<?xml version="1.0" encoding="UTF-8"?>
<svg xmlns="http://www.w3.org/2000/svg" id="Layer_1" data-name="Layer 1" viewBox="0 0 24 24">
  <path d="m24,11c0-1.654-1.346-3-3-3h-.985c.587-.526.985-1.223.985-2,0-1.654-1.346-3-3-3h-2.539c-.774-1.505-2.352-3-3.961-3h-.5v.5c0,.981-.182,1.821-.542,2.5h-4.458c-1.654,0-3,1.346-3,3,0,.768.29,1.469.766,2h-.766c-1.654,0-3,1.346-3,3,0,1.541,1.172,2.799,2.669,2.967l1.459,3.052c1.833,3.059,3.766,3.033,6.696,2.991.213-.003.448-.003.676-.004v2.996h-4.5v1h10v-1h-4.5v-2.995c.243.002.493.002.718.005.334.005.655.01.964.01,2.383,0,4.076-.291,5.712-3.024l1.437-3.029c1.497-.168,2.668-1.426,2.668-2.966Zm-4.985,5.524c-1.53,2.551-2.954,2.527-5.781,2.486-.231-.003-2.206-.005-2.423-.001-2.855.041-4.287.061-5.803-2.463l-1.215-2.545h16.417l-1.195,2.524Zm1.985-3.524H3c-1.103,0-2-.897-2-2s.897-2,2-2h10v-1h-7c-1.103,0-2-.897-2-2s.897-2,2-2h5.023l.147-.234c.468-.748.741-1.654.812-2.701,1.099.286,2.195,1.479,2.708,2.638l.132.297h3.178c1.103,0,2,.897,2,2,0,1.077-1.375,2-2.5,2h-.5v1h4c1.103,0,2,.897,2,2s-.897,2-2,2Z"/>
</svg>
