<?xml version="1.0" encoding="UTF-8"?>
<svg xmlns="http://www.w3.org/2000/svg" id="Layer_1" data-name="Layer 1" viewBox="0 0 24 24" width="512" height="512"><path d="M19,11h-3.5c-1.379,0-2.5,1.122-2.5,2.5v2.5h4.5c1.379,0,2.5-1.122,2.5-2.5v-4.5h-1v2Zm0,2.5c0,.827-.673,1.5-1.5,1.5h-3.5v-1.5c0-.827,.673-1.5,1.5-1.5h3.5v1.5Zm-10.5-2.5h-3.5v-2h-1v4.5c0,1.378,1.121,2.5,2.5,2.5h4.5v-2.5c0-1.378-1.121-2.5-2.5-2.5Zm1.5,4h-3.5c-.827,0-1.5-.673-1.5-1.5v-1.5h3.5c.827,0,1.5,.673,1.5,1.5v1.5ZM20.407,3.436C18.091,1.161,15.003-.071,11.775,0,5.282,.119,0,5.672,0,12.379v11.621H8.115l1.365-2.504c.504-.922,1.469-1.496,2.52-1.496s2.016,.573,2.519,1.495l1.366,2.505h8.115V11.998c0-3.247-1.276-6.288-3.593-8.562Zm2.593,19.564h-6.521l-1.082-1.984c-.679-1.244-1.98-2.016-3.396-2.016s-2.718,.772-3.397,2.017l-1.081,1.983H1V12.379C1,6.213,5.842,1.109,11.793,1c2.987-.052,5.791,1.064,7.913,3.149,2.124,2.085,3.294,4.873,3.294,7.849v11.002Z"/></svg>
