<?xml version="1.0" encoding="UTF-8"?>
<svg xmlns="http://www.w3.org/2000/svg" id="Layer_1" data-name="Layer 1" viewBox="0 0 24 24" width="512" height="512"><path d="M20.97,6.88c-.3-1.67-1.75-2.88-3.45-2.88h-1.03c.31-.42,.5-.94,.5-1.5,0-1.38-1.12-2.5-2.5-2.5h-5c-1.38,0-2.5,1.12-2.5,2.5,0,.56,.19,1.08,.5,1.5h-1.03c-1.7,0-3.15,1.21-3.45,2.88L.69,20h7.31c0,2.21,1.79,4,4,4s4-1.79,4-4h7.31l-2.34-13.12ZM8,2.5c0-.83,.67-1.5,1.5-1.5h5c.83,0,1.5,.67,1.5,1.5s-.67,1.5-1.5,1.5h-5c-.83,0-1.5-.67-1.5-1.5ZM1.88,19L4.02,7.06c.21-1.19,1.25-2.06,2.46-2.06h11.05c1.21,0,2.25,.87,2.46,2.06l2.13,11.94H1.88Zm10.12,4c-1.65,0-3-1.35-3-3h6c0,1.65-1.35,3-3,3Z"/></svg>
