<?xml version="1.0" encoding="UTF-8"?>
<svg xmlns="http://www.w3.org/2000/svg" id="Layer_1" data-name="Layer 1" viewBox="0 0 24 24">
  <path d="m21.399,10.999H2.601c-.725,0-1.423.329-1.916.903-.544.635-.781,1.483-.65,2.328.806,5.219,4.552,8.162,7.553,9.713l.108.056h8.608l.108-.056c3.001-1.55,6.747-4.493,7.553-9.713.13-.846-.106-1.694-.65-2.328-.492-.574-1.19-.903-1.915-.903Zm1.577,3.079c-.732,4.742-4.14,7.463-6.917,8.921H7.939c-2.776-1.458-6.184-4.179-6.917-8.921-.086-.557.068-1.112.421-1.525.307-.357.717-.554,1.156-.554h18.798c.439,0,.85.196,1.156.554.354.413.507.969.421,1.525ZM11.97,4c-.268-2.247-2.32-4-4.804-4C4.649,0,0,1.855,0,4.5s4.649,4.5,7.167,4.5c2.484,0,4.536-1.753,4.804-4h12.03v-1h-12.03Zm-4.804,4c-2.265,0-6.167-1.729-6.167-3.5S4.902,1,7.167,1c2.114,0,3.833,1.57,3.833,3.5s-1.72,3.5-3.833,3.5Z"/>
</svg>
