<?xml version="1.0" encoding="UTF-8"?>
<svg xmlns="http://www.w3.org/2000/svg" id="Layer_1" data-name="Layer 1" viewBox="0 0 24 24" width="512" height="512"><path d="M21,20.293v-1.793c0-2.481-2.019-4.5-4.5-4.5h-1.793l-2.017-2.017c2.986-.355,5.31-2.903,5.31-5.983C18,2.677,15.297-.026,11.974-.026,8.894-.026,6.346,2.298,5.991,5.284L.704-.003-.003,.704,23.296,24.003l.707-.707-3.003-3.003Zm-4.5-5.293c1.93,0,3.5,1.57,3.5,3.5v.793l-4.293-4.293h.793ZM6.949,6C6.949,3.229,9.203,.974,11.974,.974s5.026,2.254,5.026,5.026-2.254,5.026-5.026,5.026c-.083,0-.165-.002-.247-.006L6.955,6.248c-.004-.082-.006-.165-.006-.248Zm3.516,8l1,1h-3.964c-1.93,0-3.5,1.57-3.5,3.5v5.5h-1v-5.5c0-2.481,2.019-4.5,4.5-4.5h2.964Z"/></svg>
