<?xml version="1.0" encoding="UTF-8"?>
<svg xmlns="http://www.w3.org/2000/svg" id="Layer_1" data-name="Layer 1" viewBox="0 0 24 24">
  <path d="m24,12c0,4.411-3.589,8-8,8s-8-3.589-8-8h1c0,3.859,3.14,7,7,7s7-3.141,7-7c0-1.377-.266-2.691-.73-3.907l.777-.777c.613,1.44.953,3.023.953,4.684Zm-23,0C1,5.935,5.935,1,12,1c1.377,0,2.691.266,3.907.73l.777-.777c-1.44-.613-3.023-.953-4.684-.953C5.383,0,0,5.383,0,12c0,4.981,2.688,9.333,7.376,11.938l.485-.875c-4.361-2.423-6.862-6.455-6.862-11.062Zm11-3.535L19.732.732c.943-.945,2.592-.945,3.535,0,.975.975.975,2.561,0,3.535l-7.732,7.732h-3.536v-3.535Zm1,2.535h2.122l7.439-7.439c.585-.585.585-1.536,0-2.121-.566-.566-1.555-.566-2.121,0l-7.439,7.439v2.121Z"/>
</svg>
