<?xml version="1.0" encoding="UTF-8"?>
<svg xmlns="http://www.w3.org/2000/svg" id="Layer_1" data-name="Layer 1" viewBox="0 0 24 24">
  <path d="m6.027,9h-3.527c-.827,0-1.5.673-1.5,1.5v3.5H0v-3.5c0-1.378,1.122-2.5,2.5-2.5h5c.22,0,.431.033.634.087-.782.137-1.494.457-2.106.913ZM2,3c0-1.654,1.346-3,3-3s3,1.346,3,3-1.346,3-3,3-3-1.346-3-3Zm1,0c0,1.103.897,2,2,2s2-.897,2-2-.897-2-2-2-2,.897-2,2Zm7,0c0-1.654,1.346-3,3-3s3,1.346,3,3-1.346,3-3,3-3-1.346-3-3Zm1,0c0,1.103.897,2,2,2s2-.897,2-2-.897-2-2-2-2,.897-2,2Zm5,6v-1h-5.959c-.164,0-.321.024-.475.057.897.102,1.719.43,2.407.943h4.027Zm-7,1c-1.654,0-3,1.346-3,3s1.346,3,3,3c.044,0,.089-.001.133-.003.063-.353.148-.698.253-1.034-.125.024-.254.038-.385.038-1.103,0-2-.897-2-2s.897-2,2-2c.826,0,1.536.503,1.841,1.218.221-.278.459-.542.713-.791-.529-.856-1.475-1.427-2.553-1.427Zm-2.5,8c-1.378,0-2.5,1.121-2.5,2.5v3.5h1v-3.5c0-.827.673-1.5,1.5-1.5h2.632c-.058-.327-.097-.661-.117-1h-2.515Zm17.5-.5c0,3.584-2.916,6.5-6.5,6.5s-6.5-2.916-6.5-6.5,2.916-6.5,6.5-6.5,6.5,2.916,6.5,6.5Zm-1,0c0-3.032-2.467-5.5-5.5-5.5s-5.5,2.468-5.5,5.5,2.467,5.5,5.5,5.5,5.5-2.468,5.5-5.5Zm-6.02,1.451c-.055.057-.179.056-.241-.006l-1.856-1.8-.696.719,1.851,1.794c.221.221.514.342.825.342s.604-.121.822-.339l3.457-3.399-.701-.713-3.46,3.402Z"/>
</svg>
