<?xml version="1.0" encoding="UTF-8"?>
<svg xmlns="http://www.w3.org/2000/svg" id="Layer_1" data-name="Layer 1" viewBox="0 0 24 24" width="512" height="512"><path d="M22.119,3.595c-.56-.476-1.304-.679-2.035-.562-.403,.065-.772,.236-1.084,.482v-.016c0-1.378-1.121-2.5-2.5-2.5-.635,0-1.215,.238-1.656,.63-.354-.951-1.271-1.63-2.344-1.63-1.379,0-2.5,1.122-2.5,2.5v.016c-.312-.246-.681-.417-1.084-.483-.729-.116-1.476,.085-2.035,.562s-.881,1.17-.881,1.905V15.101l-1.796-1.428c-1.007-.94-2.589-.888-3.529,.119-.94,1.006-.889,2.592,.111,3.53l6.926,6.678h15.288V5.5c0-.734-.321-1.429-.881-1.905Zm-.119,19.405H8.116L1.475,16.598c-.604-.566-.635-1.519-.069-2.123,.563-.603,1.514-.634,2.146-.045l3.449,2.746V4.5c0-.44,.192-.857,.528-1.143,.341-.291,.775-.41,1.228-.336,.709,.115,1.244,.797,1.244,1.586v6.393h1V2.5c0-.827,.673-1.5,1.5-1.5s1.5,.673,1.5,1.5V11h1V3.5c0-.827,.673-1.5,1.5-1.5s1.5,.673,1.5,1.5v7.5h1V5.607c0-.789,.535-1.471,1.244-1.586,.452-.075,.887,.045,1.228,.336,.336,.286,.528,.703,.528,1.143V23Zm-3.802-9.333c-.49-.459-1.134-.695-1.804-.664-.779,.037-1.46,.421-1.895,.999-.435-.578-1.115-.962-1.895-.999-.665-.032-1.313,.204-1.804,.664-.504,.473-.789,1.123-.802,1.83-.046,2.676,4.029,5.722,4.202,5.851l.298,.22,.298-.22c.173-.128,4.248-3.175,4.202-5.851-.013-.708-.298-1.357-.802-1.83Zm-3.698,6.647c-1.208-.962-3.528-3.154-3.5-4.8,.008-.435,.18-.832,.485-1.118,.274-.257,.628-.396,1.002-.396,.023,0,.048,0,.071,.002,.891,.042,1.441,.81,1.441,1.498v.5h1v-.5c0-.688,.551-1.457,1.441-1.498,.419-.012,.782,.121,1.073,.394,.306,.287,.478,.684,.485,1.118,.028,1.646-2.292,3.838-3.5,4.8Z"/></svg>
