<?xml version="1.0" encoding="UTF-8"?>
<svg xmlns="http://www.w3.org/2000/svg" id="Layer_1" data-name="Layer 1" viewBox="0 0 24 24" width="512" height="512"><path d="m21.5,0H2.5C1.121,0,0,1.122,0,2.5v17.5h7.105l3.898,3.284c.285.253.645.379,1.001.379.352,0,.702-.123.978-.368l3.985-3.295h7.032V2.5c0-1.378-1.121-2.5-2.5-2.5Zm1.5,19h-6.392l-4.276,3.536c-.188.168-.474.17-.674-.008l-4.188-3.527H1V2.5c0-.827.673-1.5,1.5-1.5h19c.827,0,1.5.673,1.5,1.5v16.5Zm-7.111-8.481l.707.707-3.202,3.203c-.384.384-.889.576-1.394.576s-1.01-.192-1.394-.576l-3.202-3.203.707-.707,3.202,3.203c.057.057.12.106.187.146V5h1v8.868c.066-.04.129-.088.187-.146l3.202-3.203Z"/></svg>
