<?xml version="1.0" encoding="UTF-8"?>
<svg xmlns="http://www.w3.org/2000/svg" id="Layer_1" data-name="Layer 1" viewBox="0 0 24 24" width="512" height="512"><path d="M0,16c0,2.37,.64,4.42,1.18,5.72,.57,1.38,1.92,2.28,3.43,2.28H24s0-15.76,0-15.76L13.52,.81c-1.67-1.12-3.84-1.08-5.4,.09C2.67,4.98,1.05,10.53,.98,10.77h0C.5,12.07,0,13.91,0,16Zm21.93-8H4.61c-.52,0-1.03,.11-1.48,.31,1.01-1.91,2.77-4.49,5.6-6.6,1.22-.92,2.93-.94,4.24-.07l8.97,6.36ZM1,16c0-2.21,.6-4.12,1.1-5.34,.42-1.01,1.4-1.66,2.5-1.66H23v14H4.61c-1.1,0-2.09-.65-2.5-1.66-.5-1.22-1.1-3.13-1.1-5.34Z"/></svg>
