<?xml version="1.0" encoding="UTF-8"?>
<svg xmlns="http://www.w3.org/2000/svg" id="Layer_1" data-name="Layer 1" viewBox="0 0 24 24">
  <path d="m22.519,10.946c-.919-.92-1.959-1.393-3.179-1.446-1.123-.042-2.319.291-3.544,1.01-1.05.618-1.86.652-2.407.105-.688-.688-.329-1.69.094-2.409.724-1.232,1.066-2.426,1.017-3.547-.053-1.213-.529-2.253-1.455-3.18-1.971-1.972-5.18-1.972-7.15,0l-1.394,1.394C-.095,7.47-1.939,16.731,2.665,21.336c1.748,1.748,4.251,2.666,7.188,2.666.682,0,1.387-.049,2.111-.149,3.488-.482,6.913-2.113,9.162-4.362l1.394-1.394c1.971-1.972,1.971-5.18,0-7.151Zm-.707,6.444l-1.394,1.394c-2.1,2.101-5.312,3.625-8.592,4.078-3.524.487-6.528-.305-8.455-2.232C-.724,16.533.958,7.831,5.208,3.58l1.394-1.394c.766-.766,1.785-1.188,2.868-1.188s2.102.422,2.868,1.188c.751.751,1.121,1.551,1.163,2.516.041.926-.255,1.934-.88,2.997-.85,1.447-.828,2.733.062,3.623s2.171.902,3.621.05c1.055-.62,2.061-.911,2.994-.874.971.042,1.771.409,2.515,1.154,1.582,1.582,1.582,4.155,0,5.737Z"/>
</svg>
