<?xml version="1.0" encoding="UTF-8"?>
<svg xmlns="http://www.w3.org/2000/svg" id="Layer_1" data-name="Layer 1" viewBox="0 0 24 24">
  <path d="m12,17c2.757,0,5-2.243,5-5s-2.243-5-5-5-5,2.243-5,5,2.243,5,5,5Zm0-9c2.206,0,4,1.794,4,4s-1.794,4-4,4-4-1.794-4-4,1.794-4,4-4Zm12,4h0c0,.633-.158,1.25-.456,1.788-.319.577-.75,1.043-1.279,1.384-.616.397-.927,1.123-.772,1.804.143.631.12,1.278-.065,1.924-.232.812-.749,1.51-1.427,1.99v-1.397c.203-.264.375-.55.466-.87.139-.482.156-.962.052-1.426-.248-1.089.236-2.24,1.205-2.866.39-.251.708-.597.946-1.027.217-.391.331-.841.331-1.304,0-.463-.114-.913-.331-1.303-.238-.431-.557-.776-.945-1.026-.97-.627-1.454-1.778-1.206-2.868.104-.463.087-.942-.052-1.424-.249-.871-.973-1.595-1.844-1.845-.481-.137-.961-.155-1.425-.051-1.086.252-2.24-.236-2.866-1.205-.252-.39-.597-.708-1.026-.946-.793-.439-1.816-.439-2.608,0-.43.237-.775.556-1.027.946-.625.969-1.775,1.454-2.867,1.205-.463-.104-.942-.087-1.423.051-.871.25-1.595.974-1.845,1.844-.138.484-.155.964-.051,1.425.248,1.09-.237,2.242-1.206,2.867-.39.251-.708.597-.946,1.027-.217.392-.331.842-.331,1.304s.114.912.331,1.304c.238.431.556.776.946,1.027.969.625,1.454,1.777,1.207,2.866-.105.462-.088.941.05,1.426.092.319.263.606.466.869v1.397c-.678-.48-1.194-1.178-1.427-1.991-.186-.648-.208-1.295-.064-1.923.154-.681-.156-1.406-.773-1.805-.529-.341-.96-.807-1.279-1.383-.298-.539-.456-1.157-.456-1.788s.158-1.249.456-1.788c.319-.576.75-1.042,1.279-1.383.617-.398.928-1.124.773-1.806-.143-.627-.121-1.273.065-1.922.348-1.212,1.317-2.182,2.53-2.529.646-.184,1.292-.208,1.92-.064.683.154,1.407-.156,1.806-.773.342-.53.808-.96,1.382-1.278,1.103-.611,2.474-.611,3.578,0,.575.319,1.041.749,1.382,1.278.398.617,1.125.928,1.805.773.631-.143,1.276-.12,1.922.064,1.214.349,2.183,1.317,2.529,2.529.186.645.208,1.292.065,1.922-.154.682.156,1.407.773,1.806.528.34.959.806,1.278,1.383.298.538.456,1.155.456,1.787,0,0,0,0,0,0h0Zm-6.571,5.502c-.335-.337-.802-.501-1.429-.501-1.47,0-3.217,1.81-4,2.717-.783-.906-2.53-2.717-4-2.717-.626,0-1.094.164-1.429.501-.589.594-.582,1.526-.573,2.606v.785c-.008,1.08-.016,2.013.573,2.606.335.337.802.501,1.429.501,1.47,0,3.217-1.81,4-2.717.783.906,2.53,2.717,4,2.717.627,0,1.094-.164,1.429-.501.589-.594.582-1.526.573-2.605v-.787c.009-1.079.016-2.012-.573-2.605Zm-9.429,5.499c-.346,0-.582-.067-.719-.205-.296-.299-.29-1.074-.283-1.895v-.801c-.006-.82-.013-1.596.283-1.895.137-.138.373-.205.719-.205.935,0,2.45,1.426,3.355,2.5-.905,1.074-2.421,2.5-3.355,2.5Zm9.002-2.099c.007.82.013,1.595-.283,1.893-.137.139-.372.206-.719.206-.935,0-2.45-1.426-3.356-2.5.906-1.074,2.421-2.5,3.356-2.5.347,0,.582.067.719.206.296.298.29,1.072.283,1.893v.803Z"/>
</svg>
