<?xml version="1.0" encoding="UTF-8"?>
<svg xmlns="http://www.w3.org/2000/svg" id="Layer_1" data-name="Layer 1" viewBox="0 0 24 24">
  <path d="m24,10.68C24,4.691,18.729,0,12,0S0,4.691,0,10.68v.2l7.016,7.338c-.01.093-.016.187-.016.282v3c0,1.379,1.121,2.5,2.5,2.5h5c1.379,0,2.5-1.121,2.5-2.5v-3c0-.095-.006-.19-.016-.282l7.016-7.338v-.2Zm-1.143-1.594c-.668-.548-1.636-1.086-2.857-1.086-1.426,0-2.619.674-3.362,1.233-.317-3.885-2.289-6.784-3.451-8.179,4.99.451,8.891,3.724,9.67,8.032Zm-9.207,6.914h-3.301l-2.009-5.484c.52-.415,2.049-1.516,3.659-1.516s3.138,1.101,3.659,1.516l-2.009,5.484Zm-5.286-6.739c.36-4.084,2.739-7.054,3.636-8.041.898.985,3.277,3.948,3.635,8.041-.839-.558-2.184-1.261-3.636-1.261s-2.797.703-3.636,1.261ZM10.813,1.054c-1.161,1.395-3.134,4.295-3.451,8.179-.744-.559-1.936-1.233-3.362-1.233-1.221,0-2.189.538-2.857,1.086C1.922,4.778,5.823,1.505,10.813,1.054ZM1.078,10.561c.382-.471,1.426-1.561,2.922-1.561,1.523,0,2.776,1.004,3.247,1.44l2.04,5.57c-.798.067-1.49.511-1.898,1.152L1.078,10.561Zm14.922,10.939c0,.827-.673,1.5-1.5,1.5h-5c-.827,0-1.5-.673-1.5-1.5v-3c0-.827.673-1.5,1.5-1.5h5c.827,0,1.5.673,1.5,1.5v3Zm-1.288-5.49l2.041-5.571c.469-.435,1.715-1.438,3.247-1.438,1.485,0,2.536,1.091,2.921,1.562l-6.311,6.599c-.408-.641-1.1-1.084-1.898-1.152Z"/>
</svg>
