<?xml version="1.0" encoding="UTF-8"?>
<svg xmlns="http://www.w3.org/2000/svg" id="Layer_1" data-name="Layer 1" viewBox="0 0 24 24" width="512" height="512"><path d="M17,19.883l-6-3.6v-4.086L4,4.697V2.5c0-1.378,1.121-2.5,2.5-2.5h15c1.379,0,2.5,1.122,2.5,2.5v2.197l-7,7.5v7.686Zm-5-4.167l4,2.4v-6.314l7-7.5v-1.803c0-.827-.673-1.5-1.5-1.5H6.5c-.827,0-1.5,.673-1.5,1.5v1.803l7,7.5v3.914Zm0,3.499v2.901l-4-2.4v-3.914L1,8.303v-1.803c0-.651,.419-1.201,1-1.408v-1.042c-1.14,.232-2,1.242-2,2.449v2.197l7,7.5v4.086l6,3.6v-4.068l-1-.6Z"/></svg>
