<?xml version="1.0" encoding="UTF-8"?>
<svg xmlns="http://www.w3.org/2000/svg" id="Layer_1" data-name="Layer 1" viewBox="0 0 24 24">
  <path d="m23.999,20.208l-3.443,3.357c-.289.29-.671.435-1.054.435-.385,0-.77-.146-1.062-.439l-3.455-3.455.707-.707,3.309,3.309V0h1v22.711l3.302-3.219.697.716ZM11.673,7.937c.238.334.365.695.365,1.063v12c0,1.71-2.579,3-6,3S.038,22.71.038,21v-12c0-.34.111-.676.316-.989-.225-.63-.354-1.305-.354-2.011C0,2.691,2.691,0,6,0s6,2.691,6,6c0,.678-.118,1.328-.327,1.937ZM1,6c0,2.746,2.227,4.98,4.969,4.997.015,0,.028.002.043.002,2.751-.007,4.988-2.246,4.988-4.999S8.757,1,6,1,1,3.243,1,6Zm10.038,15v-2.297c-1.057.794-2.864,1.297-5,1.297s-3.943-.503-5-1.297v2.297c0,.944,2.139,2,5,2s5-1.056,5-2Zm0-4v-2.297c-1.057.794-2.864,1.297-5,1.297s-3.943-.503-5-1.297v2.297c0,.944,2.139,2,5,2s5-1.056,5-2Zm0-4v-2.297c-1.057.794-2.864,1.297-5,1.297-.009,0-.017,0-.026,0-.004,0-.008,0-.012,0-.011,0-.022-.002-.033-.002-2.104-.011-3.884-.51-4.929-1.295v2.297c0,.944,2.139,2,5,2s5-1.056,5-2Zm-6.397-6.841l2.561.646c.246.073.417.314.417.586,0,.335-.255.608-.568.608h-1.981c-.313,0-.568-.273-.568-.608v-.392h-1v.392c0,.887.703,1.608,1.568,1.608h.432v1h1v-1h.55c.865,0,1.568-.722,1.568-1.608,0-.712-.466-1.347-1.152-1.551l-2.561-.646c-.246-.073-.418-.314-.418-.586,0-.335.255-.608.568-.608h1.876c.313,0,.568.273.568.608v.392h1v-.392c0-.887-.703-1.608-1.568-1.608h-.432v-1h-1v1h-.444c-.865,0-1.568.722-1.568,1.608,0,.712.466,1.347,1.153,1.551Z"/>
</svg>
