<?xml version="1.0" encoding="UTF-8"?>
<svg xmlns="http://www.w3.org/2000/svg" id="Layer_1" data-name="Layer 1" viewBox="0 0 24 24">
  <path d="m22,23v-1.5c0-1.363-1.096-2.474-2.453-2.499,2.208-2.072,3.453-4.927,3.453-8.001C23,4.935,18.065,0,12,0S1,4.935,1,11c0,3.074,1.245,5.929,3.453,8.001-1.357.025-2.453,1.136-2.453,2.499v1.5H0v1h24v-1h-2ZM2,11C2,5.486,6.486,1,12,1s10,4.486,10,10c0,3.172-1.458,6.087-4.001,7.997l.002.003h-5.501v-2h4.875l-2.25-3h1.625l-2.25-3h1.875l-4.375-5.833-4.375,5.833h1.875l-2.25,3h1.625l-2.25,3h4.875v2h-5.501l.002-.003c-2.543-1.91-4.001-4.825-4.001-7.997Zm7.25,2l2.25-3h-1.875l2.375-3.167,2.375,3.167h-1.875l2.25,3h-1.625l2.25,3h-6.75l2.25-3h-1.625Zm-6.25,8.5c0-.827.673-1.5,1.5-1.5h15c.827,0,1.5.673,1.5,1.5v1.5H3v-1.5ZM14,4c0-.552.448-1,1-1s1,.448,1,1-.448,1-1,1-1-.448-1-1Zm4,8c0-.552.448-1,1-1s1,.448,1,1-.448,1-1,1-1-.448-1-1Zm-13,0c-.552,0-1-.448-1-1s.448-1,1-1,1,.448,1,1-.448,1-1,1Zm1-6c0-.552.448-1,1-1s1,.448,1,1-.448,1-1,1-1-.448-1-1Z"/>
</svg>
