<?xml version="1.0" encoding="UTF-8"?>
<svg xmlns="http://www.w3.org/2000/svg" id="Layer_1" data-name="Layer 1" width="512" height="512" viewBox="0 0 24 24"><path d="M8,13c0-.552,.448-1,1-1s1,.448,1,1-.448,1-1,1-1-.448-1-1Zm7,1c.552,0,1-.448,1-1s-.448-1-1-1-1,.448-1,1,.448,1,1,1Zm-3,4c-2.53,0-4.646-1.854-4.667-1.873l-.666,.746c.097,.087,2.415,2.127,5.333,2.127s5.236-2.04,5.333-2.127l-.666-.746c-.021,.019-2.138,1.873-4.667,1.873Zm12,1c0,2.757-2.243,5-5,5H5c-2.757,0-5-2.243-5-5,0-1.781,.955-3.417,2.474-4.308-.311-.601-.474-1.262-.474-1.942,0-1.564,.845-2.971,2.192-3.713-.126-.334-.192-.686-.192-1.037,0-1.654,1.346-3,3-3h2.101c.896-.755,1.899-2.129,1.899-4.5V0h.5c.942,0,2.056,.586,3.054,1.606,1.015,1.038,1.709,2.315,1.867,3.394h.579c1.654,0,3,1.346,3,3,0,.352-.065,.702-.192,1.037,1.347,.742,2.192,2.147,2.192,3.713,0,.681-.163,1.342-.474,1.942,1.519,.891,2.474,2.526,2.474,4.308Zm-1,0c0-1.575-.935-3.009-2.381-3.651l-.554-.246,.348-.497c.384-.55,.587-1.191,.587-1.855,0-1.333-.803-2.516-2.045-3.013l-.544-.217,.3-.503c.191-.321,.289-.664,.289-1.018,0-1.103-.897-2-2-2h-4v-1h2.409c-.165-.835-.751-1.857-1.57-2.694-.618-.632-1.281-1.067-1.857-1.232-.175,2.678-1.688,4.265-2.53,4.927h-2.451c-1.103,0-2,.897-2,2,0,.354,.097,.696,.289,1.018l.3,.503-.543,.217c-1.243,.498-2.045,1.68-2.045,3.013,0,.664,.203,1.306,.587,1.855l.348,.497-.554,.246c-1.446,.643-2.381,2.076-2.381,3.651,0,2.206,1.794,4,4,4h14c2.206,0,4-1.794,4-4Z"/></svg>
