<?xml version="1.0" encoding="UTF-8"?>
<svg xmlns="http://www.w3.org/2000/svg" id="Layer_1" data-name="Layer 1" width="512" height="512" viewBox="0 0 24 24"><path d="M12,18c2.206,0,4-1.794,4-4,0-2.037-1.529-3.722-3.5-3.969V5h4.5v-1h-4.5V1h4.5V0h-5.5V10.031c-1.971,.247-3.5,1.932-3.5,3.969,0,2.206,1.794,4,4,4Zm0-7c1.654,0,3,1.346,3,3s-1.346,3-3,3-3-1.346-3-3,1.346-3,3-3ZM1.5,18c-.507,0-1.001-.094-1.471-.279l.367-.93c.352,.139,.723,.209,1.104,.209,1.654,0,3-1.346,3-3h1c0,2.206-1.794,4-4,4Zm17-4h1c0,1.654,1.346,3,3,3,.384,0,.757-.071,1.11-.212l.369,.93c-.472,.188-.969,.282-1.479,.282-2.206,0-4-1.794-4-4Zm5.106,8.789l.371,.93c-.47,.187-.966,.281-1.478,.281-1.505,0-2.817-.835-3.5-2.065-.683,1.23-1.995,2.065-3.5,2.065s-2.817-.835-3.5-2.065c-.683,1.23-1.995,2.065-3.5,2.065s-2.817-.835-3.5-2.065c-.683,1.23-1.995,2.065-3.5,2.065-.512,0-1.008-.095-1.478-.281l.371-.93c.351,.14,.723,.211,1.106,.211,1.654,0,3-1.346,3-3h1c0,1.654,1.346,3,3,3s3-1.346,3-3h1c0,1.654,1.346,3,3,3s3-1.346,3-3h1c0,1.654,1.346,3,3,3,.384,0,.756-.071,1.106-.211Z"/></svg>
