<?xml version="1.0" encoding="UTF-8"?>
<svg xmlns="http://www.w3.org/2000/svg" id="Layer_1" data-name="Layer 1" viewBox="0 0 24 24" width="512" height="512"><path d="m12.475,8h2.525v-1h-2.525c-.1-1.004-.499-1.922-1.105-2.663l.591-.591c.303.185.659.292,1.039.292,1.103,0,2-.897,2-2S14.103.038,13,.038s-2,.897-2,2c0,.36.096.699.264.991l-.601.601c-.741-.607-1.659-1.005-2.663-1.105V0h-1v2.525c-1.004.1-1.922.499-2.663,1.105l-.577-.577c.176-.298.278-.645.278-1.015C4.039.936,3.142.038,2.039.038S.039.936.039,2.038s.897,2,2,2c.37,0,.717-.102,1.015-.278l.577.577c-.607.741-1.005,1.659-1.105,2.663H0v1h2.525c.1,1.004.499,1.922,1.105,2.663l-.615.615c-.298-.176-.645-.278-1.015-.278-1.103,0-2,.897-2,2s.897,2,2,2,2-.897,2-2c0-.37-.102-.717-.278-1.015l.615-.615c.741.607,1.659,1.005,2.663,1.105v2.525h1v-2.525c2.359-.235,4.24-2.117,4.475-4.475Zm.525-6.962c.551,0,1,.448,1,1s-.449,1-1,1-1-.448-1-1,.449-1,1-1ZM1.039,2.038c0-.552.449-1,1-1s1,.448,1,1-.449,1-1,1-1-.448-1-1Zm.961,11.962c-.551,0-1-.448-1-1s.449-1,1-1,1,.448,1,1-.449,1-1,1Zm5.5-2.5c-2.206,0-4-1.794-4-4s1.794-4,4-4,4,1.794,4,4-1.794,4-4,4Zm13.659,4.049l.695-.695c.196.094.415.146.646.146.827,0,1.5-.673,1.5-1.5s-.673-1.5-1.5-1.5-1.5.673-1.5,1.5c0,.231.053.451.147.647l-.695.695c-.553-.43-1.222-.719-1.952-.81v-2.031h-1v2.031c-.729.091-1.398.38-1.952.81l-.695-.695c.094-.196.147-.415.147-.647,0-.827-.673-1.5-1.5-1.5s-1.5.673-1.5,1.5.673,1.5,1.5,1.5c.231,0,.45-.053.646-.146l.695.695c-.43.553-.719,1.222-.81,1.951h-2.031v1h2.031c.091.729.38,1.398.81,1.951l-.695.695c-.196-.094-.415-.146-.646-.146-.827,0-1.5.673-1.5,1.5s.673,1.5,1.5,1.5,1.5-.673,1.5-1.5c0-.231-.053-.451-.147-.647l.695-.695c.553.43,1.222.719,1.952.81v2.031h1v-2.031c.729-.091,1.398-.38,1.952-.81l.695.695c-.094.196-.147.415-.147.647,0,.827.673,1.5,1.5,1.5s1.5-.673,1.5-1.5-.673-1.5-1.5-1.5c-.231,0-.45.053-.646.146l-.695-.695c.43-.553.719-1.222.81-1.951h2.031v-1h-2.031c-.091-.729-.38-1.398-.81-1.951Zm-.159,2.451c0,1.654-1.346,3-3,3s-3-1.346-3-3,1.346-3,3-3,3,1.346,3,3Zm1.5-5c.276,0,.5.225.5.5s-.224.5-.5.5-.5-.225-.5-.5.224-.5.5-.5Zm-9,1c-.276,0-.5-.225-.5-.5s.224-.5.5-.5.5.225.5.5-.224.5-.5.5Zm0,9c-.276,0-.5-.225-.5-.5s.224-.5.5-.5.5.225.5.5-.224.5-.5.5Zm9-1c.276,0,.5.225.5.5s-.224.5-.5.5-.5-.225-.5-.5.224-.5.5-.5Z"/></svg>
