<?xml version="1.0" encoding="UTF-8"?>
<svg xmlns="http://www.w3.org/2000/svg" id="Layer_1" data-name="Layer 1" viewBox="0 0 24 24" width="512" height="512"><path d="M9,17h6v1h-6v-1Zm1.111-4.923c-.846,.854-1.74,.984-2.354,.945-.755-.051-1.499-.387-2.041-.923l-.703,.711c.71,.702,1.687,1.144,2.678,1.209,.085,.006,.173,.01,.266,.01,.799,0,1.87-.242,2.866-1.249l-.711-.703Zm6.211,.925c-.602,.036-1.506-.091-2.349-.945l-.711,.703c.995,1.008,2.067,1.249,2.864,1.249,.091,0,.179-.003,.262-.009,.99-.065,1.965-.505,2.675-1.206l-.703-.711c-.541,.534-1.283,.869-2.038,.919Zm7.678-1.002c0,6.617-5.383,12-12,12S0,18.617,0,12,5.383,0,12,0s12,5.383,12,12Zm-1,0c0-6.065-4.935-11-11-11S1,5.935,1,12s4.935,11,11,11,11-4.935,11-11ZM9.167,5.768l-.844-.535c-.83,1.309-2.137,2.392-3.68,3.05l.393,.92c1.752-.747,3.181-1.935,4.131-3.435Zm6.5-.543l-.834,.551c.985,1.49,2.437,2.675,4.197,3.427l.393-.92c-1.58-.674-2.879-1.731-3.756-3.058Z"/></svg>
