<?xml version="1.0" encoding="UTF-8"?>
<svg xmlns="http://www.w3.org/2000/svg" id="Layer_1" data-name="Layer 1" viewBox="0 0 24 24" width="512" height="512"><path d="M22.19,2.82c-1.15-1.19-2.69-1.82-4.46-1.82-2.18,.05-4.19,1.26-5.24,3.15-.02,.03-.24,.4-.48,1.04-.22-.53-.44-.94-.48-1.02-1.06-1.91-3.07-3.12-5.26-3.17-1.77,0-3.31,.63-4.46,1.83C.59,4.09-.07,5.9,0,7.78c0,6.89,11.59,15.24,11.7,15.32l.29,.21,.29-.21c4.05-2.87,11.71-9.75,11.71-15.27,.07-1.92-.59-3.75-1.81-5.02ZM12,22.08s0,0,0,0v-5.1c0-6.82,.39-9.06,.4-9.12,.21-1.97,.93-3.18,.95-3.21,.88-1.6,2.57-2.61,4.38-2.65,1.49,0,2.78,.52,3.73,1.52,1.03,1.07,1.59,2.63,1.53,4.3,0,4.65-6.47,10.98-10.99,14.26Z"/></svg>
