<?xml version="1.0" encoding="UTF-8"?>
<svg xmlns="http://www.w3.org/2000/svg" id="Layer_1" data-name="Layer 1" viewBox="0 0 24 24">
  <path d="m24,9h-2v-3.5c0-1.379-1.121-2.5-2.5-2.5h-7V0h-1v3h-7c-1.378,0-2.5,1.121-2.5,2.5v3.5H0v7h2v5h20v-5h2v-7ZM1,15v-5h1v5h-1Zm20,5H3V5.5c0-.827.673-1.5,1.5-1.5h15c.827,0,1.5.673,1.5,1.5v14.5Zm2-5h-1v-5h1v5ZM8,7c-1.103,0-2,.897-2,2s.897,2,2,2,2-.897,2-2-.897-2-2-2Zm0,3c-.551,0-1-.448-1-1s.449-1,1-1,1,.448,1,1-.449,1-1,1Zm10-1c0-1.103-.897-2-2-2s-2,.897-2,2,.897,2,2,2,2-.897,2-2Zm-3,0c0-.552.448-1,1-1s1,.448,1,1-.448,1-1,1-1-.448-1-1Zm-10,6h3v1h-3v-1Zm5,0h4v1h-4v-1Zm6,0h3v1h-3v-1Z"/>
</svg>
