<?xml version="1.0" encoding="UTF-8"?>
<svg xmlns="http://www.w3.org/2000/svg" id="Layer_1" data-name="Layer 1" viewBox="0 0 24 24">
  <path d="m24,10.5c0-1.378-1.121-2.5-2.5-2.5s-2.5,1.122-2.5,2.5,1.121,2.5,2.5,2.5c.476,0,.916-.141,1.294-.372-.426,2.296-1.537,4.442-3.236,6.224l-2.155-2.155c.37-.409.719-.836,1.017-1.301.234-.364.435-.746.618-1.134-.292-.191-.556-.417-.795-.669-.19.435-.406.86-.665,1.263-.26.405-.562.778-.881,1.135l-5.442-5.442c.341-.516.309-1.206-.145-1.66s-1.144-.486-1.66-.145L4.003,3.296c1.65-1.483,3.749-2.296,5.997-2.296,3.316,0,6.354,1.815,7.928,4.737h0s0,0,0,0c.243.451.431.927.592,1.413.261-.232.548-.429.858-.596-.162-.443-.347-.876-.57-1.292C17.06,2.017,13.685,0,10,0c-2.476,0-4.873.94-6.702,2.591L.754.046.047.753l23.199,23.2.707-.707-3.688-3.688c2.404-2.513,3.735-5.71,3.735-9.059Zm-2.5,1.5c-.827,0-1.5-.673-1.5-1.5s.673-1.5,1.5-1.5,1.5.673,1.5,1.5-.673,1.5-1.5,1.5Zm-4.248,8.788l.719.719c-2.353,1.6-5.147,2.493-7.971,2.493h-.5v-4.025C4.219,19.712,0,15.345,0,10c0-1.807.491-3.548,1.392-5.073l.732.732c-.728,1.318-1.124,2.803-1.124,4.341,0,4.962,4.037,9,9,9,1.538,0,3.022-.396,4.34-1.124l.731.731c-1.384.813-2.945,1.289-4.571,1.369v3.014c2.39-.095,4.738-.874,6.752-2.203Z"/>
</svg>
