<?xml version="1.0" encoding="UTF-8"?>
<svg xmlns="http://www.w3.org/2000/svg" id="Layer_1" data-name="Layer 1" viewBox="0 0 24 24" width="512" height="512"><path d="M12,17c-2.76,0-5-2.24-5-5s2.24-5,5-5,5,2.24,5,5-2.24,5-5,5Zm0-9c-2.21,0-4,1.79-4,4s1.79,4,4,4,4-1.79,4-4-1.79-4-4-4Zm0-5c.55,0,1-.45,1-1s-.45-1-1-1-1,.45-1,1,.45,1,1,1Zm0,20c.55,0,1-.45,1-1s-.45-1-1-1-1,.45-1,1,.45,1,1,1ZM3,12c0-.55-.45-1-1-1s-1,.45-1,1,.45,1,1,1,1-.45,1-1Zm20,0c0-.55-.45-1-1-1s-1,.45-1,1,.45,1,1,1,1-.45,1-1Zm-4-6c.55,0,1-.45,1-1s-.45-1-1-1-1,.45-1,1,.45,1,1,1ZM5,20c.55,0,1-.45,1-1s-.45-1-1-1-1,.45-1,1,.45,1,1,1Zm0-14c.55,0,1-.45,1-1s-.45-1-1-1-1,.45-1,1,.45,1,1,1Zm15,13c0-.55-.45-1-1-1s-1,.45-1,1,.45,1,1,1,1-.45,1-1Z"/></svg>
