<?xml version="1.0" encoding="UTF-8"?>
<svg xmlns="http://www.w3.org/2000/svg" id="Layer_1" data-name="Layer 1" viewBox="0 0 24 24">
  <path d="m23.824,19.357l-4.293,4.207c-.29.291-.672.436-1.056.436s-.769-.146-1.062-.439l-4.25-4.25.707-.707,4.129,4.129V0h1v22.685l4.125-4.042.699.714ZM1,10.5C1,5.262,5.262,1,10.5,1c2.05,0,3.946.66,5.5,1.768v-1.196c-1.602-.991-3.482-1.573-5.5-1.573C4.71,0,0,4.71,0,10.5s4.71,10.5,10.5,10.5h.5v-1h-.5c-5.238,0-9.5-4.262-9.5-9.5Zm13,2c0-1.115-.798-2.057-1.897-2.24l-3.041-.507c-.615-.103-1.062-.629-1.062-1.253,0-.827.673-1.5,1.5-1.5h2c.827,0,1.5.673,1.5,1.5h1c0-1.378-1.122-2.5-2.5-2.5h-.5v-2h-1v2h-.5c-1.378,0-2.5,1.122-2.5,2.5,0,1.115.798,2.057,1.897,2.24l3.041.507c.615.103,1.062.629,1.062,1.253,0,.827-.673,1.5-1.5,1.5h-2c-.827,0-1.5-.673-1.5-1.5h-1c0,1.378,1.122,2.5,2.5,2.5h.5v2h1v-2h.5c1.378,0,2.5-1.122,2.5-2.5Z"/>
</svg>
