<?xml version="1.0" encoding="UTF-8"?>
<svg xmlns="http://www.w3.org/2000/svg" id="Layer_1" data-name="Layer 1" viewBox="0 0 24 24" width="512" height="512"><path d="M12,21c-1.1,0-2-.9-2-2s.9-2,2-2,2,.9,2,2-.9,2-2,2Zm0-3c-.55,0-1,.45-1,1s.45,1,1,1,1-.45,1-1-.45-1-1-1Zm6.36-5.36c-1.7-1.7-3.96-2.64-6.36-2.64s-4.66,.94-6.36,2.64l.71,.71c1.51-1.51,3.52-2.34,5.66-2.34s4.15,.83,5.66,2.34l.71-.71Zm4.95-4.95c-3.02-3.02-7.04-4.69-11.31-4.69S3.71,4.66,.69,7.69l.71,.71c2.83-2.83,6.6-4.39,10.61-4.39s7.77,1.56,10.61,4.39l.71-.71Z"/></svg>
