<?xml version="1.0" encoding="UTF-8"?>
<svg xmlns="http://www.w3.org/2000/svg" id="Layer_1" data-name="Layer 1" viewBox="0 0 24 24">
  <path d="m0,9C0,5.787,2.538,3.156,5.715,3.007c1.011-1.863,2.913-3.007,5.035-3.007,1.467,0,2.84.549,3.912,1.555.639-.364,1.353-.555,2.088-.555,2.117,0,3.886,1.564,4.189,3.628,1.77.428,3.061,2.027,3.061,3.872,0,.833-.257,1.607-.695,2.248-.255-.214-.528-.406-.811-.585.319-.476.506-1.048.506-1.663,0-1.481-1.113-2.752-2.589-2.956l-.409-.057-.022-.411c-.093-1.726-1.512-3.076-3.23-3.076-.669,0-1.316.208-1.871.601l-.358.253-.298-.321c-.916-.988-2.15-1.532-3.474-1.532-1.837,0-3.476,1.041-4.275,2.716l-.136.285h-.317c-2.78,0-5.022,2.242-5.022,4.999,0,2.013,1.205,3.736,2.924,4.526l-.504.865c-2.015-.968-3.419-3.01-3.419-5.391Zm18.5,2c-.542,0-1.094.09-1.647.268-1.113-.819-2.47-1.268-3.853-1.268-1.484,0-2.85.506-3.946,1.347l.506.868c.943-.758,2.138-1.215,3.439-1.215,1.267,0,2.459.421,3.448,1.218l.221.178.267-.099c3.112-1.159,6.064,1.213,6.064,4.203s-2.953,5.361-6.064,4.203l-.267-.099-.221.178c-.434.35-.912.613-1.414.815l.503.863c.461-.197.908-.428,1.315-.727.553.178,1.106.268,1.647.268,3.033,0,5.5-2.468,5.5-5.5s-2.467-5.5-5.5-5.5ZM.129,24h4.496v-1H1.871l5.254-9.008,5.254,9.008h-2.754v1h4.496l-6.996-11.992L.129,24Zm7.496-7h-1v4h1v-4Zm-.5,5c-.552,0-1,.448-1,1s.448,1,1,1,1-.448,1-1-.448-1-1-1Z"/>
</svg>
