<?xml version="1.0" encoding="UTF-8"?>
<svg xmlns="http://www.w3.org/2000/svg" id="Layer_1" data-name="Layer 1" viewBox="0 0 24 24">
  <path d="m12,0C5.383,0,0,5.383,0,12s5.383,12,12,12,12-5.383,12-12S18.617,0,12,0Zm2.743,17h-5.498l-2.905-5.16,2.95-4.84h5.458l3.04,5.005-3.044,4.995Zm1.175-10h5.878c.769,1.501,1.203,3.201,1.203,5,0,1.729-.401,3.365-1.115,4.823l-5.966-9.823Zm5.296-1h-11.315l3.024-4.961c3.469.29,6.485,2.196,8.292,4.961ZM11.775,1.003l-5.997,9.839-2.848-5.059C4.876,2.954,8.108,1.077,11.775,1.003ZM2.332,6.757l5.766,10.243H2.203c-.769-1.501-1.203-3.201-1.203-5,0-1.897.483-3.684,1.332-5.243Zm.453,11.243h11.349l-3.026,4.964c-3.482-.281-6.511-2.19-8.323-4.964Zm9.473,4.997l6.114-10.03,2.953,4.861c-1.904,3.035-5.247,5.08-9.067,5.168Z"/>
</svg>
