<?xml version="1.0" encoding="UTF-8"?>
<svg xmlns="http://www.w3.org/2000/svg" id="Layer_1" data-name="Layer 1" viewBox="0 0 24 24" width="512" height="512"><path d="M12,24C5.383,24,0,18.617,0,12S5.383,0,12,0s12,5.383,12,12-5.383,12-12,12ZM12,1C5.935,1,1,5.935,1,12s4.935,11,11,11,11-4.935,11-11S18.065,1,12,1Zm8,14h-5v-2.747c-.471-.245-1.613-.753-3-.753s-2.529,.504-3,.749v2.751H4v-2.523c0-.997,.397-1.945,1.12-2.667,1.433-1.433,4.004-2.296,6.877-2.31,2.864,0,5.436,.863,6.882,2.31h0c.724,.723,1.121,1.671,1.12,2.668v2.522Zm-4-1h3v-1.522c0-.73-.293-1.427-.827-1.961-1.244-1.244-3.61-2.017-6.173-2.017-2.614,.012-4.922,.766-6.173,2.017-.534,.534-.828,1.23-.827,1.96v1.523h3v-2.319l.231-.147c.066-.042,1.647-1.034,3.769-1.034s3.704,.998,3.77,1.041l.23,.147v2.312Z"/></svg>
