<?xml version="1.0" encoding="UTF-8"?>
<svg xmlns="http://www.w3.org/2000/svg" id="Layer_1" data-name="Layer 1" viewBox="0 0 24 24" width="512" height="512"><path d="m18,9.009c-3.311,0-6.004,3.36-6.004,7.491s2.693,7.491,6.004,7.491,6.004-3.36,6.004-7.491-2.693-7.491-6.004-7.491Zm-5.004,7.491c0-3.411,2.039-6.216,4.619-6.472.107.135,1.872,2.451-.06,6.246-1.626,3.19-.931,5.526-.378,6.629-2.369-.511-4.181-3.187-4.181-6.403Zm5.389,6.472c-.107-.135-1.872-2.451.06-6.246,1.626-3.19.931-5.526.378-6.629,2.369.511,4.181,3.187,4.181,6.403,0,3.411-2.039,6.216-4.619,6.472ZM12.546,1.453C10.204-.889,5.81-.309,2.752,2.752-.306,5.811-.889,10.204,1.454,12.547c.969.969,2.288,1.438,3.719,1.438,2.029,0,4.282-.942,6.075-2.736,3.058-3.059,3.641-7.452,1.298-9.795ZM3.459,3.459c1.603-1.604,3.6-2.453,5.362-2.453,1.031,0,1.982.291,2.726.892-.026.188-.507,3.172-4.711,4.629-3.552,1.231-4.774,3.491-5.182,4.681-1.31-2.057-.6-5.346,1.804-7.749Zm7.082,7.082c-2.541,2.542-6.071,3.191-8.089,1.561.026-.185.505-3.172,4.711-4.629,3.552-1.231,4.774-3.491,5.182-4.681,1.31,2.057.6,5.346-1.804,7.749Z"/></svg>
