<?xml version="1.0" encoding="UTF-8"?>
<svg xmlns="http://www.w3.org/2000/svg" id="Layer_1" data-name="Layer 1" viewBox="0 0 24 24" width="512" height="512"><path d="M6,2c-.552,0-1-.448-1-1s.448-1,1-1,1,.448,1,1-.448,1-1,1Zm4,0c.552,0,1-.448,1-1s-.448-1-1-1-1,.448-1,1,.448,1,1,1Zm4,0c.552,0,1-.448,1-1s-.448-1-1-1-1,.448-1,1,.448,1,1,1ZM2,0c-.552,0-1,.448-1,1s.448,1,1,1,1-.448,1-1-.448-1-1-1ZM22,0c-.552,0-1,.448-1,1s.448,1,1,1,1-.448,1-1-.448-1-1-1Zm-4,0c-.552,0-1,.448-1,1s.448,1,1,1,1-.448,1-1-.448-1-1-1Zm-7.061,4.439l-5.5,5.5,.707,.707,5.354-5.354V24h1V5.293l5.354,5.354,.707-.707-5.5-5.5c-.585-.585-1.536-.585-2.121,0Z"/></svg>
