<?xml version="1.0" encoding="UTF-8"?>
<svg xmlns="http://www.w3.org/2000/svg" id="Layer_1" data-name="Layer 1" viewBox="0 0 24 24" width="512" height="512"><path d="M21.5,0H2.5C1.121,0,0,1.122,0,2.5V24H24V2.5c0-1.378-1.121-2.5-2.5-2.5Zm0,1c.827,0,1.5,.673,1.5,1.5V22.293L14.577,13.87c1.963-.484,3.423-2.259,3.423-4.37,0-2.481-2.019-4.5-4.5-4.5h-4c-1.024,0-1.905,.619-2.291,1.502L1.854,1.147c.196-.094,.415-.147,.646-.147H21.5ZM8.013,7.306c.096-.736,.726-1.306,1.487-1.306h4c1.93,0,3.5,1.57,3.5,3.5,0,1.862-1.462,3.389-3.299,3.494l-5.688-5.688ZM1,2.5c0-.231,.053-.451,.147-.646L22.293,23H1V2.5ZM10.465,14h-2.465v5h-1V10.535l1,1v1.465h1.465l1,1Z"/></svg>
