<?xml version="1.0" encoding="UTF-8"?>
<svg xmlns="http://www.w3.org/2000/svg" id="Layer_1" data-name="Layer 1" viewBox="0 0 24 24">
  <path d="m19.717,9.908c-1.383,0-2.604-.98-2.902-2.332l-.241-1.089C15.729,2.667,12.407,0,8.496,0,3.811,0,0,3.811,0,8.496v15.504h24v-9.81c0-2.361-1.921-4.282-4.283-4.282ZM1,8.496C1,4.362,4.362,1,8.496,1c3.439,0,6.359,2.345,7.102,5.703l.241,1.089c.399,1.805,2.03,3.116,3.879,3.116,1.81,0,3.283,1.472,3.283,3.282v1.81H1v-7.504Zm0,14.504v-6h3v4h1v-4h2v4h1v-4h2v4h1v-4h2v4h1v-4h2v4h1v-4h2v4h1v-4h3v6H1Z"/>
</svg>
