<?xml version="1.0" encoding="UTF-8"?>
<svg xmlns="http://www.w3.org/2000/svg" id="Layer_1" data-name="Layer 1" viewBox="0 0 24 24">
  <path d="m8,14c0-1.103-.897-2-2-2s-2,.897-2,2,.897,2,2,2,2-.897,2-2Zm-3,0c0-.551.449-1,1-1s1,.449,1,1-.449,1-1,1-1-.449-1-1ZM21.5,0H2.5C1.122,0,0,1.122,0,2.5v21.5h24V2.5c0-1.378-1.122-2.5-2.5-2.5Zm1.5,23H1V2.5c0-.827.673-1.5,1.5-1.5h19c.827,0,1.5.673,1.5,1.5v20.5Zm-13-7h3v1h-3v-1Zm0-9h3v1h-3v-1Zm8,6.5c-1.654,0-3,1.346-3,3s1.346,3,3,3,3-1.346,3-3-1.346-3-3-3Zm0,5c-1.103,0-2-.897-2-2s.897-2,2-2,2,.897,2,2-.897,2-2,2Zm-9,.5v1h-1v-1c0-.551-.449-1-1-1h-2c-.551,0-1,.449-1,1v1h-1v-1c0-1.103.897-2,2-2h2c1.103,0,2,.897,2,2Zm-3-12c1.103,0,2-.897,2-2s-.897-2-2-2-2,.897-2,2,.897,2,2,2Zm0-3c.551,0,1,.449,1,1s-.449,1-1,1-1-.449-1-1,.449-1,1-1Zm3,6v1h-1v-1c0-.551-.449-1-1-1h-2c-.551,0-1,.449-1,1v1h-1v-1c0-1.103.897-2,2-2h2c1.103,0,2,.897,2,2Zm9.19-5.251l.617,1.899h1.997l.196.602-1.616,1.174.617,1.899-.512.372-1.616-1.174-1.616,1.174-.512-.372.617-1.899-1.616-1.174.196-.602h1.997l.617-1.899h.633Z"/>
</svg>
