<?xml version="1.0" encoding="UTF-8"?>
<svg xmlns="http://www.w3.org/2000/svg" id="Layer_1" data-name="Layer 1" viewBox="0 0 24 24">
  <path d="m22.968,7.866l-1.968-1.542V2h-1v3.541L13.658.572c-.977-.766-2.34-.766-3.317,0L1.032,7.866c-.646.506-1.032,1.298-1.032,2.12v14.014h24v-14.014c0-.835-.377-1.607-1.032-2.12Zm.032,15.134H1v-13.014c0-.517.242-1.015.649-1.333L10.958,1.359c.613-.479,1.47-.481,2.083,0l9.311,7.294c.406.317.648.815.648,1.333v13.014Zm-8.52-14c-1.08,0-1.976.479-2.5,1.254-.524-.774-1.42-1.254-2.5-1.254-1.654,0-3,1.436-3,3.2,0,3.054,5.002,6.562,5.215,6.711l.285.197.285-.197c.213-.148,5.214-3.657,5.214-6.711,0-1.765-1.346-3.2-3-3.2Zm-2.5,8.885c-1.48-1.09-4.5-3.72-4.5-5.685,0-1.213.897-2.2,2-2.2,1.178,0,2,.804,2,1.954h.021v.071h1v-.303h-.009c.103-1.025.891-1.723,1.988-1.723,1.103,0,2,.987,2,2.2,0,1.965-3.019,4.595-4.5,5.685Z"/>
</svg>
