<?xml version="1.0" encoding="UTF-8"?>
<svg xmlns="http://www.w3.org/2000/svg" id="Layer_1" data-name="Layer 1" viewBox="0 0 24 24">
  <path d="m12,16c-2.206,0-4-1.794-4-4s1.794-4,4-4,4,1.794,4,4-1.794,4-4,4Zm0-7c-1.654,0-3,1.346-3,3s1.346,3,3,3,3-1.346,3-3-1.346-3-3-3Zm0,15c-2.367,0-4.33-1.751-4.653-4.021-.53.205-1.082.308-1.646.308-2.592,0-4.7-2.1-4.7-4.682,0-1.437.673-2.779,1.797-3.659-1.124-.88-1.797-2.222-1.797-3.659,0-2.582,2.108-4.682,4.7-4.682.576,0,1.137.108,1.678.321.385-2.257,2.312-3.926,4.622-3.926,2.332,0,4.272,1.699,4.638,3.92.536-.209,1.092-.314,1.662-.314,2.592,0,4.7,2.1,4.7,4.682,0,1.437-.673,2.779-1.797,3.659,1.124.88,1.797,2.222,1.797,3.659,0,2.582-2.108,4.682-4.7,4.682-.565,0-1.116-.104-1.646-.308-.323,2.27-2.287,4.021-4.653,4.021Zm-3.655-5.69l-.044,1.019c0,2.02,1.659,3.671,3.7,3.671s3.7-1.651,3.7-3.682c-.006-.026-.045-1.008-.045-1.008l.785.459c.588.344,1.214.518,1.859.518,2.041,0,3.7-1.651,3.7-3.682,0-1.336-.745-2.57-1.944-3.22l-.812-.439.812-.439c1.199-.65,1.944-1.883,1.944-3.22,0-2.03-1.66-3.682-3.7-3.682-.64,0-1.262.172-1.85.513l-.938.543.196-1.068c-.008-1.942-1.667-3.594-3.708-3.594s-3.7,1.651-3.7,3.682l.196,1.066-.946-.63c-.587-.34-1.209-.513-1.85-.513-2.041,0-3.7,1.651-3.7,3.682,0,1.336.745,2.57,1.944,3.22l.812.439-.812.439c-1.199.65-1.944,1.883-1.944,3.22,0,2.03,1.66,3.682,3.7,3.682.646,0,1.271-.174,1.859-.518l.785-.459Z"/>
</svg>
