<?xml version="1.0" encoding="UTF-8"?>
<svg xmlns="http://www.w3.org/2000/svg" id="Layer_1" data-name="Layer 1" viewBox="0 0 24 24">
  <path d="m15.957,4.25L12,.293l-3.957,3.957,3.457,3.457v1.831c-1.555.241-2.75,1.589-2.75,3.211s1.195,2.97,2.75,3.211v2.039h-2.5v6h6v-6h-2.5v-2.039c1.555-.241,2.75-1.589,2.75-3.211s-1.195-2.97-2.75-3.211v-1.831l3.457-3.457Zm-1.957,18.75h-4v-4h4v4ZM12,1.707l2.543,2.543-2.543,2.543-2.543-2.543,2.543-2.543Zm2.25,11.043c0,1.24-1.009,2.25-2.25,2.25s-2.25-1.01-2.25-2.25,1.009-2.25,2.25-2.25,2.25,1.009,2.25,2.25Zm-6.586,6.9c.487.486.487,1.278,0,1.765l-2.644,2.644-.707-.707,2.352-2.352H2.5c-1.378,0-2.5-1.121-2.5-2.5v-5c0-1.378,1.122-2.5,2.5-2.5h4.5v1H2.5c-.827,0-1.5.673-1.5,1.5v5c0,.827.673,1.5,1.5,1.5h4.099l-2.286-2.286.707-.707,2.644,2.644ZM24,5.5v5c0,1.378-1.122,2.5-2.5,2.5h-4.165l2.352,2.352-.707.707-2.644-2.644c-.486-.487-.486-1.278,0-1.765l2.644-2.644.707.707-2.286,2.286h4.099c.827,0,1.5-.673,1.5-1.5v-5c0-.827-.673-1.5-1.5-1.5h-4.5v-1h4.5c1.378,0,2.5,1.122,2.5,2.5Z"/>
</svg>
