<?xml version="1.0" encoding="UTF-8"?>
<svg xmlns="http://www.w3.org/2000/svg" id="Layer_1" data-name="Layer 1" viewBox="0 0 24 24">
  <path d="m9,18v-4h1v4h-1Zm1.251,5l-.118,1H2.5c-1.378,0-2.5-1.122-2.5-2.5v-13.5h3v-1.5C3,2.916,5.916,0,9.5,0s6.5,2.916,6.5,6.5v1.5h3v4h-1v-3H1v12.5c0,.827.673,1.5,1.5,1.5h7.751Zm-6.251-15h11v-1.5c0-3.033-2.467-5.5-5.5-5.5s-5.5,2.467-5.5,5.5v1.5Zm17.535,9l-.503,4h2.413l-.118,1h-2.422l-.252,2h-1.005l.252-2h-4.162l-.252,2h-1.005l.252-2h-2.351l.118-1h2.36l.503-4h-2.426l.118-1h2.434l.252-2h1.005l-.252,2h4.162l.252-2h1.005l-.252,2h2.339l-.118,1h-2.347Zm-1.005,0h-4.162l-.503,4h4.162l.503-4Z"/>
</svg>
