<?xml version="1.0" encoding="UTF-8"?>
<svg xmlns="http://www.w3.org/2000/svg" id="Layer_1" data-name="Layer 1" viewBox="0 0 24 24" width="512" height="512"><path d="M7.504,23c.165,.385,.32,.725,.453,1H2.198c-.084-.16-2.198-4.205-2.198-7,0-2.151,1.06-3.74,2.084-5.277,.985-1.478,1.916-2.874,1.916-4.723v-2h-1v-1h1v-1.5c0-1.379,1.122-2.5,2.5-2.5h3c.402,0,.776,.104,1.113,.273-.166,.288-.297,.594-.396,.917-.214-.118-.456-.191-.717-.191h-3c-.827,0-1.5,.673-1.5,1.5v1.5h4v1H5v2c0,2.023-.937,3.547-1.9,5H7.533c-.189,.317-.369,.652-.541,1H2.442c-.789,1.225-1.442,2.454-1.442,4,0,2.15,1.368,5.105,1.808,6H7.504Zm16.496-6c0,2.795-2.114,6.84-2.198,7H10.198c-.084-.16-2.198-4.205-2.198-7,0-2.151,1.06-3.74,2.084-5.277,.985-1.478,1.916-2.874,1.916-4.723v-2h-1v-1h1v-1.5c0-1.379,1.121-2.5,2.5-2.5h3c1.379,0,2.5,1.121,2.5,2.5v1.5h1v1h-1v2c0,1.849,.931,3.245,1.916,4.723,1.024,1.537,2.084,3.126,2.084,5.277ZM13,4h6v-1.5c0-.827-.673-1.5-1.5-1.5h-3c-.827,0-1.5,.673-1.5,1.5v1.5Zm-1.899,8h9.799c-.963-1.452-1.899-2.978-1.899-5v-2h-6v2c0,2.022-.936,3.548-1.899,5Zm11.899,5c0-1.546-.651-2.775-1.44-4H10.44c-.789,1.225-1.44,2.454-1.44,4,0,2.15,1.368,5.105,1.808,6h10.384c.439-.896,1.808-3.853,1.808-6Zm-7-1c-.552,0-1,.448-1,1s.448,1,1,1,1-.448,1-1-.448-1-1-1Zm4,0c-.552,0-1,.448-1,1s.448,1,1,1,1-.448,1-1-.448-1-1-1Zm-2,3c-.552,0-1,.448-1,1s.448,1,1,1,1-.448,1-1-.448-1-1-1Z"/></svg>
