<?xml version="1.0" encoding="UTF-8"?>
<svg xmlns="http://www.w3.org/2000/svg" id="Layer_1" data-name="Layer 1" viewBox="0 0 24 24">
  <path d="m22.56,17.479c-.569-.841-1.06-1.568-1.06-2.479,0-.893.265-1.739.572-2.717.414-1.319.928-2.961.928-5.283h-1c0,.008,0,.016,0,.024-.006.488-.208,3.729-4.5,3.963V0h-.982l-.013-.012c-.257.285-2.505,2.827-2.505,4.512,0,.812,1.241,1.931,2.5,1.997v4.489c-4.391-.253-4.498-3.833-4.5-3.991l-.6.006h-.4v.004h0c0,2.716.537,4.3.967,5.573.298.879.533,1.573.533,2.423,0,.909-.491,1.637-1.06,2.479-.675,1-1.44,2.133-1.44,3.771,0,2.719,3.88,2.75,4.045,2.75h5.909c.165,0,4.045-.031,4.045-2.752,0-1.639-.765-2.771-1.44-3.769Zm-7.56-12.979c0-.779.805-2.022,1.5-2.932v3.927c-.789-.066-1.466-.779-1.5-.995Zm4.955,18.5h-5.909c-.03,0-3.046-.027-3.046-1.75,0-1.332.616-2.245,1.269-3.211.605-.896,1.231-1.824,1.231-3.039,0-1.014-.271-1.815-.585-2.744-.204-.602-.42-1.242-.592-2.023.805.893,2.098,1.649,4.177,1.754v.013h1v-.013c1.925-.095,3.226-.738,4.077-1.581-.143.568-.305,1.085-.459,1.577-.318,1.013-.618,1.97-.618,3.017,0,1.217.626,2.143,1.231,3.039.652.965,1.269,1.876,1.269,3.209,0,1.725-3.016,1.752-3.045,1.752ZM7.5,15v-5.993c.621.018,1.152.069,1.614.141-.035-.319-.063-.653-.083-1.008-.475-.065-.978-.114-1.532-.132v-2.833l1.5-1.875V0h-4v3.323l1.5,1.853v2.83c-3.65.096-5.5,1.27-5.5,3.493,0,.694.31,1.4.583,2.023.205.468.417.951.417,1.271,0,.355-.308.779-.665,1.27-.595.818-1.335,1.837-1.335,3.373,0,2.559,3.075,4.562,7,4.562.644,0,1.262-.059,1.851-.16-.214-.279-.395-.584-.533-.92-.416.052-.855.08-1.318.08-3.756,0-6-1.812-6-3.562,0-1.211.608-2.047,1.144-2.785.44-.605.856-1.177.856-1.858,0-.529-.244-1.085-.501-1.672-.245-.56-.499-1.138-.499-1.622,0-.597,0-2.371,4.5-2.493v5.993h1ZM6,1h2v1.95l-1.002,1.253-.998-1.233v-1.97Zm9,18h4v1h-4v-1Zm0-3h4v1h-4v-1Z"/>
</svg>
