<?xml version="1.0" encoding="UTF-8"?>
<svg xmlns="http://www.w3.org/2000/svg" id="Layer_1" data-name="Layer 1" viewBox="0 0 24 24" width="512" height="512"><path d="M12,0C5.383,0,0,5.383,0,12v12H5V12c0-3.86,3.141-7,7-7s7,3.14,7,7v12h5V12C24,5.383,18.617,0,12,0Zm11,15h-3v-3h3v3Zm-3,1h3v3h-3v-3Zm-.069-5c-.115-.912-.384-1.776-.78-2.566l2.531-1.65c.69,1.275,1.131,2.703,1.268,4.216h-3.019ZM11.5,4.025c-1.115,.069-2.167,.365-3.112,.846l-1.446-2.629c1.376-.716,2.921-1.143,4.559-1.217v3Zm1-3c1.638,.074,3.183,.501,4.559,1.217l-1.446,2.629c-.946-.481-1.998-.777-3.113-.847V1.025ZM4,15H1v-3h3v3Zm0,1v3H1v-3h3ZM1.051,11c.137-1.514,.578-2.941,1.268-4.216l2.531,1.65c-.396,.791-.665,1.654-.78,2.566H1.051Zm-.051,12v-3h3v3H1ZM5.348,7.564l-2.511-1.637c.847-1.273,1.953-2.355,3.24-3.181l1.445,2.629c-.859,.582-1.598,1.327-2.175,2.19Zm11.131-2.19l1.445-2.629c1.287,.827,2.394,1.908,3.24,3.181l-2.511,1.637c-.577-.862-1.316-1.607-2.174-2.19Zm3.522,17.625v-3h3v3h-3ZM12,7c-2.757,0-5,2.243-5,5v12h10V12c0-2.757-2.243-5-5-5Zm1,1.142v14.858h-2V8.142c.322-.084,.653-.142,1-.142s.678,.058,1,.142Zm-5,3.858c0-1.474,.81-2.75,2-3.444v14.444h-2V12Zm8,11h-2V8.556c1.19,.694,2,1.97,2,3.444v11Z"/></svg>
