<?xml version="1.0" encoding="UTF-8"?>
<svg xmlns="http://www.w3.org/2000/svg" id="Layer_1" data-name="Layer 1" viewBox="0 0 24 24" width="512" height="512"><path d="M23.118,10h-.618c-.658,0-1.273,.059-1.847,.164-1.025-1.668-3.125-4.217-6.642-4.953,.604-.549,.99-1.333,.99-2.211,0-1.654-1.346-3-3-3s-3,1.346-3,3c0,.879,.386,1.662,.99,2.212-3.556,.751-5.664,3.367-6.642,4.953-.575-.105-1.19-.164-1.849-.164H.882l2.782,13h-1.664v1H22v-1h-1.664l2.782-13ZM10,3c0-1.103,.897-2,2-2s2,.897,2,2-.897,2-2,2-2-.897-2-2Zm2,3c4.055,0,6.461,2.625,7.631,4.417-1.459,.468-2.542,1.312-3.129,2.447-.804-1.687-2.512-2.864-4.502-2.864s-3.698,1.177-4.502,2.864c-.586-1.134-1.669-1.978-3.126-2.446,1.131-1.724,3.549-4.418,7.629-4.418ZM2.123,11.02c2.461,.155,4.877,1.261,4.877,3.98h1c0-2.206,1.794-4,4-4s4,1.794,4,4h1c0-2.72,2.416-3.825,4.878-3.98l-2.565,11.98H4.686L2.123,11.02Z"/></svg>
