<?xml version="1.0" encoding="UTF-8"?>
<svg xmlns="http://www.w3.org/2000/svg" id="Layer_1" data-name="Layer 1" viewBox="0 0 24 24">
  <path d="m21.5,2h-3.5V0h-1v2H7V0h-1v2h-3.5c-1.378,0-2.5,1.122-2.5,2.5v19.5h24V4.5c0-1.378-1.122-2.5-2.5-2.5ZM2.5,3h19c.827,0,1.5.673,1.5,1.5v3.5H1v-3.5c0-.827.673-1.5,1.5-1.5Zm-1.5,20v-14h22v14H1Zm13.25-11c-.951,0-1.761.435-2.25,1.128-.489-.693-1.299-1.128-2.25-1.128-1.517,0-2.75,1.314-2.75,2.93,0,2.786,4.536,5.741,4.729,5.865l.271.174.271-.174c.193-.125,4.729-3.08,4.729-5.865,0-1.616-1.233-2.93-2.75-2.93Zm-2.25,7.774c-1.327-.914-4-3.111-4-4.844,0-1.064.785-1.93,1.75-1.93,1.014,0,1.75.736,1.75,1.75v.25h1v-.25c0-1.014.736-1.75,1.75-1.75.965,0,1.75.866,1.75,1.93,0,1.733-2.673,3.93-4,4.844Z"/>
</svg>
