<?xml version="1.0" encoding="UTF-8"?>
<svg xmlns="http://www.w3.org/2000/svg" id="Layer_1" data-name="Layer 1" width="512" height="512" viewBox="0 0 24 24"><path d="M11.762,24h-3.493l3.5-9H5c-.659,0-1.262-.304-1.655-.833-.393-.529-.509-1.195-.318-1.826L8.39,0h8.875l-3.5,8h5.201c.761,0,1.43,.4,1.79,1.071s.324,1.45-.097,2.084l-8.897,12.845Zm-2.031-1h1.507l8.593-12.406c.208-.314,.227-.71,.043-1.05-.183-.341-.522-.544-.909-.544h-6.73L15.735,1h-6.69L3.964,12.686c-.078,.271-.019,.613,.184,.886,.203,.272,.513,.429,.853,.429H13.231l-3.5,9Z"/></svg>
