<?xml version="1.0" encoding="UTF-8"?>
<svg xmlns="http://www.w3.org/2000/svg" id="Layer_1" data-name="Layer 1" width="512" height="512" viewBox="0 0 24 24"><path d="M22,8V3.79c0-1.04-.626-1.956-1.595-2.332-1.711-.665-4.559-1.458-8.405-1.458S5.306,.793,3.594,1.458c-.968,.376-1.594,1.292-1.594,2.332v4.21H0v4c0,1.103,.897,2,2,2v7h2v3h4v-3h8v3h4v-3h2v-7c1.103,0,2-.897,2-2v-4h-2ZM3,13V6H21v7H3ZM15,5h-6v-1h6v1ZM3.957,2.39c1.336-.519,4.157-1.39,8.043-1.39s6.708,.871,8.044,1.39c.581,.226,.956,.775,.956,1.4v1.21h-5V3H8v2H3v-1.21c0-.625,.375-1.174,.957-1.4ZM1,12v-3h1v4c-.551,0-1-.449-1-1Zm6,11h-2v-2h2v2Zm12,0h-2v-2h2v2Zm2-3H3v-6h3v1.5c0,.276,.224,.5,.5,.5s.5-.224,.5-.5v-1.5h10v1.5c0,.276,.224,.5,.5,.5s.5-.224,.5-.5v-1.5h3v6Zm2-8c0,.551-.448,1-1,1v-4h1v3Z"/></svg>
