<?xml version="1.0" encoding="UTF-8"?>
<svg xmlns="http://www.w3.org/2000/svg" id="Layer_1" data-name="Layer 1" viewBox="0 0 24 24">
  <path d="m24,4.509l-2.03-.87c-.101-1.542-.762-2.689-1.889-3.254-1.793-.899-3.981-.169-4.872,1.607l-1.784,3.284C9.839,3.942,6.948,1.17,6.917,1.141l-.737-.713-.108,1.02c-.007.065-.14,1.366.043,3.307-1.872-1.406-3.016-2.87-3.038-2.898l-.69-.896-.199,1.113c-.016.086-1.497,8.927,5.981,14.927H0v.5c0,2.576,1.231,5.5,4.818,6.532l6.572-3.13c.594.294,2.225,1.007,4.098,1.007,3.591,0,6.512-2.921,6.512-6.511,0-1.712-.008-6.163-.012-8.955l2.012-.862v-1.071ZM7.022,2.571c1.122.943,3.315,2.597,5.922,3.593l-.619,1.14c-1.925-.132-3.672-.887-5.116-1.795-.162-1.208-.194-2.233-.187-2.937Zm8.466,18.338c-2.039,0-4.051-1.119-4.069-1.129l-6.687,3.186c-2.656-.842-3.559-3.311-3.708-4.966h9.806l-2.149-1.883C3.359,11.662,2.974,5.806,3.074,3.378c1.505,1.611,5.03,4.79,9.523,4.94l.309.011,3.19-5.873c.651-1.299,2.239-1.827,3.538-1.176,1.175.588,1.351,1.994,1.351,2.779,0,0,.016,9.493.016,11.338,0,3.039-2.473,5.511-5.512,5.511Z"/>
</svg>
