<?xml version="1.0" encoding="UTF-8"?>
<svg xmlns="http://www.w3.org/2000/svg" id="Layer_1" data-name="Layer 1" viewBox="0 0 24 24">
  <path d="m18.5,0H5.5c-1.378,0-2.5,1.122-2.5,2.5v21.5h18V2.5c0-1.378-1.121-2.5-2.5-2.5Zm1.5,23H4V2.5c0-.827.673-1.5,1.5-1.5h13c.827,0,1.5.673,1.5,1.5v20.5Zm-6.25-14c-.722,0-1.344.302-1.75.792-.406-.49-1.028-.792-1.75-.792-1.241,0-2.25,1.072-2.25,2.39,0,2.178,3.334,4.556,3.715,4.82l.285.198.285-.198c.38-.264,3.715-2.643,3.715-4.82,0-1.318-1.01-2.39-2.25-2.39Zm-1.75,6.183c-1.044-.782-3-2.513-3-3.792,0-.767.561-1.39,1.25-1.39.736,0,1.25.501,1.25,1.218h.015v.05h1v-.212h-.006c.072-.629.561-1.056,1.241-1.056.689,0,1.25.624,1.25,1.39,0,1.277-1.957,3.009-3,3.792Z"/>
</svg>
