<?xml version="1.0" encoding="UTF-8"?>
<svg xmlns="http://www.w3.org/2000/svg" id="Layer_1" data-name="Layer 1" viewBox="0 0 24 24">
  <path d="m24,8h-2v-2.5c0-2.481-2.019-4.5-4.5-4.5H6.5c-2.481,0-4.5,2.019-4.5,4.5v2.5H0v13h2v2h1v-2h18v2h1v-2h2v-13ZM6.5,2h11c1.93,0,3.5,1.57,3.5,3.5v2.5c-1.103,0-2,.897-2,2v5h-4c-1.271,0-2.387.682-3,1.699-.613-1.017-1.729-1.699-3-1.699h-4v-4.5c0-1.207-.86-2.217-2-2.45v-2.55c0-1.93,1.57-3.5,3.5-3.5ZM1,20v-11h1.5c.827,0,1.5.673,1.5,1.5v5.5h5c1.379,0,2.5,1.122,2.5,2.5v1.5H1Zm22,0h-10.5v-1.5c0-1.378,1.121-2.5,2.5-2.5h5v-6c0-.551.448-1,1-1h2v11Z"/>
</svg>
