<?xml version="1.0" encoding="UTF-8"?>
<svg xmlns="http://www.w3.org/2000/svg" id="Layer_1" data-name="Layer 1" viewBox="0 0 24 24">
  <path d="m13.5,11h-3c-1.379,0-2.5,1.122-2.5,2.5v6h2v4.5h1v-4.5h2v4.5h1v-4.5h2v-6c0-1.378-1.121-2.5-2.5-2.5Zm1.5,7.5h-6v-5c0-.827.673-1.5,1.5-1.5h3c.827,0,1.5.673,1.5,1.5v5Zm-.5-11c0-1.378-1.121-2.5-2.5-2.5s-2.5,1.122-2.5,2.5,1.121,2.5,2.5,2.5,2.5-1.122,2.5-2.5Zm-4,0c0-.827.673-1.5,1.5-1.5s1.5.673,1.5,1.5-.673,1.5-1.5,1.5-1.5-.673-1.5-1.5Zm13.5,2.454v14.046h-1v-14.046c0-.493-.223-.95-.61-1.253L12.98,1.338c-.576-.451-1.384-.452-1.962,0L1.611,8.701c-.389.304-.611.761-.611,1.253v14.046H0v-14.046c0-.802.362-1.546.995-2.041L10.402.551c.941-.735,2.255-.735,3.194,0l9.409,7.363c.632.494.994,1.238.994,2.041Z"/>
</svg>
