<?xml version="1.0" encoding="UTF-8"?>
<svg xmlns="http://www.w3.org/2000/svg" id="Layer_1" data-name="Layer 1" viewBox="0 0 24 24">
  <path d="m21,0H6c-1.654,0-3,1.346-3,3v6h1V3c0-1.103.897-2,2-2s2,.897,2,2v2h12v16.5c0,.827-.673,1.5-1.5,1.5h-5.008c-.171.357-.381.693-.625,1h5.634c1.378,0,2.5-1.122,2.5-2.5V5h3v-2c0-1.654-1.346-3-3-3Zm2,4h-14v-1c0-.768-.29-1.469-.766-2h12.766c1.103,0,2,.897,2,2v1ZM7.323,14.216c.775-.614,1.677-1.574,1.677-2.716v-.5H3v.5c0,1.142.902,2.102,1.677,2.716-2.485.799-4.677,3.691-4.677,6.537,0,1.785,1.458,3.237,3.25,3.237h5.5c1.792,0,3.25-1.452,3.25-3.237,0-2.846-2.192-5.737-4.677-6.537Zm-3.224-2.216h3.802c-.314.818-1.303,1.562-1.901,1.924-.598-.362-1.587-1.106-1.901-1.924Zm4.651,10.99H3.25c-1.241,0-2.25-1.003-2.25-2.237,0-2.75,2.519-5.75,5-5.75,2.566.07,5,3,5,5.75,0,1.234-1.009,2.237-2.25,2.237Z"/>
</svg>
