<?xml version="1.0" encoding="UTF-8"?>
<svg xmlns="http://www.w3.org/2000/svg" id="Layer_1" data-name="Layer 1" viewBox="0 0 24 24" width="512" height="512"><path d="M24,23H14V15H6.5c-.73,0-1.43-.32-1.91-.88-.48-.56-.68-1.3-.56-2.04,.19-1.19,1.3-2.08,2.57-2.08h3.39c.56,0,1.1-.24,1.48-.66,.38-.42,.56-.97,.51-1.55-.1-1-1.04-1.79-2.13-1.79H2.5c-.73,0-1.43-.32-1.91-.88C.12,4.56-.09,3.82,.03,3.08,.23,1.9,1.33,1,2.61,1H12.68c3.18,0,6.14,1.58,7.9,4.23l1.82,2.73c1.04,1.57,1.6,3.39,1.6,5.27v9.77Zm-9-1h8V13.23c0-1.68-.49-3.31-1.43-4.71l-1.82-2.73c-1.58-2.37-4.22-3.79-7.07-3.79H2.61c-.79,0-1.47,.54-1.59,1.24-.07,.45,.05,.89,.34,1.23,.29,.34,.7,.53,1.14,.53h7.36c1.6,0,2.98,1.18,3.13,2.69,.08,.85-.19,1.69-.76,2.32-.57,.63-1.38,.99-2.22,.99h-3.39c-.79,0-1.47,.54-1.59,1.24-.07,.45,.05,.89,.34,1.23,.29,.34,.7,.53,1.14,.53H15v8Z"/></svg>
