<?xml version="1.0" encoding="UTF-8"?>
<svg xmlns="http://www.w3.org/2000/svg" id="Layer_1" data-name="Layer 1" viewBox="0 0 24 24">
  <path d="m10,12c0,.552-.448,1-1,1s-1-.448-1-1,.448-1,1-1,1,.448,1,1Zm5-1c-.552,0-1,.448-1,1s.448,1,1,1,1-.448,1-1-.448-1-1-1Zm9,0c0,1.654-1.346,3-3,3h-.6c-.43,1.032-1.133,2.077-2.024,3h.124c1.379,0,2.5,1.121,2.5,2.5v4.5h-1v-4.5c0-.827-.673-1.5-1.5-1.5h-1.228c-1.507,1.19-3.353,2.001-5.27,2.001h-.002c-1.918,0-3.764-.811-5.272-2.001h-1.228c-.827,0-1.5.673-1.5,1.5v4.5h-1v-4.5c0-1.379,1.121-2.5,2.5-2.5h.124c-.892-.923-1.595-1.968-2.024-3h-.6c-1.654,0-3-1.346-3-3,0-1.524,1.144-2.787,2.617-2.976C3.333,3.421,7.293,0,12,0s8.674,3.426,9.385,8.035c1.495.204,2.615,1.456,2.615,2.965Zm-1,0c0-1.103-.897-2-2-2h-.448l-.106-.439c-.474-4.311-4.104-7.561-8.445-7.561-1.654,0-3,1.346-3,3s1.346,3,3,3,3-1.346,3-3h1c0,2.206-1.794,4-4,4s-4-1.794-4-4c0-.887.29-1.706.78-2.37-2.806,1.146-4.875,3.749-5.225,6.931l-.049.445-.553-.009c-1.056.003-1.953.9-1.953,2.003s.897,2,2,2h1.293l.119.33c.982,2.728,4.162,5.671,7.588,5.671h.002c3.425,0,6.604-2.943,7.586-5.671l.119-.33h1.293c1.103,0,2-.897,2-2Z"/>
</svg>
