<?xml version="1.0" encoding="UTF-8"?>
<svg xmlns="http://www.w3.org/2000/svg" id="Layer_1" data-name="Layer 1" viewBox="0 0 24 24" width="512" height="512"><path d="M12,0C5.935,0,1,4.653,1,10.374c0,5.36,4.724,13.626,11,13.626s11-8.266,11-13.626C23,4.653,18.065,0,12,0Zm0,23c-5.706,0-10-7.66-10-12.626C2,5.205,6.486,1,12,1s10,4.205,10,9.374c0,4.967-4.294,12.626-10,12.626Zm5-15c-1.654,0-3,1.122-3,2.5s1.346,2.5,3,2.5,3-1.122,3-2.5-1.346-2.5-3-2.5Zm0,4c-1.103,0-2-.673-2-1.5s.897-1.5,2-1.5,2,.673,2,1.5-.897,1.5-2,1.5Zm-7-1.5c0-1.378-1.346-2.5-3-2.5s-3,1.122-3,2.5,1.346,2.5,3,2.5,3-1.122,3-2.5Zm-3,1.5c-1.103,0-2-.673-2-1.5s.897-1.5,2-1.5,2,.673,2,1.5-.897,1.5-2,1.5Zm4,4c0,.552-.448,1-1,1s-1-.448-1-1,.448-1,1-1,1,.448,1,1Zm4,0c0,.552-.448,1-1,1s-1-.448-1-1,.448-1,1-1,1,.448,1,1ZM9,4c0-.552,.448-1,1-1s1,.448,1,1-.448,1-1,1-1-.448-1-1Zm4,3c0,.552-.448,1-1,1s-1-.448-1-1,.448-1,1-1,1,.448,1,1Zm0-3c0-.552,.448-1,1-1s1,.448,1,1-.448,1-1,1-1-.448-1-1Zm-2,15c0,.552-.448,1-1,1s-1-.448-1-1,.448-1,1-1,1,.448,1,1Zm4,0c0,.552-.448,1-1,1s-1-.448-1-1,.448-1,1-1,1,.448,1,1Z"/></svg>
