<?xml version="1.0" encoding="UTF-8"?>
<svg xmlns="http://www.w3.org/2000/svg" id="Layer_1" data-name="Layer 1" viewBox="0 0 24 24">
  <path d="m18.447,8.566l-3.298-3.299.707-.707,3.144,3.145V0h1v7.704l3.144-3.144.707.707-3.298,3.299c-.29.29-.671.435-1.053.435s-.762-.145-1.053-.435Zm-13.947.434c.381,0,.763-.146,1.053-.436l3.298-3.299-.707-.707-3.144,3.145V0h-1v7.703L.856,4.558l-.707.707,3.298,3.299c.29.291.671.436,1.053.436Zm17.185,11.807c.404.662.418,1.442.048,2.102-.384.684-1.089,1.092-1.887,1.092H4.155c-.798,0-1.503-.408-1.887-1.092-.371-.659-.356-1.439.038-2.086L12,6.144l9.685,14.663Zm-6.651,2.193l-3.034-4.593-3.034,4.593h6.067Zm5.807-1.658L12,7.958,3.155,21.35c-.203.337-.208.727-.016,1.069.205.363.584.581,1.015.581h3.613l4.232-6.407,4.232,6.407h3.613c.431,0,.811-.218,1.015-.581.194-.346.187-.738-.02-1.077Z"/>
</svg>
