<?xml version="1.0" encoding="UTF-8"?>
<svg xmlns="http://www.w3.org/2000/svg" id="Layer_1" data-name="Layer 1" viewBox="0 0 24 24" width="512" height="512"><path d="M23,17v2.496c0,.826-.681,1.499-1.518,1.499-.398,0-.771-.155-1.05-.438-.279-.282-.433-.66-.432-1.063V7.501c.001-1.469-.569-2.85-1.606-3.888-1.039-1.04-2.422-1.613-3.894-1.613H5.496C2.463,2-.004,4.468-.004,7.5l-.005,14.5H4.989l.01-3h6.01l-.01,3h5.001v-3h3v.494c0,.667,.255,1.295,.72,1.766,.468,.475,1.094,.735,1.762,.735,1.389,0,2.518-1.121,2.518-2.499v-2.496h-1ZM5.496,3H14.5c1.205,0,2.336,.469,3.186,1.319,.849,.85,1.315,1.979,1.314,3.181v5.5H.993l.002-5.5C.996,5.019,3.014,3,5.496,3Zm9.504,15v3h-2.999l.01-3H4.001l-.01,3H.99l.003-7H19v4h-4Zm-6-10c0-.552,.448-1,1-1s1,.448,1,1-.448,1-1,1-1-.448-1-1Zm-4,0c0-.552,.448-1,1-1s1,.448,1,1-.448,1-1,1-1-.448-1-1Zm8,0c0-.552,.448-1,1-1s1,.448,1,1-.448,1-1,1-1-.448-1-1Z"/></svg>
