<?xml version="1.0" encoding="UTF-8"?>
<svg xmlns="http://www.w3.org/2000/svg" id="Layer_1" data-name="Layer 1" viewBox="0 0 24 24" width="512" height="512"><path d="M22.386,10.013c-1.274,.3-2.406,.778-3.411,1.377-.333-6.487-3.892-11.39-6.975-11.39S5.358,4.903,5.025,11.39c-1.005-.599-2.137-1.077-3.411-1.377l-.614-.145v.631c0,10.385,6.805,13.345,10.679,13.5l.643-.006c3.874-.155,10.679-3.109,10.679-13.494v-.631l-.614,.145ZM2.01,11.153c7.151,2.133,9.242,10.755,9.476,11.829-3.469-.242-9.208-2.935-9.476-11.829Zm9.99,9.892c-.581-1.831-1.742-4.663-3.855-7.044h2.855v-1h-3.832c-.364-.338-.752-.66-1.164-.962,.014-.694,.069-1.375,.161-2.038h1.835v-1h-1.667c.212-1.072,.517-2.082,.888-3h3.78v-1h-3.333c1.198-2.428,2.855-4,4.333-4s3.135,1.572,4.333,4h-3.333v1h3.78c.371,.918,.675,1.928,.888,3h-1.667v1h1.835c.092,.663,.147,1.344,.161,2.038-.412,.302-.8,.624-1.164,.962h-3.832v1h2.855c-2.113,2.381-3.275,5.214-3.855,7.044Zm.515,1.938c.233-1.074,2.324-9.696,9.476-11.829-.268,8.894-6.007,11.587-9.476,11.829Zm1.485-12.982h-4v-1h4v1Z"/></svg>
