<?xml version="1.0" encoding="UTF-8"?>
<svg xmlns="http://www.w3.org/2000/svg" id="Layer_1" data-name="Layer 1" viewBox="0 0 24 24" width="512" height="512"><path d="M12,20c1.103,0,2-.897,2-2s-.897-2-2-2-2,.897-2,2,.897,2,2,2Zm0-3c.552,0,1,.449,1,1s-.448,1-1,1-1-.449-1-1,.448-1,1-1ZM24,1.25l-3.667,2.75h3.667v1h-5v-1.25l3.667-2.75h-3.667V0h5V1.25ZM10.784,11.765c-.878,.887-1.896,1.257-2.874,1.257-1.116,0-2.183-.481-2.937-1.227l.703-.711c1.07,1.061,2.977,1.413,4.396-.022l.711,.703Zm12.11-4.765c.703,1.524,1.105,3.214,1.105,5,0,6.617-5.383,12-12,12S0,18.617,0,12,5.383,0,12,0c1.786,0,3.476,.403,5,1.105v1.109c-1.502-.771-3.199-1.214-5-1.214C5.935,1,1,5.935,1,12s4.935,11,11,11,11-4.935,11-11c0-1.801-.444-3.498-1.214-5h1.109Zm-10.895,.75l3.667-2.75h-3.667v-1h5v1.25l-3.667,2.75h3.667v1h-5v-1.25Zm4.134,5.267c-.979,0-1.995-.37-2.871-1.257l.711-.703c1.416,1.434,3.317,1.082,4.387,.026l.703,.712c-.753,.743-1.817,1.222-2.93,1.222Z"/></svg>
