<?xml version="1.0" encoding="UTF-8"?>
<svg xmlns="http://www.w3.org/2000/svg" id="Layer_1" data-name="Layer 1" viewBox="0 0 24 24" width="512" height="512"><path d="M23.63,10.377l-2.005-3.329-9.625,3.213L2.359,7.049,.374,10.344c-.411,.685-.487,1.507-.21,2.256,.276,.749,.87,1.323,1.628,1.576l.204,.068-.007,6.452,9.996,3.332,9.995-3.332,.008-6.451,.243-.081c.748-.249,1.334-.816,1.607-1.557,.274-.739,.198-1.552-.208-2.229ZM1.102,12.252c-.171-.463-.124-.971,.13-1.394l1.571-2.608,8.435,2.811-1.948,3.247c-.387,.645-1.156,.931-1.867,.69l-5.313-1.771c-.469-.156-.836-.511-1.007-.975Zm10.383,10.554l-8.496-2.832,.007-5.398,4.11,1.37c.274,.091,.554,.135,.829,.135,.889,0,1.731-.459,2.212-1.261l1.345-2.24-.006,10.225Zm9.495-2.832l-8.495,2.831,.006-10.228,1.346,2.244c.631,1.049,1.882,1.509,3.042,1.125l4.108-1.37-.008,5.397Zm1.921-7.715c-.168,.454-.527,.802-.986,.954l-5.352,1.784c-.711,.241-1.48-.047-1.868-.69l-1.945-3.242,8.433-2.814,1.591,2.641c.249,.416,.296,.914,.128,1.368ZM5.905,6.122l-1.061-.353L10.525,.088l2.84,2.84,1.135-1.135,4.142,4.142-1.06,.354-3.082-3.082-4.335,4.335-1.061-.353,3.553-3.553-2.133-2.133L5.905,6.122Z"/></svg>
