<?xml version="1.0" encoding="UTF-8"?>
<svg xmlns="http://www.w3.org/2000/svg" id="Layer_1" data-name="Layer 1" viewBox="0 0 24 24">
  <path d="m8.5,14.5v-4.551c-1.416-.24-2.5-1.466-2.5-2.949h1c0,1.103.897,2,2,2s2-.897,2-2h1c0,1.483-1.084,2.71-2.5,2.949v2.551l-1,2Zm-2.5,8.5v-2.622c0-.464-.052-.924-.14-1.378h2.371c-.074-.327-.134-.66-.172-1h-2.464c-.407-1.185-1.107-2.281-2.058-3.169-1.929-1.801-2.824-4.347-2.456-6.984.492-3.528,3.423-6.385,6.97-6.792,2.321-.265,4.547.434,6.272,1.972,1.451,1.294,2.368,3.069,2.609,4.977.023,0,.046-.003.069-.003.321,0,.637.018.949.051-.235-2.211-1.285-4.275-2.962-5.771C13.075.575,10.504-.233,7.936.062,3.944.52.645,3.735.09,7.708c-.414,2.964.594,5.827,2.764,7.853,1.364,1.273,2.146,3.029,2.146,4.816v3.622h6.349c-.376-.304-.721-.641-1.044-1h-4.305Zm5.711-1.175l1.936-1.131c.537.489,1.167.852,1.853,1.068v2.238h3v-2.238c.687-.217,1.316-.58,1.853-1.068l1.936,1.131,1.513-2.591-1.941-1.134c.094-.385.14-.747.14-1.1s-.046-.716-.14-1.101l1.941-1.133-1.513-2.591-1.936,1.13c-.537-.488-1.167-.851-1.853-1.068v-2.238h-3v2.238c-.687.217-1.316.58-1.853,1.068l-1.936-1.13-1.513,2.591,1.941,1.133c-.094.385-.14.748-.14,1.101s.046.715.14,1.1l-1.941,1.134,1.513,2.591Zm1.605-3.265c-.203-.479-.316-1.007-.316-1.56,0-.546.111-1.065.309-1.539l-1.742-1.055.504-.863,1.778,1.02c.634-.819,1.573-1.377,2.652-1.513v-2.05h1v2.05c1.087.137,2.031.701,2.666,1.53l1.764-1.037.504.863-1.752,1.029c.204.48.318,1.009.318,1.564,0,.565-.12,1.101-.332,1.589l1.765,1.004-.504.863-1.783-1.014c-.634.816-1.57,1.371-2.647,1.507v2.05h-1v-2.05c-1.088-.137-2.034-.703-2.668-1.533l-1.762,1.04-.504-.863,1.75-1.033Zm3.684-3.56c-1.103,0-2,.897-2,2s.897,2,2,2,2-.897,2-2-.897-2-2-2Zm0,3c-.551,0-1-.449-1-1s.449-1,1-1,1,.449,1,1-.449,1-1,1Z"/>
</svg>
