<?xml version="1.0" encoding="UTF-8"?>
<svg xmlns="http://www.w3.org/2000/svg" id="Layer_1" data-name="Layer 1" viewBox="0 0 24 24">
  <path d="m24,5.5v12.32l-1-.5V5.5c0-.44-.192-.857-.528-1.143-.341-.291-.775-.41-1.228-.336-.709.115-1.244.797-1.244,1.586v5.393h-1V3.5c0-.827-.673-1.5-1.5-1.5s-1.5.673-1.5,1.5v7.5h-1V2.5c0-.827-.673-1.5-1.5-1.5s-1.5.673-1.5,1.5v8.5h-1v-6.393c0-.789-.535-1.471-1.245-1.586-.449-.072-.885.046-1.227.336-.336.286-.529.703-.529,1.143v12.675l-3.449-2.746c-.322-.299-.69-.435-1.103-.428-.399.014-.77.182-1.043.474-.565.604-.534,1.557.07,2.123l6.641,6.402h8.137l.5,1h-9.041l-6.926-6.678c-1-.938-1.052-2.523-.111-3.53.94-1.007,2.524-1.059,3.529-.119l1.796,1.428V4.5c0-.734.321-1.429.881-1.905.561-.476,1.304-.678,2.035-.562.403.066.772.237,1.084.483v-.017c0-1.378,1.122-2.5,2.5-2.5,1.073,0,1.989.679,2.344,1.63.441-.391,1.021-.63,1.656-.63,1.379,0,2.5,1.122,2.5,2.5v.016c.312-.246.681-.417,1.084-.482.731-.118,1.476.085,2.035.562.56.476.881,1.17.881,1.905Zm-8.377,9.627l2.245,1.123-2.245,1.123-1.123,2.246-1.123-2.246-2.245-1.123,2.245-1.123,1.123-2.246,1.123,2.246Zm.009,1.123l-.755-.377-.377-.754-.377.754-.755.377.755.377.377.754.377-.754.755-.377Zm5.694,2.469l2.651,1.326-2.651,1.326-1.326,2.651-1.326-2.651-2.651-1.326,2.651-1.326,1.326-2.651,1.326,2.651Zm.415,1.326l-1.161-.581-.58-1.161-.58,1.161-1.161.581,1.161.581.58,1.161.58-1.161,1.161-.581ZM2.5,8.538l.68-1.359,1.359-.679-1.359-.68-.68-1.359-.68,1.359-1.359.68,1.359.679.68,1.359Z"/>
</svg>
