<?xml version="1.0" encoding="UTF-8"?>
<svg xmlns="http://www.w3.org/2000/svg" id="Layer_1" data-name="Layer 1" viewBox="0 0 24 24" width="512" height="512"><path d="m22.925,8.754L15.182,1.318c-.85-.85-1.979-1.318-3.182-1.318s-2.332.468-3.175,1.311L1.075,8.754c-.684.657-1.075,1.577-1.075,2.524v12.722h24v-12.722c0-.948-.392-1.868-1.075-2.524ZM9.525,2.025c1.322-1.322,3.62-1.33,4.956.007l7.619,7.317-7.625,7.626c-1.322,1.322-3.627,1.322-4.949,0L1.9,9.349l7.626-7.325Zm13.475,20.975H1v-11.722c0-.398.097-.788.276-1.138l7.542,7.542c.85.85,1.979,1.318,3.182,1.318s2.332-.468,3.182-1.318l7.542-7.542c.179.35.276.74.276,1.139v11.722Z"/></svg>
