<?xml version="1.0" encoding="UTF-8"?>
<svg xmlns="http://www.w3.org/2000/svg" id="Layer_1" data-name="Layer 1" viewBox="0 0 24 24">
  <path d="m19.257,17c-1.266,0-2.457.493-3.354,1.389l-3,3c-1.038,1.039-2.419,1.611-3.889,1.611H2.622c-.799,0-1.298-.518-1.498-1.001-.201-.483-.213-1.202.351-1.767l.646-.646c.405.269.881.414,1.379.414.668,0,1.296-.26,1.768-.732l7.526-7.526c.459.145,1.207.258,1.675.258,1.46,0,2.873-.582,3.909-1.618l1.004-1.005c1.092-1.091,1.68-2.603,1.613-4.146-.068-1.565-.77-2.985-1.977-4-2.168-1.82-5.521-1.593-7.633.518l-.636.637c-1.586,1.586-2.109,3.871-1.499,5.829L1.732,15.732c-.854.854-.959,2.176-.318,3.146l-.647.647c-.764.764-.981,1.858-.568,2.856s1.341,1.618,2.422,1.618h6.393c1.737,0,3.369-.677,4.596-1.904l3-3c.708-.706,1.647-1.096,2.646-1.096,2.134,0,3.743,1.505,3.743,3.5v2.5h1v-2.5c0-2.565-2.039-4.5-4.743-4.5ZM11.457,3.093l.636-.637c.963-.963,2.233-1.456,3.477-1.456,1.013,0,2.009.328,2.806.997.99.832,1.565,1.996,1.621,3.277.055,1.265-.427,2.502-1.321,3.396l-1.004,1.005c-.895.895-2.14,1.376-3.397,1.321-1.282-.056-2.445-.632-3.276-1.621-1.491-1.774-1.289-4.534.459-6.282ZM2.439,16.439l7.234-7.234c.158.284.344.556.558.812.451.537.983.974,1.572,1.3l-7.243,7.243c-.566.566-1.555.566-2.121,0-.585-.585-.585-1.536,0-2.121Z"/>
</svg>
