<?xml version="1.0" encoding="UTF-8"?>
<svg xmlns="http://www.w3.org/2000/svg" id="Layer_1" data-name="Layer 1" viewBox="0 0 24 24">
  <path d="m19.5,0H4.5c-1.379,0-2.5,1.122-2.5,2.5v21.5h20V2.5c0-1.378-1.121-2.5-2.5-2.5Zm1.5,23H3V2.5c0-.827.673-1.5,1.5-1.5h15c.827,0,1.5.673,1.5,1.5v20.5ZM6,5c-.552,0-1-.448-1-1s.448-1,1-1,1,.448,1,1-.448,1-1,1Zm3-1c0-.552.448-1,1-1s1,.448,1,1-.448,1-1,1-1-.448-1-1Zm3,4c-3.309,0-6,2.691-6,6s2.691,6,6,6,6-2.691,6-6-2.691-6-6-6Zm0,11c-2.757,0-5-2.243-5-5s2.243-5,5-5,5,2.243,5,5-2.243,5-5,5Zm0-6.636c0,1.025-1.063,1.924-1.184,2.023-.315.26-.816.83-.816,1.25,0,.433.583.84.739.925l-.479.878c-.129-.07-1.261-.719-1.261-1.803,0-1.026,1.062-1.924,1.184-2.023.315-.26.816-.83.816-1.249,0-.433-.583-.84-.739-.925l.479-.878c.129.07,1.261.719,1.261,1.803Zm3,0c0,1.025-1.063,1.924-1.184,2.023-.315.26-.816.83-.816,1.25,0,.433.583.84.739.925l-.479.878c-.129-.07-1.261-.719-1.261-1.803,0-1.026,1.062-1.924,1.184-2.023.315-.26.816-.83.816-1.249,0-.433-.583-.84-.739-.925l.479-.878c.129.07,1.261.719,1.261,1.803Z"/>
</svg>
