<?xml version="1.0" encoding="UTF-8"?>
<svg xmlns="http://www.w3.org/2000/svg" id="Layer_1" data-name="Layer 1" viewBox="0 0 24 24">
  <path d="m5.546,2.001s0,0,0,0c-.008,0-.004,0,0,0Zm17.454,10.499v6.5h-4v2.5c0,1.379-1.122,2.5-2.5,2.5H3.5c-1.378,0-2.5-1.121-2.5-2.5V6h1v-.5c0-1.93,1.436-3.499,3.545-3.499.007,0,.004,0,0,0,.711-1.226,2.03-2.001,3.454-2.001,1.551,0,2.932.892,3.589,2.27.457-.179.93-.27,1.411-.27,2.206,0,4,1.794,4,4h1v4h1.5c1.378,0,2.5,1.121,2.5,2.5ZM3,6h4v7.5c0,.827.673,1.5,1.5,1.5s1.5-.673,1.5-1.5v-7.5h7c0-1.654-1.346-3-3-3-.491,0-.975.13-1.438.385l-.534.295-.184-.581c-.398-1.255-1.541-2.099-2.844-2.099-1.158,0-2.223.685-2.715,1.744l-.151.324s-.579-.068-.634-.068c-1.378,0-2.5,1.121-2.5,2.5v.5Zm15,1h-7v6.5c0,1.379-1.122,2.5-2.5,2.5s-2.5-1.121-2.5-2.5v-6.5H2v14.5c0,.827.673,1.5,1.5,1.5h13c.827,0,1.5-.673,1.5-1.5V7Zm4,5.5c0-.827-.673-1.5-1.5-1.5h-1.5v7h3v-5.5Z"/>
</svg>
