<?xml version="1.0" encoding="UTF-8"?>
<svg xmlns="http://www.w3.org/2000/svg" id="Layer_1" data-name="Layer 1" width="512" height="512" viewBox="0 0 24 24"><path d="M6,16c0,.552-.448,1-1,1s-1-.448-1-1,.448-1,1-1,1,.448,1,1Zm13-1c-.552,0-1,.448-1,1s.448,1,1,1,1-.448,1-1-.448-1-1-1Zm5,5h-2v3h-5v-3H7v3H2v-3H0V8H1.592c.905-1.949,1.885-3.641,2.93-5.054,.444-.601,1.1-1.043,1.846-1.245,1.185-.319,3.123-.701,5.633-.701s4.448,.381,5.632,.701c.747,.202,1.402,.644,1.847,1.246,1.045,1.413,2.025,3.105,2.93,5.054h1.592v12ZM1.064,11.913c1.77-.249,6.87-.913,10.936-.913s9.166,.664,10.936,.913c-1.246-3.417-2.679-6.232-4.263-8.372-.311-.421-.772-.731-1.303-.874-1.125-.304-2.971-.667-5.371-.667s-4.246,.362-5.372,.667c-.529,.143-.991,.453-1.302,.874-1.584,2.141-3.017,4.956-4.263,8.373Zm4.936,8.087H3v2h3v-2Zm15,0h-3v2h3v-2Zm2-1v-6.068c-1.52-.218-6.823-.932-11-.932s-9.48,.714-11,.932v6.068H23Z"/></svg>
