<?xml version="1.0" encoding="UTF-8"?>
<svg xmlns="http://www.w3.org/2000/svg" id="Layer_1" data-name="Layer 1" viewBox="0 0 24 24">
  <path d="m11.729,8.795l.271.174.271-.174c.193-.125,4.729-3.08,4.729-5.865,0-1.616-1.233-2.93-2.75-2.93-.951,0-1.761.435-2.25,1.128-.489-.693-1.299-1.128-2.25-1.128-1.517,0-2.75,1.314-2.75,2.93,0,2.786,4.536,5.741,4.729,5.865Zm-1.979-7.795c1.014,0,1.75.736,1.75,1.75v.25h1v-.25c0-1.014.736-1.75,1.75-1.75.965,0,1.75.866,1.75,1.93,0,1.733-2.673,3.93-4,4.844-1.327-.914-4-3.111-4-4.844,0-1.064.785-1.93,1.75-1.93Zm-.75,13c0,1.654,1.346,3,3,3s3-1.346,3-3-1.346-3-3-3-3,1.346-3,3Zm5,0c0,1.103-.897,2-2,2s-2-.897-2-2,.897-2,2-2,2,.897,2,2Zm2,4.707v5.293h-1v-5h-6v5h-1v-5.293l-5.854-5.854.707-.707,5.854,5.854h6.586l5.854-5.854.707.707-5.854,5.854Z"/>
</svg>
