<?xml version="1.0" encoding="UTF-8"?>
<svg xmlns="http://www.w3.org/2000/svg" id="Layer_1" data-name="Layer 1" viewBox="0 0 24 24">
  <path d="m21,14c1.654,0,3-1.346,3-3s-1.346-3-3-3c-1.595,0-2.891,1.255-2.983,2.828l-3.28.647c-.278-.861-.775-1.616-1.438-2.203l2.475-3.541c.375.169.788.268,1.225.268,1.654,0,3-1.346,3-3s-1.346-3-3-3-3,1.346-3,3c0,.857.366,1.626.944,2.173l-2.457,3.515c-.735-.426-1.577-.688-2.487-.688s-1.751.262-2.487.688l-2.457-3.515c.578-.547.944-1.316.944-2.173,0-1.654-1.346-3-3-3S0,1.346,0,3s1.346,3,3,3c.437,0,.85-.099,1.225-.268l2.475,3.541c-1.034.917-1.701,2.24-1.701,3.727,0,1.308.516,2.491,1.341,3.383l-1.802,2.056c-.452-.272-.974-.438-1.539-.438-1.654,0-3,1.346-3,3s1.346,3,3,3,3-1.346,3-3c0-.728-.271-1.388-.704-1.908l1.793-2.045c.822.593,1.823.953,2.911.953,1.284,0,2.445-.5,3.332-1.299l3.114,2.747c-.277.454-.446.982-.446,1.553,0,1.654,1.346,3,3,3s3-1.346,3-3-1.346-3-3-3c-.723,0-1.377.267-1.896.694l-3.098-2.732c.617-.831.994-1.85.994-2.962,0-.187-.035-.364-.055-.546l3.185-.628c.361,1.251,1.504,2.175,2.87,2.175Zm0-5c1.103,0,2,.897,2,2s-.897,2-2,2-2-.897-2-2,.897-2,2-2ZM17,1c1.103,0,2,.897,2,2s-.897,2-2,2-2-.897-2-2,.897-2,2-2ZM1,3c0-1.103.897-2,2-2s2,.897,2,2-.897,2-2,2-2-.897-2-2Zm2,20c-1.103,0-2-.897-2-2s.897-2,2-2,2,.897,2,2-.897,2-2,2Zm3-10c0-2.206,1.794-4,4-4s4,1.794,4,4-1.794,4-4,4-4-1.794-4-4Zm13,6c1.103,0,2,.897,2,2s-.897,2-2,2-2-.897-2-2,.897-2,2-2Z"/>
</svg>
