<?xml version="1.0" encoding="UTF-8"?>
<svg xmlns="http://www.w3.org/2000/svg" id="Layer_1" data-name="Layer 1" viewBox="0 0 24 24">
  <path d="m23.917,20.604l-1.392-7.023c.882-.523,1.474-1.484,1.474-2.582,0-1.509-1.12-2.761-2.616-2.965C20.673,3.426,16.71,0,12,0,6.725,0,3.07,3.568,2.221,9.558l-.275,2.377.492.062c.015.002.297.034.773.034.983,0,2.793-.135,4.793-.949.042.514.472.918.996.918.552,0,1-.448,1-1,0-.296-.129-.562-.333-.745,1.923-1.144,3.859-3.01,5.286-6.042l-.905-.426c-3.273,6.956-9.222,7.311-10.991,7.25l.156-1.352C3.995,4.166,7.198,1,12,1c4.34,0,7.971,3.25,8.445,7.561l.107.439h.448c1.103,0,2,.897,2,2s-.897,2-2,2h-1.292l-.119.33c-.983,2.728-4.164,5.672-7.588,5.672-3.145,0-6.08-2.484-7.3-5.002h-1.094c.763,1.832,2.383,3.705,4.394,4.861v4.139H2.738c-.542,0-1.042-.245-1.374-.673-.331-.429-.443-.975-.308-1.498h0c.002-.009.005-.019.007-.028l1.348-6.801h-1.019L.085,20.593c-.208.821-.03,1.675.488,2.345.522.676,1.312,1.062,2.165,1.062h6.262v-4.641c.951.405,1.965.642,3,.642s2.049-.237,3-.641v4.638h6.262c.854,0,1.643-.386,2.165-1.062.522-.675.699-1.535.491-2.333Zm-1.282,1.722c-.332.428-.833.674-1.374.674h-5.262v-4.138c2.013-1.155,3.637-3.029,4.4-4.862h.6c.198,0,.391-.02.578-.056l1.365,6.885c.136.523.023,1.069-.308,1.498Zm-7.636-10.326c-.552,0-1-.448-1-1s.448-1,1-1,1,.448,1,1-.448,1-1,1Z"/>
</svg>
