<?xml version="1.0" encoding="UTF-8"?>
<svg xmlns="http://www.w3.org/2000/svg" id="Layer_1" data-name="Layer 1" viewBox="0 0 24 24">
  <path d="m21.5,10H2.5c-1.379,0-2.5,1.122-2.5,2.5v11.5h24v-11.5c0-1.378-1.121-2.5-2.5-2.5Zm1.5,13H1v-10.5c0-.827.673-1.5,1.5-1.5h19c.827,0,1.5.673,1.5,1.5v10.5Zm-19-3h3v1H3v-8h1v7Zm13-7h4v1h-3v2.5h3v1h-3v2.5h3v1h-4v-8Zm-9,0h1v8h-1v-8Zm6.723,0h.995l-2.197,8h-1.027l-2.237-8h1.001l1.743,6.18,1.723-6.18ZM4.752,4.002l-.707-.707c4.387-4.386,11.523-4.386,15.91,0l-.707.707C15.252.006,8.748.006,4.752,4.002Zm12.375,2.122c-2.826-2.826-7.428-2.826-10.254,0l-.707-.707c3.217-3.217,8.451-3.217,11.668,0l-.707.707Zm-5.127-.124c1.402,0,2.721.546,3.712,1.538l-.707.707c-.803-.803-1.87-1.245-3.005-1.245s-2.202.442-3.005,1.245l-.707-.707c.991-.992,2.31-1.538,3.712-1.538Z"/>
</svg>
