<?xml version="1.0" encoding="UTF-8"?>
<svg xmlns="http://www.w3.org/2000/svg" id="Layer_1" data-name="Layer 1" viewBox="0 0 24 24" width="512" height="512"><path d="m14.707,0H4.5c-1.379,0-2.5,1.122-2.5,2.5v21.5h20V7.293L14.707,0Zm.293,1.707l5.293,5.293h-5.293V1.707ZM3,23V2.5c0-.827.673-1.5,1.5-1.5h9.5v7h7v15H3Zm12.904-7.481l.707.707-3.203,3.203c-.384.384-.889.576-1.394.576s-1.01-.192-1.394-.576l-3.202-3.203.707-.707,3.202,3.203c.057.057.12.106.187.146v-7.868h1v7.868c.066-.04.129-.088.187-.146l3.203-3.203Z"/></svg>
