<?xml version="1.0" encoding="UTF-8"?>
<svg xmlns="http://www.w3.org/2000/svg" id="Layer_1" data-name="Layer 1" width="512" height="512" viewBox="0 0 24 24"><path d="M14.594,16h-1.849l1.641-4h-4.907l-2.417,6.166c-.132,.436-.052,.895,.22,1.26s.688,.574,1.142,.574h1.855l-1.5,4h1.5l5.486-5.818c.286-.432,.312-.983,.067-1.44s-.72-.741-1.238-.741Zm.391,1.562l-4.517,4.781,1.254-3.343h-3.299c-.135,0-.258-.062-.339-.171-.08-.108-.104-.245-.078-.336l2.154-5.493h2.735l-1.641,4h3.339c.219,0,.322,.149,.356,.214,.035,.063,.102,.232,.034,.348Zm9.016-5.062c0,3.995-3.271,7.5-7,7.5h-.201l.421-.446,.212-.267c.07-.105,.129-.216,.186-.326,2.931-.359,5.383-3.223,5.383-6.461,0-3.509-2.856-6.422-6.367-6.493l-.355-.007-.11-.338c-.907-2.789-3.486-4.662-6.417-4.662-3.722,0-6.75,3.028-6.75,6.75,0,.776,.139,1.551,.412,2.304l.142,.388-.354,.212c-1.377,.826-2.199,2.264-2.199,3.847,0,2.323,1.775,4.217,4.036,4.453,.039,.358,.125,.707,.277,1.037-2.945-.1-5.313-2.521-5.313-5.49,0-1.803,.869-3.451,2.345-4.484-.229-.743-.345-1.503-.345-2.266C2,3.477,5.477,0,9.75,0c3.249,0,6.12,2.004,7.253,5.023,3.89,.261,6.997,3.544,6.997,7.477Z"/></svg>
