<?xml version="1.0" encoding="UTF-8"?>
<svg xmlns="http://www.w3.org/2000/svg" id="Layer_1" data-name="Layer 1" viewBox="0 0 24 24">
  <path d="m24,11.983c0-2.138-1.69-3.875-3.803-3.98-.895-1.828-2.388-3.318-4.218-4.208-.109-2.109-1.843-3.795-3.979-3.795s-3.87,1.686-3.979,3.795c-1.83.891-3.323,2.381-4.218,4.208-2.113.105-3.803,1.842-3.803,3.98s1.681,3.865,3.786,3.978c.893,1.843,2.393,3.347,4.234,4.243.109,2.109,1.843,3.795,3.979,3.795s3.87-1.686,3.979-3.795c1.842-.896,3.341-2.4,4.234-4.243,2.105-.114,3.786-1.846,3.786-3.978ZM12,1c1.654,0,3,1.346,3,3s-1.346,3-3,3-3-1.346-3-3,1.346-3,3-3ZM1,11.983c0-1.654,1.346-3,3-3s3,1.346,3,3-1.346,3-3,3-3-1.346-3-3Zm11,11.017c-1.654,0-3-1.346-3-3s1.346-3,3-3,3,1.346,3,3-1.346,3-3,3Zm3.898-3.872c-.4-1.786-1.992-3.128-3.898-3.128s-3.498,1.341-3.898,3.128c-1.363-.749-2.493-1.88-3.238-3.244,1.791-.397,3.136-1.992,3.136-3.9s-1.337-3.492-3.119-3.895c.746-1.351,1.868-2.473,3.221-3.216.4,1.786,1.992,3.128,3.898,3.128s3.498-1.341,3.898-3.128c1.353.743,2.476,1.865,3.221,3.216-1.782.403-3.119,1.993-3.119,3.895s1.345,3.503,3.136,3.9c-.746,1.364-1.875,2.495-3.238,3.244Zm4.102-4.144c-1.654,0-3-1.346-3-3s1.346-3,3-3,3,1.346,3,3-1.346,3-3,3Z"/>
</svg>
