<?xml version="1.0" encoding="UTF-8"?>
<svg xmlns="http://www.w3.org/2000/svg" id="Layer_1" data-name="Layer 1" viewBox="0 0 24 24">
  <path d="m11,7V2.5c0-1.379-1.122-2.5-2.5-2.5h-2c-1.378,0-2.5,1.121-2.5,2.5v4.5c-2.206,0-4,1.794-4,4v13h15v-13c0-2.206-1.794-4-4-4ZM5,2.5c0-.827.673-1.5,1.5-1.5h2c.827,0,1.5.673,1.5,1.5v4.5h-5V2.5Zm9,20.5H1v-12c0-1.654,1.346-3,3-3h7c1.654,0,3,1.346,3,3v12Zm-6.5-12c-2.481,0-4.5,2.019-4.5,4.5s2.019,4.5,4.5,4.5,4.5-2.019,4.5-4.5-2.019-4.5-4.5-4.5Zm0,8c-1.93,0-3.5-1.57-3.5-3.5s1.57-3.5,3.5-3.5,3.5,1.57,3.5,3.5-1.57,3.5-3.5,3.5ZM19,2.5l-1.667.833-.833,1.667-.833-1.667-1.667-.833,1.667-.833.833-1.667.833,1.667,1.667.833Zm0,3l1.667-.833.833-1.667.833,1.667,1.667.833-1.667.833-.833,1.667-.833-1.667-1.667-.833Zm2.333,5.167l1.667.833-1.667.833-.833,1.667-.833-1.667-1.667-.833,1.667-.833.833-1.667.833,1.667Z"/>
</svg>
