<?xml version="1.0" encoding="UTF-8"?>
<svg xmlns="http://www.w3.org/2000/svg" id="Layer_1" data-name="Layer 1" viewBox="0 0 24 24" width="512" height="512"><path d="M10,10c0,1.65,1.35,3,3,3h1.5c.83,0,1.5,.67,1.5,1.5s-.67,1.5-1.5,1.5h-2.5v1h2.5c1.38,0,2.5-1.12,2.5-2.5,0-.69-.28-1.32-.74-1.78,1.03-.48,1.74-1.52,1.74-2.72,0-1.65-1.35-3-3-3h-1.5c-.83,0-1.5-.67-1.5-1.5s.67-1.5,1.5-1.5h2.5v-1h-2.5c-1.38,0-2.5,1.12-2.5,2.5,0,.69,.28,1.32,.74,1.78-1.03,.48-1.74,1.52-1.74,2.72Zm3-2h2c1.1,0,2,.9,2,2s-.9,2-2,2h-2c-1.1,0-2-.9-2-2s.9-2,2-2ZM20.5,0H4.5c-1.38,0-2.5,1.12-2.5,2.5V21.5c0,1.38,1.12,2.5,2.5,2.5H22V1.5c0-.83-.67-1.5-1.5-1.5Zm.5,1.5V19H7V1h13.5c.28,0,.5,.22,.5,.5ZM4.5,1h1.5V19h-1.5c-.56,0-1.08,.19-1.5,.5V2.5c0-.83,.67-1.5,1.5-1.5Zm0,22c-.83,0-1.5-.67-1.5-1.5s.67-1.5,1.5-1.5H21v3H4.5Z"/></svg>
