<?xml version="1.0" encoding="UTF-8"?>
<svg xmlns="http://www.w3.org/2000/svg" id="Layer_1" data-name="Layer 1" viewBox="0 0 24 24">
  <path d="m16,23c0,.552-.448,1-1,1s-1-.448-1-1,.448-1,1-1,1,.448,1,1Zm7-15c.552,0,1-.448,1-1s-.448-1-1-1-1,.448-1,1,.448,1,1,1ZM7,22c-.552,0-1,.448-1,1s.448,1,1,1,1-.448,1-1-.448-1-1-1Zm16,0c-.552,0-1,.448-1,1s.448,1,1,1,1-.448,1-1-.448-1-1-1Zm.015-7.97c-.544,0-.985.441-.985.985s.441.985.985.985.985-.441.985-.985-.441-.985-.985-.985Zm-4.015,3.97c-.552,0-1,.448-1,1s.448,1,1,1,1-.448,1-1-.448-1-1-1Zm-8,0c-.552,0-1,.448-1,1s.448,1,1,1,1-.448,1-1-.448-1-1-1Zm4-4c-.552,0-1,.448-1,1s.448,1,1,1,1-.448,1-1-.448-1-1-1Zm4-4c-.552,0-1,.448-1,1s.448,1,1,1,1-.448,1-1-.448-1-1-1Zm-1.343-3.657c-.379-.379-.788-.71-1.217-.997l2.019-3.471-.865-.503-2.022,3.475c-.969-.483-2.014-.755-3.072-.821V0h-1v4.028c-1.053.065-2.094.336-3.059.815l-2.018-3.469-.865.503,2.014,3.462c-.434.289-.846.623-1.229,1.005-.374.374-.701.778-.985,1.202l-3.469-2.019-.504.864,3.471,2.021c-.488.974-.763,2.025-.829,3.089H0v1h4.027c.066,1.062.339,2.111.825,3.082l-3.461,2.014.504.864,3.457-2.012c.285.426.614.832.99,1.208l.354.354.707-.707-.354-.354c-2-2-3.25-6.65,0-9.899,2.729-2.729,7.17-2.729,9.9,0l.354.354.707-.707-.354-.354Z"/>
</svg>
