<?xml version="1.0" encoding="UTF-8"?>
<svg xmlns="http://www.w3.org/2000/svg" id="Layer_1" data-name="Layer 1" viewBox="0 0 24 24">
  <path d="m22,11.893c1.236-1.263,2-2.991,2-4.893,0-3.859-3.141-7-7-7s-7,3.141-7,7c0,1.631.561,3.134,1.5,4.325-6.821,3.472-6.5,11.082-6.496,11.135v.356c-1.993-.456-4.004-1.756-4.004-3.816,0-1.708.79-2.981,1.554-4.213.711-1.146,1.446-2.333,1.446-3.787,0-2.767-1.233-4-4-4v1c2.215,0,3,.785,3,3,0,1.17-.601,2.139-1.296,3.26-.799,1.288-1.704,2.748-1.704,4.74,0,3.411,3.913,5,6.558,5h17.442v-1h-2v-11.107ZM17,1c3.309,0,6,2.691,6,6s-2.691,6-6,6-6-2.691-6-6,2.691-6,6-6ZM6.003,22.975v-.542c-.015-.297-.29-7.232,6.199-10.341,1.254,1.182,2.943,1.908,4.797,1.908,1.486,0,2.865-.466,4-1.259v10.259h-3v-1c0-3.309-2.691-6-6-6v1c2.757,0,5,2.243,5,5v1H6.558c-.18,0-.365-.008-.554-.025Zm10.997-11.975c2.206,0,4-1.794,4-4V3l-2.029,1.521c-1.197-.684-2.744-.683-3.941,0l-2.029-1.521v4c0,2.206,1.794,4,4,4Zm-3-6l.953.715.571-.325c.896-.512,2.054-.513,2.952,0l.57.324.953-.715v2c0,1.654-1.346,3-3,3s-3-1.346-3-3v-2Zm-8.5,1.868l1.123-2.245,2.245-1.123-2.245-1.123L5.5.132l-1.123,2.245-2.245,1.123,2.245,1.123,1.123,2.245Zm-.377-3.745l.377-.755.377.755.755.377-.755.377-.377.755-.377-.755-.755-.377.755-.377Z"/>
</svg>
