<?xml version="1.0" encoding="UTF-8"?>
<svg xmlns="http://www.w3.org/2000/svg" id="Layer_1" data-name="Layer 1" viewBox="0 0 24 24">
  <path d="m1,21.5v-6c0-1.93,1.57-3.5,3.5-3.5h6c1.391,0,2.585.822,3.149,2h1.075c-.326-.913-.938-1.686-1.724-2.222v-3.778h-1.18c.116-.32.18-.656.18-1,0-1.654-1.346-3-3-3s-3,1.346-3,3c0,.344.064.68.18,1H2v3.762c-1.205.808-2,2.182-2,3.738v6c0,1.379,1.122,2.5,2.5,2.5h8.5v-1H2.5c-.827,0-1.5-.673-1.5-1.5ZM7,7c0-1.103.897-2,2-2s2,.897,2,2c0,.352-.095.692-.277,1h-3.446c-.182-.308-.277-.648-.277-1Zm-4,4v-2h9v2H3ZM16,0c-1.654,0-3,1.346-3,3s1.346,3,3,3,3-1.346,3-3-1.346-3-3-3Zm0,5c-1.103,0-2-.897-2-2s.897-2,2-2,2,.897,2,2-.897,2-2,2Zm1,11h1v8h-1v-8Zm4.5,0h-2.5v8h1v-3h1.5c1.378,0,2.5-1.121,2.5-2.5s-1.122-2.5-2.5-2.5Zm0,4h-1.5v-3h1.5c.827,0,1.5.673,1.5,1.5s-.673,1.5-1.5,1.5Zm-10.5-4h5v1h-2v7h-1v-7h-2v-1Z"/>
</svg>
