<?xml version="1.0" encoding="UTF-8"?>
<svg xmlns="http://www.w3.org/2000/svg" id="Layer_1" data-name="Layer 1" viewBox="0 0 24 24">
  <path d="m12.5,16.258l2.957-1.707,3.143,1.802.743-.726-3.343-1.917v-3.421l2.798-1.604,4.6,1.247.262-.965-4.295-1.164,1.165-4.295-.965-.262-1.236,4.555-2.747,1.575-3.082-1.779v-3.391l3.354-3.354-.707-.707-3.146,3.146L8.854.146l-.707.707,3.354,3.354v3.391l-3.082,1.779-2.747-1.575-1.236-4.555-.965.262,1.165,4.295L.341,8.968l.262.965,4.6-1.247,2.798,1.604v3.37l-3.376,1.935.743.726,3.132-1.795,3.001,1.732v3.535l-3.354,3.354.707.707,3.146-3.146,3.146,3.146.707-.707-3.354-3.354v-3.535Zm-3.5-6.062l3-1.732,3,1.732v3.464l-3,1.732-3-1.732v-3.464Zm14.117,8.679l-2.117-2.071-2.121,2.075c-1.169,1.17-1.169,3.072,0,4.242.566.566,1.319.879,2.121.879s1.555-.312,2.121-.879c1.169-1.17,1.169-3.072-.004-4.246Zm-.703,3.539c-.755.756-2.073.756-2.828,0-.78-.779-.78-2.049-.004-2.824l1.418-1.388,1.414,1.384c.78.779.78,2.049,0,2.828ZM3,16.804l-2.121,2.075c-1.169,1.17-1.169,3.072,0,4.242.566.566,1.319.879,2.121.879s1.555-.312,2.121-.879c1.169-1.17,1.169-3.072-.004-4.246l-2.117-2.071Zm1.414,5.61c-.755.756-2.073.756-2.828,0-.78-.779-.78-2.049-.004-2.824l1.418-1.388,1.414,1.384c.78.779.78,2.049,0,2.828Z"/>
</svg>
