<?xml version="1.0" encoding="UTF-8"?>
<svg xmlns="http://www.w3.org/2000/svg" id="Layer_1" data-name="Layer 1" viewBox="0 0 24 24">
  <path d="m20.667,6.206c.284-.692.392-1.453.304-2.222-.158-1.374-.936-2.589-2.135-3.336-1.382-.861-3.179-.882-4.579-.055-.188.111-.363.231-.527.36-1.672,1.314-3.522,2.022-5.351,2.048-.406.006-.819.041-1.226.104C3.423,3.689.435,6.839.046,10.597c-.266,2.576.625,5.096,2.444,6.915.931.931,2.047,1.618,3.26,2.032l.691,4.456h1.184l-.63-4.135c.495.089,1.001.134,1.512.134.298,0,.598-.016.899-.046.467-.048.924-.137,1.368-.261l.668,4.308h1.184l-.719-4.717c2.604-1.156,4.567-3.605,4.997-6.495.118-.791.127-1.586.028-2.363-.092-.727.364-1.439,1.085-1.693.337-.119.653-.276.948-.468,3.574,2.287,4.035,8.735,4.035,8.735h1c0-6.078-2.639-9.894-3.333-10.794Zm-2.982,1.583c-1.163.41-1.896,1.571-1.745,2.762.087.687.079,1.389-.025,2.089-.494,3.314-3.274,5.971-6.612,6.317-2.274.237-4.5-.549-6.104-2.154-1.605-1.604-2.392-3.83-2.156-6.104.342-3.313,2.978-6.092,6.266-6.606.361-.057.727-.088,1.085-.093,2.05-.029,4.109-.811,5.955-2.262.129-.102.269-.197.417-.285.529-.312,1.131-.468,1.734-.468.63,0,1.261.171,1.808.511.938.585,1.547,1.533,1.67,2.602.123,1.068-.243,2.117-1.002,2.876-.369.368-.803.643-1.291.814Zm.315-3.79c0,.552-.448,1-1,1s-1-.448-1-1,.448-1,1-1,1,.448,1,1Z"/>
</svg>
