<?xml version="1.0" encoding="UTF-8"?>
<svg xmlns="http://www.w3.org/2000/svg" id="Layer_1" data-name="Layer 1" viewBox="0 0 24 24" width="512" height="512"><path d="M3,22c0,.552-.448,1-1,1s-1-.448-1-1,.448-1,1-1,1,.448,1,1Zm2.5-4c-.828,0-1.5,.672-1.5,1.5s.672,1.5,1.5,1.5,1.5-.672,1.5-1.5-.672-1.5-1.5-1.5ZM24,10c0,3.7-3.397,6.662-7.192,5.875-1.232,1.354-2.968,2.125-4.808,2.125-2.212,0-4.28-1.142-5.472-3h-.028c-3.584,0-6.5-2.916-6.5-6.5S2.916,2,6.5,2c.479,0,.964,.057,1.444,.167,1.32-1.381,3.146-2.167,5.056-2.167,2.792,0,5.274,1.626,6.397,4.167,2.683,.639,4.603,3.05,4.603,5.833Zm-1,0c0-2.396-1.706-4.459-4.057-4.908l-.27-.052-.102-.255c-.915-2.299-3.102-3.785-5.572-3.785-1.725,0-3.369,.749-4.513,2.055l-.207,.237-.304-.085c-.491-.138-.988-.207-1.477-.207C3.468,3,1,5.468,1,8.5s2.468,5.5,5.5,5.5c.061,0,.492-.03,.492-.03l.241,.266c.981,1.705,2.808,2.765,4.767,2.765,1.646,0,3.191-.729,4.241-1.998l.203-.245,.308,.079c3.286,.853,6.248-1.673,6.248-4.836Z"/></svg>
