<?xml version="1.0" encoding="UTF-8"?>
<svg xmlns="http://www.w3.org/2000/svg" id="Layer_1" data-name="Layer 1" viewBox="0 0 24 24">
  <path d="m3.5,5c1.378,0,2.5-1.121,2.5-2.5S4.878,0,3.5,0,1,1.121,1,2.5s1.122,2.5,2.5,2.5Zm0-4c.827,0,1.5.673,1.5,1.5s-.673,1.5-1.5,1.5-1.5-.673-1.5-1.5.673-1.5,1.5-1.5Zm20.45,16.913l-.226-.975-9.068,2.102-3.162-13.638-.975.227,1.245,5.371h-3.956l-1.533-3.065c-.597-1.193-1.796-1.935-3.13-1.935h-1.146c-1.103,0-2,.897-2,2v6.161c0,.7.356,1.337.959,1.707l4.041,2.415v5.717h1v-6.283l-4.522-2.703c-.299-.184-.478-.503-.478-.853v-6.161c0-.552.449-1,1-1h1.146c.297,0,.586.052.854.148v7.357l1,.598v-7.281c.149.166.278.354.382.56l1.809,3.618h4.806l1.623,7.002c-.031-.001-.063-.002-.095-.002-1.378,0-2.5,1.121-2.5,2.5s1.122,2.5,2.5,2.5,2.5-1.121,2.5-2.5c0-.614-.223-1.177-.592-1.613l8.516-1.974Zm-10.424,5.087c-.827,0-1.5-.673-1.5-1.5s.673-1.5,1.5-1.5,1.5.673,1.5,1.5-.673,1.5-1.5,1.5ZM1,18l1,.598v5.402h-1v-6Zm14.554-3.362c.135.574.485,1.062.987,1.372.353.218.749.329,1.153.329.171,0,.344-.02.515-.061l3.108-.738c1.178-.279,1.912-1.467,1.636-2.646l-.748-3.192c-.135-.575-.486-1.062-.988-1.372-.502-.311-1.095-.406-1.667-.269l-3.107.738c-1.179.279-1.913,1.467-1.636,2.646l.748,3.192Zm1.119-4.866l3.107-.738c.094-.022.188-.033.281-.033.22,0,.437.062.629.18.274.17.466.436.54.75l.748,3.192c.151.644-.25,1.292-.894,1.445l-3.108.738c-.315.075-.636.022-.911-.146-.274-.17-.465-.436-.539-.75l-.748-3.192c-.151-.645.25-1.292.894-1.445Z"/>
</svg>
