<?xml version="1.0" encoding="UTF-8"?>
<svg xmlns="http://www.w3.org/2000/svg" id="Layer_1" data-name="Layer 1" viewBox="0 0 24 24">
  <path d="m19,15c-1.103,0-2,.897-2,2s.897,2,2,2,2-.897,2-2-.897-2-2-2Zm0,3c-.551,0-1-.449-1-1s.449-1,1-1,1,.449,1,1-.449,1-1,1Zm3.535-4.542c-.944-.944-2.2-1.464-3.535-1.464s-2.591.52-3.535,1.464c-.945.944-1.465,2.2-1.465,3.536s.524,2.596,1.489,3.559l3.511,3.258,3.535-3.281c.945-.944,1.465-2.2,1.465-3.536s-.52-2.592-1.465-3.536Zm-.694,6.351l-2.841,2.637-2.818-2.614c-.762-.761-1.182-1.769-1.182-2.838s.416-2.073,1.172-2.829c.755-.755,1.76-1.171,2.828-1.171s2.073.416,2.828,1.171c.756.755,1.172,1.76,1.172,2.829s-.416,2.073-1.159,2.815Zm-14.841-5.81h-3v-1h3v1Zm5,0h-3v-1h3v1Zm-8,3h3v1h-3v-1Zm5,0h3v1h-3v-1Zm-2-11h-3v-1h3v1Zm5,0h-3v-1h3v1Zm-5,4h-3v-1h3v1Zm5,0h-3v-1h3v1Zm3.186,13l1.078,1H0V2.5C0,1.122,1.122,0,2.5,0h11c1.378,0,2.5,1.122,2.5,2.5v8.175c-.347.165-.682.357-1,.579V2.5c0-.827-.673-1.5-1.5-1.5H2.5c-.827,0-1.5.673-1.5,1.5v20.5h14.186Z"/>
</svg>
