<?xml version="1.0" encoding="UTF-8"?>
<svg xmlns="http://www.w3.org/2000/svg" id="Layer_1" data-name="Layer 1" viewBox="0 0 24 24">
  <path d="m24,2.5c0-1.379-1.121-2.5-2.5-2.5H2.5C1.121,0,0,1.121,0,2.5v16.5h1.001c0,.032,0,3,0,3h2v2h4v-2h10v2h4v-2h2s0-2.968,0-3h1.001V2.5ZM6,23h-2v-1h2v1Zm14,0h-2v-1h2v1Zm2-2H2v-1.903c0-1.047.16-2.095.469-3.097h2.531v2h1v-2h12v2h1v-2h2.531c.309,1.002.469,2.05.469,3.097v1.903ZM2.833,15c.086-.202.177-.402.276-.599l2.286-4.572c.256-.512.77-.829,1.342-.829h10.527c.572,0,1.086.317,1.342.829l2.286,4.572c.098.196.19.396.276.599H2.833Zm20.167,3h-.053c-.136-1.404-.53-2.785-1.16-4.046l-2.286-4.572c-.426-.853-1.283-1.382-2.236-1.382H6.736c-.953,0-1.811.529-2.236,1.382l-2.286,4.572c-.63,1.261-1.025,2.641-1.16,4.046h-.053V2.5c0-.827.673-1.5,1.5-1.5h19c.827,0,1.5.673,1.5,1.5v15.5Z"/>
</svg>
