<?xml version="1.0" encoding="UTF-8"?>
<svg xmlns="http://www.w3.org/2000/svg" id="Layer_1" data-name="Layer 1" viewBox="0 0 24 24">
  <path d="m23.268,6.297L17.703.732c-.472-.472-1.1-.732-1.768-.732h-7.87c-.667,0-1.295.26-1.768.732L.732,6.297c-.472.472-.732,1.1-.732,1.768v7.87c0,.667.26,1.295.732,1.768l5.565,5.565c.472.472,1.1.732,1.768.732h7.87c.667,0,1.295-.26,1.768-.732l5.565-5.565c.472-.472.732-1.1.732-1.768v-7.87c0-.667-.26-1.295-.732-1.768Zm-.268,9.638c0,.395-.16.781-.439,1.061l-5.565,5.565c-.279.279-.666.439-1.061.439h-7.87c-.395,0-.781-.16-1.061-.439l-5.565-5.565c-.279-.279-.439-.666-.439-1.061v-7.87c0-.395.16-.781.439-1.061L7.004,1.439c.279-.279.666-.439,1.061-.439h7.87c.395,0,.781.16,1.061.439l5.565,5.565c.279.279.439.666.439,1.061v7.87Zm-5.728-8.163l.707.707-6.059,6.059c-.298.298-.694.462-1.115.462s-.817-.164-1.115-.462l-3.614-3.614.707-.707,3.615,3.614c.218.218.597.218.815,0l6.059-6.059Z"/>
</svg>
