<?xml version="1.0" encoding="UTF-8"?>
<svg xmlns="http://www.w3.org/2000/svg" id="Layer_1" data-name="Layer 1" viewBox="0 0 24 24" width="512" height="512"><path d="M1,1.707V10H0V1.5C0,.673,.673,0,1.5,0H10V1H1.707L15.854,15.146l-.707,.707L1,1.707Zm13,2.293c-1.852,0-3.588,.507-5.077,1.388l.733,.732c1.289-.713,2.77-1.12,4.344-1.12,4.963,0,9,4.038,9,9s-4.037,9-9,9S5,18.962,5,14c0-1.574,.407-3.055,1.12-4.344l-.733-.733c-.881,1.489-1.388,3.225-1.388,5.077,0,5.514,4.486,10,10,10s10-4.486,10-10S19.514,4,14,4Z"/></svg>
