<?xml version="1.0" encoding="UTF-8"?>
<svg xmlns="http://www.w3.org/2000/svg" id="Layer_1" data-name="Layer 1" width="512" height="512" viewBox="0 0 24 24"><path d="M15.286,9.038L10.207,1h2.293V0H7V9h-2.231l-1.246-1.88c-.464-.701-1.243-1.12-2.084-1.12H0v12H1.452c.84,0,1.62-.418,2.085-1.121l1.233-1.879h2.23v9h5.5v-1h-2.292l5.077-8.011c2.354-.156,8.714-.782,8.714-2.989s-6.359-2.814-8.714-2.962Zm-.315,4.97l-.255,.015-5.691,8.978h-1.024V14h-3.77l-1.528,2.328c-.279,.421-.746,.672-1.25,.672h-.452V7h.438c.505,0,.972,.251,1.25,.671l1.542,2.329h3.769V1h1.024l5.691,9.006,.257,.014c4.277,.242,8.028,1.167,8.028,1.979s-3.752,1.752-8.03,2.007Z"/></svg>
