<?xml version="1.0" encoding="UTF-8"?>
<svg xmlns="http://www.w3.org/2000/svg" id="Layer_1" data-name="Layer 1" viewBox="0 0 24 24" width="512" height="512"><path d="M16.5,8c-1.93,0-3.5,1.57-3.5,3.5s1.57,3.5,3.5,3.5,3.5-1.57,3.5-3.5-1.57-3.5-3.5-3.5Zm0,6c-1.379,0-2.5-1.121-2.5-2.5s1.121-2.5,2.5-2.5,2.5,1.121,2.5,2.5-1.121,2.5-2.5,2.5ZM7.5,8c-1.93,0-3.5,1.57-3.5,3.5s1.57,3.5,3.5,3.5,3.5-1.57,3.5-3.5-1.57-3.5-3.5-3.5Zm0,1c.094,0,.186,.006,.277,.016l-2.761,2.761c-.01-.091-.016-.183-.016-.277,0-1.379,1.121-2.5,2.5-2.5Zm-2.118,3.825l3.444-3.444c.32,.201,.592,.473,.793,.793l-3.444,3.444c-.32-.201-.592-.473-.793-.793Zm2.118,1.175c-.094,0-.186-.006-.277-.016l2.761-2.761c.01,.091,.016,.183,.016,.277,0,1.379-1.121,2.5-2.5,2.5Zm0,2c-1.93,0-3.5,1.57-3.5,3.5s1.57,3.5,3.5,3.5,3.5-1.57,3.5-3.5-1.57-3.5-3.5-3.5Zm0,6c-1.379,0-2.5-1.121-2.5-2.5s1.121-2.5,2.5-2.5,2.5,1.121,2.5,2.5-1.121,2.5-2.5,2.5Zm9-6c-1.93,0-3.5,1.57-3.5,3.5s1.57,3.5,3.5,3.5,3.5-1.57,3.5-3.5-1.57-3.5-3.5-3.5Zm0,6c-1.379,0-2.5-1.121-2.5-2.5s1.121-2.5,2.5-2.5,2.5,1.121,2.5,2.5-1.121,2.5-2.5,2.5ZM7.5,0c-1.93,0-3.5,1.57-3.5,3.5s1.57,3.5,3.5,3.5,3.5-1.57,3.5-3.5S9.43,0,7.5,0Zm0,1c.094,0,.186,.006,.277,.016l-2.761,2.761c-.01-.091-.016-.183-.016-.277,0-1.379,1.121-2.5,2.5-2.5Zm-2.118,3.825l3.444-3.444c.32,.201,.592,.473,.793,.793l-3.444,3.444c-.32-.201-.592-.473-.793-.793Zm2.118,1.175c-.094,0-.186-.006-.277-.016l2.761-2.761c.01,.091,.016,.183,.016,.277,0,1.379-1.121,2.5-2.5,2.5Zm9,1c1.93,0,3.5-1.57,3.5-3.5s-1.57-3.5-3.5-3.5-3.5,1.57-3.5,3.5,1.57,3.5,3.5,3.5Zm0-1c-.094,0-.186-.006-.277-.016l2.761-2.761c.01,.091,.016,.183,.016,.277,0,1.379-1.121,2.5-2.5,2.5Zm2.118-3.825l-3.444,3.444c-.32-.201-.592-.473-.793-.793l3.444-3.444c.32,.201,.592,.473,.793,.793Zm-2.118-1.175c.094,0,.186,.006,.277,.016l-2.761,2.761c-.01-.091-.016-.183-.016-.277,0-1.379,1.121-2.5,2.5-2.5Z"/></svg>
