<?xml version="1.0" encoding="UTF-8"?>
<svg xmlns="http://www.w3.org/2000/svg" id="Layer_1" data-name="Layer 1" viewBox="0 0 24 24">
  <path d="m20.68,9h3.32v-1h-3v-3h-1v3.264l-2.095,1.73c-.182-1.074-.658-2.07-1.378-2.903.296-.638.473-1.342.473-2.091,0-2.757-2.243-5-5-5s-5,2.243-5,5c0,.742.173,1.44.464,2.074-.715.829-1.186,1.843-1.371,2.919l-2.093-1.728v-3.264h-1v3H0v1h3.32l2.691,2.222c.022.596.129,1.169.314,1.709-.857,1.192-1.325,2.588-1.325,4.069,0,3.86,3.14,7,7,7s7-3.14,7-7c0-1.462-.482-2.877-1.328-4.059.186-.542.295-1.119.317-1.719l2.691-2.222ZM12,1c2.206,0,4,1.794,4,4s-1.794,4-4,4-4-1.794-4-4,1.794-4,4-4Zm-3.979,6.995c.913,1.21,2.349,2.005,3.979,2.005s3.06-.793,3.974-1.999c.653.864,1.026,1.903,1.026,2.999,0,2.757-2.243,5-5,5s-5-2.243-5-5c0-1.107.367-2.143,1.021-3.005Zm9.979,9.005c0,3.309-2.691,6-6,6s-6-2.691-6-6c0-1.071.286-2.09.813-2.997,1.04,1.789,2.973,2.997,5.187,2.997s4.151-1.211,5.19-3.003c.525.908.81,1.944.81,3.003Zm-7-11.5c0-.552.448-1,1-1s3,1,3,1c0,0-2.448,1-3,1s-1-.448-1-1Z"/>
</svg>
