<?xml version="1.0" encoding="UTF-8"?>
<svg xmlns="http://www.w3.org/2000/svg" id="Layer_1" data-name="Layer 1" viewBox="0 0 24 24" width="512" height="512"><path d="M12,1c-.684,0-1.35,.071-2,.191V.181c.652-.11,1.317-.181,2-.181s1.348,.071,2,.181V1.191c-.65-.12-1.316-.191-2-.191Zm1,4.395c0,1.176,.841,2.169,2.001,2.362l2.833,.473c.675,.112,1.166,.691,1.166,1.375,0,.769-.626,1.395-1.395,1.395h-2.21c-.769,0-1.395-.626-1.395-1.395v-.605h-1v.605c0,1.321,1.074,2.395,2.395,2.395h.605v1h1v-1h.605c1.321,0,2.395-1.074,2.395-2.395,0-1.176-.842-2.169-2.001-2.362l-2.833-.473c-.675-.112-1.165-.691-1.165-1.375,0-.769,.625-1.395,1.395-1.395h2.21c.769,0,1.395,.626,1.395,1.395v.605h1v-.605c0-1.321-1.074-2.395-2.395-2.395h-.605v-1h-1v1h-.605c-1.32,0-2.395,1.074-2.395,2.395Zm-6.605,6.605h.605v1h1v-1h.605c1.321,0,2.395-1.074,2.395-2.395,0-1.176-.842-2.169-2.001-2.362l-2.833-.473c-.675-.112-1.165-.691-1.165-1.375,0-.769,.625-1.395,1.395-1.395h2.21c.769,0,1.395,.626,1.395,1.395v.605h1v-.605c0-1.321-1.074-2.395-2.395-2.395h-.605v-1h-1v1h-.605c-1.32,0-2.395,1.074-2.395,2.395,0,1.176,.841,2.169,2.001,2.362l2.833,.473c.675,.112,1.166,.691,1.166,1.375,0,.769-.626,1.395-1.395,1.395h-2.21c-.769,0-1.395-.626-1.395-1.395v-.605h-1v.605c0,1.321,1.074,2.395,2.395,2.395Zm17.605,0c0-2.446-.74-4.722-2.002-6.621,0,.006,.002,.011,.002,.016v2.049c.636,1.39,1,2.93,1,4.556,0,0,0,0,0,0,0,6.065-4.935,11-11,11S1,18.065,1,12h0c0-1.845,.462-3.583,1.268-5.111-.169-.468-.268-.969-.268-1.494,0-.006,.002-.011,.002-.016C.739,7.278,0,9.554,0,12c0,0,0,0,0,0,0,6.616,5.383,11.999,12,11.999s12-5.383,12-12h0Zm-15,4.5v-.5h-2v-1h10v1h-2v.5c0,1.683-1.147,3.5-3,3.5s-3-1.817-3-3.5Zm5-.5h-4v.5c0,1.202,.765,2.5,2,2.5s2-1.298,2-2.5v-.5Z"/></svg>
