<?xml version="1.0" encoding="UTF-8"?>
<svg xmlns="http://www.w3.org/2000/svg" id="Layer_1" data-name="Layer 1" width="512" height="512" viewBox="0 0 24 24"><path d="M12.5,13h-1V3h1V13Zm-.5,4c.552,0,1-.448,1-1s-.448-1-1-1-1,.448-1,1,.448,1,1,1Zm12-4.5c0-3.812-1.63-6.524-2.603-7.803-.861-1.134-1.397-2.934-1.397-4.697h-1c0,2.002,.599,3.984,1.602,5.303,.896,1.178,2.398,3.68,2.398,7.197,0,5.151-3.936,8.023-4.648,8.5H5.648c-.712-.477-4.648-3.349-4.648-8.5,0-3.518,1.502-6.02,2.397-7.197,1.004-1.318,1.603-3.301,1.603-5.303h-1c0,1.764-.536,3.563-1.398,4.697-.972,1.278-2.602,3.991-2.602,7.803,0,5.51,3.956,8.563,5,9.272v2.228h1v-2h3v2h1v-2h4v2h1v-2h3v2h1v-2.228c1.044-.708,5-3.761,5-9.272Z"/></svg>
