<?xml version="1.0" encoding="UTF-8"?>
<svg xmlns="http://www.w3.org/2000/svg" id="Layer_1" data-name="Layer 1" viewBox="0 0 24 24" width="512" height="512"><path d="M20.5,8h-1.5V2.5c0-1.379-1.122-2.5-2.5-2.5H7.5c-1.378,0-2.5,1.121-2.5,2.5v5.5h-1.5c-1.378,0-2.5,1.121-2.5,2.5v8.5H11.5v4H6v1h12v-1h-5.5v-4h10.5V10.5c0-1.379-1.122-2.5-2.5-2.5Zm0,1c.827,0,1.5,.673,1.5,1.5v4.001c-.418-.315-.938-.501-1.5-.501h-1.5v-5h1.5ZM7.5,1h9c.827,0,1.5,.673,1.5,1.5V14H6V2.5c0-.827,.673-1.5,1.5-1.5ZM3.5,9h1.5v5h-1.5c-.562,0-1.082,.187-1.5,.501v-4.001c0-.827,.673-1.5,1.5-1.5Zm18.5,9H2v-1.5c0-.827,.673-1.5,1.5-1.5H20.5c.827,0,1.5,.673,1.5,1.5v1.5Z"/></svg>
