<?xml version="1.0" encoding="UTF-8"?>
<svg xmlns="http://www.w3.org/2000/svg" id="Layer_1" data-name="Layer 1" viewBox="0 0 24 24" width="512" height="512"><path d="M21.5,2H2.5C1.122,2,0,3.121,0,4.5V22H10.5l-1-1h-3.5V8H23v13H15v1h9V4.5c0-1.379-1.121-2.5-2.5-2.5ZM2.5,3h2.5V7H1v-2.5c0-.827,.673-1.5,1.5-1.5Zm2.5,18H1V8H5v13Zm1-14V3h15.5c.827,0,1.5,.673,1.5,1.5v2.5H6Zm10.5,12c1.379,0,2.5-1.121,2.5-2.5v-5.07l2.05,2.024,.703-.711-2.433-2.402c-.438-.439-1.206-.437-1.638-.003l-2.436,2.405,.703,.711,2.05-2.024v5.07c0,.827-.673,1.5-1.5,1.5h-5.083l2.023-2.067-.715-.699-2.394,2.446c-.439,.452-.439,1.188,0,1.642l2.393,2.445,.715-.699-2.023-2.067h5.083Z"/></svg>
