<?xml version="1.0" encoding="UTF-8"?>
<svg xmlns="http://www.w3.org/2000/svg" id="Layer_1" data-name="Layer 1" viewBox="0 0 24 24" width="512" height="512"><path d="M24,5.056c0-1.134-.547-2.199-1.464-2.849-1.422-1.007-3.679-2.207-6.354-2.207H7.818C5.143,0,2.886,1.2,1.464,2.207c-.917,.649-1.464,1.715-1.464,2.849v15.944H4v3H20v-3h4V5.056ZM15.327,1l-3.297,5.862L8.68,1h6.647ZM1,20V5.056c0-.811,.39-1.57,1.042-2.032,1.251-.887,3.2-1.936,5.489-2.019l3.927,6.873-4.006,7.122h-2.452V6h-1v14H1Zm4,3v-7h6.155c-.697,.987-2.155,3.26-2.155,5h1c0-1.414,1.272-3.418,1.925-4.354,.811,1.078,2.075,3.037,2.075,4.354h1c0-1.74-1.556-4.005-2.311-5h6.311v7H5Zm18-3h-3V6h-1V15H8.599L16.471,1.005c2.289,.083,4.236,1.133,5.487,2.019,.652,.462,1.042,1.222,1.042,2.032v14.944Z"/></svg>
