<?xml version="1.0" encoding="UTF-8"?>
<svg xmlns="http://www.w3.org/2000/svg" id="Layer_1" data-name="Layer 1" viewBox="0 0 24 24" width="512" height="512"><path d="M22.731,6.634L23.977-.007l-4.98,2.263c-1.971-1.419-4.388-2.257-6.997-2.257S6.974,.837,5.003,2.257L.023-.007,1.269,6.634c-.811,1.616-1.269,3.438-1.269,5.366,0,6.617,5.383,12,12,12s12-5.383,12-12c0-1.928-.458-3.75-1.269-5.366Zm-.093-4.935l-.677,3.616c-.589-.876-1.291-1.669-2.084-2.361l2.762-1.255ZM1.361,1.699l2.762,1.255c-.793,.692-1.495,1.485-2.084,2.361L1.361,1.699ZM12,23c-6.065,0-11-4.935-11-11S5.935,1,12,1s11,4.935,11,11-4.935,11-11,11Zm4.667-7.873l.666,.746c-.097,.086-2.414,2.127-5.333,2.127s-5.236-2.041-5.333-2.127l.666-.746c.021,.019,2.137,1.873,4.667,1.873s4.646-1.854,4.667-1.873Zm1.044-6.218l.578,.816-2.449,1.732c.101,.156,.16,.343,.16,.543,0,.552-.448,1-1,1s-1-.448-1-1c0-.44,.284-.813,.679-.947l3.032-2.144Zm-9.569,2.577l-2.435-1.764,.586-.81,2.912,2.108c.454,.094,.795,.497,.795,.979,0,.552-.448,1-1,1s-1-.448-1-1c0-.188,.052-.364,.142-.514Z"/></svg>
