<?xml version="1.0" encoding="UTF-8"?>
<svg xmlns="http://www.w3.org/2000/svg" id="Layer_1" data-name="Layer 1" viewBox="0 0 24 24" width="512" height="512"><path d="M12,24C5.38,24,0,18.62,0,12S5.38,0,12,0s12,5.38,12,12-5.38,12-12,12ZM12,1C5.93,1,1,5.93,1,12s4.93,11,11,11,11-4.93,11-11S18.07,1,12,1Zm3.81,12.21c.23-.34,.25-.77,.05-1.13-.19-.36-.57-.58-.97-.58h-5.78s-.08-.03-.09-.05c-.02-.02-.03-.06-.05-.02l3.47-6.76-.89-.46-3.51,6.84c-.1,.34-.04,.7,.17,.99,.21,.29,.54,.45,.9,.45h5.78s.07,.02,.09,.05,.02,.07-.03,.15l-3.4,6.52,.89,.46,3.37-6.48Z"/></svg>
