<?xml version="1.0" encoding="UTF-8"?>
<svg xmlns="http://www.w3.org/2000/svg" id="Layer_1" data-name="Layer 1" viewBox="0 0 24 24">
  <path d="m16.993,15c-.025,0,.026,0,0,0h0Z"/>
  <path d="m12,4c1.103,0,2-.897,2-2s-.897-2-2-2-2,.897-2,2,.897,2,2,2Zm0-3c.552,0,1,.449,1,1s-.448,1-1,1-1-.449-1-1,.448-1,1-1Z"/>
  <path d="m24,8.019c.077-2.039-.635-4.431-1.379-5.741-.636-1.122-2.036-1.582-3.261-1.071-2.919,1.223-5.83,4.11-7.36,5.938-1.53-1.829-4.441-4.716-7.36-5.938-1.222-.509-2.624-.051-3.261,1.07C.635,3.588-.077,5.98,0,8.019c.088,2.314,1.342,4.427,3.138,5.708-1.287,1.243-2.138,3-2.138,4.526,0,3.037,1.982,5.378,2.067,5.477l.201.234.299-.075c2.912-.728,6.29-2.993,7.933-5.389v3.501h1v-3.501c1.642,2.396,5.021,4.662,7.933,5.389l.299.075.201-.234c.085-.098,2.067-2.439,2.067-5.477,0-1.667-.806-3.39-2.094-4.559,1.766-1.287,3.007-3.388,3.094-5.675Zm-12.5,7.763c0,2.547-4.343,6.036-7.863,7.052-.467-.635-1.637-2.442-1.637-4.581,0-1.321.83-2.927,2.025-3.985.917.472,1.933.738,2.982.732,1.646-.022,3.254-.558,4.493-1.47v2.252Zm0-3.561c-1.113,1.094-2.781,1.756-4.507,1.779-3.008.074-5.872-2.829-5.993-6.019-.07-1.833.591-4.051,1.248-5.209.387-.682,1.248-.958,2.005-.641,2.926,1.225,5.878,4.273,7.247,5.983v4.108Zm10.5,6.032c0,2.139-1.17,3.946-1.637,4.581-3.521-1.017-7.863-4.505-7.863-7.052v-2.252c1.239.912,2.847,1.448,4.493,1.47,1.033,0,2.114-.273,3.023-.751,1.213.979,1.983,2.521,1.983,4.005Zm-4.993-4.253c-1.726-.023-3.394-.685-4.507-1.779v-4.108c1.369-1.711,4.321-4.759,7.247-5.983.756-.316,1.617-.041,2.005.642.657,1.158,1.318,3.376,1.248,5.209-.12,3.168-3,6.019-5.993,6.019Z"/>
</svg>
