<?xml version="1.0" encoding="UTF-8"?>
<svg xmlns="http://www.w3.org/2000/svg" id="Layer_1" data-name="Layer 1" viewBox="0 0 24 24" width="512" height="512"><path d="m21.18.588c-.578-.385-1.249-.588-1.941-.588h-7.738c-1.379,0-2.5,1.121-2.5,2.5v3.61c-2.972,1.212-5,4.135-5,7.39v10.5h16v-10.5c0-3.255-2.028-6.178-5-7.39V1h4.238c.494,0,.974.146,1.387.42l2.502,1.668.555-.832-2.502-1.668Zm-11.18,1.912c0-.827.673-1.5,1.5-1.5h2.5v5h-4v-3.5Zm9,11v9.5H5v-9.5c0-2.88,1.814-5.462,4.462-6.5h5.076c2.648,1.038,4.462,3.62,4.462,6.5Zm-6.5,1h3.5v1h-3.5v3.5h-1v-3.5h-3.5v-1h3.5v-3.5h1v3.5Z"/></svg>
