<?xml version="1.0" encoding="UTF-8"?>
<svg xmlns="http://www.w3.org/2000/svg" id="Layer_1" data-name="Layer 1" viewBox="0 0 24 24" width="512" height="512"><path d="M12,0C5.383,0,0,5.383,0,12s5.383,12,12,12h12V12C24,5.383,18.617,0,12,0Zm11,23H12c-6.065,0-11-4.935-11-11S5.935,1,12,1s11,4.935,11,11v11Zm-7.063-14.722c.298,1.701-.509,3.4-2.009,4.227-.761,.42-1.428,1.647-1.428,2.628v.867h-1v-.867c0-1.34,.873-2.912,1.946-3.503,1.143-.631,1.734-1.878,1.506-3.179-.211-1.203-1.2-2.191-2.404-2.403-.905-.155-1.784,.073-2.476,.653-.681,.572-1.072,1.41-1.072,2.299h-1c0-1.186,.521-2.302,1.429-3.064,.908-.763,2.107-1.08,3.292-.872,1.611,.282,2.933,1.604,3.216,3.215Zm-2.937,10.722c0,.552-.448,1-1,1s-1-.448-1-1,.448-1,1-1,1,.448,1,1Z"/></svg>
