<?xml version="1.0" encoding="UTF-8"?>
<svg xmlns="http://www.w3.org/2000/svg" id="Layer_1" data-name="Layer 1" viewBox="0 0 24 24">
  <path d="m20.049,19.811l.096.158-.31,1.929c-.196,1.218-1.234,2.103-2.468,2.103h-5.367v-1h5.367c.741,0,1.363-.531,1.481-1.262l.251-1.565c-.357-.594-1.132-1.935-1.201-2.479-.16-1.263-.806-2.117-2.033-2.685l-.238-.118c-.461-.233-1.42-.719-2.212-.855l-.416-.071v-2.914c-1.14.232-2,1.242-2,2.45v1.118l-.232.147c-2.686,1.7-5.768,4.286-5.768,9.235h-1c0-5.34,3.355-8.218,6-9.931v-.569c0-1.93,1.57-3.5,3.5-3.5h.5v3.142c.819.218,1.648.639,2.08.857l.207.103c1.548.717,2.4,1.852,2.604,3.467.034.262.626,1.371,1.159,2.241Zm1.724-13.811c-.978,0-1.898-.431-2.524-1.183l-.229-.275c-.817-.98-2.017-1.542-3.292-1.542h-.727V0h-.5c-1.93,0-3.5,1.57-3.5,3.5v1.392l-3.753,5.108H0v1h7.753l4.247-5.78v-1.72c0-1.208.86-2.217,2-2.45v2.95h1.727c.978,0,1.898.431,2.524,1.183l.229.275c.817.98,2.017,1.542,3.292,1.542h1.227v2.5c0,1.93-1.57,3.5-3.5,3.5h-1.159c.412.296.777.63,1.094,1h.065c2.481,0,4.5-2.019,4.5-4.5v-3.5h-2.227Zm-5.773,12c0-.552-.448-1-1-1s-1,.448-1,1,.448,1,1,1,1-.448,1-1Zm1-10c.552,0,1-.448,1-1s-.448-1-1-1-1,.448-1,1,.448,1,1,1Z"/>
</svg>
