<?xml version="1.0" encoding="UTF-8"?>
<svg xmlns="http://www.w3.org/2000/svg" id="Layer_1" data-name="Layer 1" viewBox="0 0 24 24">
  <path d="m8.158,7.403c1.236,1.031,2.516,2.097,4.183,2.097,2.142,0,3.932-1.489,4.475-3.5.891.534,1.726,1.349,2.483,2.59l.854-.521c-.955-1.566-2.033-2.528-3.172-3.124.003-.067.019-.129.019-.196,0-2.619-2.09-4.75-4.659-4.75C6.754,0,4.275,4.61,4.172,4.807l-.383.732h.826c1.305,0,2.392.906,3.543,1.865ZM12.341,1c1.939,0,3.515,1.559,3.636,3.516-1.298-.444-2.65-.516-3.977-.516v1c1.35,0,2.672.069,3.91.556-.361,1.681-1.822,2.944-3.569,2.944-1.305,0-2.392-.906-3.543-1.865-1.017-.848-2.062-1.719-3.329-2.002.858-1.191,3.08-3.633,6.872-3.633Zm9.914,10.322l-.449-.686-.404.714c-.674,1.192-1.912,1.889-3.223,2.627-1.373.773-2.792,1.572-3.604,3.007-.619,1.095-.771,2.364-.43,3.572.149.527.399,1.005.708,1.439-.818.309-1.756.505-2.852.505v1c1.388,0,2.575-.26,3.574-.692.255.223.53.425.834.593.733.405,1.528.597,2.313.597,1.67,0,3.294-.869,4.166-2.41,2.792-4.937-.491-10.052-.633-10.267Zm-.238,9.774c-1.014,1.79-3.312,2.43-5.124,1.43-.123-.068-.229-.156-.343-.235,1.61-1.007,2.596-2.501,3.031-3.941l-.957-.289c-.393,1.302-1.323,2.651-2.856,3.516-.301-.379-.526-.816-.661-1.293-.269-.95-.148-1.947.339-2.808.674-1.192,1.913-1.89,3.224-2.627,1.131-.637,2.294-1.292,3.122-2.306.74,1.474,2.163,5.129.226,8.554Zm-13.096.014c-.011-.782.141-1.59.286-2.372.27-1.446.548-2.941-.126-4.426-.536-1.18-1.494-2.075-2.699-2.52-.711-.262-1.456-.327-2.189-.239.207-.879.57-1.666,1.031-2.202l-.758-.651c-.686.799-1.158,1.917-1.354,3.118-.12.045-.243.072-.36.127C.369,13.058-.679,15.93.418,18.346c2.396,5.279,8.307,5.505,8.558,5.512l.835.023-.374-.747c-.333-.666-.507-1.347-.516-2.025Zm-.697-2.555c-.154.829-.314,1.687-.303,2.568.007.553.103,1.104.283,1.646-1.612-.254-5.234-1.222-6.876-4.836-.844-1.86-.083-4.046,1.684-4.984-.026,1.638.472,3.295,1.643,4.412l.689-.724c-1.087-1.037-1.431-2.593-1.312-4.06.236-.047.475-.079.715-.079.434,0,.868.077,1.288.232.952.352,1.71,1.06,2.135,1.995.544,1.198.305,2.476.053,3.83Z"/>
</svg>
