<?xml version="1.0" encoding="UTF-8"?>
<svg xmlns="http://www.w3.org/2000/svg" id="Layer_1" data-name="Layer 1" viewBox="0 0 24 24">
  <path d="m22,11.5c0-1.93-1.57-3.5-3.5-3.5H5.5c-1.93,0-3.5,1.57-3.5,3.5v1.5H0v9h2v2h1v-2h18v2h1v-2h2v-9h-2v-1.5Zm-16.5-2.5h13c1.378,0,2.5,1.122,2.5,2.5v1.551c-1.14.232-2,1.242-2,2.449v1.5H5v-1.5c0-1.207-.86-2.217-2-2.449v-1.551c0-1.378,1.122-2.5,2.5-2.5Zm17.5,12H1v-7h1.5c.827,0,1.5.673,1.5,1.5v2.5h16v-2.5c0-.827.673-1.5,1.5-1.5h1.5v7ZM.39,4.414c-.236-.209-.39-.554-.39-.914s.154-.705.422-.946L2.773.02l.732.681L1.37,3h21.263l-2.157-2.318L21.208.001l2.402,2.584c.236.209.39.554.39.914s-.154.705-.422.946l-2.366,2.548-.732-.681,2.15-2.313H1.367l2.158,2.319-.732.681L.39,4.414Z"/>
</svg>
