<?xml version="1.0" encoding="UTF-8"?>
<svg xmlns="http://www.w3.org/2000/svg" id="Layer_1" data-name="Layer 1" viewBox="0 0 24 24" width="512" height="512"><path d="m16.784,6c-.593,0-1.077.194-1.43.408-.879-.439-1.668-.561-2.479-.199-.122-.058-.244-.103-.366-.137.205-4.93,3.952-5.072,3.991-5.072.692,0,1.5.322,1.5,1.231,0,.31-.318.769-1,.769v1c1.252,0,2-.899,2-1.769,0-1.313-1.028-2.231-2.5-2.231-.989,0-3.375.694-4.454,3.374-.512-1.525-1.455-2.638-2.822-3.321l-.447.895c1.738.869,2.628,2.548,2.716,5.124-.13.036-.259.084-.388.147-.816-.374-1.611-.253-2.497.189-.353-.214-.837-.408-1.43-.408C4.409,6,0,10.119,0,15s4.419,9,7.195,9c.448,0,.868-.116,1.251-.346.483.229.957.346,1.411.346.354,0,.81-.12,1.17-.256.672.357,1.376.333,2.024-.037.333.153.726.293,1.053.293.454,0,.928-.116,1.411-.346.383.23.803.346,1.25.346,2.776,0,7.195-4.119,7.195-9s-4.409-9-7.177-9Zm-.018,17c-.333,0-1.17-.526-1.17-.526,0,0-.903.526-1.491.526-.374,0-1.133-.455-1.133-.455l-.251.186c-.456.336-.888.366-1.374.04l-.234-.156s-.843.386-1.255.386c-.645,0-1.492-.526-1.492-.526,0,0-.836.526-1.17.526-2.093,0-6.195-3.622-6.195-8S5.09,7,7.177,7c.823,0,1.361.591,1.361.591,0,0,.962-.591,1.624-.591.216,0,.962.371.962.371l.257-.164c.434-.274.785-.28,1.223-.009l.253.156s.678-.355.942-.355c.701,0,1.624.591,1.624.591,0,0,.577-.591,1.361-.591,2.087,0,6.177,3.622,6.177,8s-4.102,8-6.195,8Zm-1.266-14.008l-2.862,5.008h5.724l-2.862-5.008Zm0,2.016l1.138,1.992h-2.276l1.138-1.992Zm-7-2.016l-2.862,5.008h5.724l-2.862-5.008Zm0,2.016l1.138,1.992h-2.276l1.138-1.992Zm3.5,5.992c4.5,0,7-1,7-1,0,0-1.593,2.114-4,3.267v-1.267h-2v1.908c-.326.054-.658.092-1,.092-4,0-7-4-7-4,0,0,1.404.561,4,.843v1.157h2v-1.019c.323.011.653.019,1,.019Z"/></svg>
