<?xml version="1.0" encoding="UTF-8"?>
<svg xmlns="http://www.w3.org/2000/svg" id="Layer_1" data-name="Layer 1" viewBox="0 0 24 24">
  <path d="m23.268,6.297L17.703.732c-.473-.472-1.101-.732-1.769-.732h-7.87c-.667,0-1.295.26-1.768.732L.732,6.297c-.472.472-.732,1.1-.732,1.768v7.87c0,.667.26,1.295.732,1.768l5.565,5.565c.472.472,1.1.732,1.768.732h7.87c.668,0,1.296-.26,1.769-.732l5.564-5.565c.473-.472.732-1.1.732-1.768v-7.87c0-.667-.26-1.295-.732-1.768Zm-.268,9.638c0,.395-.16.781-.439,1.061l-5.564,5.565c-.283.283-.66.439-1.062.439h-7.87c-.395,0-.781-.16-1.061-.439l-5.565-5.565c-.279-.279-.439-.666-.439-1.061v-7.87c0-.395.16-.781.439-1.061L7.004,1.439c.279-.279.666-.439,1.061-.439h7.87c.401,0,.778.156,1.062.439l5.564,5.565c.279.279.439.666.439,1.061v7.87Zm-6.164-8.064l-4.146,4.146,4.146,4.146-.707.707-4.146-4.146-4.146,4.146-.707-.707,4.146-4.146-4.146-4.146.707-.707,4.146,4.146,4.146-4.146.707.707Z"/>
</svg>
