<?xml version="1.0" encoding="UTF-8"?>
<svg xmlns="http://www.w3.org/2000/svg" id="Layer_1" data-name="Layer 1" viewBox="0 0 24 24">
  <path d="m13,11h4v1h-4v-1ZM21,2v19.5c0,1.378-1.121,2.5-2.5,2.5H5.5c-1.379,0-2.5-1.122-2.5-2.5V2h5.05c.232-1.14,1.243-2,2.45-2h3c1.207,0,2.218.86,2.45,2h5.05Zm-1,1h-5v-.5c0-.827-.673-1.5-1.5-1.5h-3c-.827,0-1.5.673-1.5,1.5v.5h-5v18.5c0,.827.673,1.5,1.5,1.5h13c.827,0,1.5-.673,1.5-1.5V3Zm-11.216,7.952c-.056.056-.18.055-.241-.006l-1.778-1.721-.695.719,1.772,1.716c.221.22.514.341.825.341s.604-.122.821-.339l3.362-3.305-.701-.713-3.365,3.308Zm4.216,7.048h4v-1h-4v1Zm-4.216-1.048c-.056.057-.18.055-.241-.006l-1.778-1.721-.695.719,1.772,1.716c.221.22.514.341.825.341s.604-.122.821-.339l3.362-3.305-.701-.713-3.365,3.308Z"/>
</svg>
