<?xml version="1.0" encoding="UTF-8"?>
<svg xmlns="http://www.w3.org/2000/svg" id="Layer_1" data-name="Layer 1" viewBox="0 0 24 24">
  <path d="m11.492,17l.508,7h-1.003l-.493-6.794-2.005,4.41-2.005-4.41-.493,6.794h-1.003l.508-7c.043-.705.472-1,.988-1,.342,0,.66.242.841.64l1.164,2.56,1.164-2.56c.181-.398.499-.64.841-.64.516,0,.945.295.988,1Zm6.508,1.5v3c0,1.379-1.121,2.5-2.5,2.5s-2.5-1.121-2.5-2.5v-3c0-1.379,1.121-2.5,2.5-2.5s2.5,1.121,2.5,2.5Zm-1,0c0-.827-.673-1.5-1.5-1.5s-1.5.673-1.5,1.5v3c0,.827.673,1.5,1.5,1.5s1.5-.673,1.5-1.5v-3Zm6,3.117l-3.21-5.617h-.79v8h1v-5.617l3.21,5.617h.79v-8h-1v5.617Zm1-17.117v9.5h-1v-5H1v14h2.067l-.073,1H0V4.5c0-1.378,1.122-2.5,2.5-2.5h3.5V0h1v2h10V0h1v2h3.5c1.379,0,2.5,1.122,2.5,2.5Zm-1,0c0-.827-.673-1.5-1.5-1.5H2.5c-.827,0-1.5.673-1.5,1.5v3.5h22v-3.5Z"/>
</svg>
