<?xml version="1.0" encoding="UTF-8"?>
<svg xmlns="http://www.w3.org/2000/svg" id="Layer_1" data-name="Layer 1" viewBox="0 0 24 24">
  <path d="m18.902,16.614l-5.654,5.654c-.487.487-1.127.731-1.768.731s-1.281-.244-1.768-.731l-3.384-3.384.707-.707,3.384,3.384c.584.584,1.536.585,2.122,0l5.654-5.654.707.707Zm5.098-1.614c0-3.741-2.591-6.966-6.208-7.792-.826-3.617-4.051-6.208-7.792-6.208C5.589,1,2,4.589,2,9c0,1.271.308,2.526.894,3.659-1.774.953-2.894,2.797-2.894,4.841,0,3.033,2.467,5.5,5.5,5.5h2.117l-1-1h-1.117c-2.481,0-4.5-2.019-4.5-4.5,0-1.826,1.092-3.458,2.782-4.157l.539-.223-.303-.499c-.667-1.098-1.019-2.351-1.019-3.622,0-3.86,3.14-7,7-7,3.373,0,6.265,2.406,6.877,5.722l.062.338.338.062c3.315.612,5.722,3.505,5.722,6.877,0,3.139-2.11,5.913-5.131,6.748,0,0-.001,0-.002,0-.486.134-.99.2-1.498.227l-1.025,1.025h.656c.724,0,1.442-.097,2.133-.288.001,0,.002,0,.003-.001,3.452-.955,5.863-4.125,5.863-7.711Z"/>
</svg>
