<?xml version="1.0" encoding="UTF-8"?>
<svg xmlns="http://www.w3.org/2000/svg" id="Layer_1" data-name="Layer 1" viewBox="0 0 24 24">
  <path d="m22.854,4.903l-1.312-1.197c-.925-2.252-3.099-3.706-5.541-3.706-2.548,0-5.892,1.118-7.636,4.257l-.413.743h2.101c-.987,1.002-1.553,2.496-1.553,3.654,0,2.647,2.564,4.888,2.674,4.981l.826.712v-2.545c.913,1.728,2.455,4.083,4.596,5.742l.404.309v5.146h-2v-4H7v4h-2v-5s-.262-.909-.38-1.256c-.35-1.03-.627-1.844-.62-3.241.007-1.403,1.105-2.503,2.5-2.503h1.071c-.238-.354-.448-.69-.494-1h-.577c-.895,0-1.694.334-2.307.873-.259.055-3.399.878-3.666,7.262-.309.17-.527.487-.527.865,0,.552,1,2,1,2,0,0,1-1.448,1-2,0-.356-.196-.654-.476-.831.121-2.856.845-4.439,1.541-5.302-.037.205-.064.414-.065.63-.008,1.565.323,2.538.673,3.568.107.315.219.644.327,1.007v5.928h4v-4h6v4h4v-7.514c1.541-2.185,2.505-4.025,2.891-5.497.037.001.609.011.609.011,1.378,0,2.5-1.121,2.5-2.5v-2.45l-1.146-1.146Zm-5.847,11.251h-.006v.009c-.065.09-.123.176-.189.267-2.801-2.383-4.557-6.161-4.815-7.067l-.118-.363h-.877v3.015c-.669-.795-1.5-2.048-1.5-3.36,0-1.17,1.263-3.203,2.5-3.869v-.785h-2.283c1.633-2.198,4.329-3,6.283-3,1.666,0,3.172.821,4.09,2.145-1.788.444-3.09,2.018-3.09,3.855,0,1.823,1.232,3.347,2.902,3.828-.384,1.391-1.355,3.177-2.896,5.327Zm5.994-7.654c0,.827-.673,1.5-1.5,1.5h-.5c-1.654,0-3-1.346-3-3,0-1.42,1.042-2.643,2.458-2.93l1.697,1.548.845.846v2.036Z"/>
</svg>
