<?xml version="1.0" encoding="UTF-8"?>
<svg xmlns="http://www.w3.org/2000/svg" id="Layer_1" data-name="Layer 1" viewBox="0 0 24 24" width="512" height="512"><path d="m17,6.579V1h2V0H5v1h2v5.537C2.736,8.404,0,12.448,0,16.929c0,2.495.838,4.875,2.423,6.881l.15.19h18.854l.15-.19c1.585-2.007,2.423-4.386,2.423-6.881,0-4.417-2.736-8.445-7-10.35Zm3.939,16.421H3.061c-1.349-1.788-2.061-3.881-2.061-6.071,0-4.181,2.625-7.948,6.688-9.597l.312-.127V1h8v6.241l.308.128c4.065,1.69,6.692,5.442,6.692,9.56,0,2.19-.712,4.284-2.061,6.071Zm-5.939-9c0,.552-.448,1-1,1s-1-.448-1-1,.448-1,1-1,1,.448,1,1Zm-4,0c0,.552-.448,1-1,1s-1-.448-1-1,.448-1,1-1,1,.448,1,1Zm1-5c-2.757,0-5,2.243-5,5v4h2v2h6v-2h2v-4c0-2.757-2.243-5-5-5Zm4,8h-2v2h-4v-2h-2v-3c0-2.206,1.794-4,4-4s4,1.794,4,4v3Z"/></svg>
