<?xml version="1.0" encoding="UTF-8"?>
<svg xmlns="http://www.w3.org/2000/svg" id="Layer_1" data-name="Layer 1" viewBox="0 0 24 24">
  <path d="m19.88,15.016c-.462-2.317-2.488-4.016-4.88-4.016-2.757,0-5,2.243-5,5,0,.338.038.676.116,1.021-1.75.192-3.116,1.68-3.116,3.479,0,1.93,1.57,3.5,3.5,3.5h9c2.481,0,4.5-2.019,4.5-4.5,0-2.354-1.815-4.291-4.12-4.484Zm-.38,7.984h-9c-1.378,0-2.5-1.121-2.5-2.5s1.122-2.5,2.5-2.5h.986l-.239-.668c-.166-.467-.247-.902-.247-1.332,0-2.206,1.794-4,4-4,2.028,0,3.728,1.53,3.953,3.561l.05.444h.447l.076-.005c1.918.015,3.474,1.579,3.474,3.5s-1.57,3.5-3.5,3.5Zm-14.48-2.099c.026.357.086.704.177,1.039-2.93-.394-5.198-2.904-5.198-5.94,0-1.977.991-3.833,2.613-4.946-.407-.976-.613-2.001-.613-3.054C2,3.589,5.589,0,10,0c3.698,0,6.912,2.55,7.773,6.113,3.574.61,6.227,3.726,6.227,7.387,0,.417-.047.828-.115,1.236-.284-.262-.593-.495-.92-.704.015-.177.035-.353.035-.532,0-3.276-2.451-6.048-5.702-6.446l-.36-.044-.07-.356c-.639-3.275-3.526-5.653-6.867-5.653-3.86,0-7,3.141-7,7,0,1.049.234,2.067.697,3.027l.201.417-.4.232c-1.54.894-2.497,2.551-2.497,4.323,0,2.421,1.731,4.444,4.02,4.901Z"/>
</svg>
