<?xml version="1.0" encoding="UTF-8"?>
<svg xmlns="http://www.w3.org/2000/svg" id="Layer_1" data-name="Layer 1" viewBox="0 0 24 24" width="512" height="512"><path d="M7,11c0,2.588,1.977,4.723,4.5,4.975v3.025h-2.5v1h6v-1h-2.5v-3.025c2.523-.252,4.5-2.387,4.5-4.975V4H7v7Zm1-6h3.817l-2.154,4h2.975l-1.572,2.752,.868,.496,2.428-4.248h-3.025l1.616-3h3.047v6c0,2.206-1.794,4-4,4s-4-1.794-4-4V5ZM21.5,0H2.5C1.122,0,0,1.122,0,2.5V24H24V2.5c0-1.378-1.122-2.5-2.5-2.5Zm1.5,23H1V2.5c0-.827,.673-1.5,1.5-1.5H21.5c.827,0,1.5,.673,1.5,1.5V23Z"/></svg>
