<?xml version="1.0" encoding="UTF-8"?>
<svg xmlns="http://www.w3.org/2000/svg" id="Layer_1" data-name="Layer 1" viewBox="0 0 24 24" width="512" height="512"><path d="M17.25,16.54c.26-.34,.55-.66,.87-.96,1.83-1.69,2.88-4.09,2.88-6.58s-1.1-5.01-3.01-6.72C16.07,.57,13.5-.24,10.94,.06c-2.52,.29-4.86,1.71-6.34,3.82L.75,.04,.05,.75,23.25,23.95l.71-.71-6.7-6.7ZM11.05,1.05c2.32-.27,4.55,.43,6.27,1.97,1.7,1.52,2.68,3.69,2.68,5.97s-.91,4.31-2.56,5.84c-.33,.3-.63,.63-.9,.98L5.32,4.6c1.3-1.96,3.43-3.29,5.73-3.55Zm-2.45,16.95c-.41-1.19-1.11-2.28-2.06-3.17-1.93-1.8-2.82-4.35-2.46-6.98,0-.07,.02-.14,.03-.21l-.84-.84c-.07,.3-.13,.6-.18,.91-.41,2.96,.59,5.83,2.76,7.85,1.36,1.27,2.15,3.03,2.15,4.82v3.62h8v-3.85c0-.2,.01-.39,.03-.59l-1.56-1.56h-5.87Zm6.4,2.15v2.85h-6v-2.62c0-.46-.05-.92-.13-1.38h6.23c-.07,.38-.1,.76-.1,1.15Z"/></svg>
