<?xml version="1.0" encoding="UTF-8"?>
<svg xmlns="http://www.w3.org/2000/svg" id="Layer_1" data-name="Layer 1" viewBox="0 0 24 24" width="512" height="512"><path d="M20,7.036v-.536c0-3.584-2.916-6.5-6.5-6.5H7.5C3.916,0,1,2.916,1,6.5v7.868c0,1.549,.47,3.038,1.359,4.306l.641,.914v4.412H20v-4.355l.668-.635c1.482-1.409,2.332-3.39,2.332-5.435v-3.075c0-1.76-1.306-3.221-3-3.464ZM4,23v-3h15v3H4ZM22,13.575c0,1.772-.736,3.489-2.021,4.71l-.752,.715H3.809l-.631-.9c-.771-1.099-1.178-2.39-1.178-3.732v-5.422c.636,.65,1.522,1.053,2.5,1.053H14v-1H4.5c-1.378,0-2.5-1.122-2.5-2.5C2,3.467,4.467,1,7.5,1h6c3.032,0,5.5,2.467,5.5,5.5v.536c-1.694,.243-3,1.704-3,3.464v4.5h1v-4.5c0-1.378,1.121-2.5,2.5-2.5s2.5,1.122,2.5,2.5v3.075Z"/></svg>
