<?xml version="1.0" encoding="UTF-8"?>
<svg xmlns="http://www.w3.org/2000/svg" id="Layer_1" data-name="Layer 1" viewBox="0 0 24 24" width="512" height="512"><path d="M22.01,15H8.96l-3-3,3-3h13.05c1.1,0,2,.9,2,2v2c0,1.1-.9,2-2,2Zm-12.64-1h12.64c.55,0,1-.45,1-1v-2c0-.55-.45-1-1-1H9.37l-2,2,2,2ZM19,6H8.96l-3-3L8.96,0h10.04c1.1,0,2,.9,2,2v2c0,1.1-.9,2-2,2Zm-9.63-1h9.63c.55,0,1-.45,1-1V2c0-.55-.45-1-1-1H9.37l-2,2,2,2Zm7.63,19H8.96l-3-3,3-3h8.04c1.1,0,2,.9,2,2v2c0,1.1-.9,2-2,2Zm-7.63-1h7.63c.55,0,1-.45,1-1v-2c0-.55-.45-1-1-1h-7.63l-2,2,2,2Zm-7.37,0c-1.1,0-2-.9-2-2s.9-2,2-2,2,.9,2,2-.9,2-2,2Zm0-3c-.55,0-1,.45-1,1s.45,1,1,1,1-.45,1-1-.45-1-1-1Zm0-6c-1.1,0-2-.9-2-2s.9-2,2-2,2,.9,2,2-.9,2-2,2Zm0-3c-.55,0-1,.45-1,1s.45,1,1,1,1-.45,1-1-.45-1-1-1Zm0-6c-1.1,0-2-.9-2-2S.9,1,2,1s2,.9,2,2-.9,2-2,2Zm0-3c-.55,0-1,.45-1,1s.45,1,1,1,1-.45,1-1-.45-1-1-1Z"/></svg>
