<?xml version="1.0" encoding="UTF-8"?>
<svg xmlns="http://www.w3.org/2000/svg" id="Layer_1" data-name="Layer 1" viewBox="0 0 24 24" width="512" height="512"><path d="M23.948,12.247l-.879-4.253c-.239-1.155-1.269-1.994-2.448-1.994h-1.267c-.878,0-1.702,.47-2.15,1.226l-1.052,1.774H7.848l-1.052-1.774c-.449-.756-1.272-1.226-2.15-1.226h-1.267c-1.18,0-2.209,.839-2.448,1.994L.052,12.247c-.209,1.015,.238,2.066,1.112,2.619l3.836,2.426v6.708h1v-7.259l-1.307-.827,1.585-7.602,1.722,2.904v5.783h8v-5.784l1.722-2.904,1.586,7.602-1.308,.827v7.259h1v-6.708l3.836-2.426c.875-.553,1.322-1.604,1.112-2.619ZM3.86,15.388l-2.162-1.367c-.525-.331-.793-.963-.667-1.57l.879-4.253c.143-.694,.761-1.197,1.469-1.197h1.267c.33,0,.639,.12,.896,.314l-1.682,8.074Zm11.14,.612h-6v-6h6v6Zm7.302-1.979l-2.161,1.367-1.683-8.073c.257-.194,.567-.314,.896-.314h1.267c.708,0,1.326,.503,1.469,1.197l.879,4.253c.126,.607-.142,1.239-.667,1.57Zm-3.802-9.021c1.378,0,2.5-1.121,2.5-2.5s-1.122-2.5-2.5-2.5-2.5,1.121-2.5,2.5,1.122,2.5,2.5,2.5Zm0-4c.827,0,1.5,.673,1.5,1.5s-.673,1.5-1.5,1.5-1.5-.673-1.5-1.5,.673-1.5,1.5-1.5ZM5.5,5c1.378,0,2.5-1.121,2.5-2.5S6.879,0,5.5,0,3,1.121,3,2.5s1.122,2.5,2.5,2.5Zm0-4c.827,0,1.5,.673,1.5,1.5s-.673,1.5-1.5,1.5-1.5-.673-1.5-1.5,.673-1.5,1.5-1.5ZM24,24h-1.026l-1.317-6.021,.898-.568,1.445,6.59ZM1.445,17.411l.898,.568-1.317,6.021H0l1.445-6.59Z"/></svg>
