<?xml version="1.0" encoding="UTF-8"?>
<svg xmlns="http://www.w3.org/2000/svg" id="Layer_1" data-name="Layer 1" viewBox="0 0 24 24">
  <path d="m8,12c3.309,0,6-2.691,6-6S11.309,0,8,0,2,2.691,2,6s2.691,6,6,6Zm0-11c2.757,0,5,2.243,5,5s-2.243,5-5,5-5-2.243-5-5S5.243,1,8,1Zm4,14h-7c-2.206,0-4,1.794-4,4v5H0v-5c0-2.757,2.243-5,5-5h7v1Zm8.698-1.698c.391.391.391,1.024,0,1.414s-1.024.391-1.414,0-.391-1.024,0-1.414c.391-.391,1.024-.391,1.414,0Zm-1.698-3.302c-2.757,0-5,2.243-5,5,0,.428.063.858.192,1.31l-.718.736.019,1.454h-1.493v2h-2v3.5s3.537,0,3.537,0l4.184-4.184c.444.124.866.185,1.28.185,2.757,0,5-2.243,5-5s-2.243-5-5-5Zm0,9c-.396,0-.81-.073-1.262-.226l-.294-.098-4.322,4.322h-2.122s0-1.499,0-1.499h2v-2h1.507l-.026-2.054.852-.873-.101-.291c-.155-.454-.231-.874-.231-1.282,0-2.206,1.794-4,4-4s4,1.794,4,4-1.794,4-4,4Z"/>
</svg>
