<?xml version="1.0" encoding="UTF-8"?>
<svg xmlns="http://www.w3.org/2000/svg" id="Layer_1" data-name="Layer 1" viewBox="0 0 24 24" width="512" height="512"><path d="m21.5,3H2.5c-1.378,0-2.5,1.121-2.5,2.5v15.5h24V5.5c0-1.379-1.121-2.5-2.5-2.5Zm1.5,17H1V5.5c0-.827.673-1.5,1.5-1.5h19c.827,0,1.5.673,1.5,1.5v14.5Z"/><path d="m7,7c-.553,0-1.031.39-1.218.995l-2.782,9.021h1.046l.954-3.093v.076h4v-.076l.953,3.093h1.046l-2.782-9.022c-.187-.604-.665-.994-1.218-.994Zm-1.715,6l1.452-4.71c.045-.145.143-.29.263-.29s.218.146.263.289l1.452,4.711h-3.43Z"/></svg>
