<?xml version="1.0" encoding="UTF-8"?>
<svg xmlns="http://www.w3.org/2000/svg" id="Layer_1" data-name="Layer 1" viewBox="0 0 24 24" width="512" height="512"><path d="M18,13c0,.552-.448,1-1,1s-1-.448-1-1,.448-1,1-1,1,.448,1,1Zm-3-4c-.552,0-1,.448-1,1s.448,1,1,1,1-.448,1-1-.448-1-1-1Zm5.109,11.109c-2.862,2.862-6.854,3.898-10.387,3.898-1.98,0-3.816-.325-5.229-.836-.505,.505-1.239,.828-1.902,.828s-1.327-.253-1.832-.758C.255,22.737,.002,22.075,.001,21.413c-.001-.665,.322-1.4,.828-1.907C-.595,15.575-.577,8.358,3.891,3.891,8.358-.576,15.575-.593,19.507,.829,20.035,.301,20.807-.022,21.5,.002c.633,.022,1.259,.274,1.741,.756,.482,.482,.734,1.108,.756,1.741,.024,.693-.298,1.465-.826,1.993,1.424,3.932,1.406,11.148-3.062,15.616Zm1.893-15.861l.532-.532c.3-.3,.466-.7,.466-1.125s-.166-.825-.466-1.125c-.601-.601-1.649-.601-2.25,0l-.532,.532-.306-.122c-1.31-.523-3.131-.865-5.119-.865-3.314,0-7.091,.95-9.729,3.587C.378,8.817,.479,15.952,1.876,19.446l.122,.306-.532,.532c-.3,.3-.466,.7-.466,1.125s.166,.825,.466,1.125c.601,.601,1.649,.601,2.25,0l.532-.532,.306,.122c3.493,1.397,10.628,1.497,14.848-2.722,4.22-4.22,4.119-11.354,2.722-14.848l-.122-.306Zm-3.002,4.752c-.552,0-1,.448-1,1s.448,1,1,1,1-.448,1-1-.448-1-1-1Z"/></svg>
