<?xml version="1.0" encoding="UTF-8"?>
<svg xmlns="http://www.w3.org/2000/svg" id="Layer_1" data-name="Layer 1" viewBox="0 0 24 24">
  <path d="m23.368,1.836l-1.205-1.204c-.725-.725-1.871-.838-2.768-.237l-7.664,6.437c-.321-.049-.647-.082-.982-.082-3.584,0-6.5,2.916-6.5,6.5,0,.299.027.59.067.878L.112,18.333l5.657,5.657,4.278-4.279c.231.025.465.04.703.04,3.584,0,6.5-2.916,6.5-6.5,0-.272-.022-.538-.055-.802l6.442-7.888c.568-.853.455-1.998-.27-2.724ZM5.77,22.575l-4.243-4.243,3.053-3.053c.661,2.004,2.269,3.579,4.294,4.191l-3.103,3.104Zm4.98-3.825c-3.032,0-5.5-2.467-5.5-5.5s2.468-5.5,5.5-5.5,5.5,2.467,5.5,5.5-2.468,5.5-5.5,5.5ZM22.835,3.966l-5.919,7.24c-.63-1.896-2.111-3.402-3.988-4.073l7.067-5.939c.458-.305,1.072-.245,1.462.145l1.205,1.204c.389.389.449,1.004.174,1.423Z"/>
  <polygon points="11.25 9.75 10.25 9.75 10.25 12.75 7.25 12.75 7.25 13.75 10.25 13.75 10.25 16.75 11.25 16.75 11.25 13.75 14.25 13.75 14.25 12.75 11.25 12.75 11.25 9.75"/>
</svg>
