<?xml version="1.0" encoding="UTF-8"?>
<svg xmlns="http://www.w3.org/2000/svg" id="Layer_1" data-name="Layer 1" viewBox="0 0 24 24">
  <path d="m22.646,5.606c-1.453-.701-3.019-1.745-3.646-4.172V0c-.773,0-1.443.439-1.776,1.081-1.541.205-2.772.799-3.67,1.775-1.761,1.914-1.562,4.573-1.554,4.644v1.5h-4.506c-1.197,0-2.257.606-2.889,1.527C1.678,11.496,0,14.583,0,19h1c0-1.399.213-4.252,1.794-6.094-.528,1.454-.794,3.489-.794,6.094h1c0-2.884.347-5.062.996-6.368.037,1.658.724,3.809,1.229,5.392.119.372.229.715.319,1.019l-.61,4.958h5.018l.5-5h2.547v5h5v-5.447l.403-1.896c.404-1.415.597-2.338.597-3.758v-3.899h5v-1.173c0-.953-.531-1.825-1.354-2.221Zm.354,2.394h-5v4.899c0,1.31-.172,2.133-.566,3.517l-.423,1.98-.011,4.604h-3v-5h-4.453l-.5,5h-2.982l.497-4.042s-.25-.818-.384-1.239c-.5-1.564-1.184-3.707-1.184-5.225.003-1.376,1.125-2.495,2.5-2.495h5.506v-2.541c-.003-.023-.169-2.347,1.296-3.932.871-.943,2.157-1.454,3.825-1.52.788,2.611,2.588,3.774,4.091,4.5.479.23.788.749.788,1.32v.173Zm-4.5-3c0,.552-.448,1-1,1s-1-.448-1-1,.448-1,1-1,1,.448,1,1Z"/>
</svg>
