<?xml version="1.0" encoding="UTF-8"?>
<svg xmlns="http://www.w3.org/2000/svg" id="Layer_1" data-name="Layer 1" viewBox="0 0 24 24" width="512" height="512"><path d="M12.344,12l-3.065-3.722c-.667-.81-1.649-1.274-2.698-1.275l-2.079-.002h-.002c-.667,0-1.295,.26-1.767,.731-.473,.472-.733,1.1-.733,1.769v2.5H0v9.5c0,1.378,1.122,2.5,2.5,2.5H21.5c1.378,0,2.5-1.122,2.5-2.5V12H12.344Zm-3.344,1v10h-3V13h3Zm1,0h4v10h-4V13Zm5,0h3v10h-3V13ZM3,9.5c0-.401,.156-.778,.44-1.061s.66-.439,1.061-.439h.001l2.079,.002c.749,0,1.451,.333,1.927,.911l2.542,3.086H3v-2.5ZM1,21.5V13H5v10H2.5c-.827,0-1.5-.673-1.5-1.5Zm22,0c0,.827-.673,1.5-1.5,1.5h-2.5V13h4v8.5ZM5.5,5c1.378,0,2.5-1.122,2.5-2.5S6.878,0,5.5,0,3,1.122,3,2.5s1.122,2.5,2.5,2.5Zm0-4c.827,0,1.5,.673,1.5,1.5s-.673,1.5-1.5,1.5-1.5-.673-1.5-1.5,.673-1.5,1.5-1.5Zm11.646,3.354c-.739-.739-1.146-1.722-1.146-2.768V0h1V1.586c0,.778,.303,1.51,.854,2.061,.739,.739,1.146,1.722,1.146,2.768v1.585h-1v-1.585c0-.779-.303-1.511-.854-2.061Zm4.054-.953c-.793-.786-1.201-1.769-1.201-2.814V0h1V.586c0,.778,.303,1.51,.854,2.061,.733,.541,1.125,1.459,1.146,2.76v1.594h-1v-1.585c-.016-.962-.277-1.624-.799-2.014Z"/></svg>
