<?xml version="1.0" encoding="UTF-8"?>
<svg xmlns="http://www.w3.org/2000/svg" id="Layer_1" data-name="Layer 1" viewBox="0 0 24 24">
  <path d="m23.261.739c-.985-.984-2.585-.984-3.568,0l-3.861,3.861c-1.528,1.529-3.959,1.566-5.534.08l-.696.718,2.379,2.379L1.925,17.832c-1.049,1.049-1.157,2.688-.324,3.859l-1.532,1.532.707.707,1.531-1.531c.504.36,1.106.556,1.738.556.801,0,1.555-.312,2.121-.879l10.055-10.055,2.379,2.379.717-.696c-1.483-1.574-1.448-4.005.081-5.534l3.861-3.86c.984-.983.984-2.585,0-3.568ZM5.46,21.368c-.756.756-2.072.756-2.828,0-.78-.78-.78-2.049,0-2.829l3.539-3.539h5.657l-6.368,6.368Zm7.368-7.368h-5.657l5.516-5.516,2.828,2.828-2.687,2.687ZM22.554,3.601l-3.861,3.86c-1.15,1.15-1.625,2.709-1.418,4.196l-4.931-4.932c1.489.203,3.045-.269,4.195-1.418l3.861-3.861c.594-.594,1.561-.594,2.154,0s.594,1.561,0,2.154Z"/>
</svg>
