<?xml version="1.0" encoding="UTF-8"?>
<svg xmlns="http://www.w3.org/2000/svg" id="Layer_1" data-name="Layer 1" viewBox="0 0 24 24">
  <path d="m21.5,19.017h-.292l-1.315-9.732c-.234-1.873-1.833-3.285-3.721-3.285H7.827c-1.887,0-3.487,1.412-3.72,3.28l-1.315,9.737h-.292c-1.378,0-2.5,1.122-2.5,2.5v2.483h24v-2.483c0-1.378-1.122-2.5-2.5-2.5ZM5.099,9.409c.171-1.373,1.345-2.409,2.729-2.409h8.346c1.384,0,2.557,1.036,2.729,2.414l1.297,9.603H3.801l1.298-9.608Zm17.901,13.591H1v-1.483c0-.827.673-1.5,1.5-1.5h19c.827,0,1.5.673,1.5,1.5v1.483Zm-14.852-13h3.852v1h-2.966l-.405,3h-1.021l.54-4ZM3.482,5.957L.735,3.326l.691-.723,2.747,2.631-.691.723Zm3.466-1.901l-.538-3.792.99-.141.538,3.792-.99.141Zm10.103,0l-.99-.141.538-3.792.99.141-.538,3.792Zm3.466,1.901l-.691-.723,2.747-2.631.691.723-2.747,2.631Z"/>
</svg>
