<?xml version="1.0" encoding="UTF-8"?>
<svg xmlns="http://www.w3.org/2000/svg" id="Layer_1" data-name="Layer 1" viewBox="0 0 24 24">
  <path d="m18.404,21.94l1.023,1.024c-.143.012-.284.037-.427.037-2.757,0-5-2.243-5-5,0-.144.024-.285.037-.428l1.023,1.024c.261,1.726,1.618,3.083,3.344,3.344Zm-9.404-9.404l1,1v4.465c0,2.757-2.243,5-5,5S0,20.757,0,18s2.243-5,5-5c1.634,0,3.087.788,4,2.003v-2.468Zm0,5.465c0-2.206-1.794-4-4-4s-4,1.794-4,4,1.794,4,4,4,4-1.794,4-4Zm15-.5h-.025c.016.164.025.331.025.5,0,1.409-.585,2.733-1.615,3.679l1.568,1.568-.707.707L.047.753.754.046l8.246,8.246V3.5c0-1.378,1.121-2.5,2.5-2.5h10c1.379,0,2.5,1.122,2.5,2.5v14Zm-1,.5c0-2.206-1.794-4-4-4-1.141,0-2.212.479-2.971,1.322l5.649,5.649c.843-.759,1.322-1.83,1.322-2.971Zm0-2.997V3.5c0-.827-.673-1.5-1.5-1.5h-10c-.827,0-1.5.673-1.5,1.5v5.793l5.321,5.321c.947-1.03,2.27-1.614,3.679-1.614,1.634,0,3.087.788,4,2.003Z"/>
</svg>
