<?xml version="1.0" encoding="UTF-8"?>
<svg xmlns="http://www.w3.org/2000/svg" id="Layer_1" data-name="Layer 1" viewBox="0 0 24 24">
  <path d="m12.783,10h2.115c2.546,0,4.726.362,5.382.539.613.164,1.12.552,1.427,1.092.068.119.12.243.165.369h1.028c-.07-.298-.168-.59-.324-.864-.441-.774-1.165-1.329-2.038-1.563-.828-.222-3.09-.572-5.641-.572h-2.473l6.575-4.227v-2.034l1.866-2.004-.732-.682-2.134,2.293v1.88l-4.02,2.584c.013-.102.02-.206.02-.311,0-1.043-.642-1.938-1.551-2.312l-.949-4.188-.949,4.188c-.909.374-1.551,1.269-1.551,2.312,0,.105.007.209.02.311l-4.02-2.584v-1.88L2.866.054l-.732.682,1.866,2.004v2.034l6.575,4.227h-2.473c-2.551,0-4.813.351-5.641.572-.873.234-1.597.789-2.038,1.563C-.006,11.891-.114,12.765.121,13.598c.408,1.448,1.757,2.402,3.223,2.401.291,0,.586-.037.88-.115,1.279-.343,5.04-3.666,6.776-5.245v2.142l-6,5.5v2.979l-2.312,1.85.625.781,2.688-2.15v-3.021l5-4.583v5.864h1v-9.362c.414.376.943.852,1.525,1.362h1.534c-.778-.663-1.567-1.357-2.276-2ZM3.965,14.917c-1.25.34-2.541-.38-2.881-1.591-.162-.573-.087-1.176.208-1.695.308-.54.814-.928,1.427-1.092.657-.177,2.835-.539,5.382-.539h2.115c-2.268,2.056-5.368,4.681-6.252,4.917Zm7.535-6.917c-.827,0-1.5-.673-1.5-1.5s.673-1.5,1.5-1.5,1.5.673,1.5,1.5-.673,1.5-1.5,1.5Zm2.5,6v10h10v-10h-10Zm3,9h-2v-2h2v2Zm0-3h-2v-2h2v2Zm0-3h-2v-2h2v2Zm3,6h-2v-2h2v2Zm0-3h-2v-2h2v2Zm0-3h-2v-2h2v2Zm3,6h-2v-2h2v2Zm0-3h-2v-2h2v2Zm0-3h-2v-2h2v2Z"/>
</svg>
