<?xml version="1.0" encoding="UTF-8"?>
<svg xmlns="http://www.w3.org/2000/svg" id="Layer_1" data-name="Layer 1" viewBox="0 0 24 24">
  <path d="m12,12c3.309,0,6-2.691,6-6S15.309,0,12,0s-6,2.691-6,6,2.691,6,6,6Zm0-11c2.757,0,5,2.243,5,5s-2.243,5-5,5-5-2.243-5-5S9.243,1,12,1Zm4.5,13H7.5c-2.481,0-4.5,2.019-4.5,4.5v5.5h1v-5.5c0-1.93,1.57-3.5,3.5-3.5h1.578l1.883,2.608-1.504,6.392h1.027l1.516-6.442,1.516,6.442h1.027l-1.504-6.392,1.884-2.608h1.577c1.93,0,3.5,1.57,3.5,3.5v5.5h1v-5.5c0-2.481-2.019-4.5-4.5-4.5Zm-4.5,3.338l-1.689-2.338h3.378l-1.689,2.338Z"/>
</svg>
