<?xml version="1.0" encoding="UTF-8"?>
<svg xmlns="http://www.w3.org/2000/svg" id="Layer_1" data-name="Layer 1" viewBox="0 0 24 24">
  <path d="m9,10c2.206,0,4-1.734,4-3.865,0-2.433-3.51-5.725-3.66-5.863l-.34-.316-.34.316c-.149.139-3.66,3.431-3.66,5.863,0,2.131,1.794,3.865,4,3.865Zm0-8.666c1.072,1.076,3,3.317,3,4.801,0,1.58-1.346,2.865-3,2.865s-3-1.285-3-2.865c0-1.483,1.928-3.725,3-4.801Zm14.181,8.32c-.497-.451-1.143-.683-1.809-.651-.67.031-1.288.321-1.739.817l-3.732,4.103c-.314-1.108-1.335-1.923-2.542-1.923H2.5c-1.378,0-2.5,1.121-2.5,2.5v7c0,1.379,1.122,2.5,2.5,2.5h11.224l9.639-10.817c.911-1.023.829-2.605-.183-3.528Zm-.564,2.862l-9.34,10.483H2.5c-.827,0-1.5-.673-1.5-1.5v-7c0-.827.673-1.5,1.5-1.5h10.858c.905,0,1.642.737,1.642,1.643,0,.812-.606,1.511-1.404,1.624l-5.661.737.129.992,5.667-.738c1.022-.146,1.845-.878,2.146-1.823l4.495-4.94c.272-.299.644-.474,1.047-.492.399-.02.79.121,1.088.392.609.556.658,1.508.109,2.123Z"/>
</svg>
