<?xml version="1.0" encoding="UTF-8"?>
<svg xmlns="http://www.w3.org/2000/svg" id="Layer_1" data-name="Layer 1" viewBox="0 0 24 24">
  <path d="m1,20h12v1H0V2.5C0,1.121,1.122,0,2.5,0h16c1.378,0,2.5,1.121,2.5,2.5v10.5h-1V2.5c0-.827-.673-1.5-1.5-1.5H2.5c-.827,0-1.5.673-1.5,1.5v11.339l5.134-5.134c.903-.902,2.374-.903,3.278,0l7.588,7.588v.707h-.707l-7.588-7.589c-.514-.512-1.349-.513-1.864,0L1,15.253v4.747ZM14.5,3c1.378,0,2.5,1.121,2.5,2.5s-1.122,2.5-2.5,2.5-2.5-1.121-2.5-2.5,1.122-2.5,2.5-2.5Zm0,1c-.827,0-1.5.673-1.5,1.5s.673,1.5,1.5,1.5,1.5-.673,1.5-1.5-.673-1.5-1.5-1.5Zm9.5,15h-4v-4h-1v4h-4v1h4v4h1v-4h4v-1Z"/>
</svg>
