<?xml version="1.0" encoding="UTF-8"?>
<svg xmlns="http://www.w3.org/2000/svg" id="Layer_1" data-name="Layer 1" viewBox="0 0 24 24">
  <path d="m9.878,7.121c.567.566,1.32.879,2.122.879s1.555-.312,2.121-.879c1.17-1.17,1.17-3.072.02-4.222L12,.499l-2.122,2.38c-1.169,1.17-1.169,3.072,0,4.242Zm.727-3.556l1.395-1.564,1.414,1.585c.779.779.779,2.049,0,2.828-.756.756-2.073.756-2.829,0-.779-.779-.779-2.049.02-2.849ZM21.5,0h-7.265l.892,1h6.373c.827,0,1.5.673,1.5,1.5v11.454c-.165.028-.331.046-.5.046-1.654,0-3-1.346-3-3h-1c0,1.654-1.346,3-3,3s-3-1.346-3-3h-1c0,1.654-1.346,3-3,3s-3-1.346-3-3h-1c0,1.654-1.346,3-3,3-.168,0-.335-.018-.5-.046V2.5c0-.827.673-1.5,1.5-1.5h6.374l.891-1H2.5C1.122,0,0,1.121,0,2.5v21.5h24V2.5c0-1.379-1.121-2.5-2.5-2.5Zm1.5,23H1v-8.036c.166.021.332.036.5.036,1.516,0,2.822-.857,3.5-2.104.678,1.246,1.984,2.104,3.5,2.104s2.822-.857,3.5-2.104c.678,1.246,1.984,2.104,3.5,2.104s2.822-.857,3.5-2.103c.678,1.246,1.984,2.103,3.5,2.103.168,0,.334-.015.5-.036v8.036Z"/>
</svg>
