<?xml version="1.0" encoding="UTF-8"?>
<svg xmlns="http://www.w3.org/2000/svg" id="Layer_1" data-name="Layer 1" viewBox="0 0 24 24" width="512" height="512"><path d="M20,12s0,.03,0,.05c-.17-.02-.33-.05-.5-.05s-.34,.03-.5,.05c0-.02,0-.03,0-.05,0-3.86-3.14-7-7-7s-7,3.14-7,7,3.14,7,7,7c1.2,0,2.33-.31,3.32-.84,.12,.31,.28,.61,.47,.88-1.13,.61-2.42,.96-3.79,.96-4.41,0-8-3.59-8-8S7.59,4,12,4s8,3.59,8,8ZM21.5,0H2.5C1.12,0,0,1.12,0,2.5V24H13v-1H1V2.5c0-.83,.67-1.5,1.5-1.5H21.5c.83,0,1.5,.67,1.5,1.5V13.7c.62,.77,1,1.73,1,2.8V2.5c0-1.38-1.12-2.5-2.5-2.5ZM11,12c0,.55,.45,1,1,1s1-.45,1-1-.45-1-1-1-1,.45-1,1Zm10.5,8h-4c-1.38,0-2.5,1.12-2.5,2.5v1.5h1v-1.5c0-.83,.67-1.5,1.5-1.5h4c.83,0,1.5,.67,1.5,1.5v1.5h1v-1.5c0-1.38-1.12-2.5-2.5-2.5Zm-2-6c1.38,0,2.5,1.12,2.5,2.5s-1.12,2.5-2.5,2.5-2.5-1.12-2.5-2.5,1.12-2.5,2.5-2.5Zm0,1c-.83,0-1.5,.67-1.5,1.5s.67,1.5,1.5,1.5,1.5-.67,1.5-1.5-.67-1.5-1.5-1.5Z"/></svg>
