<?xml version="1.0" encoding="UTF-8"?>
<svg xmlns="http://www.w3.org/2000/svg" id="Layer_1" data-name="Layer 1" viewBox="0 0 24 24">
  <path d="m22.25,15.5c0-1.379-1.122-2.5-2.5-2.5s-2.5,1.121-2.5,2.5,1.122,2.5,2.5,2.5,2.5-1.121,2.5-2.5Zm-4,0c0-.827.673-1.5,1.5-1.5s1.5.673,1.5,1.5-.673,1.5-1.5,1.5-1.5-.673-1.5-1.5Zm-6.25,2.5c1.378,0,2.5-1.121,2.5-2.5s-1.122-2.5-2.5-2.5-2.5,1.121-2.5,2.5,1.122,2.5,2.5,2.5Zm0-4c.827,0,1.5.673,1.5,1.5s-.673,1.5-1.5,1.5-1.5-.673-1.5-1.5.673-1.5,1.5-1.5Zm12,7.5v2.5h-1v-2.5c0-.827-.673-1.5-1.5-1.5h-3.5c-.827,0-1.5.673-1.5,1.5v2.5h-1v-2.5c0-.827-.673-1.5-1.5-1.5h-4c-.827,0-1.5.673-1.5,1.5v2.5h-1v-2.5c0-.827-.673-1.5-1.5-1.5h-3.5c-.827,0-1.5.673-1.5,1.5v2.5H0v-2.5c0-1.379,1.122-2.5,2.5-2.5h3.5c.821,0,1.544.403,2,1.015.456-.613,1.179-1.015,2-1.015h4c.821,0,1.544.403,2,1.015.456-.613,1.179-1.015,2-1.015h3.5c1.378,0,2.5,1.121,2.5,2.5ZM6.75,15.5c0-1.379-1.122-2.5-2.5-2.5s-2.5,1.121-2.5,2.5,1.122,2.5,2.5,2.5,2.5-1.121,2.5-2.5Zm-4,0c0-.827.673-1.5,1.5-1.5s1.5.673,1.5,1.5-.673,1.5-1.5,1.5-1.5-.673-1.5-1.5ZM24,2.5v12.553c-.1-.858-.508-1.729-1-2.383V2.5c0-.827-.673-1.5-1.5-1.5H2.5c-.827,0-1.5.673-1.5,1.5v10.154c-.504.664-.903,1.524-1,2.399V2.5C0,1.121,1.122,0,2.5,0h19c1.378,0,2.5,1.121,2.5,2.5Z"/>
</svg>
