<?xml version="1.0" encoding="UTF-8"?>
<svg xmlns="http://www.w3.org/2000/svg" id="Layer_1" data-name="Layer 1" viewBox="0 0 24 24" width="512" height="512"><path d="m15.651,11.487c-.627-.628-1.723-.628-2.35,0l-.302.302v-1.288c0-.827-.673-1.5-1.5-1.5h-5c-.827,0-1.5.673-1.5,1.5v5c0,.827.673,1.5,1.5,1.5h4.288l2.514,2.514c.313.314.73.487,1.175.487s.861-.173,1.175-.487l2.839-2.838c.314-.314.487-.731.487-1.175s-.173-.861-.487-1.175l-2.839-2.838Zm-9.651,4.013v-5c0-.276.225-.5.5-.5h5c.275,0,.5.224.5.5v5c0,.276-.225.5-.5.5h-5c-.275,0-.5-.224-.5-.5Zm11.783.469l-2.839,2.838c-.25.25-.686.25-.936,0l-1.925-1.925c.538-.228.917-.762.917-1.382v-2.298l1.009-1.008c.25-.25.686-.25.936,0l2.839,2.838c.258.258.258.678,0,.937ZM.022,1l1.833,19.642c.125,1.345,1.238,2.358,2.589,2.358h14.984c1.341,0,2.453-1.006,2.586-2.341l1.967-19.659H.022Zm20.998,19.559c-.083.821-.767,1.441-1.592,1.441H4.444c-.831,0-1.516-.624-1.593-1.451L1.12,2h21.756l-1.855,18.559Z"/></svg>
