<?xml version="1.0" encoding="UTF-8"?>
<svg xmlns="http://www.w3.org/2000/svg" id="Layer_1" data-name="Layer 1" viewBox="0 0 24 24" width="512" height="512"><path d="m4.943,8.574c-.023.18.044.34.184.439,0,0,.847.366,1.299.539,1.151.441,1.441,1.294,1.329,1.945-.149.87-.956,1.503-1.917,1.503-.791,0-1.534-.33-2.038-.906l-.335-.383.741-.698.335.384c.31.354.794.565,1.297.565.533,0,.878-.333.933-.648.079-.457-.508-.719-.69-.788-.732-.281-1.403-.59-1.406-.59-.541-.358-.803-.908-.721-1.511.087-.623.528-1.131,1.152-1.325,1.262-.399,2.325.521,2.335.531l.383.334-.644.794-.382-.333c-.027-.022-.68-.564-1.405-.333-.36.112-.435.373-.45.481Zm13.162-.483c.729-.222,1.378.312,1.405.333l.382.333.644-.793-.383-.334c-.01-.009-1.073-.927-2.335-.532-.624.195-1.065.703-1.152,1.326-.083.603.18,1.153.721,1.511.003,0,.674.309,1.406.59.182.069.769.331.69.788-.055.319-.419.648-.933.648-.502,0-.987-.212-1.297-.565l-.336-.384-.74.697.336.384c.503.576,1.246.906,2.037.906.961,0,1.768-.632,1.917-1.503.112-.652-.178-1.505-1.329-1.945-.454-.174-1.299-.54-1.299-.54-.14-.098-.207-.258-.184-.438.016-.108.09-.37.45-.482Zm5.895-5.592v17.5h-7.032l-3.985,3.295c-.275.245-.626.368-.979.368-.356,0-.715-.126-1.001-.38l-3.897-3.283H0V2.5C0,1.121,1.122,0,2.5,0h19c1.378,0,2.5,1.121,2.5,2.5Zm-1,0c0-.827-.673-1.5-1.5-1.5H2.5c-.827,0-1.5.673-1.5,1.5v16.5h6.471l4.187,3.526c.2.178.484.179.675.009l4.276-3.535h6.391V2.5Zm-8.783,4.5l-2.216,2.348-2.207-2.348h-.794v6h1v-4.32l2,2.127,2-2.12v4.313h1v-6h-.783Z"/></svg>
