<?xml version="1.0" encoding="UTF-8"?>
<svg xmlns="http://www.w3.org/2000/svg" id="Layer_1" data-name="Layer 1" viewBox="0 0 24 24">
  <path d="m24,9.954v6.193c-.26-.445-.604-.829-1-1.151v-5.042c0-.493-.223-.95-.61-1.253L12.98,1.338c-.576-.451-1.384-.452-1.962,0L1.611,8.701c-.389.304-.611.761-.611,1.253v4.758c-.383.254-.722.561-1,.922v-5.68c0-.802.362-1.546.995-2.041L10.402.551c.941-.735,2.255-.735,3.194,0l9.409,7.363c.632.494.994,1.238.994,2.041Zm-12.2,8.346v3.4c0,1.268-1.031,2.3-2.3,2.3s-2.3-1.032-2.3-2.3v-3.4c0-1.268,1.031-2.3,2.3-2.3s2.3,1.032,2.3,2.3Zm-1,0c0-.717-.583-1.3-1.3-1.3s-1.3.583-1.3,1.3v3.4c0,.717.583,1.3,1.3,1.3s1.3-.583,1.3-1.3v-3.4Zm11.7,0v3.4c0,1.268-1.031,2.3-2.3,2.3h-2.2v-8h2.2c1.269,0,2.3,1.032,2.3,2.3Zm-1,0c0-.717-.583-1.3-1.3-1.3h-1.2v6h1.2c.717,0,1.3-.583,1.3-1.3v-3.4Zm-17.152,1.232c-.31-.117-1.188-.466-1.523-.67-.325-.231-.477-.568-.427-.948.053-.399.315-.723.687-.845.557-.185,1.119-.008,1.769.553l.654-.756c-.914-.792-1.834-1.043-2.735-.747-.739.244-1.262.881-1.366,1.666-.098.754.208,1.443.88,1.917.491.305,1.587.721,1.699.763,1.052.425,1.013,1.204.976,1.432-.104.64-.669,1.104-1.343,1.104-.524,0-1.348-.368-1.762-.787l-.711.702c.526.533,1.595,1.085,2.473,1.085,1.167,0,2.146-.818,2.329-1.944.133-.812-.204-1.96-1.599-2.523Zm9.652-3.532h-1v8h4v-1h-3v-7Z"/>
</svg>
