<?xml version="1.0" encoding="UTF-8"?>
<svg xmlns="http://www.w3.org/2000/svg" id="Layer_1" data-name="Layer 1" viewBox="0 0 24 24" width="512" height="512"><path d="M17,14.5c0,1.93-1.57,3.5-3.5,3.5h-5.5v-1h5.5c1.379,0,2.5-1.121,2.5-2.5s-1.121-2.5-2.5-2.5h-4.5v-1h4c1.103,0,2-.897,2-2s-.897-2-2-2h-5v-1h5c1.654,0,3,1.346,3,3,0,.928-.432,1.748-1.096,2.299,1.232,.543,2.096,1.771,2.096,3.201Zm7-2.5c0,6.617-5.383,12-12,12S0,18.617,0,12,5.383,0,12,0s12,5.383,12,12Zm-1,0c0-6.065-4.935-11-11-11S1,5.935,1,12s4.935,11,11,11,11-4.935,11-11Z"/></svg>
