<?xml version="1.0" encoding="UTF-8"?>
<svg xmlns="http://www.w3.org/2000/svg" id="Layer_1" data-name="Layer 1" viewBox="0 0 24 24" width="512" height="512"><path d="M12.5,5c1.379,0,2.5-1.122,2.5-2.5s-1.121-2.5-2.5-2.5-2.5,1.122-2.5,2.5,1.121,2.5,2.5,2.5Zm0-4c.827,0,1.5,.673,1.5,1.5s-.673,1.5-1.5,1.5-1.5-.673-1.5-1.5,.673-1.5,1.5-1.5Zm6.5,5v5h-2.217l-2.271-3.787c-.45-.749-1.271-1.213-2.145-1.213h-2.934c-3.153,0-6.414,2.057-6.414,5.5,0,2.405,1.539,3.5,2.97,3.5,.916,0,1.584-.364,2.049-.834,.172,.387,.441,.732,.793,.992l4.169,3.093v5.749h1v-6.251l-4.573-3.393c-.461-.342-.688-.927-.578-1.491l1.141-5.865h2.377c.182,0,.361,.035,.528,.098l-1.343,6.814,.884,.575,1.333-6.567,2.448,4.08h2.783v12h1V6h-1ZM5.989,14c-.731,0-1.97-.526-1.97-2.5,0-2.652,2.441-4.299,4.947-4.483l-1.046,5.375h-.002c-.014,.065-.371,1.607-1.93,1.607Zm1.749,2.505l.762,.495-1.218,7h-1.021l1.323-7.612c.053,.038,.1,.082,.155,.118Z"/></svg>
