<?xml version="1.0" encoding="UTF-8"?>
<svg xmlns="http://www.w3.org/2000/svg" id="Layer_1" data-name="Layer 1" viewBox="0 0 24 24">
  <path d="m6.757,8c-.757,0-1.281.587-1.385,1.167l-1.372,6.833h1.007l.405-2h2.66l.412,2h1.015l-1.397-6.807c-.12-.668-.589-1.192-1.346-1.192Zm-1.142,5l.741-3.657c.019-.107.146-.342.4-.342.088,0,.295,0,.366.393l.743,3.606h-2.251Zm5.385-2.5v3c0,.828.672,1.5,1.5,1.5s1.5-.672,1.5-1.5v-.5h-1.5v-1h2.5v1.6h-.011c-.057,1.33-1.145,2.393-2.489,2.393-1.381,0-2.5-1.119-2.5-2.5v-3c0-1.381,1.119-2.5,2.5-2.5s2.5,1.119,2.5,2.5h-1.001c-.004-.825-.673-1.493-1.499-1.493s-1.5.672-1.5,1.5Zm13,1.5c0,6.617-5.383,12-12,12S0,18.617,0,12,5.383,0,12,0c3.49,0,6.719,1.491,9,4.091V0h1v4.5c0,.827-.673,1.5-1.5,1.5h-4.5v-1h4.466c-2.1-2.54-5.156-4-8.466-4C5.935,1,1,5.935,1,12s4.935,11,11,11,11-4.935,11-11h1Zm-7-3v2.5h2.5v1h-2.5v2.5h2.5v1h-3.5v-8h3.5v1h-2.5Z"/>
</svg>
