<?xml version="1.0" encoding="UTF-8"?>
<svg xmlns="http://www.w3.org/2000/svg" id="Layer_1" data-name="Layer 1" viewBox="0 0 24 24" width="512" height="512"><path d="M21.5,15H11.5c-1.378,0-2.5,1.121-2.5,2.5v2c0,1.379,1.122,2.5,2.5,2.5h10c1.379,0,2.5-1.121,2.5-2.5v-2c0-1.379-1.121-2.5-2.5-2.5Zm-7.5,6h-2.5c-.827,0-1.5-.673-1.5-1.5v-2c0-.827,.673-1.5,1.5-1.5h2.5v5Zm9-1.5c0,.827-.673,1.5-1.5,1.5h-6.5v-5h6.5c.827,0,1.5,.673,1.5,1.5v2Zm-1.5-17.5H11.5c-1.378,0-2.5,1.121-2.5,2.5v2c0,1.379,1.122,2.5,2.5,2.5h10c1.379,0,2.5-1.121,2.5-2.5v-2c0-1.379-1.121-2.5-2.5-2.5Zm-3.5,6h-6.5c-.827,0-1.5-.673-1.5-1.5v-2c0-.827,.673-1.5,1.5-1.5h6.5v5Zm5-1.5c0,.827-.673,1.5-1.5,1.5h-2.5V3h2.5c.827,0,1.5,.673,1.5,1.5v2Zm-19-.5c1.654,0,3-1.346,3-3S5.654,0,4,0,1,1.346,1,3s1.346,3,3,3Zm0-5c1.103,0,2,.897,2,2s-.897,2-2,2-2-.897-2-2,.897-2,2-2Zm4,8.5v1.5h-1v-1.5c0-.827-.673-1.5-1.5-1.5H2.5c-.827,0-1.5,.673-1.5,1.5v1.5H0v-1.5c0-1.379,1.122-2.5,2.5-2.5h3c1.378,0,2.5,1.121,2.5,2.5Zm-1,6.5c0-1.654-1.346-3-3-3s-3,1.346-3,3,1.346,3,3,3,3-1.346,3-3Zm-5,0c0-1.103,.897-2,2-2s2,.897,2,2-.897,2-2,2-2-.897-2-2Zm6,6.5v1.5h-1v-1.5c0-.827-.673-1.5-1.5-1.5H2.5c-.827,0-1.5,.673-1.5,1.5v1.5H0v-1.5c0-1.379,1.122-2.5,2.5-2.5h3c1.378,0,2.5,1.121,2.5,2.5Z"/></svg>
