<?xml version="1.0" encoding="UTF-8"?>
<svg xmlns="http://www.w3.org/2000/svg" id="Layer_1" data-name="Layer 1" viewBox="0 0 24 24">
  <path d="m11.001,13h3.535l8.732-8.731c.975-.975.975-2.562,0-3.536-.977-.976-2.563-.975-3.536,0l-8.731,8.732v3.535ZM20.44,1.439c.586-.585,1.536-.584,2.122,0,.585.585.585,1.537,0,2.122l-1.249,1.249-2.122-2.122,1.249-1.249Zm-8.438,8.439l6.483-6.483,2.122,2.122-6.483,6.483h-2.121v-2.121Zm8.75,4.204l2.924,1.655-2.464,4.351-2.927-1.657c-1.064,1.041-2.359,1.796-3.783,2.207v3.361h-5v-3.361c-1.425-.411-2.72-1.167-3.784-2.207l-2.926,1.657L.327,15.738l2.924-1.656c-.165-.692-.249-1.392-.249-2.082s.084-1.39.249-2.081l-2.924-1.656L2.792,3.912l2.926,1.657c1.064-1.041,2.36-1.796,3.784-2.207V0h5v3.137s-1,1-1,1V1s-3,0-3,0v3.141l-.383.093c-1.513.365-2.878,1.161-3.949,2.302l-.269.287-2.732-1.547-1.479,2.61,2.729,1.546-.106.378c-.207.728-.312,1.465-.312,2.19s.104,1.463.312,2.191l.106.378-2.729,1.546,1.479,2.61,2.732-1.548.27.287c1.069,1.142,2.436,1.938,3.948,2.303l.383.093v3.14h3v-3.14l.383-.093c1.512-.364,2.877-1.161,3.947-2.303l.27-.287,2.733,1.548,1.478-2.61-2.73-1.546.108-.378c.207-.727.311-1.464.311-2.19,0,0,0,0,0-.001,0-.49-.065-.984-.16-1.477l.842-.842.067.237c.166.691.25,1.39.25,2.082h0c0,.691-.084,1.391-.25,2.083Zm-9.447-7.012l-2.303,2.303.003.004c-.617.704-1.003,1.615-1.003,2.622,0,2.206,1.794,4,4,4,1.197,0,2.26-.539,2.994-1.374h.006s1.93-1.929,1.93-1.929c-.343,2.425-2.411,4.303-4.93,4.303-2.757,0-5-2.243-5-5,0-2.518,1.878-4.587,4.303-4.93Z"/>
</svg>
