<?xml version="1.0" encoding="UTF-8"?>
<svg xmlns="http://www.w3.org/2000/svg" id="Layer_1" data-name="Layer 1" viewBox="0 0 24 24">
  <path d="m23.095,21.094c-.538-.818-1.095-1.664-1.095-3.318l.002-.265c.003-.428.008-.871-.07-1.347-.325-2.014-1.878-3.645-3.863-4.057-.688-.145-1.449-.144-2.137,0-1.984.413-3.538,2.043-3.864,4.058-.077.475-.073.917-.069,1.344v.268c.001,1.654-.555,2.5-1.094,3.318-.445.676-.905,1.375-.905,2.406v.5h14v-.5c0-1.031-.46-1.73-.905-2.406Zm-12.04,1.906c.11-.482.373-.882.685-1.356.562-.853,1.26-1.915,1.26-3.868v-.277c-.005-.403-.009-.784.055-1.175.257-1.583,1.523-2.915,3.08-3.239.555-.115,1.176-.116,1.73,0,1.557.324,2.823,1.655,3.08,3.238.063.392.06.774.057,1.178l-.002.273c0,1.953.698,3.015,1.26,3.868.312.475.575.874.686,1.356h-11.89ZM1.93,12.265c-.608,1.146-.93,2.437-.93,3.735,0,2.833,1.52,6.646,1.535,6.684l.127.316h5.337v1H1.988l-.38-.942c-.016-.039-1.607-4.004-1.607-7.058,0-1.461.362-2.915,1.047-4.204l.422-.796h1.399c.361-.999.96-1.831,1.202-2.167.588-.815,1.192-1.653.988-3.315-.041-.327-.076-.766.004-1.26.25-1.55,1.495-2.856,3.024-3.175.296-.062.666-.083.914-.083s.617.022.914.084c1.53.318,2.774,1.624,3.024,3.175.081.494.045.932.004,1.259-.204,1.661.399,2.499.982,3.309.188.259.583.808.921,1.499-.321.102-.632.227-.93.374-.294-.585-.636-1.059-.798-1.284-.634-.881-1.419-1.971-1.167-4.021.032-.261.061-.607,0-.977-.186-1.152-1.107-2.121-2.241-2.356-.18-.038-.465-.063-.709-.063s-.529.025-.709.062c-1.134.236-2.055,1.205-2.241,2.356-.061.371-.031.717,0,.978.252,2.051-.533,3.141-1.165,4.017-.209.29-.631.876-.941,1.587h9.425c-.466.283-.896.619-1.282,1H2.07l-.14.265Z"/>
</svg>
