<?xml version="1.0" encoding="UTF-8"?>
<svg xmlns="http://www.w3.org/2000/svg" id="Layer_1" data-name="Layer 1" viewBox="0 0 24 24" width="512" height="512"><path d="M7,11c0-.552,.448-1,1-1s1,.448,1,1-.448,1-1,1-1-.448-1-1Zm9-1c-.552,0-1,.448-1,1s.448,1,1,1,1-.448,1-1-.448-1-1-1Zm.262,3.916c-.045,.045-.968,.98-1.206,2.084h-6.111c-.238-1.104-1.161-2.039-1.206-2.084l-.708,.706c.27,.271,.969,1.139,.969,1.878s-.7,1.606-.969,1.878l.708,.706c.045-.045,.968-.98,1.206-2.084h6.111c.238,1.104,1.161,2.039,1.206,2.084l.708-.706c-.27-.271-.969-1.139-.969-1.878s.7-1.606,.969-1.878l-.708-.706Zm7.738-1.916c0,6.617-5.383,12-12,12S0,18.617,0,12,5.383,0,12,0s12,5.383,12,12Zm-1,0c0-6.065-4.935-11-11-11S1,5.935,1,12s4.935,11,11,11,11-4.935,11-11ZM9.168,6.768l-.845-.535c-.83,1.309-2.137,2.393-3.68,3.05l.393,.92c1.751-.747,3.181-1.935,4.132-3.435Zm6.499-.543l-.834,.551c.985,1.49,2.437,2.675,4.197,3.427l.393-.92c-1.58-.674-2.879-1.731-3.756-3.058Z"/></svg>
