<?xml version="1.0" encoding="UTF-8"?>
<svg xmlns="http://www.w3.org/2000/svg" id="Layer_1" data-name="Layer 1" width="512" height="512" viewBox="0 0 24 24"><path d="M19.98,11c-.062,.803-.272,1.588-.618,2.311l3.474,2.045-.508,.861-4.312-2.538,.249-.43c.481-.831,.735-1.782,.735-2.75,0-3.033-2.468-5.5-5.5-5.5-.967,0-1.918,.254-2.75,.735l-.43,.249L7.796,1.674l.863-.505,2.03,3.469c.72-.345,1.5-.554,2.298-.617V0h1V4.018c.826,.062,1.61,.278,2.323,.621l2.017-3.469,.865,.503-2.017,3.469c.653,.449,1.22,1.015,1.672,1.667l3.483-2.027,.504,.864-3.482,2.027c.346,.713,.566,1.499,.629,2.328h4.019v1h-4.02Zm.02,9c0,2.206-1.794,4-4,4H8c-1.654,0-3-1.346-3-3,0-1.352,.882-2.499,2.128-2.872-.085-.368-.128-.746-.128-1.128,0-2.757,2.243-5,5-5,2.444,0,4.497,1.741,4.92,4.107,1.78,.42,3.08,2.031,3.08,3.893Zm-1,0c0-1.494-1.114-2.771-2.592-2.972l-.39-.053-.04-.391c-.211-2.043-1.921-3.583-3.979-3.583-2.206,0-4,1.794-4,4,0,.461,.078,.914,.231,1.343l.217,.605-.641,.061c-1.03,.098-1.808,.954-1.808,1.991,0,1.103,.897,2,2,2h8c1.654,0,3-1.346,3-3ZM7,8c.982,0,1.925,.359,2.659,1.011l.008,.008c.364,.325,.659,.711,.88,1.134,.334-.071,.679-.111,1.029-.132-.285-.658-.696-1.259-1.242-1.748-.917-.821-2.101-1.273-3.333-1.273-2.757,0-5,2.243-5,5,0,.382,.043,.76,.128,1.128-1.246,.374-2.128,1.52-2.128,2.872,0,1.654,1.346,3,3,3h.419c.154-.357,.348-.691,.579-1h-.997c-1.103,0-2-.897-2-2,0-1.037,.777-1.893,1.808-1.991l.641-.061-.217-.605c-.153-.43-.231-.882-.231-1.343,0-2.206,1.794-4,4-4Z"/></svg>
