<?xml version="1.0" encoding="UTF-8"?>
<svg xmlns="http://www.w3.org/2000/svg" id="Layer_1" data-name="Layer 1" viewBox="0 0 24 24" width="512" height="512"><path d="M24,5.5v13.231c0,.618-.229,1.214-.645,1.676l-3.197,3.593h-1.344l3.799-4.263c.25-.277,.387-.635,.387-1.006V5.5c0-.827-.673-1.5-1.5-1.5s-1.5,.673-1.5,1.5V14.5h-.005c0,.57-.193,1.14-.58,1.601l-3.098,3.206-.719-.695,3.074-3.179c.219-.262,.327-.628,.327-.972s-.137-.689-.382-.962c-.549-.613-1.498-.666-2.113-.116l-3.849,3.542c.222,.38,.343,.815,.343,1.262v5.814h-1v-5.814c0-.418-.177-.821-.484-1.104l-4.026-3.705c-.609-.546-1.557-.494-2.108,.12-.494,.551-.507,1.394-.032,1.96l3.051,3.153-.719,.695-3.074-3.179c-.399-.474-.597-1.052-.6-1.627h-.008V5.5c0-.827-.673-1.5-1.5-1.5s-1.5,.673-1.5,1.5v13.231c0,.371,.137,.729,.387,1.006l3.799,4.263h-1.344l-3.197-3.593c-.416-.462-.645-1.058-.645-1.676V5.5c0-1.378,1.122-2.5,2.5-2.5s2.5,1.122,2.5,2.5v6.998c.933-.698,2.262-.667,3.162,.138l3.838,3.532,3.833-3.528c.905-.81,2.234-.842,3.167-.143V5.5c0-1.378,1.122-2.5,2.5-2.5s2.5,1.122,2.5,2.5Z"/></svg>
