<?xml version="1.0" encoding="UTF-8"?>
<svg xmlns="http://www.w3.org/2000/svg" id="Layer_1" data-name="Layer 1" viewBox="0 0 24 24" width="512" height="512"><path d="M19.5,19c-2.182,0-4.5-3.855-4.5-11h2v-1h-2.382c.84-.734,1.382-1.799,1.382-3,0-2.206-1.794-4-4-4s-4,1.794-4,4c0,1.201,.542,2.266,1.382,3h-2.382v1h2c0,7.145-2.318,11-4.5,11-1.378,0-2.5,1.121-2.5,2.5v2.5H22v-2.5c0-1.379-1.122-2.5-2.5-2.5ZM9,4c0-1.654,1.346-3,3-3s3,1.346,3,3-1.346,3-3,3-3-1.346-3-3Zm1,4h4c0,5.19,1.223,9.221,3.154,11H6.846c1.931-1.779,3.154-5.81,3.154-11Zm11,15H3v-1.5c0-.827,.673-1.5,1.5-1.5h15c.827,0,1.5,.673,1.5,1.5v1.5Z"/></svg>
