<?xml version="1.0" encoding="UTF-8"?>
<svg xmlns="http://www.w3.org/2000/svg" id="Layer_1" data-name="Layer 1" viewBox="0 0 24 24">
  <path d="m6,13c0,3.309,2.691,6,6,6s6-2.691,6-6-2.691-6-6-6-6,2.691-6,6Zm11,0c0,2.757-2.243,5-5,5s-5-2.243-5-5,2.243-5,5-5,5,2.243,5,5Zm-5.5-4h1v5h-1v-5Zm.5,6c.552,0,1,.448,1,1s-.448,1-1,1-1-.448-1-1,.448-1,1-1Zm3.95-13c-.232-1.14-1.242-2-2.45-2h-3c-1.208,0-2.217.86-2.45,2H3v19.5c0,1.378,1.122,2.5,2.5,2.5h13c1.378,0,2.5-1.122,2.5-2.5V2h-5.05Zm4.05,19.5c0,.827-.673,1.5-1.5,1.5H5.5c-.827,0-1.5-.673-1.5-1.5V3h5v-.5c0-.827.673-1.5,1.5-1.5h3c.827,0,1.5.673,1.5,1.5v.5h5v18.5Z"/>
</svg>
