<?xml version="1.0" encoding="UTF-8"?>
<svg xmlns="http://www.w3.org/2000/svg" id="Layer_1" data-name="Layer 1" viewBox="0 0 24 24">
  <path d="m22.5,7h-.517c-.234-3.557-2.966-7-7.983-7-2.063,0-4.267.541-6.156,1.804C6.067.833,4.006.228,1.708.006.967-.06.345.469.11,1.032-.112,1.568.007,2.115.421,2.458c1.695,1.406,2.901,3.207,3.488,4.448-.576,1.554-.909,3.407-.909,5.594,0,1.991.427,4.158.832,5.766-2.249.723-3.832,2.855-3.832,5.258v.5h.5c2.826,0,4.331-1.303,5.004-2.135.682.829,2.2,2.135,4.996,2.135h.5v-.5c0-2.355-1.494-4.428-3.688-5.197.441-1.814,1.292-3.872,2.1-5.042.475-.688,1.027-1.239,1.623-1.677.384.731.943,1.854,1.426,3.063l.414,1.034.498-.996c.917-1.834,1.438-3.347,1.585-4.6.575-.078,1.131-.108,1.644-.108h7.399v-1.5c0-.827-.673-1.5-1.5-1.5ZM1.06,1.688c-.028-.023-.104-.086-.026-.272.09-.219.353-.43.578-.414,2.333.225,4.109.854,5.346,1.468-.994.839-1.865,1.912-2.536,3.252-.718-1.271-1.854-2.784-3.362-4.034Zm11.891,11.574c-.391-.879-.781-1.65-1.068-2.192.66-.357,1.352-.603,2.038-.769-.139.84-.46,1.82-.97,2.961Zm10.049-4.263h-6.399c-3.565,0-6.335,1.285-8.013,3.716-.956,1.386-1.924,3.791-2.356,5.852l-.098.469.464.118c1.833.468,3.16,2.012,3.372,3.851-2.958-.21-3.979-2.143-4.022-2.228l-.451-.902-.447.906c-.043.087-1.029,2.017-4.02,2.225.221-1.891,1.631-3.487,3.517-3.898l.512-.111-.135-.506c-.421-1.579-.923-3.9-.923-5.99C4,1.555,12.33,1,14,1c4.596,0,7,3.27,7,6.5v.5h1.5c.276,0,.5.225.5.5v.5Zm-4-3c0,.552-.448,1-1,1s-1-.448-1-1,.448-1,1-1,1,.448,1,1Z"/>
</svg>
