<?xml version="1.0" encoding="UTF-8"?>
<svg xmlns="http://www.w3.org/2000/svg" id="Layer_1" data-name="Layer 1" width="512" height="512" viewBox="0 0 24 24"><path d="M21.5,9H12V3c0-1.103-.897-2-2-2s-2,.897-2,2,.897,2,2,2c.364,0,.706-.098,1-.269v4.269H2.5c-1.378,0-2.5,1.122-2.5,2.5v12.5H24V11.5c0-1.378-1.122-2.5-2.5-2.5ZM10,4c-.551,0-1-.449-1-1s.449-1,1-1,1,.449,1,1-.449,1-1,1Zm13,7.5v4.5h-6v-6h4.5c.827,0,1.5,.673,1.5,1.5Zm-15,4.5v-6h8v6H8ZM2.5,10H7v6H1v-4.5c0-.827,.673-1.5,1.5-1.5Zm-1.5,13v-6H23v6H1ZM15,4c1.103,0,2-.897,2-2s-.897-2-2-2-2,.897-2,2,.897,2,2,2Zm0-3c.551,0,1,.449,1,1s-.449,1-1,1-1-.449-1-1,.449-1,1-1ZM6.275,4.427L0,5.634v-1.019l6.046-1.163c.039,.339,.111,.667,.229,.975ZM24,0V1.019l-5.002,.962c-.002-.344-.06-.672-.143-.991l5.145-.989Z"/></svg>
