<?xml version="1.0" encoding="UTF-8"?>
<svg xmlns="http://www.w3.org/2000/svg" id="Layer_1" data-name="Layer 1" viewBox="0 0 24 24">
  <path d="m8.532,14.055c-.472.718-.631,1.453-.474,2.182.212.988,1,1.921,2.341,2.775,1.122.714,2.042.99,2.793.99,1.181,0,1.947-.681,2.431-1.418,1.101-1.678,1.714-7.835,1.824-9.041L23.413.781l-.826-.562-5.944,8.73c-1.045.5-6.99,3.397-8.11,5.106Zm.504,1.972c-.101-.465.009-.93.332-1.423.66-1.005,3.843-2.792,6.124-3.965l-4.939,7.254c-.85-.613-1.385-1.252-1.517-1.866Zm5.751,2.008c-.479.728-1.356,1.501-3.388.391l4.853-7.127c-.295,2.43-.818,5.751-1.465,6.736Zm9.177-4.112c-.743,4.37-3.604,8.026-7.85,10.03l-.102.048-8.128-.048C3.64,21.949.778,18.293.035,13.923c-.123-.726.079-1.465.556-2.03.412-.488.99-.782,1.614-.858-.131-.374-.205-.765-.205-1.174,0-1.426.782-2.74,2.021-3.445-.015-.138-.021-.276-.021-.415,0-2.206,1.794-4,4-4,.201,0,.404.018.619.056C9.281.794,10.566,0,12,0s2.719.794,3.381,2.057c.215-.038.418-.056.619-.056.904,0,1.73.313,2.401.821l-.562.827c-.51-.399-1.143-.647-1.839-.647-.235,0-1.206.232-1.206.232l-.163-.416c-.435-1.104-1.467-1.816-2.631-1.816s-2.196.713-2.631,1.816l-.163.416-.432-.116c-.293-.079-.539-.116-.774-.116-1.654,0-3,1.346-3,3,0,.2.141.988.141.988l-.365.164c-1.078.484-1.775,1.547-1.775,2.708,0,.413.111.784.291,1.141h5.662c-.466.336-.885.671-1.241,1H2.508c-.444,0-.865.196-1.153.537-.285.339-.407.783-.333,1.217.682,4.009,3.3,7.374,7.19,9.246h7.575c3.891-1.873,6.509-5.237,7.19-9.246.074-.435-.047-.878-.333-1.217-.288-.341-.709-.537-1.154-.537h-2.294c.042-.344.08-.678.115-1h1.139c.342-.441.549-1.015.549-1.56,0-.417-.089-.816-.249-1.181l.626-.922c.395.622.622,1.346.622,2.103,0,.531-.148,1.079-.393,1.573.696.033,1.348.343,1.801.879.477.564.679,1.304.556,2.03Z"/>
</svg>
