<?xml version="1.0" encoding="UTF-8"?>
<svg xmlns="http://www.w3.org/2000/svg" id="Layer_1" data-name="Layer 1" viewBox="0 0 24 24">
  <path d="m14.5,0H2v3H0v1h2v3.5H0v1h2v3H0v1h2v3H0v1h2v3.5H0v1h2v3h12.5c1.378,0,2.5-1.121,2.5-2.5V2.5c0-1.379-1.122-2.5-2.5-2.5Zm1.5,21.5c0,.827-.673,1.5-1.5,1.5H3V1h11.5c.827,0,1.5.673,1.5,1.5v19ZM6,6h7v1h-7v-1ZM21.5,0c-1.378,0-2.5,1.121-2.5,2.5v19.015l2.5,2.5,2.5-2.5V2.5c0-1.379-1.122-2.5-2.5-2.5Zm1.5,21.101l-1.5,1.5-1.5-1.5V2.5c0-.827.673-1.5,1.5-1.5s1.5.673,1.5,1.5v18.601Z"/>
</svg>
