<?xml version="1.0" encoding="UTF-8"?>
<svg xmlns="http://www.w3.org/2000/svg" id="Layer_1" data-name="Layer 1" viewBox="0 0 24 24">
  <path d="m23.397,14.118l-4.539,1.231-2.859-1.639v-3.421l2.798-1.604,4.6,1.247.262-.965-4.295-1.164,1.165-4.295-.965-.262-1.235,4.555-2.747,1.575-3.082-1.779v-3.391l3.354-3.354-.707-.707-3.146,3.146L8.854.146l-.707.707,3.354,3.354v3.391l-3.082,1.779-2.747-1.575-1.236-4.555-.965.262,1.165,4.295L.341,8.968l.262.965,4.6-1.247,2.798,1.604v3.37l-2.919,1.673-4.478-1.215-.262.965,4.295,1.165-1.165,4.295.965.262,1.268-4.676,2.795-1.602,3.001,1.732v3.535l-3.354,3.354.707.707,3.146-3.146,3.146,3.146.707-.707-3.354-3.354v-3.535l2.957-1.707,2.855,1.637,1.252,4.616.965-.262-1.165-4.295,4.295-1.165-.262-.965Zm-8.397-.458l-3,1.732-3-1.732v-3.464l3-1.732,3,1.732v3.464Z"/>
</svg>
