<?xml version="1.0" encoding="UTF-8"?>
<svg xmlns="http://www.w3.org/2000/svg" id="Layer_1" data-name="Layer 1" viewBox="0 0 24 24" width="512" height="512"><path d="M16,6c0,.552-.448,1-1,1s-1-.448-1-1,.448-1,1-1,1,.448,1,1Zm-7-1c-.552,0-1,.448-1,1s.448,1,1,1,1-.448,1-1-.448-1-1-1Zm2.5,5v7h1v-7h-1Zm6.089,12.07c-.478,.591-1.187,.93-1.945,.93h-4.644v-3.5c0-.275,.224-.5,.5-.5h3c.276,0,.5,.225,.5,.5v1.5h1v-1.5c0-.827-.673-1.5-1.5-1.5h-3c-.827,0-1.5,.673-1.5,1.5v4.5h5.644c1.062,0,2.055-.475,2.723-1.301l1.522-1.885-.778-.629-1.522,1.885ZM12,0C5.383,0,0,5.383,0,12c0,5.213,3.347,9.647,8,11.3v-1.064c-4.091-1.605-7-5.583-7-10.236C1,5.935,5.935,1,12,1s11,4.935,11,11c0,2.579-.908,4.94-2.402,6.816l.784,.633c1.634-2.047,2.618-4.632,2.618-7.449C24,5.383,18.617,0,12,0Zm3,12.323c1.367-.602,2.273-1.396,2.333-1.45l-.666-.746c-.012,.01-.669,.572-1.667,1.079v1.117Zm-8.333-1.45c.06,.054,.966,.847,2.333,1.45v-1.117c-.998-.507-1.656-1.069-1.667-1.079l-.666,.746Z"/></svg>
