<?xml version="1.0" encoding="UTF-8"?>
<svg xmlns="http://www.w3.org/2000/svg" id="Layer_1" data-name="Layer 1" viewBox="0 0 24 24" width="512" height="512"><path d="m10.865,13.212c-1.353.497-2.193,1.664-2.193,3.046,0,1.842,1.013,3.954,1.862,5.4.309.527.867.841,1.492.841s1.182-.314,1.491-.84c1.213-2.067,1.84-3.857,1.862-5.321.013-.858-.353-1.718-1.005-2.357-.934-.915-2.272-1.223-3.509-.769Zm1.789,7.941c-.127.217-.362.347-.628.347s-.501-.13-.629-.347c-1.128-1.922-1.725-3.614-1.725-4.895,0-.952.589-1.76,1.538-2.108.271-.1.547-.15.818-.15.605,0,1.189.247,1.646.695.457.449.714,1.042.705,1.628-.02,1.271-.616,2.942-1.725,4.831Zm11.032-7.794h0c-.258-.828-.882-1.543-1.711-1.964-.822-.418-1.735-.507-2.573-.253-.378.115-.735.299-1.06.545-1.157.878-1.603,2.252-1.165,3.586.583,1.771,2.231,3.504,3.512,4.647.327.292.739.445,1.165.445.186,0,.375-.029.56-.089.591-.19,1.022-.655,1.153-1.244.358-1.614.67-3.908.12-5.674Zm-1.097,5.457c-.076.344-.363.471-.483.509-.268.086-.549.031-.751-.15-1.706-1.522-2.822-2.979-3.228-4.214-.301-.916.013-1.864.82-2.477.23-.175.481-.305.745-.385.217-.066.442-.099.669-.099.391,0,.788.097,1.161.286.59.3,1.031.799,1.209,1.371.384,1.231.334,3.015-.142,5.159ZM5.659,11.688c-.325-.247-.682-.431-1.061-.546-.839-.254-1.752-.166-2.572.253-.83.421-1.453,1.137-1.711,1.964h0c-.55,1.766-.238,4.06.12,5.674.131.588.562,1.053,1.153,1.243.185.06.374.089.56.089.426,0,.837-.153,1.165-.445,1.281-1.143,2.929-2.877,3.512-4.647.438-1.333-.008-2.708-1.165-3.585Zm.214,3.273c-.406,1.235-1.522,2.692-3.228,4.214-.202.18-.484.237-.751.15-.12-.039-.407-.166-.483-.509-.477-2.144-.526-3.928-.142-5.159.179-.571.62-1.071,1.21-1.371.59-.3,1.239-.367,1.829-.188.265.08.515.21.746.385.806.612,1.12,1.561.819,2.477Zm.292-9.149C2.66,4.415.318,2.268.176,2.134l.683-.731c.049.046,5.002,4.597,11.154,4.597S23.118,1.45,23.167,1.404l.683.73c-.143.134-2.484,2.281-5.989,3.677l1.352,3.424c-.324.087-.637.205-.937.351l-1.355-3.432c-1.344.452-2.829.766-4.408.823v4.043c-.331-.031-.666-.03-1,.002v-4.045c-1.58-.057-3.065-.371-4.408-.823l-1.355,3.432c-.3-.146-.613-.263-.937-.351l1.352-3.424Z"/></svg>
