<?xml version="1.0" encoding="UTF-8"?>
<svg xmlns="http://www.w3.org/2000/svg" id="Layer_1" data-name="Layer 1" viewBox="0 0 24 24">
  <path d="m8,0C4.691,0,2,2.691,2,6s2.691,6,6,6,6-2.691,6-6S11.309,0,8,0Zm0,11c-2.757,0-5-2.243-5-5S5.243,1,8,1s5,2.243,5,5-2.243,5-5,5Zm-3,3h6v1h-6c-2.206,0-4,1.794-4,4v5H0v-5c0-2.757,2.243-5,5-5Zm17.287-2.51l-3.787-1.255-3.787,1.255c-1.024.34-1.713,1.294-1.713,2.373v3.531c0,3.613,3.868,5.83,5.054,6.423l.425.212.441-.178c1.191-.479,5.08-2.361,5.08-6.458v-3.531c0-1.079-.688-2.033-1.713-2.373Zm.713,5.904c0,3.469-3.408,5.109-4.454,5.53l-.022.01-.022-.011c-1.056-.528-4.501-2.489-4.501-5.528v-3.531c0-.647.413-1.22,1.027-1.424l3.473-1.151,3.473,1.151c.614.204,1.027.776,1.027,1.424v3.531Z"/>
</svg>
