<?xml version="1.0" encoding="UTF-8"?>
<svg xmlns="http://www.w3.org/2000/svg" id="Layer_1" data-name="Layer 1" viewBox="0 0 24 24">
  <path d="m18.395,17.688c2.294-1.908,3.605-4.694,3.605-7.688C22,4.486,17.514,0,12,0c-3,0-5.78,1.309-7.688,3.605L.753.046.046.753l23.2,23.2.707-.707-5.558-5.558ZM12,1c4.962,0,9,4.038,9,9,0,2.725-1.207,5.258-3.316,6.977l-2.854-2.854c1.353-.925,2.17-2.451,2.17-4.123,0-2.757-2.243-5-5-5-1.672,0-3.198.817-4.123,2.17l-2.855-2.855c1.719-2.11,4.247-3.315,6.978-3.315Zm2.107,12.4l-5.507-5.507c.727-1.176,1.999-1.893,3.4-1.893,2.206,0,4,1.794,4,4,0,1.401-.717,2.674-1.893,3.4Zm-2.703,1.54c-2.276-.275-4.069-2.068-4.344-4.344l4.344,4.344Zm3.952,3.719l-.355-.159-.011.026-.023-.023c-.942.328-1.939.498-2.966.498-4.962,0-9-4.038-9-9,0-1.026.171-2.023.5-2.965l-.773-.773c-.475,1.176-.727,2.435-.727,3.738,0,3.994,2.353,7.447,5.746,9.049-1.407,1.062-2.359,2.612-2.655,4.368l-.098.583h13.849l-.098-.583c-.328-1.947-1.544-3.671-3.387-4.758Zm-9.151,4.341c.4-1.46,1.345-2.71,2.661-3.504.986.326,2.04.504,3.134.504,1.008,0,1.988-.151,2.923-.439,1.363.815,2.306,2.02,2.703,3.439H6.205Z"/>
</svg>
