<?xml version="1.0" encoding="UTF-8"?>
<svg xmlns="http://www.w3.org/2000/svg" id="Layer_1" data-name="Layer 1" viewBox="0 0 24 24" width="512" height="512"><path d="M12,0C5.383,0,0,5.383,0,12s5.383,12,12,12h12V12C24,5.383,18.617,0,12,0Zm11,23H12c-6.065,0-11-4.935-11-11S5.935,1,12,1s11,4.935,11,11v11ZM6,10v3h4v.5c0,1.385-1.641,2.5-3,2.5v1c1.888,0,4-1.497,4-3.5v-5.5h-3c-1.103,0-2,.897-2,2Zm4,2h-3v-2c0-.552,.449-1,1-1h2v3Zm3-2v3h4v.5c0,1.385-1.642,2.5-3,2.5v1c1.889,0,4-1.497,4-3.5v-5.5h-3c-1.103,0-2,.897-2,2Zm4,2h-3v-2c0-.552,.448-1,1-1h2v3Z"/></svg>
