<?xml version="1.0" encoding="UTF-8"?>
<svg xmlns="http://www.w3.org/2000/svg" id="Layer_1" data-name="Layer 1" viewBox="0 0 24 24" width="512" height="512"><path d="M23.02,14.08c-.39-1.98-1.19-3.68-2.37-5.05l.76-.65c1.3,1.51,2.18,3.36,2.6,5.51l-.98,.19Zm-1.29,7.02l2.14,2.14-.71,.71L-.02,.75,.68,.05,3.05,2.41c.6-.27,1.25-.41,1.88-.41,2.65,0,5.07,2.38,5.07,5,0,.64-.07,1.36-.21,2.16l2.53,2.53c.52-.99,1.58-1.69,2.67-1.69,1.57,0,2.99,1.43,2.99,3,0,.93-.34,2.19-.91,3.44l3.95,3.95c.8-.6,1.45-1.69,2.01-3.39l.95,.32c-.61,1.83-1.33,3.05-2.25,3.79ZM13.09,12.45l3.24,3.24c.42-1,.67-1.99,.67-2.68,0-1.03-.97-2-1.99-2-.82,0-1.64,.64-1.91,1.45ZM3.82,3.18l5.1,5.1c.06-.46,.09-.89,.09-1.28,0-2.06-1.98-4-4.07-4-.37,0-.75,.06-1.11,.18Zm10.43,15.72c-1.03,1.1-2.48,2.09-4.33,2.09-1.39,0-2.8-.99-4.08-2.48,1.35-1.76,2.4-3.97,3.1-6.04l-.79-.79c-.66,2.09-1.67,4.29-2.95,6.03C2.79,14.49,1,9.68,1,7c0-.67,.19-1.33,.54-1.93l-.73-.73c-.51,.79-.8,1.72-.8,2.66,0,2.94,1.88,8.08,4.55,11.51-1.3,1.49-2.84,2.49-4.55,2.49v1c2.01,0,3.75-1.09,5.2-2.7,1.44,1.62,3.06,2.7,4.72,2.7,1.79,0,3.52-.82,4.96-2.29,1,1.16,2.2,2.05,3.55,2.25l-5.57-5.57c.37,.85,.84,1.73,1.4,2.52Z"/></svg>
