<?xml version="1.0" encoding="UTF-8"?>
<svg xmlns="http://www.w3.org/2000/svg" id="Layer_1" data-name="Layer 1" viewBox="0 0 24 24">
  <path d="m24,4v1h-13v5.511c.056.042.116.078.169.126,1.025.918,1.112,2.5.194,3.525l-.363.395v4.444h13v1h-14v-4.357l-2.346,2.549c-.472.513-1.143.808-1.84.808H0v-1h5.814c.418,0,.821-.177,1.104-.484l3.705-4.026c.546-.61.494-1.558-.12-2.108-.552-.494-1.394-.506-1.96-.032l-3.153,3.051-.695-.719,3.179-3.074c.613-.516,1.399-.695,2.127-.551v-3.057h-4.731c-.371,0-.729.137-1.006.387L0,11.115v-1.343l3.593-3.128c.462-.416,1.058-.645,1.676-.645h4.731v-2h14Zm-10,3c-.552,0-1,.448-1,1s.448,1,1,1,1-.448,1-1-.448-1-1-1Zm0,8c-.552,0-1,.448-1,1s.448,1,1,1,1-.448,1-1-.448-1-1-1Zm4-3c0,2.206,1.794,4,4,4,.732,0,1.409-.212,2-.556v-1.224c-.532.48-1.229.78-2,.78-1.654,0-3-1.346-3-3s1.346-3,3-3c.771,0,1.468.301,2,.78v-1.224c-.591-.345-1.268-.556-2-.556-2.206,0-4,1.794-4,4Z"/>
</svg>
