<?xml version="1.0" encoding="UTF-8"?>
<svg xmlns="http://www.w3.org/2000/svg" id="Layer_1" data-name="Layer 1" viewBox="0 0 24 24" width="512" height="512"><path d="M9,5c0-.552,.448-1,1-1s1,.448,1,1-.448,1-1,1-1-.448-1-1Zm-2,0c0-.552-.448-1-1-1s-1,.448-1,1,.448,1,1,1,1-.448,1-1ZM23.362,13.182l-9.638,10.818H2.5c-1.379,0-2.5-1.122-2.5-2.5v-7c0-1.378,1.121-2.5,2.5-2.5H13.357c1.208,0,2.229,.814,2.543,1.922l3.732-4.102c.451-.496,1.069-.787,1.739-.818,.668-.02,1.312,.2,1.809,.652,1.013,.923,1.094,2.506,.182,3.527Zm-.855-2.788c-.299-.272-.683-.41-1.088-.393-.403,.019-.774,.194-1.046,.492l-4.496,4.94c-.301,.945-1.124,1.677-2.145,1.824l-5.668,.738-.129-.991,5.661-.737c.797-.114,1.403-.813,1.403-1.625,0-.905-.737-1.642-1.643-1.642H2.5c-.827,0-1.5,.673-1.5,1.5v7c0,.827,.673,1.5,1.5,1.5H13.275l9.341-10.483c.549-.615,.5-1.567-.109-2.123ZM5,8H3v-3C3,2.243,5.243,0,8,0s5,2.243,5,5v3h-2v2H5v-2Zm1-1v2h4v-2h2v-2c0-2.206-1.794-4-4-4s-4,1.794-4,4v2h2Z"/></svg>
