<?xml version="1.0" encoding="UTF-8"?>
<svg xmlns="http://www.w3.org/2000/svg" id="Layer_1" data-name="Layer 1" viewBox="0 0 24 24" width="512" height="512"><path d="M17.518,7.02c.146-1.968,1.203-5.02,4.482-5.02V1c-1.693,0-2.901,.644-3.746,1.563-.485-.381-3.476-2.563-8.254-2.563C4.878,0,1.808,2.509,1.68,2.616l-.461,.384,.461,.384c.091,.076,1.655,1.355,4.378,2.096-1.703,.676-3.277,2.037-4.43,3.861C-.948,13.411-.451,17.905,2.808,20.026c.993,.646,2.099,.962,3.232,.962,1.559,0,3.167-.598,4.597-1.758,1.077,2.899,3.428,4.77,6.362,4.77,4.056,0,7-3.575,7-8.5,0-4.712-2.695-8.189-6.482-8.48Zm-1.002-.002c-1.062,.076-2.038,.402-2.894,.935-.47-.795-1.11-1.459-1.909-1.979-.031-.02-.062-.039-.093-.059,2.589-.275,4.514-1.157,5.621-1.804-.455,.985-.668,2.041-.725,2.907ZM10,1c3.554,0,6.078,1.325,7.132,2-1.055,.675-3.579,2-7.132,2S3.922,3.675,2.868,3c1.055-.675,3.579-2,7.132-2ZM3.354,19.188c-2.78-1.81-3.151-5.726-.882-9.312,1.253-1.981,3.032-3.349,4.88-3.752,1.351-.297,2.671-.057,3.815,.688,.697,.454,1.249,1.037,1.645,1.738-1.741,1.5-2.812,3.979-2.812,6.95,0,.953,.111,1.854,.318,2.69-2.211,1.983-4.855,2.371-6.964,.999Zm13.646,3.812c-3.477,0-6-3.154-6-7.5s2.523-7.5,6-7.5,6,3.154,6,7.5-2.523,7.5-6,7.5Zm0-4v1c-1.767,0-3-1.645-3-4h1c0,1.767,.822,3,2,3ZM5.908,12.319c-.98,1.18-1.196,2.529-.502,3.141l-.661,.75c-1.127-.992-.962-2.897,.394-4.529l.77,.639Z"/></svg>
