<?xml version="1.0" encoding="UTF-8"?>
<svg xmlns="http://www.w3.org/2000/svg" id="Layer_1" data-name="Layer 1" viewBox="0 0 24 24" width="512" height="512"><path d="m11.5,15.5c.616,0,1.238-.112,1.848-.333l1.379-.499-1.397-.447c-2.023-.648-3.33-2.305-3.33-4.221s1.307-3.573,3.33-4.221l1.397-.447-1.379-.499c-.61-.221-1.231-.333-1.848-.333-3.033,0-5.5,2.467-5.5,5.5s2.467,5.5,5.5,5.5Zm0-10c.022,0,.044,0,.067,0-1.597,1.003-2.567,2.65-2.567,4.5s.97,3.497,2.567,4.5c-2.5.086-4.566-1.996-4.567-4.5,0-2.481,2.019-4.5,4.5-4.5Zm1.5,3.5h1.812l.491-1.875h.404l.49,1.875h1.802v.382l-1.375.796.552,1.679-.312.218-1.359-1.051-1.364,1.055-.301-.226.543-1.698-1.384-.77v-.384ZM19.5,0H3.5c-.827,0-1.5.673-1.5,1.5v22.5h17.5c1.378,0,2.5-1.122,2.5-2.5V2.5c0-1.378-1.122-2.5-2.5-2.5ZM3.5,1h16c.827,0,1.5.673,1.5,1.5v17.001c-.418-.315-.938-.501-1.5-.501H3V1.5c0-.276.224-.5.5-.5Zm16,22H3v-3h16.5c.827,0,1.5.673,1.5,1.5s-.673,1.5-1.5,1.5Z"/></svg>
