<?xml version="1.0" encoding="UTF-8"?>
<svg xmlns="http://www.w3.org/2000/svg" id="Layer_1" data-name="Layer 1" viewBox="0 0 24 24">
  <path d="m22.999,5h-1.688l-.631-3.013c-.242-1.151-1.271-1.987-2.447-1.987H5.767c-1.176,0-2.205.836-2.447,1.987l-.631,3.013H.999v1h1.648l1.734,15.773c.14,1.27,1.208,2.227,2.485,2.227h10.267c1.277,0,2.346-.957,2.485-2.227l1.734-15.773h1.647v-1ZM4.299,2.192c.145-.691.763-1.192,1.468-1.192h12.466c.706,0,1.323.501,1.468,1.192l.588,2.808H3.711l.588-2.808Zm14.325,19.472c-.083.762-.725,1.336-1.491,1.336H6.866c-.767,0-1.408-.574-1.491-1.336l-.293-2.664h13.835l-.293,2.664Zm.403-3.664H4.972l-.769-7h15.594l-.769,7Zm.879-8H4.092l-.44-4h16.693l-.44,4Z"/>
</svg>
