<?xml version="1.0" encoding="UTF-8"?>
<svg xmlns="http://www.w3.org/2000/svg" id="Layer_1" data-name="Layer 1" viewBox="0 0 24 24">
  <path d="m15,8v8h-4v-4.5c0-2.329-1.456-4.325-3.506-5.126.909-.633,1.506-1.685,1.506-2.874,0-1.93-1.57-3.5-3.5-3.5s-3.5,1.57-3.5,3.5c0,1.189.596,2.242,1.506,2.874-2.05.8-3.506,2.796-3.506,5.126v12.5h1v-7h22v7h1V8h-9Zm4,1h1v2h-1v-2ZM3,3.5c0-1.379,1.121-2.5,2.5-2.5s2.5,1.121,2.5,2.5-1.121,2.5-2.5,2.5-2.5-1.121-2.5-2.5ZM1,11.5c0-2.481,2.019-4.5,4.5-4.5s4.5,2.019,4.5,4.5v4.5H1v-4.5Zm15,4.5v-7h2v3h3v-3h2v7h-7Z"/>
</svg>
