<?xml version="1.0" encoding="UTF-8"?>
<svg xmlns="http://www.w3.org/2000/svg" id="Layer_1" data-name="Layer 1" viewBox="0 0 24 24">
  <path d="m23.664,0h-8.475l-2.97,6.003c-.073-.002-.146-.003-.219-.003-.076,0-.152,0-.228.003L8.811,0H.324l4.637,9.399c-1.227,1.538-1.961,3.485-1.961,5.601,0,4.963,4.038,9,9,9s9-4.037,9-9c0-2.116-.734-4.063-1.96-5.601L23.664,0Zm-7.854,1h6.243l-3.751,7.582c-1.334-1.311-3.074-2.209-5.012-2.489l2.52-5.093ZM1.933,1h6.256l2.513,5.094c-1.943.282-3.686,1.186-5.021,2.504L1.933,1Zm10.067,22c-4.411,0-8-3.589-8-8S7.589,7,12,7s8,3.589,8,8-3.589,8-8,8Zm.201-13h.799v10h-1v-8.353l-1.64,1.7-.72-.695,2.561-2.652Z"/>
</svg>
