<?xml version="1.0" encoding="UTF-8"?>
<svg xmlns="http://www.w3.org/2000/svg" id="Layer_1" data-name="Layer 1" viewBox="0 0 24 24">
  <path d="m20.119,1.595c-.56-.476-1.302-.679-2.035-.562-.47.076-.894.296-1.235.612-.35-.959-1.271-1.645-2.349-1.645-.817,0-1.544.394-2,1.002-.456-.608-1.183-1.002-2-1.002-1.073,0-1.989.679-2.344,1.63-.441-.391-1.022-.63-1.656-.63-1.378,0-2.5,1.122-2.5,2.5v4.027l-2.268,2.463c-.472.472-.732,1.1-.732,1.768s.26,1.295.735,1.771l5.265,5.181v5.291h1v-5.709l-5.561-5.473c-.283-.283-.439-.66-.439-1.061s.156-.777.454-1.075l2.986-3.243c.566-.566,1.555-.566,2.121,0,.283.283.439.66.439,1.061s-.156.777-.451,1.073l-2.119,2.265.73.684,2.107-2.254c.472-.472.732-1.1.732-1.768s-.26-1.296-.732-1.768c-.857-.858-2.285-.948-3.268-.227v-3.005c0-.827.673-1.5,1.5-1.5s1.5.673,1.5,1.5v2c0,1.378,1.122,2.5,2.5,2.5.817,0,1.544-.394,2-1.002.456.608,1.183,1.002,2,1.002s1.544-.394,2-1.002c.456.608,1.183,1.002,2,1.002.562,0,1.082-.187,1.5-.501v5.485c0,1.232-.323,2.448-.934,3.518l-1.066,1.865v5.633h1v-5.367l.934-1.635c.697-1.22,1.066-2.607,1.066-4.014V3.5c0-.734-.321-1.429-.881-1.905Zm-9.619,5.405c-.827,0-1.5-.673-1.5-1.5v-3c0-.827.673-1.5,1.5-1.5s1.5.673,1.5,1.5v3c0,.827-.673,1.5-1.5,1.5Zm4,0c-.827,0-1.5-.673-1.5-1.5v-3c0-.827.673-1.5,1.5-1.5s1.5.673,1.5,1.5v3c0,.827-.673,1.5-1.5,1.5Zm5.5-1.5c0,.827-.673,1.5-1.5,1.5s-1.5-.673-1.5-1.5v-1.893c0-.789.535-1.471,1.244-1.586.087-.014.173-.021.258-.021.357,0,.694.123.969.357.336.286.529.703.529,1.143v2Z"/>
</svg>
