<?xml version="1.0" encoding="UTF-8"?>
<svg xmlns="http://www.w3.org/2000/svg" id="Layer_1" data-name="Layer 1" viewBox="0 0 24 24" width="512" height="512"><path d="M17.564,15.015c.581,.581,.581,1.524,0,2.105l-3.256,3.256-.707-.707,3.256-3.256c.19-.19,.19-.5,0-.691l-3.323-3.323,.707-.707,3.323,3.323Zm-7.098-2.616l-.707-.707-3.323,3.323c-.581,.581-.581,1.524,0,2.105l3.256,3.256,.707-.707-3.256-3.256c-.19-.19-.19-.5,0-.691l3.323-3.323Zm11.534-5.106V24H2V2.5C2,1.122,3.122,0,4.5,0H14.707l7.293,7.293Zm-7-.293h5.293L15,1.707V7Zm6,16V8h-7V1H4.5c-.827,0-1.5,.673-1.5,1.5V23H21Z"/></svg>
