<?xml version="1.0" encoding="UTF-8"?>
<svg xmlns="http://www.w3.org/2000/svg" id="Layer_1" data-name="Layer 1" viewBox="0 0 24 24">
  <path d="m17,15c-1.103,0-2,.897-2,2s.897,2,2,2,2-.897,2-2-.897-2-2-2Zm0,3c-.551,0-1-.449-1-1s.449-1,1-1,1,.449,1,1-.449,1-1,1Zm-13-4h4v1h-4c-1.654,0-3,1.346-3,3v6H0v-6c0-2.206,1.794-4,4-4ZM14,6c0-3.309-2.691-6-6-6S2,2.691,2,6s2.691,6,6,6,6-2.691,6-6Zm-6,5c-2.757,0-5-2.243-5-5S5.243,1,8,1s5,2.243,5,5-2.243,5-5,5Zm14,6c0-.353-.046-.716-.14-1.101l1.941-1.133-1.513-2.591-1.936,1.13c-.537-.488-1.167-.851-1.853-1.068v-2.238h-3v2.238c-.687.217-1.316.58-1.853,1.068l-1.936-1.13-1.513,2.591,1.941,1.133c-.094.385-.14.748-.14,1.101s.046.715.14,1.1l-1.941,1.134,1.513,2.591,1.936-1.131c.537.489,1.167.852,1.853,1.068v2.238h3v-2.238c.687-.217,1.316-.58,1.853-1.068l1.936,1.131,1.513-2.591-1.941-1.134c.094-.385.14-.747.14-1.1Zm.434,2.593l-.504.863-1.747-1.02-.272.291c-.549.586-1.249.989-2.021,1.165l-.389.088v2.019h-1v-2.019l-.389-.088c-.773-.176-1.472-.579-2.021-1.165l-.272-.291-1.747,1.02-.504-.863,1.755-1.025-.119-.38c-.138-.439-.202-.817-.202-1.188s.064-.748.202-1.188l.119-.38-1.755-1.024.504-.863,1.747,1.02.273-.291c.549-.586,1.249-.989,2.021-1.165l.389-.088v-2.019h1v2.019l.389.088c.773.176,1.472.579,2.021,1.165l.273.291,1.747-1.02.504.863-1.755,1.024.119.38c.138.44.202.818.202,1.188s-.064.748-.202,1.188l-.119.38,1.755,1.025Z"/>
</svg>
