<?xml version="1.0" encoding="UTF-8"?>
<svg xmlns="http://www.w3.org/2000/svg" id="Layer_1" data-name="Layer 1" viewBox="0 0 24 24" width="512" height="512"><path d="M5,9h5v1H5v-1Zm5-4H5v1h5v-1ZM2,23h15v1H1V2.5C1,1.122,2.122,0,3.5,0H13.707l7.293,7.293v.707H13V1H3.5c-.827,0-1.5,.673-1.5,1.5V23ZM14,7h5.293L14,1.707V7Zm10,8v-.5c0-1.378-1.121-2.5-2.5-2.5h-1v-2h-1v2h-1c-1.379,0-2.5,1.122-2.5,2.5,0,1.37,.981,2.521,2.334,2.739l3.174,.51c.864,.139,1.492,.875,1.492,1.751,0,.827-.673,1.5-1.5,1.5h-3c-.827,0-1.5-.673-1.5-1.5v-.5h-1v.5c0,1.378,1.121,2.5,2.5,2.5h1v2h1v-2h1c1.379,0,2.5-1.122,2.5-2.5,0-1.37-.981-2.521-2.334-2.739l-3.174-.51c-.864-.139-1.492-.875-1.492-1.751,0-.827,.673-1.5,1.5-1.5h3c.827,0,1.5,.673,1.5,1.5v.5h1Zm-9.949-1c.039-.347,.112-.681,.226-1H5v6H14v-1H6v-4H14.051Z"/></svg>
