<?xml version="1.0" encoding="UTF-8"?>
<svg xmlns="http://www.w3.org/2000/svg" id="Layer_1" data-name="Layer 1" width="512" height="512" viewBox="0 0 24 24"><path d="M10,24c-2.671,0-5.183-1.04-7.071-2.929C-.98,17.162-.98,10.304,2.929,6.395L10,.04l7.052,6.336c3.929,3.928,3.929,10.786,.02,14.695h0c-1.89,1.889-4.4,2.929-7.071,2.929ZM10,1.385L3.616,7.12c-3.513,3.514-3.513,9.711,.02,13.244,1.7,1.7,3.96,2.636,6.364,2.636s4.664-.937,6.364-2.636c3.532-3.533,3.532-9.729,0-13.262L10,1.385Zm11.5,3.615c-1.379,0-2.5-1.122-2.5-2.5s1.121-2.5,2.5-2.5,2.5,1.122,2.5,2.5-1.121,2.5-2.5,2.5Zm0-4c-.827,0-1.5,.673-1.5,1.5s.673,1.5,1.5,1.5,1.5-.673,1.5-1.5-.673-1.5-1.5-1.5Z"/></svg>
