<?xml version="1.0" encoding="UTF-8"?>
<svg xmlns="http://www.w3.org/2000/svg" id="Layer_1" data-name="Layer 1" viewBox="0 0 24 24" width="512" height="512"><path d="m22,6h-8c-1.103,0-2,.897-2,2v16h12V8c0-1.103-.897-2-2-2Zm1,17h-10v-15c0-.551.448-1,1-1h8c.552,0,1,.449,1,1v15Zm-5-8c-1.654,0-3,1.346-3,3s1.346,3,3,3,3-1.346,3-3-1.346-3-3-3Zm0,5c-1.103,0-2-.897-2-2s.897-2,2-2,2,.897,2,2-.897,2-2,2Zm-1.5-8.5c0-.828.672-1.5,1.5-1.5s1.5.672,1.5,1.5-.672,1.5-1.5,1.5-1.5-.672-1.5-1.5ZM1,16h9v5h-5v-1h4v-3H0V2.5C0,1.122,1.121,0,2.5,0h16c1.379,0,2.5,1.122,2.5,2.5v1.5h-1v-1.5c0-.827-.673-1.5-1.5-1.5H2.5c-.827,0-1.5.673-1.5,1.5v13.5Z"/></svg>
