<?xml version="1.0" encoding="UTF-8"?>
<svg xmlns="http://www.w3.org/2000/svg" id="Layer_1" data-name="Layer 1" width="512" height="512" viewBox="0 0 24 24"><path d="M5,19h3v1h-3v-1Zm0,5H14v-1H5v1ZM14,15H5v1H14v-1Zm3.003-9.978C15.87,2.004,12.999,0,9.75,0,5.477,0,2,3.477,2,7.75c0,.763,.116,1.523,.345,2.267-1.476,1.032-2.345,2.681-2.345,4.483,0,2.132,1.222,3.98,3,4.893v-1.154c-1.205-.808-2-2.182-2-3.738,0-1.582,.822-3.021,2.199-3.847l.354-.212-.141-.388c-.273-.752-.412-1.527-.412-2.304,0-3.722,3.028-6.75,6.75-6.75,2.931,0,5.51,1.873,6.417,4.661l.11,.339,.355,.007c3.511,.071,6.367,2.984,6.367,6.493,0,1.826-.788,3.528-2,4.732v1.315c1.787-1.386,3-3.623,3-6.047,0-3.933-3.107-7.216-6.997-7.478Zm-1.003,10.978h3v-1h-3v1Zm-6,4h9v-1H10v1Zm6,4h3v-1h-3v1Z"/></svg>
