<?xml version="1.0" encoding="UTF-8"?>
<svg xmlns="http://www.w3.org/2000/svg" id="Layer_1" data-name="Layer 1" viewBox="0 0 24 24">
  <path d="m14,4c-1.654,0-3,1.346-3,3s1.346,3,3,3,3-1.346,3-3-1.346-3-3-3Zm0,5c-1.103,0-2-.897-2-2s.897-2,2-2,2,.897,2,2-.897,2-2,2ZM1,19h10v1H0v-11.5c0-1.207.86-2.217,2-2.449v1.042c-.581.207-1,.757-1,1.408v10.5Zm12,0h3v1h-3v-1ZM21.5,0H6.5c-1.378,0-2.5,1.122-2.5,2.5v11.5h20V2.5c0-1.378-1.122-2.5-2.5-2.5Zm1.5,13H5V2.5c0-.827.673-1.5,1.5-1.5h15c.827,0,1.5.673,1.5,1.5v10.5Zm.597,5.528c.26.26.403.605.403.972s-.143.712-.403.972l-2.659,2.659-.707-.707,2.424-2.424h-4.655v-1h4.655l-2.424-2.424.707-.707,2.659,2.659Zm-14.597-8.528c0,.552-.448,1-1,1s-1-.448-1-1,.448-1,1-1,1,.448,1,1Zm12,0c0,.552-.448,1-1,1s-1-.448-1-1,.448-1,1-1,1,.448,1,1Zm0-6c0,.552-.448,1-1,1s-1-.448-1-1,.448-1,1-1,1,.448,1,1Zm-12,0c0,.552-.448,1-1,1s-1-.448-1-1,.448-1,1-1,1,.448,1,1Z"/>
</svg>
