<?xml version="1.0" encoding="UTF-8"?>
<svg xmlns="http://www.w3.org/2000/svg" id="Layer_1" data-name="Layer 1" viewBox="0 0 24 24">
  <path d="m23.741,9.083c-.371-.668-1.072-1.083-1.83-1.083h-1.961c.099-.103.192-.213.279-.33,1.003-1.354.757-5.5.726-5.968l-.039-.581-.568.126c-.449.1-4.42,1.02-5.624,2.691-.076.105-.146.214-.211.326-.698-1.562-1.917-3.292-2.105-3.555l-.407-.57-.407.57c-.188.263-1.407,1.993-2.105,3.555-.065-.112-.135-.221-.211-.326-1.205-1.671-5.176-2.591-5.625-2.691l-.568-.126-.039.581c-.031.468-.277,4.614.726,5.967.087.117.18.227.279.33h-1.961c-.76,0-1.462.417-1.832,1.087-.359.65-.341,1.408.047,2.025,2.142,3.405,8.275,6.408,10.604,7.457-1.081,1.053-2.909,3.103-2.909,4.93v.5h8v-.5c0-1.603-1.407-3.378-2.482-4.5h2.982c1.378,0,2.5,1.122,2.5,2.5h1c0-1.93-1.57-3.5-3.5-3.5h-2.18c2.797-1.35,7.552-3.965,9.379-6.89.387-.62.402-1.377.042-2.027Zm-8.741-3.083h0c0-.454.204-1.02.534-1.477.715-.992,3.09-1.794,4.453-2.157.061,1.657-.037,4.001-.562,4.709-.428.578-1.082.915-1.795.924h0s-3.396,0-3.396,0c.476-.531.766-1.232.766-2Zm-3-4.119c.899,1.35,2,3.277,2,4.119,0,1.103-.897,2-2,2s-2-.897-2-2c0-.842,1.101-2.769,2-4.119Zm-7.987.485c1.363.363,3.737,1.165,4.453,2.157.33.457.534,1.022.534,1.476h0c0,.768.29,1.469.766,2h-3.396c-.713-.01-1.368-.347-1.795-.925-.524-.708-.622-3.052-.562-4.708Zm10.927,20.634h-5.88c.324-1.42,1.902-3.157,2.94-4.077,1.032.898,2.616,2.655,2.94,4.077Zm7.911-12.419c-1.69,2.707-6.323,5.236-9.02,6.539,1.012-1.351,2.17-3.295,2.17-5.12h-1c0,2.141-2.047,4.744-3,5.757-.966-1.028-3-3.616-3-5.757h-1c0,1.821,1.154,3.763,2.165,5.113-2.696-1.308-7.32-3.84-9.014-6.533-.195-.31-.202-.678-.019-1.009.194-.352.561-.571.957-.571h19.823c.395,0,.761.218.955.568.184.332.178.701-.016,1.012Z"/>
</svg>
