<?xml version="1.0" encoding="UTF-8"?>
<svg xmlns="http://www.w3.org/2000/svg" id="Layer_1" data-name="Layer 1" viewBox="0 0 24 24">
  <path d="m22,0h-8c-1.103,0-2,.897-2,2v8.695c0,.483.264.924.69,1.152.193.104.405.155.616.155.254,0,.508-.075.729-.222l2.618-1.779h7.347V2c0-1.103-.897-2-2-2Zm1,9h-6.653l-2.87,1.95c-.137.091-.266.042-.314.015-.049-.026-.162-.104-.162-.27V2c0-.551.448-1,1-1h8c.552,0,1,.449,1,1v7Zm-5,4.5c0-.565-.195-1.081-.513-1.5l-.905.466c.257.269.418.632.418,1.034v9.5H3v-9.5c0-.827.673-1.5,1.5-1.5h6v-3h-1v2h-5c-1.378,0-2.5,1.122-2.5,2.5v1.5H0v6h2v3h16v-3h2v-6h-2v-1.5ZM1,20v-4h1v4h-1Zm18-4v4h-1v-4h1Zm-14,2c0,1.103.897,2,2,2s2-.897,2-2-.897-2-2-2-2,.897-2,2Zm3,0c0,.551-.449,1-1,1s-1-.449-1-1,.449-1,1-1,1,.449,1,1Zm5,2c1.103,0,2-.897,2-2s-.897-2-2-2-2,.897-2,2,.897,2,2,2Zm0-3c.552,0,1,.449,1,1s-.448,1-1,1-1-.449-1-1,.449-1,1-1Z"/>
</svg>
