<?xml version="1.0" encoding="UTF-8"?>
<svg xmlns="http://www.w3.org/2000/svg" id="Layer_1" data-name="Layer 1" viewBox="0 0 24 24">
  <path d="m21.208,18h1.169c-2.079,3.581-5.946,6-10.376,6h-.016c-4.43,0-8.298-2.419-10.376-6h1.169c1.966,3.006,5.356,5,9.208,5h.016c3.852,0,7.242-1.994,9.208-5ZM12,1c3.852,0,7.242,1.994,9.208,5h1.168C20.296,2.419,16.425,0,11.984,0S3.686,2.419,1.607,6h1.17C4.744,2.994,8.138,1,12,1Zm-4.5,7c1.378,0,2.5,1.121,2.5,2.5v3c0,1.379-1.122,2.5-2.5,2.5s-2.5-1.121-2.5-2.5v-3c0-1.379,1.122-2.5,2.5-2.5Zm0,1c-.827,0-1.5.673-1.5,1.5v3c0,.827.673,1.5,1.5,1.5s1.5-.673,1.5-1.5v-3c0-.827-.673-1.5-1.5-1.5Zm6-1c1.378,0,2.5,1.121,2.5,2.5v3c0,1.379-1.122,2.5-2.5,2.5s-2.5-1.121-2.5-2.5v-3c0-1.379,1.122-2.5,2.5-2.5Zm0,1c-.827,0-1.5.673-1.5,1.5v3c0,.827.673,1.5,1.5,1.5s1.5-.673,1.5-1.5v-3c0-.827-.673-1.5-1.5-1.5Zm8.51,5c-.547,0-.99.443-.99.99s.443.99.99.99.99-.443.99-.99-.443-.99-.99-.99Zm-2.99-5.01c0-.558-.448-1.01-1-1.01s-1,.452-1,1.01.448,1.01,1,1.01,1-.452,1-1.01Zm-16.019.585v6.425h1v-8h-.889l-2.193,2.325.728.686,1.354-1.436Zm15.194,6.425l4.806-8h-1.194l-4.806,8h1.194Z"/>
</svg>
