<?xml version="1.0" encoding="UTF-8"?>
<svg xmlns="http://www.w3.org/2000/svg" id="Layer_1" data-name="Layer 1" viewBox="0 0 24 24">
  <path d="m24,10.834v1.166l-12,7.2L0,12v-1.166l12,7.2,12-7.2ZM0,14.134v1.166l12,7.2,12-7.2v-1.166l-12,7.2L0,14.134Zm12,1.746L.028,8.697,12,1.514l11.972,7.183-11.972,7.183Zm0-1.166l4.484-2.691-4.442-2.665-4.484,2.69,4.442,2.665Zm10.028-6.017l-4.442-2.665-4.572,2.743,4.442,2.665,4.572-2.743ZM12,2.68l-4.572,2.743,4.614,2.768,4.572-2.743-4.614-2.768ZM1.972,8.697l4.614,2.769,4.484-2.69-4.614-2.768-4.484,2.69Z"/>
</svg>
