<?xml version="1.0" encoding="UTF-8"?>
<svg xmlns="http://www.w3.org/2000/svg" id="Layer_1" data-name="Layer 1" viewBox="0 0 24 24" width="512" height="512"><path d="m23.95.758l-11.26,11.259-.707-.707L23.243.051l.707.707Zm-10,2l-.707-.707-6.26,6.259.707.707,6.26-6.259Zm1.033,13.552l.707.707,6.26-6.259-.707-.707-6.26,6.259Zm-7.309-.29h4.326v.916l-3.3,1.91,1.325,4.027-.749.525-3.261-2.522-3.274,2.532-.722-.542,1.303-4.076-3.322-1.849v-.922h4.35l1.177-4.5h.971l1.176,4.5Zm2.185,1h-2.958l-.889-3.402-.89,3.402h-2.926l2.328,1.296-1.041,3.254,2.532-1.957,2.528,1.954-1.047-3.18,2.363-1.367Z"/></svg>
