<?xml version="1.0" encoding="UTF-8"?>
<svg xmlns="http://www.w3.org/2000/svg" id="Layer_1" data-name="Layer 1" viewBox="0 0 24 24">
  <path d="m4,18h7v1h-7v-1Zm7-4h-7v1h7v-1Zm0-4h-7v1h7v-1Zm13,3.028v4.346c0,4.095-3.888,5.979-5.08,6.458l-.441.178-.426-.213c-1.185-.594-5.053-2.81-5.053-6.423v-4.346c0-.693.443-1.307,1.103-1.526l4.397-1.457,4.396,1.457c.66.22,1.104.833,1.104,1.526Zm-1,0c0-.262-.168-.494-.419-.577l-4.081-1.354-4.082,1.354c-.25.083-.418.315-.418.577v4.346c0,3.04,3.445,5,4.501,5.528l.022.012.022-.01c1.046-.421,4.454-2.062,4.454-5.53v-4.346Zm-9.454,9.972c.37.372.752.703,1.129,1H0V2.5C0,1.121,1.121,0,2.5,0h10.207l7.293,7.293v.707h-8V1H2.5c-.827,0-1.5.673-1.5,1.5v20.5h12.546Zm-.546-16h5.293L13,1.707v5.293Z"/>
</svg>
