<?xml version="1.0" encoding="UTF-8"?>
<svg xmlns="http://www.w3.org/2000/svg" id="Layer_1" data-name="Layer 1" viewBox="0 0 24 24">
  <path d="m23,18v4.293l-5.251-5.251c2.185-2.228,4.251-5.016,4.251-7.591,0-3.005-2.243-5.45-5-5.45-2.258,0-3.791,1.764-4.5,2.807-.709-1.043-2.242-2.807-4.5-2.807-.926,0-1.793.276-2.537.756L.764.057.057.764l4.619,4.619c-1.028.999-1.676,2.452-1.676,4.067,0,5.153,8.269,11.154,9.211,11.821l.289.204.289-.204c.42-.298,2.297-1.656,4.248-3.527l5.255,5.255h-4.293v1h4.5c.827,0,1.5-.673,1.5-1.5v-4.5h-1Zm-10.5,2.248c-3.291-2.387-8.5-7.13-8.5-10.798,0-2.454,1.794-4.45,4-4.45,2.515,0,4.038,2.967,4.053,2.997l.447.887.446-.887c.015-.03,1.539-2.997,4.053-2.997,2.206,0,4,1.996,4,4.45,0,3.667-5.209,8.41-8.5,10.798Z"/>
</svg>
