<?xml version="1.0" encoding="UTF-8"?>
<svg xmlns="http://www.w3.org/2000/svg" id="Layer_1" data-name="Layer 1" viewBox="0 0 24 24">
  <path d="m23.132,5.331c.626-.626.959-1.493.915-2.377-.044-.884-.465-1.715-1.154-2.279-1.229-1.006-3.122-.864-4.308.323l-1.745,1.748-.96-.959c-1.035-1.036-2.723-1.038-3.762,0l-4.813,4.813L.754.046.047.753l23.199,23.2.707-.707-9.36-9.361,8.539-8.555Zm-9.246,7.849l-3.027-3.027,5.981-5.993,3.027,3.027-5.981,5.993ZM19.292,1.704c.828-.829,2.13-.939,2.968-.256.478.392.758.944.789,1.555.029.604-.197,1.194-.624,1.621l-1.851,1.854-3.027-3.027,1.745-1.748Zm-6.466.789c.646-.647,1.701-.647,2.348,0l.96.96-5.981,5.993-2.14-2.14,4.813-4.813Zm-1.045,12.791l.709.706-4.468,4.48c-1.032,1.032-4.567,1.604-5.469,1.735l-1.7,1.7-.707-.707,1.699-1.699c.13-.899.703-4.438,1.735-5.469l4.506-4.519.709.706-4.507,4.52c-.581.58-1.106,2.783-1.376,4.401,1.619-.269,3.822-.795,4.401-1.374l4.467-4.48Z"/>
</svg>
