<?xml version="1.0" encoding="UTF-8"?>
<svg xmlns="http://www.w3.org/2000/svg" id="Layer_1" data-name="Layer 1" viewBox="0 0 24 24" width="512" height="512"><path d="m21.698,11h2.302v-1H7.272L.841.046,0,.589l6.727,10.411h2.575l5.465,5.107-3.694,3.452c-.43-.349-.978-.559-1.574-.559-1.379,0-2.5,1.121-2.5,2.5s1.121,2.5,2.5,2.5,2.5-1.121,2.5-2.5c0-.421-.105-.818-.29-1.166l3.79-3.542,3.79,3.542c-.185.348-.29.745-.29,1.166,0,1.379,1.121,2.5,2.5,2.5s2.5-1.121,2.5-2.5-1.121-2.5-2.5-2.5c-.596,0-1.144.21-1.574.559l-3.694-3.452,5.465-5.107Zm-12.198,12c-.827,0-1.5-.673-1.5-1.5s.673-1.5,1.5-1.5,1.5.673,1.5,1.5-.673,1.5-1.5,1.5Zm13.5-1.5c0,.827-.673,1.5-1.5,1.5s-1.5-.673-1.5-1.5.673-1.5,1.5-1.5,1.5.673,1.5,1.5Zm-12.232-10.5h9.465l-4.732,4.423-4.732-4.423Z"/></svg>
