<?xml version="1.0" encoding="UTF-8"?>
<svg xmlns="http://www.w3.org/2000/svg" id="Layer_1" data-name="Layer 1" viewBox="0 0 24 24" width="512" height="512"><path d="m21.5,0H2.5C1.121,0,0,1.122,0,2.5v21.5h24V2.5c0-1.378-1.121-2.5-2.5-2.5Zm1.5,23H1V2.5c0-.827.673-1.5,1.5-1.5h19c.827,0,1.5.673,1.5,1.5v20.5Zm-11.5-6v-5.252l-5.054-3.85.605-.796,4.948,3.77,4.948-3.77.605.796-5.054,3.85v5.252h-1Zm4.5,0c0,2.206-1.794,4-4,4s-4-1.794-4-4c0-1.474.81-2.75,2-3.444v1.224c-.609.549-1,1.337-1,2.22,0,1.654,1.346,3,3,3s3-1.346,3-3c0-.883-.391-1.67-1-2.22v-1.224c1.19.694,2,1.97,2,3.444Zm4.133-11.952c1.359,1.738,1.051,4.256-.687,5.615-1.161.908-2.665,1.056-3.945.546l.964-.754c.808.141,1.669-.036,2.365-.58,1.303-1.019,1.534-2.908.515-4.211s-2.908-1.534-4.211-.515c-.696.544-1.075,1.337-1.132,2.155l-.964.754c-.187-1.365.319-2.789,1.48-3.697,1.737-1.359,4.256-1.051,5.615.686Zm-11.654,6.147c-1.28.51-2.784.362-3.945-.546-1.737-1.359-2.046-3.877-.687-5.615,1.359-1.738,3.878-2.045,5.615-.687,1.161.908,1.667,2.332,1.48,3.697l-.964-.754c-.057-.818-.437-1.611-1.132-2.155-1.303-1.019-3.192-.788-4.211.515-1.019,1.303-.788,3.192.515,4.211.696.544,1.556.721,2.365.58l.964.754Z"/></svg>
