<?xml version="1.0" encoding="UTF-8"?>
<svg xmlns="http://www.w3.org/2000/svg" id="Layer_1" data-name="Layer 1" viewBox="0 0 24 24" width="512" height="512"><path d="m23.053,6.566c1.26-1.271,1.26-3.339,0-4.61-1.223-1.233-3.358-1.234-4.583,0L1.352,19.205c-.872.879-1.352,2.044-1.352,3.282v.49l.49.01s.655.013,1.311.013c.331,0,.663-.003.91-.013,4.089-.164,7.589-1.601,10.124-4.157l3.263-3.321s2.132,2.159,2.247,2.266l.696-.718-.357-.36c-.667-.753-1.043-1.706-1.068-2.726-.027-1.161.405-2.257,1.216-3.087l4.223-4.316Zm-10.931,11.561c-2.972,2.997-6.78,3.753-9.452,3.86-.438.017-1.152.014-1.638.007.105-.786.461-1.513,1.029-2.086l9.203-9.273,4.127,4.163-3.27,3.329Zm4.492-4.133c.005.228.025.454.059.676l-4.704-4.744,7.211-7.266c.845-.852,2.318-.851,3.163,0,.875.883.875,2.319-.002,3.204l-4.225,4.319c-1.002,1.024-1.535,2.378-1.501,3.811Zm4.885-9.494c0,.552-.448,1-1,1s-1-.448-1-1,.448-1,1-1,1,.448,1,1Z"/></svg>
