<?xml version="1.0" encoding="UTF-8"?>
<svg xmlns="http://www.w3.org/2000/svg" id="Layer_1" data-name="Layer 1" viewBox="0 0 24 24">
  <path d="m23.99,19.049c-.038-.357-.199-.695-.454-.951l-3.564-3.564c-.013-.146-.035-.292-.068-.436-.119-.525.122-1.087.601-1.396.449-.29.814-.685,1.084-1.172.255-.459.388-.989.386-1.528.002-.543-.131-1.072-.386-1.532-.27-.487-.635-.882-1.085-1.172-.478-.309-.719-.87-.6-1.396.122-.534.104-1.083-.055-1.63-.295-1.029-1.117-1.852-2.146-2.146-.549-.158-1.098-.176-1.629-.055-.525.118-1.087-.121-1.396-.6-.289-.449-.684-.813-1.172-1.084-.936-.52-2.1-.52-3.036,0-.488.271-.882.635-1.172,1.084-.308.479-.872.718-1.396.6-.534-.122-1.082-.103-1.628.055-1.029.295-1.852,1.117-2.147,2.146-.157.549-.176,1.097-.055,1.63.12.526-.121,1.087-.6,1.396-.449.29-.814.685-1.083,1.172-.255.459-.388.989-.386,1.528-.002.543.131,1.073.386,1.532.27.487.634.882,1.084,1.172.479.309.72.869.6,1.396-.034.15-.057.301-.068.453l-3.541,3.547c-.253.255-.414.593-.453.949-.096.872.536,1.661,1.409,1.758l1.598.177.176,1.583c.036.363.198.706.458.968.169.168.376.298.595.374.175.062.356.093.536.093.417,0,.826-.164,1.122-.467l4.171-4.176c.124.093.256.178.396.256.468.26.994.39,1.519.39s1.05-.13,1.518-.39c.144-.08.279-.168.406-.263l4.179,4.18c.3.307.71.472,1.127.472.178,0,.357-.03.53-.092.224-.078.431-.208.6-.377.26-.26.422-.603.458-.96l.177-1.59,1.597-.177c.423-.047.803-.256,1.068-.587.267-.333.388-.748.341-1.17Zm-18.799,3.782c-.155.158-.393.213-.613.133-.082-.028-.159-.076-.221-.139-.096-.097-.157-.224-.17-.364l-.265-2.385-2.393-.265c-.325-.036-.561-.329-.525-.654.015-.134.074-.259.167-.353l2.983-2.988c.316.987,1.12,1.771,2.12,2.057.547.157,1.096.176,1.628.055.529-.122,1.088.121,1.396.6.025.038.05.076.077.113l-4.184,4.19Zm7.831-4.094c-.629.35-1.439.35-2.067,0-.342-.189-.617-.441-.815-.75-.442-.687-1.193-1.089-1.967-1.089-.164,0-.328.019-.491.056-.368.082-.748.068-1.132-.041-.69-.198-1.264-.771-1.461-1.461-.11-.385-.124-.766-.041-1.132.212-.936-.203-1.923-1.033-2.458-.31-.2-.562-.475-.751-.816-.172-.311-.262-.672-.261-1.048-.001-.372.088-.733.261-1.044.189-.342.442-.616.751-.816.831-.535,1.246-1.522,1.033-2.457-.083-.367-.069-.748.041-1.133.198-.689.771-1.263,1.461-1.461.384-.109.765-.123,1.131-.041.935.213,1.922-.202,2.458-1.033.199-.309.473-.561.816-.75.628-.35,1.439-.35,2.067,0,.343.189.616.441.815.751.536.83,1.521,1.246,2.458,1.032.366-.082.746-.068,1.132.041.689.198,1.263.771,1.461,1.462.11.384.124.765.041,1.131-.213.935.202,1.923,1.032,2.458.311.2.563.475.752.816.172.311.263.672.261,1.048.002.372-.089.733-.261,1.044-.188.342-.441.616-.751.816-.831.535-1.246,1.523-1.033,2.458.083.366.069.747-.041,1.132-.198.689-.771,1.263-1.461,1.461-.386.11-.768.123-1.131.041-.934-.213-1.923.202-2.46,1.033-.198.309-.472.561-.814.75Zm9.847.855c-.099.124-.24.201-.397.219l-2.394.265-.265,2.391c-.014.135-.074.262-.171.358-.062.062-.139.11-.226.141-.214.076-.454.024-.613-.14l-4.194-4.195c.023-.033.046-.067.068-.102.309-.479.875-.719,1.397-.601.533.121,1.081.102,1.628-.055,1.004-.288,1.811-1.078,2.124-2.071l3.001,3.001c.094.095.153.22.168.354.018.157-.027.312-.127.436Zm-10.369-4.593h-3.5v-1h3.5c1.103,0,2-.897,2-2s-.897-2-2-2h-1.5v-1h1.282c.827,0,1.5-.673,1.5-1.5s-.673-1.5-1.5-1.5h-3.282v-1h3.282c1.379,0,2.5,1.121,2.5,2.5,0,.743-.326,1.411-.842,1.869.929.51,1.56,1.498,1.56,2.631,0,1.654-1.346,3-3,3Z"/>
</svg>
