<?xml version="1.0" encoding="UTF-8"?>
<svg xmlns="http://www.w3.org/2000/svg" id="Layer_1" data-name="Layer 1" viewBox="0 0 24 24">
  <path d="m23.468,6.979c-.031.002-3.089.179-4.5-1.23l-.504-.506,2.384-2.384-.707-.707-2.382,2.382-3.417-3.43-5.231,5.231,3.416,3.43L.019,22.274l.707.707,12.507-12.507.503.505c1.389,1.389,1.244,4.464,1.242,4.495l-.028.527h.527c5.018,0,8.522-3.504,8.522-8.522v-.533l-.532.034Zm-7.485,8.008c-.02-1.057-.219-3.395-1.539-4.714l-3.92-3.936,3.817-3.816,3.919,3.935c1.333,1.334,3.667,1.521,4.726,1.532-.219,3.989-3.014,6.782-7.003,7Z"/>
</svg>
