<?xml version="1.0" encoding="UTF-8"?>
<svg xmlns="http://www.w3.org/2000/svg" id="Layer_1" data-name="Layer 1" width="512" height="512" viewBox="0 0 24 24"><path d="M10.967,24h-3.548l3.039-9H6.038l-1.232,1.879c-.465,.703-1.244,1.121-2.085,1.121H.102l1.997-6L.087,6H2.708c.841,0,1.62,.418,2.084,1.12l1.245,1.88h4.421L7.419,0h3.548c.915,0,1.756,.5,2.194,1.303l4.287,7.697h3.418c1.531,0,2.861,1.075,3.093,2.5,.144,.881-.102,1.771-.673,2.443s-1.404,1.057-2.286,1.057h-3.552l-4.289,7.701c-.437,.8-1.277,1.299-2.192,1.299Zm-2.155-1h2.155c.549,0,1.054-.3,1.317-.782l4.576-8.218h4.14c.588,0,1.144-.257,1.524-.705,.387-.455,.546-1.035,.448-1.635-.154-.946-1.06-1.66-2.106-1.66h-4.006L12.286,1.786c-.266-.486-.771-.786-1.319-.786h-2.155l3.039,9H5.5l-1.542-2.329c-.278-.42-.745-.671-1.25-.671H1.478l1.676,5-1.665,5h1.232c.504,0,.972-.251,1.25-.671l1.528-2.329h6.352l-3.039,9Z"/></svg>
