<?xml version="1.0" encoding="UTF-8"?>
<svg xmlns="http://www.w3.org/2000/svg" id="Layer_1" data-name="Layer 1" viewBox="0 0 24 24">
  <path d="m11.949.051C5.332.051-.051,5.435-.051,12.051s5.383,12,12,12,12-5.383,12-12S18.565.051,11.949.051Zm0,23C5.883,23.051.949,18.117.949,12.051S5.883,1.051,11.949,1.051s11,4.935,11,11-4.935,11-11,11Zm3-13.5c0-1.378-1.122-2.5-2.5-2.5h-5c-1.378,0-2.5,1.122-2.5,2.5v5c0,1.378,1.122,2.5,2.5,2.5h5c1.378,0,2.5-1.122,2.5-2.5v-.623l4,2.1v-7.954l-4,2.1v-.623Zm-1,5c0,.827-.673,1.5-1.5,1.5h-5c-.827,0-1.5-.673-1.5-1.5v-5c0-.827.673-1.5,1.5-1.5h5c.827,0,1.5.673,1.5,1.5v5Zm4-4.823v4.646l-3-1.575v-1.495l3-1.575Z"/>
</svg>
