<?xml version="1.0" encoding="UTF-8"?>
<svg xmlns="http://www.w3.org/2000/svg" id="Layer_1" data-name="Layer 1" viewBox="0 0 24 24">
  <path d="m22,4c0-.552.448-1,1-1s1,.448,1,1-.448,1-1,1-1-.448-1-1ZM3.762,11.41c.737-.547,1.215-1.423,1.215-2.41,0-1.654-1.346-3-3-3H0v1h1.977c1.103,0,2,.897,2,2s-.897,2-2,2H0v1h2c1.654,0,3,1.346,3,3s-1.346,3-3,3H0v1h2c2.206,0,4-1.794,4-4,0-1.574-.914-2.938-2.238-3.59Zm11.238,3.59c0,2.206-1.794,4-4,4s-4-1.794-4-4v-4.417c0-2.527,2.056-4.583,4.583-4.583h2.417v1h-2.417c-1.976,0-3.583,1.607-3.583,3.583v1.774c.734-.832,1.806-1.357,3-1.357,2.206,0,4,1.794,4,4Zm-1,0c0-1.654-1.346-3-3-3s-3,1.346-3,3,1.346,3,3,3,3-1.346,3-3Zm10-5v5c0,2.206-1.794,4-4,4s-4-1.794-4-4v-5c0-2.206,1.794-4,4-4s4,1.794,4,4Zm-1,0c0-1.654-1.346-3-3-3s-3,1.346-3,3v5c0,1.654,1.346,3,3,3s3-1.346,3-3v-5Z"/>
</svg>
