<?xml version="1.0" encoding="UTF-8"?>
<svg xmlns="http://www.w3.org/2000/svg" id="Layer_1" data-name="Layer 1" viewBox="0 0 24 24">
  <path d="m17.662,11l-5.183-3.749.016-1.293c1.42-.237,2.505-1.473,2.505-2.959,0-1.654-1.346-3-3-3s-3,1.346-3,3c0,1.482,1.08,2.715,2.494,2.957l-.016,1.283-5.142,3.76H0v4h1v-3h5.337l5.632,4.118,5.693-4.118h5.338v3h1v-4h-6.338ZM10,3c0-1.103.897-2,2-2s2,.897,2,2-.897,2-2,2-2-.897-2-2Zm-2.68,8.603l4.652-3.485,4.676,3.382-4.676,3.382-4.652-3.278Zm.385,6.063l.707.707-5.135,5.135L.031,20.264l.707-.707,2.538,2.537,4.428-4.428Zm16.265.072l-2.762,2.762,2.762,2.762-.707.707-2.762-2.762-2.762,2.762-.707-.707,2.762-2.762-2.762-2.762.707-.707,2.762,2.762,2.762-2.762.707.707Z"/>
</svg>
