<?xml version="1.0" encoding="UTF-8"?>
<svg xmlns="http://www.w3.org/2000/svg" id="Layer_1" data-name="Layer 1" viewBox="0 0 24 24" width="512" height="512"><path d="m17.987,2.28C16.074.574,13.501-.233,10.936.061c-3.992.46-7.292,3.676-7.845,7.647-.414,2.965.593,5.827,2.764,7.854,1.363,1.273,2.146,3.029,2.146,4.816v3.622h8v-3.853c0-1.686.752-3.309,2.118-4.571,1.858-1.719,2.882-4.054,2.882-6.576,0-2.563-1.098-5.013-3.013-6.72Zm-2.987,20.72h-6v-2.622c0-.463-.046-.925-.134-1.378h6.233c-.066.378-.1.761-.1,1.147v2.853Zm2.438-8.158c-.986.912-1.695,1.993-2.086,3.158h-6.754c-.407-1.185-1.111-2.281-2.063-3.169-1.929-1.801-2.823-4.347-2.455-6.984.491-3.528,3.422-6.384,6.969-6.792,2.33-.265,4.548.435,6.272,1.973,1.702,1.518,2.678,3.694,2.678,5.973,0,2.24-.909,4.314-2.562,5.842Zm-2.486-8.382c.225,1.275-.381,2.549-1.506,3.169-.495.272-.946,1.107-.946,1.752v.619h-1v-.619c0-1.005.657-2.184,1.464-2.628.762-.42,1.156-1.252,1.004-2.119-.142-.802-.8-1.46-1.602-1.602-.602-.104-1.191.048-1.651.436-.454.382-.715.939-.715,1.532h-1c0-.889.391-1.727,1.071-2.298s1.576-.81,2.469-.654c1.208.212,2.2,1.204,2.412,2.412Zm-1.952,8.54c0,.552-.448,1-1,1s-1-.448-1-1,.448-1,1-1,1,.448,1,1Z"/></svg>
