<?xml version="1.0" encoding="UTF-8"?>
<svg xmlns="http://www.w3.org/2000/svg" id="Layer_1" data-name="Layer 1" viewBox="0 0 24 24">
  <path d="m19.597,10h2.403v.509l-1.832,1.061.737,2.239-.421.291-1.811-1.401-1.82,1.407-.4-.302.724-2.265-1.844-1.026v-.004l-1.832,1.061.737,2.239-.421.291-1.811-1.401-1.82,1.407-.4-.302.724-2.265-1.844-1.026v-.004l-1.832,1.061.737,2.239-.421.291-1.811-1.401-1.82,1.407-.4-.302.724-2.265-1.844-1.026v-.513h2.416l.654-2.501h.54l.653,2.501h4.82l.654-2.501h.54l.653,2.501h4.82l.654-2.501h.54l.653,2.501Zm4.403-4.5v13.5h-7.032l-3.985,3.295c-.275.245-.626.368-.978.368-.356,0-.716-.126-1.001-.379l-3.898-3.284H0V5.5c0-1.378,1.121-2.5,2.5-2.5h19c1.379,0,2.5,1.122,2.5,2.5Zm-1,0c0-.827-.673-1.5-1.5-1.5H2.5c-.827,0-1.5.673-1.5,1.5v12.5h6.471l4.188,3.527c.199.178.485.176.674.008l4.276-3.536h6.392V5.5Z"/>
</svg>
