<?xml version="1.0" encoding="UTF-8"?>
<svg xmlns="http://www.w3.org/2000/svg" id="Layer_1" data-name="Layer 1" viewBox="0 0 24 24">
  <path d="m24,2h-11v4.331l-2.569-4.333c-.361-.625-1.009-.999-1.731-.999s-1.37.374-1.732,1.001L.107,14h7.184c-.189.634-.292,1.305-.292,2,0,3.86,3.141,7,7,7s7-3.14,7-7c0-1.073-.243-2.09-.676-3h3.676V2ZM1.83,13L7.833,2.5c.363-.626,1.368-.631,1.735.004l3.432,5.786v.782c-2.355.338-4.335,1.853-5.324,3.928H1.83Zm12.17,9c-3.309,0-6-2.691-6-6s2.691-6,6-6,6,2.691,6,6-2.691,6-6,6Zm9-10h-3.259c-1.266-1.812-3.368-3-5.741-3V3h9v9Z"/>
</svg>
