<?xml version="1.0" encoding="UTF-8"?>
<svg xmlns="http://www.w3.org/2000/svg" id="Layer_1" data-name="Layer 1" viewBox="0 0 24 24">
  <path d="m21.492,9l.508,7h-.929l-.566-6.794-2.005,4.41-2.005-4.41-.465,6.794h-1.03l.508-7c.043-.705.472-1,.988-1,.342,0,.66.242.841.64l1.164,2.56,1.164-2.56c.181-.398.499-.64.841-.64.516,0,.945.295.988,1Zm-15.992,0c.827,0,1.5.673,1.5,1.5h1c0-1.378-1.122-2.5-2.5-2.5s-2.5,1.122-2.5,2.5v3c0,1.379,1.122,2.5,2.5,2.5s2.5-1.121,2.5-2.5h-1c0,.827-.673,1.5-1.5,1.5s-1.5-.673-1.5-1.5v-3c0-.827.673-1.5,1.5-1.5Zm7.364,3.59l1.136,3.41h-1.055l-1.014-3.044c-.141.025-.283.044-.431.044h-1.5v3h-1v-8h2.5c1.378,0,2.5,1.122,2.5,2.5,0,.875-.454,1.644-1.136,2.09Zm.136-2.09c0-.827-.673-1.5-1.5-1.5h-1.5v3h1.5c.827,0,1.5-.673,1.5-1.5Zm-1,12.507v-.007c-3.311,0-6.366-1.461-8.466-4h4.466v-1H3.486c-.819,0-1.486.666-1.486,1.485v4.515h1v-4.091c2.272,2.59,5.485,4.079,8.959,4.091v.007c3.919,0,7.599-1.921,9.843-5.139l-.82-.572c-2.05,2.938-5.404,4.697-8.981,4.711Zm0-22.007v.007c3.311,0,6.366,1.461,8.466,4l-4.466-.007v1l4.514.007c.819,0,1.486-.666,1.486-1.485V0h-1v4.098C18.728,1.508,15.515.019,12.041.007v-.007c-3.919,0-7.599,1.921-9.843,5.139l.82.572C5.068,2.772,8.423,1.014,12,1Z"/>
</svg>
