<?xml version="1.0" encoding="UTF-8"?>
<svg xmlns="http://www.w3.org/2000/svg" id="Layer_1" data-name="Layer 1" viewBox="0 0 24 24">
  <path d="m24,9.5c0-1.378-1.122-2.5-2.5-2.5h-5.42c2.226-1.149,3.92-3.239,3.92-6h-1c0,3.22-2.742,5.373-5.67,5.883.761-.884,1.67-2.275,1.67-3.883,0-1.654-1.346-3-3-3s-3,1.346-3,3c0,1.608.909,3,1.67,3.883-2.927-.51-5.67-2.663-5.67-5.883h-1c0,2.761,1.694,4.851,3.92,6H2.5c-1.378,0-2.5,1.122-2.5,2.5v3.5h2v11h20v-11h2v-3.5ZM12,1c1.103,0,2,.897,2,2,0,1.72-1.368,3.226-2,3.829-.632-.604-2-2.109-2-3.829,0-1.103.897-2,2-2ZM1,9.5c0-.827.673-1.5,1.5-1.5h9v4H1v-2.5Zm2,3.5h8.5v10H3v-10Zm18,10h-8.5v-10h8.5v10Zm2-11h-10.5v-4h9c.827,0,1.5.673,1.5,1.5v2.5Z"/>
</svg>
