<?xml version="1.0" encoding="UTF-8"?>
<svg xmlns="http://www.w3.org/2000/svg" id="Layer_1" data-name="Layer 1" viewBox="0 0 24 24" width="512" height="512"><path d="m4.249,16.956c.314.097.633.19.966.274l-2.737,6.77h-1.077l2.848-7.044Zm1.751-6.956c-.552,0-1,.448-1,1s.448,1,1,1,1-.448,1-1-.448-1-1-1Zm12.785,7.23l2.737,6.77h1.077l-2.848-7.044c-.314.097-.633.19-.966.274Zm5.215-6.255c0,2.818-5.271,5.025-12,5.025S0,13.793,0,10.975c0-1.87,2.234-3.492,6-4.375v-.638C6,2.653,8.691-.038,12-.038s6,2.691,6,6v.638c3.766.883,6,2.505,6,4.375ZM7,7.029c.421.271,1.817.971,5,.971s4.571-.695,5-.972v-1.066c0-2.757-2.243-5-5-5s-5,2.243-5,5v1.067Zm16,3.945c0-1.319-1.991-2.621-5.116-3.374-.14.14-1.524,1.399-5.884,1.399s-5.744-1.26-5.884-1.399c-3.125.753-5.116,2.055-5.116,3.374,0,1.904,4.518,4.025,11,4.025s11-2.121,11-4.025Zm-11,.025c-.552,0-1,.448-1,1s.448,1,1,1,1-.448,1-1-.448-1-1-1Zm6-1c-.552,0-1,.448-1,1s.448,1,1,1,1-.448,1-1-.448-1-1-1Z"/></svg>
