<?xml version="1.0" encoding="UTF-8"?>
<svg xmlns="http://www.w3.org/2000/svg" id="Layer_1" data-name="Layer 1" viewBox="0 0 24 24">
  <path d="m10,20c0,.552-.448,1-1,1s-1-.448-1-1,.448-1,1-1,1,.448,1,1Zm-4,2c-.552,0-1,.448-1,1s.448,1,1,1,1-.448,1-1-.448-1-1-1Zm6,0c-.552,0-1,.448-1,1s.448,1,1,1,1-.448,1-1-.448-1-1-1Zm-9-3c-.552,0-1,.448-1,1s.448,1,1,1,1-.448,1-1-.448-1-1-1Zm18,0c-.552,0-1,.448-1,1s.448,1,1,1,1-.448,1-1-.448-1-1-1Zm.038-10h2.962v1h-2.72c.127.48.26.952.375,1.459.2.879.345,1.514.345,2.041,0,2.481-2.019,4.5-4.5,4.5s-4.5-2.019-4.5-4.5c0-1.183.147-2.361.441-3.5h-2.976c.107.652.219,1.248.304,1.737.134.766.23,1.32.23,1.763,0,2.481-2.019,4.5-4.5,4.5s-4.5-2.019-4.5-4.5c0-1.105.171-2.297.498-3.5H0v-1h2.803C4.391,4.426,8.325.012,14.5.012c-1.46.128-3.603,2.345-4.096,3.826-.468,1.403-.337,3.39-.09,5.162h3.432c1.314-3.755,4.474-6.916,10.255-8-1.437.622-3.077,2.308-3.205,4.231-.109,1.631.03,2.773.243,3.769Zm-11.038,4.5c0-.357-.306-2.102-.306-2.102-.399-2.226-1.001-5.591-.239-7.877.169-.507.511-1.112.963-1.711C5.556,3.836,3,9.313,3,13.5c0,1.93,1.57,3.5,3.5,3.5s3.5-1.57,3.5-3.5Zm11,0c0-.415-.504-2.559-.6-2.918-.38-1.41-.773-2.868-.603-5.417.047-.7.25-1.371.56-1.987-3.574,1.671-5.167,4.381-5.857,6.763v.06h-.016c-.388,1.365-.484,2.62-.484,3.5,0,1.93,1.57,3.5,3.5,3.5s3.5-1.57,3.5-3.5Zm-6,5.5c-.552,0-1,.448-1,1s.448,1,1,1,1-.448,1-1-.448-1-1-1Zm3,3c-.552,0-1,.448-1,1s.448,1,1,1,1-.448,1-1-.448-1-1-1Z"/>
</svg>
