<?xml version="1.0" encoding="UTF-8"?>
<svg xmlns="http://www.w3.org/2000/svg" id="arrow-circle-down" viewBox="0 0 24 24" width="512" height="512"><path d="M20,4.707l4,4V1.5c0-.827-.673-1.5-1.5-1.5h-7.207l4,4-7.293,7.293L4.707,4,8.707,0H1.5C.673,0,0,.673,0,1.5v7.207L4,4.707l7.293,7.293-7.293,7.293L0,15.293v7.207c0,.827,.673,1.5,1.5,1.5h7.207l-4-4,7.293-7.293,7.293,7.293-4,4h7.207c.827,0,1.5-.673,1.5-1.5v-7.207l-4,4-7.293-7.293,7.293-7.293Zm2.5-3.707c.276,0,.5,.225,.5,.5V6.293L17.707,1h4.793ZM1,1.5c0-.275,.224-.5,.5-.5H6.293L1,6.293V1.5Zm.5,21.5c-.276,0-.5-.225-.5-.5v-4.793l5.293,5.293H1.5Zm21.5-.5c0,.275-.224,.5-.5,.5h-4.793l5.293-5.293v4.793Z"/></svg>
