<?xml version="1.0" encoding="UTF-8"?>
<svg xmlns="http://www.w3.org/2000/svg" id="Layer_1" data-name="Layer 1" viewBox="0 0 24 24">
  <path d="m22.95,9.226l-.95-.945v-4.281h-1v-2h-1V0H4v2h-1v2h-1v4.281l-.946.942c-.67.653-1.054,1.565-1.054,2.502v12.275h24v-12.275c0-.936-.384-1.848-1.05-2.499ZM5,1h14v1H5v-1Zm-1,2h16v1H4v-1Zm17,2v5.45l-6.525,6.525c-1.322,1.322-3.627,1.322-4.949,0l-6.525-6.525v-5.449h18Zm2,18H1v-11.275c0-.507.159-1.002.444-1.417l7.374,7.374c.85.851,1.979,1.318,3.182,1.318s2.332-.468,3.182-1.318l7.375-7.374c.284.415.443.911.443,1.417v11.275Zm-6-15c0-.553.447-1,1-1s1,.447,1,1-.447,1-1,1-1-.447-1-1Zm-5,7c1.93,0,3.5-1.57,3.5-3.5s-1.57-3.5-3.5-3.5-3.5,1.57-3.5,3.5,1.57,3.5,3.5,3.5Zm0-6c1.379,0,2.5,1.121,2.5,2.5s-1.121,2.5-2.5,2.5-2.5-1.121-2.5-2.5,1.121-2.5,2.5-2.5Zm-7-1c0-.553.447-1,1-1s1,.447,1,1-.447,1-1,1-1-.447-1-1Z"/>
</svg>
