<?xml version="1.0" encoding="UTF-8"?>
<svg xmlns="http://www.w3.org/2000/svg" id="Layer_1" data-name="Layer 1" viewBox="0 0 24 24">
  <path d="m15.5,12.5c0-.995-.584-1.856-1.427-2.258.438-.451.709-1.065.709-1.742,0-1.379-1.121-2.5-2.5-2.5h-2.782v1h2.782c.827,0,1.5.673,1.5,1.5s-.673,1.5-1.5,1.5h-1.282v1h2c.827,0,1.5.673,1.5,1.5s-.673,1.5-1.5,1.5h-3.5v1h3.5c1.379,0,2.5-1.121,2.5-2.5Z"/>
  <g>
    <path d="m18.007,10.621c-.008.026,0,0,0,0h0Z"/>
    <path d="m22.484,12.688c.483-.36.893-.823,1.104-1.368.946-2.441-.029-5.819-.071-5.962l-.149-.508-.498.179c-.047.017-.426.157-.962.473.1-.526.047-1.068-.25-1.598-1.231-2.201-4.312-3.644-4.442-3.704l-.465-.215-.204.47c-.078.181-1.834,4.367,1.331,8.128.081.68.123,1.415.129,2.038.028,6.101-3.343,9.442-5.992,9.841-2.66-.4-6.046-3.742-6.021-9.842.006-.623.048-1.358.129-2.038C9.287,4.822,7.531.636,7.453.455l-.204-.47-.465.215c-.13.061-3.211,1.503-4.442,3.704-.297.53-.35,1.073-.25,1.598-.536-.317-.916-.457-.962-.473l-.498-.179-.149.508c-.042.143-1.018,3.521-.071,5.962.211.546.621,1.008,1.104,1.368-.647.154-1.072.333-1.117.352l-.391.168.103.413c.031.123.709,2.74,2.987,4.209-.912.649-1.445,1.303-1.488,1.357l-.279.35.316.316c.081.081,1.877,1.849,4.345,2.113-.282.663-.385,1.116-.395,1.157l-.099.448.438.137c.58.181,1.381.327,2.235.327,1.363,0,2.864-.375,3.828-1.588.964,1.213,2.464,1.588,3.828,1.588.854,0,1.655-.146,2.235-.327l.438-.137-.099-.448c-.009-.042-.113-.494-.395-1.157,2.468-.264,4.264-2.032,4.345-2.113l.316-.316-.279-.35c-.043-.054-.576-.708-1.488-1.357,2.279-1.47,2.957-4.086,2.987-4.209l.103-.413-.391-.168c-.045-.019-.47-.198-1.117-.352ZM3.215,4.393c.801-1.433,2.618-2.552,3.496-3.03.342,1.163.857,4.098-1.501,6.747-.798-.643-2.736-2.392-1.995-3.717Zm-1.872,6.566c-.612-1.582-.262-3.743-.04-4.754.915.48,2.811,1.763,3.686,4.464-.003.706.035,1.378.112,2.015-.631-.179-1.261-.236-1.846-.225-.754-.222-1.637-.794-1.911-1.501Zm-.121,2.85c.425-.133,1.127-.308,1.927-.341.664-.023,1.433.052,2.128.334.204,1.021.508,1.94.884,2.758-.783.111-1.486.367-2.091.677-1.727-.886-2.548-2.622-2.849-3.428Zm1.493,5.652c.612-.611,2.046-1.816,3.944-1.948.355.604.752,1.14,1.177,1.607-.592.639-1.036,1.291-1.367,1.878-1.689-.05-3.114-1.021-3.754-1.537Zm3.999,3.414c.227-.651.759-1.882,1.837-3.055.945.823,1.975,1.345,2.956,1.564-1.093,2.029-3.705,1.72-4.793,1.491ZM22.697,6.205c.222,1.011.572,3.172-.04,4.754-.305.787-1.254,1.305-1.911,1.501-.584-.012-1.214.046-1.844.224.076-.638.114-1.31.11-2.017.875-2.7,2.77-3.982,3.685-4.462Zm-5.408-4.844c.877.478,2.693,1.595,3.496,3.031.739,1.321-1.197,3.073-1.996,3.717-2.357-2.649-1.841-5.585-1.5-6.748Zm-4.793,20.028c.982-.215,2.014-.735,2.961-1.561,1.072,1.171,1.603,2.398,1.829,3.046-1.088.229-3.696.537-4.79-1.485Zm8.788-1.928c-.641.516-2.065,1.486-3.753,1.536-.329-.585-.771-1.233-1.359-1.87.426-.469.824-1.007,1.179-1.615,1.884.137,3.319,1.339,3.933,1.949Zm-.425-5.994c.8.033,1.496.209,1.92.341-.298.806-1.114,2.539-2.85,3.428-.603-.31-1.303-.565-2.083-.677.375-.819.678-1.739.88-2.761.694-.28,1.469-.355,2.132-.332Z"/>
  </g>
  <path d="m3.149,13.467s.012.003,0,0h0Z"/>
</svg>
