<?xml version="1.0" encoding="UTF-8"?>
<svg xmlns="http://www.w3.org/2000/svg" id="Layer_1" data-name="Layer 1" viewBox="0 0 24 24" width="512" height="512"><path d="m11.5,5c1.378,0,2.5-1.121,2.5-2.5s-1.122-2.5-2.5-2.5-2.5,1.121-2.5,2.5,1.122,2.5,2.5,2.5Zm0-4c.827,0,1.5.673,1.5,1.5s-.673,1.5-1.5,1.5-1.5-.673-1.5-1.5.673-1.5,1.5-1.5Zm-6.299,16.646l.507.303-.879,2.051H0v-1h4.17l.691-1.613c.113.086.217.181.34.258Zm18.799-5.646c0,4.15-.627,12-3,12-2.03,0-2.78-5.741-2.955-10h.995c.218,5.835,1.348,9,1.96,9,.679,0,2-3.883,2-11s-1.321-11-2-11-2,3.883-2,11h-3.783l-2.572-4.273c-.027-.045-.057-.088-.089-.13l-3.057,7.147-.864-.547,3.065-7.157c-.111-.026-.225-.041-.341-.041h-2.582l-2.613,6.244c-.276.671-.029,1.443.587,1.833l5.248,3.14v5.783h-1v-5.217l-4.772-2.854c-1.038-.655-1.448-1.943-.987-3.067l2.452-5.861h-3.884l-1.862,3.724-.895-.447,2.138-4.276h8.169c.872,0,1.692.464,2.142,1.211l2.281,3.789h2.229c.094-4.293.795-11,2.989-11,2.373,0,3,7.85,3,12Z"/></svg>
