<?xml version="1.0" encoding="UTF-8"?>
<svg xmlns="http://www.w3.org/2000/svg" id="Layer_1" data-name="Layer 1" viewBox="0 0 24 24" width="512" height="512"><path d="M14.354,9.384c1.567-.845,2.646-2.482,2.646-4.384,0-2.757-2.243-5-5-5S7,2.243,7,5c0,1.901,1.079,3.539,2.646,4.384-2.985,.99-5.146,3.803-5.146,7.116,0,4.136,3.364,7.5,7.5,7.5s7.5-3.364,7.5-7.5c0-3.313-2.161-6.126-5.146-7.116Zm-6.354-4.384c0-2.206,1.794-4,4-4s4,1.794,4,4-1.794,4-4,4-4-1.794-4-4Zm4,18c-3.584,0-6.5-2.916-6.5-6.5s2.916-6.5,6.5-6.5,6.5,2.916,6.5,6.5-2.916,6.5-6.5,6.5Z"/></svg>
