<?xml version="1.0" encoding="UTF-8"?>
<svg xmlns="http://www.w3.org/2000/svg" id="Layer_1" data-name="Layer 1" viewBox="0 0 24 24">
  <path d="m23.537,8.336l-.24-.719-2.556,2.271c-.952-3.948-4.504-6.894-8.741-6.894s-7.789,2.946-8.741,6.894L.701,7.616l-.239.72c-.019.058-.462,1.415-.462,3.658s.443,3.601.462,3.658l.239.72,2.558-2.273c.952,3.949,4.504,6.895,8.741,6.895s7.79-2.946,8.741-6.895l2.556,2.273.24-.72c.019-.057.463-1.415.463-3.658s-.444-3.602-.463-3.658ZM1.228,14.566c-.109-.577-.228-1.458-.228-2.572s.118-1.995.229-2.572l1.823,1.62c-.033.313-.052.63-.052.952s.018.638.052.951l-1.824,1.621ZM12,3.994c1.25,0,2.429.296,3.484.809L4.809,15.478c-.513-1.055-.809-2.234-.809-3.484,0-4.411,3.589-8,8-8Zm-6.681,12.388l11.07-11.07c.969.639,1.787,1.484,2.401,2.471l-.143-.143-11.034,11.035c-.912-.601-1.693-1.382-2.294-2.293Zm6.681,3.612c-1.249,0-2.428-.296-3.483-.809l10.673-10.674c.513,1.055.809,2.234.809,3.484,0,4.411-3.589,8-8,8Zm10.771-5.428l-1.823-1.621c.033-.313.052-.63.052-.951s-.019-.639-.052-.952l1.823-1.62c.11.577.229,1.458.229,2.572s-.118,1.995-.229,2.572Z"/>
</svg>
