<?xml version="1.0" encoding="UTF-8"?>
<svg xmlns="http://www.w3.org/2000/svg" id="Layer_1" data-name="Layer 1" viewBox="0 0 24 24">
  <path d="m19.583,9.365c.262-.57.417-1.198.417-1.865,0-2.481-2.019-4.5-4.5-4.5s-4.5,2.019-4.5,4.5c0,.529.108,1.029.276,1.5h-4.776c-3.584,0-6.5,2.916-6.5,6.5v2c0,3.584,2.916,6.5,6.5,6.5h11c3.584,0,6.5-2.916,6.5-6.5v-2c0-2.803-1.799-5.247-4.417-6.135Zm-4.083-5.365c1.93,0,3.5,1.57,3.5,3.5s-1.57,3.5-3.5,3.5-3.5-1.57-3.5-3.5,1.57-3.5,3.5-3.5Zm7.5,13.5c0,3.032-2.467,5.5-5.5,5.5H6.5c-3.033,0-5.5-2.468-5.5-5.5v-2c0-3.032,2.467-5.5,5.5-5.5h5.262c.808,1.205,2.182,2,3.738,2,1.448,0,2.725-.7,3.549-1.766,2.332.684,3.951,2.817,3.951,5.266v2Zm-15.5-4.5h5.5v1h-5.5c-1.378,0-2.5,1.121-2.5,2.5s1.122,2.5,2.5,2.5h.5v1h-.5c-1.93,0-3.5-1.57-3.5-3.5s1.57-3.5,3.5-3.5Zm-.5-7c1.654,0,3-1.346,3-3s-1.346-3-3-3-3,1.346-3,3,1.346,3,3,3Zm0-5c1.103,0,2,.897,2,2s-.897,2-2,2-2-.897-2-2,.897-2,2-2Zm15,3c1.103,0,2-.897,2-2s-.897-2-2-2-2,.897-2,2,.897,2,2,2Zm0-3c.551,0,1,.448,1,1s-.449,1-1,1-1-.448-1-1,.449-1,1-1Z"/>
</svg>
