<?xml version="1.0" encoding="UTF-8"?>
<svg xmlns="http://www.w3.org/2000/svg" id="Layer_1" data-name="Layer 1" viewBox="0 0 24 24">
  <path d="m19,11.993l3.535-3.458c.945-.944,1.465-2.2,1.465-3.536s-.52-2.591-1.465-3.536c-.944-.944-2.2-1.464-3.535-1.464s-2.591.52-3.536,1.464c-1.95,1.95-1.95,5.122.004,7.075l3.532,3.454Zm-2.829-9.822c.756-.755,1.76-1.171,2.829-1.171s2.073.416,2.828,1.171c.756.755,1.172,1.76,1.172,2.829s-.416,2.073-1.168,2.825l-2.832,2.77-2.829-2.766c-1.56-1.56-1.56-4.098,0-5.657ZM2,20c-1.103,0-2,.897-2,2s.897,2,2,2,2-.897,2-2-.897-2-2-2Zm0,3c-.551,0-1-.449-1-1s.449-1,1-1,1,.449,1,1-.449,1-1,1Zm8.5-7c0,1.103.897,2,2,2s2-.897,2-2-.897-2-2-2-2,.897-2,2Zm3,0c0,.551-.449,1-1,1s-1-.449-1-1,.449-1,1-1,1,.449,1,1Zm10.5,3.5c0,1.93-1.57,3.5-3.5,3.5H5.874c.082-.32.126-.655.126-1h14.5c1.378,0,2.5-1.122,2.5-2.5s-1.122-2.5-2.5-2.5h-4.126c.082-.32.126-.655.126-1h4c1.93,0,3.5,1.57,3.5,3.5Zm-15.374-2.5h-3.126c-1.93,0-3.5-1.57-3.5-3.5s1.57-3.5,3.5-3.5h8.601l1.023,1H5.5c-1.378,0-2.5,1.122-2.5,2.5s1.122,2.5,2.5,2.5h3c0,.345.044.68.126,1Z"/>
  <circle cx="19.001" cy="4.787" r="1"/>
</svg>
