<?xml version="1.0" encoding="UTF-8"?>
<svg xmlns="http://www.w3.org/2000/svg" id="Layer_1" data-name="Layer 1" viewBox="0 0 24 24">
  <path d="m12,12c3.309,0,6-2.691,6-6S15.309,0,12,0s-6,2.691-6,6,2.691,6,6,6Zm0-11c2.757,0,5,2.243,5,5s-2.243,5-5,5-5-2.243-5-5S9.243,1,12,1Zm0,17c-3.309,0-6,2.691-6,6h1c0-1.198.441-2.284,1.146-3.146l2.137,2.137c-.176.297-.283.64-.283,1.01h1c0-.551.449-1,1-1s1,.449,1,1h1c0-.37-.108-.712-.283-1.01l2.137-2.137c.705.862,1.146,1.948,1.146,3.146h1c0-3.309-2.691-6-6-6Zm-1.01,4.283l-2.137-2.137c.862-.705,1.948-1.146,3.146-1.146s2.284.441,3.146,1.146l-2.137,2.137c-.297-.176-.64-.283-1.01-.283s-.712.108-1.01.283Zm11.51,1.717h-1.064l-1.9-6.737c-.549-1.921-2.329-3.263-4.327-3.263h-6.417c-1.998,0-3.778,1.342-4.327,3.264l-1.9,6.736h-1.064l2.003-7.011c.671-2.349,2.846-3.989,5.289-3.989h6.417c2.442,0,4.617,1.64,5.289,3.989l2.003,7.011Z"/>
</svg>
