<?xml version="1.0" encoding="UTF-8"?>
<svg xmlns="http://www.w3.org/2000/svg" id="Layer_1" data-name="Layer 1" viewBox="0 0 24 24">
  <path d="m9,11c0,1.654,1.346,3,3,3s3-1.346,3-3-1.346-3-3-3-3,1.346-3,3Zm5,0c0,1.103-.897,2-2,2s-2-.897-2-2,.897-2,2-2,2,.897,2,2Zm7-5c1.654,0,3-1.346,3-3s-1.346-3-3-3c-1.302,0-2.402.839-2.816,2H5.816c-.414-1.161-1.514-2-2.816-2C1.346,0,0,1.346,0,3c0,1.302.839,2.402,2,2.816v10.369c-1.161.414-2,1.514-2,2.816,0,1.654,1.346,3,3,3,1.302,0,2.402-.839,2.816-2h15.891l-3.146,3.146.707.707,3.293-3.293c.585-.585.585-1.536,0-2.121l-3.293-3.293-.707.707,3.146,3.146H6c0-1.654-1.346-3-3-3V6c1.654,0,3-1.346,3-3h12c0,1.654,1.346,3,3,3Zm0-5c1.103,0,2,.897,2,2s-.897,2-2,2-2-.897-2-2,.897-2,2-2ZM5,19c0,1.103-.897,2-2,2s-2-.897-2-2,.897-2,2-2,2,.897,2,2ZM3,5c-1.103,0-2-.897-2-2S1.897,1,3,1s2,.897,2,2-.897,2-2,2Z"/>
</svg>
