<?xml version="1.0" encoding="UTF-8"?>
<svg xmlns="http://www.w3.org/2000/svg" id="Layer_1" data-name="Layer 1" viewBox="0 0 24 24" width="512" height="512"><path d="M14.84,22.63l.26,.97c-1.01,.27-2.05,.4-3.1,.4s-2.09-.14-3.1-.4l.26-.97c.92,.25,1.88,.37,2.84,.37s1.92-.12,2.84-.37ZM1.6,6l.87,.5c.97-1.67,2.36-3.07,4.03-4.03l-.5-.87c-1.82,1.05-3.34,2.57-4.4,4.4Zm.87,11.5l-.87,.5c1.05,1.82,2.57,3.34,4.4,4.4l.5-.87c-1.67-.97-3.07-2.36-4.03-4.03ZM.4,8.9c-.27,1.01-.4,2.05-.4,3.1s.14,2.09,.4,3.1l.97-.26c-.25-.92-.37-1.88-.37-2.84s.12-1.92,.37-2.84l-.97-.26Zm17.09,12.63l.5,.87c1.82-1.05,3.34-2.57,4.4-4.4l-.87-.5c-.97,1.67-2.36,3.07-4.03,4.03Zm6.1-12.63l-.97,.26c.25,.92,.37,1.88,.37,2.84s-.12,1.92-.37,2.84l.97,.26c.27-1.01,.4-2.05,.4-3.1s-.14-2.09-.4-3.1ZM8.9,.4l.26,.97c.92-.25,1.88-.37,2.84-.37s1.92,.12,2.84,.37l.26-.97c-1.01-.27-2.05-.4-3.1-.4s-2.09,.14-3.1,.4Zm9.1,1.2l-.5,.87c1.67,.97,3.07,2.36,4.03,4.03l.87-.5c-1.05-1.82-2.57-3.34-4.4-4.4Z"/></svg>
