<?xml version="1.0" encoding="UTF-8"?>
<svg xmlns="http://www.w3.org/2000/svg" id="Layer_1" data-name="Layer 1" viewBox="0 0 24 24" width="512" height="512"><path d="M4.146,6.354c-.739-.739-1.146-1.722-1.146-2.768v-1.586h1v1.586c0,.779,.303,1.51,.854,2.061,.739,.739,1.146,1.722,1.146,2.768v1.586h-1v-1.586c0-.779-.303-1.51-.854-2.061Zm4.854,1.061v1.586h1v-1.586c0-1.046-.407-2.029-1.146-2.768-.551-.55-.854-1.282-.854-2.061V1h-1v1.586c0,1.046,.407,2.029,1.146,2.768,.551,.55,.854,1.282,.854,2.061Zm15,3.541v1.045c0,6.617-5.383,12-12,12S0,18.617,0,12c0-1.5,.283-3,.283-3H1.29l.064,.425c.628,4.117,2.738,6.575,5.646,6.575,3.037,0,5-1.962,5-5,0-3.343,2.211-5.732,5.442-5.979-.322-2.619-1.925-4.021-3.442-4.021V0c1.99,0,4.093,1.75,4.448,5.014,3.648,.218,5.552,3.096,5.552,5.941Zm-6-4.955c-1.381,0-2.456,.402-3.25,1.042l.022-.011c.642,1.215,1.879,1.969,3.229,1.969s2.58-.75,3.223-1.96c-.793-.636-1.861-1.04-3.223-1.04Zm5,4.955c0-1.111-.339-2.262-1.049-3.174-.851,1.377-2.337,2.219-3.951,2.219s-3.109-.848-3.959-2.233c-.706,.912-1.041,2.075-1.041,3.233,0,3.589-2.411,6-6,6-2.753,0-4.89-1.773-5.999-4.858,.076,6,4.981,10.858,10.999,10.858,6.065,0,11-4.935,11-11v-1.045Z"/></svg>
