<?xml version="1.0" encoding="UTF-8"?>
<svg xmlns="http://www.w3.org/2000/svg" id="Layer_1" data-name="Layer 1" viewBox="0 0 24 24" width="512" height="512"><path d="M23.045,8.035l-2.045-1.607V2h-1v3.641L13.545,.567c-.91-.715-2.182-.715-3.09,0L.955,8.035c-.607,.477-.955,1.193-.955,1.965v14H9.447l2.528-6h-3.659c-.17,0-.251-.116-.277-.166-.026-.05-.079-.181,.017-.325l4.935-7.509h.138l-1.8,6h4.339c.105,0,.202,.049,.266,.134,.062,.084,.081,.191,.059,.27l-2.699,7.597h10.708V10c0-.772-.348-1.489-.955-1.965Zm-.045,14.965H14.708l2.232-6.285c.123-.407,.048-.836-.205-1.178-.254-.342-.644-.538-1.068-.538h-2.995l1.8-6h-2.021l-5.23,7.958c-.268,.404-.292,.921-.062,1.349,.229,.427,.673,.693,1.158,.693h2.153l-1.687,4H1V10c0-.463,.209-.893,.572-1.179L11.072,1.353c.547-.429,1.309-.429,1.855,0l9.5,7.468c.363,.286,.572,.716,.572,1.179v13Z"/></svg>
