<?xml version="1.0" encoding="UTF-8"?>
<svg xmlns="http://www.w3.org/2000/svg" id="Layer_1" data-name="Layer 1" viewBox="0 0 24 24" width="512" height="512"><path d="M16.5,5c1.379,0,2.5-1.122,2.5-2.5s-1.121-2.5-2.5-2.5-2.5,1.122-2.5,2.5,1.121,2.5,2.5,2.5Zm0-4c.827,0,1.5,.673,1.5,1.5s-.673,1.5-1.5,1.5-1.5-.673-1.5-1.5,.673-1.5,1.5-1.5Zm-4.015,5.188l4.741,4.669,.701-.713-5.118-5.036c-.058-.045-1.429-1.107-3.387-1.107-1.218,0-4.423,1.076-4.423,3.5,0,1.378,1.121,2.5,2.5,2.5,.181,0,.353-.026,.518-.073-.002,.043-.002,.086-.002,.129,.011,.715,.328,1.393,.912,1.892l2.071,1.43v4.738h1v-5.262l-2.461-1.697c-.326-.28-.517-.686-.522-1.116-.006-.36,.12-.707,.346-.981,.201-.187,3.122-2.872,3.122-2.872Zm-4.985,2.812c-.827,0-1.5-.673-1.5-1.5,0-1.641,2.543-2.5,3.423-2.5,.968,0,1.773,.324,2.252,.573,0,0-2.979,2.73-3.041,2.801-.426,.391-.773,.626-1.134,.626Zm.995,8.454c-.004-.329-.057-.643-.136-.949l.495-.118c-.085-.356-.21-.698-.374-1.016l-.474,.244c-.152-.282-.333-.545-.546-.781l.399-.362c-.243-.269-.522-.506-.831-.706l-.279,.429c-.264-.18-.554-.319-.858-.432l.163-.471c-.336-.116-.69-.194-1.052-.232l-.05,.485c-.15-.017-.297-.046-.451-.046-.176,0-.345,.03-.515,.052l-.059-.484c-.359,.044-.712,.127-1.046,.248l.169,.466c-.302,.118-.586,.269-.847,.454l-.288-.431c-.306,.205-.582,.448-.821,.723l.407,.355c-.209,.24-.388,.503-.536,.787l-.478-.233c-.155,.317-.275,.66-.356,1.016l.493,.113c-.073,.301-.121,.611-.121,.934l.002,.021-.502,.019c.014,.366,.061,.72,.14,1.051l.494-.117c.08,.315,.2,.611,.35,.892l-.474,.241c.167,.329,.374,.632,.615,.901l.401-.359c.212,.238,.444,.458,.707,.64l-.283,.431c.3,.197,.627,.358,.974,.479l.164-.47c.297,.113,.612,.183,.939,.222l-.052,.485c.175,.019,.351,.028,.525,.028,.184,0,.367-.01,.549-.031l-.055-.484c.326-.041,.64-.112,.937-.226l.167,.468c.346-.124,.672-.286,.971-.484l-.286-.431c.263-.184,.494-.405,.706-.645l.406,.359c.24-.272,.445-.577,.609-.906l-.477-.238c.148-.281,.268-.578,.346-.893l.494,.114c.077-.334,.122-.688,.133-1.033v-.111l-.504,.031Zm-.995,.046c0,1.654-1.346,3-3,3s-3-1.346-3-3,1.346-3,3-3,3,1.346,3,3Zm16.367,1.067c.077-.334,.122-.688,.133-1.033v-.111l-.504,.031c-.004-.329-.057-.643-.136-.949l.495-.118c-.085-.356-.21-.698-.374-1.016l-.474,.244c-.152-.282-.333-.545-.546-.781l.399-.362c-.243-.269-.522-.506-.831-.706l-.279,.429c-.264-.18-.554-.319-.858-.432l.163-.471c-.336-.116-.69-.194-1.052-.232l-.05,.485c-.15-.017-.297-.046-.451-.046-.176,0-.345,.03-.515,.052l-.059-.484c-.359,.044-.712,.127-1.046,.248l.169,.466c-.302,.118-.586,.269-.847,.454l-.288-.431c-.306,.205-.582,.448-.821,.723l.407,.355c-.209,.24-.388,.503-.536,.787l-.478-.233c-.155,.317-.275,.66-.356,1.016l.493,.113c-.073,.301-.121,.611-.121,.934l.002,.021-.502,.019c.014,.366,.061,.72,.14,1.051l.494-.117c.08,.315,.2,.611,.35,.892l-.474,.241c.167,.329,.374,.632,.615,.901l.401-.359c.212,.238,.444,.458,.707,.64l-.283,.431c.3,.197,.627,.358,.974,.479l.164-.47c.297,.113,.612,.183,.939,.222l-.052,.485c.175,.019,.351,.028,.525,.028,.184,0,.367-.01,.549-.031l-.055-.484c.326-.041,.64-.112,.937-.226l.167,.468c.346-.124,.672-.286,.971-.484l-.286-.431c.263-.184,.494-.405,.706-.645l.406,.359c.24-.272,.445-.577,.609-.906l-.477-.238c.148-.281,.268-.578,.346-.893l.494,.114Zm-1.366-1.067c0,1.654-1.346,3-3,3s-3-1.346-3-3,1.346-3,3-3,3,1.346,3,3Z"/></svg>
