<?xml version="1.0" encoding="UTF-8"?>
<svg xmlns="http://www.w3.org/2000/svg" id="Layer_1" data-name="Layer 1" viewBox="0 0 24 24" width="512" height="512"><path d="M4.5,5c1.38,0,2.5-1.12,2.5-2.5S5.88,0,4.5,0,2,1.12,2,2.5s1.12,2.5,2.5,2.5Zm0-4c.83,0,1.5,.67,1.5,1.5s-.67,1.5-1.5,1.5-1.5-.67-1.5-1.5,.67-1.5,1.5-1.5ZM1,16H7v8h-1v-7H3v7h-1v-7H0V8.5c0-1.38,1.12-2.5,2.5-2.5H6.5c.39,0,.76,.09,1.1,.25l-.78,.78c-.1-.02-.21-.03-.32-.03H2.5c-.83,0-1.5,.67-1.5,1.5v7.5ZM19.5,5c1.38,0,2.5-1.12,2.5-2.5s-1.12-2.5-2.5-2.5-2.5,1.12-2.5,2.5,1.12,2.5,2.5,2.5Zm0-4c.83,0,1.5,.67,1.5,1.5s-.67,1.5-1.5,1.5-1.5-.67-1.5-1.5,.67-1.5,1.5-1.5Zm4.5,16h-2v7h-1v-7h-3v7h-1v-8h6v-7.5c0-.83-.67-1.5-1.5-1.5h-4c-.11,0-.22,.01-.32,.03l-.78-.78c.33-.16,.71-.26,1.1-.26h4c1.38,0,2.5,1.12,2.5,2.5v8.5Zm-6.58-4.11l-2.52,2.52-.71-.71,2.52-2.52c.06-.06,.11-.12,.15-.19H7.13c.04,.07,.09,.13,.15,.19l2.52,2.52-.71,.71-2.52-2.52c-.77-.77-.77-2.02,0-2.79l2.52-2.52,.71,.71-2.52,2.52c-.06,.06-.11,.12-.15,.19h9.73c-.04-.07-.09-.13-.15-.19l-2.52-2.52,.71-.71,2.52,2.52c.77,.77,.77,2.02,0,2.79Z"/></svg>
