<?xml version="1.0" encoding="UTF-8"?>
<svg xmlns="http://www.w3.org/2000/svg" id="Layer_1" data-name="Layer 1" viewBox="0 0 24 24">
  <path d="m23.262,6.012l-4.242,4.242c-1.039-.636-2.246-1.253-3.02-1.253-.106,0-.214.018-.321.028L23.979.729l-.707-.707-8.299,8.299c.009-.107.028-.215.028-.321,0-.78-.627-1.999-1.268-3.044L17.969.719,17.262.012l-4.084,4.084c-.378-.563-.691-.985-.779-1.101l-.399-.531-.399.531c-.258.344-2.453,3.306-2.588,4.858-.301-.438-.539-.759-.614-.858l-.399-.531-.399.531c-.258.344-2.453,3.306-2.588,4.858-.301-.438-.539-.759-.614-.858l-.399-.531-.399.531c-.267.354-2.601,3.501-2.601,5.006,0,1.25,1.321,3.537,1.866,4.427L.021,23.271l.707.707,2.844-2.844c.89.545,3.177,1.866,4.427,1.866,1.505,0,4.651-2.334,5.006-2.601l.531-.399-.531-.399c-.099-.074-.42-.312-.858-.614,1.552-.135,4.514-2.329,4.858-2.588l.531-.399-.531-.399c-.099-.074-.42-.312-.858-.614,1.552-.135,4.514-2.329,4.858-2.588l.531-.399-.531-.399c-.118-.089-.55-.409-1.125-.794l4.087-4.087-.707-.707Zm-11.262-1.866c.898,1.274,2,3.09,2,3.854,0,.626-.232,1.292-.686,1.979l-1.72,1.72c-.717-1.203-1.594-2.924-1.594-3.699,0-.765,1.102-2.58,2-3.854Zm-4,4c.898,1.274,2,3.09,2,3.854,0,.626-.232,1.292-.686,1.979l-1.72,1.72c-.717-1.203-1.594-2.924-1.594-3.699,0-.765,1.102-2.58,2-3.854Zm-6,7.854c0-.765,1.102-2.58,2-3.854.898,1.274,2,3.09,2,3.854,0,.626-.232,1.292-.686,1.979l-1.72,1.72c-.717-1.203-1.594-2.924-1.594-3.699Zm6,6c-.775,0-2.496-.877-3.699-1.594l1.72-1.72c.687-.454,1.353-.686,1.979-.686.765,0,2.58,1.102,3.854,2-1.274.898-3.09,2-3.854,2Zm4-4c-.775,0-2.496-.877-3.699-1.594l1.72-1.72c.687-.454,1.353-.686,1.979-.686.765,0,2.58,1.102,3.854,2-1.274.898-3.09,2-3.854,2Zm4-4c-.775,0-2.496-.877-3.699-1.594l1.72-1.72c.687-.454,1.353-.686,1.979-.686.765,0,2.58,1.102,3.854,2-1.274.898-3.09,2-3.854,2Z"/>
</svg>
