<?xml version="1.0" encoding="UTF-8"?>
<svg xmlns="http://www.w3.org/2000/svg" id="Layer_1" data-name="Layer 1" viewBox="0 0 24 24" width="512" height="512"><path d="m12,0C5.383,0,0,5.383,0,12s5.383,12,12,12,12-5.383,12-12S18.617,0,12,0Zm0,23c-6.065,0-11-4.935-11-11S5.935,1,12,1s11,4.935,11,11-4.935,11-11,11Zm-3.75-6h8.75v1h-8.75c-.488,0-.924-.291-1.11-.742s-.084-.965.261-1.309L15.891,7.346c.085-.085.065-.175.046-.221-.02-.047-.069-.125-.187-.125H7v-1h8.75c.488,0,.924.291,1.11.742s.084.965-.261,1.309l-8.49,8.604c-.085.085-.065.175-.046.221.02.047.069.125.187.125Z"/></svg>
