<?xml version="1.0" encoding="UTF-8"?>
<svg xmlns="http://www.w3.org/2000/svg" id="Layer_1" data-name="Layer 1" viewBox="0 0 24 24" width="512" height="512"><path d="M5.758,24.003c-1.73,0-3.174-.524-4.205-1.556C-.053,20.841-.431,18.233,.49,15.103c.89-3.025,2.896-6.208,5.651-8.962S12.078,1.379,15.103,.49c3.131-.921,5.739-.542,7.344,1.063h0c1.606,1.606,1.984,4.214,1.063,7.344-.89,3.025-2.896,6.208-5.651,8.962s-5.938,4.761-8.962,5.651c-1.121,.33-2.175,.493-3.139,.493ZM18.241,.996c-.867,0-1.826,.15-2.855,.453-2.868,.843-5.899,2.76-8.538,5.398S2.292,12.518,1.449,15.385c-.813,2.763-.525,5.02,.811,6.355,1.335,1.335,3.591,1.624,6.355,.811,2.868-.843,5.899-2.76,8.538-5.398s4.555-5.67,5.398-8.538c.813-2.763,.525-5.02-.811-6.355h0c-.838-.838-2.039-1.264-3.5-1.264ZM9,9v1c3.038,0,5,1.962,5,5h1c0-3.589-2.411-6-6-6Zm4-4v1c3.038,0,5,1.962,5,5h1c0-3.589-2.411-6-6-6ZM5,13v1c3.038,0,5,1.962,5,5h1c0-3.589-2.411-6-6-6Z"/></svg>
