<?xml version="1.0" encoding="UTF-8"?>
<svg xmlns="http://www.w3.org/2000/svg" id="Layer_1" data-name="Layer 1" viewBox="0 0 24 24">
  <path d="m17,2.5c0-1.379-1.121-2.5-2.5-2.5H2.5C1.121,0,0,1.121,0,2.5v18.5c0,1.654,1.346,3,3,3h14c1.654,0,3-1.346,3-3v-2h-3V2.5ZM5,21c0,1.103-.897,2-2,2s-2-.897-2-2V2.5c0-.827.673-1.5,1.5-1.5h12c.827,0,1.5.673,1.5,1.5v16.5H5v2Zm14-1v1c0,1.103-.897,2-2,2H5.234c.476-.531.766-1.232.766-2v-1h13ZM21.5,0c-1.379,0-2.5,1.121-2.5,2.5v12.707l2.5,2.5,2.5-2.5V2.5c0-1.379-1.121-2.5-2.5-2.5Zm1.5,14.793l-1.5,1.5-1.5-1.5V2.5c0-.827.673-1.5,1.5-1.5s1.5.673,1.5,1.5v12.293ZM8.455,3.146l.707.707-2.827,2.827c-.213.213-.491.318-.771.318s-.559-.105-.771-.318l-1.647-1.647.707-.707,1.647,1.647c.035.035.092.035.127,0l2.827-2.827Zm0,6l.707.707-2.827,2.827c-.213.213-.491.318-.771.318s-.559-.105-.771-.318l-1.647-1.647.707-.707,1.647,1.647c.035.035.092.035.127,0l2.827-2.827Z"/>
</svg>
