<?xml version="1.0" encoding="UTF-8"?>
<svg xmlns="http://www.w3.org/2000/svg" id="Layer_1" data-name="Layer 1" viewBox="0 0 24 24" width="512" height="512"><path d="m19,9.998c1.28,0,2.561-.488,3.536-1.462,1.95-1.95,1.95-5.122,0-7.071s-5.122-1.949-7.071,0-1.95,5.122,0,7.071c.975.975,2.255,1.462,3.536,1.462Zm2.829-2.169c-1.44,1.44-3.714,1.55-5.282.331l5.613-5.613c1.219,1.568,1.108,3.842-.331,5.282Zm-5.657-5.657c.78-.78,1.804-1.17,2.829-1.17.867,0,1.734.28,2.453.838l-5.613,5.613c-1.219-1.568-1.108-3.842.331-5.282Zm7.829,7.723v14.106H0V6.5C0,5.122,1.122,4,2.5,4h9.5v1H2.5c-.533,0-1.002.28-1.268.701l8.274,8.275c1.365,1.364,3.585,1.364,4.95,0h0s0,0,0,0l2.279-2.357c.362.124.737.217,1.123.281l-2.695,2.783h0s0,0,0,0c-.877.877-2.03,1.316-3.182,1.316s-2.305-.438-3.182-1.316L1,6.883v16.117h22v-12.26c.359-.251.694-.533,1-.846Z"/></svg>
