<?xml version="1.0" encoding="UTF-8"?>
<svg xmlns="http://www.w3.org/2000/svg" id="Layer_1" data-name="Layer 1" viewBox="0 0 24 24" width="512" height="512"><path d="m18.459,1.606c-.368-.961-1.307-1.606-2.335-1.606H7.876c-1.028,0-1.967.646-2.335,1.606l-2.56,6.69,3.107,15.703h11.822l3.107-15.703-2.56-6.69Zm-1.37,21.394H6.911l-2.893-14.615L6.475,1.964c.221-.576.784-.964,1.401-.964h8.248c.617,0,1.181.388,1.401.964l2.456,6.421-2.893,14.615Zm-4.589-13.5h3.5v1h-3.5v5.5h-1v-5.5h-3.5v-1h3.5v-3.5h1v3.5Z"/></svg>
