<?xml version="1.0" encoding="UTF-8"?>
<svg xmlns="http://www.w3.org/2000/svg" id="Layer_1" data-name="Layer 1" viewBox="0 0 24 24">
  <path d="m13,11c0-.929-.64-1.705-1.5-1.929V3h-1v6.071c-.86.224-1.5,1-1.5,1.929,0,1.103.897,2,2,2s2-.897,2-2Zm-3,0c0-.551.448-1,1-1s1,.449,1,1-.448,1-1,1-1-.449-1-1Zm-3.146,6.304l.654.756-2.502,2.165-.319-.224C1.752,17.938,0,14.573,0,11,0,4.935,4.935,0,11,0c5.821,0,10.588,4.548,10.963,10.276-.338-.209-.688-.399-1.055-.56-.633-4.908-4.83-8.716-9.908-8.716C5.486,1,1,5.486,1,11c0,3.119,1.469,6.062,3.948,7.952l1.906-1.648Zm10.646-6.304c-3.584,0-6.5,2.916-6.5,6.5s2.916,6.5,6.5,6.5,6.5-2.916,6.5-6.5-2.916-6.5-6.5-6.5Zm0,12c-3.032,0-5.5-2.467-5.5-5.5s2.468-5.5,5.5-5.5,5.5,2.467,5.5,5.5-2.468,5.5-5.5,5.5Zm.5-6h2.5v1h-2.5v2.5h-1v-2.5h-2.5v-1h2.5v-2.5h1v2.5Z"/>
</svg>
