<?xml version="1.0" encoding="UTF-8"?>
<svg xmlns="http://www.w3.org/2000/svg" id="Layer_1" data-name="Layer 1" viewBox="0 0 24 24" width="512" height="512"><path d="M22,19.05V2.5c0-1.378-1.121-2.5-2.5-2.5H2.5C1.121,0,0,1.122,0,2.5V21H17.05c.039-.347,.112-.681,.225-1H1v-3H18v1.703c.288-.36,.616-.686,1-.944V1h.5c.827,0,1.5,.673,1.5,1.5V19.05c-1.14,.232-2,1.242-2,2.45,0,1.379,1.121,2.5,2.5,2.5s2.5-1.121,2.5-2.5c0-1.208-.86-2.218-2-2.45Zm-4-7.05H1v-3H18v3Zm0-4H1v-3H18v3ZM1,13H18v3H1v-3ZM18,4H1v-1.5c0-.827,.673-1.5,1.5-1.5h15.5v3Zm3.5,19c-.827,0-1.5-.673-1.5-1.5s.673-1.5,1.5-1.5,1.5,.673,1.5,1.5-.673,1.5-1.5,1.5Z"/></svg>
