<?xml version="1.0" encoding="UTF-8"?>
<svg xmlns="http://www.w3.org/2000/svg" id="Layer_1" data-name="Layer 1" viewBox="0 0 24 24" width="512" height="512"><path d="M18.417,17.71l.653-.639c3.899-3.899,3.899-10.243,0-14.143-1.889-1.889-4.4-2.929-7.071-2.929S6.818,1.04,4.929,2.929c-.216,.216-.422,.442-.617,.676L.753,.047,.046,.754,23.247,23.953l.707-.707-5.536-5.536ZM9.317,8.61c.515-.978,1.539-1.61,2.668-1.61,1.662,0,3.015,1.353,3.015,3.015,0,1.128-.633,2.152-1.61,2.668l-4.072-4.072Zm8.393,8.393l-3.589-3.589c1.15-.724,1.879-2.002,1.879-3.399,0-2.214-1.801-4.015-4.015-4.015-1.398,0-2.676,.729-3.399,1.879l-3.564-3.564c.193-.236,.398-.463,.614-.679,1.7-1.699,3.96-2.636,6.364-2.636s4.664,.937,6.364,2.636c3.509,3.51,3.509,9.219,.004,12.725l-.657,.643Zm-2.145,2.098l.707,.707-4.273,4.179-7.067-6.911c-2.904-2.904-3.688-7.163-2.206-10.812l.772,.772c-1.122,3.192-.368,6.824,2.137,9.33l6.364,6.224,3.566-3.487Z"/></svg>
