<?xml version="1.0" encoding="UTF-8"?>
<svg xmlns="http://www.w3.org/2000/svg" id="Layer_1" data-name="Layer 1" viewBox="0 0 24 24">
  <path d="m22.575,3.887c-1.573-.899-2.971-1.393-4.596-1.618-.079-.628-.387-1.208-.871-1.627-.579-.5-1.35-.726-2.115-.613-1.867.272-3.752.821-5.195,1.51-.264-.203-.566-.356-.893-.446-.713-.197-1.477-.078-2.098.323-2.023,1.302-4.089,3.367-5.391,5.391-.4.622-.518,1.387-.323,2.098.09.327.242.629.447.893C.85,11.241.301,13.127.028,14.994c-.111.765.112,1.535.613,2.115.419.484,1,.792,1.627.871.225,1.625.719,3.023,1.618,4.596.516.902,1.425,1.424,2.417,1.424.193,0,.39-.02.587-.061,1.25-.258,2.152-1.252,2.296-2.533.17-1.621.67-2.928.901-3.406h1.272s.64-2.001,1.433-3.178l2.033-2.033c.512-.372,2.02-1.109,3.174-1.43v-1.272c.478-.231,1.786-.731,3.406-.901,1.28-.145,2.274-1.046,2.533-2.296.25-1.208-.286-2.388-1.364-3.004Zm-14.382,17.408c-.115,1.024-.882,1.537-1.504,1.666-.617.131-1.45-.037-1.934-.88-.801-1.403-1.255-2.652-1.472-4.079h5.709c-.277.666-.652,1.892-.798,3.294Zm2.454-4.294H2.593c-.466,0-.89-.194-1.195-.546-.311-.36-.45-.839-.38-1.316.243-1.665.715-3.339,1.308-4.66.041.023,9.356,4.241,9.356,4.241-.368.656-.78,1.597-1.035,2.281Zm1.653-3.099L2.881,9.643c-.41-.205-.703-.561-.824-1.003-.12-.438-.047-.909.199-1.292,1.229-1.911,3.18-3.861,5.091-5.091.383-.247.856-.32,1.292-.199.442.121.798.414.995.806l4.268,9.437-1.602,1.602Zm4.7-3.255c-.684.255-1.624.667-2.28,1.034,0,0-4.22-9.32-4.24-9.356,1.321-.593,2.994-1.065,4.658-1.308.476-.069.956.069,1.316.38.353.305.546.729.546,1.195v8.054Zm5.959-3.958c-.128.622-.642,1.389-1.666,1.504-1.402.147-2.628.521-3.294.798V3.282c1.427.218,2.676.671,4.079,1.472.844.482,1.008,1.315.88,1.934Z"/>
</svg>
