<?xml version="1.0" encoding="UTF-8"?>
<svg xmlns="http://www.w3.org/2000/svg" id="Layer_1" data-name="Layer 1" viewBox="0 0 24 24">
  <path d="m15,10c.552,0,1,.448,1,1s-.448,1-1,1-1-.448-1-1,.448-1,1-1Zm4,1c0,.552.448,1,1,1s1-.448,1-1-.448-1-1-1-1,.448-1,1ZM11.232,1h-1.732V0h1.732c.979,0,1.809.701,1.972,1.667l.057.333h10.803l-2.196,7h-6.747c-.98,0-1.81-.701-1.972-1.667l-.93-5.499c-.082-.483-.496-.833-.986-.833Zm2.197,2l.705,4.167c.081.483.495.833.985.833h6.013l1.569-5h-9.272Zm9.57,16H1V5.5c0-.827.673-1.5,1.5-1.5h8.056l-.169-1H2.5c-1.378,0-2.5,1.122-2.5,2.5v14.5h11.5v3h-4.5v1h10v-1h-4.5v-3h11.5v-8h-1v7Z"/>
</svg>
