<?xml version="1.0" encoding="UTF-8"?>
<svg xmlns="http://www.w3.org/2000/svg" id="Layer_1" data-name="Layer 1" viewBox="0 0 24 24">
  <path d="m23.998,19.993l-1.367.005h-.012c-1.038,0-2.075-.126-3.082-.375l-.9-.224c-1.086-.269-2.204-.404-3.324-.404h-.012l-4.16.005h-.003c-1.041,0-1.947-.714-2.107-1.662-.093-.548.033-1.094.355-1.536.323-.442.8-.729,1.271-.802h7.343v-1l-4.236.003,6.428-7.298,3.808,1.68v-1.127l-3.057-1.405.276-.313c.504-.502.781-1.17.781-1.88s-.277-1.378-.781-1.88c-1.039-1.036-2.73-1.037-3.791.023l-1.542,1.744-10.387,3.955L.513,13.618c-.75.937-.669,2.289.186,3.131.158.155.334.276.519.374l.698-.79c-.201-.066-.378-.162-.515-.297-.492-.484-.537-1.255-.112-1.787l4.804-5.894,8.338-3.163L2,19.258v3.742h3.787l3.321-3.716c.553.447,1.267.716,2.029.716h.005l4.16-.005h.012c1.038,0,2.076.126,3.083.375l.9.224c1.086.269,2.204.404,3.324.404h.013l1.369-.005-.004-1Zm-18.659,2.007h-2.339v-2.363L18.156,2.486c.65-.647,1.708-.647,2.357,0,.314.313.487.729.487,1.172s-.173.859-.509,1.196l-8.059,9.149h-1.845c-.812.117-1.525.546-2.008,1.209-.483.662-.673,1.477-.534,2.292.063.371.202.716.397,1.026l-3.102,3.469Z"/>
</svg>
