<?xml version="1.0" encoding="UTF-8"?>
<svg xmlns="http://www.w3.org/2000/svg" id="Layer_1" data-name="Layer 1" viewBox="0 0 24 24" width="512" height="512"><path d="M24,7.5c0-1.378-1.121-2.5-2.5-2.5H6V2h3V1H2v1h3v3H2.5c-1.379,0-2.5,1.122-2.5,2.5v13.5H2v2h1v-2H21v2h1v-2h2V7.5Zm-1,12.5H1V7.5c0-.827,.673-1.5,1.5-1.5H21.5c.827,0,1.5,.673,1.5,1.5v12.5Zm-1-16h-7v-1h7v1ZM7,9c-2.206,0-4,1.794-4,4s1.794,4,4,4,4-1.794,4-4-1.794-4-4-4Zm0,7c-1.654,0-3-1.346-3-3s1.346-3,3-3c1.205,0,2.24,.718,2.716,1.746l-2.716,1.251,2.69,1.306c-.487,1.001-1.504,1.698-2.69,1.698Zm10-7c-2.206,0-4,1.794-4,4s1.794,4,4,4c2,0,4-1.5,4-4,0-2.206-1.794-4-4-4Zm0,7c-1.654,0-3-1.346-3-3s1.346-3,3-3,3,1.346,3,3c0,.309-.06,.602-.148,.883l-2.845-.89,.83,2.874c-.267,.078-.545,.134-.837,.134Z"/></svg>
