<?xml version="1.0" encoding="UTF-8"?>
<svg xmlns="http://www.w3.org/2000/svg" id="Layer_1" data-name="Layer 1" viewBox="0 0 24 24">
  <path d="m24,6l-5.339.046,4.609-4.609-.707-.707-4.563,4.563V0h-1v5.481c-2.074-2.011-4.39-3.755-6.955-1.189C7.533,6.803.826,22.148.542,22.8l-.509,1.167,1.167-.509c.651-.285,15.997-6.992,18.509-9.503,2.566-2.567.821-4.881-1.19-6.955h5.481v-1Zm-4.998,7.248c-.497.496-1.572,1.188-2.964,1.971l-2.836-2.836-.707.707,2.631,2.631c-4.244,2.293-10.552,5.145-13.146,6.299.81-1.821,2.456-5.471,4.159-8.953l2.727,2.727.707-.707-2.967-2.967c1.166-2.347,2.325-4.531,3.228-5.914l3.188,3.188.707-.707-3.309-3.309c.119-.15.23-.278.333-.381.687-.687,1.33-.986,1.976-.986,1.304,0,2.618,1.221,4.329,2.931,2.557,2.558,4.019,4.231,1.945,6.305Z"/>
</svg>
