<?xml version="1.0" encoding="UTF-8"?>
<svg xmlns="http://www.w3.org/2000/svg" id="Layer_1" data-name="Layer 1" viewBox="0 0 24 24">
  <path d="m19,5c0,.552-.448,1-1,1s-1-.448-1-1,.448-1,1-1,1,.448,1,1Zm5,3l-2,.857v2.143c0,4.655-2.907,8.643-7,10.247v2.753h-1v-2.416c-.954.271-1.96.416-3,.416v2h-1v-2.046C4.401,21.447,0,16.728,0,11v-5h1v.5c0,2.481,2.019,4.5,4.5,4.5s4.5-2.019,4.5-4.5v-.5c0-3.309,2.691-6,6-6s6,2.691,6,6v.143l2,.857v1ZM1,11c0,2.249.747,4.328,2.005,6h1.995c2.757,0,5-2.243,5-5v-2.342c-.996,1.415-2.642,2.342-4.5,2.342s-3.504-.926-4.5-2.342v1.342Zm20-5c0-2.757-2.243-5-5-5s-5,2.243-5,5v6c0,3.309-2.691,6-6,6h-1.134c1.816,1.85,4.343,3,7.134,3,5.514,0,10-4.486,10-10v-5Z"/>
</svg>
