<?xml version="1.0" encoding="UTF-8"?>
<svg xmlns="http://www.w3.org/2000/svg" id="Layer_1" data-name="Layer 1" viewBox="0 0 24 24" width="512" height="512"><path d="M21.958,2.042c-3.145-3.145-8.826-2.582-12.662,1.255-2.4,2.401-3.519,5.523-3.25,8.294,.009,.047,.887,4.769-.9,6.556L.021,23.271l.707,.707,5.125-5.125c1.786-1.787,6.507-.909,6.556-.9,.269,.026,.542,.04,.817,.04,2.554,0,5.31-1.123,7.477-3.29,3.836-3.837,4.399-9.517,1.255-12.662Zm-.707,.707c.478,.478,.855,1.024,1.136,1.619l-3.658,3.658-2.842-2.842,3.625-3.625c.641,.285,1.229,.681,1.738,1.19Zm-3.229,5.984l-3.049,3.049-2.842-2.841,3.049-3.049,2.842,2.842Zm-1.251-7.732c.58,0,1.146,.066,1.687,.199l-3.278,3.278-2.458-2.458c1.324-.673,2.721-1.018,4.048-1.018Zm-6.768,3.002c.569-.569,1.182-1.059,1.821-1.469l2.649,2.649-3.049,3.049-2.698-2.698c.368-.535,.795-1.049,1.277-1.532Zm-1.818,2.406l2.532,2.532-3.518,3.518c-.461-1.88-.114-4.061,.986-6.049Zm-1.34,10.745c.23-.693,.342-1.45,.384-2.181,.236,.35,.506,.679,.812,.985,.306,.306,.635,.576,.984,.812-.731,.042-1.488,.155-2.18,.384Zm1.903-1.903c-.509-.509-.905-1.097-1.19-1.738l3.866-3.866,2.842,2.841-3.898,3.898c-.595-.28-1.142-.658-1.619-1.135Zm2.656,1.513l3.569-3.569,2.618,2.618c-2.037,1.127-4.276,1.463-6.187,.951Zm8.593-2.768c-.483,.483-.997,.909-1.532,1.277l-2.785-2.785,3.049-3.049,2.736,2.736c-.41,.639-.9,1.252-1.469,1.821Zm-.56-5.264l3.329-3.329c.487,1.813,.208,3.922-.784,5.873l-2.545-2.545Z"/></svg>
