<?xml version="1.0" encoding="UTF-8"?>
<svg xmlns="http://www.w3.org/2000/svg" id="Layer_1" data-name="Layer 1" viewBox="0 0 24 24" width="512" height="512"><path d="M5,15h4v-4H5v4Zm1-3h2v2h-2v-2Zm1,5c-1.103,0-2,.897-2,2s.897,2,2,2,2-.897,2-2-.897-2-2-2Zm0,3c-.552,0-1-.449-1-1s.448-1,1-1,1,.449,1,1-.448,1-1,1Zm7.565-5h5.869l-2.935-4.401-2.935,4.401Zm1.869-1l1.065-1.599,1.065,1.599h-2.131Zm4.565-6V2.894c0-1.132-.753-2.125-1.832-2.412-1.783-.476-3.592-.481-3.668-.481h-7c-.076,0-1.886,.005-3.669,.481-1.078,.288-1.831,1.28-1.831,2.412v5.106c0,1.205-1.477,3.202-2,3.816v12.184H23V11.815c-.522-.613-2-2.607-2-3.815Zm-9.5,15H2V12.18c.452-.56,2-2.591,2-4.18V2.894c0-.68,.448-1.275,1.089-1.446,.943-.252,1.905-.36,2.569-.408l3.842,11.045v10.915ZM8.704,1h6.593l-3.296,9.478L8.704,1Zm13.296,22H12.5V12.085L16.342,1.04c.664,.048,1.625,.156,2.568,.408,.642,.171,1.09,.766,1.09,1.446v5.106c0,1.588,1.548,3.62,2,4.18v10.82Z"/></svg>
