<?xml version="1.0" encoding="UTF-8"?>
<svg xmlns="http://www.w3.org/2000/svg" id="Layer_1" data-name="Layer 1" viewBox="0 0 24 24">
  <path d="m20.212,2.722L12,0,3.788,2.722c-1.069.355-1.788,1.349-1.788,2.473v6.664c0,6.609,7.159,10.703,9.354,11.8l.626.313.65-.262c2.817-1.133,9.37-4.545,9.37-11.743v-6.772c0-1.124-.719-2.117-1.788-2.473ZM3,11.858v-6.664c0-.692.443-1.305,1.103-1.523l7.397-2.452v21.39c-2.339-1.217-8.5-4.973-8.5-10.75Zm18,.108c0,6.399-5.76,9.568-8.5,10.713V1.219l7.397,2.452c.659.219,1.103.831,1.103,1.523v6.772Z"/>
</svg>
