<?xml version="1.0" encoding="UTF-8"?>
<svg xmlns="http://www.w3.org/2000/svg" id="Layer_1" data-name="Layer 1" viewBox="0 0 24 24" width="512" height="512"><path d="M20.949,12.89c-.488-1.002-.949-1.949-.949-2.89,0-1.548,.608-3.033,1.627-3.971l.224-.206-1.285-4.694-.522,.214c-1.111,.455-2.204,.658-3.534,.658-1.887-.034-2.816-.552-4.188-1.702l-.321-.269-.321,.269c-1.371,1.149-2.301,1.668-4.188,1.702-1.28,.027-2.367-.18-3.534-.658l-.522-.214-1.285,4.694,.224,.206c1.019,.938,1.627,2.423,1.627,3.971,0,.94-.461,1.887-.949,2.89-.517,1.06-1.051,2.156-1.051,3.327,0,4.514,4.521,5.942,7.511,6.886,.764,.241,1.422,.449,1.843,.66l.646,.323,.646-.323c.421-.21,1.079-.418,1.843-.66,2.99-.944,7.511-2.372,7.511-6.886,0-1.171-.534-2.267-1.051-3.327ZM3.271,5.509l.833-3.041c1.106,.389,2.183,.554,3.404,.532,2.006-.036,3.145-.592,4.491-1.671,1.347,1.08,2.486,1.635,4.5,1.671,1.266,0,2.336-.166,3.396-.533l.833,3.042c-.662,.682-1.153,1.539-1.439,2.491H4.71c-.286-.952-.776-1.809-1.439-2.491ZM14.187,22.149c-.803,.253-1.497,.473-1.988,.718l-.199,.1-.199-.1c-.491-.246-1.186-.465-1.988-.718-2.875-.908-6.812-2.152-6.812-5.933,0-.94,.461-1.887,.949-2.889,.517-1.061,1.051-2.157,1.051-3.328,0-.339-.024-.673-.071-1h14.141c-.047,.327-.071,.661-.071,1,0,1.171,.534,2.267,1.051,3.328,.488,1.002,.949,1.949,.949,2.889,0,3.781-3.938,5.025-6.813,5.933Z"/></svg>
