<?xml version="1.0" encoding="UTF-8"?>
<svg xmlns="http://www.w3.org/2000/svg" id="Layer_1" data-name="Layer 1" viewBox="0 0 24 24" width="512" height="512"><path d="m21.5,19.017h-.5v-6c0-4.963-4.037-9-9-9S3,8.054,3,13.017v6h-.5c-1.379,0-2.5,1.121-2.5,2.5v2.483h24v-2.483c0-1.379-1.121-2.5-2.5-2.5ZM4,13.017c0-4.411,3.589-8,8-8s8,3.589,8,8v6H4v-6Zm19,9.983H1v-1.483c0-.827.673-1.5,1.5-1.5h19c.827,0,1.5.673,1.5,1.5v1.483ZM2.511,6.127L.159,3.967l.676-.736,2.352,2.16-.676.736Zm4.119-2.901L5.373.495l.908-.418,1.257,2.73-.908.418Zm14.945,2.839l-.693-.721,2.273-2.186.693.721-2.273,2.186Zm-4.199-2.851l-.92-.395L17.626.089l.92.395-1.17,2.73Zm-5.376,5.803v1c-1.654,0-3,1.346-3,3h-1c0-2.206,1.794-4,4-4Z"/></svg>
