<?xml version="1.0" encoding="UTF-8"?>
<svg xmlns="http://www.w3.org/2000/svg" id="Layer_1" data-name="Layer 1" viewBox="0 0 24 24" width="512" height="512"><path d="M23,22.29V3.5c0-1.38-1.12-2.5-2.5-2.5H3.5c-.49,0-.97,.15-1.38,.41L.75,.05,.05,.75,23.25,23.95l.71-.71-.95-.95ZM3.5,2H20.5c.83,0,1.5,.67,1.5,1.5V21.29l-3-3V5h-5.21l-4.04,4.04-1.79-1.79,2.25-2.25H5.71L2.85,2.15c.2-.1,.42-.15,.65-.15Zm14.5,15.29l-7.54-7.54,3.75-3.75h3.79v11.29ZM7.25,6.54l-.54-.54h1.09l-.54,.54Zm-1.25,2.99v8.46H14.46l1,1H5V8.54l1,1Zm4,4v.46h.46l1,1h-2.46v-2.46l1,1Zm8.46,8.46l1,1H1V4.54l1,1V22H18.46Z"/></svg>
