<?xml version="1.0" encoding="UTF-8"?>
<svg xmlns="http://www.w3.org/2000/svg" id="Layer_1" data-name="Layer 1" width="512" height="512" viewBox="0 0 24 24"><path d="M12.425,16.03l.922,.387-3.179,7.565-.922-.387,3.178-7.565Zm-7.466,7.565l.922,.387,3.178-7.565-.922-.387-3.178,7.565Zm8.558,0l.922,.387,3.178-7.565-.922-.387-3.178,7.565Zm3.486-18.573C15.87,2.004,12.999,0,9.75,0,5.477,0,2,3.477,2,7.75c0,.763,.116,1.523,.345,2.267-1.476,1.032-2.345,2.681-2.345,4.483,0,2.638,1.869,4.847,4.352,5.377l.4-.953c-2.125-.359-3.752-2.199-3.752-4.424,0-1.582,.822-3.021,2.2-3.847l.354-.212-.141-.388c-.273-.752-.412-1.527-.412-2.304,0-3.722,3.028-6.75,6.75-6.75,2.931,0,5.51,1.873,6.417,4.661l.11,.339,.355,.007c3.511,.071,6.367,2.984,6.367,6.493,0,2.76-1.794,5.245-4.145,6.133l-.502,1.195c3.133-.716,5.647-3.833,5.647-7.328,0-3.933-3.107-7.216-6.997-7.478Z"/></svg>
