<?xml version="1.0" encoding="UTF-8"?>
<svg xmlns="http://www.w3.org/2000/svg" id="Layer_1" data-name="Layer 1" viewBox="0 0 24 24">
  <path d="m24,11c0-1.654-1.346-3-3-3h-.985c.587-.526.985-1.223.985-2,0-1.654-1.346-3-3-3h-2.539c-.773-1.505-2.351-3-3.961-3h-.5v.5c0,.981-.183,1.821-.542,2.5h-4.458c-1.654,0-3,1.346-3,3,0,.768.29,1.469.766,2h-.766c-1.654,0-3,1.346-3,3,0,1.468,1.061,2.687,2.455,2.945l1.28,7.952c.195,1.219,1.233,2.103,2.469,2.103h11.592c1.235,0,2.273-.884,2.468-2.103l1.281-7.953c1.394-.258,2.455-1.477,2.455-2.945Zm-4.724,10.739c-.116.731-.739,1.261-1.48,1.261H6.204c-.741,0-1.364-.53-1.481-1.262l-1.246-7.738h17.048l-1.247,7.739Zm1.724-8.739H3c-1.103,0-2-.897-2-2s.897-2,2-2h10v-1h-7c-1.103,0-2-.897-2-2s.897-2,2-2h5.022l.147-.234c.469-.748.74-1.654.812-2.701,1.099.286,2.194,1.479,2.708,2.638l.132.297h3.179c1.103,0,2,.897,2,2,0,1.077-1.375,2-2.5,2h-.5v1h4c1.103,0,2,.897,2,2s-.897,2-2,2Z"/>
</svg>
