<?xml version="1.0" encoding="UTF-8"?>
<svg xmlns="http://www.w3.org/2000/svg" id="Layer_1" data-name="Layer 1" width="512" height="512" viewBox="0 0 24 24"><path d="M1.414,10.471c-.872-.9-1.414-2.122-1.414-3.471C0,3.797,3.063,1.239,6.361,2.202,7.498,.817,9.205,0,11,0c1.747,0,3.377,.747,4.52,2.061,1.86-.301,3.571,.492,4.6,1.961,.127-.015,.254-.021,.38-.021,1.93,0,3.5,1.57,3.5,3.5,0,.191-.027,.375-.056,.558-.238-.24-.488-.469-.761-.674-.068-.051-.14-.094-.209-.142-.131-1.256-1.184-2.242-2.474-2.242-.171,0-.345,.019-.517,.056l-.349,.074-.184-.306c-.689-1.143-1.885-1.824-3.2-1.824-.262,0-.529,.031-.816,.096l-.308,.07-.195-.249c-.957-1.218-2.39-1.917-3.931-1.917-1.598,0-3.113,.777-4.053,2.081l-.222,.307-.355-.13C3.565,2.229,1,4.346,1,7c0,.932,.333,1.779,.869,2.46-.177,.32-.328,.657-.455,1.012Zm22.586,9.029c0,1.93-1.57,3.5-3.5,3.5-.533,0-1.062-.126-1.545-.367-1.375,.971-3.152,1.145-4.706,.406-.972,.63-2.088,.961-3.249,.961-1.125,0-2.21-.312-3.163-.906-.847,.594-1.82,.906-2.837,.906-2.757,0-5-2.243-5-5,0-3.203,3.063-5.761,6.361-4.798,1.136-1.385,2.844-2.202,4.639-2.202,1.747,0,3.377,.747,4.52,2.061,1.86-.299,3.571,.492,4.6,1.961,2.06-.242,3.88,1.422,3.88,3.479Zm-1,0c0-1.55-1.461-2.778-3.017-2.444l-.349,.074-.184-.306c-.689-1.143-1.885-1.824-3.2-1.824-.262,0-.529,.031-.816,.096l-.308,.07-.195-.249c-.957-1.218-2.39-1.917-3.931-1.917-1.598,0-3.113,.777-4.053,2.081l-.222,.307-.355-.13c-2.804-1.029-5.37,1.088-5.37,3.742,0,2.206,1.794,4,4,4,.906,0,1.772-.313,2.504-.907l.295-.239,.31,.221c1.717,1.219,4.108,1.212,5.811-.021l.257-.186,.277,.153c1.377,.76,2.963,.59,4.145-.372l.277-.225,.303,.189c.403,.253,.86,.387,1.321,.387,1.378,0,2.5-1.121,2.5-2.5Zm-5.361-11.298c-1.136-1.385-2.844-2.202-4.639-2.202-1.747,0-3.377,.747-4.52,2.061-2.429-.393-4.585,1.058-5.271,3.293-.092,.299-.142,.608-.174,.919,.339-.099,.685-.168,1.036-.213,.026-.139,.052-.278,.094-.413,.486-1.583,1.927-2.646,3.585-2.646,.262,0,.529,.031,.816,.096l.308,.07,.195-.249c.957-1.218,2.39-1.917,3.931-1.917,1.598,0,3.113,.777,4.053,2.081l.222,.307,.355-.13c2.806-1.029,5.37,1.088,5.37,3.742,0,.519-.107,1.012-.287,1.468,.308,.136,.599,.31,.88,.503,.261-.605,.408-1.271,.408-1.97,0-3.202-3.062-5.757-6.361-4.798Z"/></svg>
