<?xml version="1.0" encoding="UTF-8"?>
<svg xmlns="http://www.w3.org/2000/svg" id="Layer_1" data-name="Layer 1" viewBox="0 0 24 24">
  <path d="m24,6.136c0-2.116-1.12-4.032-2.921-5-1.403-.753-2.879-1.136-4.388-1.136H7.31c-1.509,0-2.985.382-4.388,1.136C1.12,2.104,0,4.02,0,6.136v4.888h4v12.976h16v-13h4v-4.864ZM15.464,1c-.243,1.694-1.704,3-3.464,3s-3.221-1.306-3.464-3h6.928Zm7.536,9h-3v-3h-1v16H5V7h-1v3.024H1v-3.888c0-1.748.917-3.326,2.395-4.119,1.256-.674,2.573-1.017,3.915-1.017h.218c.25,2.247,2.16,4,4.472,4s4.223-1.753,4.472-4h.218c1.342,0,2.659.342,3.915,1.017,1.477.793,2.395,2.372,2.395,4.119v3.864Z"/>
</svg>
