<?xml version="1.0" encoding="UTF-8"?>
<svg xmlns="http://www.w3.org/2000/svg" id="Layer_1" data-name="Layer 1" width="512" height="512" viewBox="0 0 24 24"><path d="M21.092,19.83c1.875-2.09,2.908-4.87,2.908-7.83C24,5.383,18.617,0,12,0S0,5.383,0,12c0,2.962,1.034,5.744,2.912,7.834l.018,.021c-1.077,.075-1.93,.975-1.93,2.07,0,1.145,.931,2.075,2.075,2.075H20.925c1.145,0,2.075-.931,2.075-2.075,0-1.099-.857-2-1.908-2.095Zm-.167,3.17H3.075c-.593,0-1.075-.482-1.075-1.075s.482-1.075,1.075-1.075l.119-.015c.102-.024,.62-.175,.77-.659,.07-.227,.073-.585-.308-1.01-1.713-1.906-2.656-4.451-2.656-7.166C1,5.935,5.935,1,12,1s11,4.935,11,11c0,2.715-.943,5.26-2.656,7.166-.381,.424-.378,.783-.308,1.01,.149,.484,.667,.635,.77,.659l.119,.015c.593,0,1.075,.482,1.075,1.075s-.482,1.075-1.075,1.075ZM12,4.007c-4.411,0-8,3.589-8,8s3.589,8,8,8,8-3.589,8-8-3.589-8-8-8Zm6.294,4.939s-3.503,1.409-3.561,1.437l-.002-.006c-.509,.203-1.062,.145-1.516-.164-.455-.307-.715-.798-.715-1.347v-3.841c2.549,.181,4.726,1.733,5.794,3.921Zm-5.191,3.371c-.08,.286-.118,.576-.115,.863-.31-.12-.643-.183-.988-.183s-.679,.063-.988,.183c.003-.287-.035-.578-.115-.863-.092-.327-.234-.631-.419-.902,.306-.072,.6-.2,.868-.381,.256-.173,.475-.387,.651-.63,.177,.245,.398,.462,.656,.637,.267,.181,.56,.308,.864,.38-.183,.27-.324,.571-.415,.896Zm-1.604-7.292v3.834c0,.549-.261,1.039-.715,1.347-.454,.309-1.006,.366-1.516,.164l-.004,.011c-.057-.027-3.559-1.435-3.559-1.435,1.068-2.188,3.245-3.74,5.794-3.921Zm-6.5,6.982c0-.744,.117-1.46,.333-2.133l3.384,1.359c.599,.24,1.042,.733,1.216,1.354s.052,1.272-.334,1.788h0l-2.19,2.913c-1.476-1.284-2.41-3.176-2.41-5.281Zm3.209,5.882l2.406-3.199c.661-.879,2.109-.879,2.77,0l2.406,3.199c-1.093,.707-2.395,1.118-3.791,1.118s-2.698-.411-3.791-1.118Zm8.381-.601l-2.19-2.912h.001c-.387-.517-.509-1.168-.335-1.789s.617-1.114,1.217-1.354l3.384-1.359c.216,.673,.333,1.39,.333,2.133,0,2.105-.934,3.996-2.41,5.281Z"/></svg>
