<?xml version="1.0" encoding="UTF-8"?>
<svg xmlns="http://www.w3.org/2000/svg" id="Layer_1" data-name="Layer 1" width="512" height="512" viewBox="0 0 24 24"><path d="M19.5,9.382c-.426-.853-1.283-1.382-2.236-1.382H6.736c-.953,0-1.81,.529-2.236,1.382l-2.286,4.572c-.794,1.588-1.214,3.366-1.214,5.143v2.903H3v2H7v-2h10v2h4v-2h2v-2.903c0-1.776-.42-3.555-1.214-5.143l-2.286-4.572ZM3.108,14.401l2.286-4.572c.256-.512,.77-.829,1.341-.829h10.528c.572,0,1.085,.317,1.341,.829l2.286,4.572c.098,.196,.19,.396,.276,.599H2.833c.086-.202,.177-.402,.276-.599Zm2.892,8.599h-2v-1h2v1Zm14,0h-2v-1h2v1Zm2-2H2v-1.903c0-1.047,.161-2.095,.469-3.097h2.531v2h1v-2h12v2h1v-2h2.531c.309,1.002,.469,2.05,.469,3.097v1.903Zm1.719-15.448l-.441,.896L12.662,1.228c-.414-.203-.91-.204-1.325,0L.722,6.448l-.441-.896L10.896,.331c.691-.34,1.516-.339,2.207,0l10.616,5.222Z"/></svg>
