<?xml version="1.0" encoding="UTF-8"?>
<svg xmlns="http://www.w3.org/2000/svg" id="Layer_1" data-name="Layer 1" viewBox="0 0 24 24" width="512" height="512"><path d="M20.615,13c-1.235,0-2.089,.382-2.612,.734-.506-2.078-2.267-8.531-5.599-13.105l-.386-.529-.409,.511c-3.523,4.404-5.214,10.854-5.711,13.046-.521-.329-1.331-.656-2.488-.656-1.375,0-3.41,1.395-3.41,4.389,0,3.646,2.804,6.611,6.25,6.611,2.578,0,4.796-1.659,5.75-4.021,.954,2.362,3.172,4.021,5.75,4.021,3.446,0,6.25-2.966,6.25-6.611,0-2.994-2.02-4.389-3.385-4.389ZM11.982,1.768c2.696,3.977,4.288,9.293,4.902,11.639-.511-.226-1.185-.406-2.039-.406-.93,0-2.166,.662-2.846,2.053-.679-1.391-1.916-2.053-2.846-2.053s-1.655,.224-2.185,.485c.561-2.317,2.11-7.782,5.013-11.717ZM6.25,23c-2.895,0-5.25-2.518-5.25-5.611,0-2.395,1.569-3.389,2.41-3.389,1.734,0,2.408,.87,2.433,.902l.373,.514,.415-.481c.033-.038,.827-.935,2.523-.935,.946,0,2.346,1.077,2.346,3.389,0,3.094-2.355,5.611-5.25,5.611Zm11.5,0c-2.895,0-5.25-2.518-5.25-5.611,0-2.312,1.399-3.389,2.346-3.389,1.739,0,2.483,.886,2.511,.92l.394,.493,.395-.494c.029-.037,.753-.919,2.471-.919,.832,0,2.385,.994,2.385,3.389,0,3.094-2.355,5.611-5.25,5.611Z"/></svg>
