<?xml version="1.0" encoding="UTF-8"?>
<svg xmlns="http://www.w3.org/2000/svg" id="Layer_1" data-name="Layer 1" viewBox="0 0 24 24" width="512" height="512"><path d="m20.5,0H4.5c-1.378,0-2.5,1.122-2.5,2.5v19c0,1.378,1.122,2.5,2.5,2.5h17.5V1.5c0-.827-.673-1.5-1.5-1.5ZM4.5,1h16c.276,0,.5.224.5.5v17.5H4.5c-.562,0-1.082.187-1.5.501V2.5c0-.827.673-1.5,1.5-1.5Zm0,22c-.827,0-1.5-.673-1.5-1.5s.673-1.5,1.5-1.5h16.5v3H4.5Zm9.644-9.152l1.373,2.746,1.373-2.746,2.746-1.373-2.746-1.373-1.373-2.746-1.373,2.746-2.746,1.373,2.746,1.373Zm.745-2l.627-1.254.627,1.254,1.254.627-1.254.627-.627,1.254-.627-1.254-1.254-.627,1.254-.627Zm-6.35-1.33l1.172-2.346,2.346-1.172-2.346-1.172-1.172-2.346-1.173,2.346-2.345,1.172,2.345,1.172,1.173,2.346Zm-.428-3.945l.428-.854.427.854.854.427-.854.427-.427.854-.428-.854-.854-.427.854-.427Z"/></svg>
