<?xml version="1.0" encoding="UTF-8"?>
<svg xmlns="http://www.w3.org/2000/svg" id="Layer_1" data-name="Layer 1" viewBox="0 0 24 24">
  <path d="m23.951,7.497L12,.115.048,7.497l11.952,7.382,11.951-7.382Zm-14.602,4.569l7.221-4.433,2.638,1.619-7.207,4.452-2.651-1.637Zm.793-5.392l3.039,1.865-4.785,2.937-3.029-1.871,4.775-2.932Zm3.995,1.278l-3.039-1.865,4.347-2.669,3.029,1.871-4.338,2.663Zm6.024.71l-2.635-1.617,1.902-1.168,2.621,1.619-1.888,1.166Zm-5.668-5.833l-7.111,4.365-2.478-1.521L12,1.291l2.492,1.539ZM3.95,6.262l2.475,1.52-2.012,1.235-2.462-1.521,1.998-1.234Zm8.05,13.563l12-7.454v1.175l-12,7.454L0,13.546v-1.175l12,7.454Zm12-10.454v1.175l-12,7.454L0,10.546v-1.175l12,7.454,12-7.454Zm-12,13.454l12-7.454v1.175l-12,7.454L0,16.546v-1.175l12,7.455Z"/>
</svg>
