<?xml version="1.0" encoding="UTF-8"?>
<svg xmlns="http://www.w3.org/2000/svg" id="Layer_1" data-name="Layer 1" viewBox="0 0 24 24">
  <path d="m12.542,10h-3.5v9h4.5c1.378,0,2.5-1.121,2.5-2.5,0-1.072-.679-1.989-1.629-2.344.391-.441.629-1.021.629-1.656,0-1.378-1.122-2.5-2.5-2.5Zm-2.5,1h2.5c.827,0,1.5.673,1.5,1.5s-.673,1.5-1.5,1.5h-2.5v-3Zm5,5.5c0,.827-.673,1.5-1.5,1.5h-3.5v-3h3.5c.827,0,1.5.673,1.5,1.5Zm6.949-3.5c.033.329.051.662.051,1,0,5.514-4.486,10-10,10S2.042,19.514,2.042,14c0-.338.018-.671.051-1h1.008c-.037.329-.059.662-.059,1,0,4.963,4.038,9,9,9s9-4.037,9-9c0-.338-.022-.671-.059-1h1.008Zm-12.831-5.736l.618.502,2.221-1.44,2.222,1.44.625-.48-.707-2.365,1.861-1.5v-.795h-2.683l-.92-2.626h-.794l-.92,2.626h-2.683v.795l1.861,1.5-.7,2.343Zm.687-3.638h1.544l.608-1.735.608,1.735h1.544l-1.164.938.449,1.502-1.438-.933-1.438.933.449-1.502-1.164-.938Zm-3.626,7.14l.625-.48-.707-2.365,1.861-1.5v-.795h-2.683l-.92-2.626h-.794l-.92,2.626H0v.795l1.861,1.5-.703,2.352.621.493,2.221-1.44,2.222,1.44ZM1.848,6.626h1.544l.608-1.735.608,1.735h1.544l-1.164.938.449,1.502-1.438-.933-1.438.933.449-1.502-1.164-.938Zm22.152-1h-2.683l-.92-2.626h-.794l-.92,2.626h-2.683v.795l1.861,1.5-.7,2.341.618.505,2.221-1.44,2.222,1.44.625-.48-.707-2.365,1.861-1.5v-.795Zm-3.011,1.938l.449,1.502-1.438-.933-1.438.933.449-1.502-1.164-.938h1.544l.608-1.735.608,1.735h1.544l-1.164.938Z"/>
</svg>
