<?xml version="1.0" encoding="UTF-8"?>
<svg xmlns="http://www.w3.org/2000/svg" id="Layer_1" data-name="Layer 1" viewBox="0 0 24 24">
  <path d="m21.5,1H2.5C1.122,1,0,2.122,0,3.5v19.5h24V3.5c0-1.378-1.122-2.5-2.5-2.5ZM2.5,2h19c.827,0,1.5.673,1.5,1.5v4.5H1V3.5c0-.827.673-1.5,1.5-1.5Zm-1.5,20v-13h22v13H1ZM3,5c0-.552.448-1,1-1s1,.448,1,1-.448,1-1,1-1-.448-1-1Zm3,0c0-.552.448-1,1-1s1,.448,1,1-.448,1-1,1-1-.448-1-1Zm3,0c0-.552.448-1,1-1s1,.448,1,1-.448,1-1,1-1-.448-1-1Zm-1.544,8h1.044l-.363,4.221c-.031.44-.337.779-.706.779-.244,0-.471-.151-.601-.4l-.831-1.6-.831,1.6c-.129.249-.356.4-.601.4-.368,0-.675-.339-.706-.779l-.363-4.221h1.042l.249,3.158,1.209-2.327,1.209,2.327.247-3.158Zm6,0h1.044l-.363,4.221c-.031.44-.337.779-.706.779-.244,0-.471-.151-.601-.4l-.831-1.6-.831,1.6c-.129.249-.356.4-.601.4-.368,0-.675-.339-.706-.779l-.363-4.221h1.042l.249,3.158,1.209-2.327,1.209,2.327.247-3.158Zm6,0h1.044l-.363,4.221c-.031.44-.337.779-.706.779-.244,0-.471-.151-.601-.4l-.831-1.6-.831,1.6c-.129.249-.356.4-.601.4-.368,0-.675-.339-.706-.779l-.363-4.221h1.042l.249,3.158,1.209-2.327,1.209,2.327.247-3.158Z"/>
</svg>
