<?xml version="1.0" encoding="UTF-8"?>
<svg xmlns="http://www.w3.org/2000/svg" id="Layer_1" data-name="Layer 1" viewBox="0 0 24 24">
  <path d="m21.36,22l-2-6h-6.86c-.827,0-1.5-.673-1.5-1.5v-2.5h8v-1h-8v-4.036c1.694-.243,3-1.704,3-3.464,0-1.93-1.57-3.5-3.5-3.5s-3.5,1.57-3.5,3.5c0,1.76,1.306,3.221,3,3.464v7.536c0,1.379,1.121,2.5,2.5,2.5h2.428c-.487,3.387-3.408,6-6.928,6-3.859,0-7-3.141-7-7s3.141-7,7-7v-1C3.589,8,0,11.589,0,16s3.589,8,8,8c4.073,0,7.444-3.059,7.938-7h2.702l2,6h3.36v-1h-2.64ZM8,3.5c0-1.379,1.121-2.5,2.5-2.5s2.5,1.121,2.5,2.5-1.121,2.5-2.5,2.5-2.5-1.121-2.5-2.5Z"/>
</svg>
