<?xml version="1.0" encoding="UTF-8"?>
<svg xmlns="http://www.w3.org/2000/svg" id="Layer_1" data-name="Layer 1" viewBox="0 0 24 24">
  <path d="m24,7.5V.035l-3.276,2.434c-1.393-.614-3.055-.614-4.447,0L13,.035v7.465c0,1.063.304,2.057.828,2.899-9.208,2.77-8.828,11.991-8.824,12.061v.356c-1.993-.456-4.004-1.756-4.004-3.816,0-1.708.79-2.981,1.554-4.213.711-1.146,1.446-2.333,1.446-3.787,0-2.767-1.233-4-4-4v1c2.215,0,3,.785,3,3,0,1.169-.601,2.139-1.296,3.26-.798,1.288-1.704,2.748-1.704,4.74,0,3.411,3.913,5,6.558,5h17.442v-1h-2v-11.26c1.221-1.01,2-2.535,2-4.24ZM14,2.023l2.171,1.613.276-.142c1.278-.655,2.826-.655,4.104,0l.276.142,2.171-1.613v5.477c0,2.481-2.019,4.5-4.5,4.5s-4.5-2.019-4.5-4.5V2.023Zm7,20.977h-3v-1c0-3.309-2.691-6-6-6v1c2.757,0,5,2.243,5,5v1H6.558c-.18,0-.365-.008-.553-.025v-.542c-.019-.36-.342-8.777,8.478-11.182,1.005,1.075,2.434,1.748,4.018,1.748.9,0,1.75-.217,2.5-.602v10.602Zm-1.5-16c0-.552.448-1,1-1s1,.448,1,1-.448,1-1,1-1-.448-1-1Zm-4,0c0-.552.448-1,1-1s1,.448,1,1-.448,1-1,1-1-.448-1-1Z"/>
</svg>
