<?xml version="1.0" encoding="UTF-8"?>
<svg xmlns="http://www.w3.org/2000/svg" id="Layer_1" data-name="Layer 1" viewBox="0 0 24 24" width="512" height="512"><path d="m2.408,21.603h0c0,.016,0,.008,0,0Zm20.368-8.829c-3.942,3.943-11.947,4.239-14.258,4.239-.349,0-.799-.015-.799-.015l-2.476,2.476c1.006.249,1.763,1.147,1.763,2.23,0,1.269-1.032,2.3-2.3,2.3s-2.298-1-2.298-2.401c0-.017,0-.009,0,0C1.101,21.638.006,20.606.006,19.304c0-1.269,1.032-2.3,2.3-2.3,1.081,0,1.99.75,2.235,1.758l2.474-2.474-.008-.17c-.019-.412-.433-10.142,3.919-14.533.096-.122.199-.239.31-.35,2.177-2.176,6.536-1.358,9.717,1.823,1.516,1.516,2.55,3.339,2.914,5.136.378,1.871-.009,3.498-1.091,4.58ZM3.499,19.803c.071-.165.107-.333.107-.5,0-.717-.583-1.3-1.3-1.3s-1.3.583-1.3,1.3c0,.884.93,1.563,1.8,1.193l.693-.693Zm.705.709l-.692.692c-.071.165-.107.333-.107.5,0,.717.583,1.3,1.3,1.3s1.3-.583,1.3-1.3c0-.884-.926-1.561-1.801-1.192Zm15.035-6.529c-2.009-.099-4.3-1.153-6.18-3.033-1.516-1.515-2.551-3.339-2.914-5.136-.082-.407-.128-.803-.139-1.184-2.08,4.161-2.044,10.241-2.014,11.377,1.143.015,7.006-.025,11.248-2.024Zm3.648-5.592c-.325-1.606-1.263-3.25-2.641-4.627-1.791-1.791-3.965-2.769-5.766-2.769-1.007,0-1.896.306-2.537.946-.837.837-1.128,2.143-.818,3.674.325,1.606,1.263,3.25,2.641,4.627,2.792,2.792,6.517,3.611,8.303,1.823.837-.837,1.128-2.142.818-3.674Zm-7.194-2.7c-.401.401-.138,1.313.587,2.038s1.637.988,2.038.587.138-1.313-.587-2.038c-.725-.725-1.637-.988-2.038-.587Z"/></svg>
