<?xml version="1.0" encoding="UTF-8"?>
<svg xmlns="http://www.w3.org/2000/svg" id="Layer_1" data-name="Layer 1" viewBox="0 0 24 24">
  <path d="m2.5,0C1.122,0,0,1.122,0,2.5s1.122,2.5,2.5,2.5,2.5-1.122,2.5-2.5S3.878,0,2.5,0Zm0,4c-.827,0-1.5-.673-1.5-1.5s.673-1.5,1.5-1.5,1.5.673,1.5,1.5-.673,1.5-1.5,1.5Zm0,2c-1.378,0-2.5,1.122-2.5,2.5v8.5h2v7h1v-7h2v-8.5c0-1.378-1.122-2.5-2.5-2.5Zm1.5,10H1v-7.5c0-.827.673-1.5,1.5-1.5s1.5.673,1.5,1.5v7.5ZM8.5,0c-1.378,0-2.5,1.122-2.5,2.5s1.122,2.5,2.5,2.5,2.5-1.122,2.5-2.5-1.122-2.5-2.5-2.5Zm0,4c-.827,0-1.5-.673-1.5-1.5s.673-1.5,1.5-1.5,1.5.673,1.5,1.5-.673,1.5-1.5,1.5Zm0,2c-1.378,0-2.5,1.122-2.5,2.5v8.5h2v7h1v-7h2v-8.5c0-1.378-1.122-2.5-2.5-2.5Zm1.5,10h-3v-7.5c0-.827.673-1.5,1.5-1.5s1.5.673,1.5,1.5v7.5ZM14.5,0c-1.378,0-2.5,1.122-2.5,2.5s1.122,2.5,2.5,2.5,2.5-1.122,2.5-2.5-1.122-2.5-2.5-2.5Zm0,4c-.827,0-1.5-.673-1.5-1.5s.673-1.5,1.5-1.5,1.5.673,1.5,1.5-.673,1.5-1.5,1.5Zm0,2c-1.378,0-2.5,1.122-2.5,2.5v8.5h2v7h1v-7h2v-8.5c0-1.378-1.122-2.5-2.5-2.5Zm1.5,10h-3v-7.5c0-.827.673-1.5,1.5-1.5s1.5.673,1.5,1.5v7.5Zm4.5-11c1.378,0,2.5-1.122,2.5-2.5s-1.122-2.5-2.5-2.5-2.5,1.122-2.5,2.5,1.122,2.5,2.5,2.5Zm0-4c.827,0,1.5.673,1.5,1.5s-.673,1.5-1.5,1.5-1.5-.673-1.5-1.5.673-1.5,1.5-1.5Zm0,5c-1.378,0-2.5,1.122-2.5,2.5v8.5h2v7h1v-7h2v-8.5c0-1.378-1.122-2.5-2.5-2.5Zm1.5,10h-3v-7.5c0-.827.673-1.5,1.5-1.5s1.5.673,1.5,1.5v7.5Z"/>
</svg>
