<?xml version="1.0" encoding="UTF-8"?>
<svg xmlns="http://www.w3.org/2000/svg" id="Layer_1" data-name="Layer 1" viewBox="0 0 24 24" width="512" height="512"><path d="m12,0C5.383,0,0,5.383,0,12s5.383,12,12,12,12-5.383,12-12S18.617,0,12,0Zm0,23c-6.065,0-11-4.935-11-11S5.935,1,12,1s11,4.935,11,11-4.935,11-11,11Zm7.521-15.949c-.677-1.029-1.542-1.895-2.572-2.571l-.417-.273-3.898,5.907c-.2-.068-.411-.113-.634-.113-.218,0-.424.044-.621.109l-3.912-5.903-.416.273c-1.03.677-1.896,1.542-2.572,2.571-.97,1.473-1.48,3.184-1.479,4.948v.498s7.074.012,7.074.012c.085.32.244.608.463.844-.437.664-2.707,4.086-3.624,5.468l-.276.418.418.275c1.473.972,3.183,1.485,4.945,1.485s3.473-.514,4.945-1.485l.417-.275-3.891-5.896c.214-.234.371-.518.455-.834l7.073-.012v-.498c.003-1.765-.508-3.476-1.478-4.948Zm-6.521,4.949c0,.552-.448,1-1,1s-1-.448-1-1,.448-1,1-1,1,.448,1,1Zm-7.686-4.4c.51-.775,1.14-1.445,1.878-1.998l3.344,5.046c-.222.241-.384.534-.468.861l-6.054-.01c.085-1.391.529-2.729,1.3-3.899Zm2.718,11.344c2.143-3.231,2.988-4.507,3.311-5.063.207.073.426.12.657.12.223,0,.433-.045.633-.112l3.336,5.055c-2.414,1.387-5.522,1.386-7.937,0Zm5.9-7.434c-.082-.323-.242-.613-.46-.852l3.337-5.055c.737.552,1.367,1.223,1.877,1.997.771,1.171,1.215,2.509,1.3,3.899l-6.054.01Z"/></svg>
