<?xml version="1.0" encoding="UTF-8"?>
<svg xmlns="http://www.w3.org/2000/svg" id="Layer_1" data-name="Layer 1" viewBox="0 0 24 24" width="512" height="512"><path d="m18.768,20c-2.656,0-4.933-1.801-6.246-4.941l-1.923-5.822c-1.122-2.679-3.073-4.237-5.338-4.237-2.389,0-4.26,1.851-4.26,4.214v5.786H0v-5.786c0-2.924,2.311-5.214,5.26-5.214,2.688,0,4.976,1.781,6.274,4.887l1.923,5.822c1.136,2.713,3.076,4.291,5.31,4.291,2.373,0,4.232-1.851,4.232-4.214v-5.786h1v5.786c0,2.924-2.299,5.214-5.232,5.214Z"/></svg>
