<?xml version="1.0" encoding="UTF-8"?>
<svg xmlns="http://www.w3.org/2000/svg" id="Layer_1" data-name="Layer 1" viewBox="0 0 24 24" width="512" height="512"><path d="M21.5,0H2.5C1.12,0,0,1.12,0,2.5v6.5H5.35l.87-1h-1.4L11.82,1h3.59l-2.23,2.23c.33,.12,.63,.29,.9,.51l2.74-2.74h3.59l-4.61,4.61,.66,.76L21.79,1.03c.69,.14,1.21,.74,1.21,1.47v.91l-4.59,4.59h-.63l.86,1h5.36V2.5c0-1.38-1.12-2.5-2.5-2.5ZM2.5,1h2.91L1,5.41V2.5c0-.83,.67-1.5,1.5-1.5Zm.91,7H1v-1.18L6.82,1h3.59L3.41,8Zm16.41,0l3.18-3.18v3.18h-3.18Zm-7.32,1h3.58l-3.08-3.56c-.25-.28-.61-.44-.99-.44h0c-.38,0-.74,.16-1,.45l-3.1,3.55h3.58v6H0v6.5c0,1.38,1.12,2.5,2.5,2.5H21.5c1.38,0,2.5-1.12,2.5-2.5v-6.5H12.5v-6Zm-2.39-1l1.65-1.89c.09-.1,.19-.11,.25-.11s.16,.01,.24,.1l1.64,1.9h-3.78Zm12.89,8v5.5c0,.83-.67,1.5-1.5,1.5H2.5c-.83,0-1.5-.67-1.5-1.5v-5.5H23Z"/></svg>
