<?xml version="1.0" encoding="UTF-8"?>
<svg xmlns="http://www.w3.org/2000/svg" id="Layer_1" data-name="Layer 1" viewBox="0 0 24 24" width="512" height="512"><path d="M24,21.5v2.5h-7v-1h6v-1.5c0-.864-.621-1.481-1.511-1.5h-4.766c-.126-.353-.28-.693-.485-1h4.762V10h-5v8.706c-.288-.36-.616-.687-1-.945v-7.762h-1v-3h1v2h3v-2h1v2h3v-2h1v3h-1v9.054c1.183,.23,2,1.194,2,2.446Zm-9,0v2.5H0v-2.5c0-1.245,.916-2.271,2.108-2.46,.37-1.368,1.773-6.824,1.88-11.04h-.988v-1h.694l-1.586-3.201c-.164-.452-.103-.895,.141-1.239s.64-.55,1.062-.55h3.69V0h1V2.01h3.708c.422,0,.819,.206,1.062,.55s.304,.787,.163,1.184l-1.61,3.256h.677v1h-.988c.111,4.202,1.511,9.668,1.88,11.04,1.191,.19,2.108,1.216,2.108,2.46ZM4.81,7h5.397l1.807-3.646c.024-.077-.034-.18-.061-.218s-.105-.127-.245-.127H3.31c-.14,0-.218,.089-.245,.127s-.084,.141-.038,.273l1.783,3.59Zm.178,1c-.098,4.123-1.363,9.233-1.834,11H11.846c-.469-1.768-1.732-6.888-1.834-11H4.989Zm9.011,13.5c0-.827-.673-1.5-1.5-1.5H2.5c-.827,0-1.5,.673-1.5,1.5v1.5H14v-1.5Z"/></svg>
