<?xml version="1.0" encoding="UTF-8"?>
<svg xmlns="http://www.w3.org/2000/svg" id="Layer_1" data-name="Layer 1" viewBox="0 0 24 24" width="512" height="512"><path d="M21.5,8h-2.076L20.039,.005l-.553-.005c-.862,0-1.576,.598-2.15,1.078-.472,.396-1.091,.914-1.586,.922-.495-.008-1.114-.526-1.586-.922-.574-.48-1.324-1.078-2.178-1.078-.862,0-1.576,.598-2.15,1.078-.474,.397-1.094,.917-1.581,.922-.497-.005-1.117-.524-1.591-.922-.574-.48-1.288-1.078-2.15-1.078l-.553,.005,.615,7.995H2.5c-1.379,0-2.5,1.121-2.5,2.5v13.5H24V10.5c0-1.379-1.121-2.5-2.5-2.5ZM6.021,1.845c.572,.479,1.369,1.146,2.233,1.155,.854-.009,1.651-.676,2.224-1.155,.473-.396,1.009-.845,1.519-.845h.008c.511-.052,1.041,.446,1.517,.845,.572,.479,1.369,1.146,2.224,1.155,.854-.009,1.661-.676,2.233-1.155,.306-.256,.639-.534,.971-.699l-.912,11.854h-2.997l.376-4.962-.998-.076-.382,5.038h-4.074l-.547-7.039-.996,.078,.541,6.961h-2.997L5.051,1.146c.332,.165,.665,.443,.971,.699ZM23,23H1v-4H23v4Zm0-5H1v-7.5c0-.827,.673-1.5,1.5-1.5h2.153l.384,5h13.926l.384-5h2.153c.827,0,1.5,.673,1.5,1.5v7.5Z"/></svg>
