<?xml version="1.0" encoding="UTF-8"?>
<svg xmlns="http://www.w3.org/2000/svg" id="Layer_1" data-name="Layer 1" viewBox="0 0 24 24">
  <path d="m21.5,13h-10c-1.378,0-2.5,1.121-2.5,2.5v8.5h15v-8.5c0-1.379-1.121-2.5-2.5-2.5Zm1.5,10h-13v-7.5c0-.827.673-1.5,1.5-1.5h10c.827,0,1.5.673,1.5,1.5v7.5Zm-7-6v.5h-1v-.5c0-.552-.448-1-1-1s-1,.448-1,1v3c0,.552.448,1,1,1s1-.448,1-1v-.5h1v.5c0,1.103-.897,2-2,2s-2-.897-2-2v-3c0-1.103.897-2,2-2s2,.897,2,2Zm-2-11c0-3.309-2.691-6-6-6S2,2.691,2,6s2.691,6,6,6,6-2.691,6-6Zm-6,5c-2.757,0-5-2.243-5-5S5.243,1,8,1s5,2.243,5,5-2.243,5-5,5Zm-4,3h3v1h-3c-1.654,0-3,1.346-3,3v6H0v-6c0-2.206,1.794-4,4-4Zm16.406,1.257h1.002l-1.152,5.631c-.086.444-.408,1.111-1.216,1.111s-1.141-.704-1.216-1.097l-1.227-5.646h1.034l1.172,5.445c.024.127.084.227.159.272.049.032.094.034.144.007.063-.032.138-.133.168-.289l1.131-5.436Z"/>
</svg>
