<?xml version="1.0" encoding="UTF-8"?>
<svg xmlns="http://www.w3.org/2000/svg" id="Layer_1" data-name="Layer 1" viewBox="0 0 24 24">
  <path d="m23.5,9c-2.529,0-4.878.82-6.815,2.218-.181-3.354-1.701-6.607-4.331-9.238l-.354-.354-.354.354c-2.631,2.63-4.15,5.884-4.331,9.238-1.937-1.397-4.286-2.218-6.815-2.218h-.5v.5c0,6.718,5.114,12.214,11.5,12.488v.012h1v-.012c6.386-.274,11.5-5.77,11.5-12.488v-.5h-.5Zm-15.203,2.996c-.027-3.206,1.284-6.363,3.703-8.943,2.419,2.58,3.73,5.738,3.703,8.943h.012c-1.736,1.545-3.045,3.597-3.715,5.932-.67-2.336-1.979-4.387-3.715-5.932h.012Zm-7.286-1.984c5.667.272,10.229,5.048,10.479,10.976-5.667-.272-10.229-5.048-10.479-10.976Zm11.5,10.976c.25-5.928,4.811-10.704,10.479-10.976-.25,5.928-4.811,10.704-10.479,10.976Z"/>
</svg>
