<?xml version="1.0" encoding="UTF-8"?>
<svg xmlns="http://www.w3.org/2000/svg" id="Layer_1" data-name="Layer 1" viewBox="0 0 24 24" width="512" height="512"><path d="M22.859,6.65c.736-.736,1.141-1.714,1.141-2.754s-.405-2.019-1.141-2.754c-1.471-1.472-4.037-1.472-5.509,0l-3.176,3.176c-1.834,1.834-3.448,3.872-4.796,6.056-.956,1.546-2.175,2.986-2.719,3.53L1.635,18.928l-.9-.9L.027,18.734l5.238,5.238,.707-.707-.862-.862,4.947-4.947c.59-.59,2.229-1.927,3.772-2.904,2.037-1.289,3.957-2.831,5.707-4.581l3.321-3.321Zm-13.508,10.1l-4.947,4.947-2.062-2.062,5.024-5.024c.217-.216,.519-.549,.865-.961l2.17,2.17c-.436,.359-.802,.684-1.049,.931Zm3.944-3.042c-.7,.443-1.441,.973-2.107,1.485l-2.328-2.328c.454-.589,.934-1.264,1.368-1.966,1.308-2.118,2.873-4.094,4.653-5.874l3.176-3.176c1.094-1.094,3.001-1.094,4.095,0,.547,.547,.848,1.274,.848,2.047s-.301,1.5-.848,2.047l-3.321,3.321c-1.698,1.698-3.561,3.193-5.535,4.443Zm7.705,4.292c-1.654,0-3,1.346-3,3s1.346,3,3,3,3-1.346,3-3-1.346-3-3-3Zm0,5c-1.103,0-2-.897-2-2s.897-2,2-2,2,.897,2,2-.897,2-2,2Z"/></svg>
