<?xml version="1.0" encoding="UTF-8"?>
<svg xmlns="http://www.w3.org/2000/svg" id="Layer_1" data-name="Layer 1" viewBox="0 0 24 24">
  <path d="m13,6c-2.757,0-5,2.243-5,5s2.243,5,5,5c1.198,0,2.284-.441,3.146-1.146l4.5,4.5.707-.707-4.5-4.5c.705-.862,1.146-1.948,1.146-3.146,0-2.757-2.243-5-5-5Zm0,9c-2.206,0-4-1.794-4-4s1.794-4,4-4,4,1.794,4,4-1.794,4-4,4Zm9.407,1.872l-.731-.731c1.136-1.979,1.578-4.376,1.197-6.8h0c-.64-4.063-3.629-7.243-7.616-8.102-3.911-.844-7.808.601-10.175,3.762-.993,1.229-2.023,3.705-3.021,6.101-.354.852-.708,1.702-1.062,2.504v.395h2.217l.953,4.792c.14.7.759,1.208,1.472,1.208h3.358v3h11v-1.465l1,1v1.465h-13v-3h-2.358c-1.188,0-2.22-.847-2.452-2.013l-.793-3.987H0l.043-1.703c.365-.823.73-1.701,1.096-2.579,1.07-2.574,2.082-5.006,3.154-6.331C6.887.923,11.17-.659,15.468.261c4.395.947,7.688,4.45,8.394,8.924h0s0,0,0,0c.431,2.745-.103,5.467-1.454,7.687Z"/>
</svg>
