<?xml version="1.0" encoding="UTF-8"?>
<svg xmlns="http://www.w3.org/2000/svg" id="Layer_1" data-name="Layer 1" viewBox="0 0 24 24" width="512" height="512"><path d="M19.419,14.018L23.997,0h-3.206c-1.108,0-2.069,.712-2.392,1.771l-2.818,9.037c-.518,1.705-1.954,2.911-3.677,3.148-1.617-.469-2.686-1.527-3.184-3.167L5.611,1.774c-.322-1.061-1.283-1.774-2.392-1.774H.024L4.36,14.037C2.018,14.312,.228,16.084,.002,18.453c-.135,1.418,.339,2.839,1.301,3.897,.954,1.048,2.301,1.65,3.696,1.65h4.577c.846,0,1.665-.113,2.442-.329,.807,.218,1.641,.329,2.481,.329h4.5c2.757,0,5-2.243,5-5,0-2.616-2.02-4.769-4.581-4.982ZM3.219,1c.665,0,1.242,.428,1.441,1.082l3.109,9.016c.373,1.229,1.044,2.207,1.977,2.902H5.395L1.38,1h1.839Zm1.781,22c-1.114,0-2.192-.482-2.957-1.323-.773-.851-1.154-1.991-1.046-3.13,.196-2.056,1.879-3.547,4.002-3.547h6.275c.188,0,.608-.033,.608-.033,2.177-.236,4.005-1.731,4.654-3.865l2.818-9.038c.193-.636,.771-1.064,1.436-1.064h1.827l-5.216,15.97c-1.112,3.663-4.184,6.03-7.825,6.03H5Zm14,0h-4.5c-.239,0-.479-.01-.716-.03,2.138-1.13,3.793-3.13,4.573-5.7l.741-2.269c2.161,.052,3.903,1.826,3.903,3.999,0,2.206-1.794,4-4,4Z"/></svg>
