<?xml version="1.0" encoding="UTF-8"?>
<svg xmlns="http://www.w3.org/2000/svg" id="Layer_1" data-name="Layer 1" viewBox="0 0 24 24" width="512" height="512"><path d="M21.5,24H2.5c-1.379,0-2.5-1.121-2.5-2.5V0H4.917l1.984,10.914,6.099-5.544v5.111l6-5.057v4.929l5-5.073V21.5c0,1.379-1.121,2.5-2.5,2.5ZM1,1V21.5c0,.827,.673,1.5,1.5,1.5H21.5c.827,0,1.5-.673,1.5-1.5V7.72l-4.219,4.28h-.781V7.575l-5.25,4.425h-.75V7.63l-4.807,4.37h-1.11L4.083,1H1ZM9,20H5v-4h4v4Zm-3-1h2v-2h-2v2Zm9,1h-4v-4h4v4Zm-3-1h2v-2h-2v2Zm9,1h-4v-4h4v4Zm-3-1h2v-2h-2v2Z"/></svg>
