<?xml version="1.0" encoding="UTF-8"?>
<svg xmlns="http://www.w3.org/2000/svg" id="Layer_1" data-name="Layer 1" viewBox="0 0 24 24" width="512" height="512"><path d="M19.865,4.078l-7.365-1.907V0h-1V1.912L4.209,.023,.04,9.804l-.011,.196h-.029v.5c0,2.481,2.019,4.5,4.5,4.5s4.5-2.019,4.5-4.5v-.5L5.407,1.367l6.093,1.578V23H4v1H20v-1h-7.5V3.203l6.315,1.635-3.776,8.967-.011,.194h-.028v.5c0,2.481,2.019,4.5,4.5,4.5s4.5-2.019,4.5-4.5v-.5l-4.135-9.922ZM4.5,14c-1.76,0-3.221-1.306-3.464-3H7.964c-.243,1.694-1.704,3-3.464,3ZM1.044,10L4.523,1.836l3.435,8.164H1.044ZM19.5,5.788l3.457,8.212h-6.915l3.458-8.212Zm0,12.212c-1.76,0-3.221-1.306-3.464-3h6.929c-.243,1.694-1.704,3-3.464,3Z"/></svg>
