<?xml version="1.0" encoding="UTF-8"?>
<svg xmlns="http://www.w3.org/2000/svg" id="Layer_1" data-name="Layer 1" viewBox="0 0 24 24" width="512" height="512"><path d="M21.92,11c.69-.87,1.08-1.97,1.08-3.14,0-2.6-1.94-4.73-4.36-4.86,.18-.11,.35-.23,.51-.39C20.12,1.64,20,0,20,0c0,0-1.64-.12-2.61,.85-.3,.3-.5,.66-.63,1.03-.23-.78-.62-1.49-.82-1.86l-.88,.48c.25,.45,.79,1.43,.91,2.5h-1.38c-.93,0-1.83,.3-2.59,.85-.68-.49-1.49-.8-2.36-.84,.18-.11,.35-.23,.51-.39C11.12,1.64,11,0,11,0c0,0-1.64-.12-2.61,.85-.3,.3-.5,.67-.63,1.04-.23-.79-.62-1.5-.82-1.87l-.88,.48c.25,.46,.78,1.43,.92,2.49h-1.38C3.06,3,1,5.18,1,7.86c0,1.16,.4,2.27,1.09,3.14H0v10.5c0,1.38,1.12,2.5,2.5,2.5H21.5c1.38,0,2.5-1.12,2.5-2.5V11h-2.08Zm-7.33-7h3.82c1.98,0,3.59,1.73,3.59,3.86,0,1.25-.56,2.41-1.49,3.14h-7.59c.69-.87,1.08-1.97,1.08-3.14,0-1.28-.47-2.45-1.24-3.32,.55-.35,1.19-.54,1.83-.54ZM2,7.86c0-2.13,1.61-3.86,3.59-3.86h3.82c1.98,0,3.59,1.73,3.59,3.86,0,1.25-.56,2.41-1.49,3.14H3.49c-.93-.72-1.49-1.89-1.49-3.14Zm21,13.64c0,.83-.67,1.5-1.5,1.5H2.5c-.83,0-1.5-.67-1.5-1.5v-1.5H20.5v-1H1v-3H20.5v-1H1v-3H23v9.5Z"/></svg>
