<?xml version="1.0" encoding="UTF-8"?>
<svg xmlns="http://www.w3.org/2000/svg" id="Layer_1" data-name="Layer 1" viewBox="0 0 24 24">
  <path d="m14,12.419v-5.419H3v5.419c0,1.98-.373,3.918-1.109,5.757L.036,22.814l-.036,1.186h17v-1l-1.892-4.824c-.735-1.841-1.108-3.777-1.108-5.757Zm-10-4.419h9v4.419c0,.53.026,1.057.076,1.581H3.924c.05-.523.076-1.051.076-1.581v-4.419Zm-2.961,15l1.781-4.453c.46-1.149.77-2.338.961-3.547h9.438c.192,1.209.502,2.397.961,3.547l1.781,4.453H1.039Zm21.07-4.824l1.892,4.824v1h-5v-1h3.962l-1.781-4.453c-.46-1.15-.77-2.338-.961-3.547h-4.219v-1h4.076c-.05-.524-.076-1.051-.076-1.581v-4.419h-4v-1h5v5.419c0,1.979.373,3.916,1.108,5.757Zm-6.108-13.176h-1v-2c0-1.654,1.346-3,3-3,.549,0,1.078.151,1.549.44.397-.167,1.166-.44,1.951-.44,1.379,0,2.5,1.121,2.5,2.5s-1.121,2.5-2.5,2.5h-.5v-1h.5c.827,0,1.5-.673,1.5-1.5s-.673-1.5-1.5-1.5c-.862,0-1.764.452-1.772.457l-.279.142-.25-.188c-.354-.269-.769-.41-1.198-.41-1.103,0-2,.897-2,2v2Zm-10,0h-1v-1.75c0-1.792,1.458-3.25,3.25-3.25.656,0,1.296.204,1.839.582.573-.382,1.227-.582,1.911-.582.625,0,1.205.178,1.713.467-.169.285-.308.587-.418.905-.379-.231-.819-.372-1.295-.372-.581,0-1.134.206-1.598.595l-.333.279-.323-.29c-.419-.377-.951-.584-1.497-.584-1.241,0-2.25,1.01-2.25,2.25v1.75Z"/>
</svg>
