<?xml version="1.0" encoding="UTF-8"?>
<svg xmlns="http://www.w3.org/2000/svg" id="Layer_1" data-name="Layer 1" viewBox="0 0 24 24">
  <path d="m22.999,20.208l-3.443,3.357c-.289.29-.671.435-1.054.435-.385,0-.77-.146-1.062-.439l-3.455-3.455.707-.707,3.309,3.309V0h1v22.711l3.302-3.219.697.716ZM12,5v16c0,1.71-2.579,3-6,3s-6-1.29-6-3V5c0-1.71,2.579-3,6-3s6,1.29,6,3Zm-1,16v-2.297c-1.057.794-2.864,1.297-5,1.297s-3.943-.503-5-1.297v2.297c0,.944,2.139,2,5,2s5-1.056,5-2Zm0-4v-2.297c-1.057.794-2.864,1.297-5,1.297s-3.943-.503-5-1.297v2.297c0,.944,2.139,2,5,2s5-1.056,5-2Zm0-4v-2.297c-1.057.794-2.864,1.297-5,1.297s-3.943-.503-5-1.297v2.297c0,.944,2.139,2,5,2s5-1.056,5-2Zm0-4v-2.297c-1.057.794-2.864,1.297-5,1.297s-3.943-.503-5-1.297v2.297c0,.944,2.139,2,5,2s5-1.056,5-2Zm0-4c0-.944-2.139-2-5-2S1,4.056,1,5s2.139,2,5,2,5-1.056,5-2Z"/>
</svg>
