<?xml version="1.0" encoding="UTF-8"?>
<svg xmlns="http://www.w3.org/2000/svg" id="Layer_1" data-name="Layer 1" viewBox="0 0 24 24">
  <path d="m17.235,14.291l-1.967-4.267h2.36l1.78,3.861.908-.418-2.048-4.443h-5.129c-.872,0-1.692.464-2.142,1.211l-2.28,3.787-4.215-.022-.006,1,4.785.026,2.315-3.845,2.668,6.177-3.264,1.85v4.791h1v-4.209l4.267-2.419c1.028-.65,1.438-1.938.968-3.081Zm-1.482,2.224l-.614.348-2.837-6.568c.246-.167.533-.27.838-.27h1.028l2.151,4.666c.277.674.031,1.446-.565,1.824Zm.747-15.515H3.5c-.827,0-1.5.673-1.5,1.5l-.002,21.5H.998l.002-21.5C1,1.121,2.122,0,3.5,0h13c1.378,0,2.5,1.121,2.5,2.5v4.5h-1V2.5c0-.827-.673-1.5-1.5-1.5Zm6.5,18v1h-5.402l-.376-.872.115-.065c.283-.179.531-.393.76-.621l.242.559h4.661ZM9,5.5c0,1.379,1.122,2.5,2.5,2.5s2.5-1.121,2.5-2.5-1.122-2.5-2.5-2.5-2.5,1.121-2.5,2.5Zm4,0c0,.827-.673,1.5-1.5,1.5s-1.5-.673-1.5-1.5.673-1.5,1.5-1.5,1.5.673,1.5,1.5Z"/>
</svg>
