<?xml version="1.0" encoding="UTF-8"?>
<svg xmlns="http://www.w3.org/2000/svg" id="Layer_1" data-name="Layer 1" viewBox="0 0 24 24">
  <path d="m22,17h-4.5c-.364,0-.706.098-1,.269v-5.269c0-1.103-.897-2-2-2h-5c-1.103,0-2,.897-2,2v2.269c-.294-.171-.636-.269-1-.269H2c-1.103,0-2,.897-2,2v8h24v-5c0-1.103-.897-2-2-2Zm-13.5-5c0-.552.449-1,1-1h5c.551,0,1,.448,1,1v11h-7v-11Zm-7.5,4c0-.552.449-1,1-1h4.5c.551,0,1,.448,1,1v7H1v-7Zm22,7h-6.5v-4c0-.552.449-1,1-1h4.5c.551,0,1,.448,1,1v4ZM10.36,3.348l-.72-.695,2.561-2.652h.799v8h-1V1.647l-1.64,1.7Zm-4.36,8.652H0v-.5c0-1.354,1.264-2.063,2.487-2.749,1.292-.726,2.513-1.41,2.513-2.751,0-1.103-.897-2-2-2s-2,.897-2,2H0c0-1.654,1.346-3,3-3s3,1.346,3,3c0,1.926-1.677,2.867-3.024,3.623-.813.456-1.542.865-1.836,1.377h4.86v1Zm15.5,3h-3.5v-1h3.5c.827,0,1.5-.673,1.5-1.5s-.673-1.5-1.5-1.5h-2v-1h1.282c.827,0,1.5-.673,1.5-1.5s-.673-1.5-1.5-1.5h-2.782v-1h2.782c1.378,0,2.5,1.121,2.5,2.5,0,.677-.271,1.292-.709,1.742.843.402,1.427,1.263,1.427,2.258,0,1.379-1.122,2.5-2.5,2.5Z"/>
</svg>
