<?xml version="1.0" encoding="UTF-8"?>
<svg xmlns="http://www.w3.org/2000/svg" id="Layer_1" data-name="Layer 1" viewBox="0 0 24 24" width="512" height="512"><path d="M10.111,9.077l.711,.703c-.996,1.007-2.067,1.249-2.866,1.249-.093,0-.181-.004-.266-.01-.991-.065-1.968-.507-2.678-1.209l.703-.711c.542,.536,1.286,.872,2.041,.923,.614,.036,1.509-.091,2.354-.945Zm3.862-.021l-.711,.703c.995,1.008,2.067,1.249,2.864,1.249,.091,0,.179-.003,.262-.009,.99-.065,1.965-.505,2.675-1.206l-.703-.711c-.541,.534-1.283,.869-2.038,.919-.602,.037-1.506-.091-2.349-.945Zm7.526,2.943c-.686,0-1.325,.271-1.801,.766l.721,.693c.285-.296,.669-.459,1.08-.459,.827,0,1.5,.673,1.5,1.5s-.673,1.5-1.5,1.5h-7.027c.325-.318,.527-.761,.527-1.25,0-.965-.785-1.75-1.75-1.75h-3.25v1h3.25c.413,0,.75,.337,.75,.75s-.337,.75-.75,.75h-1.25v1h1.25c.413,0,.75,.337,.75,.75s-.337,.75-.75,.75h-3.25v1h3.25c.965,0,1.75-.785,1.75-1.75,0-.085-.006-.168-.018-.25h6.518c1.379,0,2.5-1.121,2.5-2.5s-1.121-2.5-2.5-2.5ZM1.054,9L.042,.042,9,1.054v.446c0,3.294-4.206,7.5-7.5,7.5h-.446Zm.123-7.823l.767,6.792c2.529-.345,5.681-3.496,6.025-6.025L1.177,1.177ZM22.833,10.157c.385,.102,.746,.255,1.08,.453C23.221,4.646,18.146,0,12,0c-.344,0-.683,.023-1.02,.052V1.052c.336-.031,.675-.052,1.02-.052,5.436,0,9.952,3.968,10.833,9.157Zm-1.916,8.259c-1.999,2.771-5.247,4.584-8.917,4.584-6.065,0-11-4.935-11-11,0-.344,.021-.683,.052-1.02H.052c-.029,.337-.052,.675-.052,1.02,0,6.617,5.383,12,12,12,4.236,0,7.957-2.211,10.094-5.535-.115,.009-.226,.035-.344,.035-.285,0-.564-.03-.833-.084Z"/></svg>
