<?xml version="1.0" encoding="UTF-8"?>
<svg xmlns="http://www.w3.org/2000/svg" id="Layer_1" data-name="Layer 1" viewBox="0 0 24 24" width="512" height="512"><path d="m5.994,9.007c0,3.309,2.691,6,6,6s6-2.691,6-6v-2.75l2-1.5v-2.619L13.838.239l-.026-.008c-1.189-.297-2.447-.299-3.664.008l-6.154,1.899v2.619l2,1.5v2.75Zm6,5c-2.757,0-5-2.243-5-5v-.721c.848.315,2.437.721,5,.721s4.152-.406,5-.721v.721c0,2.757-2.243,5-5,5ZM4.994,4.257v-1.381l5.423-1.675c1.027-.258,2.113-.259,3.14-.004l5.438,1.679v1.381l-2,1.5v1.448c-.538.247-2.07.802-5,.802s-4.466-.556-5-.802v-1.448l-2-1.5Zm7,1.833l-3.271-1.963.514-.857,2.758,1.654,2.758-1.654.514.857-3.271,1.963Zm4,9.901h-2.283l-1.717,2.861-1.717-2.861h-2.271c-2.757,0-5,2.243-5,5v3h1v-3c0-2.206,1.794-4,4-4h1.704l1.236,2.06-1.646,4.94h5.387l-1.646-4.94,1.236-2.06h1.717c2.206,0,4,1.794,4,4v3h1v-3c0-2.757-2.243-5-5-5Zm-2.693,7h-2.613l1.307-3.919,1.307,3.919Z"/></svg>
