<?xml version="1.0" encoding="UTF-8"?>
<svg xmlns="http://www.w3.org/2000/svg" id="Layer_1" data-name="Layer 1" viewBox="0 0 24 24" width="512" height="512"><path d="M17.015,5L12-.015,6.985,5l5.015,5.015,5.015-5.015ZM12,1.399l3.601,3.601-3.601,3.601-3.601-3.601,3.601-3.601Zm12,4.101v13.231c0,.618-.229,1.214-.645,1.676l-3.197,3.593h-1.344l3.799-4.263c.25-.277,.387-.635,.387-1.006V5.5c0-.827-.673-1.5-1.5-1.5s-1.5,.673-1.5,1.5V14.5h-.004c0,.57-.193,1.14-.58,1.601l-3.099,3.206-.719-.695,3.075-3.179c.219-.262,.326-.579,.326-.981s-.139-.682-.382-.953c-.267-.297-.634-.474-1.032-.496-.39-.014-.782,.113-1.08,.38l-3.849,3.541c.222,.38,.343,.815,.343,1.262v5.814h-1v-5.814c0-.418-.177-.821-.484-1.104l-4.026-3.704c-.292-.263-.677-.39-1.075-.375-.398,.022-.766,.198-1.032,.496-.494,.551-.508,1.394-.032,1.96l3.052,3.153-.719,.695-3.075-3.179c-.399-.474-.597-1.052-.6-1.627h-.007V5.5c0-.827-.673-1.5-1.5-1.5s-1.5,.673-1.5,1.5v13.231c0,.371,.137,.729,.387,1.006l3.799,4.263h-1.344l-3.197-3.593c-.416-.462-.645-1.058-.645-1.676V5.5c0-1.378,1.121-2.5,2.5-2.5s2.5,1.122,2.5,2.5v6.998c.931-.699,2.26-.667,3.162,.139l3.838,3.531,3.833-3.527c.502-.45,1.14-.681,1.808-.637,.5,.027,.969,.199,1.359,.493V5.5c0-1.378,1.121-2.5,2.5-2.5s2.5,1.122,2.5,2.5Z"/></svg>
