<?xml version="1.0" encoding="UTF-8"?>
<svg xmlns="http://www.w3.org/2000/svg" id="Layer_1" data-name="Layer 1" viewBox="0 0 24 24" width="512" height="512"><path d="M19.025,2.732c-.943-.944-2.589-.947-3.538,.003l-4.196,4.265H2.5c-.734,0-1.429,.321-1.905,.881S-.085,9.182,.034,9.917c.194,1.188,1.3,2.083,2.573,2.083h6.483l2,10h12.91V7.707l-4.975-4.975Zm3.975,18.268H11.91l-2-10H2.607c-.789,0-1.471-.535-1.586-1.244-.073-.451,.046-.886,.336-1.227,.286-.336,.703-.529,1.143-.529h14.5v-1h-4.307l3.503-3.561c.566-.566,1.555-.566,2.121,0l4.682,4.682v12.879Z"/></svg>
