<?xml version="1.0" encoding="UTF-8"?>
<svg xmlns="http://www.w3.org/2000/svg" id="Layer_1" data-name="Layer 1" viewBox="0 0 24 24">
  <path d="m22.118,5c-.499,0-.948-.277-1.171-.724-.394-.787-1.186-1.276-2.065-1.276h-.882V0h-.5c-1.378,0-2.5,1.122-2.5,2.5v1.756l-1.351,3.744-8.152.004c-.935,0-1.814.364-2.475,1.025-.031.031-.061.062-.09.094-.574-.403-1.935-1.622-1.935-4.124H-.003C-.003,7.951,1.61,9.421,2.362,9.945c-.239.479-.365,1.01-.365,1.56l.003,12.499h4.997v-6.005l7.003-.003v6.004h5.003l-.008-5.91,1.306-7.09h1.199c1.378,0,2.5-1.122,2.5-2.5v-3.5h-1.882Zm.882,3.5c0,.827-.673,1.5-1.5,1.5h-2.032l-1.465,8v5h-3.003v-6.005l-9.003.005v6.004h-2.997l-.003-11.499c0-.668.26-1.296.732-1.769.472-.472,1.1-.732,1.769-.732l8.854-.004,1.619-4.487.03-2.013c0-.652.418-1.208,1-1.415v2.915h1.882c.499,0,.948.277,1.171.724.394.787,1.186,1.276,2.065,1.276h.882v2.5Z"/>
</svg>
