<?xml version="1.0" encoding="UTF-8"?>
<svg xmlns="http://www.w3.org/2000/svg" id="Layer_1" data-name="Layer 1" viewBox="0 0 24 24">
  <path d="m15.121,24c-1.092,0-2.115-.53-2.808-1.453l-.313-.417-.313.418c-.692.923-1.716,1.453-2.808,1.453-2.139,0-3.879-1.682-3.879-3.75,0-.562.23-1.194.571-1.821-.627.34-1.259.571-1.821.571-2.068,0-3.75-1.74-3.75-3.879,0-1.092.53-2.115,1.453-2.808l.417-.313-.418-.313c-.923-.692-1.453-1.716-1.453-2.808,0-2.139,1.682-3.879,3.75-3.879.562,0,1.194.23,1.821.571-.34-.627-.571-1.259-.571-1.821,0-2.068,1.74-3.75,3.879-3.75,1.092,0,2.115.53,2.808,1.453l.313.417.313-.418c.692-.923,1.716-1.453,2.808-1.453,2.139,0,3.879,1.682,3.879,3.75,0,.562-.23,1.194-.571,1.821.627-.34,1.259-.571,1.821-.571,2.068,0,3.75,1.74,3.75,3.879,0,1.092-.53,2.115-1.453,2.808l-.417.313.418.313c.923.692,1.453,1.716,1.453,2.808,0,2.139-1.682,3.879-3.75,3.879-.562,0-1.194-.23-1.821-.571.34.627.571,1.259.571,1.821,0,2.068-1.74,3.75-3.879,3.75Zm-3.121-3.537l1.113,1.483c.502.669,1.233,1.053,2.008,1.053,1.39,0,2.879-1.105,2.879-2.75,0-.923-1.147-2.689-2.854-4.396l.707-.707c1.707,1.707,3.474,2.854,4.396,2.854,1.645,0,2.75-1.489,2.75-2.879,0-.774-.384-1.506-1.053-2.008l-1.484-1.113,1.483-1.113c.669-.502,1.053-1.233,1.053-2.008,0-1.39-1.105-2.879-2.75-2.879-.923,0-2.689,1.147-4.396,2.854l-.707-.707c1.707-1.707,2.854-3.474,2.854-4.396,0-1.645-1.489-2.75-2.879-2.75-.774,0-1.506.384-2.008,1.053l-1.113,1.484-1.113-1.483c-.502-.669-1.233-1.053-2.008-1.053-1.39,0-2.879,1.105-2.879,2.75,0,.923,1.147,2.689,2.854,4.396l-.707.707c-1.707-1.707-3.474-2.854-4.396-2.854-1.645,0-2.75,1.489-2.75,2.879,0,.774.384,1.506,1.053,2.008l1.484,1.113-1.483,1.113c-.669.502-1.053,1.233-1.053,2.008,0,1.39,1.105,2.879,2.75,2.879.923,0,2.689-1.147,4.396-2.854l.707.707c-1.707,1.707-2.854,3.474-2.854,4.396,0,1.645,1.489,2.75,2.879,2.75.774,0,1.506-.384,2.008-1.053l1.113-1.484Z"/>
</svg>
