<?xml version="1.0" encoding="UTF-8"?>
<svg xmlns="http://www.w3.org/2000/svg" id="Layer_1" data-name="Layer 1" viewBox="0 0 24 24">
  <path d="m21.5,1H2.5C1.122,1,0,2.122,0,3.5v19.5h24V3.5c0-1.378-1.122-2.5-2.5-2.5ZM2.5,2h19c.827,0,1.5.673,1.5,1.5v4.5H1V3.5c0-.827.673-1.5,1.5-1.5Zm-1.5,20v-13h22v13H1ZM3,5c0-.552.448-1,1-1s1,.448,1,1-.448,1-1,1-1-.448-1-1Zm3,0c0-.552.448-1,1-1s1,.448,1,1-.448,1-1,1-1-.448-1-1Zm3,0c0-.552.448-1,1-1s1,.448,1,1-.448,1-1,1-1-.448-1-1Zm8.354,6.757l-1.555,1.555,1.555,1.555-.707.707-1.555-1.555-1.555,1.555-.707-.707,1.555-1.555-1.555-1.555.707-.707,1.555,1.555,1.555-1.555.707.707Zm-8.458,2.262l-1.555,1.555-.707-.707,1.555-1.555-1.555-1.555.707-.707,1.555,1.555,1.555-1.555.707.707-1.555,1.555,1.555,1.555-.707.707-1.555-1.555Zm7.374,5.249l-.504.863c-2.573-1.502-4.959-1.502-7.532,0l-.504-.863c2.883-1.684,5.657-1.684,8.54,0Z"/>
</svg>
