<?xml version="1.0" encoding="UTF-8"?>
<svg xmlns="http://www.w3.org/2000/svg" id="Layer_1" data-name="Layer 1" width="512" height="512" viewBox="0 0 24 24"><path d="M12,24C5.383,24,0,18.617,0,12S5.383,0,12,0c2.011,0,4.013,.521,5.79,1.508l.821,.456-.836,.427c-2.799,1.428-5.774,5.106-5.774,9.109,0,4.142,2.734,8.054,6.648,9.512l.903,.337-.795,.544c-2.012,1.378-4.349,2.106-6.756,2.106ZM12,1C5.935,1,1,5.935,1,12s4.935,11,11,11c1.896,0,3.744-.494,5.397-1.435-3.81-1.833-6.397-5.84-6.397-10.065,0-4.008,2.701-7.713,5.497-9.523-1.416-.641-2.953-.977-4.497-.977Zm7.5,13.118l-1.499-2.998-2.998-1.499,2.998-1.499,1.499-2.998,1.499,2.998,2.998,1.499-2.998,1.499-1.499,2.998Zm-2.26-4.497l1.507,.754,.753,1.506,.753-1.506,1.507-.754-1.507-.753-.753-1.506-.753,1.506-1.507,.753Zm5.76,8.378c-.552,0-1,.448-1,1s.448,1,1,1,1-.448,1-1-.448-1-1-1Zm-6-3c-.552,0-1,.448-1,1s.448,1,1,1,1-.448,1-1-.448-1-1-1Z"/></svg>
