<?xml version="1.0" encoding="UTF-8"?>
<svg xmlns="http://www.w3.org/2000/svg" id="Layer_1" data-name="Layer 1" viewBox="0 0 24 24">
  <path d="m23.5,10.969l-2.133-2.911c-.484-.662-1.264-1.058-2.085-1.058H4.718c-.821,0-1.601.396-2.085,1.057l-2.133,2.912c-.762,1.041-.65,2.454.29,3.386l11.21,9.643,11.236-9.667c.914-.907,1.025-2.32.264-3.361Zm-2.939-2.32l2.133,2.912c.101.138.177.286.228.439h-6.083l-1.6-4h4.044c.503,0,.981.242,1.278.648Zm-12.322,3.352l1.6-4h4.324l1.6,4h-7.523Zm7.512,1l-3.751,9.034-3.751-9.034h7.501ZM3.439,8.647c.297-.405.775-.647,1.278-.647h4.044l-1.6,4H1.079c.051-.154.127-.302.228-.439l2.133-2.913Zm-2.359,4.353h6.086l3.566,8.588L1.469,13.621c-.182-.181-.312-.394-.389-.621Zm12.188,8.588l3.566-8.588h6.092c-.073.221-.196.426-.368.597l-9.29,7.991Zm-.768-17.588h-1V0h1v4Zm4.922.525l-.844-.537,2-3.142.844.537-2,3.142Zm-10.844,0l-2-3.142.844-.537,2,3.142-.844.537Z"/>
</svg>
