<?xml version="1.0" encoding="UTF-8"?>
<svg xmlns="http://www.w3.org/2000/svg" id="Layer_1" data-name="Layer 1" viewBox="0 0 24 24" width="512" height="512"><path d="m4,4.036V0h-1v4.036c-1.694.243-3,1.704-3,3.464s1.306,3.221,3,3.464v13.036h1v-13.036c1.694-.243,3-1.704,3-3.464s-1.306-3.221-3-3.464Zm-.5,5.964c-1.379,0-2.5-1.121-2.5-2.5s1.121-2.5,2.5-2.5,2.5,1.121,2.5,2.5-1.121,2.5-2.5,2.5Zm9,3.036V0h-1v13.036c-1.694.243-3,1.704-3,3.464s1.306,3.221,3,3.464v4.036h1v-4.036c1.694-.243,3-1.704,3-3.464s-1.306-3.221-3-3.464Zm-.5,5.964c-1.379,0-2.5-1.121-2.5-2.5s1.121-2.5,2.5-2.5,2.5,1.121,2.5,2.5-1.121,2.5-2.5,2.5Zm12-11.5c0-1.76-1.306-3.221-3-3.464V0h-1v4.036c-1.694.243-3,1.704-3,3.464s1.306,3.221,3,3.464v13.036h1v-13.036c1.694-.243,3-1.704,3-3.464Zm-3.5,2.5c-1.379,0-2.5-1.121-2.5-2.5s1.121-2.5,2.5-2.5,2.5,1.121,2.5,2.5-1.121,2.5-2.5,2.5Z"/></svg>
