<?xml version="1.0" encoding="UTF-8"?>
<svg xmlns="http://www.w3.org/2000/svg" id="Layer_1" data-name="Layer 1" viewBox="0 0 24 24">
  <path d="m23.577,11.136c-.44-.774-1.164-1.33-2.038-1.563-.871-.233-3.698-.572-6.146-.572h-2.043s0,0,0,0h-.377s7.028-4.216,7.028-4.216v-2.043l1.866-2.005-.732-.682-2.134,2.293v1.871l-4.54,2.724c.026-.143.04-.29.04-.441,0-1.043-.642-1.938-1.551-2.312l-.949-4.188-.949,4.188c-.909.374-1.551,1.27-1.551,2.312,0,.15.014.298.04.441l-4.54-2.724v-1.871L2.866.053l-.732.682,1.866,2.005v2.043l7.028,4.216h-.377s0,0,0,0h-2.038s-.005,0-.005,0c-2.448,0-5.275.339-6.146.572-.874.234-1.598.789-2.038,1.563C-.006,11.891-.113,12.765.121,13.597c.407,1.449,1.757,2.403,3.224,2.403.29,0,.586-.038.879-.116,1.29-.345,5.441-3.756,7.276-5.302v2.186l-6.5,5.5v2.992l-2.313,1.85.625.781,2.688-2.15v-3.008l5.5-4.654v5.922h1v-5.922l5.5,4.654v3.008l2.687,2.15.625-.781-2.312-1.85v-2.992l-6.5-5.5v-2.186c1.835,1.546,5.986,4.957,7.276,5.302.293.079.589.116.879.116,1.467,0,2.816-.954,3.224-2.402.234-.833.127-1.707-.302-2.461Zm-11.577-6.136c.827,0,1.5.673,1.5,1.5s-.673,1.5-1.5,1.5-1.5-.673-1.5-1.5.673-1.5,1.5-1.5ZM3.966,14.917c-1.253.333-2.541-.38-2.882-1.592-.162-.573-.088-1.175.208-1.695.308-.54.814-.928,1.427-1.092.683-.183,3.379-.538,5.889-.538h2.03c-2.456,2.058-5.784,4.68-6.672,4.917Zm18.95-1.591c-.341,1.211-1.635,1.925-2.881,1.591-.889-.238-4.217-2.859-6.673-4.917h2.03c2.51,0,5.206.355,5.889.538.612.164,1.119.552,1.427,1.092.296.52.37,1.122.208,1.696Z"/>
</svg>
