<?xml version="1.0" encoding="UTF-8"?>
<svg xmlns="http://www.w3.org/2000/svg" id="Layer_1" data-name="Layer 1" viewBox="0 0 24 24">
  <path d="m20.5,0H3.5C2.122,0,1,1.122,1,2.5v15c0,1.208.86,2.217,2,2.45v4.05h18v-4.05c1.14-.232,2-1.242,2-2.45V2.5c0-1.378-1.122-2.5-2.5-2.5ZM4,23v-3h16v3H4Zm18-5.5c0,.827-.673,1.5-1.5,1.5H3.5c-.827,0-1.5-.673-1.5-1.5V2.5c0-.827.673-1.5,1.5-1.5h17c.827,0,1.5.673,1.5,1.5v15ZM5,12h14V4H5v8Zm1-7h12v6H6v-6Zm1,10.5c0,.552-.448,1-1,1s-1-.448-1-1,.448-1,1-1,1,.448,1,1Zm2-.5h10v1h-10v-1Z"/>
</svg>
