<?xml version="1.0" encoding="UTF-8"?>
<svg xmlns="http://www.w3.org/2000/svg" id="Layer_1" data-name="Layer 1" viewBox="0 0 24 24">
  <path d="m20.872,8l3.098-5.388L21.388.03l-5.388,3.098v4.165l-5.579,5.579-1.558-1.543L.812,19.379c-.511.512-.793,1.191-.793,1.914s.282,1.403.793,1.914c.511.512,1.191.793,1.914.793s1.403-.281,1.914-.793l8.069-8.068-1.578-1.563,5.576-5.576h4.165ZM3.933,22.5c-.645.645-1.77.645-2.414,0-.322-.322-.5-.751-.5-1.207s.178-.885.5-1.207l7.346-7.347,2.426,2.403-7.358,7.357ZM17,3.706l4.222-2.428,1.5,1.5-2.428,4.222h-3.294v-3.294Z"/>
</svg>
