<?xml version="1.0" encoding="UTF-8"?>
<svg xmlns="http://www.w3.org/2000/svg" id="Layer_1" data-name="Layer 1" width="512" height="512" viewBox="0 0 24 24"><path d="M7.029,13.254c-.263,.216-.509,.451-.728,.711-.491-.353-.922-.784-1.275-1.276l-3.48,2.025-.503-.863,3.476-2.023c-.266-.564-.439-1.18-.498-1.828H0v-1H4.023c.059-.649,.231-1.265,.496-1.829L1.044,5.148l.503-.863,3.476,2.023c.359-.503,.801-.943,1.306-1.3L4.31,1.537l.864-.502,2.02,3.472c.558-.259,1.166-.427,1.806-.485V0h1V4.023c.64,.058,1.247,.226,1.805,.486l2.02-3.474,.865,.502-2.022,3.475c.503,.357,.944,.797,1.302,1.3l3.481-2.026,.504,.863-3.479,2.025,.002,.004-.898,.521s-.083-.257-.224-.479c-.785-1.322-2.212-2.219-3.857-2.219-2.481,0-4.5,2.019-4.5,4.5,0,1.569,.809,2.949,2.029,3.754Zm9.866,5.746h-2.78c-.048,0-.076-.025-.092-.047-.012-.015-.022-.036-.023-.063l2.007-3.371-.859-.512-2.1,3.556c-.103,.341-.04,.701,.172,.987,.213,.286,.539,.45,.896,.45h2.78c.041,0,.071,.019,.091,.055s.018,.072-.021,.134l-1.898,3.31,.867,.498,1.882-3.282c.225-.34,.245-.774,.052-1.133-.192-.358-.564-.581-.972-.581Zm2.688-6.999c-.789-1.809-2.588-3.001-4.584-3.001-2.757,0-5,2.243-5,5v.035c-1.694,.243-3,1.704-3,3.465,0,1.93,1.57,3.5,3.5,3.5h1.351c-.079-.085-.165-.161-.235-.256-.172-.232-.298-.484-.399-.744h-.716c-1.378,0-2.5-1.121-2.5-2.5s1.122-2.5,2.528-2.5h.558l-.061-.555c-.016-.146-.025-.295-.025-.445,0-2.206,1.794-4,4-4,1.692,0,3.209,1.071,3.772,2.667l.118,.333h.609c1.93,0,3.5,1.57,3.5,3.5,0,1.767-1.321,3.217-3.024,3.452,.017,.34-.004,.68-.099,1.01,2.303-.195,4.123-2.11,4.123-4.462,0-2.453-1.973-4.454-4.416-4.499Z"/></svg>
