<?xml version="1.0" encoding="UTF-8"?>
<svg xmlns="http://www.w3.org/2000/svg" id="Layer_1" data-name="Layer 1" viewBox="0 0 24 24" width="512" height="512"><path d="M16.822,6c-.438,0-.978,.232-1.348,.435-.549-.281-1.104-.435-1.636-.435-.334,0-.667,.063-.99,.186-.111-.05-.224-.09-.338-.12,.208-4.924,3.952-5.066,3.991-5.066,.692,0,1.5,.322,1.5,1.231,0,.31-.317,.769-1,.769v1c1.252,0,2-.899,2-1.769,0-1.313-1.028-2.231-2.5-2.231-.989,0-3.375,.694-4.454,3.374-.512-1.525-1.455-2.638-2.822-3.321l-.447,.895c1.737,.869,2.627,2.545,2.716,5.119-.115,.03-.228,.07-.339,.12-.323-.123-.656-.186-.991-.186-.532,0-1.087,.153-1.636,.435-.37-.203-.911-.435-1.349-.435C4.409,6,0,10.119,0,15s4.419,9,7.195,9c.455,0,.877-.115,1.258-.343,.471,.224,.946,.343,1.404,.343,.404,0,.782-.09,1.13-.268,.322,.175,.661,.268,1.014,.268s.692-.093,1.014-.268c.347,.178,.726,.268,1.129,.268,.458,0,.933-.12,1.404-.344,.381,.228,.803,.344,1.258,.344,2.775,0,7.195-4.119,7.195-9s-4.409-9-7.178-9ZM7.195,23c-2.093,0-6.195-3.622-6.195-8S5.09,7,7.177,7c.09,0,.22,.032,.362,.083-1.918,1.544-3.539,4.564-3.539,7.917,0,3.48,1.562,6.487,3.407,7.986-.069,.009-.139,.014-.212,.014Zm-2.195-8c0-4.377,3.068-7.935,5.107-7.998-1.275,1.47-2.107,4.429-2.107,7.998s.827,6.507,2.093,7.982c-.076,.011-.155,.018-.236,.018-1.911,0-4.857-3.436-4.857-8Zm4,0c0-4.714,1.581-8,3-8s3,3.286,3,8-1.581,8-3,8-3-3.286-3-8Zm4.907,7.982c1.267-1.476,2.093-4.426,2.093-7.982s-.833-6.528-2.107-7.998c2.039,.063,5.107,3.622,5.107,7.998,0,4.564-2.946,8-4.857,8-.081,0-.159-.006-.236-.018Zm2.898,.018c-.072,0-.143-.005-.212-.014,1.846-1.498,3.407-4.505,3.407-7.986,0-3.353-1.622-6.374-3.539-7.917,.142-.051,.272-.083,.362-.083,2.088,0,6.178,3.622,6.178,8s-4.102,8-6.195,8Z"/></svg>
