<?xml version="1.0" encoding="UTF-8"?>
<svg xmlns="http://www.w3.org/2000/svg" id="Layer_1" data-name="Layer 1" viewBox="0 0 24 24">
  <path d="m17.997-.002C15.422-.002,13.198,1.62,12.359,3.998H.003v.5C.003,5.737.529,6.925,1.446,7.757l8.058,7.326v7.915h-4.5v1h10v-1h-4.5v-7.915l4.377-3.98c.939.575,2.003.893,3.116.895h.007c3.306-.003,5.993-2.694,5.993-6S21.305-.002,17.997-.002ZM1.041,4.998h17.926c-.115.772-.493,1.489-1.077,2.019l-7.886,7.169L2.118,7.017c-.584-.53-.962-1.247-1.077-2.019Zm16.96,6c-.829,0-1.628-.211-2.348-.596l2.908-2.644c.917-.833,1.442-2.021,1.442-3.259v-.5h-6.591c.781-1.802,2.558-3,4.584-3,2.757,0,5,2.243,5,5s-2.241,4.998-4.996,5Z"/>
</svg>
