<?xml version="1.0" encoding="UTF-8"?>
<svg xmlns="http://www.w3.org/2000/svg" id="Layer_1" data-name="Layer 1" viewBox="0 0 24 24">
  <path d="m16.944,13.33l4.087-4.158c-.381-2.536-1.488-5.281-3.132-7.472-.087-.065-2.275-1.7-5.9-1.7s-5.813,1.635-5.9,1.7c-1.644,2.191-2.75,4.934-3.131,7.47l4.126,4.27-5.412,5.605,5.055,4.92,5.244-5.467,5.281,5.466,5.048-4.915-5.368-5.72Zm1.038-9.726c1.002,1.645,1.679,3.424,1.984,5.226l-3.707,3.771-3.431-3.657,5.155-5.339Zm-5.84,4.609l-1.103-1.175c.744-.055,1.497-.046,2.211.027l-1.108,1.148Zm-.143-7.213c2.969,0,5,1.269,5.422,1.745l-3.31,3.428c-1.23-.21-2.62-.227-3.932-.051l-3.415-3.64c.331-.222,2.266-1.482,5.234-1.482Zm-5.287,21.547l-3.619-3.523,1.992-2.063,3.612,3.517-1.985,2.069Zm2.677-2.791l-3.61-3.514,2.009-2.081,3.497,3.619-1.896,1.977Zm-5.357-10.924c.321-1.903,1.059-3.781,2.155-5.503l12.09,12.885-3.665,3.568L4.033,8.832Zm11.275,11.669l3.655-3.558,1.948,2.076-3.625,3.529-1.977-2.047Z"/>
</svg>
