<?xml version="1.0" encoding="UTF-8"?>
<svg xmlns="http://www.w3.org/2000/svg" id="Layer_1" data-name="Layer 1" viewBox="0 0 24 24">
  <path d="m11.516,8c-1.379,0-2.5,1.122-2.5,2.5v3c0,1.378,1.121,2.5,2.5,2.5s2.5-1.122,2.5-2.5v-3c0-1.378-1.121-2.5-2.5-2.5Zm1.5,5.5c0,.827-.673,1.5-1.5,1.5s-1.5-.673-1.5-1.5v-3c0-.827.673-1.5,1.5-1.5s1.5.673,1.5,1.5v3Zm8,1.49c0,.547-.443.99-.99.99s-.99-.443-.99-.99.443-.99.99-.99.99.443.99.99Zm-6-6c0-.558.448-1.01,1-1.01s1,.452,1,1.01-.448,1.01-1,1.01-1-.452-1-1.01ZM12,0C5.383,0,0,5.383,0,12s5.383,12,12,12h.016c6.617,0,12-5.383,12-12S18.633,0,12,0Zm.016,23h-.016c-6.065,0-11-4.935-11-11S5.935,1,12.016,1s11,4.935,11,11-4.935,11-11,11Zm9-15l-4.806,8h-1.194l4.806-8h1.194Zm-13.016,5.5c0,1.378-1.121,2.5-2.5,2.5h-2.5v-1h2.5c.827,0,1.5-.673,1.5-1.5s-.673-1.5-1.5-1.5h-1.5v-1h1.5c.552,0,1-.449,1-1s-.448-1-1-1h-2.5v-1h2.5c1.103,0,2,.897,2,2,0,.559-.232,1.064-.603,1.427.665.45,1.103,1.211,1.103,2.073Z"/>
</svg>
