<?xml version="1.0" encoding="UTF-8"?>
<svg xmlns="http://www.w3.org/2000/svg" id="Layer_1" data-name="Layer 1" viewBox="0 0 24 24">
  <path d="m23.532,22.142c-.649,1.164-1.828,1.858-3.154,1.858H3.622c-1.326,0-2.505-.694-3.154-1.858-.655-1.173-.624-2.556.082-3.698L9.017,4.722c.578-.937,1.466-1.533,2.483-1.683V0h1v3.039c1.02.152,1.906.747,2.483,1.683l1.131,1.833-.589.949-1.392-2.256c-.494-.799-1.252-1.242-2.136-1.247-.878.005-1.636.448-2.13,1.247L1.4,18.969c-.512.83-.534,1.834-.059,2.687.47.842,1.323,1.345,2.281,1.345h16.756c.958,0,1.812-.503,2.281-1.345.475-.853.453-1.856-.059-2.687l-4.142-6.712.589-.949,4.403,7.135c.706,1.143.736,2.525.082,3.698Zm-9.247-8.852l6.462-10.401.85.527-6.491,10.449c.552.544.895,1.3.895,2.135,0,1.654-1.346,3-3,3s-3-1.346-3-3,1.346-3,3-3c.46,0,.895.104,1.285.29Zm.715,2.71c0-1.103-.897-2-2-2s-2,.897-2,2,.897,2,2,2,2-.897,2-2Z"/>
</svg>
