<?xml version="1.0" encoding="UTF-8"?>
<svg xmlns="http://www.w3.org/2000/svg" id="Layer_1" data-name="Layer 1" viewBox="0 0 24 24">
  <path d="m23.517,6.252l-3.691-5.167c-.485-.679-1.273-1.085-2.108-1.085H6.282c-.835,0-1.623.406-2.108,1.085L.483,6.252c-.665.931-.636,2.208.07,3.105l11.447,14.657,11.446-14.655c.707-.899.736-2.177.071-3.107Zm-4.504-4.585s3.764,5.276,3.795,5.333h-5.951l-2.065-6h2.926c.513,0,.997.249,1.295.667Zm-10.812,5.333l2.065-6h3.468l2.065,6h-7.598Zm7.626,1l-3.827,12.675-3.827-12.675h7.653ZM4.987,1.667c.298-.418.782-.667,1.295-.667h2.926l-2.065,6H1.193c.031-.057,3.795-5.333,3.795-5.333Zm-3.967,6.333h6.108l4.013,13.29L1.34,8.74c-.173-.219-.279-.475-.319-.74Zm11.838,13.291l4.013-13.291h6.108c-.04.265-.147.522-.32.742l-9.801,12.548Z"/>
</svg>
