<?xml version="1.0" encoding="UTF-8"?>
<svg xmlns="http://www.w3.org/2000/svg" id="Layer_1" data-name="Layer 1" viewBox="0 0 24 24" width="512" height="512"><path d="M18.5,5c1.378,0,2.5-1.122,2.5-2.5s-1.122-2.5-2.5-2.5-2.5,1.122-2.5,2.5,1.122,2.5,2.5,2.5Zm0-4c.827,0,1.5,.673,1.5,1.5s-.673,1.5-1.5,1.5-1.5-.673-1.5-1.5,.673-1.5,1.5-1.5Zm5.544,21.013c-.404,.843-1.113,1.478-1.995,1.788-.38,.133-.772,.2-1.164,.2-.517,0-1.031-.116-1.511-.346L.121,14.606l.426-.905,10.064,4.73,2.364-4.057-1.609-.756c-.586-.276-1.033-.789-1.226-1.407s-.115-1.294,.212-1.854l.82-1.314-5.81-2.769-.959,2.021-.903-.429,.96-2.023-1.916-.913,.43-.902,1.915,.912,.984-2.075,.903,.429-.985,2.076,5.914,2.818,1.2-1.923c.371-.594,.951-1.008,1.634-1.166,.681-.158,1.385-.039,1.979,.333l1.482,.93v4.625l3.93,1.841-.424,.905-4.506-2.11V6.918l-1.014-.636c-.368-.231-.801-.305-1.224-.206-.421,.097-.78,.353-1.009,.72l-1.14,1.826,2.387,1.137v1.107l-2.92-1.391-.873,1.399c-.181,.31-.224,.684-.113,1.04,.111,.356,.358,.64,.695,.799l2.599,1.221-2.869,4.924,8.285,3.893c.605,.29,1.283,.327,1.914,.106,.63-.222,1.136-.675,1.425-1.277l.901,.433Z"/></svg>
