<?xml version="1.0" encoding="UTF-8"?>
<svg xmlns="http://www.w3.org/2000/svg" id="Layer_1" data-name="Layer 1" viewBox="0 0 24 24" width="512" height="512"><path d="M12,0C5.383,0,0,5.069,0,11.3c0,2.607,2.203,3.616,2.297,3.657l.303,.134,.242-.226c.029-.027,2.119-1.951,5.096-3.074-.571,2.796-.938,6.062-.938,7.209,0,2.757,2.243,5,5,5s5-2.243,5-5c0-1.147-.367-4.412-.938-7.209,2.977,1.123,5.067,3.047,5.096,3.074l.242,.226,.303-.134c.094-.042,2.297-1.05,2.297-3.657C24,5.069,18.617,0,12,0Zm4,19c0,2.206-1.794,4-4,4s-4-1.794-4-4c0-1.049,.391-4.642,1.037-7.571,.933-.263,1.931-.429,2.963-.429s2.03,.166,2.963,.429c.645,2.928,1.037,6.522,1.037,7.571Zm5.566-5.109c-1.048-.895-4.905-3.891-9.566-3.891S3.481,12.997,2.434,13.891c-.482-.31-1.434-1.108-1.434-2.591C1,5.621,5.935,1,12,1s11,4.621,11,10.3c0,1.484-.952,2.283-1.434,2.591Z"/></svg>
