<?xml version="1.0" encoding="UTF-8"?>
<svg xmlns="http://www.w3.org/2000/svg" id="Layer_1" data-name="Layer 1" width="512" height="512" viewBox="0 0 24 24"><path d="M18,6c-3.309,0-6,2.691-6,6s2.691,6,6,6,6-2.691,6-6-2.691-6-6-6Zm0,11c-2.757,0-5-2.243-5-5s2.243-5,5-5,5,2.243,5,5-2.243,5-5,5Zm-4.401,1.677c-.511,.161-1.046,.265-1.599,.305v5.018h-1v-5.018c-.911-.065-1.775-.304-2.558-.686l-2.51,4.346-.865-.5,2.51-4.347c-.736-.5-1.372-1.136-1.872-1.872l-4.348,2.51-.5-.866,4.347-2.509c-.382-.783-.621-1.646-.686-2.558H0v-1H4.518c.065-.911,.304-1.775,.686-2.558L.857,6.433l.5-.866,4.348,2.51c.5-.736,1.136-1.372,1.872-1.872L5.067,1.858l.865-.5,2.51,4.346c.783-.382,1.646-.622,2.558-.686V0h1V5.018c.553,.04,1.089,.144,1.599,.305-.354,.234-.684,.498-.995,.784-.358-.067-.726-.106-1.104-.106-3.309,0-6,2.691-6,6s2.691,6,6,6c.377,0,.745-.039,1.104-.106,.311,.285,.641,.55,.995,.784Z"/></svg>
