<?xml version="1.0" encoding="UTF-8"?>
<svg xmlns="http://www.w3.org/2000/svg" id="Layer_1" data-name="Layer 1" viewBox="0 0 24 24" width="512" height="512"><path d="M13,12c0,.552-.448,1-1,1s-1-.448-1-1,.448-1,1-1,1,.448,1,1Zm-1,2c-.552,0-1,.448-1,1s.448,1,1,1,1-.448,1-1-.448-1-1-1Zm9.821-4.467c-.278,.715-.854,1.269-1.58,1.52l-3.241,1.239v3.802l2.582,3.879c.402,.627,.52,1.39,.326,2.101-.192,.71-.683,1.31-1.343,1.646-1.178,.597-2.688,.148-3.439-1.023l-2.343-3.337c-.147-.229-.399-.357-.686-.359-.304-.036-.542,.121-.682,.332l-2.655,3.499c-.392,.614-1.065,1.043-1.826,1.146-.117,.016-.233,.023-.349,.023-.643,0-1.268-.238-1.757-.677-.936-.839-1.099-2.317-.381-3.438l2.552-3.791v-3.795l-3.251-1.2c-.716-.247-1.291-.801-1.57-1.516s-.228-1.517,.141-2.201c.61-1.135,2.01-1.665,3.249-1.236l2.774,.973c-.53-.738-.843-1.643-.843-2.619C7.5,2.019,9.519,0,12,0s4.5,2.019,4.5,4.5c0,.935-.287,1.805-.777,2.526l2.717-.874c1.248-.432,2.646,.075,3.241,1.182h0c.368,.684,.42,1.485,.141,2.2ZM8.5,4.5c0,1.93,1.57,3.5,3.5,3.5s3.5-1.57,3.5-3.5-1.57-3.5-3.5-3.5-3.5,1.57-3.5,3.5Zm12.3,3.308h0c-.365-.68-1.245-.986-2.044-.708l-4.96,1.595c-1.28,.442-2.701,.441-3.987-.003l-4.568-1.602c-.179-.062-.363-.091-.547-.091-.609,0-1.206,.322-1.493,.857-.232,.432-.265,.916-.09,1.363,.172,.441,.527,.783,.975,.938l3.915,1.446v4.797l-2.716,4.034c-.45,.703-.361,1.628,.213,2.144,.365,.327,.828,.475,1.303,.407,.47-.063,.886-.329,1.142-.728l2.66-3.505c.31-.468,.842-.757,1.505-.752,.625,.005,1.188,.305,1.507,.802l2.343,3.337c.489,.762,1.433,1.058,2.156,.689,.415-.211,.71-.572,.831-1.017,.119-.438,.047-.909-.198-1.292l-2.745-4.124v-4.793l3.899-1.49c.463-.16,.818-.502,.99-.943,.175-.447,.143-.931-.09-1.362Z"/></svg>
