<?xml version="1.0" encoding="UTF-8"?>
<svg xmlns="http://www.w3.org/2000/svg" id="Layer_1" data-name="Layer 1" viewBox="0 0 24 24" width="512" height="512"><path d="M21.5,2h-3.5V0h-1V2H7V0h-1V2H2.5C1.121,2,0,3.122,0,4.5V24H24V4.5c0-1.378-1.121-2.5-2.5-2.5ZM2.5,3H21.5c.827,0,1.5,.673,1.5,1.5v3.5H1v-3.5c0-.827,.673-1.5,1.5-1.5ZM1,23V9H23v14H1ZM17.148,11.644l.703,.712-6.293,6.207c-.291,.291-.675,.437-1.058,.437-.385,0-.769-.146-1.062-.439l-3.288-3.202,.697-.717,3.293,3.207c.2,.2,.518,.2,.712,.005l6.295-6.209Z"/></svg>
