<?xml version="1.0" encoding="UTF-8"?>
<svg xmlns="http://www.w3.org/2000/svg" id="Layer_1" data-name="Layer 1" viewBox="0 0 24 24" width="512" height="512"><path d="M18,24h-7.431s.431-1.308,.431-2.5c0-1.379-1.122-2.5-2.5-2.5s-2.5,1.121-2.5,2.5c0,1.013,.431,2.5,.431,2.5H0V8.5c0-1.379,1.122-2.5,2.5-2.5h2.909c-.253-.968-.409-1.903-.409-2.5,0-1.93,1.57-3.5,3.5-3.5s3.5,1.57,3.5,3.5c0,.597-.155,1.532-.409,2.5h3.909c1.378,0,2.5,1.121,2.5,2.5v2.909c.969-.254,1.904-.409,2.5-.409,1.93,0,3.5,1.57,3.5,3.5s-1.57,3.5-3.5,3.5c-.596,0-1.531-.155-2.5-.409v6.409Zm-6.18-1h5.18v-6.743s2.103,.743,3.5,.743c1.378,0,2.5-1.121,2.5-2.5s-1.122-2.5-2.5-2.5c-1.064,0-3.5,.743-3.5,.743v-4.243c0-.827-.673-1.5-1.5-1.5h-5.244s.744-2.333,.744-3.5c0-1.379-1.122-2.5-2.5-2.5s-2.5,1.121-2.5,2.5c0,1.218,.744,3.5,.744,3.5H2.5c-.827,0-1.5,.673-1.5,1.5v14.5H5.18c-.116-.595-.18-1.123-.18-1.5,0-1.93,1.57-3.5,3.5-3.5s3.5,1.57,3.5,3.5c0,.377-.064,.905-.18,1.5Z"/></svg>
