<?xml version="1.0" encoding="UTF-8"?>
<svg xmlns="http://www.w3.org/2000/svg" id="Layer_1" data-name="Layer 1" viewBox="0 0 24 24" width="512" height="512"><path d="M19,1c-.999,0-1.952,.299-2.785,.869-1.092-1.193-2.603-1.869-4.215-1.869s-3.124,.676-4.215,1.869c-.833-.57-1.786-.869-2.785-.869C2.243,1,0,3.243,0,6c0,2.386,1.69,4.409,4,4.877v13.123H20V10.877c2.31-.468,4-2.491,4-4.877,0-2.757-2.243-5-5-5ZM5,23v-4h14v4H5Zm14.444-13.048l-.444,.05v7.998H5v-7.998l-.444-.05c-2.027-.227-3.556-1.926-3.556-3.952C1,3.794,2.794,2,5,2c.925,0,1.804,.324,2.542,.938l.398,.331,.317-.41c.915-1.182,2.279-1.859,3.743-1.859s2.828,.678,3.743,1.859l.317,.41,.398-.331c.738-.614,1.617-.938,2.542-.938,2.206,0,4,1.794,4,4,0,2.026-1.528,3.726-3.556,3.952Z"/></svg>
