<?xml version="1.0" encoding="UTF-8"?>
<svg xmlns="http://www.w3.org/2000/svg" id="Layer_1" data-name="Layer 1" viewBox="0 0 24 24" width="512" height="512"><path d="M23.561,16.439c.585,.585,.585,1.536,0,2.121l-3.293,3.293-.707-.707,3.146-3.146h-5.207c-1.379,0-2.5,1.121-2.5,2.5v3.5h-1v-3.5c0-1.93,1.57-3.5,3.5-3.5h5.207l-3.146-3.146,.707-.707,3.293,3.293ZM15.25,1c-1.517,0-2.75,1.233-2.75,2.75v15.045c0,2.87-2.335,5.205-5.204,5.205-2.357,0-4.386-1.558-5.008-3.815-1.417-.848-2.288-2.361-2.288-4.003,0-.936,.281-1.831,.818-2.613-.537-.782-.818-1.678-.818-2.614,0-1.562,.799-3.022,2.105-3.887-.009-.097-.015-.195-.015-.295,0-1.96,1.286-3.527,2.996-3.746,.341-1.729,1.873-3.026,3.663-3.026,1.398,0,2.605,.778,3.25,1.915,.645-1.137,1.852-1.915,3.25-1.915,1.79,0,3.322,1.298,3.663,3.026,1.71,.219,2.996,1.786,2.996,3.746,0,.1-.006,.198-.015,.295,1.307,.865,2.105,2.325,2.105,3.887,0,.854-.245,1.67-.694,2.402l-.73-.73c.274-.52,.424-1.085,.424-1.672,0-1.316-.725-2.541-1.892-3.196l-.31-.174s.11-.654,.11-.812c0-1.363-.901-2.772-2.435-2.772h-.463l-.035-.461c-.11-1.423-1.309-2.539-2.727-2.539Zm-3.75,2.75c0-1.517-1.233-2.75-2.75-2.75-1.418,0-2.616,1.115-2.727,2.539l-.035,.461h-.463c-1.533,0-2.435,1.41-2.435,2.772,0,.158,.11,.812,.11,.812l-.31,.174c-1.167,.655-1.892,1.88-1.892,3.196,0,.832,.287,1.627,.83,2.299l.254,.314-.254,.314c-.543,.672-.83,1.467-.83,2.299,0,1.347,.75,2.585,1.957,3.232l.2,.106,.051,.222c.442,1.918,2.124,3.258,4.088,3.258,2.318,0,4.204-1.887,4.204-4.205V3.75Z"/></svg>
