<?xml version="1.0" encoding="UTF-8"?>
<svg xmlns="http://www.w3.org/2000/svg" id="Layer_1" data-name="Layer 1" viewBox="0 0 24 24">
  <path d="m7,11v-4h1v4h-1Zm4,0v-4h-1v4h1Zm3,0v-4h-1v4h1Zm-10,0h1v-4h-1v4Zm8.495,11.988c-.164.007-.329.012-.495.012-6.065,0-11-4.935-11-11S5.935,1,12,1s11,4.935,11,11c0,.133-.003.265-.008.397,0,0,.888.872.935.922.048-.433.073-.873.073-1.319C24,5.383,18.617,0,12,0S0,5.383,0,12s5.383,12,12,12c.449,0,.893-.026,1.33-.074-.045-.042-.089-.085-.132-.129-.255-.255-.489-.525-.702-.809Zm4.505-13.518v-2.47h-1v3.448l1-.978Zm5.385,5.13c1.043,1.042,1.615,2.424,1.615,3.893s-.572,2.851-1.611,3.89-2.419,1.61-3.889,1.61-2.851-.572-3.889-1.61-1.611-2.42-1.611-3.89.572-2.851,1.611-3.889l3.889-3.804,3.885,3.8Zm.615,3.893c0-1.202-.468-2.332-1.318-3.182l-3.182-3.112-3.186,3.116c-.847.846-1.314,1.976-1.314,3.178s.468,2.332,1.318,3.183,1.979,1.317,3.182,1.317,2.332-.468,3.182-1.317,1.318-1.98,1.318-3.183Z"/>
</svg>
