<?xml version="1.0" encoding="UTF-8"?>
<svg xmlns="http://www.w3.org/2000/svg" id="Layer_1" data-name="Layer 1" viewBox="0 0 24 24" width="512" height="512"><path d="M2,23c0,.552-.448,1-1,1s-1-.448-1-1,.448-1,1-1,1,.448,1,1Zm5-7c-.552,0-1,.448-1,1s.448,1,1,1,1-.448,1-1-.448-1-1-1Zm3-3c-.552,0-1,.448-1,1s.448,1,1,1,1-.448,1-1-.448-1-1-1ZM1.364,18.071l4.564,4.564,.707-.707-4.564-4.564-.707,.707ZM18.011,.032l-.399,.916c2.434,1.06,4.362,2.982,5.431,5.413l.915-.402C22.788,3.297,20.676,1.192,18.011,.032Zm-2.03,13.634c.657-.733,1.019-1.681,1.019-2.666,0-2.206-1.794-4-4-4s-4,1.794-4,4h1c0-1.654,1.346-3,3-3s3,1.346,3,3c0,.739-.271,1.449-.764,2l.745,.666ZM12.881,3.001c-4.419,.064-7.881,3.578-7.881,7.999h1c0-3.868,3.029-6.943,6.896-6.999,1.904-.066,3.672,.688,5.018,2.013,1.346,1.326,2.087,3.097,2.087,4.986,0,1.401-.415,2.754-1.2,3.911-.809,1.19-.805,1.891-.8,2.859v.229c0,3.436-2.591,5-5,5v1c3.533,0,6-2.468,6-6v-.234c-.005-.904-.007-1.358,.627-2.293,.898-1.323,1.373-2.87,1.373-4.473,0-2.159-.847-4.183-2.385-5.698-1.537-1.516-3.54-2.353-5.734-2.301Z"/></svg>
