<?xml version="1.0" encoding="UTF-8"?>
<svg xmlns="http://www.w3.org/2000/svg" id="Layer_1" data-name="Layer 1" viewBox="0 0 24 24" width="512" height="512"><path d="M17.333,10.873c-.097,.087-2.415,2.127-5.333,2.127s-5.236-2.04-5.333-2.127l.666-.747c.021,.019,2.138,1.874,4.667,1.874s4.646-1.854,4.667-1.874l.666,.747Zm1.504,11.297c-1.104,1.104-2.902,1.104-4.007,0-.535-.535-.83-1.247-.83-2.003v-.787l6.322-6.322-.707-.707-5.615,5.615v-2.966h-1v5.167c0,1.024,.399,1.987,1.123,2.71,.747,.748,1.729,1.121,2.71,1.121s1.963-.374,2.71-1.121l3.917-3.917-.707-.707-3.917,3.917Zm3.036-9.04l-4.859,4.859,.707,.707,4.859-4.859-.707-.707Zm1.414,2.946l-.707-.707-4.093,4.093,.707,.707,4.093-4.093Zm-16.3,1.914L2.127,13.13l-.707,.707,4.859,4.859,.707-.707Zm-2.18,2.18l.707-.707L1.42,15.369l-.707,.707,4.093,4.093Zm6.193-5.169h-1v2.966l-5.615-5.615-.707,.707,6.322,6.322v.787c0,.757-.295,1.469-.83,2.004-1.104,1.104-2.902,1.104-4.007,0l-3.917-3.917-.707,.707,3.917,3.917c.748,.747,1.729,1.121,2.71,1.121s1.963-.374,2.71-1.121c.724-.724,1.123-1.686,1.123-2.71v-5.167ZM12,1c6.065,0,11,4.935,11,11h1C24,5.383,18.617,0,12,0S0,5.383,0,12H1C1,5.935,5.935,1,12,1Zm-6,7h1c0-1.43,.785-3,1.5-3s1.5,1.57,1.5,3h1c0-1.888-1.069-4-2.5-4s-2.5,2.112-2.5,4Zm7,0h1c0-1.43,.785-3,1.5-3s1.5,1.57,1.5,3h1c0-1.888-1.069-4-2.5-4s-2.5,2.112-2.5,4Z"/></svg>
