<?xml version="1.0" encoding="UTF-8"?>
<svg xmlns="http://www.w3.org/2000/svg" id="Layer_1" data-name="Layer 1" viewBox="0 0 24 24" width="512" height="512"><path d="m8.006,7.062l-1.166,2.798-.923-.385,1.166-2.798.923.385Zm15.994,4.938c0,6.617-5.383,12-12,12S0,18.617,0,12,5.383,0,12,0s12,5.383,12,12ZM13.145,1.059l-1.456,2.812,3.312-.552v2.84l-3.738,1.603-1.129,2.635.386.579,1.873-2.498,1.07,1.07-.228-.683,2.03-.667,1.12-2.198h3.616v4h-2.338l2.338.779v2.135l-.329.329,2.983,1.499c.226-.877.346-1.795.346-2.742,0-5.679-4.326-10.366-9.855-10.941Zm-1.145,21.941v-3.5l-2-.5-2-2v-2l2.5-2h2.5l3,2h1.5l1.51,1.51,2.798.468c.208-.408.391-.831.548-1.267l-4.369-2.197,1.014-1.014v-1l-3-1v-1.5h3v-2h-2.002l-1.029,2.02-1.468.482.499,1.498-1,.5-1.5-1.5-1.5,2h-1l-1-1.5,1.5-3.5,3.5-1.5v-1l-3,.5-.502-1.004,1.551-2.995c-.016,0-.033,0-.049,0C5.935,1,1,5.935,1,12s4.935,11,11,11Zm9.278-5.097l-2.749-.46-1.443-1.443h-1.389l-3-2h-1.847l-1.851,1.48v1.105l1.511,1.511,2.489.622v4.235c3.477-.315,6.492-2.254,8.278-5.051Z"/></svg>
