<?xml version="1.0" encoding="UTF-8"?>
<svg xmlns="http://www.w3.org/2000/svg" id="Layer_1" data-name="Layer 1" viewBox="0 0 24 24">
  <path d="m22.947,9.222l-1.057-1.029c.064-.221.11-.451.11-.693V2.5c0-1.378-1.122-2.5-2.5-2.5H4.5c-1.378,0-2.5,1.122-2.5,2.5v5c0,.242.046.472.11.694l-1.057,1.028c-.669.655-1.053,1.567-1.053,2.503v12.275h24v-12.276c0-.936-.383-1.848-1.053-2.502ZM3,2.5c0-.827.673-1.5,1.5-1.5h15c.827,0,1.5.673,1.5,1.5v5c0,.827-.673,1.5-1.5,1.5h-4.885l-2.473,2.044c-.081.072-.204.072-.294-.009l-2.417-2.036h-4.931c-.827,0-1.5-.673-1.5-1.5V2.5Zm-.397,6.609c.459.54,1.134.891,1.897.891h4.566l2.127,1.792c.232.206.523.309.812.309.285,0,.567-.1.789-.297l2.182-1.803h4.525c.763,0,1.439-.351,1.898-.891,0,0,.929.925.971.972l-7.893,7.894c-1.365,1.364-3.586,1.366-4.95,0L1.632,10.081c.041-.047.971-.972.971-.972Zm20.397,13.891H1v-11.275c0-.252.051-.498.125-.737l7.693,7.693c.877.877,2.03,1.316,3.182,1.316s2.305-.439,3.182-1.316l7.693-7.694c.074.238.125.484.125.736v11.276ZM9.742,6.575l1.551-1.551-1.551-1.551.707-.707,1.551,1.551,1.551-1.551.707.707-1.551,1.551,1.551,1.551-.707.707-1.551-1.551-1.551,1.551-.707-.707Zm6.019,0l1.551-1.551-1.551-1.551.707-.707,1.551,1.551,1.551-1.551.707.707-1.551,1.551,1.551,1.551-.707.707-1.551-1.551-1.551,1.551-.707-.707Zm-11.999,0l1.551-1.551-1.551-1.551.707-.707,1.551,1.551,1.551-1.551.707.707-1.551,1.551,1.551,1.551-.707.707-1.551-1.551-1.551,1.551-.707-.707Z"/>
</svg>
