<?xml version="1.0" encoding="UTF-8"?>
<svg xmlns="http://www.w3.org/2000/svg" id="Layer_1" data-name="Layer 1" viewBox="0 0 24 24">
  <path d="m8,12c3.309,0,6-2.691,6-6S11.309,0,8,0,2,2.691,2,6s2.691,6,6,6Zm0-11c2.757,0,5,2.243,5,5s-2.243,5-5,5-5-2.243-5-5S5.243,1,8,1Zm8,18v5h-1v-5c0-2.206-1.794-4-4-4h-6c-2.206,0-4,1.794-4,4v5H0v-5c0-2.757,2.243-5,5-5h6c2.757,0,5,2.243,5,5Zm7.982-9.827l-5.333,5.35c-.317.317-.734.476-1.15.476s-.833-.159-1.149-.476l-3.145-3.145.707-.707,3.145,3.145c.236.236.649.237.885,0l5.333-5.35.708.706Z"/>
</svg>
