<?xml version="1.0" encoding="UTF-8"?>
<svg xmlns="http://www.w3.org/2000/svg" id="Layer_1" data-name="Layer 1" viewBox="0 0 24 24">
  <path d="m24,2.5v21.5h-11v-1h10V2.5c0-.827-.673-1.5-1.5-1.5h-13c-.827,0-1.5.673-1.5,1.5v7.783c-.318-.113-.652-.194-1-.233V2.5c0-1.379,1.121-2.5,2.5-2.5h13c1.379,0,2.5,1.121,2.5,2.5Zm-4,1.5h-10v1h10v-1Zm-10,5h10v-1h-10v1Zm0,4h8v-1h-8v1Zm7,2c1.654,0,3,1.346,3,3s-1.346,3-3,3-3-1.346-3-3,1.346-3,3-3Zm0,1c-1.103,0-2,.897-2,2s.897,2,2,2,2-.897,2-2-.897-2-2-2Zm-7,7h1v1H0v-1h1v-2c0-1.103.897-2,2-2h1.38c-.912-2.404-1.38-3.937-1.38-4.54,0-1.38,1.098-2.46,2.5-2.46s2.5,1.08,2.5,2.46c0,.603-.468,2.136-1.38,4.54h1.38c1.103,0,2,.897,2,2v2Zm-4.552-4h.104c1.342-3.493,1.448-4.356,1.448-4.54,0-.818-.659-1.46-1.5-1.46s-1.5.642-1.5,1.46c0,.184.106,1.047,1.448,4.54Zm-3.448,4h7v-2c0-.552-.448-1-1-1H3c-.552,0-1,.448-1,1v2Z"/>
</svg>
