<?xml version="1.0" encoding="UTF-8"?>
<svg xmlns="http://www.w3.org/2000/svg" id="Layer_1" data-name="Layer 1" viewBox="0 0 24 24" width="512" height="512"><path d="M17.5,11c-3.58,0-6.5,2.92-6.5,6.5s2.92,6.5,6.5,6.5,6.5-2.92,6.5-6.5-2.92-6.5-6.5-6.5Zm0,12c-3.03,0-5.5-2.47-5.5-5.5s2.47-5.5,5.5-5.5,5.5,2.47,5.5,5.5-2.47,5.5-5.5,5.5Zm3.06-6.56c.58,.58,.58,1.54,0,2.12l-2.17,2.17-.71-.71,2.02-2.02h-5.71v-1h5.71l-1.94-1.94,.71-.71,2.09,2.09Zm-9.01-5.01c-.24,.24-.47,.49-.69,.76-.26-.12-.55-.19-.86-.19-1.1,0-2,.9-2,2,0,.81,.48,1.5,1.17,1.82-.07,.33-.11,.67-.14,1.02-1.18-.41-2.03-1.52-2.03-2.84,0-1.65,1.35-3,3-3,.57,0,1.1,.16,1.55,.43ZM1,20V3C1,1.9,1.9,1,3,1h1v7H15V1h.42l4.58,4.58v3.8c.34,.11,.68,.23,1,.38V5.16L15.83,0H3C1.35,0,0,1.35,0,3V21H9.75c-.15-.32-.27-.66-.38-1H1ZM14,7H5V1H14V7Z"/></svg>
