<?xml version="1.0" encoding="UTF-8"?>
<svg xmlns="http://www.w3.org/2000/svg" id="Layer_1" data-name="Layer 1" viewBox="0 0 24 24" width="512" height="512"><path d="M23.92,16.97l-1.82-8.78c-.86-3.12-3.43-5.43-6.52-6.03-1.55-1.39-3.51-2.16-5.59-2.16C6.03,0,2.65,2.72,1.79,6.63L.06,15.07c-.16,.71,.01,1.45,.47,2.03,.46,.57,1.14,.9,1.87,.9h1.65c.07,.4,.22,.77,.48,1.1,.46,.57,1.14,.9,1.87,.9h3.6c0,2.21,1.79,4,4,4s4-1.79,4-4h3.6c.73,0,1.41-.32,1.87-.89l.05-.06c.46-.6,.6-1.37,.41-2.07Zm-19.85,.03h-1.67c-.43,0-.82-.19-1.09-.53-.27-.34-.37-.77-.27-1.2L2.77,6.84C3.53,3.4,6.5,1,10,1c1.32,0,2.58,.36,3.7,1.01-3.84,.13-7.07,2.81-7.91,6.62l-1.72,8.37Zm9.93,6c-1.65,0-3-1.35-3-3h6c0,1.65-1.35,3-3,3Zm8.74-4.59l-.03,.03c-.27,.35-.67,.56-1.11,.56H6.4c-.43,0-.82-.19-1.09-.53-.27-.34-.37-.77-.27-1.2l1.73-8.44c.76-3.44,3.73-5.84,7.23-5.84,.39,0,.76,.04,1.14,.1,0,0,0,0,.01,.01h.01c2.82,.44,5.19,2.52,5.97,5.32l1.82,8.78c.11,.42,.04,.85-.21,1.2Z"/></svg>
