<?xml version="1.0" encoding="UTF-8"?>
<svg xmlns="http://www.w3.org/2000/svg" id="Layer_1" data-name="Layer 1" viewBox="0 0 24 24">
  <path d="m18.731,7c.371,0,.729.137,1.006.387l4.263,3.729v-1.343l-3.593-3.128c-.462-.416-1.058-.645-1.676-.645h-4.731v-2h-6V0H2.5C1.122,0,0,1.122,0,2.5v19c0,1.378,1.122,2.5,2.5,2.5h5.5v-4h6v-4.357l2.346,2.549c.472.513,1.143.808,1.84.808h5.814v-1h-5.814c-.418,0-.821-.177-1.104-.484l-3.7-4.021c-.551-.615-.499-1.562.116-2.113.551-.494,1.394-.507,1.934-.055l3.179,3.074.695-.719-3.206-3.098c-.596-.501-1.375-.676-2.101-.531v-3.054h4.731ZM2.5,1h4.5v3H1v-1.5c0-.827.673-1.5,1.5-1.5Zm-1.5,8.171c.32-.113.655-.171,1-.171,1.654,0,3,1.346,3,3s-1.346,3-3,3c-.345,0-.68-.057-1-.171v-5.659Zm6,13.829H2.5c-.827,0-1.5-.673-1.5-1.5v-1.5h6v3Zm6-12.502c-.058.043-.115.089-.169.138-1.025.918-1.112,2.5-.189,3.53l.359.39v4.443H1v-3.126c.324.084.658.126,1,.126,2.206,0,4-1.794,4-4s-1.794-4-4-4c-.342,0-.676.042-1,.126v-3.126h12v5.498Zm-2-2.498c0,.552-.448,1-1,1s-1-.448-1-1,.448-1,1-1,1,.448,1,1Zm0,8c0,.552-.448,1-1,1s-1-.448-1-1,.448-1,1-1,1,.448,1,1Z"/>
</svg>
