<?xml version="1.0" encoding="UTF-8"?>
<svg xmlns="http://www.w3.org/2000/svg" id="Layer_1" data-name="Layer 1" viewBox="0 0 24 24">
  <path d="m12.5,15.051v-4.051h-1v4.051c-1.14.232-2,1.242-2,2.449,0,1.379,1.122,2.5,2.5,2.5s2.5-1.121,2.5-2.5c0-1.208-.86-2.217-2-2.449Zm-.5,3.949c-.827,0-1.5-.673-1.5-1.5s.673-1.5,1.5-1.5,1.5.673,1.5,1.5-.673,1.5-1.5,1.5Zm4.5-6.181V4.5c0-2.481-2.019-4.5-4.5-4.5s-4.5,2.019-4.5,4.5v8.319c-1.626,1.561-2.32,3.805-1.859,6.049.508,2.472,2.506,4.476,4.971,4.987.459.096.92.143,1.376.143,1.496,0,2.943-.503,4.112-1.454,1.525-1.241,2.4-3.08,2.4-5.044,0-1.763-.726-3.456-2-4.681Zm-1.031,8.949c-1.291,1.051-2.988,1.454-4.654,1.108-2.08-.432-3.766-2.124-4.195-4.21-.404-1.968.236-3.933,1.714-5.258l.166-.148V4.5c0-1.93,1.57-3.5,3.5-3.5s3.5,1.57,3.5,3.5v8.761l.166.148c1.166,1.046,1.834,2.537,1.834,4.091,0,1.662-.74,3.218-2.031,4.269Z"/>
</svg>
