<?xml version="1.0" encoding="UTF-8"?>
<svg xmlns="http://www.w3.org/2000/svg" id="Layer_1" data-name="Layer 1" viewBox="0 0 24 24">
  <path d="m9,11v8h2.5c1.378,0,2.5-1.127,2.5-2.512v-2.976c0-1.385-1.122-2.512-2.5-2.512h-2.5Zm4,2.512v2.976c0,.834-.673,1.512-1.5,1.512h-1.5v-6h1.5c.827,0,1.5.678,1.5,1.512Zm-7.595-2.512c-.771,0-1.118.689-1.198,1.087l-1.387,6.887,1.013.005.4-1.979h2.36l.41,1.995.996.005-1.389-6.882c-.093-.459-.435-1.118-1.205-1.118Zm-.969,5l.751-3.716c.024-.118.081-.284.218-.284s.188.132.225.316l.758,3.684h-1.952ZM1,8h22v3h1V2.5c0-1.378-1.122-2.5-2.5-2.5H2.5C1.122,0,0,1.122,0,2.5v19.5h15v-1H1v-13ZM2.5,1h19c.827,0,1.5.673,1.5,1.5v4.5H1V2.5c0-.827.673-1.5,1.5-1.5Zm.5,3c0-.552.448-1,1-1s1,.448,1,1-.448,1-1,1-1-.448-1-1Zm3,0c0-.552.448-1,1-1s1,.448,1,1-.448,1-1,1-1-.448-1-1Zm3,0c0-.552.448-1,1-1s1,.448,1,1-.448,1-1,1-1-.448-1-1Zm14.013,13v-.605c0-.769-.625-1.395-1.395-1.395h-2.21c-.769,0-1.395.626-1.395,1.395,0,.685.49,1.263,1.166,1.375l2.833.473c1.16.193,2.001,1.186,2.001,2.362,0,1.321-1.074,2.395-2.395,2.395h-.605v1h-1v-1h-.605c-1.321,0-2.395-1.074-2.395-2.395v-.605h1v.605c0,.769.626,1.395,1.395,1.395h2.21c.769,0,1.395-.626,1.395-1.395,0-.685-.49-1.263-1.165-1.375l-2.833-.473c-1.16-.193-2.001-1.186-2.001-2.362,0-1.321,1.074-2.395,2.395-2.395h.605v-1h1v1h.605c1.32,0,2.395,1.074,2.395,2.395v.605h-1Z"/>
</svg>
