<?xml version="1.0" encoding="UTF-8"?>
<svg xmlns="http://www.w3.org/2000/svg" id="Layer_1" data-name="Layer 1" viewBox="0 0 24 24">
  <path d="m5,11.179c-1.23-1.183-2-2.842-2-4.679C3,2.916,5.916,0,9.5,0s6.5,2.916,6.5,6.5c0,1.838-.77,3.496-2,4.679v-1.527c.628-.894,1-1.98,1-3.152,0-3.033-2.467-5.5-5.5-5.5s-5.5,2.467-5.5,5.5c0,1.173.372,2.259,1,3.152v1.527Zm7,.919v-6.492c0-1.273-.896-2.379-2.084-2.573-.731-.117-1.475.085-2.035.562-.56.476-.881,1.17-.881,1.905v12.601l-1.796-1.428c-1.007-.94-2.59-.886-3.53.119-.941,1.007-.888,2.593.114,3.533l3.86,3.675h1.45l-4.624-4.402c-.604-.566-.635-1.518-.07-2.123.564-.603,1.514-.635,2.146-.045l3.449,2.746V5.5c0-.44.193-.857.529-1.143.341-.29.777-.407,1.227-.336.709.115,1.245.797,1.245,1.586v7.294l10,2.218v8.881h1v-9.684l-10-2.218Z"/>
</svg>
