<?xml version="1.0" encoding="UTF-8"?>
<svg xmlns="http://www.w3.org/2000/svg" id="Layer_1" data-name="Layer 1" viewBox="0 0 24 24" width="512" height="512"><path d="M20,19.051V8c0-.08-.113-8-9.938-8h-.391l-.095,.379c-.745,2.98-2.023,4.023-3.979,4.816-.971,.393-1.598,1.308-1.598,2.33v1.475h6.389c-.796,3.317-3.363,4.924-4.876,5.6-.919,.409-1.513,1.311-1.513,2.296v2.155c-1.14,.232-2,1.242-2,2.449v2.5H22v-2.5c0-1.208-.86-2.217-2-2.449Zm-14.08-3.538c1.783-.796,4.878-2.755,5.573-6.931l.097-.582H5v-.475c0-.613,.382-1.164,.973-1.403,2.055-.833,3.608-2.036,4.474-5.118,8.425,.192,8.553,6.716,8.554,6.996v11H5v-2.104c0-.591,.36-1.134,.92-1.383Zm15.08,7.487H3v-1.5c0-.827,.673-1.5,1.5-1.5h15c.827,0,1.5,.673,1.5,1.5v1.5Z"/></svg>
