<?xml version="1.0" encoding="UTF-8"?>
<svg xmlns="http://www.w3.org/2000/svg" id="Layer_1" data-name="Layer 1" viewBox="0 0 24 24">
  <path d="m21.951,11.542c-.162-4.087-2.39-4.542-3.368-4.542-.841,0-3.583.362-3.583,5.022v1.244c-.872-1.134-2.075-1.267-2.583-1.267-.978,0-3.206.455-3.368,4.542-1.164.213-2.049,1.234-2.049,2.458,0,1.853,2.059,3.933,2.146,4.021l.354.354.354-.354c.088-.088,2.146-2.168,2.146-4.021,0-1.19-.836-2.188-1.951-2.439.096-2.301.929-3.561,2.368-3.561.776,0,2.583.392,2.583,4.022v6.978h1v-11.978c0-3.631,1.807-4.022,2.583-4.022,1.44,0,2.272,1.26,2.368,3.561-1.116.251-1.951,1.248-1.951,2.439,0,1.853,2.059,3.933,2.146,4.021l.354.354.354-.354c.088-.088,2.146-2.168,2.146-4.021,0-1.225-.885-2.245-2.049-2.458Zm-10.951,7.458c0,.975-.892,2.222-1.5,2.929-.608-.707-1.5-1.954-1.5-2.929,0-.827.673-1.5,1.5-1.5s1.5.673,1.5,1.5Zm10.5-2.071c-.608-.707-1.5-1.954-1.5-2.929,0-.827.673-1.5,1.5-1.5s1.5.673,1.5,1.5c0,.975-.892,2.222-1.5,2.929Zm-16.325.919l-.865-.502,1.979-3.403c-.483-.35-.907-.774-1.256-1.256l-3.485,2.029-.504-.863,3.48-2.026c-.267-.563-.441-1.177-.501-1.826H0v-1h4.023c.059-.648.23-1.265.495-1.829l-3.474-2.023.504-.863,3.476,2.023c.359-.503.801-.942,1.305-1.3l-2.019-3.472.865-.502,2.02,3.472c.558-.259,1.166-.427,1.806-.484V0h1v4.023c.64.058,1.247.226,1.805.486l2.021-3.474.865.502-2.021,3.475c.503.357.943.797,1.302,1.299l3.481-2.026.504.863-4.375,2.55s-.083-.257-.224-.479c-.785-1.322-2.212-2.219-3.857-2.219-2.481,0-4.5,2.019-4.5,4.5,0,1.794,1.12,3.384,2.642,4.106l-2.467,4.241Z"/>
</svg>
