<?xml version="1.0" encoding="UTF-8"?>
<svg xmlns="http://www.w3.org/2000/svg" id="Layer_1" data-name="Layer 1" viewBox="0 0 24 24">
  <path d="m3,2c0-.552.448-1,1-1s1,.448,1,1-.448,1-1,1-1-.448-1-1ZM0,13.5c0-1.93,1.57-3.5,3.5-3.5s3.5,1.57,3.5,3.5-1.57,3.5-3.5,3.5-3.5-1.57-3.5-3.5Zm1,0c0,1.379,1.122,2.5,2.5,2.5s2.5-1.121,2.5-2.5-1.122-2.5-2.5-2.5-2.5,1.121-2.5,2.5Zm17,8.5c-.552,0-1,.448-1,1s.448,1,1,1,1-.448,1-1-.448-1-1-1Zm5-4c-.552,0-1,.448-1,1s.448,1,1,1,1-.448,1-1-.448-1-1-1Zm.697-5.511l.303.131v.645l-.285.148c-.064.031-.806.379-1.969.742-.704,2.226-2.789,3.845-5.245,3.845s-4.541-1.619-5.245-3.845c-1.164-.363-1.906-.711-1.969-.742l-.285-.136v-.645l.303-.144c.033-.014.679-.287,1.721-.498.258-2.794,2.615-4.991,5.476-4.991s5.218,2.196,5.476,4.991c1.042.211,1.688.485,1.721.498Zm-11.697.011c0,.291.028.576.081.852,1.205.338,2.764.648,4.419.648s3.214-.311,4.419-.648c.053-.276.081-.56.081-.852,0-2.481-2.019-4.5-4.5-4.5s-4.5,2.019-4.5,4.5Zm8.535,1.991c-1.16.282-2.553.509-4.035.509s-2.875-.227-4.035-.509c.736,1.486,2.268,2.509,4.035,2.509s3.299-1.024,4.035-2.509ZM7.521,7.521c2.736-2.736,5.794-4.812,8.611-5.846,1.22-.448,2.337-.671,3.298-.671,1.127,0,2.039.307,2.648.916,1.172,1.173,1.18,3.334.259,5.872.261.323.495.667.7,1.031,1.323-3.21,1.335-6.022-.252-7.609-1.436-1.436-3.921-1.606-6.999-.478-2.95,1.083-6.137,3.241-8.973,6.078-.5.5-.976,1.008-1.426,1.518.33.121.644.272.941.45.38-.426.778-.847,1.192-1.262Zm.346,14.803c-2.65.974-4.818.884-5.947-.245-.809-.809-1.063-2.089-.84-3.639-.331-.163-.644-.358-.934-.581-.379,2.061-.058,3.801,1.067,4.927.809.809,1.95,1.216,3.342,1.216,1.08,0,2.312-.245,3.657-.738,2.004-.736,4.117-1.968,6.155-3.572-.378-.112-.743-.252-1.093-.419-1.805,1.36-3.653,2.408-5.407,3.052Z"/>
</svg>
