<?xml version="1.0" encoding="UTF-8"?>
<svg xmlns="http://www.w3.org/2000/svg" id="Layer_1" data-name="Layer 1" viewBox="0 0 24 24" width="512" height="512"><path d="m12,0C5.383,0,0,5.383,0,12s5.383,12,12,12,12-5.383,12-12S18.617,0,12,0Zm-.551,1.014l-1.291,2.945-.336.522,1.339,2.231-1.858-.929-2.717,2.717.5.5h-1.659l-2.747-2.835C4.535,3.211,7.755,1.197,11.449,1.014Zm.551,21.986c-6.065,0-11-4.935-11-11,0-1.77.421-3.443,1.167-4.926l2.836,2.926h2.997l1,1v2l2,2v4h2l3-6.5-4-2.5h-2.5l-1.5-1.5,1.5-1.5,2,1,1-1-1.503-2.504,1.543-3.482c3.657.178,6.85,2.149,8.718,5.051l-3.257,1.941.997,3.987,3.818,2.015c-.946,5.11-5.436,8.992-10.816,8.992Zm-2-10.414v-1.586h1.713l3.01,1.881-2.363,5.119h-.359v-3.414l-2-2Zm9.859-1.269l-.708-2.833,2.608-1.554c.792,1.518,1.24,3.243,1.24,5.07,0,.321-.015.638-.042.952l-3.099-1.635Z"/></svg>
