<?xml version="1.0" encoding="UTF-8"?>
<svg xmlns="http://www.w3.org/2000/svg" id="Layer_1" data-name="Layer 1" viewBox="0 0 24 24">
  <path d="m20.665.087l-.353.394c-.019.021-1.893,2.08-4.38,2.08h-.207L0,18.283l5.715,5.714,15.726-15.723v-.207c0-2.488,2.059-4.362,2.079-4.381l.394-.353L20.665.087ZM5.714,22.583l-4.301-4.3L15.682,4.018l4.3,4.3-14.268,14.266Zm14.777-15.171l-3.903-3.903c1.937-.227,3.433-1.378,4.097-1.989l1.795,1.795c-.612.664-1.762,2.16-1.989,4.097Z"/>
  <circle cx="14.686" cy="9.314" r="1"/>
  <circle cx="11.947" cy="12.053" r="1"/>
  <circle cx="9.208" cy="14.792" r="1"/>
  <circle cx="6.469" cy="17.531" r="1"/>
</svg>
