<?xml version="1.0" encoding="UTF-8"?>
<svg xmlns="http://www.w3.org/2000/svg" id="Layer_1" data-name="Layer 1" viewBox="0 0 24 24" width="512" height="512"><path d="m23.854.854c-.604.604-2.182,2.189-3.764,3.779-1.273,1.279-2.55,2.562-3.325,3.339.076.019.155.029.235.029h5v1h-5c-1.103,0-2-.884-2-1.971V2h1v5.029c0,.088.013.174.037.256.773-.774,2.06-2.068,3.344-3.358,1.583-1.591,3.161-3.177,3.766-3.781l.707.707Zm-6.325,12.983l5.679,5.679-2.879,2.879c-1.033,1.035-2.433,1.605-3.941,1.605C9.189,24,0,14.812,0,7.613,0,6.104.57,4.705,1.605,3.672L4.484.793l5.679,5.679-3.373,3.373c1.49,3.512,3.964,5.988,7.361,7.369l3.377-3.377Zm4.265,5.679l-4.265-4.265-3.131,3.131-.303-.116c-3.921-1.496-6.733-4.307-8.357-8.352l-.123-.307,3.135-3.135L4.484,2.207l-2.172,2.172c-.846.844-1.312,1.993-1.312,3.234,0,6.615,8.771,15.387,15.386,15.387,1.241,0,2.39-.466,3.234-1.312l2.172-2.172Z"/></svg>
