<?xml version="1.0" encoding="UTF-8"?>
<svg xmlns="http://www.w3.org/2000/svg" id="Layer_1" data-name="Layer 1" viewBox="0 0 24 24">
  <path d="m24,13.5v-1.077l-8.554-3.729,6.554-2.867V0h-1v5.173l-7.004,3.065c.616-.55,1.004-1.349,1.004-2.237,0-1.654-1.346-3-3-3s-3,1.346-3,3c0,.889.389,1.688,1.004,2.237l-7.004-3.065V0h-1v5.827l6.554,2.867L0,12.423v1.077l6.879-2.998c-.105.135-.205.274-.3.417L0,19.015v4.985h1v-4.63l4.54-5.588c-.026.236-.04.475-.04.718,0,3.584,2.916,6.5,6.5,6.5s6.5-2.916,6.5-6.5c0-.243-.014-.482-.04-.718l4.54,5.588v4.63h1v-4.985l-6.579-8.096c-.095-.143-.195-.282-.3-.417l6.879,2.998ZM12,4c1.103,0,2,.897,2,2s-.897,2-2,2-2-.897-2-2,.897-2,2-2Zm5.5,10.5c0,3.032-2.468,5.5-5.5,5.5s-5.5-2.468-5.5-5.5c0-1.102.326-2.129.887-2.991h.001s0-.001,0-.001c.982-1.508,2.683-2.508,4.612-2.508s3.63.999,4.612,2.508h0s.001.001.001.001c.56.862.887,1.889.887,2.991Zm-3-2.5l-2,2.5,2,2.5h-5l2-2.5-2-2.5h5Z"/>
</svg>
