<?xml version="1.0" encoding="UTF-8"?>
<svg xmlns="http://www.w3.org/2000/svg" id="Layer_1" data-name="Layer 1" viewBox="0 0 24 24">
  <path d="m12,0C5.383,0,0,5.383,0,12s5.383,12,12,12,12-5.383,12-12S18.617,0,12,0Zm0,1c4.411,0,8,3.589,8,8s-3.589,8-8,8-8-3.589-8-8S7.589,1,12,1Zm0,22c-6.065,0-11-4.935-11-11,0-3.232,1.402-6.143,3.629-8.158-1.026,1.462-1.629,3.24-1.629,5.158,0,4.963,4.038,9,9,9s9-4.037,9-9c0-1.917-.603-3.696-1.629-5.158,2.227,2.014,3.629,4.925,3.629,8.158,0,6.065-4.935,11-11,11Zm-3.5-12.5c0,1.93,1.57,3.5,3.5,3.5s3.5-1.57,3.5-3.5c0-1.344-.762-2.514-1.877-3.1.536-.459.877-1.14.877-1.9,0-1.379-1.122-2.5-2.5-2.5s-2.5,1.121-2.5,2.5c0,.76.341,1.441.877,1.9-1.115.586-1.877,1.756-1.877,3.1Zm3.5-6.5c.827,0,1.5.673,1.5,1.5s-.673,1.5-1.5,1.5-1.5-.673-1.5-1.5.673-1.5,1.5-1.5Zm0,4c1.378,0,2.5,1.121,2.5,2.5s-1.122,2.5-2.5,2.5-2.5-1.121-2.5-2.5,1.122-2.5,2.5-2.5Z"/>
</svg>
