<?xml version="1.0" encoding="UTF-8"?>
<svg xmlns="http://www.w3.org/2000/svg" id="Layer_1" data-name="Layer 1" viewBox="0 0 24 24" width="512" height="512"><path d="M9.17,13.83l-2.734-2.734c-.281-.281-.436-.655-.436-1.052s.155-.771,.436-1.053l2.778-2.777,.707,.707-2.778,2.777c-.092,.092-.143,.215-.143,.346s.051,.253,.143,.345l2.734,2.734-.707,.707Zm7.734-3.441l-2.757,2.757,.707,.707,2.757-2.757c.58-.58,.58-1.524,0-2.105l-2.801-2.801-.707,.707,2.801,2.801c.191,.19,.191,.5,0,.691Zm7.096,5.611v2.5c0,1.378-1.122,2.5-2.5,2.5H2.5c-1.378,0-2.5-1.122-2.5-2.5v-2.5H2V3H22v13h2Zm-21,0h5.707l1,1h4.586l1-1h5.707V4H3v12Zm20,1h-7.293l-1,1h-5.414l-1-1H1v1.5c0,.827,.673,1.5,1.5,1.5H21.5c.827,0,1.5-.673,1.5-1.5v-1.5Z"/></svg>
