<?xml version="1.0" encoding="UTF-8"?>
<svg xmlns="http://www.w3.org/2000/svg" id="Layer_1" data-name="Layer 1" viewBox="0 0 24 24">
  <path d="m24,14.5c0-1.379-1.121-2.5-2.5-2.5h-.306l-1.763-5.291c-.342-1.022-1.295-1.709-2.372-1.709h-4.059v13H0v1h2.176c-.116.32-.176.656-.176,1,0,1.654,1.346,3,3,3s3-1.346,3-3c0-.344-.06-.68-.176-1h8.352c-.116.319-.176.656-.176,1,0,1.654,1.346,3,3,3s3-1.346,3-3c0-.344-.06-.681-.176-1h2.176v-4.5Zm-6.941-8.5c.646,0,1.219.412,1.423,1.025l1.658,4.975h-6.139v-6h3.059Zm-10.059,14c0,1.103-.897,2-2,2s-2-.897-2-2c0-.351.095-.693.277-1h3.446c.182.307.277.649.277,1Zm14,0c0,1.103-.897,2-2,2s-2-.897-2-2c0-.352.095-.693.277-1h3.446c.182.307.277.648.277,1Zm2-2h-9v-5h7.5c.827,0,1.5.673,1.5,1.5v3.5Z"/>
</svg>
