<?xml version="1.0" encoding="UTF-8"?>
<svg xmlns="http://www.w3.org/2000/svg" id="Layer_1" data-name="Layer 1" viewBox="0 0 24 24">
  <path d="m23.268,6.297L17.703.732c-.472-.472-1.1-.732-1.768-.732h-7.87c-.667,0-1.295.26-1.768.732L.732,6.297c-.472.472-.732,1.1-.732,1.768v7.87c0,.667.26,1.295.732,1.768l5.565,5.565c.472.472,1.1.732,1.768.732h7.87c.667,0,1.295-.26,1.768-.732l5.565-5.565c.472-.472.732-1.1.732-1.768v-7.87c0-.667-.26-1.295-.732-1.768Zm-.268,9.638c0,.395-.16.781-.439,1.061l-5.565,5.565c-.279.279-.666.439-1.061.439h-7.87c-.395,0-.781-.16-1.061-.439l-5.565-5.565c-.279-.279-.439-.666-.439-1.061v-7.87c0-.395.16-.781.439-1.061L7.004,1.439c.279-.279.666-.439,1.061-.439h7.87c.395,0,.781.16,1.061.439l5.565,5.565c.279.279.439.666.439,1.061v7.87ZM6,11.5h12v1H6v-1Zm6-6c.827,0,1.5.673,1.5,1.5s-.673,1.5-1.5,1.5-1.5-.673-1.5-1.5.673-1.5,1.5-1.5Zm0,13c-.827,0-1.5-.673-1.5-1.5s.673-1.5,1.5-1.5,1.5.673,1.5,1.5-.673,1.5-1.5,1.5Z"/>
</svg>
