<?xml version="1.0" encoding="UTF-8"?>
<svg xmlns="http://www.w3.org/2000/svg" id="Layer_1" data-name="Layer 1" viewBox="0 0 24 24">
  <path d="m17.707,1h-8.207c-1.379,0-2.5,1.122-2.5,2.5v7.5h1V3.5c0-.827.673-1.5,1.5-1.5h7.5v6h6v14h-15v-6h-1v7h17V7.293l-6.293-6.293Zm.293,1.707l4.293,4.293h-4.293V2.707ZM3,13h10.703l-2.645-2.646.707-.707,2.799,2.801c.579.581.579,1.524,0,2.105l-2.799,2.801-.707-.707,2.645-2.646H3v-1Zm-2,9h4v1H0V4C0,2.346,1.346,1,3,1h2.762c-.206.307-.359.647-.485,1h-2.276c-1.105,0-2,.895-2,2v18Z"/>
</svg>
