<?xml version="1.0" encoding="UTF-8"?>
<svg xmlns="http://www.w3.org/2000/svg" id="Layer_1" data-name="Layer 1" viewBox="0 0 24 24" width="512" height="512"><path d="m21.934,18.044c-.392-2.966-1.12-5.668-2.154-8.066.074.004.144.022.22.022,2.206,0,4-1.794,4-4s-1.794-4-4-4c-.236,0-.463.03-.688.07-1.185-1.129-3.8-2.07-5.812-2.07C8.941,0,3.669,5.592,2.061,18.044c-1.169.209-2.061,1.227-2.061,2.456v3.5h24v-3.5c0-1.23-.894-2.249-2.066-2.456Zm1.066-12.044c0,1.654-1.346,3-3,3s-3-1.346-3-3,1.346-3,3-3,3,1.346,3,3ZM13.5,1c1.69,0,3.624.703,4.697,1.449-1.297.662-2.197,1.997-2.197,3.551,0,1.71,1.084,3.162,2.598,3.733,1.127,2.415,1.897,5.201,2.319,8.267H3.077C4.628,6.335,9.531,1,13.5,1Zm9.5,22H1s0-2.5,0-2.5c0-.827.673-1.5,1.5-1.5h19c.827,0,1.5.673,1.5,1.5v2.5Z"/></svg>
