<?xml version="1.0" encoding="UTF-8"?>
<svg xmlns="http://www.w3.org/2000/svg" id="Layer_1" data-name="Layer 1" viewBox="0 0 24 24" width="512" height="512"><path d="M24,8.5L21.367,0H2.632L0,8.5c0,.951,.382,1.815,1,2.447v10.553c0,1.378,1.122,2.5,2.5,2.5H12.5c1.379,0,2.5-1.122,2.5-2.5V11.662c.623-.297,1.146-.773,1.5-1.361,.613,1.017,1.728,1.699,3,1.699h1c.536,0,1.045-.122,1.5-.338v12.338h1V10.947c.618-.632,1-1.495,1-2.447Zm-11.5,14.5H3.5c-.827,0-1.5-.673-1.5-1.5v-3.5H14v3.5c0,.827-.673,1.5-1.5,1.5Zm1.5-6H2v-5.338c.455,.217,.964,.338,1.5,.338h1c1.272,0,2.387-.682,3-1.699,.613,1.017,1.728,1.699,3,1.699h3c.17,0,.337-.012,.5-.036v5.036Zm5.5-6c-1.379,0-2.5-1.122-2.5-2.5v-.5h-1v.5c0,1.378-1.121,2.5-2.5,2.5h-3c-1.378,0-2.5-1.122-2.5-2.5v-.5h-1v.5c0,1.378-1.122,2.5-2.5,2.5h-1c-1.354,0-2.46-1.082-2.499-2.427L3.368,1h3.632V5h1V1h8V5h1V1h3.633l2.366,7.573c-.039,1.345-1.145,2.427-2.499,2.427h-1Z"/></svg>
