<?xml version="1.0" encoding="UTF-8"?>
<svg xmlns="http://www.w3.org/2000/svg" id="Layer_1" data-name="Layer 1" viewBox="0 0 24 24" width="512" height="512"><path d="M23.06,0c-.821,0-1.59,.403-2.056,1.078l-7.165,10.361-.275-.182c-.71-.471-1.671-.275-2.125,.414l-2.274,3.064c-.169-.931-.371-1.901-.556-2.788l-.194-.934-7.321-.015-.188,.903C.459,14.036-.003,16.242,0,19.34c.002,2.569,2.103,4.66,4.682,4.66h1.103c2.112,0,4.098-1.033,5.312-2.765l4.647-6.683c.47-.71,.274-1.671-.436-2.142l-.635-.42L21.826,1.646c.28-.405,.741-.646,1.233-.646h.94V0h-.94ZM14.755,13.245c.251,.166,.32,.506,.161,.747l-4.64,6.671c-1.026,1.463-2.705,2.337-4.492,2.337h-1.103c-2.028,0-3.68-1.643-3.682-3.66-.003-2.994,.45-5.158,.906-7.339l5.693,.011c.263,1.256,.589,2.819,.77,4.04l.176,1.194,3.712-5.002c.08-.121,.203-.204,.346-.232,.141-.029,.288,0,.409,.079l1.743,1.154Z"/></svg>
