<?xml version="1.0" encoding="UTF-8"?>
<svg xmlns="http://www.w3.org/2000/svg" id="Layer_1" data-name="Layer 1" viewBox="0 0 24 24" width="512" height="512"><path d="m9,8c-1.103,0-2,.897-2,2s.897,2,2,2,2-.897,2-2-.897-2-2-2Zm0,3c-.551,0-1-.449-1-1s.449-1,1-1,1,.449,1,1-.449,1-1,1Zm6-3c-1.103,0-2,.897-2,2s.897,2,2,2,2-.897,2-2-.897-2-2-2Zm0,3c-.551,0-1-.449-1-1s.449-1,1-1,1,.449,1,1-.449,1-1,1ZM12,0C6.486,0,2,4.486,2,10v14h1v-.24c0-1.522,1.238-2.76,2.76-2.76,1.511,0,2.74,1.238,2.74,2.76v.24h1s-.003-.414-.009-.5h.009c0-1.378,1.122-2.5,2.5-2.5s2.5,1.122,2.5,2.5h.008c-.005.079-.008.5-.008.5h1v-.26c0-1.511,1.238-2.74,2.76-2.74,1.511,0,2.74,1.229,2.74,2.74v.26h1v-14C22,4.486,17.514,0,12,0Zm6.26,20c-1.355,0-2.545.717-3.207,1.79-.6-1.067-1.744-1.79-3.053-1.79s-2.454.724-3.054,1.792c-.659-1.075-1.841-1.792-3.186-1.792-1.09,0-2.072.466-2.76,1.209v-11.209C3,5.038,7.038,1,12,1s9,4.038,9,9v11.197c-.683-.736-1.659-1.197-2.74-1.197Z"/></svg>
