<?xml version="1.0" encoding="UTF-8"?>
<svg xmlns="http://www.w3.org/2000/svg" id="Layer_1" data-name="Layer 1" viewBox="0 0 24 24" width="512" height="512"><path d="M22,15v-1.5c0-1.93-1.57-3.5-3.5-3.5s-3.5,1.57-3.5,3.5v1.5h-2v6.5c0,1.38,1.12,2.5,2.5,2.5h6c1.38,0,2.5-1.12,2.5-2.5v-6.5h-2Zm-6-1.5c0-1.38,1.12-2.5,2.5-2.5s2.5,1.12,2.5,2.5v1.5h-5v-1.5Zm7,8c0,.83-.67,1.5-1.5,1.5h-6c-.83,0-1.5-.67-1.5-1.5v-5.5h9v5.5Zm-4-1h-1v-2h1v2ZM4,13v11h-1V14.64l-2.26,2.32L.03,16.27l3.18-3.27h.8ZM8,4C8,1.79,6.21,0,4,0S0,1.79,0,4v3c0,2.21,1.79,4,4,4s4-1.79,4-4v-3Zm-1,3c0,1.65-1.35,3-3,3s-3-1.35-3-3v-3c0-1.65,1.35-3,3-3s3,1.35,3,3v3Zm4.24,15.89c.13,.38,.29,.75,.51,1.08-2.09-.13-3.75-1.86-3.75-3.97v-3c0-1.86,1.28-3.41,3-3.86v1.04c-1.16,.41-2,1.51-2,2.82v3c0,1.39,.96,2.55,2.24,2.89Zm.5-18.93l-.72-.7L14.2,0h.8V9.28c-.38,.32-.72,.68-1,1.08V1.64l-2.26,2.32Z"/></svg>
