<?xml version="1.0" encoding="UTF-8"?>
<svg xmlns="http://www.w3.org/2000/svg" id="Layer_1" data-name="Layer 1" viewBox="0 0 24 24">
  <path d="m24,1.771s-1.667-.513-3.748-.829c-.761-.59-1.716-.942-2.752-.942-1.005,0-1.935.331-2.685.891-2.125.324-3.907.814-3.907.814.271,1.102,1.111,1.915,2.13,2.205-.025.193-.039.391-.039.591v1.537c-.536.079-1.05.285-1.5.602-.589-.415-1.285-.64-2-.64-1.05,0-2.025.466-2.687,1.267-.423-.177-.863-.267-1.313-.267-1.93,0-3.5,1.57-3.5,3.5,0,.113.006.227.019.343-1.223.57-2.019,1.79-2.019,3.157s.795,2.586,2.019,3.157c-.012.116-.019.229-.019.343,0,1.76,1.306,3.221,3,3.464v3.036h3v-2.339c.461.22.971.339,1.5.339.715,0,1.411-.225,2-.64.589.415,1.285.64,2,.64.955,0,1.849-.386,2.5-1.058v3.058h3v-3.338c1.181-.563,2-1.769,2-3.162,0-.113-.006-.227-.019-.343,1.223-.571,2.019-1.791,2.019-3.157,0-.648-.184-1.26-.502-1.788-.236.236-.494.453-.779.645.18.345.281.735.281,1.143,0,1.077-.696,2.028-1.733,2.365l-.433.141s.166.822.166.994c0,1.379-1.122,2.5-2.5,2.5-.421,0-.832-.112-1.223-.335l-.415-.236-.255.403c-.463.731-1.251,1.168-2.107,1.168-.608,0-1.2-.23-1.666-.65l-.334-.301-.334.301c-.466.42-1.057.65-1.666.65-.856,0-1.645-.437-2.107-1.168l-.255-.403-.415.236c-.391.223-.802.335-1.223.335-1.378,0-2.5-1.121-2.5-2.5,0-.172.166-.994.166-.994l-.433-.141c-1.037-.337-1.733-1.288-1.733-2.365s.696-2.028,1.732-2.365l.434-.141s-.166-.822-.166-.995c0-1.378,1.122-2.5,2.5-2.5.42,0,.832.113,1.224.335l.414.234.255-.402c.463-.731,1.251-1.167,2.107-1.167.608,0,1.2.231,1.666.65l.334.301.334-.301c.337-.303.739-.507,1.166-.597v1.326c0,2.268,1.682,3.621,4.5,3.621s4.5-1.354,4.5-3.621v-3.879c0-.2-.013-.398-.039-.591.977-.291,1.778-1.077,2.039-2.138Zm-7,19.192c.165.025.332.037.5.037.17,0,.337-.012.5-.036v2.036h-1v-2.037Zm-11,0c.277-.042.549-.118.813-.229.077.094.159.182.245.267h-.058v2h-1v-2.037Zm15-12.584c0,2.281-2.193,2.621-3.5,2.621s-3.5-.34-3.5-2.621v-3.879c0-1.93,1.57-3.5,3.5-3.5s3.5,1.57,3.5,3.5v3.879Zm-1-3.379c0,.552-.448,1-1,1s-1-.448-1-1,.448-1,1-1,1,.448,1,1Zm-3,0c0,.552-.448,1-1,1s-1-.448-1-1,.448-1,1-1,1,.448,1,1Z"/>
</svg>
