<?xml version="1.0" encoding="UTF-8"?>
<svg xmlns="http://www.w3.org/2000/svg" id="Layer_1" data-name="Layer 1" viewBox="0 0 24 24">
  <path d="m20.5,10c-2.481,0-4.5,2.019-4.5,4.5v4c0,2.481-2.019,4.5-4.5,4.5s-4.5-2.019-4.5-4.5v-3.5h.5c2.481,0,4.5-2.019,4.5-4.5v-4.5h1v-1h-3V0h-1v5h-5V0h-1v5H0v1h1v4.5c0,2.481,2.019,4.5,4.5,4.5h.5v3.5c0,3.032,2.468,5.5,5.5,5.5s5.5-2.468,5.5-5.5v-4c0-1.93,1.57-3.5,3.5-3.5h3.5v-1h-3.5Zm-18.5.5v-4.5h9v4.5c0,1.93-1.57,3.5-3.5,3.5h-2c-1.93,0-3.5-1.57-3.5-3.5Z"/>
</svg>
