<?xml version="1.0" encoding="UTF-8"?>
<svg xmlns="http://www.w3.org/2000/svg" id="Layer_1" data-name="Layer 1" width="512" height="512" viewBox="0 0 24 24"><path d="M12,11c-.37,0-.717,.102-1.015,.278L6.354,6.646l-.707,.707,4.631,4.631c-.176,.298-.278,.645-.278,1.015,0,1.103,.897,2,2,2s2-.897,2-2-.897-2-2-2Zm0,3c-.552,0-1-.448-1-1s.448-1,1-1,1,.448,1,1-.448,1-1,1Zm12-1c0,3.897-1.911,7.568-5.113,9.818l-.319,.225-2.713-2.347,.654-.756,2.117,1.831c2.746-2.078,4.374-5.328,4.374-8.771,0-6.065-4.935-11-11-11S1,6.935,1,13c0,3.443,1.628,6.693,4.374,8.771l2.117-1.831,.654,.756-2.713,2.347-.319-.225C1.911,20.568,0,16.897,0,13,0,6.383,5.383,1,12,1s12,5.383,12,12Z"/></svg>
