<?xml version="1.0" encoding="UTF-8"?>
<svg xmlns="http://www.w3.org/2000/svg" id="Layer_1" data-name="Layer 1" viewBox="0 0 24 24">
  <path d="m12,0C5.383,0,0,5.383,0,12s5.383,12,12,12,12-5.383,12-12S18.617,0,12,0Zm0,23c-6.065,0-11-4.935-11-11S5.935,1,12,1s11,4.935,11,11-4.935,11-11,11Zm0-13.5c-1.379,0-2.5,1.121-2.5,2.5s1.121,2.5,2.5,2.5,2.5-1.121,2.5-2.5-1.121-2.5-2.5-2.5Zm0,4c-.827,0-1.5-.673-1.5-1.5s.673-1.5,1.5-1.5,1.5.673,1.5,1.5-.673,1.5-1.5,1.5Zm4-6.5h-.902l-1.33-2h-3.535l-1.33,2h-.902c-1.103,0-2,.897-2,2v8h12v-8c0-1.103-.897-2-2-2Zm-5.232-1h2.465l.665,1h-3.795l.665-1Zm6.232,10H7v-7c0-.552.448-1,1-1h8c.552,0,1,.448,1,1v7Z"/>
</svg>
