<?xml version="1.0" encoding="UTF-8"?>
<svg xmlns="http://www.w3.org/2000/svg" id="Layer_1" data-name="Layer 1" viewBox="0 0 24 24" width="512" height="512"><path d="m5.301,5.082l2.6-1.3-2.6-1.301L4-.117l-1.301,2.599L.1,3.782l2.6,1.3,1.301,2.601,1.301-2.601Zm-2.965-1.3l1.109-.555.555-1.11.555,1.11,1.109.555-1.109.554-.555,1.11-.555-1.11-1.109-.554Zm19.287.495l-1.123-2.245-1.123,2.245-2.245,1.123,2.245,1.123,1.123,2.245,1.123-2.245,2.245-1.123-2.245-1.123Zm-.746,1.5l-.377.755-.377-.755-.755-.377.755-.377.377-.755.377.755.755.377-.755.377Zm-12.877,13.223h8v1h-8v-1Zm-3.959-6.284l.822.568,3.605-5.207c.149-.215.329-.403.531-.559v7.481h6v-7.482c.202.156.382.343.531.558l3.605,5.208.822-.568-3.605-5.209c-.654-.943-1.73-1.507-2.878-1.507h-2.951c-1.147,0-2.224.563-2.878,1.508l-3.605,5.208Zm9.435-5.716c.178,0,.354.019.524.056v6.944h-4v-6.944c.171-.037.346-.056.524-.056h2.951ZM4,23h16v1H4v-1ZM12,5c1.379,0,2.5-1.121,2.5-2.5s-1.121-2.5-2.5-2.5-2.5,1.121-2.5,2.5,1.121,2.5,2.5,2.5Zm0-4c.827,0,1.5.673,1.5,1.5s-.673,1.5-1.5,1.5-1.5-.673-1.5-1.5.673-1.5,1.5-1.5Z"/></svg>
