<?xml version="1.0" encoding="UTF-8"?>
<svg xmlns="http://www.w3.org/2000/svg" id="Layer_1" data-name="Layer 1" viewBox="0 0 24 24">
  <path d="m12,13.5c-.827,0-1.5-.673-1.5-1.5s.673-1.5,1.5-1.5,1.5.673,1.5,1.5-.673,1.5-1.5,1.5Zm.5-8.618v-1.882h2v-1h-2V0h-1v2h-2v1h2v1.882L0,13.246v10.754h3v-3.5c0-.276.224-.5.5-.5s.5.224.5.5v3.5h16v-3.5c0-.276.224-.5.5-.5s.5.224.5.5v3.5h3v-10.754L12.5,4.882Zm1.5,18.118h-4v-4c0-1.103.897-2,2-2s2,.897,2,2v4Zm-2-7c-1.654,0-3,1.346-3,3v4h-2v-13.609l5-3.636,5,3.636v13.609h-2v-4c0-1.654-1.346-3-3-3Zm-8.5,3c-.827,0-1.5.673-1.5,1.5v2.5h-1v-9.246l5-3.636v12.882h-1v-2.5c0-.827-.673-1.5-1.5-1.5Zm19.5,4h-1v-2.5c0-.827-.673-1.5-1.5-1.5s-1.5.673-1.5,1.5v2.5h-1v-12.882l5,3.636v9.246Zm-18.75-5.5h-1.5v-2.25c0-.414.336-.75.75-.75s.75.336.75.75v2.25Zm17,0h-1.5v-2.25c0-.414.336-.75.75-.75s.75.336.75.75v2.25Z"/>
</svg>
