<?xml version="1.0" encoding="UTF-8"?>
<svg xmlns="http://www.w3.org/2000/svg" id="Layer_1" data-name="Layer 1" viewBox="0 0 24 24">
  <path d="m21.434,15.383c.71.238,1.394.568,2.03.983l.546-.838c-.708-.461-1.467-.829-2.258-1.093-1.047-.35-1.751-1.308-1.751-2.384v-2.1c2.114-.22,4-1.195,4-3.077,0-1.988-1.982-4.875-5-4.875-.019,0,0-2,0-2-1.657,0-3,1.343-3,3v.373c-.622.703-1,1.623-1,2.627,0,.317.038.626.109.922-.065.878-1.638,1.909-3.301,2.999-3.033,1.989-6.808,4.463-6.808,8.75,0,.588.062,1.128.186,1.623-.094-.131-.184-.266-.269-.405-1.787-2.919-3.917-7.699-3.917-13.889C1,3.243,3.243,1,6,1s5,2.243,5,5c0,.91-.245,1.764-.671,2.5.128-.084,1.091-.715,1.476-.979.127-.486.195-.995.195-1.52,0-3.309-2.691-6-6-6S0,2.691,0,6c0,6.423,2.21,11.382,4.064,14.412,1.375,2.247,3.769,3.588,6.403,3.588h11.532v-1h-5.003c1.216-.913,2.003-2.366,2.003-4,0-2.757-2.243-5-5-5v1c2.206,0,4,1.794,4,4s-1.794,4-4,4h-3.532c-.772,0-1.521-.134-2.22-.385-1.555-.872-2.248-2.089-2.248-3.944,0-3.746,3.524-6.057,6.356-7.913,1.426-.935,2.648-1.736,3.285-2.602.712,1.094,1.95,1.825,3.359,1.844v2.052c0,1.507.978,2.846,2.434,3.332Zm-5.434-9.383c0-1.654,1.371-3,3.056-3,2.288,0,3.944,2.314,3.944,3.875,0,1.681-2.58,2.125-3.944,2.125-1.685,0-3.056-1.346-3.056-3Z"/>
</svg>
