<?xml version="1.0" encoding="UTF-8"?>
<svg xmlns="http://www.w3.org/2000/svg" id="Layer_1" data-name="Layer 1" viewBox="0 0 24 24" width="512" height="512"><path d="M21,8V2.894c0-1.132-.753-2.124-1.831-2.412-1.784-.476-3.593-.481-3.669-.481h-7c-.076,0-1.885,.005-3.669,.481-1.078,.288-1.831,1.28-1.831,2.412v5.106c0,1.205-1.477,3.202-2,3.816v12.184H23V11.815c-.522-.613-2-2.607-2-3.815Zm-9.5,15H2v-6h6v-1H2v-3.82c.452-.56,2-2.591,2-4.18V2.894c0-.68,.448-1.275,1.089-1.446,.939-.25,1.905-.361,2.569-.409l3.843,11.046v10.915ZM8.704,1h6.593l-3.296,9.478L8.704,1Zm13.296,15h-6v1h6v6H12.5V12.085L16.343,1.038c.664,.049,1.63,.159,2.569,.409,.641,.171,1.089,.766,1.089,1.446v5.106c0,1.588,1.548,3.62,2,4.18v3.82Z"/></svg>
