<?xml version="1.0" encoding="UTF-8"?>
<svg xmlns="http://www.w3.org/2000/svg" id="Layer_1" data-name="Layer 1" viewBox="0 0 24 24">
  <path d="m14.975,7c.01-.166.025-.331.025-.5s-.016-.334-.025-.5h3.525c.467,0,.899.137,1.274.36-.397.161-.755.393-1.087.658-.062-.008-.122-.019-.186-.019h-3.525Zm5.025,16H4v-8.375c-.344-.106-.676-.238-1-.385v9.76h18v-6.636l-1,1v4.636ZM6.5,13c-3.584,0-6.5-2.916-6.5-6.5S2.916,0,6.5,0s6.5,2.916,6.5,6.5-2.916,6.5-6.5,6.5Zm0-1c3.033,0,5.5-2.468,5.5-5.5S9.533,1,6.5,1,1,3.468,1,6.5s2.467,5.5,5.5,5.5Zm3.641-6.738l-.701-.713-3.46,3.402c-.054.057-.179.055-.241-.006l-1.856-1.8-.696.719,1.851,1.794c.221.221.514.342.825.342s.604-.121.822-.339l3.457-3.399Zm13.126,7.006l-7.732,7.732h-3.536v-3.535l7.732-7.732c.943-.945,2.592-.945,3.535,0,.975.975.975,2.561,0,3.535Zm-.707-2.828c-.566-.566-1.555-.566-2.121,0l-7.439,7.439v2.121h2.122l7.439-7.439c.585-.585.585-1.536,0-2.121Z"/>
</svg>
