<?xml version="1.0" encoding="UTF-8"?>
<svg xmlns="http://www.w3.org/2000/svg" id="Layer_1" data-name="Layer 1" viewBox="0 0 24 24">
  <path d="m22.678,16.314l-3.178-3.108-3.182,3.112c-.851.85-1.318,1.979-1.318,3.182s.468,2.332,1.318,3.182c.849.85,1.979,1.318,3.182,1.318s2.331-.468,3.182-1.318c.851-.85,1.318-1.979,1.318-3.182s-.468-2.332-1.322-3.186Zm-.703,5.66c-1.322,1.323-3.629,1.322-4.949,0-.661-.661-1.025-1.54-1.025-2.475s.364-1.813,1.021-2.471l2.479-2.425,2.475,2.421c.661.661,1.025,1.54,1.025,2.475s-.364,1.813-1.025,2.475Zm-10.975-1.975v-9h4v3.811l1-.978v-2.832h4.105l.895.876V2.5c0-1.379-1.121-2.5-2.5-2.5H2.5C1.121,0,0,1.121,0,2.5v18.5h13.18c-.077-.327-.13-.66-.156-1h-2.024ZM16,1h2.5c.827,0,1.5.673,1.5,1.5v7.5h-4V1Zm-5,0h4v9h-4V1Zm-6,19H1v-9h4v9Zm0-10H1V2.5c0-.827.673-1.5,1.5-1.5h2.5v9Zm5,10h-4v-9h4v9Zm0-10h-4V1h4v9Z"/>
</svg>
