<?xml version="1.0" encoding="UTF-8"?>
<svg xmlns="http://www.w3.org/2000/svg" id="Layer_1" data-name="Layer 1" viewBox="0 0 24 24" width="512" height="512"><path d="m15.5,3H7.5c-.827,0-1.5-.673-1.5-1.5V0h-1v1.5c0,1.379,1.121,2.5,2.5,2.5h1.5v10c0,2.398-3.061,3.778-3.596,4.001h-.904c-1.379,0-2.5,1.121-2.5,2.5v3.499h1v-3.499c0-.827.673-1.5,1.5-1.5h.862c2.468,1.47,5.051,2.97,10.14,2.999h.037c1.701,0,3.311-.668,4.533-1.884,1.243-1.236,1.928-2.875,1.928-4.615v-6.001c0-3.584-2.916-6.5-6.5-6.5Zm0,1c3.032,0,5.5,2.468,5.5,5.5v2.098c-.602-.293-1.527-.598-2.772-.598-1.176,0-1.941.269-2.682.528-.691.242-1.345.472-2.351.472-1.532,0-2.72-.536-3.195-.789v-7.211h5.5Zm3.867,15.407c-1.034,1.028-2.393,1.593-3.829,1.593h-.03c-4.353-.024-6.695-1.142-8.936-2.446,1.269-.672,3.428-2.167,3.428-4.554v-1.677c.697.308,1.82.677,3.195.677,1.176,0,1.941-.269,2.682-.528.691-.242,1.345-.472,2.351-.472,1.507,0,2.423.505,2.772.745v2.756c0,1.472-.58,2.859-1.633,3.906Z"/></svg>
