<?xml version="1.0" encoding="UTF-8"?>
<svg xmlns="http://www.w3.org/2000/svg" id="Layer_1" data-name="Layer 1" viewBox="0 0 24 24">
  <path d="m13.373,23c.351.368.716.701,1.079,1H2.5c-1.378,0-2.5-1.122-2.5-2.5V2h5.05c.232-1.14,1.242-2,2.45-2h3c1.208,0,2.217.86,2.45,2h5.05v6.277l-1,.332V3h-5v-.5c0-.827-.673-1.5-1.5-1.5h-3c-.827,0-1.5.673-1.5,1.5v.5H1v18.5c0,.827.673,1.5,1.5,1.5h10.873Zm10.627-9.797v4.346c0,4.096-3.888,5.978-5.08,6.458l-.441.177-.425-.212c-1.186-.592-5.054-2.806-5.054-6.422v-4.346c0-.694.443-1.308,1.104-1.526l4.396-1.458,4.396,1.458c.66.218,1.104.832,1.104,1.526Zm-1,0c0-.263-.168-.495-.417-.577l-4.083-1.354-4.082,1.354c-.25.083-.418.315-.418.577v4.346c0,3.042,3.445,5,4.501,5.528l.022.011.023-.009c1.044-.42,4.453-2.061,4.453-5.53v-4.346Zm-9-6.203H4v1h10v-1Zm-3,4h-7v1h7v-1Zm-7,5h7v-1h-7v1Z"/>
</svg>
