<?xml version="1.0" encoding="UTF-8"?>
<svg xmlns="http://www.w3.org/2000/svg" id="Layer_1" data-name="Layer 1" viewBox="0 0 24 24" width="512" height="512"><path d="m3.539.26l-.038-.02C2.565-.194,1.481-.025.738.671.041,1.323-.182,2.273.187,3.217l4.933,8.785L.247,20.853c-.337.879-.111,1.829.587,2.479.465.434,1.062.661,1.68.661.374,0,.755-.083,1.121-.254l20.368-11.74L3.539.26ZM1.09,2.792c-.192-.498-.068-1.018.331-1.391.229-.214.594-.4,1.018-.4.197,0,.407.041.622.138l18.063,10.361H5.985L1.09,2.792Zm2.084,20.061c-.562.262-1.212.163-1.658-.252-.4-.373-.525-.893-.364-1.328l4.837-8.772h15.144L3.174,22.853Z"/></svg>
