<?xml version="1.0" encoding="UTF-8"?>
<svg xmlns="http://www.w3.org/2000/svg" id="Layer_1" data-name="Layer 1" viewBox="0 0 24 24">
  <path d="m22.5,23c-.624,0-1.204-.192-1.685-.52l1.797-3.676s.001-.006.002-.009h.001c.709-1.522.417-3.306-.716-4.519l2.101-4.327-2.698-1.31-2.121,4.368c-1.668-.108-3.206.826-3.917,2.345,0,0,0,0,0,.001v.003s-.002,0-.002.001h0s-2.62,5.507-2.62,5.507c-.084-.276-.142-.562-.142-.865h-1c0,1.654-1.346,3-3,3s-3-1.346-3-3h-1c0,1.654-1.346,3-3,3-.384,0-.756-.071-1.106-.211l-.371.93c.47.187.966.281,1.478.281,1.516,0,2.822-.857,3.5-2.103.678,1.246,1.984,2.103,3.5,2.103s2.822-.857,3.5-2.103c.678,1.246,1.984,2.103,3.5,2.103s2.822-.857,3.5-2.103c.678,1.246,1.984,2.103,3.5,2.103.512,0,1.008-.095,1.478-.281l-.371-.93c-.351.14-.723.211-1.106.211Zm-3-3h-1c0,1.654-1.346,3-3,3-.909,0-1.714-.415-2.265-1.055l2.931-6.162s0-.003.001-.004h0c.563-1.208,1.825-1.914,3.153-1.756l.453.053,1.991-4.101.899.437-1.98,4.078.347.33c.969.915,1.242,2.342.68,3.55l-1.647,3.369c-.352-.492-.565-1.089-.565-1.739Zm-14.5-7.103c.678,1.246,1.984,2.103,3.5,2.103s2.817-.854,3.497-2.097c.352.636.868,1.169,1.495,1.536.147-.303.317-.589.506-.858-.891-.521-1.497-1.477-1.497-2.581l-3.916-7.073c.217-.926.964-2.879,3.434-2.965l-.035-1c-2.915.102-4.098,2.349-4.405,3.862L.349,7.475l3.111,5.778c-.527.46-1.208.748-1.961.748-.384,0-.756-.071-1.106-.211l-.371.93c.47.187.966.281,1.478.281,1.516,0,2.822-.857,3.5-2.103Zm3.5,1.103c-1.654,0-3-1.346-3-3h-1c0,.516-.143.995-.373,1.419l-1.192-2.203,6.219-3.14,2.321,4.174c-.129,1.536-1.406,2.75-2.975,2.75Zm-.628-9.23l.796,1.431-6.208,3.135-.756-1.399,6.169-3.168Zm-6.372-.77c-.512,0-1.008-.095-1.478-.281l.371-.93c.351.14.723.211,1.106.211,1.654,0,3-1.346,3-3h1c0,.813.328,1.549.854,2.09-.191.285-.36.58-.509.88-.342-.306-.618-.679-.841-1.083-.677,1.251-1.985,2.113-3.505,2.113Zm14,0c-.531,0-1.036-.109-1.5-.297v-1.12c.443.258.951.417,1.5.417,1.654,0,3-1.346,3-3h1c0,1.654,1.346,3,3,3,.384,0,.756-.071,1.106-.211l.371.93c-.47.187-.966.281-1.478.281-1.516,0-2.822-.857-3.5-2.103-.678,1.246-1.984,2.103-3.5,2.103Z"/>
</svg>
