<?xml version="1.0" encoding="UTF-8"?>
<svg xmlns="http://www.w3.org/2000/svg" id="Layer_1" data-name="Layer 1" viewBox="0 0 24 24" width="512" height="512"><path d="m12.274,9.934l-3.785,3.728c-.226.226-.523.338-.821.338s-.599-.113-.826-.341l-1.889-1.832.696-.718,1.894,1.837c.062.061.186.062.241.005l3.787-3.73.702.713Zm-2.274,9.066h8v-1h-8v1Zm-4,0h2v-1h-2v1Zm4-13h8v-1h-8v1Zm-2-1h-2v1h2v-1Zm14-2.5v21.5H2V2.5c0-1.378,1.122-2.5,2.5-2.5h15c1.378,0,2.5,1.122,2.5,2.5Zm-1,0c0-.827-.673-1.5-1.5-1.5H4.5c-.827,0-1.5.673-1.5,1.5v20.5h18V2.5Zm-9,10.051h6v-1h-4.979l-1.021,1Z"/></svg>
