<?xml version="1.0" encoding="UTF-8"?>
<svg xmlns="http://www.w3.org/2000/svg" id="Layer_1" data-name="Layer 1" viewBox="0 0 24 24" width="512" height="512"><path d="M23.106,16.354l-5.209,4.903c-1.944,1.771-4.455,2.743-7.077,2.743H0v-1H10.82c2.372,0,4.645-.88,6.397-2.478l5.192-4.887c.547-.547,.651-1.407,.23-1.991-.266-.37-.658-.594-1.104-.63-.438-.03-.87,.123-1.183,.435l-4.011,3.776-.018-.019c-.456,.488-1.105,.793-1.825,.793h-5.5v-1h5.5c.827,0,1.5-.673,1.5-1.5v-1.5h-7.188c-2.537,0-4.923,.988-6.718,2.782l-1.322,1.323-.707-.707,1.322-1.323c1.984-1.983,4.621-3.075,7.425-3.075h8.188v2.233l2.657-2.502c.509-.509,1.239-.775,1.959-.713,.732,.059,1.402,.438,1.836,1.042,.704,.977,.555,2.393-.346,3.293ZM4,.5V0h.5c3.846,0,6.078,1.201,7,3.904,.922-2.703,3.154-3.904,7-3.904h.5V.5c0,5.087-2.101,7.352-7,7.493v3.007h-1v-3.007c-4.899-.141-7-2.406-7-7.493ZM12.007,6.993c4.192-.121,5.865-1.794,5.986-5.986-4.192,.121-5.865,1.794-5.986,5.986ZM5.007,1.007c.121,4.192,1.794,5.865,5.986,5.986-.121-4.192-1.794-5.865-5.986-5.986Z"/></svg>
