<?xml version="1.0" encoding="UTF-8"?>
<svg xmlns="http://www.w3.org/2000/svg" id="Layer_1" data-name="Layer 1" viewBox="0 0 24 24">
  <path d="m6.998,8.12l.624.449,2.866-1.35,2.124,2.864.718-.224-.097-2.769,9.746,6.498.555-.832-9.765-6.51,2.733-.814.011-.762-3.371-1.062.313-3.162-.62-.446-2.104,2.927-3.617-1.393-.472.657,2.472,2.985-2.116,2.944Zm1.833-4.853l1.54.593.721.278.451-.627.7-.974-.096.973-.08.808.775.244,1.497.472-1.413.421-.741.221.027.773.052,1.486-.971-1.309-.488-.658-.741.349-.809.381.672-.935.451-.627-.492-.595-1.053-1.271Zm3.395,10.507l1.774.518v.404l-1.773.525-.519,1.778h-.404l-.526-1.777-1.777-.526v-.404l1.778-.519.525-1.773h.404l.518,1.774Zm4.774,5.226h7v1h-7c-2.584,0-3.495,1.448-3.819,2.484.708-.785,1.882-1.484,3.819-1.484h7v1h-7c-1.263,0-2.242.337-2.928,1h9.928v1H0v-1h9.928c-.685-.663-1.664-1-2.928-1H0v-1h7c1.937,0,3.11.699,3.819,1.484-.324-1.035-1.235-2.484-3.819-2.484H0v-1h7c3.944,0,4.824,2.831,5,4,.176-1.169,1.056-4,5-4ZM1.777,7.223l-1.777-.526v-.404l1.778-.519.525-1.773h.404l.518,1.774,1.774.518v.404l-1.773.525-.519,1.778h-.404l-.526-1.777Zm22.223-3.931v.404l-1.773.525-.519,1.778h-.404l-.526-1.777-1.777-.526v-.404l1.778-.519.525-1.773h.404l.518,1.774,1.774.518Z"/>
</svg>
