<?xml version="1.0" encoding="UTF-8"?>
<svg xmlns="http://www.w3.org/2000/svg" id="Layer_1" data-name="Layer 1" viewBox="0 0 24 24" width="512" height="512"><path d="M23.86,.847l-.707-.707L15.116,8.177,10.116,3.177,0,13.293v7.207c0,1.93,1.57,3.5,3.5,3.5h7.207l10.116-10.116-5-5L23.86,.847ZM1,20.5v-5.389c1.086,1.091,2.754,1.889,3.942,1.889,1.006,0,1.82-.181,2.474-.425-.242,.647-.417,1.442-.417,2.425,0,1.223,.61,2.815,1.908,4H3.5c-1.379,0-2.5-1.121-2.5-2.5Zm9.421,2.372c-1.584-.94-2.421-2.616-2.421-3.872,0-1.995,.799-3.092,1.274-3.567l2.947-2.947-.707-.707-2.947,2.947c-.299,.299-1.444,1.274-3.625,1.274-1.188,0-3.219-1.196-3.838-2.398L10.116,4.591l9.293,9.293-8.988,8.988Z"/></svg>
