<?xml version="1.0" encoding="UTF-8"?>
<svg xmlns="http://www.w3.org/2000/svg" id="Layer_1" data-name="Layer 1" viewBox="0 0 24 24" width="512" height="512"><path d="m9,16h6v-2h2v-4c0-2.726-2.273-4.944-5-4.944s-5,2.226-5,4.944v4h2v2Zm-1-3v-3c0-2.175,1.825-3.944,4-3.944s4,1.77,4,3.944c0,.913-.017,2.269,0,3h-2v2h-4v-2h-2ZM20.5,0H4.5c-1.379,0-2.5,1.122-2.5,2.5v19c0,1.378,1.121,2.5,2.5,2.5h17.5V1.5c0-.827-.673-1.5-1.5-1.5ZM4.5,1h16c.275,0,.5.224.5.5v17.5H4.5c-.562,0-1.082.187-1.5.501V2.5c0-.827.673-1.5,1.5-1.5Zm0,22c-.827,0-1.5-.673-1.5-1.5s.673-1.5,1.5-1.5h16.5v3H4.5Zm5.5-12c-.552,0-1-.448-1-1s.448-1,1-1,1,.448,1,1-.448,1-1,1Zm3-1c0-.552.448-1,1-1s1,.448,1,1-.448,1-1,1-1-.448-1-1Z"/></svg>
