<?xml version="1.0" encoding="UTF-8"?>
<svg xmlns="http://www.w3.org/2000/svg" id="Layer_1" data-name="Layer 1" viewBox="0 0 24 24">
  <path d="m23.828,14.168c-.94-2.04-2.7-3.597-4.836-4.299C18.929,5.145,18.419.004,15.502-.006h-.011C12.765-.006,11.655,4.284,11.21,7.308c-1.265-.28-1.818-.299-2.129-.308-1.792-.056-3.76.593-5.321,1.759l-.284.212.475,1.519.376-.008c2.617-.054,4.94.335,6.446.676-.641,3.922-3.372,6.066-5.554,7.159-2.363,1.018-3.614,2.944-4.021,3.678H0v1h1.271c.352.35,1.307,1.012,3.743,1.012,1.628,0,6.495-.311,10.102-3.643-.087-.4-.182-.775-.282-1.133-3.641,3.704-9.098,3.791-10.12,3.77v-.006c-1.552,0-2.293-.368-2.6-.59.389-.672,1.503-2.31,3.525-3.182,3.427-1.714,5.523-4.42,6.105-7.825.342.092.59.167.713.207.945.857,3.485,3.266,4.588,8.211l.065.293,1.4.39.174-.399c1.023-2.361.878-4.792.442-6.155h0c1.286.213,2.428.627,3.393,1.231l.268.167,1.223-.777-.183-.396ZM4.86,9.476h-.179l-.038-.119c1.318-.893,2.934-1.411,4.413-1.356.281.008.786.023,2.033.305.129.713.39,1.449.804,2.094-1.347-.36-3.947-.923-7.033-.923Zm7.222-1.322l.021.003c.542-4.419,1.84-7.162,3.39-7.162h.005c1.609.006,2.449,3.153,2.499,9.346-.531.511-1.596,1.223-3.254.911-1.919-.365-2.497-2.258-2.661-3.097Zm7.21,4.802l-1.613-.27.496,1.561c.383,1.197.44,3.162-.231,5.012-.828-3.438-2.316-5.685-3.488-7.046.033.007.067.014.102.021,1.924.362,3.447-.417,4.317-1.354,1.617.583,2.969,1.732,3.801,3.226-.992-.555-2.128-.94-3.383-1.148Z"/>
</svg>
