<?xml version="1.0" encoding="UTF-8"?>
<svg xmlns="http://www.w3.org/2000/svg" id="Layer_1" data-name="Layer 1" viewBox="0 0 24 24">
  <path d="m5,21h2.065c-.182.31-.33.642-.423,1h-1.642c-1.657,0-3-1.343-3-3v-2h1v2c0,1.105.895,2,2,2Zm0-19c-1.657,0-3,1.343-3,3v1.297c.314-.127.653-.201,1-.246v-1.05c0-1.105.895-2,2-2h3.145c-.086-.321-.145-.652-.145-1h-3Zm16,3v1.05c.347.045.686.119,1,.246v-1.297c0-1.657-1.343-3-3-3h-3c0,.348-.059.679-.145,1h3.145c1.105,0,2,.895,2,2Zm0,14c0,1.105-.895,2-2,2h-2.065c.182.31.33.642.423,1h1.642c1.657,0,3-1.343,3-3v-2h-1v2ZM10,2c0-1.103.897-2,2-2s2,.897,2,2-.897,2-2,2-2-.897-2-2Zm1,0c0,.552.449,1,1,1s1-.448,1-1-.449-1-1-1-1,.448-1,1Zm2.5,3h-3c-1.103,0-2,.897-2,2v1h1v-1c0-.552.449-1,1-1h3c.551,0,1,.448,1,1v1h1v-1c0-1.103-.897-2-2-2Zm-3.5,13c0-1.103.897-2,2-2s2,.897,2,2-.897,2-2,2-2-.897-2-2Zm1,0c0,.552.449,1,1,1s1-.448,1-1-.449-1-1-1-1,.448-1,1Zm2.5,3h-3c-1.103,0-2,.897-2,2v1h1v-1c0-.552.449-1,1-1h3c.551,0,1,.448,1,1v1h1v-1c0-1.103-.897-2-2-2Zm8.5-8h-3c-1.103,0-2,.897-2,2v1h1v-1c0-.552.449-1,1-1h3c.551,0,1,.448,1,1v1h1v-1c0-1.103-.897-2-2-2Zm-17,1c.551,0,1,.448,1,1v1h1v-1c0-1.103-.897-2-2-2h-3c-1.103,0-2,.897-2,2v1h1v-1c0-.552.449-1,1-1h3Zm17.5-4c0,1.103-.897,2-2,2s-2-.897-2-2,.897-2,2-2,2,.897,2,2Zm-1,0c0-.552-.449-1-1-1s-1,.448-1,1,.449,1,1,1,1-.448,1-1Zm-20,0c0-1.103.897-2,2-2s2,.897,2,2-.897,2-2,2-2-.897-2-2Zm1,0c0,.552.449,1,1,1s1-.448,1-1-.449-1-1-1-1,.448-1,1Z"/>
</svg>
