<?xml version="1.0" encoding="UTF-8"?>
<svg xmlns="http://www.w3.org/2000/svg" id="Layer_1" data-name="Layer 1" viewBox="0 0 24 24" width="512" height="512"><path d="m23.237.762c-.981-.982-2.694-.983-3.68,0l-11.154,11.184-5.815,1.397L.108,23.921l10.577-2.48,1.424-5.844,11.128-11.157c1.014-1.014,1.014-2.664,0-3.679Zm-13.378,19.846l-7.484,1.754,4.32-4.321-.707-.707-4.322,4.322,1.755-7.485,4.749-1.14,2.844,2.844-1.154,4.733ZM22.529,3.734l-11.105,11.136-2.265-2.265L20.266,1.469c.625-.623,1.64-.624,2.265,0,.624.625.624,1.641,0,2.265Z"/></svg>
