<?xml version="1.0" encoding="UTF-8"?>
<svg xmlns="http://www.w3.org/2000/svg" id="Layer_1" data-name="Layer 1" viewBox="0 0 24 24" width="512" height="512"><path d="M12,0C5.38,0,0,5.38,0,12s5.38,12,12,12,12-5.38,12-12S18.62,0,12,0Zm0,23c-6.07,0-11-4.93-11-11S5.93,1,12,1s11,4.93,11,11-4.93,11-11,11Zm.42-17.34h-.85l-1.52,4.34H5.71v.83l3.13,2.52-1.17,3.9,.67,.52,3.66-2.37,3.66,2.37,.67-.52-1.17-3.9,3.13-2.52v-.83h-4.34l-1.52-4.34Zm1.58,7.33l.93,3.12-2.94-1.91-2.94,1.91,.93-3.12-2.47-1.99h3.25l1.24-3.53,1.24,3.53h3.25l-2.47,1.99Z"/></svg>
