<?xml version="1.0" encoding="UTF-8"?>
<svg xmlns="http://www.w3.org/2000/svg" id="Layer_1" data-name="Layer 1" viewBox="0 0 24 24" width="512" height="512"><path d="M24,24H12C5.383,24,0,18.617,0,12S5.383,0,12,0s12,5.383,12,12v12ZM12,1C5.935,1,1,5.935,1,12s4.935,11,11,11h11V12c0-6.065-4.935-11-11-11Zm-2.182,17h-3.818v-3.818l7.391-7.391c1.02-1.021,2.799-1.021,3.818,0,.51,.51,.791,1.188,.791,1.909s-.281,1.399-.791,1.909l-7.391,7.391Zm-2.818-1h2.404l7.098-7.098c.321-.321,.498-.748,.498-1.202s-.177-.881-.498-1.202c-.662-.663-1.742-.663-2.404,0l-7.098,7.098v2.404Z"/></svg>
