<?xml version="1.0" encoding="UTF-8"?>
<svg xmlns="http://www.w3.org/2000/svg" id="Layer_1" data-name="Layer 1" viewBox="0 0 24 24">
  <path d="m7.008,18.2l-2.301,2.3,2.301,2.3-.707.707-2.301-2.3-2.301,2.3-.707-.707,2.301-2.3-2.301-2.3.707-.707,2.301,2.3,2.301-2.3.707.707Zm7.273-.688l-2.281,2.281-2.281-2.281-.707.707,2.281,2.281-2.281,2.281.707.707,2.281-2.281,2.281,2.281.707-.707-2.281-2.281,2.281-2.281-.707-.707Zm1.219-2.512h-7c-1.379,0-2.5-1.122-2.5-2.5v-7.5h2.5v-1.5c0-1.93,1.57-3.5,3.5-3.5s3.5,1.57,3.5,3.5v1.5h2.5v7.5c0,1.378-1.121,2.5-2.5,2.5Zm-6-10h5v-1.5c0-1.378-1.121-2.5-2.5-2.5s-2.5,1.122-2.5,2.5v1.5Zm7.5,1H7v6.5c0,.827.673,1.5,1.5,1.5h7c.827,0,1.5-.673,1.5-1.5v-6.5Zm-4.5,3h-1v2h1v-2Zm10.508,9.2l-.707-.707-2.301,2.3-2.301-2.3-.707.707,2.301,2.3-2.301,2.3.707.707,2.301-2.3,2.301,2.3.707-.707-2.301-2.3,2.301-2.3Z"/>
</svg>
