<?xml version="1.0" encoding="UTF-8"?>
<svg xmlns="http://www.w3.org/2000/svg" id="Layer_1" data-name="Layer 1" viewBox="0 0 24 24" width="512" height="512"><path d="M13.754,10.423c.751-.546,1.246-1.425,1.246-2.423,0-1.654-1.346-3-3-3s-3,1.346-3,3c0,.998,.495,1.877,1.246,2.423-1.324,.653-2.246,2.003-2.246,3.577,0,2.206,1.794,4,4,4s4-1.794,4-4c0-1.574-.921-2.925-2.246-3.577Zm-3.754-2.423c0-1.103,.897-2,2-2s2,.897,2,2-.897,2-2,2-2-.897-2-2Zm2,9c-1.654,0-3-1.346-3-3s1.346-3,3-3,3,1.346,3,3-1.346,3-3,3ZM12,0C5.383,0,0,5.383,0,12s5.383,12,12,12,12-5.383,12-12S18.617,0,12,0Zm0,23c-6.065,0-11-4.935-11-11S5.935,1,12,1s11,4.935,11,11-4.935,11-11,11Z"/></svg>
