<?xml version="1.0" encoding="UTF-8"?>
<svg xmlns="http://www.w3.org/2000/svg" id="Layer_1" data-name="Layer 1" viewBox="0 0 24 24">
  <path d="m21.75,6h-.75v-1c0-1.241-1.01-2.25-2.25-2.25h-.75v-.25c0-1.378-1.121-2.5-2.5-2.5H2.5C1.121,0,0,1.122,0,2.5v15.5h3v3h3v3h18v-15.75c0-1.241-1.01-2.25-2.25-2.25Zm-20.75-.293l2-2,2.23,2.23L1,10.168v-4.461Zm15.85-3.85c.094.196.15.412.15.643v3.918l-4.938,4.938-2.355-2.355,7.143-7.143ZM6.031,11.262l-2.355-2.355,5.23-5.23,2.355,2.355-5.23,5.23Zm-.094-6.031l-2.23-2.23,2-2h4.461l-4.23,4.23ZM1,11.582l1.969-1.969,2.355,2.355-4.324,4.324v-4.711Zm8-1.875l2.355,2.355-4.938,4.938H1.707l7.293-7.293Zm.094,6.031l1.262,1.262h-2.523l1.262-1.262Zm2.676,1.262l-1.969-1.969,5.23-5.23,1.969,1.969v.527l-4.588,4.704h-.643Zm5.23-3.271v3.271h-3.19l3.19-3.271Zm0-3.374l-1.262-1.262,1.262-1.262v2.523Zm-.857-9.205l-4.174,4.174-2.355-2.355,1.969-1.969h3.918c.231,0,.447.057.643.15Zm-13.643-.15h1.793l-3.293,3.293v-1.793c0-.827.673-1.5,1.5-1.5Zm1.5,17h14V3.75h.75c.689,0,1.25.561,1.25,1.25v15H4v-2Zm19,5H7v-2h14V7h.75c.689,0,1.25.561,1.25,1.25v14.75Z"/>
</svg>
