<?xml version="1.0" encoding="UTF-8"?>
<svg xmlns="http://www.w3.org/2000/svg" id="Layer_1" data-name="Layer 1" width="512" height="512" viewBox="0 0 24 24"><path d="M7,16h2v.5c0,1.683,1.147,3.5,3,3.5s3-1.817,3-3.5v-.5h2v-1H7v1Zm7,.5c0,1.202-.765,2.5-2,2.5s-2-1.298-2-2.5v-.5h4v.5ZM12,0C5.383,0,0,5.383,0,12s5.383,12,12,12,12-5.383,12-12S18.617,0,12,0Zm0,23c-6.065,0-11-4.935-11-11S5.935,1,12,1s11,4.935,11,11-4.935,11-11,11ZM16.5,7c-1.378,0-2.5,1.122-2.5,2.5v1.5h5v-1.5c0-1.378-1.122-2.5-2.5-2.5Zm1.5,3h-3v-.5c0-.827,.673-1.5,1.5-1.5s1.5,.673,1.5,1.5v.5Zm-8,1H5v-1h5v1Z"/></svg>
