<?xml version="1.0" encoding="UTF-8"?>
<svg xmlns="http://www.w3.org/2000/svg" id="Layer_1" data-name="Layer 1" viewBox="0 0 24 24">
  <path d="m15,11.293v3l-3.354,3.354.707.707,3.354-3.354h3l3-3h-3.707v-3.707l-3,3Zm4.293,1.707l-1,1h-2.293v-2.293l1-1v2.293h2.293Zm4.707-8.5v19.5h-1v-.003l-5.798.003c.346-.304.659-.641.948-1h4.85v-14h-3v-1h3v-3.5c0-.827-.673-1.5-1.5-1.5H2.5c-.827,0-1.5.673-1.5,1.5v3.5h14.172l-1,1H1v14h4.696c.289.359.602.696.948,1H0V4.5c0-1.379,1.122-2.5,2.5-2.5h3.5V0h1v2h10V0h1v2h3.5c1.378,0,2.5,1.121,2.5,2.5Zm-14,13.5c0,1.103.897,2,2,2,.552,0,1.052-.224,1.414-.587l.005.005,1.566-1.566c.003.05.015.097.015.148,0,1.654-1.346,3-3,3s-3-1.346-3-3,1.346-3,3-3c.066,0,.127.015.191.019l-1.388,1.388c-.485.365-.803.94-.803,1.592Zm8,0c0,3.309-2.691,6-6,6s-6-2.691-6-6,2.691-6,6-6c.342,0,.674.039,1,.095v1.014c-.323-.068-.656-.109-1-.109-2.757,0-5,2.243-5,5s2.243,5,5,5,5-2.243,5-5c0-.344-.043-.677-.113-1h1.018c.056.326.095.658.095,1Z"/>
</svg>
