<?xml version="1.0" encoding="UTF-8"?>
<svg xmlns="http://www.w3.org/2000/svg" id="Layer_1" data-name="Layer 1" viewBox="0 0 24 24">
  <path d="m17.5,11c1.378,0,2.5-1.121,2.5-2.5s-1.122-2.5-2.5-2.5-2.5,1.121-2.5,2.5,1.122,2.5,2.5,2.5Zm0-4c.827,0,1.5.673,1.5,1.5s-.673,1.5-1.5,1.5-1.5-.673-1.5-1.5.673-1.5,1.5-1.5ZM23.296.352c-.059.026-5.994,2.648-11.296,2.648S.763.378.704.352L0,.037v23.897l.702-.311c.06-.026,5.995-2.624,11.298-2.624s11.238,2.598,11.298,2.624l.702.311V.037l-.704.314Zm-11.296,3.648c4.481,0,9.236-1.729,11-2.44v20.509l-12.308-12.309c-1.012-1.012-2.659-1.012-3.67,0L1,15.783V1.56c1.764.711,6.519,2.44,11,2.44ZM1,22.418v-5.221l6.729-6.73c.622-.62,1.634-.622,2.256,0l11.324,11.325c-2.286-.787-5.878-1.792-9.309-1.792-4.481,0-9.237,1.714-11,2.418Z"/>
</svg>
