<?xml version="1.0" encoding="UTF-8"?>
<svg xmlns="http://www.w3.org/2000/svg" id="Layer_1" data-name="Layer 1" viewBox="0 0 24 24">
  <path d="m1,10.5v4c0,1.379,1.122,2.5,2.5,2.5,1.207,0,2.217-.86,2.449-2h1c-.245,1.692-1.691,3-3.449,3-1.93,0-3.5-1.57-3.5-3.5v-4c0-1.93,1.57-3.5,3.5-3.5,1.758,0,3.204,1.308,3.449,3h-1c-.232-1.14-1.242-2-2.449-2-1.378,0-2.5,1.122-2.5,2.5Zm11.733,3.022l1.377,4.478h-1.104l-1.276-4.079c-.236.05-.479.079-.73.079h-2v4h-1V7h3c1.93,0,3.5,1.57,3.5,3.5,0,1.296-.717,2.417-1.767,3.022Zm.767-3.022c0-1.378-1.122-2.5-2.5-2.5h-2v5h2c1.378,0,2.5-1.122,2.5-2.5Zm9.834-2.203c-.053-.914-.586-1.297-1.225-1.297-.424,0-.818.314-1.043.831l-1.45,3.569-1.435-3.569c-.224-.517-.619-.831-1.043-.831-.639,0-1.172.383-1.224,1.297l-.672,9.703h1.002l.668-9.645c.021-.355.102-.355.183-.363.022.011.099.077.158.211l2.359,5.865,2.371-5.84c.06-.137.125-.206.156-.229.107.002.177.031.196.365l.653,9.635h1.002l-.658-9.703Z"/>
</svg>
