<?xml version="1.0" encoding="UTF-8"?>
<svg xmlns="http://www.w3.org/2000/svg" id="Layer_1" data-name="Layer 1" viewBox="0 0 24 24" width="512" height="512"><path d="M24,8c0-2.206-1.794-4-4-4-.402,0-.794,.059-1.171,.174-.724-.725-1.725-1.174-2.829-1.174-.048,0-.095,0-.142,.004-.448-1.743-2.027-3.004-3.858-3.004s-3.41,1.261-3.858,3.004c-.047-.003-.094-.004-.142-.004-1.104,0-2.104,.449-2.829,1.174-.377-.116-.769-.174-1.171-.174C1.794,4,0,5.794,0,8c0,1,.386,1.965,1.071,2.703-.375,.715-.571,1.502-.571,2.297,0,1.586,.748,3.06,2.015,4.003-.009,.081-.015,.163-.015,.247,0,2.619,2.131,4.75,4.75,4.75,.747,0,1.473-.175,2.124-.501l1.876,2.501h1.5l1.876-2.501c.651,.326,1.377,.501,2.124,.501,2.619,0,4.75-2.131,4.75-4.75,0-.084-.006-.166-.015-.246,1.267-.944,2.015-2.418,2.015-4.004,0-.795-.196-1.582-.571-2.297,.685-.738,1.071-1.703,1.071-2.703ZM8,4c.16,0,.313,.024,.467,.049l.508,.08,.066-.511c.191-1.492,1.463-2.618,2.959-2.618s2.768,1.126,2.959,2.618l.066,.511,.508-.08c.153-.024,.307-.049,.467-.049,1.654,0,3,1.346,3,3,0,1.205-.717,2.289-1.826,2.761l-.67,.284,.506,.523c.639,.659,.99,1.523,.99,2.432,0,1.437-.866,2.711-2.207,3.245l-.297,.119-.017,.319c-.089,1.689-1.359,3.046-2.979,3.28V8h-1v11.964c-1.621-.234-2.89-1.591-2.979-3.28l-.017-.319-.297-.119c-1.34-.534-2.207-1.809-2.207-3.245,0-.908,.352-1.772,.99-2.432l.506-.523-.67-.284c-1.109-.472-1.826-1.556-1.826-2.761,0-1.654,1.346-3,3-3ZM3.5,17.25c0-.097,.014-.189,.027-.282l.054-.451-.259-.169c-1.141-.743-1.822-1.995-1.822-3.348,0-.74,.214-1.472,.62-2.118l.226-.359-.319-.281c-.663-.584-1.027-1.38-1.027-2.241,0-1.654,1.346-3,3-3,.174,0,.344,.015,.512,.043-.326,.579-.512,1.246-.512,1.957,0,1.385,.709,2.648,1.851,3.374-.552,.763-.851,1.675-.851,2.626,0,1.743,.991,3.301,2.549,4.049,.163,1.336,.905,2.485,1.961,3.194-.645,.488-1.435,.757-2.26,.757-2.068,0-3.75-1.683-3.75-3.75Zm6.718,3.708c.089-.071,.175-.146,.26-.224,.325,.118,.668,.199,1.022,.238v1.695l-1.282-1.708Zm2.282,1.708v-1.695c.354-.04,.697-.12,1.022-.238,.084,.078,.171,.153,.26,.224l-1.282,1.708Zm8.178-6.319l-.259,.169,.054,.453c.013,.092,.027,.185,.027,.28,0,2.067-1.682,3.75-3.75,3.75-.825,0-1.615-.27-2.26-.757,1.056-.709,1.798-1.857,1.961-3.194,1.558-.748,2.549-2.306,2.549-4.049,0-.951-.299-1.863-.851-2.626,1.142-.726,1.851-1.989,1.851-3.374,0-.71-.186-1.378-.512-1.957,.168-.029,.339-.043,.512-.043,1.654,0,3,1.346,3,3,0,.861-.365,1.657-1.027,2.241l-.319,.281,.226,.359c.406,.646,.62,1.378,.62,2.118,0,1.353-.681,2.604-1.822,3.348Z"/></svg>
