<?xml version="1.0" encoding="UTF-8"?>
<svg xmlns="http://www.w3.org/2000/svg" id="Layer_1" data-name="Layer 1" viewBox="0 0 24 24">
  <path d="m9,19h10v1h-10v-1Zm-7-.5v-5.569c-.614-.631-1-1.484-1-2.431,0-1.93,1.57-3.5,3.5-3.5s3.5,1.57,3.5,3.5c0,.947-.386,1.8-1,2.431v5.569l-2.5-1.875-2.5,1.875Zm4-4.851c-.456.219-.961.351-1.5.351s-1.044-.133-1.5-.351v2.851l1.5-1.125,1.5,1.125v-2.851Zm-4-3.149c0,1.379,1.122,2.5,2.5,2.5s2.5-1.121,2.5-2.5-1.122-2.5-2.5-2.5-2.5,1.121-2.5,2.5Zm7,5.5h10v-1h-10v1Zm10-5h-9.025c-.031.344-.096.677-.187,1h9.212v-1Zm5-3.707v16.707H4v-5h1v4h18v-15h-7V1H6.5c-.827,0-1.5.673-1.5,1.5v2.5h-1v-2.5c0-1.379,1.122-2.5,2.5-2.5h10.207l7.293,7.293Zm-1.707-.293l-5.293-5.293v5.293h5.293Z"/>
</svg>
