<?xml version="1.0" encoding="UTF-8"?>
<svg xmlns="http://www.w3.org/2000/svg" id="Layer_1" data-name="Layer 1" viewBox="0 0 24 24">
  <path d="m7.141,16h3.859v1h-3.98l-.841,7h-1.074l.841-7H0l.118-1h5.949l.961-8H.824l.118-1h6.206l.841-7h1.074l-.841,7h8.758l.841-7h1.074l-.841,7h5.946l-.118,1h-15.781l-.961,8Zm11.859,2.5h-1v2h1v-2Zm3-3.5h2v6.5c0,1.378-1.122,2.5-2.5,2.5h-6c-1.378,0-2.5-1.122-2.5-2.5v-6.5h2v-1.5c0-1.93,1.57-3.5,3.5-3.5s3.5,1.57,3.5,3.5v1.5Zm-6,0h5v-1.5c0-1.378-1.122-2.5-2.5-2.5s-2.5,1.122-2.5,2.5v1.5Zm7,1h-9v5.5c0,.827.673,1.5,1.5,1.5h6c.827,0,1.5-.673,1.5-1.5v-5.5Z"/>
</svg>
