<?xml version="1.0" encoding="UTF-8"?>
<svg xmlns="http://www.w3.org/2000/svg" id="Layer_1" data-name="Layer 1" viewBox="0 0 24 24">
  <path d="m12,24C5.383,24,0,18.617,0,12S5.383,0,12,0s12,5.383,12,12-5.383,12-12,12Zm0-23C5.935,1,1,5.935,1,12s4.935,11,11,11,11-4.935,11-11S18.065,1,12,1Zm.007,19c-3.574,0-5.945-3.249-6.007-5.486q0-.515,2.219-.516h9.781v.501c0,2.189-2.39,5.5-5.993,5.5Zm-4.947-5.001c.36,1.749,2.275,4.001,4.947,4.001,2.64,0,4.615-2.233,4.944-4-3.201,0-8.229-.001-9.892,0Zm2.94-3.999h-5v-1.5c0-1.378,1.122-2.5,2.5-2.5s2.5,1.122,2.5,2.5v1.5Zm-4-1h3v-.5c0-.827-.673-1.5-1.5-1.5s-1.5.673-1.5,1.5v.5Zm13,1h-5v-1.5c0-1.378,1.122-2.5,2.5-2.5s2.5,1.122,2.5,2.5v1.5Zm-4-1h3v-.5c0-.827-.673-1.5-1.5-1.5s-1.5.673-1.5,1.5v.5Z"/>
</svg>
