<?xml version="1.0" encoding="UTF-8"?>
<svg xmlns="http://www.w3.org/2000/svg" id="Layer_1" data-name="Layer 1" viewBox="0 0 24 24" width="512" height="512"><path d="M22.592,8.54l-2.144-5.895c-.357-.984-1.302-1.646-2.349-1.646H5.901c-1.047,0-1.992,.661-2.349,1.646L1.408,8.54c-.935,2.569-1.408,5.258-1.408,7.992v2.468H2v4H7v-4h10v4h5v-4h2v-2.468c0-2.734-.474-5.422-1.408-7.992ZM6,22H3v-3h3v3Zm15,0h-3v-3h3v3Zm2-4H1v-1.468c0-1.53,.156-3.045,.463-4.532h2.537v3h1v-3h2v-1H1.694c.182-.714,.4-1.421,.654-2.118L4.491,2.987c.215-.591,.781-.987,1.41-.987h12.198c.628,0,1.195,.396,1.41,.987l2.144,5.895c.254,.697,.472,1.404,.654,2.118h-5.306v1h2v3h1v-3h2.537c.308,1.486,.463,3.002,.463,4.532v1.468Zm-8.156-7.333c.225,.419,.204,.923-.055,1.313l-1.901,4.053-.905-.426,1.937-4.117c.119-.188,.062-.315,.042-.351-.022-.042-.089-.14-.218-.14h-3.475c-.414,0-.788-.186-1.028-.509-.234-.315-.301-.714-.186-1.096l2.097-4.369,.901,.434-2.069,4.297c-.002,.026,.029,.096,.06,.138,.049,.067,.131,.105,.225,.105h3.475c.458,0,.879,.255,1.1,.667Z"/></svg>
