<?xml version="1.0" encoding="UTF-8"?>
<svg xmlns="http://www.w3.org/2000/svg" id="Layer_1" data-name="Layer 1" viewBox="0 0 24 24" width="512" height="512"><path d="M20.87,18.18l.89,.46c-1.71,3.31-5.09,5.37-8.81,5.37h-1.05c-5.46,0-9.91-4.45-9.91-9.91v-4.18C2,4.45,6.45,0,11.91,0h1.05c3.79,0,7.19,2.11,8.88,5.5l-.9,.45c-1.52-3.05-4.58-4.95-7.98-4.95h-1.05C7,1,3,5,3,9.91v4.18c0,4.26,3,7.83,7,8.7V11h1v2.34c1-1.42,2.64-2.34,4.5-2.34h2.5v1h-2.5c-2.48,0-4.5,2.02-4.5,4.5v6.45c.3,.03,.6,.05,.91,.05h1.05c3.35,0,6.38-1.85,7.92-4.82Z"/></svg>
