<?xml version="1.0" encoding="UTF-8"?>
<svg xmlns="http://www.w3.org/2000/svg" id="Layer_1" data-name="Layer 1" viewBox="0 0 24 24" width="512" height="512"><path d="M17.971,.66h0c-.612-.61-1.511-.82-2.345-.54-.781,.26-1.313,.888-1.432,1.716-.084,.656-.375,1.249-.844,1.717-.468,.468-1.062,.76-1.717,.844-1.201,.154-2.184,1.137-2.338,2.338-.084,.655-.376,1.249-.844,1.717-.468,.468-1.062,.76-1.717,.844-1.201,.154-2.184,1.137-2.338,2.338-.084,.655-.376,1.249-.844,1.717s-1.062,.76-1.753,.849c-.792,.113-1.419,.646-1.68,1.426-.278,.833-.071,1.732,.54,2.344l6.003,6.002,.31-.621c.184-.368,.833-1.383,1.622-1.657l.305-.103c.623-.206,1.328-.438,1.893-1.003,.626-.626,1.017-1.421,1.129-2.297,.097-.757,.716-1.376,1.473-1.473,.876-.112,1.671-.502,2.298-1.129,.625-.625,1.016-1.419,1.129-2.298,.095-.744,.728-1.377,1.473-1.472,.876-.112,1.671-.502,2.297-1.129,.623-.624,.865-1.412,1.078-2.108h0c.237-.771,1.302-1.524,1.679-1.708l.63-.308L17.971,.66ZM1.068,15.943c.066-.198,.284-.669,.895-.756,.877-.113,1.671-.503,2.297-1.129s1.017-1.42,1.129-2.297c.095-.745,.728-1.377,1.473-1.473,.877-.113,1.671-.503,2.297-1.129,.626-.625,1.017-1.42,1.129-2.297,.095-.745,.728-1.377,1.473-1.473,.877-.113,1.672-.503,2.297-1.129,.626-.625,1.017-1.42,1.132-2.32,.084-.588,.555-.806,.753-.872,.126-.042,.272-.068,.427-.068,.298,0,.625,.098,.895,.367l1.679,1.68c-.782,.4-1.355,1.173-1.469,2.067-.084,.656-.376,1.25-.844,1.717-.47,.469-1.063,.761-1.718,.844-1.2,.153-2.184,1.137-2.338,2.338-.083,.655-.375,1.249-.844,1.717-.469,.468-1.062,.76-1.717,.844-1.201,.154-2.184,1.138-2.338,2.338-.083,.655-.375,1.249-.844,1.717-.469,.468-1.062,.76-1.717,.844-.894,.115-1.667,.689-2.067,1.47l-1.68-1.68c-.409-.409-.422-.95-.299-1.32Zm19.644-7.552h0c-.196,.641-.382,1.246-.829,1.694-.469,.468-1.062,.76-1.717,.844-1.202,.154-2.185,1.138-2.338,2.337-.085,.656-.376,1.25-.844,1.718-.469,.468-1.062,.76-1.718,.844-1.201,.154-2.184,1.137-2.338,2.338-.083,.655-.375,1.249-.844,1.717-.396,.396-.932,.573-1.499,.761l-.319,.107c-.836,.29-1.473,1.04-1.838,1.574l-2.613-2.613c.181-.642,.758-1.16,1.426-1.246,.876-.112,1.67-.502,2.297-1.129,.626-.626,1.017-1.421,1.129-2.297,.095-.744,.728-1.377,1.473-1.473,.876-.112,1.67-.502,2.297-1.129,.627-.627,1.017-1.421,1.129-2.297,.096-.745,.729-1.378,1.473-1.473,.876-.112,1.67-.502,2.298-1.129,.625-.626,1.016-1.42,1.129-2.298,.085-.667,.602-1.244,1.245-1.425l2.608,2.609c-.547,.368-1.346,1.118-1.607,1.967Z"/></svg>
