<?xml version="1.0" encoding="UTF-8"?>
<svg xmlns="http://www.w3.org/2000/svg" id="Layer_1" data-name="Layer 1" viewBox="0 0 24 24" width="512" height="512"><path d="M23,5.5v2.698l-8,8.5v7.281l-6-3.369v-3.912L1,8.198v-2.698c0-1.379,1.121-2.5,2.5-2.5h2.5v1H3.5c-.827,0-1.5,.673-1.5,1.5v2.302l8,8.5v3.723l4,2.246v-5.969L22,7.802v-2.302c0-.827-.673-1.5-1.5-1.5h-2.5v-1h2.5c1.379,0,2.5,1.121,2.5,2.5Zm-12.5,6.5h1v2h1v-2h1c1.379,0,2.5-1.121,2.5-2.5,0-1.369-.981-2.521-2.334-2.739l-3.174-.509c-.864-.14-1.492-.877-1.492-1.752,0-.827,.673-1.5,1.5-1.5h3c.827,0,1.5,.673,1.5,1.5v.5h1v-.5c0-1.379-1.121-2.5-2.5-2.5h-1V0h-1V2h-1c-1.379,0-2.5,1.121-2.5,2.5,0,1.369,.981,2.521,2.334,2.739l3.174,.509c.864,.14,1.492,.877,1.492,1.752,0,.827-.673,1.5-1.5,1.5h-3c-.827,0-1.5-.673-1.5-1.5v-.5h-1v.5c0,1.379,1.121,2.5,2.5,2.5Z"/></svg>
