<?xml version="1.0" encoding="UTF-8"?>
<svg xmlns="http://www.w3.org/2000/svg" id="Layer_1" data-name="Layer 1" viewBox="0 0 24 24" width="512" height="512"><path d="m21.5,18h-2.5v-2h-1v2h-5.5V7.969c1.971-.247,3.5-1.932,3.5-3.969,0-2.206-1.794-4-4-4s-4,1.794-4,4c0,2.036,1.529,3.722,3.5,3.969v10.031H2.5c-1.379,0-2.5,1.122-2.5,2.5v3.5h24v-3.5c0-1.378-1.121-2.5-2.5-2.5ZM9,4c0-1.654,1.346-3,3-3s3,1.346,3,3-1.346,3-3,3-3-1.346-3-3Zm14,19H1v-2.5c0-.827.673-1.5,1.5-1.5h19c.827,0,1.5.673,1.5,1.5v2.5Z"/></svg>
