<?xml version="1.0" encoding="UTF-8"?>
<svg xmlns="http://www.w3.org/2000/svg" id="Layer_1" data-name="Layer 1" viewBox="0 0 24 24">
  <path d="m21.5,2H2.5c-1.379,0-2.5,1.122-2.5,2.5v17.5h24V4.5c0-1.378-1.121-2.5-2.5-2.5Zm1.5,19H1V4.5c0-.827.673-1.5,1.5-1.5h19c.827,0,1.5.673,1.5,1.5v16.5Zm-6.5-14h-3.5v10h3.5c1.93,0,3.5-1.57,3.5-3.5v-3c0-1.93-1.57-3.5-3.5-3.5Zm2.5,6.5c0,1.378-1.121,2.5-2.5,2.5h-2.5v-8h2.5c1.379,0,2.5,1.122,2.5,2.5v3Zm-14-3.75c0,.732.524,1.351,1.246,1.472l2.694.575c1.184.197,2.06,1.23,2.06,2.454,0,1.517-1.233,2.75-2.75,2.75h-1.25c-1.654,0-3-1.346-3-3h1c0,1.103.897,2,2,2h1.25c.965,0,1.75-.785,1.75-1.75,0-.732-.524-1.351-1.246-1.472l-2.694-.575c-1.184-.197-2.06-1.23-2.06-2.454,0-1.517,1.233-2.75,2.75-2.75h1.25c1.654,0,3,1.346,3,3h-1c0-1.103-.897-2-2-2h-1.25c-.965,0-1.75.785-1.75,1.75Z"/>
</svg>
