<?xml version="1.0" encoding="UTF-8"?>
<svg xmlns="http://www.w3.org/2000/svg" id="Layer_1" data-name="Layer 1" viewBox="0 0 24 24" width="512" height="512"><path d="m12,15c3.309,0,6-2.691,6-6V0H6v9c0,3.309,2.691,6,6,6Zm5-6c0,2.757-2.243,5-5,5s-5-2.243-5-5c0-.338.034-.672.101-1h9.799c.066.328.101.662.101,1ZM7,1h10v6H7V1Zm13.989,19.756v3.244h-1v-3.244c0-1.997-1.566-3.635-3.535-3.749l-4.452,5.078-4.477-5.078c-1.97.114-3.536,1.752-3.536,3.749v3.244h-1v-3.244c0-2.622,2.134-4.756,4.756-4.756h.226l4.029,4.571,4.007-4.571h.227c2.622,0,4.756,2.134,4.756,4.756ZM12.5,3.5h1.5v1h-1.5v1.5h-1v-1.5h-1.5v-1h1.5v-1.5h1v1.5Z"/></svg>
