<?xml version="1.0" encoding="UTF-8"?>
<svg xmlns="http://www.w3.org/2000/svg" id="Layer_1" data-name="Layer 1" viewBox="0 0 24 24" width="512" height="512"><path d="M20.43,11.28l3.53-3.53-.71-.71-3.25,3.25-6.29-6.29,3.25-3.25-.71-.71-3.53,3.53-6.14,2.3L.75,.05,.05,.75,23.25,23.95l.71-.71-5.83-5.83,2.3-6.14Zm-7.56-6.7l6.54,6.54-2.07,5.52L7.36,6.65l5.52-2.07ZM2.27,22.44l5.72-5.72c.3,.18,.64,.28,1.02,.28,1.1,0,2-.9,2-2s-.9-2-2-2-2,.9-2,2c0,.37,.1,.72,.28,1.02L1.56,21.74l3.15-13.49-.83-.83L0,24l16.55-3.92-.83-.83-13.45,3.19Zm6.73-8.44c.55,0,1,.45,1,1s-.45,1-1,1-1-.45-1-1,.45-1,1-1Z"/></svg>
