<?xml version="1.0" encoding="UTF-8"?>
<svg xmlns="http://www.w3.org/2000/svg" id="Layer_1" data-name="Layer 1" viewBox="0 0 24 24" width="512" height="512"><path d="m16,0v9.448c0,.601.337,1.136.878,1.397.542.26,1.17.188,1.641-.187l1.481-1.186,1.481,1.186c.282.226.622.341.966.341.228,0,.458-.051.675-.155.541-.261.878-.796.878-1.397V0h-8Zm7,9.448c0,.216-.116.402-.312.496-.195.093-.412.069-.582-.066l-2.106-1.685-2.106,1.685c-.169.136-.387.16-.582.066-.195-.094-.312-.279-.312-.496V1h6v8.448Zm0,3.552h1v11H0V6.5C0,5.122,1.122,4,2.5,4h11.5v1H2.5c-.533,0-1.002.28-1.268.701l8.274,8.275c1.364,1.364,3.585,1.364,4.95,0l1.41-1.41c.049.027.095.059.146.083.292.14.596.225.903.282l-1.752,1.752c-.877.877-2.03,1.316-3.182,1.316s-2.305-.438-3.182-1.316L1,6.883v16.117h22v-10Z"/></svg>
