<?xml version="1.0" encoding="UTF-8"?>
<svg xmlns="http://www.w3.org/2000/svg" id="Layer_1" data-name="Layer 1" viewBox="0 0 24 24">
  <path d="m22,21V7c-.239-3.997-1.927-7-4-7H4.5C1.977,0,0,3.514,0,8s1.977,8,4.5,8h2.5v4.5c0,1.93,1.57,3.5,3.5,3.5h13.5v-1c-1.103,0-2-.897-2-2Zm-1-13c0,4.125-1.581,7-3,7s-3-2.875-3-7,1.581-7,3-7,3,2.875,3,7Zm-20,0c0-3.794,1.603-7,3.5-7h11.535c-1.224,1.353-2.035,3.952-2.035,7s.811,5.647,2.035,7H4.5c-1.897,0-3.5-3.206-3.5-7Zm9.5,15c-1.379,0-2.5-1.122-2.5-2.5v-4.5h10c1.207,0,2.273-1.017,3-2.656v7.656c0,.768.29,1.469.766,2h-11.266Zm6.5-15c0-.828.448-1.5,1-1.5s1,.672,1,1.5-.448,1.5-1,1.5-1-.672-1-1.5Z"/>
</svg>
