<?xml version="1.0" encoding="UTF-8"?>
<svg xmlns="http://www.w3.org/2000/svg" id="Layer_1" data-name="Layer 1" viewBox="0 0 24 24">
  <path d="m24,9v1H0v-1h24Zm-4.47,3.487c-.882.67-2.179.67-3.061,0-.852-.648-2.088-.648-2.939,0-.882.67-2.179.67-3.061,0-.852-.648-2.088-.648-2.939,0-.882.67-2.179.67-3.061,0-.852-.648-2.088-.648-2.939,0-.441.335-.97.513-1.53.513v1c.781,0,1.519-.248,2.136-.718.493-.375,1.235-.375,1.729,0,1.233.939,3.038.939,4.271,0,.493-.375,1.235-.375,1.729,0,1.233.939,3.038.939,4.271,0,.493-.375,1.235-.375,1.729,0,1.233.939,3.038.939,4.271,0,.493-.375,1.235-.375,1.729,0,.617.47,1.355.718,2.136.718v-1c-.56,0-1.089-.178-1.53-.513-.852-.648-2.088-.648-2.939,0Zm-13.53,6.513c-.552,0-1,.448-1,1s.448,1,1,1,1-.448,1-1-.448-1-1-1Zm3-3c-.552,0-1,.448-1,1s.448,1,1,1,1-.448,1-1-.448-1-1-1Zm-6,0c-.552,0-1,.448-1,1s.448,1,1,1,1-.448,1-1-.448-1-1-1Zm12,0c-.552,0-1,.448-1,1s.448,1,1,1,1-.448,1-1-.448-1-1-1Zm6,0c-.552,0-1,.448-1,1s.448,1,1,1,1-.448,1-1-.448-1-1-1Zm-12,6c-.552,0-1,.448-1,1s.448,1,1,1,1-.448,1-1-.448-1-1-1Zm-6,0c-.552,0-1,.448-1,1s.448,1,1,1,1-.448,1-1-.448-1-1-1Zm12,0c-.552,0-1,.448-1,1s.448,1,1,1,1-.448,1-1-.448-1-1-1Zm6,0c-.552,0-1,.448-1,1s.448,1,1,1,1-.448,1-1-.448-1-1-1Zm-9-3c-.552,0-1,.448-1,1s.448,1,1,1,1-.448,1-1-.448-1-1-1Zm6,0c-.552,0-1,.448-1,1s.448,1,1,1,1-.448,1-1-.448-1-1-1ZM6.502,8.001c.379,0,.758-.144,1.045-.43l2.801-2.712-.695-.719-2.652,2.568V0h-1v6.709l-2.652-2.568-.695.719,2.795,2.706c.291.291.673.436,1.055.436Zm11,0c.379,0,.758-.144,1.045-.43l2.801-2.712-.695-.719-2.652,2.568V0h-1v6.709l-2.652-2.568-.695.719,2.795,2.706c.291.291.673.436,1.055.436Z"/>
</svg>
