<?xml version="1.0" encoding="UTF-8"?>
<svg xmlns="http://www.w3.org/2000/svg" id="Layer_1" data-name="Layer 1" viewBox="0 0 24 24" width="512" height="512"><path d="M21.831,1h2.169V0H12.512C6.615,0,.002,4.269,.002,11.72,.002,15.006,1.174,18.104,3.47,20.442c2.253,2.294,5.253,3.558,8.445,3.558h9.5c1.426,0,2.585-1.159,2.585-2.585,0-1.239-.987-3.146-1.1-3.36l-.25-.473-8.792,5.418h-.38c-2.039,0-4.022-.839-5.442-2.303-1.369-1.41-2.091-3.247-2.036-5.173,.946,.63,2.652,1.476,5,1.476v-1c-2.526,0-4.235-1.12-4.871-1.619,.257-1.302,.877-2.515,1.742-3.527,.62,.973,1.939,2.147,4.129,2.147v-1c-2.158,0-3.094-1.313-3.404-1.896,1.413-1.29,3.266-2.104,5.21-2.104,4.463,0,7.753-3.034,8.024-7Zm.421,18.002c.319,.689,.748,1.76,.748,2.413,0,.874-.711,1.585-1.585,1.585h-5.65l6.487-3.998Zm-14.934,2.392c.396,.409,.832,.775,1.298,1.094-1.655-.53-3.172-1.462-4.433-2.746-1.525-1.553-2.537-3.47-2.96-5.555,.595,.448,1.546,.814,2.783,.814,.32-.005,.669-.014,1.029-.051-.018,.178-.03,.357-.036,.536-.065,2.202,.758,4.301,2.318,5.908Zm-2.11-7.475c-.413,.064-.836,.076-1.215,.081-2.076,0-2.835-1.278-2.984-1.626-.008-.211-.011-.423-.007-.636,.037-2.046,.679-3.96,1.759-5.589,.552,2.055,2.208,3.662,4.29,4.144-.881,1.053-1.529,2.294-1.843,3.626Zm2.674-4.5c-2.284-.227-4.102-2.063-4.301-4.355,1.627-1.899,3.908-3.276,6.501-3.814-.671,.717-1.083,1.681-1.083,2.738,0,1.499,.827,2.809,2.049,3.498-1.172,.418-2.252,1.086-3.167,1.933Zm2.117-5.43c0-1.533,1.151-2.801,2.635-2.987h8.193c-.271,3.403-3.173,5.999-6.828,5.999h-.988c-1.661,0-3.012-1.351-3.012-3.012Zm4,1.012c-.552,0-1-.448-1-1s.448-1,1-1,1,.448,1,1-.448,1-1,1Z"/></svg>
