<?xml version="1.0" encoding="UTF-8"?>
<svg xmlns="http://www.w3.org/2000/svg" id="Layer_1" data-name="Layer 1" viewBox="0 0 24 24">
  <path d="m22.921,12.08l-.756.756.824,2.164h-6.979l.714-1.874-.771-.786-.954,2.417.005,1.314c.317,2.203,2.292,3.929,4.495,3.929,2.243,0,4.176-1.689,4.5-4v-1.064l-1.079-2.856Zm-3.421,6.92c-1.694,0-3.215-1.312-3.494-3h6.988c-.277,1.688-1.797,3-3.494,3Zm-10.5-6v-1.064l-.481-1.334-.76.76.232.638H1.009l.232-.638-.78-.78-.461,1.183.005,1.306c.317,2.203,2.292,3.929,4.495,3.929,2.243,0,4.176-1.689,4.5-4Zm-7.994,0h6.988c-.277,1.688-1.797,3-3.494,3s-3.215-1.312-3.494-3Zm11.494,10h7.5v1H4v-1h7.5V3.083l-6.217-1.451.864,2.394-.773.773-.873-2.4-.873,2.4-.774-.774-.014.014L4.182.348l7.318,1.708V0h1v2.289l7.373,1.72,1.498,3.965-.766.766-1.105-2.899-1.21,3.176-.772-.783,1.311-3.44-6.329-1.477v19.684ZM2.146,10.146l1.646-1.646-1.646-1.646.707-.707,1.646,1.646,1.646-1.646.707.707-1.646,1.646,1.646,1.646-.707.707-1.646-1.646-1.646,1.646-.707-.707Zm17.146,2.028l3.027-3.028.707.707-3.741,3.742-2.296-2.341.714-.7,1.589,1.621Z"/>
</svg>
