<?xml version="1.0" encoding="UTF-8"?>
<svg xmlns="http://www.w3.org/2000/svg" id="Layer_1" data-name="Layer 1" viewBox="0 0 24 24" width="512" height="512"><path d="M12.514,24H4.614C2.067,24-.005,21.928-.005,19.381v-4.804C-.005,13.178,.618,11.871,1.704,10.99c1.086-.881,2.494-1.223,3.861-.933l15.331,3.029L23.011,.011l.986,.159-2.595,16.046c-.135,.96-.335,1.725-.63,2.395-1.438,3.273-4.68,5.389-8.259,5.389ZM4.609,10.957c-.824,0-1.623,.28-2.275,.809-.851,.69-1.339,1.715-1.339,2.811v4.804c0,1.996,1.624,3.619,3.619,3.619h7.899c3.182,0,6.064-1.88,7.343-4.791,.257-.584,.435-1.265,.558-2.142l.322-1.994-15.37-3.037c-.252-.053-.506-.08-.757-.08Z"/><rect x="9.731" y="9.775" width="1" height="10.758" transform="translate(-6.706 22.043) rotate(-78.106)"/><rect x="6.989" y="15.175" width="1.001" height="7.135" transform="translate(-12.401 22.168) rotate(-77.992)"/></svg>
