<?xml version="1.0" encoding="UTF-8"?>
<svg xmlns="http://www.w3.org/2000/svg" id="Layer_1" data-name="Layer 1" viewBox="0 0 24 24">
  <path d="m13,11c0-.929-.64-1.705-1.5-1.929V3h-1v6.071c-.86.224-1.5,1-1.5,1.929,0,1.103.897,2,2,2s2-.897,2-2Zm-3,0c0-.551.449-1,1-1s1,.449,1,1-.449,1-1,1-1-.449-1-1Zm-3.146,6.304l.654.756-2.502,2.165-.319-.224C1.752,17.938,0,14.574,0,11,0,4.935,4.935,0,11,0c5.821,0,10.588,4.548,10.963,10.276-.338-.209-.688-.399-1.055-.56-.633-4.908-4.83-8.716-9.908-8.716C5.486,1,1,5.486,1,11c0,3.119,1.469,6.063,3.949,7.952l1.906-1.648Zm10.646-6.304c-3.584,0-6.5,2.916-6.5,6.5s2.916,6.5,6.5,6.5,6.5-2.916,6.5-6.5-2.916-6.5-6.5-6.5Zm0,12c-3.033,0-5.5-2.467-5.5-5.5s2.467-5.5,5.5-5.5,5.5,2.467,5.5,5.5-2.467,5.5-5.5,5.5Zm2.364-5.398c.197.368.179.81-.049,1.152l-1.892,3.012-.847-.532,1.898-3.022c.041-.062.019-.116.007-.137-.015-.027-.042-.059-.087-.059h-2.78c-.363,0-.692-.163-.903-.448-.206-.278-.266-.629-.164-.965l2.024-3.363.854.52-1.917,3.155c.021.078.051.101.104.101h2.78c.403,0,.774.225.968.586Z"/>
</svg>
