<?xml version="1.0" encoding="UTF-8"?>
<svg xmlns="http://www.w3.org/2000/svg" id="Layer_1" data-name="Layer 1" viewBox="0 0 24 24" width="512" height="512"><path d="M19.959,.446l-.354-.354L.093,19.605l.354,.354c2.69,2.689,6.223,4.034,9.756,4.034s7.067-1.345,9.756-4.034c5.379-5.38,5.379-14.133,0-19.513Zm-5.437,6.144c.955,1.038,1.478,2.377,1.478,3.796,0,1.499-.584,2.909-1.644,3.969-2.131,2.133-5.565,2.189-7.765,.166l7.931-7.931Zm4.73,12.661c-4.87,4.87-12.725,4.986-17.738,.347l4.37-4.37c1.266,1.178,2.884,1.767,4.503,1.767,1.693,0,3.387-.645,4.676-1.934,1.249-1.249,1.937-2.909,1.937-4.676,0-1.686-.627-3.276-1.771-4.504L19.599,1.514c4.64,5.013,4.524,12.867-.347,17.738Z"/></svg>
