<?xml version="1.0" encoding="UTF-8"?>
<svg xmlns="http://www.w3.org/2000/svg" id="Layer_1" data-name="Layer 1" viewBox="0 0 24 24">
  <path d="m21.5,5h-2.5v-3H2.039v14.5c0,1.379,1.122,2.5,2.5,2.5h11.961c1.378,0,2.5-1.121,2.5-2.5v-2.5h5v-6.5c0-1.379-1.122-2.5-2.5-2.5Zm-10.499,4.246l-.002,2.793h-3l.002-2.793,1.5-1.5,1.5,1.5Zm6.999,7.254c0,.827-.673,1.5-1.5,1.5H4.539c-.827,0-1.5-.673-1.5-1.5V3h5.962v3.832s-1.999,2-1.999,2l-.003,4.207h5l.003-4.207-2-2v-3.832s7.999,0,7.999,0v13.5Zm5-3.5h-4v-7h2.5c.827,0,1.5.673,1.5,1.5v5.5ZM.008,21h20.992v1H.008v-1Z"/>
</svg>
