<?xml version="1.0" encoding="UTF-8"?>
<svg xmlns="http://www.w3.org/2000/svg" id="Layer_1" data-name="Layer 1" viewBox="0 0 24 24" width="512" height="512"><path d="M18.871,15.208c1.124-.624,2.186-1.401,3.139-2.354l-.707-.707c-.898,.897-1.898,1.628-2.958,2.211l-3.46-5.602c.686-.718,1.114-1.686,1.114-2.756,0-2.034-1.532-3.7-3.5-3.949V0h-1V2.051c-1.968,.249-3.5,1.915-3.5,3.949,0,1.07,.428,2.037,1.114,2.756l-3.46,5.602c-1.06-.583-2.06-1.314-2.958-2.211l-.707,.707c.953,.953,2.015,1.73,3.139,2.354L.074,23.392l.852,.525L6.026,15.66c1.89,.878,3.929,1.333,5.974,1.333s4.084-.455,5.974-1.333l5.1,8.257,.852-.525-5.055-8.184ZM9,6c0-1.657,1.343-3,3-3s3,1.343,3,3-1.343,3-3,3-3-1.343-3-3Zm-2.445,8.803l3.344-5.415c.612,.381,1.328,.611,2.101,.611s1.489-.23,2.101-.611l3.344,5.415c-3.453,1.567-7.438,1.567-10.891,0Z"/></svg>
