<?xml version="1.0" encoding="UTF-8"?>
<svg xmlns="http://www.w3.org/2000/svg" id="Layer_1" data-name="Layer 1" width="512" height="512" viewBox="0 0 24 24"><path d="M17.985,5c.534,0,1.036-.208,1.414-.586,.779-.779,.779-2.049,.02-2.808L17.985,0l-1.414,1.587c-.779,.779-.779,2.049,0,2.828,.378,.378,.88,.586,1.414,.586Zm-.688-2.728l.688-.771,.707,.792c.39,.39,.39,1.024,0,1.414-.379,.377-1.035,.377-1.414,0-.39-.39-.39-1.024,.02-1.435ZM6,5c.534,0,1.036-.208,1.414-.586,.779-.779,.779-2.049,.02-2.808L6,0l-1.414,1.587c-.779,.779-.779,2.049,0,2.828,.378,.378,.88,.586,1.414,.586Zm-.688-2.728l.688-.771,.707,.792c.39,.39,.39,1.024,0,1.414-.379,.377-1.035,.377-1.414,0-.39-.39-.39-1.024,.02-1.435ZM21.786,13.954l-2.286-4.572c-.426-.853-1.283-1.382-2.236-1.382H6.736c-.953,0-1.811,.529-2.236,1.382l-2.286,4.572c-.794,1.588-1.214,3.366-1.214,5.143v2.903H3v2H7v-2h10v2h4v-2h2v-2.903c0-1.776-.42-3.555-1.214-5.143Zm-18.678,.447l2.286-4.572c.256-.512,.77-.829,1.342-.829h10.527c.572,0,1.086,.317,1.342,.829l2.286,4.572c.098,.196,.19,.396,.276,.599H2.833c.086-.202,.177-.402,.276-.599Zm2.892,8.599h-2v-1h2v1Zm14,0h-2v-1h2v1Zm2-2H2v-1.903c0-1.047,.16-2.095,.469-3.097h2.531v2h1v-2h12v2h1v-2h2.531c.309,1.002,.469,2.05,.469,3.097v1.903ZM12,5c.534,0,1.036-.208,1.414-.586,.779-.779,.779-2.049,.02-2.808L12,0l-1.414,1.587c-.779,.779-.779,2.049,0,2.828,.378,.378,.88,.586,1.414,.586Zm-.688-2.728l.688-.771,.707,.792c.39,.39,.39,1.024,0,1.414-.379,.377-1.035,.377-1.414,0-.39-.39-.39-1.024,.02-1.435Z"/></svg>
