<?xml version="1.0" encoding="UTF-8"?>
<svg xmlns="http://www.w3.org/2000/svg" id="Layer_1" data-name="Layer 1" viewBox="0 0 24 24">
  <path d="m6.5,12c3.309,0,6-2.691,6-6,0-.341-.035-.674-.09-1h2.59v-1h-2.85C11.324,1.673,9.107,0,6.5,0,3.191,0,.5,2.691.5,6s2.691,6,6,6Zm0-11c2.045,0,3.802,1.237,4.576,3H1.924c.774-1.763,2.531-3,4.576-3ZM1.601,5h9.798c.066.323.101.658.101,1,0,2.757-2.243,5-5,5S1.5,8.757,1.5,6c0-.342.035-.677.101-1Zm10.399,12h1v7h-1v-7ZM23.941,3.006l-4.851-3.006h-1.091v9.75l-5.667,4.25H4c-2.206,0-4,1.794-4,4v6h1v-6c0-1.654,1.346-3,3-3h8.667l6.333-4.75v-4.267l4.941-2.977Zm-1.918-.012l-3.023,1.821V1.12l3.023,1.874Z"/>
</svg>
