<?xml version="1.0" encoding="UTF-8"?>
<svg xmlns="http://www.w3.org/2000/svg" id="Layer_1" data-name="Layer 1" viewBox="0 0 24 24">
  <path d="m13,12.5c0,.552-.448,1-1,1s-1-.448-1-1,.448-1,1-1,1,.448,1,1Zm9.898,6.19l-.44.143c-.538.175-4.593,1.451-7.333,1.112-.502,1.601-2.525,3.515-2.785,3.755l-.34.315-.34-.315c-.26-.24-2.284-2.154-2.785-3.755-.318.039-.653.057-.998.057-2.634,0-5.858-1.015-6.334-1.169l-.44-.143.109-.45c.128-.531,1.095-4.373,2.698-6.592-1.219-1.158-1.916-4.063-1.998-4.421l-.104-.452.443-.138c.356-.111,3.295-.99,4.895-.472C8.218,3.622,11.249.747,11.659.364l.341-.316.341.316c.41.382,3.441,3.258,4.514,5.801,1.6-.516,4.539.361,4.896.472l.442.138-.104.452c-.083.357-.779,3.263-1.998,4.421,1.604,2.219,2.571,6.061,2.699,6.592l.108.45Zm-5.739-11.574c.045.219.07.432.07.637,0,.668-.136,1.341-.397,1.979.684.084,1.335.293,1.916.62.242.136.474.318.697.536.64-.632,1.234-2.236,1.554-3.426-1.238-.333-3.006-.634-3.839-.346Zm-12.605,3.771c.223-.218.455-.4.697-.536.582-.326,1.233-.535,1.916-.618-.261-.639-.397-1.312-.397-1.98,0-.205.025-.418.07-.637-.833-.288-2.603.013-3.84.346.321,1.19.915,2.793,1.554,3.426Zm9.594,8.843c-.181-.062-.351-.136-.507-.223-.641-.359-1.198-.852-1.642-1.444-.443.594-1,1.085-1.642,1.445-.156.087-.325.161-.507.223.303.866,1.325,2.085,2.148,2.909.824-.824,1.846-2.044,2.149-2.909Zm7.553-1.71c-.522-1.943-1.866-5.912-3.443-6.796h0c-.647-.365-1.406-.555-2.198-.531l-.893.019.45-.771c.406-.696.612-1.433.612-2.188,0-1.812-2.793-4.923-4.229-6.33-1.437,1.407-4.229,4.519-4.229,6.33,0,.757.206,1.493.613,2.188l.451.771-.894-.019c-.801-.025-1.542.161-2.2.53-1.577.885-2.919,4.854-3.442,6.797,1.925.57,5.994,1.5,7.57.614.71-.397,1.294-.999,1.69-1.738l.441-.823.441.823c.396.739.98,1.34,1.69,1.738,1.577.886,5.646-.044,7.57-.614Z"/>
</svg>
