<?xml version="1.0" encoding="UTF-8"?>
<svg xmlns="http://www.w3.org/2000/svg" id="Layer_1" data-name="Layer 1" viewBox="0 0 24 24" width="512" height="512"><path d="m22.068,5.475l-.729.729c2.632,4.242,2.077,9.942-1.601,13.621-4.294,4.237-11.237,4.226-15.508-.047C-.06,15.489-.06,8.511,4.229,4.222,8.399.052,15.113-.063,19.424,3.876l-2.129,2.127c-3.053-2.705-7.646-2.694-10.689.091-.191-.061-.394-.094-.605-.094-1.103,0-2,.897-2,2,0,.49.178.94.472,1.288-1.046,2.909-.321,6.176,1.871,8.369,1.022,1.022,2.285,1.741,3.673,2.094.124.984.966,1.748,1.984,1.748s1.859-.764,1.984-1.748c1.387-.354,2.651-1.073,3.673-2.094,2.5-2.5,2.991-6.255,1.483-9.255l-.752.752c1.141,2.571.666,5.691-1.438,7.795-.866.865-1.929,1.481-3.096,1.801-.297-.733-1.016-1.251-1.854-1.251s-1.557.518-1.854,1.251c-1.168-.319-2.231-.936-3.096-1.801-1.855-1.855-2.509-4.588-1.724-7.067.211.076.437.117.673.117,1.103,0,2-.897,2-2,0-.517-.197-.989-.521-1.345,2.644-2.247,6.501-2.212,9.106.055l-2.133,2.13c-1.568-1.221-3.842-1.109-5.282.331-.755.755-1.171,1.76-1.171,2.828s.416,2.073,1.171,2.828c1.56,1.561,4.098,1.561,5.657,0,.755-.755,1.171-1.76,1.171-2.828,0-.142-.026-.278-.041-.417l-1.021,1.021c-.116.571-.395,1.095-.816,1.517-1.17,1.169-3.073,1.17-4.243,0-.566-.566-.878-1.319-.878-2.121s.312-1.555.878-2.121c1.17-1.17,3.073-1.17,4.243,0l.354.354,6.372-6.364-.354-.354C18.226,1.248,15.212,0,12.007,0S5.789,1.248,3.522,3.515C-1.156,8.193-1.156,15.807,3.522,20.485c2.267,2.267,5.28,3.515,8.485,3.515s6.219-1.248,8.485-3.515c4.067-4.071,4.587-10.363,1.575-15.01Zm-10.068,13.025c.551,0,1,.448,1,1s-.449,1-1,1-1-.448-1-1,.449-1,1-1Zm-6-9.5c-.551,0-1-.448-1-1s.449-1,1-1,1,.448,1,1-.449,1-1,1Z"/></svg>
