<?xml version="1.0" encoding="UTF-8"?>
<svg xmlns="http://www.w3.org/2000/svg" id="Layer_1" data-name="Layer 1" viewBox="0 0 24 24">
  <path d="m23.069,1.602c-.592-.494-1.364-.699-2.124-.56l-6.46,1.174c-1.073.195-1.964.849-2.485,1.736-.521-.888-1.413-1.541-2.486-1.736L3.054,1.042c-.758-.139-1.532.065-2.123.56-.592.494-.931,1.219-.931,1.989v17.145l12,2.182,12-2.182V3.591c0-.771-.339-1.496-.931-1.989Zm-11.569,20.208l-10.5-1.909V3.591c0-.473.208-.918.572-1.221.363-.303.838-.427,1.304-.344l6.46,1.175c1.254.228,2.165,1.318,2.165,2.593v16.016Zm11.5-1.909l-10.5,1.909V5.794c0-1.275.91-2.366,2.165-2.594l6.46-1.175c.463-.084.94.041,1.304.344s.571.748.571,1.221v16.31Zm-1.796-10.746l-2.447,2.447,2.447,2.447-.707.707-2.447-2.447-2.447,2.447-.707-.707,2.447-2.447-2.447-2.447.707-.707,2.447,2.447,2.447-2.447.707.707Zm-11.971.087l.701.713-3.764,3.707c-.225.226-.523.338-.821.338s-.598-.113-.826-.341l-2.373-2.315.698-.716,2.376,2.319c.069.069.175.068.24.004l3.767-3.709Z"/>
</svg>
