<?xml version="1.0" encoding="UTF-8"?>
<svg xmlns="http://www.w3.org/2000/svg" id="Layer_1" data-name="Layer 1" viewBox="0 0 24 24" width="512" height="512"><path d="M22,9.75c0-2.067-1.683-3.75-3.75-3.75-1.293,0-2.45,.65-3.128,1.676-.583-.875-1.524-1.492-2.612-1.641,.223-4.894,3.951-5.035,3.989-5.035,.692,0,1.5,.322,1.5,1.23,0,.251-.244,.77-1,.77v1c1.252,0,2-.899,2-1.77,0-1.313-1.028-2.23-2.5-2.23-.989,0-3.375,.694-4.454,3.374-.512-1.525-1.455-2.638-2.823-3.321l-.447,.895c1.73,.865,2.62,2.532,2.715,5.087-1.089,.148-2.03,.766-2.614,1.641-.677-1.026-1.835-1.676-3.128-1.676-2.067,0-3.75,1.683-3.75,3.75,0,1.963,1.517,3.579,3.44,3.737-.287,.537-.44,1.14-.44,1.763,0,1.86,1.363,3.409,3.142,3.7-.094,.34-.142,.691-.142,1.05,0,2.206,1.794,4,4,4s4-1.794,4-4c0-.359-.048-.71-.142-1.05,1.779-.291,3.142-1.84,3.142-3.7,0-.627-.152-1.228-.438-1.763,1.922-.159,3.438-1.775,3.438-3.737Zm-10-2.75c1.209,0,2.237,.784,2.605,1.869l-.004,.015,.01,.002c.09,.272,.139,.561,.139,.863s-.049,.591-.139,.863l-.01,.002,.004,.015c-.368,1.086-1.396,1.869-2.605,1.869s-2.237-.784-2.605-1.869l.004-.015-.01-.002c-.09-.272-.139-.561-.139-.863s.049-.591,.139-.863l.01-.002-.004-.015c.368-1.086,1.396-1.869,2.605-1.869ZM3,9.75c0-1.517,1.233-2.75,2.75-2.75,1.194,0,2.231,.756,2.605,1.867-.069,.283-.105,.579-.105,.883s.037,.6,.105,.883c-.374,1.111-1.411,1.867-2.605,1.867-1.517,0-2.75-1.233-2.75-2.75Zm3,5.5c0-.704,.266-1.372,.748-1.884,.878-.24,1.633-.79,2.13-1.542,.43,.645,1.054,1.15,1.788,1.43l-.012,.012c.545,.522,.846,1.228,.846,1.983,0,1.517-1.233,2.75-2.75,2.75s-2.75-1.233-2.75-2.75Zm6,7.75c-1.654,0-3-1.346-3-3,0-.355,.063-.698,.185-1.025,1.203-.14,2.235-.852,2.815-1.856,.58,1.004,1.611,1.716,2.815,1.856,.123,.327,.185,.671,.185,1.025,0,1.654-1.346,3-3,3Zm3.25-5c-1.517,0-2.75-1.233-2.75-2.75,0-.713,.272-1.389,.766-1.903l-.051-.049c.786-.27,1.455-.794,1.908-1.474,.497,.753,1.253,1.303,2.131,1.542,.482,.511,.747,1.175,.747,1.883,0,1.517-1.233,2.75-2.75,2.75Zm3-5.5c-1.194,0-2.231-.756-2.605-1.867,.069-.283,.105-.579,.105-.883s-.037-.6-.105-.883c.374-1.111,1.411-1.867,2.605-1.867,1.517,0,2.75,1.233,2.75,2.75s-1.233,2.75-2.75,2.75Z"/></svg>
