<?xml version="1.0" encoding="UTF-8"?>
<svg xmlns="http://www.w3.org/2000/svg" id="Layer_1" data-name="Layer 1" viewBox="0 0 24 24">
  <path d="m11.5,8c-1.378,0-2.5,1.122-2.5,2.5v3c0,1.379,1.122,2.5,2.5,2.5s2.5-1.121,2.5-2.5v-3c0-1.378-1.122-2.5-2.5-2.5Zm1.5,5.5c0,.827-.673,1.5-1.5,1.5s-1.5-.673-1.5-1.5v-3c0-.827.673-1.5,1.5-1.5s1.5.673,1.5,1.5v3Zm8,1.49c0,.547-.443.99-.99.99s-.99-.443-.99-.99.443-.99.99-.99.99.443.99.99Zm-6-6c0-.558.448-1.01,1-1.01s1,.452,1,1.01-.448,1.01-1,1.01-1-.452-1-1.01ZM11.984,0C5.367,0-.016,5.383-.016,12s5.383,12,12,12h.016c6.617,0,12-5.383,12-12S18.617,0,11.984,0Zm.016,23h-.016C5.918,23,.984,18.065.984,12S5.918,1,12,1s11,4.935,11,11-4.935,11-11,11Zm9-15l-4.806,8h-1.194l4.806-8h1.194Zm-13.721,3.736c.472.474.731,1.104.729,1.774-.005,1.373-1.127,2.49-2.5,2.49h-2.508v-1h2.508c.824,0,1.497-.67,1.5-1.494.001-.401-.154-.78-.437-1.064-.284-.285-.661-.441-1.063-.441h-2.489l-.021-4h4.503v1h-3.497l.011,2h1.494c.67,0,1.299.261,1.771.736Z"/>
</svg>
