<?xml version="1.0" encoding="UTF-8"?>
<svg xmlns="http://www.w3.org/2000/svg" id="Layer_1" data-name="Layer 1" viewBox="0 0 24 24">
  <path d="m12.5,15h-1V5h1v10Zm9.5-9.855v6.738c0,7.497-7.172,10.968-9.37,11.853l-.65.261-.625-.312c-2.195-1.097-9.354-5.188-9.354-11.801v-6.737c0-1.079.688-2.033,1.713-2.373L12,.025l8.287,2.747c1.025.339,1.713,1.292,1.713,2.372Zm-1,0c0-.647-.413-1.22-1.027-1.423l-7.973-2.644-7.972,2.644c-.615.204-1.028.776-1.028,1.424v6.737c0,6.038,6.96,9.985,9.025,11.018,2.05-.826,8.975-4.147,8.975-11.018v-6.738Zm-9,11.855c-.552,0-1,.448-1,1s.448,1,1,1,1-.448,1-1-.448-1-1-1Z"/>
</svg>
