<?xml version="1.0" encoding="UTF-8"?>
<svg xmlns="http://www.w3.org/2000/svg" id="Layer_1" data-name="Layer 1" viewBox="0 0 24 24" width="512" height="512"><path d="M23.61,22.9l-3.59-3.59c.62-.77,.99-1.75,.99-2.81,0-2.48-2.02-4.5-4.5-4.5s-4.5,2.02-4.5,4.5,2.02,4.5,4.5,4.5c1.06,0,2.04-.37,2.81-.99l3.59,3.59,.71-.71Zm-7.11-2.9c-1.93,0-3.5-1.57-3.5-3.5s1.57-3.5,3.5-3.5,3.5,1.57,3.5,3.5-1.57,3.5-3.5,3.5Zm-4.5,1.19c.32,.3,.66,.58,1.04,.81H0V2.5C0,1.12,1.12,0,2.5,0H19.5c1.38,0,2.5,1.12,2.5,2.5V13.04c-.28-.45-.62-.86-1-1.23V2.5c0-.83-.67-1.5-1.5-1.5H2.5c-.83,0-1.5,.67-1.5,1.5V21H12v.19ZM9.21,4H4v14h6.17c-.08-.32-.13-.66-.16-1H5V8.21l4.21-4.21Zm-4.21,1h1.79l-1.79,1.79v-1.79Zm12,0h-3.79l-4.21,4.21v3.79h2.02c-.2,.32-.38,.65-.52,1h-2.5v-5.21l4.79-4.79h5.21v6.17c-.32-.08-.66-.13-1-.16V5Z"/></svg>
