<?xml version="1.0" encoding="UTF-8"?>
<svg xmlns="http://www.w3.org/2000/svg" id="Layer_1" data-name="Layer 1" width="512" height="512" viewBox="0 0 24 24"><path d="M12,1C5.383,1,0,6.383,0,13c0,3.912,1.948,7.616,5.213,9.909l.129,.091h13.316l.129-.091c3.265-2.293,5.213-5.997,5.213-9.909,0-6.617-5.383-12-12-12Zm6.34,21H5.66c-2.878-2.084-4.66-5.519-4.66-9C1,6.935,5.935,2,12,2s11,4.935,11,11c0,3.481-1.782,6.916-4.66,9Zm-4.34-9c0-1.103-.897-2-2-2s-2,.897-2,2,.897,2,2,2c.62,0,1.175-.284,1.542-.728l5.746,2.681,.424-.906-5.746-2.681c.022-.119,.034-.241,.034-.366Zm-2,1c-.552,0-1-.448-1-1s.448-1,1-1,1,.448,1,1-.448,1-1,1Zm8-1c0,.319-.024,.634-.06,.946l-.965-.45c.011-.165,.025-.329,.025-.496,0-1.869-.728-3.628-2.05-4.95-2.729-2.729-7.17-2.729-9.9,0-2.729,2.729-2.729,7.171,0,9.9l-.707,.707c-3.118-3.119-3.118-8.195,0-11.314,3.119-3.119,8.195-3.119,11.314,0,1.511,1.512,2.343,3.521,2.343,5.657Z"/></svg>
