<?xml version="1.0" encoding="UTF-8"?>
<svg xmlns="http://www.w3.org/2000/svg" id="Layer_1" data-name="Layer 1" viewBox="0 0 24 24" width="512" height="512"><path d="m15,21h1v3H3c-1.654,0-3-1.346-3-3v-13c0-1.654,1.346-3,3-3h3v1h-3c-1.103,0-2,.897-2,2v10.766c.531-.476,1.232-.766,2-.766h3.418c.156.357.353.692.585,1H3c-1.103,0-2,.897-2,2s.897,2,2,2h12v-2ZM24,1.5v17.5h-13c-1.654,0-3-1.346-3-3V3c0-1.654,1.346-3,3-3h11.5c.827,0,1.5.673,1.5,1.5Zm-15,1.5v10.766c.531-.476,1.232-.766,2-.766h12V1.5c0-.275-.224-.5-.5-.5h-11.5c-1.103,0-2,.897-2,2Zm14,15v-4h-12c-1.103,0-2,.897-2,2s.897,2,2,2h12Z"/></svg>
