<?xml version="1.0" encoding="UTF-8"?>
<svg xmlns="http://www.w3.org/2000/svg" id="Layer_1" data-name="Layer 1" viewBox="0 0 24 24" width="512" height="512"><path d="m19.732,12l4.146,4.146-.707.707-4.146-4.146-4.146,4.146-.707-.707,4.146-4.146-4.146-4.146.707-.707,4.146,4.146,4.146-4.146.707.707-4.146,4.146ZM5.323,6L12,.585v22.873l-6.678-5.458h-2.822c-1.378,0-2.5-1.122-2.5-2.5v-7c0-1.378,1.122-2.5,2.5-2.5h2.823Zm.354,1h-3.177c-.827,0-1.5.673-1.5,1.5v7c0,.827.673,1.5,1.5,1.5h3.178l5.322,4.35V2.684l-5.323,4.316Z"/></svg>
