<?xml version="1.0" encoding="UTF-8"?>
<svg xmlns="http://www.w3.org/2000/svg" id="Layer_1" data-name="Layer 1" viewBox="0 0 24 24">
  <path d="m1.636,8.194h0c-1.351.489-1.775,1.737-1.597,2.757s1.003,2.049,2.439,2.049h8.521v8.521c0,1.437,1.028,2.26,2.048,2.439.146.025.296.039.448.039.912,0,1.889-.478,2.308-1.635L23.847.167,1.636,8.194Zm13.229,13.83c-.312.858-1.079,1.052-1.644.95-.563-.099-1.221-.539-1.221-1.454v-9.521H2.479c-.915,0-1.355-.658-1.454-1.222s.091-1.332.951-1.643L22.179,1.833l-7.314,20.191Z"/>
</svg>
