<?xml version="1.0" encoding="UTF-8"?>
<svg xmlns="http://www.w3.org/2000/svg" id="Layer_1" data-name="Layer 1" viewBox="0 0 24 24" width="512" height="512"><path d="M12,0C5.383,0,0,5.383,0,12s5.383,12,12,12,12-5.383,12-12S18.617,0,12,0Zm0,23c-6.065,0-11-4.935-11-11S5.935,1,12,1s11,4.935,11,11-4.935,11-11,11Zm3-13c0-.552,.448-1,1-1s1,.448,1,1-.448,1-1,1-1-.448-1-1Zm-8,0c0-.552,.448-1,1-1s1,.448,1,1-.448,1-1,1-1-.448-1-1Zm9.003,2.595l-.354,.349c-.169,.167-1.649,1.665-1.649,3.057,0,1.103,.897,2,2,2s2-.897,2-2c0-1.359-1.477-2.883-1.646-3.053l-.351-.353Zm-.003,4.405c-.551,0-1-.449-1-1,0-.628,.562-1.439,.997-1.957,.437,.524,1.003,1.344,1.003,1.957,0,.551-.449,1-1,1Zm-3.867-.011c.081,.339,.195,.664,.334,.973-.156,.012-.307,.039-.467,.039-2.919,0-5.236-2.04-5.333-2.127l.666-.746c.021,.019,2.137,1.873,4.667,1.873,.045,0,.088-.01,.133-.011Z"/></svg>
