<?xml version="1.0" encoding="UTF-8"?>
<svg xmlns="http://www.w3.org/2000/svg" id="Layer_1" data-name="Layer 1" viewBox="0 0 24 24">
  <path d="m19,4h-4c-1.103,0-2,.897-2,2v4c0,.364.098.706.269,1h-2.461l-1.532-3.065c-.597-1.193-1.796-1.935-3.131-1.935h-1.146c-1.103,0-2,.897-2,2v6.161c0,.691.365,1.344.958,1.708l4.042,2.416v5.716h1v-6.284l-4.523-2.704c-.294-.18-.477-.506-.477-.852v-6.161c0-.551.448-1,1-1h1.146c.298,0,.586.052.854.149v7.356l1,.598v-7.281c.149.166.278.354.382.561l1.81,3.618h8.809c1.103,0,2-.897,2-2v-4c0-1.103-.897-2-2-2Zm1,6c0,.551-.448,1-1,1h-4c-.552,0-1-.449-1-1v-4c0-.551.448-1,1-1h4c.552,0,1,.449,1,1v4ZM6.5,5c1.379,0,2.5-1.122,2.5-2.5S7.879,0,6.5,0s-2.5,1.122-2.5,2.5,1.121,2.5,2.5,2.5Zm0-4c.827,0,1.5.673,1.5,1.5s-.673,1.5-1.5,1.5-1.5-.673-1.5-1.5.673-1.5,1.5-1.5Zm-2.5,17l1,.598v5.402h-1v-6Z"/>
</svg>
