<?xml version="1.0" encoding="UTF-8"?>
<svg xmlns="http://www.w3.org/2000/svg" id="Layer_1" data-name="Layer 1" viewBox="0 0 24 24">
  <path d="m6.013,9c0,3.309,2.691,6,6,6s6-2.691,6-6.002l-.007-1.998h.994v-1h-.998l-.002-.552c0-3.004-2.445-5.448-5.45-5.448h-1.1c-3.005,0-5.45,2.445-5.45,5.452l.002.548h-1.002v1h1.006l.007,2Zm11,0c0,2.757-2.243,5-5,5s-5-2.243-5-5.002l-.007-1.998h10l.007,2Zm-10.013-3.55c0-1.946,1.256-3.604,3-4.207v2.757h1V1.023c.148-.015.298-.023.45-.023h1.1c.152,0,.302.008.45.023v2.977h1V1.243c1.744.603,3,2.261,3,4.207l.002.55H7.002l-.002-.55Zm14,15.55v3h-1v-3c0-2.206-1.794-4-4-4h-7.987c-2.206,0-4,1.794-4,4v3h-1v-3c0-2.757,2.243-5,5-5h7.987c2.757,0,5,2.243,5,5Z"/>
</svg>
