<?xml version="1.0" encoding="UTF-8"?>
<svg xmlns="http://www.w3.org/2000/svg" id="Layer_1" data-name="Layer 1" viewBox="0 0 24 24">
  <path d="m2.5,18c-1.378,0-2.5,1.122-2.5,2.5s1.122,2.5,2.5,2.5,2.5-1.122,2.5-2.5-1.122-2.5-2.5-2.5Zm0,4c-.827,0-1.5-.673-1.5-1.5s.673-1.5,1.5-1.5,1.5.673,1.5,1.5-.673,1.5-1.5,1.5ZM21.5,6c1.378,0,2.5-1.122,2.5-2.5s-1.122-2.5-2.5-2.5-2.5,1.122-2.5,2.5,1.122,2.5,2.5,2.5Zm0-4c.827,0,1.5.673,1.5,1.5s-.673,1.5-1.5,1.5-1.5-.673-1.5-1.5.673-1.5,1.5-1.5Zm-3.5,10H4.5c-2.481,0-4.5-2.019-4.5-4.5S2.019,3,4.5,3h11.099l-2.286-2.286L14.02.007l2.644,2.644c.486.486.486,1.278,0,1.764l-2.644,2.644-.707-.707,2.351-2.351H4.5c-1.93,0-3.5,1.57-3.5,3.5s1.57,3.5,3.5,3.5h13.5c2.206,0,4,1.794,4,4v1h-1v-1c0-1.654-1.346-3-3-3Zm3.5,6c-1.378,0-2.5,1.122-2.5,2.5s1.122,2.5,2.5,2.5,2.5-1.122,2.5-2.5-1.122-2.5-2.5-2.5Zm0,4c-.827,0-1.5-.673-1.5-1.5s.673-1.5,1.5-1.5,1.5.673,1.5,1.5-.673,1.5-1.5,1.5Zm-4.836-2.35c.486.486.486,1.278,0,1.764l-2.644,2.644-.707-.707,2.351-2.351H7v-1h8.599l-2.286-2.286.707-.707,2.644,2.644Z"/>
</svg>
