<?xml version="1.0" encoding="UTF-8"?>
<svg xmlns="http://www.w3.org/2000/svg" id="Layer_1" data-name="Layer 1" viewBox="0 0 24 24" width="512" height="512"><path d="M16,24h-1v-4.612l.324-.121c3.694-1.384,6.176-4.955,6.176-8.887,0-3.688-2.183-7.057-5.5-8.603V11H8V1.777C4.683,3.323,2.5,6.692,2.5,10.38c0,3.932,2.481,7.503,6.176,8.887l.324,.121v4.612h-1v-3.925c-3.902-1.613-6.5-5.466-6.5-9.695C1.5,6.033,4.242,2.086,8.324,.558l.676-.252V10h6V.306l.676,.252c4.082,1.528,6.824,5.476,6.824,9.822,0,4.229-2.598,8.082-6.5,9.695v3.925Z"/></svg>
