<?xml version="1.0" encoding="UTF-8"?>
<svg xmlns="http://www.w3.org/2000/svg" id="Layer_1" data-name="Layer 1" viewBox="0 0 24 24" width="512" height="512"><path d="M12,24c-5.514,0-10-4.486-10-10v-4C2,4.486,6.486,0,12,0c4.125,0,7.773,2.476,9.296,6.309l-.93,.369c-1.37-3.449-4.654-5.678-8.367-5.678C7.038,1,3,5.038,3,10v4c0,4.962,4.038,9,9,9,3.945,0,7.696-2.535,8.917-6.027,.158-.451,.087-.937-.193-1.332-.289-.408-.74-.641-1.236-.641h-6.487v-1h6.487c.813,0,1.58,.397,2.052,1.062,.47,.664,.588,1.48,.322,2.241-1.357,3.88-5.505,6.697-9.861,6.697Z"/></svg>
