<?xml version="1.0" encoding="UTF-8"?>
<svg xmlns="http://www.w3.org/2000/svg" id="Layer_1" data-name="Layer 1" viewBox="0 0 24 24">
  <path d="m17,14H7c-2.206,0-4,1.794-4,4v3.5c0,1.379,1.121,2.5,2.5,2.5h9.5v-1h-2.12l-2.222-8h6.343c1.654,0,3,1.346,3,3v6h1v-6c0-2.206-1.794-4-4-4Zm-5.157,9h-6.343c-.827,0-1.5-.673-1.5-1.5v-3.5c0-1.654,1.346-3,3-3h2.62l2.222,8Zm.157-11c3.309,0,6-2.691,6-6S15.309,0,12,0s-6,2.691-6,6,2.691,6,6,6Zm4.899-7h-5.862l4.04-2.938c.919.72,1.581,1.753,1.822,2.938ZM12,1c.774,0,1.507.177,2.161.492l-4.824,3.508h-2.237c.465-2.279,2.485-4,4.899-4Zm5,5c0,2.757-2.243,5-5,5s-5-2.243-5-5h10Z"/>
</svg>
