<?xml version="1.0" encoding="UTF-8"?>
<svg xmlns="http://www.w3.org/2000/svg" id="Layer_1" data-name="Layer 1" viewBox="0 0 24 24">
  <path d="m3.5,15h8v2h1v-2h8v2h1v-3h-9v-2.026c1.062-.108,2.071-.556,2.863-1.275l1.926,1.125,1.512-2.591-1.94-1.133c.094-.384.14-.748.14-1.101s-.046-.716-.14-1.101l1.94-1.133-1.512-2.591-1.937,1.13c-.537-.488-1.166-.852-1.853-1.067V0h-3v2.238c-.687.216-1.315.579-1.853,1.067l-1.937-1.13-1.512,2.591,1.94,1.133c-.094.384-.14.748-.14,1.101s.046.716.14,1.101l-1.94,1.133,1.512,2.591,1.926-1.125c.793.719,1.801,1.167,2.863,1.275v2.026H2.5v3h1v-2Zm5.58-5.267l-.273-.291-1.736,1.014-.504-.863,1.756-1.025-.12-.381c-.138-.438-.202-.816-.202-1.187s.064-.749.202-1.188l.12-.38-1.756-1.025.504-.863,1.747,1.02.272-.291c.55-.586,1.249-.989,2.021-1.165l.389-.088V1h1v2.019l.389.088c.772.176,1.472.579,2.021,1.165l.272.291,1.747-1.02.504.863-1.756,1.025.12.38c.138.439.202.817.202,1.188s-.064.749-.202,1.187l-.12.381,1.756,1.025-.504.863-1.736-1.014-.273.291c-.765.817-1.802,1.267-2.92,1.267s-2.155-.45-2.92-1.267Zm-.08,14.267h6v-6h-6v6Zm1-5h4v4h-4v-4Zm8-1v6h6v-6h-6Zm5,5h-4v-4h4v4ZM0,24h6v-6H0v6Zm1-5h4v4H1v-4ZM14,7c0-1.103-.897-2-2-2s-2,.897-2,2,.897,2,2,2,2-.897,2-2Zm-3,0c0-.551.448-1,1-1s1,.449,1,1-.448,1-1,1-1-.449-1-1Z"/>
</svg>
