<?xml version="1.0" encoding="UTF-8"?>
<svg xmlns="http://www.w3.org/2000/svg" id="Layer_1" data-name="Layer 1" viewBox="0 0 24 24" width="512" height="512"><path d="M18.19,10.34l.31,.24,.31-.24c.21-.17,5.19-4.12,5.19-7.16,0-1.75-1.35-3.18-3-3.18-1,0-1.95,.53-2.5,1.28-.53-.72-1.43-1.28-2.5-1.28-1.65,0-3,1.43-3,3.18,0,3.04,4.98,6.99,5.19,7.16ZM16,1c1.11,0,2,.93,2,1.7v.3h1v-.3c0-.79,.87-1.7,2-1.7s2,.98,2,2.18c0,1.97-3,4.88-4.5,6.12-1.5-1.25-4.5-4.15-4.5-6.12,0-1.2,.9-2.18,2-2.18ZM8.5,0H2.5C1.12,0,0,1.12,0,2.5V11H11V2.5c0-1.38-1.12-2.5-2.5-2.5Zm1.5,10H1V2.5c0-.83,.67-1.5,1.5-1.5h6c.83,0,1.5,.67,1.5,1.5v7.5Zm11.5,3h-6c-1.38,0-2.5,1.12-2.5,2.5v8.5h11V15.5c0-1.38-1.12-2.5-2.5-2.5Zm1.5,10H14v-7.5c0-.83,.67-1.5,1.5-1.5h6c.83,0,1.5,.67,1.5,1.5v7.5ZM8.5,13H2.5c-1.38,0-2.5,1.12-2.5,2.5v8.5H11V15.5c0-1.38-1.12-2.5-2.5-2.5Zm1.5,10H1v-7.5c0-.83,.67-1.5,1.5-1.5h6c.83,0,1.5,.67,1.5,1.5v7.5Z"/></svg>
