<?xml version="1.0" encoding="UTF-8"?>
<svg xmlns="http://www.w3.org/2000/svg" id="Layer_1" data-name="Layer 1" viewBox="0 0 24 24">
  <path d="m7,21v-7h-2v-1h5v1h-2v7h-1Zm15.5-8h-1.079l-1.671,3.024-1.671-3.024h-1.079l2.206,4.008-2.206,3.992h1.096l1.654-3.005,1.654,3.005h1.096l-2.206-3.992,2.206-4.008ZM2,23h19v1H1V2.5C1,1.122,2.121,0,3.5,0h10.207l7.293,7.293v3.707h-1v-3h-7V1H3.5c-.827,0-1.5.673-1.5,1.5v20.5ZM14,7h5.293L14,1.707v5.293Zm-2.966,14h-1.034l1.827-6.935c.089-.385.353-.722.722-.911.369-.19.805-.205,1.191-.041.404.168.709.537.814.985l1.711,6.901h-1.03l-.496-2h-3.178l-.527,2Zm.79-3h2.667l-.909-3.667c-.033-.143-.118-.251-.228-.297-.116-.049-.244-.046-.351.009-.105.054-.181.149-.206.261l-.973,3.695Z"/>
</svg>
