<?xml version="1.0" encoding="UTF-8"?>
<svg xmlns="http://www.w3.org/2000/svg" id="Layer_1" data-name="Layer 1" viewBox="0 0 24 24">
  <path d="m23.962,23.255l-7.404-7.404c1.517-1.684,2.442-3.912,2.442-6.351C19,4.262,14.738,0,9.5,0S0,4.262,0,9.5s4.262,9.5,9.5,9.5c2.44,0,4.667-.925,6.351-2.442l7.404,7.404.707-.707Zm-14.462-5.255c-4.687,0-8.5-3.813-8.5-8.5S4.813,1,9.5,1s8.5,3.813,8.5,8.5-3.813,8.5-8.5,8.5Zm1.975-12c-.841,0-1.547.362-1.987.953-.453-.587-1.173-.953-2.013-.953-1.379,0-2.5,1.211-2.5,2.7,0,2.49,3.78,5.236,4.211,5.541l.289.204.289-.204c.431-.305,4.211-3.051,4.211-5.541,0-1.489-1.121-2.7-2.5-2.7Zm-2,7.213c-1.192-.906-3.5-2.975-3.5-4.513,0-.938.673-1.7,1.5-1.7.898,0,1.525.617,1.525,1.5h1c0-.897.593-1.5,1.475-1.5.827,0,1.5.763,1.5,1.7,0,1.538-2.308,3.606-3.5,4.513Z"/>
</svg>
