<?xml version="1.0" encoding="UTF-8"?>
<svg xmlns="http://www.w3.org/2000/svg" id="Layer_1" data-name="Layer 1" viewBox="0 0 24 24">
  <path d="m19.721,9.33c.014-.192.029-.384.029-.58,0-4.273-3.477-7.75-7.75-7.75s-7.75,3.477-7.75,7.75c0,.196.015.388.029.58-2.533,1.276-4.279,3.895-4.279,6.92,0,4.273,3.477,7.75,7.75,7.75,1.569,0,3.028-.472,4.25-1.277,1.222.805,2.681,1.277,4.25,1.277,4.273,0,7.75-3.477,7.75-7.75,0-3.025-1.746-5.644-4.279-6.92Zm-14.471-.58c0-3.722,3.028-6.75,6.75-6.75s6.75,3.028,6.75,6.75c0,.057-.007.112-.009.168-.783-.267-1.619-.418-2.491-.418-1.569,0-3.028.472-4.25,1.277-1.222-.805-2.681-1.277-4.25-1.277-.872,0-1.708.152-2.491.418-.001-.057-.009-.112-.009-.168Zm9.25,7.5c0,2.112-.977,3.999-2.5,5.237-1.523-1.239-2.5-3.125-2.5-5.237,0-.057.007-.112.009-.168.783.267,1.619.418,2.491.418s1.708-.152,2.491-.418c.001.057.009.112.009.168Zm-2.5-.75c-.841,0-1.644-.162-2.388-.444.291-1.621,1.159-3.044,2.388-4.043,1.229.999,2.097,2.422,2.388,4.043-.744.283-1.546.444-2.388.444Zm-3.324-.882c-1.711-.973-2.954-2.67-3.314-4.674.744-.283,1.546-.444,2.388-.444,1.241,0,2.4.342,3.4.929-1.229,1.078-2.118,2.534-2.474,4.189Zm4.173-4.189c1-.587,2.16-.929,3.4-.929.841,0,1.644.162,2.388.444-.36,2.003-1.603,3.7-3.314,4.674-.356-1.655-1.245-3.111-2.474-4.189Zm-5.1,12.571c-3.722,0-6.75-3.028-6.75-6.75,0-2.513,1.384-4.706,3.426-5.868.499,2.318,2.039,4.248,4.103,5.287-.014.192-.029.384-.029.58,0,2.32,1.03,4.4,2.65,5.821-1,.587-2.16.929-3.4.929Zm8.5,0c-1.241,0-2.4-.342-3.4-.929,1.621-1.422,2.65-3.501,2.65-5.821,0-.196-.015-.388-.029-.58,2.064-1.04,3.604-2.97,4.103-5.287,2.043,1.162,3.426,3.354,3.426,5.868,0,3.722-3.028,6.75-6.75,6.75Z"/>
</svg>
