<?xml version="1.0" encoding="UTF-8"?>
<svg xmlns="http://www.w3.org/2000/svg" id="Layer_1" data-name="Layer 1" viewBox="0 0 24 24">
  <path d="m9,20.606v-3.656c1.968-.249,3.5-1.915,3.5-3.949,0-2.008-1.575-4.344-2.634-5.424-.729-.743-2.005-.743-2.731,0-1.06,1.08-2.635,3.415-2.635,5.424,0,2.034,1.532,3.7,3.5,3.949v3.653c-1.037-1.725-3.133-3.603-7.385-3.603H.011l.113.594c1.104,5.798,5.765,6.406,7.65,6.406h1.453c1.89,0,6.559-.609,7.667-6.406l.113-.594h-.604c-4.264,0-6.365,1.88-7.403,3.606Zm-3.5-7.606c0-1.698,1.44-3.799,2.349-4.725.103-.106.231-.173.366-.218-.767,1.227-1.214,3.013-1.214,4.943h1c0-1.889.456-3.592,1.223-4.645.91.959,2.277,2.991,2.277,4.645s-1.346,3-3,3-3-1.346-3-3Zm-4.258,5.015c5.184.256,6.403,3.679,6.682,4.986-1.454.042-5.468-.251-6.682-4.986Zm7.832,4.985c.271-1.305,1.478-4.731,6.702-4.985-1.219,4.74-5.263,5.038-6.702,4.985ZM14,3c0-.552.448-1,1-1s1,.448,1,1-.448,1-1,1-1-.448-1-1Zm10.001,5v-.501c-.002-.905-.475-2.531-2.156-2.928.104-.301.155-.602.155-.898,0-1.433-1.604-3.123-1.787-3.331l-.301-.342-.368.268c-.104.076-2.544,1.703-2.544,3.732,0,.333.06.774.168,1.206-.66-.141-1.368-.206-1.668-.206-2.08,0-3.267,2.503-3.322,2.61l-.179.347.293.257c.207.183,1.948,1.786,3.38,1.786.297,0,.598-.052.898-.155.396,1.681,2.022,2.153,2.928,2.155h.501s0-3.032,0-3.032c0-.378-.103-.806-.242-1.209.402.139.831.242,1.21.242h3.033Zm-5.001,2.936c-.591-.134-1.493-.551-1.518-1.841l-.017-.858-.738.438c-.365.216-.721.326-1.055.326-.747,0-1.762-.77-2.402-1.274.379-.587,1.134-1.726,2.229-1.726.553,0,1.777.191,2.206.413l.633.633c.282.486.661,1.37.661,1.922v1.968Zm.048-4.595l-.635-.635c-.244-.443-.413-1.241-.413-1.706,0-1.05,1.065-2.024,1.766-2.629.504.648,1.234,1.574,1.234,2.301,0,.334-.11.689-.326,1.055l-.438.739.858.016c1.296.024,1.711.921,1.844,1.517h-1.97c-.553,0-1.436-.378-1.92-.659Z"/>
</svg>
