<?xml version="1.0" encoding="UTF-8"?>
<svg xmlns="http://www.w3.org/2000/svg" id="Layer_1" data-name="Layer 1" viewBox="0 0 24 24">
  <path d="m24.023,24l-4.572-10.16-3.472,4.96-10.499-7.183,1.3-3.637c.144-.402.455-.725.854-.885.166-.072.356-.11.554-.11.231,0,.464.055.672.159l.781.343c.85.42,1.46,1.105,1.767,1.949l1.622,4.581.94-.342-1.625-4.588c-.392-1.078-1.178-1.959-2.211-2.475l-.782-.343c-.686-.338-1.432-.368-2.093-.102-.662.266-1.18.804-1.421,1.476l-1.212,3.39-3.307-2.262-.564.826,14.65,10.022-3.066,4.38h11.684Zm-1.547-1h-8.217l5.002-7.145,3.215,7.145ZM11.5,5c1.379,0,2.5-1.121,2.5-2.5s-1.121-2.5-2.5-2.5-2.5,1.121-2.5,2.5,1.121,2.5,2.5,2.5Zm0-4c.827,0,1.5.673,1.5,1.5s-.673,1.5-1.5,1.5-1.5-.673-1.5-1.5.673-1.5,1.5-1.5Zm-7.095,13.421l-3.354,9.566-1.052.013,3.565-10.154.841.575Zm4.595,3.117l1,.684v5.777h-1v-6.462Z"/>
</svg>
