<?xml version="1.0" encoding="UTF-8"?>
<svg xmlns="http://www.w3.org/2000/svg" id="Layer_1" data-name="Layer 1" viewBox="0 0 24 24">
  <path d="m12.5,19h11.502l-2.09-16.809c-.155-1.249-1.222-2.191-2.481-2.191H4.569c-1.259,0-2.326.942-2.481,2.191L-.002,19h11.502v4h-5.5v1h12v-1h-5.5v-4Zm3.701-1l-.156-5h6.204l.622,5h-6.669Zm-7.057-11h5.713l.156,5h-6.025l.156-5Zm-1.157,5H1.876l.622-5h5.645l-.156,5Zm1.188-6l.156-5h5.338l.156,5h-5.65Zm6.682,1h5.645l.622,5h-6.111l-.156-5Zm5.062-4.686l.458,3.686h-5.552l-.156-5h3.761c.755,0,1.396.565,1.489,1.314ZM3.081,2.314c.093-.749.733-1.314,1.489-1.314h3.761l-.156,5H2.622l.458-3.686Zm-1.329,10.686h6.204l-.156,5H1.13l.622-5Zm7.049,5l.156-5h6.087l.156,5h-6.399Z"/>
</svg>
