<?xml version="1.0" encoding="UTF-8"?>
<svg xmlns="http://www.w3.org/2000/svg" id="Layer_1" data-name="Layer 1" viewBox="0 0 24 24" width="512" height="512"><path d="M8.401,18.198l.597,.803c.014-.01,1.376-1.001,3.002-1.001s2.988,.991,3.002,1.001l.597-.803c-.066-.049-1.634-1.198-3.599-1.198s-3.532,1.149-3.599,1.198Z"/><path d="M12,0C5.383,0,0,5.383,0,12s5.383,12,12,12,12-5.383,12-12S18.617,0,12,0Zm0,23c-6.065,0-11-4.935-11-11S5.935,1,12,1s11,4.935,11,11-4.935,11-11,11Z"/><path d="M9.168,4.525l-.846-.535c-.841,1.327-2.112,2.382-3.679,3.05l.393,.92c1.753-.747,3.182-1.936,4.132-3.435Z"/><path d="M19.03,7.96l.393-.92c-1.579-.673-2.878-1.73-3.756-3.058l-.834,.551c.986,1.492,2.438,2.677,4.197,3.427Z"/><path d="M11,11.5c0-2.206-1.794-4-4-4s-4,1.794-4,4,1.794,4,4,4,4-1.794,4-4Zm-4,3c-1.654,0-3-1.346-3-3s1.346-3,3-3,3,1.346,3,3-1.346,3-3,3Z"/><path d="M7,9.5c-.205,0-.398,.04-.584,.097,.343,.159,.584,.501,.584,.903,0,.552-.448,1-1,1-.403,0-.745-.241-.903-.584-.057,.186-.097,.379-.097,.584,0,1.105,.895,2,2,2s2-.895,2-2-.895-2-2-2Zm.5,3.5c-.276,0-.5-.224-.5-.5s.224-.5,.5-.5,.5,.224,.5,.5-.224,.5-.5,.5Z"/><path d="M17,7.5c-2.206,0-4,1.794-4,4s1.794,4,4,4,4-1.794,4-4-1.794-4-4-4Zm0,7c-1.654,0-3-1.346-3-3s1.346-3,3-3,3,1.346,3,3-1.346,3-3,3Z"/><path d="M17,9.5c-.205,0-.398,.04-.584,.097,.343,.159,.584,.501,.584,.903,0,.552-.448,1-1,1-.403,0-.745-.241-.903-.584-.057,.186-.097,.379-.097,.584,0,1.105,.895,2,2,2s2-.895,2-2-.895-2-2-2Zm.5,3.5c-.276,0-.5-.224-.5-.5s.224-.5,.5-.5,.5,.224,.5,.5-.224,.5-.5,.5Z"/></svg>
