<?xml version="1.0" encoding="UTF-8"?>
<svg xmlns="http://www.w3.org/2000/svg" id="Layer_1" data-name="Layer 1" viewBox="0 0 24 24" width="512" height="512"><path d="M24,2.5c0-1.379-1.122-2.5-2.5-2.5h-7.5V4.46l.646-.196c.595-.182,1.119-.264,1.354-.264,.551,0,1,.448,1,1s-.449,1-1,1c-.235,0-.759-.082-1.354-.264l-.646-.196v4.46h3.136c-.086,.389-.136,.744-.136,1,0,1.103,.897,2,2,2s2-.897,2-2c0-.256-.05-.611-.136-1h3.136V2.5Zm-1,6.5h-3.459l.196,.646c.181,.595,.263,1.119,.263,1.354,0,.552-.449,1-1,1s-1-.448-1-1c0-.235,.083-.76,.263-1.354l.196-.646h-3.459v-2.137c.389,.087,.745,.137,1,.137,1.103,0,2-.897,2-2s-.897-2-2-2c-.255,0-.611,.05-1,.137V1h6.5c.827,0,1.5,.673,1.5,1.5v6.5Zm-8.263,5.646c.181,.595,.263,1.119,.263,1.354,0,.552-.449,1-1,1s-1-.448-1-1c0-.235,.083-.76,.263-1.354l.196-.646h-3.459V5H2.5c-1.378,0-2.5,1.121-2.5,2.5V24H19V14h-4.459l.196,.646ZM1,7.5c0-.827,.673-1.5,1.5-1.5h6.5V14h-2.136c.086-.389,.136-.744,.136-1,0-1.103-.897-2-2-2s-2,.897-2,2c0,.256,.05,.611,.136,1H1V7.5Zm8,15.5H1V15h3.459l-.196-.646c-.181-.595-.263-1.119-.263-1.354,0-.552,.449-1,1-1s1,.448,1,1c0,.235-.083,.76-.263,1.354l-.196,.646h3.459v2.137c-.389-.087-.745-.137-1-.137-1.103,0-2,.897-2,2s.897,2,2,2c.255,0,.611-.05,1-.137v2.137Zm6.864-8h2.136v8H10v-3.46l-.646,.196c-.595,.182-1.119,.264-1.354,.264-.551,0-1-.448-1-1s.449-1,1-1c.235,0,.759,.082,1.354,.264l.646,.196v-3.46h2.136c-.086,.389-.136,.744-.136,1,0,1.103,.897,2,2,2s2-.897,2-2c0-.256-.05-.611-.136-1Z"/></svg>
