<?xml version="1.0" encoding="UTF-8"?>
<svg xmlns="http://www.w3.org/2000/svg" id="Layer_1" data-name="Layer 1" viewBox="0 0 24 24">
  <path d="m21.919,18l-2.49-14.108c-.295-1.676-1.745-2.892-3.446-2.892h-7.966c-1.702,0-3.151,1.216-3.447,2.892l-2.49,14.108H0v1h1v1.5c0,1.379,1.122,2.5,2.5,2.5h17c1.379,0,2.5-1.121,2.5-2.5v-1.5h1v-1h-2.081ZM5.555,4.065c.211-1.197,1.247-2.065,2.462-2.065h7.966c1.215,0,2.251.868,2.462,2.065l.165.935h-1.61c-1.103,0-2,.897-2,2v3.5c0,.275-.225.5-.5.5s-.5-.225-.5-.5v-3.5c0-1.103-.897-2-2-2s-2,.897-2,2v6.5c0,.275-.224.5-.5.5s-.5-.225-.5-.5v-6.5c0-1.103-.897-2-2-2h-1.61l.165-.935Zm-.341,1.935h1.787c.551,0,1,.448,1,1v6.5c0,.827.673,1.5,1.5,1.5s1.5-.673,1.5-1.5v-6.5c0-.552.449-1,1-1s1,.448,1,1v3.5c0,.827.673,1.5,1.5,1.5s1.5-.673,1.5-1.5v-3.5c0-.552.448-1,1-1h1.787l2.118,12H3.096l2.118-12Zm16.787,14.5c0,.827-.673,1.5-1.5,1.5H3.5c-.827,0-1.5-.673-1.5-1.5v-1.5h20v1.5Z"/>
</svg>
