<?xml version="1.0" encoding="UTF-8"?>
<svg xmlns="http://www.w3.org/2000/svg" id="Layer_1" data-name="Layer 1" viewBox="0 0 24 24" width="512" height="512"><path d="M1,21H11v1H0V2.5C0,1.12,1.12,0,2.5,0H19.5c1.38,0,2.5,1.12,2.5,2.5v6.76c-.31-.25-.64-.48-1-.66V2.5c0-.83-.67-1.5-1.5-1.5H2.5c-.83,0-1.5,.67-1.5,1.5V21Zm4-4h6v1H4V4h5.21l-4.21,4.21v8.79Zm0-10.21l1.79-1.79h-1.79v1.79Zm4,2.41l4.21-4.21h3.79v3.21c.32-.09,.66-.15,1-.18V4h-5.21l-4.79,4.79v5.21h3v-1h-2v-3.79Zm15,5.79v6.5c0,1.38-1.12,2.5-2.5,2.5h-6c-1.38,0-2.5-1.12-2.5-2.5v-6.5h2v-1.5c0-1.93,1.57-3.5,3.5-3.5s3.5,1.57,3.5,3.5v1.5h2Zm-8,0h5v-1.5c0-1.38-1.12-2.5-2.5-2.5s-2.5,1.12-2.5,2.5v1.5Zm7,1H14v5.5c0,.83,.67,1.5,1.5,1.5h6c.83,0,1.5-.67,1.5-1.5v-5.5Zm-4,2.5h-1v2h1v-2Z"/></svg>
