<?xml version="1.0" encoding="UTF-8"?>
<svg xmlns="http://www.w3.org/2000/svg" id="Layer_1" data-name="Layer 1" viewBox="0 0 24 24">
  <path d="m22.09,12.213l.819.574-3.649,5.213h-3.26v6h-1v-6h-6v6h-1v-6h-3.26l-3.649-5.213.819-.574,3.351,4.787h13.479l3.351-4.787ZM1.276,6.188C.233,5.33-.209,4.02.092,2.682.375,1.425,1.407.386,2.66.097c1.097-.248,2.169-.013,3.019.665.839.669,1.321,1.668,1.321,2.739,0,1.038-.463,2.016-1.271,2.683-.61.502-.729,1.229-.729,2.316v1.5h-3v-1.5c0-1.088-.119-1.815-.724-2.312Zm.635-.773c.543.446.813,1.003.95,1.586h1.279c.138-.583.408-1.139.953-1.588.576-.477.907-1.173.907-1.911,0-.766-.344-1.479-.944-1.958-.607-.485-1.378-.65-2.172-.472-.885.204-1.615.939-1.815,1.83-.217.962.098,1.901.843,2.513Zm8.079,2.143l.707.707,1.979-1.979c.433-.433.433-1.138,0-1.57l-1.979-1.979-.707.707,1.557,1.557h-3.546v1h3.546l-1.557,1.557Zm2.011,3.443c1.378,0,2.5,1.121,2.5,2.5s-1.122,2.5-2.5,2.5-2.5-1.121-2.5-2.5,1.122-2.5,2.5-2.5Zm0,1c-.827,0-1.5.673-1.5,1.5s.673,1.5,1.5,1.5,1.5-.673,1.5-1.5-.673-1.5-1.5-1.5Zm10.97-6.525c.02-.16.03-.319.03-.475,0-.156-.01-.316-.03-.479l1.007-.556-1.449-2.627-1.011.559c-.302-.241-.646-.44-1.017-.59V0h-3v1.308c-.371.149-.715.348-1.017.589l-.991-.548-1.45,2.627.989.546c-.021.162-.031.322-.031.479,0,.155.01.314.03.475l-1.048.565,1.45,2.626,1.048-.565c.303.242.647.442,1.02.592v1.308h3v-1.308c.372-.149.717-.35,1.02-.591l1.025.555,1.449-2.626-1.024-.556Zm-.822,1.83l-.827-.425c-.45.555-1.086.946-1.821,1.07v1.05h-1v-1.05c-.743-.125-1.385-.524-1.836-1.088l-.836.455-.483-.876.834-.454c-.109-.31-.18-.639-.18-.987s.071-.678.18-.989l-.78-.428.483-.875.782.429c.451-.564,1.093-.962,1.835-1.087v-1.05h1v1.05c.745.126,1.389.526,1.84,1.093l.795-.445.483.875-.796.446c.107.309.178.635.178.981,0,.356-.073.692-.186,1.008l.818.42-.483.876Zm-3.148-4.305c-1.103,0-2,.897-2,2s.897,2,2,2,2-.897,2-2-.897-2-2-2Zm0,3c-.551,0-1-.448-1-1s.449-1,1-1,1,.448,1,1-.449,1-1,1Z"/>
</svg>
