<?xml version="1.0" encoding="UTF-8"?>
<svg xmlns="http://www.w3.org/2000/svg" id="Layer_1" data-name="Layer 1" viewBox="0 0 24 24" width="512" height="512"><path d="M12,17c1.965,0,3.532,1.149,3.599,1.198l-.597,.803c-.014-.01-1.376-1.001-3.002-1.001s-2.988,.991-3.002,1.001l-.597-.803c.066-.049,1.634-1.198,3.599-1.198Zm12-5c0,6.617-5.383,12-12,12S0,18.617,0,12,5.383,0,12,0s12,5.383,12,12Zm-1,0c0-6.065-4.935-11-11-11S1,5.935,1,12s4.935,11,11,11,11-4.935,11-11Zm-5.646-1.891l-3.655,2.924,3.655,2.924,.625-.781-2.679-2.143,2.679-2.143-.625-.781Zm-10.709,0l-.625,.781,2.679,2.143-2.679,2.143,.625,.781,3.655-2.924-3.655-2.924Zm2.521-4.342l-.844-.535c-.83,1.309-2.137,2.392-3.68,3.05l.393,.92c1.752-.747,3.181-1.935,4.131-3.435Zm6.5-.543l-.834,.551c.985,1.49,2.437,2.675,4.197,3.427l.393-.92c-1.58-.674-2.879-1.731-3.756-3.058Z"/></svg>
