<?xml version="1.0" encoding="UTF-8"?>
<svg xmlns="http://www.w3.org/2000/svg" id="Layer_1" data-name="Layer 1" viewBox="0 0 24 24">
  <path d="m22,11h-4.5c-1.103,0-2,.897-2,2v1.269c-.294-.171-.636-.269-1-.269h-5c-1.103,0-2,.897-2,2v1.269c-.294-.171-.636-.269-1-.269H2c-1.103,0-2,.897-2,2v5h24v-11c0-1.103-.897-2-2-2Zm-13.5,5c0-.551.448-1,1-1h5c.552,0,1,.449,1,1v7h-7v-7Zm-7.5,3c0-.551.448-1,1-1h4.5c.552,0,1,.449,1,1v4H1v-4Zm22,4h-6.5v-10c0-.551.448-1,1-1h4.5c.552,0,1,.449,1,1v10Zm-13.846-12.333l.623.474,2.223-1.441,2.205,1.441.641-.482-.707-2.364,1.861-1.5v-.795h-2.683l-.946-2.626h-.768l-.921,2.626h-2.683v.795l1.861,1.5-.707,2.372Zm.694-3.667h1.544l.608-1.735.608,1.735h1.544l-1.164.938.449,1.502-1.437-.932-1.438.932.449-1.502-1.164-.938ZM1.154,13.667l.623.474,2.223-1.441,2.205,1.441.641-.482-.707-2.364,1.861-1.5v-.795h-2.683l-.946-2.626h-.768l-.921,2.626H0v.795l1.861,1.5-.707,2.372Zm.694-3.667h1.544l.608-1.735.608,1.735h1.544l-1.164.938.449,1.502-1.437-.932-1.438.932.449-1.502-1.164-.938ZM21.317,3l-.946-2.626h-.768l-.921,2.626h-2.683v.795l1.861,1.5-.707,2.372.623.474,2.223-1.441,2.205,1.441.641-.482-.707-2.364,1.861-1.5v-.795h-2.683Zm-.329,1.938l.449,1.502-1.437-.932-1.438.932.449-1.502-1.164-.938h1.544l.608-1.735.608,1.735h1.544l-1.164.938Z"/>
</svg>
