<?xml version="1.0" encoding="UTF-8"?>
<svg xmlns="http://www.w3.org/2000/svg" id="Layer_1" data-name="Layer 1" viewBox="0 0 24 24" width="512" height="512"><path d="M22.97,15.331l-.119-.331h-4.713l-.61-5.289,.697-.113c.62-.09,1.16-.452,1.481-.991,.322-.541,.383-1.189,.166-1.78C18.327,2.616,14.71,0,10.432,0,4.68,0,0,4.68,0,10.432c0,1.533,.518,4.813,.826,6.632,.167,.979,.872,1.763,1.839,2.047,3.837,1.128,6.72,2.326,9.073,3.77l.336,.206,3.087-3.087h2.547l.327,2.837,.255,.117c1.509,.694,3.262,1.046,5.209,1.046h.5v-.5c0-5.254-.988-8.053-1.03-8.169Zm-.838,.669c.139,.485,.392,1.497,.59,3h-4.122l-.346-3h3.878Zm-5-1h-4.057l-.239-.43c-.195-.354-.249-.765-.151-1.157l.506-2.022c.157-.628,.673-1.095,1.323-1.189l2.027-.329,.592,5.128Zm-5.208,6.825c-2.366-1.4-5.232-2.572-8.976-3.673-.599-.175-1.034-.657-1.135-1.255-.303-1.788-.812-5.005-.812-6.465C1,5.231,5.231,1,10.432,1c3.848,0,7.105,2.365,8.502,6.172,.112,.306,.081,.643-.086,.923-.167,.28-.446,.467-.775,.515l-3.711,.603c-1.045,.152-1.885,.912-2.141,1.936l-.506,2.022c-.16,.638-.072,1.306,.247,1.883l2.402,4.33-2.441,2.441Zm3.372-2.825l-1.665-3h3.617l.346,3h-2.298Zm3.669,3.158l-.249-2.158h4.121c.085,.872,.146,1.871,.161,2.992-1.492-.051-2.845-.331-4.033-.833Zm-8.964-6.158c0,.552-.448,1-1,1s-1-.448-1-1,.448-1,1-1,1,.448,1,1Z"/></svg>
