<?xml version="1.0" encoding="UTF-8"?>
<svg xmlns="http://www.w3.org/2000/svg" id="Layer_1" data-name="Layer 1" viewBox="0 0 24 24" width="512" height="512"><path d="M8,16.5v.5h-1v-.5c0-.827-.673-1.5-1.5-1.5H2.363c-.752,0-1.363,.611-1.363,1.363,0,.664,.475,1.228,1.128,1.342l3.953,.692c1.112,.195,1.919,1.155,1.919,2.284,0,1.278-1.04,2.318-2.318,2.318h-1.182v1h-1v-1h-1c-1.379,0-2.5-1.122-2.5-2.5v-.5H1v.5c0,.827,.673,1.5,1.5,1.5h3.182c.727,0,1.318-.591,1.318-1.318,0-.642-.459-1.188-1.091-1.298l-3.953-.692c-1.134-.198-1.956-1.177-1.956-2.328,0-1.303,1.061-2.363,2.363-2.363h1.137v-1h1v1h1c1.379,0,2.5,1.122,2.5,2.5Zm3,3.5v-7h-1v7h1Zm10-4h3v1h-3v3h3v1h-3v3h-1v-3h-3v3h-1v-3h-3v-1h3v-3h-3v-1h3v-3h1v3h3v-3h1v3Zm-1,1h-3v3h3v-3Zm-9.5,5c-.552,0-1,.448-1,1s.448,1,1,1,1-.448,1-1-.448-1-1-1Zm12.5-10h1C24,5.383,18.617,0,12,0S0,5.383,0,12H1C1,5.935,5.935,1,12,1s11,4.935,11,11Zm-5.289-5.091l-3.032,2.144c-.395,.134-.679,.507-.679,.947,0,.552,.448,1,1,1s1-.448,1-1c0-.2-.059-.386-.16-.543l2.449-1.732-.578-.816Zm-7.711,3.091c0-.482-.341-.885-.795-.979l-2.912-2.108-.586,.81,2.435,1.764c-.09,.15-.142,.326-.142,.514,0,.552,.448,1,1,1s1-.448,1-1Z"/></svg>
