<?xml version="1.0" encoding="UTF-8"?>
<svg xmlns="http://www.w3.org/2000/svg" id="Layer_1" data-name="Layer 1" viewBox="0 0 24 24" width="512" height="512"><path d="M23.315,.705c-.033,.013-3.309,1.295-6.315,1.295-1.501,0-3.34-.499-5.119-.982-1.842-.5-3.746-1.018-5.381-1.018C3.238,0,.327,2.098,.204,2.187L0,2.337V24H1V14.855c.692-.454,3.032-1.855,5.5-1.855,1.501,0,3.34,.499,5.119,.982,1.842,.5,3.746,1.018,5.381,1.018,3.195,0,6.542-1.31,6.683-1.365l.316-.125V.435l-.684,.271Zm-.316,8.117c-.894,.318-3.537,1.178-5.999,1.178-1.501,0-3.34-.499-5.119-.982-.292-.079-.587-.159-.881-.237v-2.966c.206,.055,.413,.112,.62,.168,1.841,.5,3.746,1.018,5.38,1.018,2.376,0,4.836-.724,5.999-1.118v2.94Zm-5.999-5.822c2.376,0,4.836-.724,5.999-1.118v2.94c-.894,.318-3.537,1.178-5.999,1.178-1.501,0-3.34-.499-5.118-.982-.294-.08-.589-.16-.882-.238V1.815c.207,.056,.413,.112,.619,.168,1.842,.5,3.746,1.018,5.381,1.018ZM6.5,1c1.047,0,2.259,.243,3.5,.554v6.97c-1.221-.298-2.419-.524-3.5-.524-2.285,0-4.398,1.029-5.501,1.676V2.855c.692-.453,3.032-1.855,5.501-1.855Zm10.5,13c-1.501,0-3.34-.499-5.119-.982-1.842-.5-3.746-1.018-5.381-1.018-2.285,0-4.397,1.029-5.5,1.677v-2.822c.692-.454,3.032-1.855,5.5-1.855,1.501,0,3.34,.499,5.119,.982,1.842,.5,3.746,1.018,5.381,1.018,2.376,0,4.836-.724,5.999-1.118v2.94c-.895,.319-3.537,1.179-5.999,1.179Z"/></svg>
