<?xml version="1.0" encoding="UTF-8"?>
<svg xmlns="http://www.w3.org/2000/svg" id="Layer_1" data-name="Layer 1" viewBox="0 0 24 24" width="512" height="512"><path d="M24,12c0,6.617-5.383,12-12,12S0,18.617,0,12c0-2.297,.66-4.437,1.784-6.263,.293,.112,.616,.22,.973,.323-1.106,1.716-1.756,3.752-1.756,5.941,0,6.065,4.935,11,11,11s11-4.935,11-11c0-2.189-.65-4.225-1.756-5.941,.357-.102,.68-.21,.973-.323,1.124,1.826,1.784,3.966,1.784,6.263Zm-15,0h1c0-1.888-1.069-4-2.5-4s-2.5,2.112-2.5,4h1c0-1.43,.785-3,1.5-3s1.5,1.57,1.5,3Zm10,0c0-1.888-1.069-4-2.5-4s-2.5,2.112-2.5,4h1c0-1.43,.785-3,1.5-3s1.5,1.57,1.5,3h1Zm-1.667,3.873l-.666-.746c-.021,.019-2.137,1.873-4.667,1.873s-4.646-1.854-4.667-1.873l-.666,.746c.097,.086,2.414,2.127,5.333,2.127s5.236-2.041,5.333-2.127ZM.962,2.5C.962,.028,11.549,0,12,0s11.038,.028,11.038,2.5-10.587,2.5-11.038,2.5S.962,4.972,.962,2.5Zm.994,.033c.25,.485,3.819,1.467,10.044,1.467,6.103,0,9.653-.945,10.025-1.5-.372-.555-3.923-1.5-10.025-1.5C5.775,1,2.206,1.982,1.956,2.533Z"/></svg>
