<?xml version="1.0" encoding="UTF-8"?>
<svg xmlns="http://www.w3.org/2000/svg" id="Layer_1" data-name="Layer 1" viewBox="0 0 24 24">
  <path d="m12.338,23.131c-.066-.062-2.671-2.556-4.217-6.131h2.113l-.342-1h-2.162c-.438-1.246-.73-2.593-.73-4s.292-2.753.732-4h8.526c.245.697.448,1.422.575,2.176l1.068.365c-.108-.884-.316-1.731-.577-2.541h4.913c.487,1.242.764,2.588.764,4,0,.095-.011.187-.014.281l.982.336c.011-.206.031-.409.031-.617C24,5.383,18.617,0,12,0S0,5.383,0,12s5.383,12,12,12c.209,0,.412-.021.618-.031l-.276-.838h-.005ZM8.123,7c1.229-2.838,3.115-4.989,3.877-5.788.761.8,2.641,2.953,3.866,5.788h-7.743Zm13.663,0h-4.822c-1.064-2.665-2.707-4.78-3.725-5.925,3.734.421,6.902,2.719,8.547,5.925ZM10.76,1.075c-1.019,1.144-2.664,3.257-3.731,5.925H2.214C3.859,3.794,7.026,1.496,10.76,1.075ZM1.764,8h4.905c-.404,1.248-.669,2.589-.669,4s.265,2.752.669,4H1.764c-.487-1.242-.764-2.588-.764-4s.277-2.758.764-4Zm.45,9h4.814c1.067,2.669,2.712,4.781,3.732,5.925-3.734-.421-6.901-2.719-8.546-5.925Zm12.521,6.979l2.528-6.716,6.716-2.528-14.051-4.807,4.807,14.051Zm1.752-7.491l-1.707,4.534-3.246-9.487,9.487,3.245-4.534,1.708Z"/>
</svg>
