<?xml version="1.0" encoding="UTF-8"?>
<svg xmlns="http://www.w3.org/2000/svg" id="Layer_1" data-name="Layer 1" viewBox="0 0 24 24" width="512" height="512"><path d="M23.981,.726L23.274,.019l-3.774,3.774-2.769-2.769-.707,.707,2.769,2.769-2.293,2.293-2.769-2.769-.707,.707,2.769,2.769-2.192,2.192-2.899-2.899-.354,.354c-1.674,1.674-1.786,4.328-.334,6.133l-1.538,1.538-2.769-2.769-.707,.707,2.769,2.769-1.428,1.428c-.392,.394-1.009,.495-1.611,.27-1.492-.56-3.186-.031-4.11,1.288-.823,1.172-.823,2.809,0,3.98,.604,.861,1.543,1.407,2.576,1.496,.103,.01,.204,.014,.306,.014,.926,0,1.813-.365,2.474-1.025l-.707-.707c-.523,.524-1.247,.796-1.985,.723-.749-.064-1.404-.446-1.845-1.074-.585-.834-.585-1.998,0-2.832,.662-.944,1.872-1.326,2.941-.926,.975,.366,1.995,.174,2.669-.499l1.428-1.428,2.782,2.782,.707-.707-2.782-2.782,1.538-1.538c.838,.674,1.859,1.011,2.88,1.011,1.178,0,2.356-.449,3.253-1.346l.354-.354-2.899-2.899,2.192-2.192,2.782,2.782,.707-.707-2.782-2.782,2.293-2.293,2.782,2.782,.707-.707-2.782-2.782,3.774-3.774ZM11.055,12.945c-.68-.681-1.055-1.584-1.055-2.546,0-.793,.255-1.547,.726-2.168l5.043,5.043c-1.374,1.042-3.472,.911-4.714-.329Z"/></svg>
