<?xml version="1.0" encoding="UTF-8"?>
<svg xmlns="http://www.w3.org/2000/svg" id="Layer_1" data-name="Layer 1" viewBox="0 0 24 24">
  <path d="m24,19H5.5c-.827,0-1.5-.673-1.5-1.5V2.5C4,1.122,2.879,0,1.5,0H0v1h1.5c.827,0,1.5.673,1.5,1.5v15c0,1.379,1.121,2.5,2.5,2.5h.5v1c0,1.654,1.346,3,3,3s3-1.346,3-3v-1h4v1c0,1.654,1.346,3,3,3s3-1.346,3-3v-1h2v-1Zm-13,2c0,1.103-.897,2-2,2s-2-.897-2-2v-1h4v1Zm10,0c0,1.103-.897,2-2,2s-2-.897-2-2v-1h4v1Zm2-15.5c0-1.378-1.121-2.5-2.5-2.5h-12c-1.379,0-2.5,1.122-2.5,2.5v11.5h17V5.5Zm-10-1.5h3v5h-3v-5Zm9,12H7V5.5c0-.827.673-1.5,1.5-1.5h3.5v6h5v-6h3.5c.827,0,1.5.673,1.5,1.5v10.5Z"/>
</svg>
