<?xml version="1.0" encoding="UTF-8"?>
<svg xmlns="http://www.w3.org/2000/svg" id="Layer_1" data-name="Layer 1" viewBox="0 0 24 24">
  <path d="m24,12.5c0,3.632-2.717,6.847-6.02,7.391.008-.13.02-.259.02-.391,0-.209-.012-.414-.031-.618,2.776-.537,5.031-3.286,5.031-6.382,0-3.509-2.856-6.422-6.368-6.493l-.355-.007-.11-.338c-.907-2.789-3.485-4.662-6.417-4.662-3.722,0-6.75,3.028-6.75,6.75,0,.776.139,1.551.412,2.304l.141.388-.354.212c-1.377.826-2.2,2.264-2.2,3.847,0,2.32,1.771,4.212,4.028,4.452-.015.181-.028.363-.028.548,0,.161.013.318.024.476-2.81-.243-5.024-2.604-5.024-5.476,0-1.803.869-3.451,2.345-4.484-.229-.743-.345-1.503-.345-2.266C2,3.477,5.477,0,9.75,0c3.249,0,6.12,2.004,7.252,5.023,3.89.261,6.998,3.544,6.998,7.477Zm-6,9.5c-.552,0-1,.448-1,1s.448,1,1,1,1-.448,1-1-.448-1-1-1Zm-13,0c-.552,0-1,.448-1,1s.448,1,1,1,1-.448,1-1-.448-1-1-1Zm11-2.5c0,.664-.431,1.239-1.072,1.431.312.589.212,1.293-.247,1.751-.5.499-1.105.583-1.75.246h0c-.192.641-.767,1.072-1.431,1.072s-1.239-.431-1.431-1.072c-.644.34-1.25.254-1.751-.247-.458-.457-.557-1.161-.245-1.75-.642-.191-1.073-.767-1.073-1.431s.431-1.239,1.073-1.431c-.312-.589-.213-1.293.246-1.751.458-.459,1.161-.557,1.75-.246.192-.642.767-1.072,1.431-1.072s1.239.431,1.431,1.072c.587-.312,1.292-.213,1.751.247.458.458.557,1.161.246,1.75.642.192,1.072.767,1.072,1.431Zm-1,0c0-.222-.141-.407-.358-.473l-1.166-.349.567-1.076c.105-.199.078-.431-.067-.576-.149-.149-.375-.177-.577-.07l-1.077.568-.349-1.166c-.128-.432-.816-.432-.946,0l-.349,1.166-1.076-.567c-.199-.106-.431-.079-.577.068-.146.146-.174.378-.069.578l.568,1.076-1.166.349c-.215.064-.359.254-.359.473s.144.408.359.473l1.166.349-.567,1.076c-.105.199-.078.431.067.577.166.166.295.218.579.069l1.076-.566.348,1.165c.129.433.817.432.946,0l.348-1.164,1.076.565c.284.148.412.097.578-.068.146-.146.174-.378.069-.577l-.568-1.076,1.166-.349c.218-.065.358-.25.358-.473Z"/>
</svg>
