<?xml version="1.0" encoding="UTF-8"?>
<svg xmlns="http://www.w3.org/2000/svg" id="Layer_1" data-name="Layer 1" viewBox="0 0 24 24">
  <path d="m20.776,16.213l-6.897-3.135c-.534-.243-.879-.778-.879-1.365V2.5c0-.785-.319-1.473-.897-1.937-.594-.476-1.421-.67-2.151-.508L0,1.988v22.012h8v-3.705c.279.122.543.28.783.472l2.809,2.247c.795.636,1.793.986,2.812.986h9.597v-2.78c0-2.152-1.266-4.117-3.224-5.007Zm-13.776,6.787H1v-3h5.597c.135,0,.27.009.403.024v2.976Zm16,0h-8.597c-.792,0-1.568-.272-2.187-.767l-2.809-2.247c-.795-.636-1.793-.986-2.812-.986H1V2.812l5-.971v10.159h1V1.647l3.155-.613c.452-.101.958.018,1.321.309.239.191.523.547.523,1.157v9.212c0,.978.575,1.871,1.465,2.275l6.896,3.135c1.603.728,2.638,2.336,2.638,4.097v1.78Z"/>
</svg>
