<?xml version="1.0" encoding="UTF-8"?>
<svg xmlns="http://www.w3.org/2000/svg" id="Layer_1" data-name="Layer 1" viewBox="0 0 24 24">
  <path d="m22,21V7c-.269-3.997-2.167-7-4.5-7H4.5C1.977,0,0,3.514,0,8s1.977,8,4.5,8h2.5v4.5c0,1.93,1.57,3.5,3.5,3.5h13.5v-1c-1.103,0-2-.897-2-2Zm-1-13c0,3.794-1.603,7-3.5,7s-3.5-3.206-3.5-7,1.603-7,3.5-7,3.5,3.206,3.5,7Zm-20,0h1v-1h-.962c.251-3.341,1.734-6,3.462-6h10.789c-1.223,1.203-2.08,3.389-2.256,6h-1.034v1h1c0,3.048.913,5.647,2.289,7H4.5c-1.897,0-3.5-3.206-3.5-7Zm9.5,15c-1.379,0-2.5-1.122-2.5-2.5v-4.5h9.5c1.428,0,2.681-1.126,3.5-2.917v7.917c0,.768.29,1.469.766,2h-11.266Zm6-15c0-.828.448-1.5,1-1.5s1,.672,1,1.5-.448,1.5-1,1.5-1-.672-1-1.5Zm-12.5-1h2v1h-2v-1Zm4,0h2v1h-2v-1Z"/>
</svg>
