<?xml version="1.0" encoding="UTF-8"?>
<svg xmlns="http://www.w3.org/2000/svg" id="Layer_1" data-name="Layer 1" viewBox="0 0 24 24" width="512" height="512"><path d="m21.123,20.416c1.858-2.032,2.877-4.65,2.877-7.416h-1c0,2.5-.915,4.867-2.585,6.708l-2.417-2.417c1.28-1.453,2.001-3.341,2.001-5.292v-4C20,3.589,16.411,0,12,0c-2.956,0-5.682,1.667-7.059,4.234L.704-.003-.003.704l23.3,23.3.707-.707-2.88-2.88ZM12,1c3.52,0,6.442,2.612,6.928,6h-4.928v1h5v4h-5v1h4.927c-.192,1.322-.761,2.57-1.637,3.583L5.684,4.977c1.153-2.4,3.626-3.977,6.316-3.977Zm-7,7.536v3.464h3.464l1,1h-4.393c.487,3.388,3.408,6,6.928,6,.995,0,1.962-.216,2.851-.613l.756.756c-1.108.56-2.339.858-3.607.858-4.411,0-8-3.589-8-8v-4c0-.149.012-.296.02-.444l.98.98Zm13.074,13.074l.727.727c-1.725,1.076-3.713,1.663-5.801,1.663h-2C4.935,24,0,19.065,0,13h1c0,5.514,4.486,10,10,10h2c1.818,0,3.553-.49,5.074-1.39Z"/></svg>
