<?xml version="1.0" encoding="UTF-8"?>
<svg xmlns="http://www.w3.org/2000/svg" id="Layer_1" data-name="Layer 1" viewBox="0 0 24 24">
  <path d="m24,4.504v19.5h-1v-.004h-5.185c.391-.303.757-.636,1.097-.996h4.088v-14.004h-5.182c-.494-.383-1.026-.717-1.591-.999h6.773v-3.497c0-.827-.673-1.5-1.5-1.5H2.5c-.827,0-1.5.673-1.5,1.5v3.5h6.771c-.565.281-1.097.615-1.591.999H1v14.001h4.088c.34.361.707.695,1.099.999H1s-1,0-1,0V4.504c0-1.378,1.122-2.5,2.5-2.5h3.5V.004h1v2h10V.004h1v2h3.5c1.379,0,2.5,1.122,2.5,2.5Zm-4.5,11.996c0,4.136-3.364,7.5-7.5,7.5s-7.5-3.364-7.5-7.5,3.364-7.5,7.5-7.5,7.5,3.364,7.5,7.5Zm-1,0c0-3.584-2.916-6.5-6.5-6.5s-6.5,2.916-6.5,6.5,2.916,6.5,6.5,6.5,6.5-2.916,6.5-6.5Zm-5.395-4.5h-.605v-1h-1v1h-.605c-1.321,0-2.395,1.074-2.395,2.395,0,1.176.842,2.169,2.001,2.362l2.833.473c.675.112,1.165.691,1.165,1.375,0,.769-.626,1.395-1.395,1.395h-2.21c-.769,0-1.395-.626-1.395-1.395v-.605h-1v.605c0,1.321,1.074,2.395,2.395,2.395h.605v1h1v-1h.605c1.32,0,2.395-1.074,2.395-2.395,0-1.176-.842-2.169-2.001-2.362l-2.833-.473c-.675-.112-1.166-.691-1.166-1.375,0-.769.626-1.395,1.395-1.395h2.21c.769,0,1.395.626,1.395,1.395v.605h1v-.605c0-1.321-1.074-2.395-2.395-2.395Z"/>
</svg>
