<?xml version="1.0" encoding="UTF-8"?>
<svg xmlns="http://www.w3.org/2000/svg" id="Layer_1" data-name="Layer 1" viewBox="0 0 24 24">
  <path d="m16,16c0-.552.448-1,1-1s1,.448,1,1-.448,1-1,1-1-.448-1-1Zm-1-5c-.552,0-1,.448-1,1s.448,1,1,1,1-.448,1-1-.448-1-1-1Zm3,1c0,.552.448,1,1,1s1-.448,1-1-.448-1-1-1-1,.448-1,1ZM10.005.798l-.144-.258.878-.479.138.248c.429.765,1.063,1.896,1.393,3.861.228-.862.641-1.807,1.386-2.552C15.464-.191,18.399,0,18.525.014l.43.032.032.43c.009.124.205,3.06-1.604,4.869-1.53,1.53-3.905,1.661-4.669,1.661-.114,0-1.226-.004-1.226-.004,0-3.558-.893-5.149-1.483-6.202Zm3,5.197c.833-.039,2.569-.257,3.671-1.359s1.292-2.815,1.317-3.629c-.813.024-2.526.214-3.629,1.317s-1.32,2.838-1.359,3.671Zm7.587-2.355c-.103.346-.231.7-.391,1.054,1.735,1.945,2.799,4.5,2.799,7.305,0,6.065-4.935,11-11,11S1,18.065,1,12C1,7.268,4.009,3.236,8.21,1.687l-.491-.884C3.213,2.532,0,6.893,0,12c0,6.617,5.383,12,12,12s12-5.383,12-12c0-3.249-1.303-6.197-3.408-8.36Z"/>
</svg>
