<?xml version="1.0" encoding="UTF-8"?>
<svg xmlns="http://www.w3.org/2000/svg" id="Layer_1" data-name="Layer 1" viewBox="0 0 24 24" width="512" height="512"><path d="M23.27,11.73c-.97-.97-2.56-.98-3.54,0l-8.73,8.73v3.54h3.54l8.73-8.73c.47-.47,.73-1.1,.73-1.77s-.26-1.3-.73-1.77Zm-.71,2.83l-8.44,8.44h-2.12v-2.12l8.44-8.44c.58-.58,1.54-.58,2.12,0,.28,.28,.44,.66,.44,1.06s-.16,.78-.44,1.06ZM1,21H9v1H0V2.5C0,1.12,1.12,0,2.5,0H19.5c1.38,0,2.5,1.12,2.5,2.5v6.5h-1V2.5c0-.83-.67-1.5-1.5-1.5H2.5c-.83,0-1.5,.67-1.5,1.5V21Zm4-4V8.21l4.21-4.21H4v14h6.64l1-1H5Zm0-12h1.79l-1.79,1.79v-1.79Zm12,0h-3.79l-4.21,4.21v3.79h5v1h-6v-5.21l4.79-4.79h5.21v6.64l-1,1V5Z"/></svg>
