<?xml version="1.0" encoding="UTF-8"?>
<svg xmlns="http://www.w3.org/2000/svg" id="Layer_1" data-name="Layer 1" viewBox="0 0 24 24" width="512" height="512"><path d="M17.073,20.608c-1.384,.817-2.946,1.297-4.573,1.379v2.013h-1v-2.013c-5.117-.253-9.234-4.371-9.487-9.487H0v-1H2.013c.082-1.627,.561-3.189,1.379-4.573l.732,.732c-.728,1.318-1.124,2.803-1.124,4.34,0,4.963,4.038,9,9,9,1.538,0,3.023-.396,4.341-1.124l.732,.732ZM7.186,10.722c-.11,.415-.186,.841-.186,1.278,0,2.757,2.243,5,5,5,.437,0,.863-.076,1.278-.186l-.853-.853c-.142,.015-.282,.039-.426,.039-2.206,0-4-1.794-4-4,0-.144,.024-.284,.039-.426l-.853-.853Zm14.801,1.778c-.116,2.298-1.032,4.502-2.572,6.208l4.539,4.538-.707,.707L.046,.754,.753,.047,5.292,4.585c1.705-1.54,3.909-2.456,6.208-2.573V0h1V2.013c5.117,.253,9.234,4.371,9.487,9.487h2.013v1h-2.013Zm-6.828,1.952c.54-.696,.841-1.559,.841-2.452,0-2.206-1.794-4-4-4-.893,0-1.756,.301-2.452,.841l5.612,5.612Zm5.841-2.452c0-4.963-4.038-9-9-9-2.248,0-4.351,.809-6.001,2.292l2.837,2.837c.887-.725,2.005-1.129,3.164-1.129,2.757,0,5,2.243,5,5,0,1.159-.405,2.277-1.129,3.164l2.837,2.837c1.483-1.65,2.292-3.753,2.292-6.001Z"/></svg>
