<?xml version="1.0" encoding="UTF-8"?>
<svg xmlns="http://www.w3.org/2000/svg" id="Layer_1" data-name="Layer 1" viewBox="0 0 24 24" width="512" height="512"><path d="M15.7,24.03l2.34-4.98,4.98-2.34-11.13-3.81,3.81,11.13Zm1.59-5.73l-1.45,3.07-2.35-6.87,6.87,2.35-3.07,1.45Zm-7.3-9.3h-2v2h-1v-3h3v1Zm-2,6v2h2v1h-3v-3h1Zm8-4v-2h-2v-1h3v3h-1ZM24,0V6.86l-3,1v6.22s-1-.34-1-.34V7.14s3-1,3-1V1h-7c0,2.21-1.79,4-4,4s-4-1.79-4-4H1V6.14l3,1v15.86H13.24s.34,1,.34,1H3V7.86L0,6.86V0H9V1c0,1.65,1.35,3,3,3s3-1.35,3-3V0h9Z"/></svg>
