<?xml version="1.0" encoding="UTF-8"?>
<svg xmlns="http://www.w3.org/2000/svg" id="Layer_1" data-name="Layer 1" viewBox="0 0 24 24" width="512" height="512"><path d="M4.5,13c-2.481,0-4.5,2.019-4.5,4.5s2.019,4.5,4.5,4.5,4.5-2.019,4.5-4.5-2.019-4.5-4.5-4.5Zm0,8c-1.93,0-3.5-1.57-3.5-3.5s1.57-3.5,3.5-3.5,3.5,1.57,3.5,3.5-1.57,3.5-3.5,3.5Zm15-8c-2.481,0-4.5,2.019-4.5,4.5s2.019,4.5,4.5,4.5,4.5-2.019,4.5-4.5-2.019-4.5-4.5-4.5Zm0,8c-1.93,0-3.5-1.57-3.5-3.5s1.57-3.5,3.5-3.5,3.5,1.57,3.5,3.5-1.57,3.5-3.5,3.5Zm-3.248-11l-2.74-2.538c-.584-.591-1.498-.614-2.095-.07l-1.938,1.541c-.291,.267-.469,.679-.462,1.107,.006,.429,.197,.836,.522,1.116l2.461,2.114v4.729h-1v-4.271l-2.112-1.814c-.543-.466-.86-1.144-.871-1.859-.011-.715,.286-1.401,.814-1.883l1.938-1.541c.969-.886,2.49-.847,3.438,.113l2.438,2.256h3.355v1h-3.748Zm.248-4c1.379,0,2.5-1.122,2.5-2.5s-1.121-2.5-2.5-2.5-2.5,1.122-2.5,2.5,1.121,2.5,2.5,2.5Zm0-4c.827,0,1.5,.673,1.5,1.5s-.673,1.5-1.5,1.5-1.5-.673-1.5-1.5,.673-1.5,1.5-1.5Z"/></svg>
