<?xml version="1.0" encoding="UTF-8"?>
<svg xmlns="http://www.w3.org/2000/svg" id="Layer_1" data-name="Layer 1" viewBox="0 0 24 24">
  <path d="m21.5,2h-3.5V0h-1v2H7V0h-1v2h-3.5c-1.379,0-2.5,1.122-2.5,2.5v19.5h8v-1H1v-14h22v5h1V4.5c0-1.378-1.121-2.5-2.5-2.5ZM1,8v-3.5c0-.827.673-1.5,1.5-1.5h19c.827,0,1.5.673,1.5,1.5v3.5H1Zm7,8h5v1h-2v7h-1v-7h-2v-1Zm12,0h4v1h-3v2.5h3v1h-3v2.5h3v1h-4v-8Zm-2,0h1v5.5c0,1.379-1.121,2.5-2.5,2.5s-2.5-1.121-2.5-2.5v-5.5h1v5.5c0,.827.673,1.5,1.5,1.5s1.5-.673,1.5-1.5v-5.5Z"/>
</svg>
