<?xml version="1.0" encoding="UTF-8"?>
<svg xmlns="http://www.w3.org/2000/svg" id="Layer_1" data-name="Layer 1" viewBox="0 0 24 24">
  <path d="m20.004,3.059C17.428.753,14.097-.306,10.636.075,5.125.684.684,5.125.075,10.636c-.67,6.074,3.154,11.78,8.896,13.273.236.061.474.091.711.091.613,0,1.214-.203,1.716-.591.7-.541,1.102-1.358,1.102-2.241v-3.168h1c1.93,0,3.5-1.57,3.5-3.5v-3.5h1v-1h-3v-4h-1v4h-4v-4h-1v4h-3v1h1v3.5c0,1.93,1.57,3.5,3.5,3.5h1v3.168c0,.571-.26,1.1-.713,1.45-.449.348-1.021.467-1.563.322C3.958,21.572.453,16.329,1.069,10.745,1.627,5.696,5.696,1.627,10.745,1.069c3.179-.35,6.23.62,8.591,2.734,2.329,2.086,3.664,5.073,3.664,8.196,0,5.034-3.385,9.268-8,10.575v1.03c5.167-1.337,9-6.026,9-11.605,0-3.407-1.457-6.666-3.996-8.941Zm-9.504,13.941c-1.378,0-2.5-1.121-2.5-2.5v-3.5h8v3.5c0,1.379-1.121,2.5-2.5,2.5h-3Z"/>
</svg>
