<?xml version="1.0" encoding="UTF-8"?>
<svg xmlns="http://www.w3.org/2000/svg" id="Layer_1" data-name="Layer 1" viewBox="0 0 24 24" width="512" height="512"><path d="M8.5,0c-1.379,0-2.5,1.122-2.5,2.5v1.791L1.732,8.49c-.473,.472-.732,1.1-.732,1.768s.26,1.296,.72,1.754l5.28,5.685v6.304h14v-6.404l1.678-4.195c.214-.533,.322-1.096,.322-1.672V3.103S9.629,0,8.5,0Zm13.5,11.729c0,.448-.084,.886-.25,1.3l-1.714,4.285-.036,5.686H8v-5.696L2.439,11.318c-.283-.283-.439-.66-.439-1.061s.156-.777,.437-1.058l3.563-3.506v4.307h1V2.5c0-.827,.673-1.5,1.5-1.5,.749,0,8.338,1.699,13.5,2.897v7.833Z"/></svg>
