<?xml version="1.0" encoding="UTF-8"?>
<svg xmlns="http://www.w3.org/2000/svg" id="Layer_1" data-name="Layer 1" viewBox="0 0 24 24">
  <path d="m1,21h18v1H0v-13.5c0-1.379,1.122-2.5,2.5-2.5h.5v1h-.5c-.827,0-1.5.673-1.5,1.5v12.5ZM24,3.5v14.5H5V3.5c0-1.379,1.122-2.5,2.5-2.5h14c1.378,0,2.5,1.121,2.5,2.5Zm-2.5-1.5h-1.5v3h3v-1.5c0-.827-.673-1.5-1.5-1.5ZM6,10v3h3v-3h-3Zm3-1v-3h-3v3h3Zm10-7h-9v15h9V2Zm1,11h3v-3h-3v3Zm3-4v-3h-3v3h3ZM6,3.5v1.5h3v-3h-1.5c-.827,0-1.5.673-1.5,1.5Zm0,13.5h3v-3h-3v3Zm17,0v-3h-3v3h3Z"/>
</svg>
