<?xml version="1.0" encoding="UTF-8"?>
<svg xmlns="http://www.w3.org/2000/svg" id="Layer_1" data-name="Layer 1" viewBox="0 0 24 24">
  <path d="m23.152.848c-2.193-2.191-8.462.077-13.151,4.766l-4.388,4.388C.925,14.689-1.347,20.958.848,23.152c.574.573,1.425.842,2.455.842,2.909,0,7.234-2.145,10.697-5.607l4.388-4.388c4.688-4.688,6.96-10.957,4.766-13.151Zm-5.473,12.444l-4.388,4.388c-4.443,4.443-10.167,6.335-11.737,4.766-1.266-1.266-.279-5.236,2.483-9.057l3.287,3.287.707-.707-3.384-3.384c.509-.64,1.067-1.27,1.673-1.876l1.84-1.84,3.486,3.486.707-.707-3.486-3.486,1.841-1.841c.627-.627,1.279-1.203,1.942-1.725l3.378,3.378.707-.707-3.278-3.278c2.691-1.93,5.448-2.978,7.275-2.978.752,0,1.347.178,1.714.545,1.569,1.569-.322,7.293-4.766,11.737Z"/>
</svg>
