<?xml version="1.0" encoding="UTF-8"?>
<svg xmlns="http://www.w3.org/2000/svg" id="Layer_1" data-name="Layer 1" viewBox="0 0 24 24">
  <path d="m24,10.5c0-2.481-2.019-4.5-4.5-4.5h-2.5v-2.5c0-1.378-1.121-2.5-2.5-2.5h-3.01c.238.316.455.648.641,1h2.369c.827,0,1.5.673,1.5,1.5v14.5H1v-6.51c-.36-.271-.694-.573-1-.903v8.413h2.176c-.116.319-.176.656-.176,1,0,1.654,1.346,3,3,3s3-1.346,3-3c0-.344-.06-.681-.176-1h8.352c-.116.319-.176.656-.176,1,0,1.654,1.346,3,3,3s3-1.346,3-3c0-.344-.06-.681-.176-1h2.176v-8.5ZM7,20c0,1.103-.897,2-2,2s-2-.897-2-2c0-.352.095-.693.277-1h3.446c.182.307.277.648.277,1Zm12.5-13c1.93,0,3.5,1.57,3.5,3.5v1.5h-6v-5h2.5Zm1.5,13c0,1.103-.897,2-2,2s-2-.897-2-2c0-.352.095-.693.277-1h3.446c.182.307.277.648.277,1Zm-4-2v-5h6v5h-6Zm-11.5-7c3.032,0,5.5-2.467,5.5-5.5S8.532,0,5.5,0,0,2.467,0,5.5s2.468,5.5,5.5,5.5Zm0-10c2.481,0,4.5,2.019,4.5,4.5s-2.019,4.5-4.5,4.5S1,7.981,1,5.5,3.019,1,5.5,1Zm1.146,6.354l-1.646-1.646v-2.707h1v2.293l1.354,1.354-.707.707Z"/>
</svg>
