<?xml version="1.0" encoding="UTF-8"?>
<svg xmlns="http://www.w3.org/2000/svg" id="Layer_1" data-name="Layer 1" viewBox="0 0 24 24" width="512" height="512"><path d="m19,5c1.379,0,2.5-1.121,2.5-2.5s-1.121-2.5-2.5-2.5-2.5,1.121-2.5,2.5,1.121,2.5,2.5,2.5Zm0-4c.827,0,1.5.673,1.5,1.5s-.673,1.5-1.5,1.5-1.5-.673-1.5-1.5.673-1.5,1.5-1.5Zm4.996,20l-1.523-12.69c-.174-1.316-1.356-2.31-2.753-2.31h-1.449c-1.396,0-2.579.993-2.753,2.315l-1.523,12.685h3.006v3h1v-3h2v3h1v-3h2.996Zm-7.486-12.56c.107-.821.864-1.44,1.761-1.44h1.449c.896,0,1.653.619,1.761,1.435l1.389,11.565h-7.748l1.389-11.56Zm-12.51-3.44c1.379,0,2.5-1.121,2.5-2.5S5.379,0,4,0,1.5,1.121,1.5,2.5s1.121,2.5,2.5,2.5Zm0-4c.827,0,1.5.673,1.5,1.5s-.673,1.5-1.5,1.5-1.5-.673-1.5-1.5.673-1.5,1.5-1.5Zm1.5,5h-3c-1.379,0-2.5,1.121-2.5,2.5v8.5h2v7h1v-7h2v7h1v-7h2v-8.5c0-1.379-1.121-2.5-2.5-2.5Zm1.5,10H1v-7.5c0-.827.673-1.5,1.5-1.5h3c.827,0,1.5.673,1.5,1.5v7.5ZM11,0h1v24h-1V0Z"/></svg>
