<?xml version="1.0" encoding="UTF-8"?>
<svg xmlns="http://www.w3.org/2000/svg" id="Layer_1" data-name="Layer 1" viewBox="0 0 24 24" width="512" height="512"><path d="m16,5.159v-3.159h-2.588c.055-.156.086-.325.086-.5,0-.828-.672-1.5-1.5-1.5s-1.5.672-1.5,1.5c0,.175.03.344.086.5h-2.583v3.159c-3.764,1.544-6,4.824-6,8.841,0,5.514,4.486,10,10,10s10-4.486,10-10c0-4.016-2.236-7.297-6-8.841Zm-7-2.159h6v2.029l-6-.027v-2.002ZM3,14c0-3.723,2.037-6.634,5.592-8h6.816c3.555,1.366,5.592,4.277,5.592,8,0,.275-.013.546-.037.815l-4.022-4.022-4.982,4.982-4.745-4.745-4.138,4.138c-.05-.383-.076-.772-.076-1.168Zm9,9c-4.151,0-7.654-2.825-8.689-6.653l3.903-3.903,4.745,4.745,4.982-4.982,3.827,3.827c-.924,3.986-4.504,6.966-8.768,6.966Z"/></svg>
