<?xml version="1.0" encoding="UTF-8"?>
<svg xmlns="http://www.w3.org/2000/svg" id="Layer_1" data-name="Layer 1" viewBox="0 0 24 24">
  <path d="m24,21h-9.55c-.199-.978-.971-1.75-1.95-1.95v-5.05h3.5c2.757,0,5-2.243,5-5,0-2.469-1.775-4.521-4.188-4.912-.633-2.39-2.812-4.088-5.312-4.088-3.032,0-5.5,2.467-5.5,5.5,0,.209.013.422.038.634-1.765.434-3.038,2.013-3.038,3.866,0,2.206,1.794,4,4,4h4.5v5.05c-.978.199-1.75.972-1.95,1.95H0v1h9.55c.232,1.14,1.242,2,2.45,2s2.217-.86,2.45-2h9.55v-1ZM7,13c-1.654,0-3-1.346-3-3,0-1.52,1.146-2.794,2.667-2.964l.548-.062-.114-.54c-.066-.313-.101-.628-.101-.935,0-2.481,2.019-4.5,4.5-4.5,2.146,0,4.002,1.529,4.412,3.636l.072.369.374.034c2.076.188,3.642,1.891,3.642,3.961,0,2.206-1.794,4-4,4H7Zm5,10c-.827,0-1.5-.673-1.5-1.5s.673-1.5,1.5-1.5,1.5.673,1.5,1.5-.673,1.5-1.5,1.5Z"/>
</svg>
