<?xml version="1.0" encoding="UTF-8"?>
<svg xmlns="http://www.w3.org/2000/svg" id="Layer_1" data-name="Layer 1" viewBox="0 0 24 24">
  <path d="m23,15.829c1.16,1.067,1.287,2.946.288,4.277l-.755,1.185c-1.296,1.729-3.326,2.744-5.45,2.744H6.938c-2.124,0-4.153-1.015-5.428-2.714l-.845-1.229c-.988-1.316-.861-3.196.3-4.264.559-.514,1.286-.79,2.035-.81l-2.37-3.02C.124,11.324-.086,10.503.031,9.678c.118-.825.55-1.555,1.217-2.055,1.143-.854,2.679-.795,3.76.031-.001-.052-.008-.102-.008-.154,0-.555.083-1.091.225-1.606l-.044.053c-.062-.052-.125-.11-.191-.176-1.318-1.318-1.318-3.463,0-4.781s3.463-1.318,4.781,0c.096.096.155.19.226.284.635-.177,1.307-.274,2.003-.274s1.367.098,2.003.274c.071-.094.13-.188.225-.284,1.318-1.318,3.463-1.318,4.782,0s1.318,3.463,0,4.781c-.065.065-.129.124-.191.176l-.044-.053c.142.515.225,1.051.225,1.606,0,.057-.008.112-.009.169,1.098-.84,2.625-.896,3.761-.046.667.5,1.099,1.229,1.217,2.055.118.825-.093,1.646-.593,2.312l-2.291,3.03c.706.047,1.385.323,1.915.809ZM15.007,1.639c1.521.675,2.741,1.841,3.415,3.28.797-.935.764-2.338-.119-3.222-.907-.906-2.363-.92-3.296-.058Zm-3.007.361c-3.309,0-6,2.468-6,5.5s2.691,5.5,6,5.5,6-2.468,6-5.5-2.691-5.5-6-5.5Zm-6.421,2.919c.674-1.439,1.894-2.604,3.414-3.28-.931-.862-2.388-.848-3.296.058-.883.883-.916,2.287-.119,3.222Zm2.401,18.116c-.176-2.189-1.438-3.896-1.451-3.914l-1.747-2.269c-.933-.933-1.639-.853-1.705-.853-.531,0-1.034.197-1.435.565-.788.724-.86,2.017-.165,2.944l.845,1.229c1.075,1.432,2.805,2.297,4.616,2.297h1.042Zm7.028,0c.114-3.202,1.392-4.506,1.666-4.75l1.729-2.06c.315-.42.748-.737,1.234-.949l2.94-3.888c.339-.451.481-1.009.401-1.569s-.374-1.057-.826-1.396c-.936-.701-2.266-.511-2.967.423l-1.073,1.821-.004-.003c-1.199,1.987-3.486,3.335-6.108,3.335s-4.909-1.347-6.108-3.334l-.005.003-1.104-1.867c-.67-.888-2.001-1.079-2.936-.378-.453.339-.746.835-.826,1.396s.062,1.118.402,1.571l3.104,3.955-.016.012c.413.214.781.511,1.065.89l1.747,2.269c.068.09,1.484,2.006,1.658,4.519h6.026Zm7.315-6.47c-.451-.414-1.029-.609-1.637-.557-.595.056-1.143.36-1.501.838l-1.847,2.186c-.008.007-1.214,1.032-1.33,4.003h1.074c1.812,0,3.542-.865,4.629-2.313l.755-1.185c.716-.956.644-2.248-.143-2.972Zm-11.824-7.315c0-.967.672-1.75,1.5-1.75s1.5.783,1.5,1.75h-3Z"/>
</svg>
