<?xml version="1.0" encoding="UTF-8"?>
<svg xmlns="http://www.w3.org/2000/svg" id="Layer_1" data-name="Layer 1" viewBox="0 0 24 24" width="512" height="512"><path d="m22.311.851c-1.073-.807-2.429-1.054-3.718-.683l-9.28,2.687c-.471.137-.962.23-1.46.279-.793.078-2.726.347-3.548,1.169-.821.821-1.091,2.755-1.168,3.548-.048.496-.142.988-.279,1.461L.169,18.593c-.373,1.29-.125,2.646.683,3.719.807,1.073,2.04,1.688,3.382,1.688h6.704c.18,0,4.444-.049,8.728-4.334,4.285-4.283,4.334-8.548,4.334-8.728v-6.704c0-1.343-.616-2.576-1.689-3.383Zm-3.44.278c.985-.285,2.02-.095,2.839.521.82.617,1.29,1.559,1.29,2.584v6.544L14.591,2.368l4.279-1.239ZM1.651,21.71c-.616-.819-.806-1.854-.521-2.84l1.239-4.279,8.409,8.409h-6.544c-1.025,0-1.967-.47-2.583-1.29Zm17.308-2.751c-2.713,2.714-5.44,3.604-6.911,3.897L2.686,13.494l1.13-3.904c.154-.531.259-1.084.313-1.641.111-1.136.427-2.484.88-2.938.455-.454,1.803-.77,2.939-.88.56-.056,1.112-.161,1.641-.314l3.904-1.13,9.361,9.362c-.293,1.471-1.184,4.198-3.897,6.911Zm-4.087-10.532l-6.445,6.445-.707-.707,6.445-6.445.707.707Zm2.254,2.254l.707.707-6.445,6.445-.707-.707,6.445-6.445Z"/></svg>
