<?xml version="1.0" encoding="UTF-8"?>
<svg xmlns="http://www.w3.org/2000/svg" id="Layer_1" data-name="Layer 1" viewBox="0 0 24 24">
  <path d="m21,21v3h-1v-3c0-1.654-1.346-3-3-3H7c-1.654,0-3,1.346-3,3v3h-1v-3c0-2.206,1.794-4,4-4h10c2.206,0,4,1.794,4,4ZM4,9h-1c0-2.562,1.098-5.011,3.011-6.719C7.923.577,10.491-.229,13.06.061c3.997.458,7.299,3.676,7.851,7.652.216,1.556.034,3.134-.525,4.565-.638,1.628-2.301,2.722-4.137,2.722h-4.248c-1.103,0-2-.897-2-2s.897-2,2-2,2,.897,2,2c0,.364-.098.706-.269,1h2.517c1.429,0,2.717-.839,3.205-2.087.498-1.271.659-2.677.467-4.063-.49-3.531-3.424-6.389-6.974-6.795-2.319-.266-4.545.436-6.27,1.974-1.701,1.518-2.677,3.694-2.677,5.972Zm8,5c.551,0,1-.448,1-1s-.449-1-1-1-1,.448-1,1,.449,1,1,1Zm0-10c2.757,0,5,2.243,5,5,0,1.133-.401,2.161-1.04,3h1.227c.515-.883.814-1.906.814-3,0-3.309-2.691-6-6-6s-6,2.691-6,6c0,1.796.797,3.405,2.051,4.506-.021-.167-.051-.333-.051-.506,0-.31.043-.608.11-.898-.684-.855-1.11-1.925-1.11-3.102,0-2.757,2.243-5,5-5Z"/>
</svg>
