<?xml version="1.0" encoding="UTF-8"?>
<svg xmlns="http://www.w3.org/2000/svg" id="Layer_1" data-name="Layer 1" viewBox="0 0 24 24">
  <path d="m23.318.682c-.643-.644-1.573-.85-2.442-.532L0,8.525v.338c0,8.347,6.79,15.137,15.136,15.137h.338L23.857,3.108c.311-.854.104-1.784-.539-2.427Zm-8.519,22.314c-7.529-.177-13.62-6.268-13.796-13.796l3.015-1.21c.191,7.362,4.629,11.8,11.991,11.991l-1.21,3.015Zm4.866-12.126c-1.278-.465-2.166-1.688-2.166-3.084,0-1.812,1.474-3.286,3.286-3.286.457,0,.907.099,1.323.281l-2.443,6.088Zm3.258-8.119l-.442,1.101c-.534-.23-1.111-.352-1.696-.352-2.363,0-4.286,1.923-4.286,4.286,0,1.809,1.142,3.398,2.793,4.012l-2.888,7.198c-7.11-.039-11.363-4.291-11.401-11.401L21.233,1.083c.494-.178,1.008-.064,1.378.306.371.37.485.886.312,1.362Z"/>
  <path d="m10.5,8c-1.378,0-2.5,1.121-2.5,2.5s1.122,2.5,2.5,2.5,2.5-1.121,2.5-2.5-1.122-2.5-2.5-2.5Zm0,4c-.827,0-1.5-.673-1.5-1.5s.673-1.5,1.5-1.5,1.5.673,1.5,1.5-.673,1.5-1.5,1.5Z"/>
</svg>
