<?xml version="1.0" encoding="UTF-8"?>
<svg xmlns="http://www.w3.org/2000/svg" id="Layer_1" data-name="Layer 1" viewBox="0 0 24 24">
  <path d="m19.5,0H7.5C.541,0,0,4.593,0,6c0,4.199,3.724,6.047,6.717,7.531.31.153,1.834.919,2.465,1.229,1.761.866,5.425,2.67,5.768,3.24-.317.019-11.952,0-11.952,0-1.653,0-2.998,1.347-2.998,3s1.344,3,2.997,3l11.27-.002c6.077,0,6.733-4.194,6.733-5.997,0-3.564-4.962-6.061-8.585-7.883-.924-.465-3.205-1.757-3.725-2.053-1.065-.606-2.272-1.294-2.659-1.698-.062-.065-.053-.136-.034-.183.016-.04.058-.108.159-.113.692-.032,1.517-.071,1.844-.071h7.131c.632,1.76,2.408,3,4.369,3h2c1.378,0,2.5-1.121,2.5-2.5v-2c0-2.481-2.019-4.5-4.5-4.5ZM1,21c0-1.102.896-1.999,1.998-2,0,0,5.326.007,6.002.009v3.99H2.997c-1.101.001-1.997-.896-1.997-1.999Zm13.267,1.998h-4.267s0-3.988,0-3.988c2.811.004,4.767.004,5.008-.011.251-.014.476-.124.653-.291l3.469,2.312c-.782,1.1-2.226,1.977-4.863,1.977Zm5.733-4.997c0,.626-.089,1.394-.389,2.139l-3.651-2.434c-.034-.137-.086-.27-.176-.386-.279-.361-1.157-.904-2.689-1.709l2.594-2.594c2.291,1.391,4.311,3.078,4.311,4.983Zm-8.035-6.989c.867.436,1.853.934,2.831,1.485l-2.634,2.634c-.734-.374-1.576-.793-2.539-1.267-.625-.307-3.166-1.578-3.52-1.76l2.777-2.777c.26.15,2.14,1.209,3.085,1.685Zm-3.985-2.2l-2.798,2.798c-2.224-1.245-4.183-2.842-4.183-5.61,0-.532.085-1.313.447-2.101l3.547,2.364c.003.29.103.573.314.794.459.481,1.521,1.097,2.673,1.755Zm-1.871-3.739c-.263.012-.499.113-.691.272L1.969,3.045c.871-1.11,2.499-2.044,5.531-2.044h3.5s0,3.999,0,3.999h-3c-.336,0-1.181.039-1.89.073Zm16.89,1.427c0,.827-.673,1.5-1.5,1.5h-2c-1.648,0-3.126-1.104-3.516-2.624l-.096-.376h-3.888V1.001h7.5c1.93,0,3.5,1.57,3.5,3.499v2Zm-2-2.5c0,.552-.448,1-1,1s-1-.448-1-1,.448-1,1-1,1,.448,1,1Z"/>
</svg>
