<?xml version="1.0" encoding="UTF-8"?>
<svg xmlns="http://www.w3.org/2000/svg" id="Layer_1" data-name="Layer 1" viewBox="0 0 24 24">
  <path d="m16.756,10.615l-2.375-3.761c-.475-.543-1.16-.854-1.881-.854h-3.118l-4.668,2.334-1.2,5.05.973.231,1.092-4.596,3.895-1.947-1.395,5.773c-.26,1.077.231,2.213,1.195,2.761l4.726,2.685v5.709h1v-6.291l-2.794-1.587,2.03-7.633,1.822,2.895,4.125,2.062.447-.895-3.875-1.938Zm-5.406,5.02l-1.581-.898c-.579-.329-.874-1.01-.717-1.657l1.469-6.08h1.981c.396,0,.774.157,1.018.385l-2.169,8.251Zm1.151-10.635c1.379,0,2.5-1.122,2.5-2.5s-1.121-2.5-2.5-2.5-2.5,1.122-2.5,2.5,1.122,2.5,2.5,2.5Zm0-4c.827,0,1.5.673,1.5,1.5s-.673,1.5-1.5,1.5-1.5-.673-1.5-1.5.673-1.5,1.5-1.5Zm-3.706,16.099l.706.401-.564,2.249-2.012,4.251h-1.097l2.187-4.66.601-2.348c.06.037.12.073.181.107Z"/>
</svg>
