<?xml version="1.0" encoding="UTF-8"?>
<svg xmlns="http://www.w3.org/2000/svg" id="Layer_1" data-name="Layer 1" viewBox="0 0 24 24">
  <path d="m24,2.5v5.5h-1v3.026c-.314-.267-.649-.508-1-.727v-2.298H2v15h9.026c.306.36.641.695,1.003,1H1V8H0V2.5C0,1.122,1.122,0,2.5,0h19c1.378,0,2.5,1.122,2.5,2.5Zm-1,0c0-.827-.673-1.5-1.5-1.5H2.5c-.827,0-1.5.673-1.5,1.5v4.5h22V2.5Zm1,15c0,3.584-2.916,6.5-6.5,6.5s-6.5-2.916-6.5-6.5,2.916-6.5,6.5-6.5,6.5,2.916,6.5,6.5Zm-1,0c0-3.033-2.467-5.5-5.5-5.5s-5.5,2.467-5.5,5.5,2.467,5.5,5.5,5.5,5.5-2.467,5.5-5.5Zm-6.02,1.451c-.065.064-.171.064-.241-.005l-1.856-1.799-.696.718,1.852,1.794c.228.228.527.341.826.341s.595-.113.821-.338l3.457-3.399-.701-.713-3.459,3.402Z"/>
</svg>
