<?xml version="1.0" encoding="UTF-8"?>
<svg xmlns="http://www.w3.org/2000/svg" id="Layer_1" data-name="Layer 1" viewBox="0 0 24 24">
  <path d="m6,18l-.004-3.995h12.014l.004,3.996h1s-.014-14.496-.014-14.496c0-1.373,1.117-2.494,2.492-2.5l.527-.004-.009-1-.524.004c-1.922.008-3.485,1.578-3.485,3.5l.003,3.5H5.989l-.003-3.5c0-1.373,1.117-2.494,2.492-2.5l.527-.004-.009-1-.524.004c-1.922.008-3.485,1.578-3.485,3.5l.014,14.496h1Zm12.004-9.996l.005,5H5.995l-.005-5h12.014Zm5.972,15.714c-.471.187-.967.281-1.477.281-1.504,0-2.817-.835-3.5-2.065-.683,1.231-1.996,2.065-3.5,2.065s-2.817-.835-3.5-2.065c-.683,1.231-1.996,2.065-3.5,2.065s-2.817-.835-3.5-2.065c-.683,1.231-1.996,2.065-3.5,2.065-.509,0-1.006-.095-1.477-.281l.369-.93c.353.14.725.211,1.107.211,1.654,0,3-1.346,3-3h1c0,1.654,1.346,3,3,3s3-1.346,3-3h1c0,1.654,1.346,3,3,3s3-1.346,3-3h1c0,1.654,1.346,3,3,3,.382,0,.755-.071,1.107-.211l.369.93Z"/>
</svg>
