<?xml version="1.0" encoding="UTF-8"?>
<svg xmlns="http://www.w3.org/2000/svg" id="Layer_1" data-name="Layer 1" viewBox="0 0 24 24">
  <path d="m12,5c1.379,0,2.5-1.122,2.5-2.5s-1.121-2.5-2.5-2.5-2.5,1.122-2.5,2.5,1.121,2.5,2.5,2.5Zm0-4c.827,0,1.5.673,1.5,1.5s-.673,1.5-1.5,1.5-1.5-.673-1.5-1.5.673-1.5,1.5-1.5Zm1.5,5h-3c-1.379,0-2.5,1.122-2.5,2.5v8.5h2v7h1v-7h2v7h1v-7h2v-8.5c0-1.378-1.121-2.5-2.5-2.5Zm1.5,10h-6v-7.5c0-.827.673-1.5,1.5-1.5h3c.827,0,1.5.673,1.5,1.5v7.5Zm-10,0h2v8h-1v-7h-2v-8.5c0-1.378,1.121-2.5,2.5-2.5h.262c-.21.313-.366.661-.493,1.023-.717.112-1.269.729-1.269,1.477v7.5Zm.5-13.5c0-1.378,1.121-2.5,2.5-2.5.085,0,.165.017.248.025-.203.307-.355.645-.479.998-.717.112-1.269.729-1.269,1.477s.552,1.365,1.269,1.477c.124.353.276.691.479.998-.083.008-.163.025-.248.025-1.379,0-2.5-1.122-2.5-2.5ZM1,16h2v8h-1v-7H0v-8.5c0-1.378,1.121-2.5,2.5-2.5h.262c-.21.313-.366.661-.493,1.023-.717.112-1.269.729-1.269,1.477v7.5Zm23-7V0h-7v9h3v14h-3v1h7v-1h-3v-14h3Zm-6-1V1h5v7h-5ZM1.5,2.5C1.5,1.122,2.621,0,4,0c.085,0,.165.017.248.025-.203.307-.355.645-.479.998-.717.112-1.269.729-1.269,1.477s.552,1.365,1.269,1.477c.124.353.276.691.479.998-.083.008-.163.025-.248.025-1.379,0-2.5-1.122-2.5-2.5Z"/>
</svg>
