<?xml version="1.0" encoding="UTF-8"?>
<svg xmlns="http://www.w3.org/2000/svg" id="Layer_1" data-name="Layer 1" viewBox="0 0 24 24" width="512" height="512"><path d="M23.829,4.555l-.705-.709c-.023,.023-1.321,1.289-3.635,2.417-.371-.891-1.316-3.156-1.67-3.964-.632-1.439-1.854-2.299-3.271-2.299-.915,0-1.954,.489-2.553,1.222-.61-.733-1.669-1.222-2.601-1.222-1.463,0-2.544,.773-3.214,2.299-.354,.809-1.302,3.08-1.672,3.968C2.173,5.137,.85,3.866,.827,3.844l-.701,.713c.185,.182,4.601,4.443,11.875,4.443s11.646-4.264,11.828-4.445ZM7.097,2.701c.509-1.161,1.239-1.701,2.298-1.701,.899,0,2.105,.741,2.105,1.5v.5h1v-.5c0-.759,1.173-1.5,2.048-1.5,1.022,0,1.881,.62,2.355,1.701,.356,.812,1.314,3.108,1.674,3.974-1.757,.735-3.977,1.325-6.577,1.325s-4.814-.589-6.579-1.323c.36-.865,1.319-3.163,1.675-3.976Zm13.557,6.309c.851,1.471,1.347,3.172,1.347,4.989,0,5.514-4.486,10-10,10S2,19.514,2,14c0-1.815,.494-3.513,1.342-4.982,.292,.142,.597,.279,.916,.415-.794,1.341-1.258,2.899-1.258,4.567,0,4.963,4.037,9,9,9s9-4.037,9-9c0-1.67-.466-3.231-1.262-4.573,.319-.136,.624-.274,.915-.417Zm-12.653,3.989c-.552,0-1-.448-1-1s.448-1,1-1,1,.448,1,1-.448,1-1,1Zm8,0c-.552,0-1-.448-1-1s.448-1,1-1,1,.448,1,1-.448,1-1,1Zm-8.727,2.957c.052,.165,1.313,4.043,4.719,4.043h.009c3.405,0,4.673-3.877,4.726-4.042l.291-.917-.918,.289c-.021,.007-2.149,.67-4.1,.67s-4.078-.663-4.1-.67l-.916-.289,.289,.916Zm4.727,1.043c1.243,0,2.52-.239,3.375-.441-.525,.99-1.6,2.441-3.374,2.441h-.009c-1.767,0-2.84-1.45-3.366-2.441,.856,.202,2.131,.441,3.374,.441Z"/></svg>
