<?xml version="1.0" encoding="UTF-8"?>
<svg xmlns="http://www.w3.org/2000/svg" id="Layer_1" data-name="Layer 1" viewBox="0 0 24 24">
  <path d="m21,10.672c1.7-.483,3-1.513,3-3.172,0-2.172-2.16-5.448-5.423-5.499-.755-.228-6.833-2.001-12.577-2.001v1c3.816,0,7.881.833,10.265,1.417-.583.193-1.185.436-1.825.695-2.079.841-4.667,1.888-8.44,1.888v1c3.901,0,6.564-1.051,8.705-1.917-.446.699-.705,1.528-.705,2.417,0,.742.18,1.442.5,2.059-7.675,1.948-9.74,8.032-10.296,11.114-.447-.417-1.046-.673-1.704-.673-1.378,0-2.5,1.121-2.5,2.5s1.122,2.5,2.5,2.5h21.5v-1h-3v-12.328Zm2-3.172c0,1.974-2.829,2.5-4.5,2.5-1.93,0-3.5-1.57-3.5-3.5s1.57-3.5,3.5-3.5c2.61,0,4.5,2.688,4.5,4.5Zm-7.902,1.943c.826.953,2.045,1.557,3.402,1.557.505,0,1.011-.037,1.5-.112v12.112h-3v-2c0-3.252-2.748-6-6-6v1c2.664,0,5,2.337,5,5v2H4.499c.315-.418.501-.938.501-1.5,0-.404.134-9.763,10.098-12.057ZM1,21.5c0-.827.673-1.5,1.5-1.5s1.5.673,1.5,1.5-.673,1.5-1.5,1.5-1.5-.673-1.5-1.5Z"/>
</svg>
