<?xml version="1.0" encoding="UTF-8"?>
<svg xmlns="http://www.w3.org/2000/svg" id="Layer_1" data-name="Layer 1" viewBox="0 0 24 24" width="512" height="512"><path d="m12.064,8.5c-2.931.013-5.601.876-7.031,2.308-.667.667-1.034,1.539-1.033,2.453v2.739h5v-3.017c.919-.359,2.032-.582,2.997-.568.947.006,2.069.223,3.003.573v3.012h5v-2.738c0-.915-.366-1.787-1.033-2.454-1.446-1.447-4.022-2.308-6.902-2.308Zm6.936,6.5h-3v-2.68c-1.117-.478-2.802-.897-3.997-.905-1.244-.036-2.897.416-4.003.911v2.674h-3v-1.74c0-.647.262-1.267.74-1.745,1.23-1.23,3.63-2.003,6.262-2.015,2.627-.017,4.984.74,6.258,2.015.479.479.741,1.098.74,1.746v1.739ZM21.5,0H2.5C1.121,0,0,1.121,0,2.5v21.5h24V2.5c0-1.379-1.121-2.5-2.5-2.5Zm1.5,23H1V2.5c0-.827.673-1.5,1.5-1.5h19c.827,0,1.5.673,1.5,1.5v20.5Z"/></svg>
