<?xml version="1.0" encoding="UTF-8"?>
<svg xmlns="http://www.w3.org/2000/svg" id="Layer_1" data-name="Layer 1" viewBox="0 0 24 24" width="512" height="512"><path d="M20.019,4.976c1.81-1.711,1.974-3.867,1.98-3.962l.021-.331-.296-.148c-.043-.022-1.079-.534-2.768-.534-3.722,0-5.69,2.408-6.648,4.242-.421-1.993-1.615-4.242-4.309-4.242V1c2.627,0,3.283,2.781,3.446,4.198-1.162-.753-2.523-1.198-3.946-1.198C3.364,4,0,7.354,0,11.478c0,7.108,7.998,12.522,12,12.522s12-5.414,12-12.522c0-2.781-1.542-5.263-3.981-6.502Zm-1.062-3.976c.92,0,1.61,.175,1.989,.3-.131,.656-.558,2.092-1.888,3.19-1.479,1.221-3.642,1.705-6.407,1.443,.472-1.406,2.076-4.934,6.306-4.934Zm-6.957,22c-3.281,0-11-4.865-11-11.522,0-3.571,2.916-6.478,6.5-6.478,3.463,0,6.5,3.037,6.5,6.5,0,3.433-2.366,6.43-2.39,6.46l.779,.626c.106-.133,2.61-3.295,2.61-7.086,0-1.661-.606-3.237-1.602-4.512,.223,.01,.442,.015,.657,.015,2.051,0,3.754-.446,5.087-1.332,2.347,.986,3.857,3.25,3.857,5.806,0,6.657-7.719,11.522-11,11.522Z"/></svg>
