<?xml version="1.0" encoding="UTF-8"?>
<svg xmlns="http://www.w3.org/2000/svg" id="Layer_1" data-name="Layer 1" viewBox="0 0 24 24">
  <path d="m24,20.115v3.885h-1v-3.192l-8-3v-5.24c0-.789-.535-1.471-1.244-1.586-.451-.074-.886.045-1.227.336-.336.286-.529.703-.529,1.143v9.675s-3.469-2.763-3.479-2.773c-.606-.562-1.554-.53-2.115.072-.565.604-.534,1.557.064,2.118l2.535,2.407h-1.44l-1.783-1.684c-1-.937-1.048-2.518-.106-3.524.93-.997,2.491-1.055,3.499-.143v-.002s1.827,1.454,1.827,1.454v-7.601c0-.734.321-1.429.881-1.905.56-.476,1.306-.679,2.035-.562,1.188.194,2.084,1.3,2.084,2.573v4.546l8,3Zm-20.748-1.115c-.112.326-.177.661-.212,1H0V4.5c0-1.378,1.122-2.5,2.5-2.5h2.5V0h1v2h9V0h1v2h2.5c1.379,0,2.5,1.122,2.5,2.5v12.354l-1-.375v-8.479H1v11h2.252ZM1,4.5v2.5h19v-2.5c0-.827-.673-1.5-1.5-1.5H2.5c-.827,0-1.5.673-1.5,1.5Z"/>
</svg>
