<?xml version="1.0" encoding="UTF-8"?>
<svg xmlns="http://www.w3.org/2000/svg" id="Layer_1" data-name="Layer 1" viewBox="0 0 24 24">
  <path d="m9.5,12c-1.379,0-2.5,1.121-2.5,2.5s1.121,2.5,2.5,2.5,2.5-1.121,2.5-2.5-1.121-2.5-2.5-2.5Zm0,4c-.827,0-1.5-.673-1.5-1.5s.673-1.5,1.5-1.5,1.5.673,1.5,1.5-.673,1.5-1.5,1.5Zm-4.896.896l2.5,2.5-.707.707-2.5-2.5.707-.707ZM23.388.612c-.814-.814-2.143-.814-2.957,0l-1.431,1.431v2.25l-3.19,3.19c-2.251-1.927-5.479-1.994-7.397-.072-.35.348-.641.756-.865,1.213-.119.24-.323.421-.599.383-1.927-.067-3.729.609-5.031,1.911-2.762,2.762-2.504,7.512.574,10.59,1.648,1.648,3.776,2.488,5.822,2.488,1.773,0,3.485-.632,4.768-1.914,1.302-1.301,1.979-3.088,1.911-5.031-.009-.244.142-.479.382-.599.458-.225.866-.516,1.213-.864,1.921-1.921,1.857-5.147-.071-7.398l3.19-3.19h2.25l1.431-1.431c.815-.815.815-2.142,0-2.957Zm-7.508,14.27c-.27.271-.588.497-.947.674-.593.293-.961.894-.939,1.53.06,1.663-.516,3.187-1.618,4.289-2.371,2.371-6.486,2.114-9.176-.574-2.688-2.688-2.945-6.805-.574-9.176,1.052-1.051,2.484-1.623,4.057-1.623.077,0,.155.002.232.005.664-.006,1.238-.348,1.53-.94.177-.358.403-.677.675-.947,1.534-1.534,4.128-1.469,5.982.073l-2.954,2.954.707.707,2.955-2.955c1.543,1.855,1.606,4.449.072,5.983Zm6.801-12.02l-1.138,1.138h-1.543v-1.543l1.138-1.138c.426-.426,1.117-.426,1.543,0s.426,1.117,0,1.543Z"/>
</svg>
