<?xml version="1.0" encoding="UTF-8"?>
<svg xmlns="http://www.w3.org/2000/svg" id="Layer_1" data-name="Layer 1" width="512" height="512" viewBox="0 0 24 24"><path d="M12,0C5.383,0,0,5.383,0,12s5.383,12,12,12,12-5.383,12-12S18.617,0,12,0Zm0,23c-6.065,0-11-4.935-11-11S5.935,1,12,1s11,4.935,11,11-4.935,11-11,11Z"/><path d="M17.368,14.238c-.028,.008-2.814,.762-5.373,.762s-5.335-.754-5.363-.762l-.885-.243,.276,.875c.066,.209,1.666,5.129,5.966,5.129h.012c4.299,0,5.909-4.919,5.975-5.128l.278-.876-.886,.242Zm-5.367,4.762h-.012c-2.565,0-4.028-2.273-4.651-3.563,1.077,.235,2.892,.563,4.657,.563s3.585-.328,4.664-.564c-.625,1.291-2.093,3.564-4.658,3.564Z"/><path d="M18.266,12.709l-1.636-1.189-1.636,1.189-1.366-.992,.625-1.923-1.637-1.189,.521-1.605h2.023l.625-1.924h1.688l.625,1.924h2.022l.521,1.605-1.636,1.189,.625,1.923-1.365,.992Zm-3.462-1.374l.19,.138,1.636-1.189,1.636,1.189,.189-.138-.625-1.923,1.636-1.189-.072-.223h-2.022l-.625-1.924h-.234l-.625,1.924h-2.023l-.072,.223,1.637,1.189-.625,1.923Z"/><path d="M8.938,12.709l-1.636-1.189-1.636,1.189-1.366-.992,.625-1.923-1.637-1.189,.521-1.605h2.023l.625-1.924h1.688l.625,1.924h2.022l.521,1.605-1.636,1.189,.625,1.923-1.365,.992Zm-3.462-1.374l.19,.138,1.636-1.189,1.636,1.189,.189-.138-.625-1.923,1.636-1.189-.072-.223h-2.022l-.625-1.924h-.234l-.625,1.924h-2.023l-.072,.223,1.637,1.189-.625,1.923Z"/></svg>
