<?xml version="1.0" encoding="UTF-8"?>
<svg xmlns="http://www.w3.org/2000/svg" id="Layer_1" data-name="Layer 1" viewBox="0 0 24 24">
  <path d="m11,4c0-.552.448-1,1-1s1,.448,1,1-.448,1-1,1-1-.448-1-1Zm.5,6h1v-4h-1v4ZM23.07,1.693c-.592-.494-1.368-.7-2.124-.56l-.946.172v1.016l1.125-.204c.462-.086.94.04,1.304.344.363.303.571.748.571,1.221h0v16.309l-10.5,1.91v-5.901h-1v5.901l-10.5-1.91V3.682h-.007c.001-.013.008-.025.008-.038,0-.473.208-.918.571-1.221.362-.304.836-.429,1.304-.345l1.125.205v-1.016l-.946-.172c-.76-.137-1.532.067-2.124.561C.34,2.149,0,2.873,0,3.644c0,.014.007.025.008.038h-.008v17.144l12,2.182,12-2.182V3.684s0,0,0-.001c0-.771-.339-1.495-.931-1.989ZM6,9.5V2.5c0-1.378,1.122-2.5,2.5-2.5h7c1.378,0,2.5,1.122,2.5,2.5v7c0,1.378-1.122,2.5-2.5,2.5h-.844l-1.536,1.536c-.309.309-.714.463-1.12.463s-.812-.155-1.12-.463l-1.536-1.536h-.844c-1.378,0-2.5-1.122-2.5-2.5Zm1,0c0,.827.673,1.5,1.5,1.5h1.258l1.829,1.829c.228.228.598.229.826,0l1.829-1.829h1.258c.827,0,1.5-.673,1.5-1.5V2.5c0-.827-.673-1.5-1.5-1.5h-7c-.827,0-1.5.673-1.5,1.5v7Z"/>
</svg>
