<?xml version="1.0" encoding="UTF-8"?>
<svg xmlns="http://www.w3.org/2000/svg" id="Layer_1" data-name="Layer 1" viewBox="0 0 24 24">
  <path d="m20.5,13c-1.204,0-2.268.612-2.898,1.54l-1.014-.563c.263-.607.411-1.275.411-1.977,0-2.757-2.243-5-5-5-.822,0-1.586.218-2.27.571l-.937-1.448c.734-.642,1.207-1.574,1.207-2.623,0-1.93-1.57-3.5-3.5-3.5s-3.5,1.57-3.5,3.5,1.57,3.5,3.5,3.5c.521,0,1.012-.122,1.457-.328l.934,1.443c-1.143.917-1.891,2.308-1.891,3.884,0,1.198.441,2.284,1.146,3.146l-2.56,2.56c-.584-.438-1.302-.707-2.086-.707-1.93,0-3.5,1.57-3.5,3.5s1.57,3.5,3.5,3.5,3.5-1.57,3.5-3.5c0-.785-.269-1.502-.707-2.086l2.56-2.56c.862.705,1.948,1.146,3.146,1.146,1.697,0,3.195-.854,4.099-2.151l1.08.6c-.106.334-.179.682-.179,1.051,0,1.93,1.57,3.5,3.5,3.5s3.5-1.57,3.5-3.5-1.57-3.5-3.5-3.5ZM4,3.5c0-1.378,1.121-2.5,2.5-2.5s2.5,1.122,2.5,2.5-1.121,2.5-2.5,2.5-2.5-1.122-2.5-2.5Zm-.5,19.5c-1.379,0-2.5-1.122-2.5-2.5s1.121-2.5,2.5-2.5,2.5,1.122,2.5,2.5-1.121,2.5-2.5,2.5Zm8.5-7c-2.206,0-4-1.794-4-4s1.794-4,4-4,4,1.794,4,4-1.794,4-4,4Zm8.5,3c-1.379,0-2.5-1.122-2.5-2.5s1.121-2.5,2.5-2.5,2.5,1.122,2.5,2.5-1.121,2.5-2.5,2.5Z"/>
</svg>
