<?xml version="1.0" encoding="UTF-8"?>
<svg xmlns="http://www.w3.org/2000/svg" id="Layer_1" data-name="Layer 1" viewBox="0 0 24 24">
  <path d="m17.939,20.478c.03.309.061.619.061.931v2.591H0v-2.591c0-3.363,1.751-6.526,5.207-9.409C1.712,9.086-.039,5.89,0,2.494.016,1.133,1.136.026,2.496.026l13.002-.004c1.365,0,2.487,1.109,2.502,2.473.004.345-.024.687-.057,1.028-.148-.008-.293-.022-.443-.022-.19,0-.375.016-.562.028.038-.34.065-.68.062-1.023-.009-.818-.683-1.484-1.502-1.484l-13.002.004c-.815,0-1.486.664-1.496,1.48-.037,3.223,1.75,6.285,5.311,9.102l.495.392-.495.392c-3.523,2.788-5.311,5.822-5.311,9.017v1.591h16v-1.591c0-.314-.031-.626-.066-.938.188.012.375.029.566.029.148,0,.293-.015.439-.022Zm-8.846-5.774c.11-.085.205-.159.29-.225-.094-.306-.177-.617-.236-.938l-.056-.036-.273.18c-1.672,1.097-4.556,3.431-5.086,6.736l-.093.579h10.878l-.091-.578c-.023-.146-.067-.283-.105-.422H4.843c.653-2.467,2.805-4.303,4.25-5.296Zm14.907-2.704c0,3.584-2.916,6.5-6.5,6.5s-6.5-2.916-6.5-6.5,2.916-6.5,6.5-6.5,6.5,2.916,6.5,6.5Zm-1,0c0-3.033-2.468-5.5-5.5-5.5s-5.5,2.467-5.5,5.5,2.468,5.5,5.5,5.5,5.5-2.467,5.5-5.5Zm-5-3.5h-1v3.707l2.146,2.146.707-.707-1.854-1.854v-3.293Z"/>
</svg>
