<?xml version="1.0" encoding="UTF-8"?>
<svg xmlns="http://www.w3.org/2000/svg" id="Layer_1" data-name="Layer 1" viewBox="0 0 24 24" width="512" height="512"><circle cx="12" cy="6" r="1"/><path d="M12,0h0C5.37,0,0,5.37,0,12s5.37,12,12,12h0c6.63,0,12-5.37,12-12S18.63,0,12,0ZM1,12C1,5.98,5.87,1.07,11.88,1c2.84,.07,5.12,2.4,5.12,5.25,0,2.65-2.26,5-5.04,5.25-3.28,.3-5.96,3.1-5.96,6.25,0,1.73,.71,3.3,1.85,4.44-4.02-1.64-6.85-5.59-6.85-10.19Zm11.12,11c-2.84-.07-5.12-2.4-5.12-5.25,0-2.65,2.26-5,5.04-5.25,3.28-.3,5.96-3.1,5.96-6.25,0-1.73-.71-3.3-1.85-4.44,4.02,1.64,6.85,5.59,6.85,10.19,0,6.02-4.87,10.93-10.88,11Z"/><circle cx="12" cy="18" r="1"/></svg>
