<?xml version="1.0" encoding="UTF-8"?>
<svg xmlns="http://www.w3.org/2000/svg" id="Layer_1" data-name="Layer 1" viewBox="0 0 24 24">
  <path d="m21.849,13H2.151c-.679,0-1.302.343-1.711.942-.475.694-.573,1.583-.264,2.378,1.119,2.873,3.999,5.782,7.519,7.68h8.609c3.52-1.898,6.399-4.807,7.519-7.68.31-.795.211-1.685-.264-2.378-.409-.599-1.032-.942-1.711-.942Zm1.043,2.957c-1.024,2.629-3.576,5.255-6.84,7.043H7.948c-3.264-1.788-5.815-4.414-6.84-7.043-.187-.48-.127-1.036.157-1.451.129-.189.416-.506.886-.506h19.697c.47,0,.757.317.886.506.284.415.344.971.157,1.451ZM5.396,8.997c.492,0,1.094-.243,1.693-.581-.35,1.194-.536,2.527-.585,2.91l-.082.641.642-.082c.589-.075,3.43-.474,4.549-1.3-.055.337-.091.602-.109.741l-.082.641.642-.082c.589-.075,3.43-.474,4.549-1.3-.055.337-.091.602-.109.741l-.082.641.642-.082c.627-.08,3.806-.527,4.743-1.465.773-.774,1.851-3.034,2.193-3.919v-1h.006c-.328-.875-1.368-3.101-2.142-3.875-.935-.935-4.157-1.432-4.794-1.522l-.65-.092.084.651c.018.142.056.413.113.76C15.461.617,12.659.186,12.07.103l-.65-.092.084.651c.018.142.056.413.113.76C10.461.617,7.659.186,7.07.103l-.65-.092.084.651c.05.384.239,1.721.592,2.918-.602-.34-1.206-.583-1.7-.583C3.883,2.997.839,5.335.497,5.602L-.009,5.997l.506.395c.342.267,3.386,2.605,4.898,2.605Zm5.704.716c-.459.459-2.187.868-3.508,1.084.201-1.222.566-2.793.983-3.384.261-.201.497-.394.693-.559.295-.161.629-.281.983-.356h2.518c-.431,1.073-1.154,2.7-1.67,3.216Zm5,0c-.459.459-2.187.868-3.508,1.084.217-1.32.625-3.048,1.084-3.507.39-.39.95-.659,1.57-.791h2.523c-.431,1.073-1.154,2.699-1.669,3.214Zm5,0c-.459.459-2.187.868-3.508,1.084.217-1.32.625-3.048,1.084-3.507.381-.381.925-.646,1.617-.79h2.633c-.432,1.073-1.31,2.698-1.825,3.213Zm.058-7.381c.514.514,1.365,2.114,1.778,3.168h-2.611c-.704-.144-1.257-.411-1.641-.796-.458-.458-.869-2.183-1.089-3.505,1.344.237,3.102.671,3.562,1.132Zm-5,0c.514.514,1.209,2.113,1.621,3.167h-2.459c-.702-.144-1.253-.411-1.635-.794-.458-.458-.869-2.183-1.089-3.505,1.344.237,3.102.671,3.562,1.132Zm-5,0c.513.514,1.208,2.112,1.621,3.166h-2.464c-.4-.083-.751-.205-1.049-.367-.193-.162-.424-.351-.68-.548-.417-.588-.786-2.158-.989-3.384,1.344.237,3.102.671,3.562,1.132Zm-5.762,1.665c.567,0,1.577.622,2.485,1.308.032.038.839.674.856.688-.017.014-.835.66-.867.7-.905.685-1.908,1.304-2.473,1.304-.765,0-2.529-1.103-3.76-2,1.229-.897,2.994-2,3.76-2Z"/>
</svg>
