<?xml version="1.0" encoding="UTF-8"?>
<svg xmlns="http://www.w3.org/2000/svg" id="Layer_1" data-name="Layer 1" viewBox="0 0 24 24">
  <path d="m15,18.536l1,1v4.464h-1v-5.464Zm-9.5-7.536c-.827,0-1.5-.673-1.5-1.5v-1.964l-1-1v2.964c0,1.378,1.122,2.5,2.5,2.5h1.5v12h1v-12.464l-.536-.536h-1.964Zm18.454,12.247l-.707.707L.046.753.753.046l2.247,2.247V0h1v3.293l3,3V0h1v7.293l2.841,2.841c.094-.199.159-.41.159-.634V0h1v9.5c0,.493-.151.967-.42,1.373l3.42,3.42V1.501c0-.658.402-1.216,1.025-1.423.625-.208,1.287,0,1.683.532,1.502,2.017,3.292,5.068,3.292,8.156s-1.753,6.094-3.329,8.198l6.283,6.283Zm-7.954-7.954l.956.956c1.46-1.971,3.044-4.734,3.044-7.483,0-2.813-1.683-5.663-3.094-7.558-.204-.275-.485-.207-.566-.181-.08.026-.34.139-.34.474v13.792Z"/>
</svg>
