<?xml version="1.0" encoding="UTF-8"?>
<svg xmlns="http://www.w3.org/2000/svg" id="Layer_1" data-name="Layer 1" viewBox="0 0 24 24">
  <path d="m19,13v1h3.986c-.294,5.466-5.393,8.775-10.486,8.98v-8.98h3.5v-1h-3.5v-5.051c1.968-.249,3.5-1.915,3.5-3.949,0-2.206-1.794-4-4-4s-4,1.794-4,4c0,2.034,1.532,3.7,3.5,3.949v5.051h-3.5v1h3.5v8.98c-5.092-.205-10.192-3.514-10.487-8.98h3.987v-1H0v.5c0,6.572,6.102,10.5,12,10.5s12-3.928,12-10.5v-.5h-5ZM9,4c0-1.654,1.346-3,3-3s3,1.346,3,3-1.346,3-3,3-3-1.346-3-3Z"/>
</svg>
