<?xml version="1.0" encoding="UTF-8"?>
<svg xmlns="http://www.w3.org/2000/svg" id="Layer_1" data-name="Layer 1" viewBox="0 0 24 24" width="512" height="512"><path d="m21.5,0H2.5C1.122,0,0,1.121,0,2.5v8.5h24V2.5c0-1.379-1.122-2.5-2.5-2.5Zm-4.5,6.5c0-.827.673-1.5,1.5-1.5s1.5.673,1.5,1.5v3.5h-3v-3.5Zm-1,3.5h-3.5v-4.25c0-.965.785-1.75,1.75-1.75s1.75.785,1.75,1.75v4.25Zm-4.5,0h-3.5v-4.25c0-.965.785-1.75,1.75-1.75s1.75.785,1.75,1.75v4.25Zm-4.5,0h-3v-3.5c0-.827.673-1.5,1.5-1.5s1.5.673,1.5,1.5v3.5Zm16,0h-2v-3.5c0-1.379-1.122-2.5-2.5-2.5-.664,0-1.267.26-1.715.684-.417-.988-1.396-1.684-2.535-1.684-.93,0-1.752.464-2.25,1.172-.498-.708-1.32-1.172-2.25-1.172-1.139,0-2.117.695-2.535,1.684-.448-.423-1.052-.684-1.715-.684-1.378,0-2.5,1.121-2.5,2.5v3.5H1V2.5c0-.827.673-1.5,1.5-1.5h19c.827,0,1.5.673,1.5,1.5v7.5Z"/><path d="m0,13v8.5c0,1.379,1.122,2.5,2.5,2.5h19c1.378,0,2.5-1.121,2.5-2.5v-8.5H0Zm17,1h3v3.5c0,.827-.673,1.5-1.5,1.5s-1.5-.673-1.5-1.5v-3.5Zm-1,3.25c0,.965-.785,1.75-1.75,1.75s-1.75-.785-1.75-1.75v-3.25h3.5v3.25Zm-8.988.25h-.012c0,.827-.673,1.5-1.5,1.5s-1.5-.673-1.5-1.5v-3.5h3l.012,3.5Zm.988-3.5h3.5v3.25c0,.965-.785,1.75-1.75,1.75s-1.75-.785-1.75-1.75v-3.25Zm15,7.5c0,.827-.673,1.5-1.5,1.5H2.5c-.827,0-1.5-.673-1.5-1.5v-7.5h2v3.5c0,1.379,1.122,2.5,2.5,2.5.855,0,1.61-.431,2.061-1.087.503.66,1.297,1.087,2.189,1.087.93,0,1.752-.464,2.25-1.172.498.708,1.32,1.172,2.25,1.172.892,0,1.686-.427,2.189-1.087.451.656,1.207,1.087,2.061,1.087,1.378,0,2.5-1.121,2.5-2.5v-3.5h2v7.5Z"/></svg>
