<?xml version="1.0" encoding="UTF-8"?>
<svg xmlns="http://www.w3.org/2000/svg" id="Layer_1" data-name="Layer 1" viewBox="0 0 24 24">
  <path d="m22,10.649c1.178-.564,2-1.758,2-3.149l-2.647-7.5H2.647L0,7.5c0,1.391.822,2.585,2,3.149v8.351H0v2.5c0,1.378,1.121,2.5,2.5,2.5h19c1.379,0,2.5-1.122,2.5-2.5v-2.5h-2v-8.351ZM1.001,7.583L3.353,1h3.647v3h1V1h8v3h1V1h3.647l2.352,6.583c-.044,1.34-1.148,2.417-2.499,2.417h-1c-1.379,0-2.5-1.122-2.5-2.5v-.5h-1v.5c0,1.378-1.121,2.5-2.5,2.5h-3c-1.379,0-2.5-1.122-2.5-2.5v-.5h-1v.5c0,1.378-1.121,2.5-2.5,2.5h-1c-1.351,0-2.455-1.077-2.499-2.417Zm1.999,3.366c.165.024.329.051.5.051h1c1.28,0,2.39-.698,3-1.726.61,1.028,1.72,1.726,3,1.726h3c1.28,0,2.39-.698,3-1.726.61,1.028,1.72,1.726,3,1.726h1c.171,0,.335-.027.5-.051v8.051h-5.707l-1,1h-4.586l-1-1H3v-8.051Zm20,10.551c0,.827-.673,1.5-1.5,1.5H2.5c-.827,0-1.5-.673-1.5-1.5v-1.5h7.293l1,1h5.414l1-1h7.293v1.5Z"/>
</svg>
