<?xml version="1.0" encoding="UTF-8"?>
<svg xmlns="http://www.w3.org/2000/svg" id="Layer_1" data-name="Layer 1" viewBox="0 0 24 24">
  <path d="m24,6v1H0v-1h24Zm-4.47,3.487c-.883.671-2.178.671-3.061,0-.851-.647-2.087-.65-2.939,0-.883.671-2.178.671-3.061,0-.852-.647-2.088-.65-2.939,0-.883.671-2.178.671-3.061,0-.851-.647-2.087-.65-2.939,0-.441.335-.97.513-1.53.513v1c.781,0,1.52-.249,2.136-.718.492-.375,1.236-.375,1.729,0,1.232.939,3.039.939,4.271,0,.492-.375,1.236-.375,1.729,0,1.232.939,3.039.939,4.271,0,.492-.375,1.236-.375,1.729,0,1.232.939,3.039.939,4.271,0,.492-.375,1.236-.375,1.729,0,.616.47,1.354.718,2.136.718v-1c-.561,0-1.089-.178-1.53-.514-.851-.647-2.087-.65-2.939,0Zm-13.53,6.513c-.552,0-1,.448-1,1s.448,1,1,1,1-.448,1-1-.448-1-1-1Zm3-3c-.552,0-1,.448-1,1s.448,1,1,1,1-.448,1-1-.448-1-1-1Zm-6,0c-.552,0-1,.448-1,1s.448,1,1,1,1-.448,1-1-.448-1-1-1Zm12,0c-.552,0-1,.448-1,1s.448,1,1,1,1-.448,1-1-.448-1-1-1Zm6,0c-.552,0-1,.448-1,1s.448,1,1,1,1-.448,1-1-.448-1-1-1Zm-12,6c-.552,0-1,.448-1,1s.448,1,1,1,1-.448,1-1-.448-1-1-1Zm-6,0c-.552,0-1,.448-1,1s.448,1,1,1,1-.448,1-1-.448-1-1-1Zm12,0c-.552,0-1,.448-1,1s.448,1,1,1,1-.448,1-1-.448-1-1-1Zm6,0c-.552,0-1,.448-1,1s.448,1,1,1,1-.448,1-1-.448-1-1-1Zm-9-3c-.552,0-1,.448-1,1s.448,1,1,1,1-.448,1-1-.448-1-1-1Zm6,0c-.552,0-1,.448-1,1s.448,1,1,1,1-.448,1-1-.448-1-1-1Zm-12,6c-.552,0-1,.448-1,1s.448,1,1,1,1-.448,1-1-.448-1-1-1Zm6,0c-.552,0-1,.448-1,1s.448,1,1,1,1-.448,1-1-.448-1-1-1Zm6,0c-.552,0-1,.448-1,1s.448,1,1,1,1-.448,1-1-.448-1-1-1Z"/>
</svg>
