<?xml version="1.0" encoding="UTF-8"?>
<svg xmlns="http://www.w3.org/2000/svg" id="Layer_1" data-name="Layer 1" viewBox="0 0 24 24">
  <path d="m23.093,9.732L14.235.962c-1.204-1.201-3.305-1.197-4.502,0L.93,9.734c-.6.6-.93,1.4-.93,2.251s.33,1.651.929,2.25l8.802,8.89.002.002c.6.599,1.426.898,2.251.898s1.653-.3,2.254-.9l8.858-8.889c1.198-1.201,1.197-3.305-.003-4.505Zm-.705,3.799l-8.858,8.889c-.821.821-2.266.823-3.089.001L1.638,13.531c-.411-.412-.638-.96-.638-1.545s.227-1.134.636-1.544L10.439,1.67c.821-.822,2.263-.824,3.092.001l8.856,8.77c.822.822.822,2.266,0,3.09Zm-4.888-5.531h-2.5v8h1v-3h1.5c1.379,0,2.5-1.122,2.5-2.5s-1.121-2.5-2.5-2.5Zm0,4h-1.5v-3h1.5c.827,0,1.5.673,1.5,1.5s-.673,1.5-1.5,1.5Zm-4.5-4h1v8h-1v-8Zm-2.003,0h1.003l-.508,7c-.043.705-.472,1-.988,1-.342,0-.66-.242-.841-.64l-1.164-2.56-1.164,2.56c-.181.398-.499.64-.841.64-.516,0-.945-.295-.988-1l-.508-7h1.003l.493,6.794,2.005-4.41,2.005,4.41.493-6.794Z"/>
</svg>
