<?xml version="1.0" encoding="UTF-8"?>
<svg xmlns="http://www.w3.org/2000/svg" id="Layer_1" data-name="Layer 1" width="512" height="512" viewBox="0 0 24 24"><path d="M14,24H0v-1H14v1Zm6-1h-4v1h4v-1Zm4-4H10v1h14v-1Zm-16,0H4v1h4v-1Zm6-4H0v1H14v-1Zm6,0h-4v1h4v-1Zm-5.751-3.961c1.556,.741,3.332,.564,4.706-.406,.484,.241,1.012,.367,1.545,.367,1.93,0,3.5-1.57,3.5-3.5,0-2.055-1.788-3.71-3.88-3.479-1.029-1.467-2.715-2.267-4.6-1.96-1.143-1.314-2.773-2.061-4.52-2.061-1.795,0-3.502,.817-4.639,2.203C3.071,1.235,0,3.797,0,7c0,2.757,2.243,5,5,5,1.017,0,1.99-.312,2.837-.906,.952,.594,2.038,.906,3.163,.906,1.16,0,2.277-.332,3.249-.961Zm-6.745-.945c-.732,.593-1.598,.907-2.504,.907-2.206,0-4-1.794-4-4,0-2.653,2.571-4.768,5.369-3.742l.356,.131,.222-.308c.94-1.303,2.456-2.081,4.053-2.081,1.541,0,2.974,.699,3.931,1.917l.194,.247,.307-.068c.291-.065,.558-.096,.818-.096,1.315,0,2.511,.682,3.2,1.825l.184,.305,.348-.074c1.591-.341,3.018,.896,3.018,2.444,0,1.378-1.122,2.5-2.5,2.5-.46,0-.917-.134-1.321-.387l-.303-.189-.277,.225c-1.182,.959-2.766,1.13-4.145,.371l-.277-.153-.256,.186c-1.707,1.232-4.097,1.241-5.812,.021l-.31-.22-.295,.239Z"/></svg>
