<?xml version="1.0" encoding="UTF-8"?>
<svg xmlns="http://www.w3.org/2000/svg" id="Layer_1" data-name="Layer 1" viewBox="0 0 24 24">
  <path d="m23.609,16.788l.371.928c-.471.188-.969.284-1.48.284-1.513,0-2.816-.854-3.496-2.096-.714,1.284-2.156,2.096-4.004,2.096-5.299,0-9-3.701-9-9,0-3.022,1.427-6.062,3.662-8h-.13C4.667,1,1,4.439,1,9v4H0v-4C0,3.869,4.098,0,9.531,0h3.464l-1.543.929c-2.663,1.602-4.452,4.845-4.452,8.071,0,4.71,3.29,8,8,8,2.093,0,3.5-1.206,3.5-3h1c0,1.654,1.346,3,3,3,.384,0,.757-.071,1.109-.212Zm-1.109,6.212c-1.654,0-3-1.346-3-3h-1c0,1.654-1.346,3-3,3s-3-1.346-3-3h-1c0,1.654-1.346,3-3,3s-3-1.346-3-3h-1c0,1.654-1.346,3-3,3-.382,0-.754-.071-1.108-.211l-.368.93c.471.187.968.281,1.476.281,1.516,0,2.822-.857,3.5-2.104.678,1.246,1.984,2.104,3.5,2.104s2.822-.857,3.5-2.104c.678,1.246,1.984,2.104,3.5,2.104s2.822-.857,3.5-2.104c.678,1.246,1.984,2.104,3.5,2.104.508,0,1.004-.095,1.476-.281l-.368-.93c-.354.14-.726.211-1.107.211Zm.65-18.008l-4.67-3.654c-.578-.452-1.384-.45-1.96,0l-4.67,3.654c-.54.422-.85,1.059-.85,1.744v6.264h1v-6.264c0-.376.17-.726.466-.957l4.67-3.654c.213-.168.513-.169.728,0l4.67,3.654c.296.232.466.581.466.957v6.264h1v-6.264c0-.686-.31-1.321-.85-1.744Zm-3.65,6.008h-4v-4h4v4Zm-1-3h-2v2h2v-2Z"/>
</svg>
