<?xml version="1.0" encoding="UTF-8"?>
<svg xmlns="http://www.w3.org/2000/svg" id="Layer_1" data-name="Layer 1" viewBox="0 0 24 24" width="512" height="512"><path d="m21.5,0h-9c-1.379,0-2.5,1.122-2.5,2.5v21.5h14V2.5c0-1.378-1.121-2.5-2.5-2.5Zm1.5,23h-12V2.5c0-.827.673-1.5,1.5-1.5h9c.827,0,1.5.673,1.5,1.5v20.5Zm-6-11c-2.206,0-4,1.794-4,4s1.794,4,4,4,4-1.794,4-4-1.794-4-4-4Zm0,7c-1.654,0-3-1.346-3-3s1.346-3,3-3,3,1.346,3,3-1.346,3-3,3Zm0-9.5c1.379,0,2.5-1.122,2.5-2.5s-1.121-2.5-2.5-2.5-2.5,1.122-2.5,2.5,1.121,2.5,2.5,2.5Zm0-4c.827,0,1.5.673,1.5,1.5s-.673,1.5-1.5,1.5-1.5-.673-1.5-1.5.673-1.5,1.5-1.5ZM7,15c.552,0,1,.448,1,1s-.448,1-1,1-1-.448-1-1,.448-1,1-1Zm11,1c0,.552-.448,1-1,1s-1-.448-1-1,.448-1,1-1,1,.448,1,1Zm-11-4c.347,0,.678.058,1,.142v1.042c-.314-.112-.648-.184-1-.184-1.654,0-3,1.346-3,3s1.346,3,3,3c.352,0,.686-.072,1-.184v1.042c-.322.084-.653.142-1,.142-2.206,0-4-1.794-4-4s1.794-4,4-4ZM2.5,0h6.262c-.206.307-.359.647-.485,1H2.5c-.827,0-1.5.673-1.5,1.5v20.5h7v1H0V2.5C0,1.121,1.121,0,2.5,0Zm4.5,4.5c.356,0,.693.077,1,.212v1.178c-.266-.24-.614-.39-1-.39-.827,0-1.5.673-1.5,1.5s.673,1.5,1.5,1.5c.386,0,.734-.15,1-.39v1.178c-.307.135-.644.212-1,.212-1.379,0-2.5-1.122-2.5-2.5s1.121-2.5,2.5-2.5Z"/></svg>
