<?xml version="1.0" encoding="UTF-8"?>
<svg xmlns="http://www.w3.org/2000/svg" id="Layer_1" data-name="Layer 1" viewBox="0 0 24 24">
  <path d="m22.332,7.05l.555-.562c.718-.718,1.113-1.672,1.113-2.688s-.396-1.97-1.113-2.687c-1.434-1.437-3.94-1.433-5.372-.002l-.564.557c-.821-.909-1.825-1.668-3.351-1.668-2.096,0-3.8,1.704-3.8,3.8,0,.227-.004.483-.008.705-.429-.049-1.019-.104-1.45-.104-2.229,0-4.042,1.813-4.042,4.042,0,.127.007.256.022.388-1.871.235-3.322,1.836-3.322,3.77,0,1.695,2.4,5.298,3.222,6.482L.036,23.267l.707.707,4.187-4.187c1.197.83,4.782,3.214,6.47,3.214,1.934,0,3.534-1.451,3.77-3.322.132.016.261.022.388.022,2.229,0,4.042-1.813,4.042-4.042,0-.432-.056-1.021-.104-1.45.222-.004.479-.008.705-.008,2.096,0,3.8-1.704,3.8-3.8,0-1.525-.759-2.529-1.668-3.351Zm-2.132,6.15c-.555,0-1.84.036-1.84.036,0,0,.239,1.748.239,2.422,0,1.678-1.364,3.042-3.042,3.042-.227,0-1.401-.272-1.401-.272,0,0,.038.745.044.772,0,1.544-1.256,2.8-2.8,2.8-1.22,0-4.217-1.883-5.75-2.933l9.319-9.319-.707-.707-9.321,9.321c-1.049-1.529-2.941-4.538-2.941-5.762,0-1.543,1.255-2.799,2.791-2.799h.002l.779.043s-.272-1.175-.272-1.401c0-1.678,1.364-3.042,3.042-3.042.674,0,2.422.239,2.422.239,0,0,.036-1.285.036-1.84,0-1.544,1.256-2.8,2.8-2.8,1.267,0,2.062.657,2.935,1.718l.348.423,1.338-1.32c1.059-1.059,2.903-1.059,3.96,0,.529.528.82,1.231.82,1.979s-.291,1.451-.822,1.982l-1.318,1.336.423.348c1.061.873,1.718,1.668,1.718,2.935,0,1.544-1.256,2.8-2.8,2.8Z"/>
</svg>
