<?xml version="1.0" encoding="UTF-8"?>
<svg xmlns="http://www.w3.org/2000/svg" id="Layer_1" data-name="Layer 1" viewBox="0 0 24 24">
  <path d="m5.5,10c-3.084,0-5.5,1.318-5.5,3v8c0,1.682,2.416,3,5.5,3s5.5-1.318,5.5-3v-8c0-1.682-2.416-3-5.5-3Zm0,13c-2.652,0-4.5-1.054-4.5-2v-2.254c.987.764,2.62,1.254,4.5,1.254s3.513-.49,4.5-1.254v2.254c0,.946-1.848,2-4.5,2Zm0-4c-2.652,0-4.5-1.054-4.5-2v-2.254c.987.764,2.62,1.254,4.5,1.254s3.513-.49,4.5-1.254v2.254c0,.946-1.848,2-4.5,2Zm0-4c-2.652,0-4.5-1.054-4.5-2s1.848-2,4.5-2,4.5,1.054,4.5,2-1.848,2-4.5,2Zm14.5-11h-12v5h12v-5Zm-1,4h-10v-3h10v3Zm1,5h-1v-2h1v2Zm-3,0h-1v-2h1v2Zm-3,0h-1v-2h1v2Zm-1,2h1v2h-1v-2Zm3,0h1v2h-1v-2Zm4,2h-1v-2h1v2Zm-7,2h7v1h-7v-1ZM24,2.5v21.5h-12.387c.329-.307.611-.639.828-1h10.559V2.5c0-.827-.673-1.5-1.5-1.5H6.5c-.827,0-1.5.673-1.5,1.5v5.515c-.341.013-.676.035-1,.074V2.5c0-1.378,1.121-2.5,2.5-2.5h15c1.379,0,2.5,1.122,2.5,2.5Z"/>
</svg>
