<?xml version="1.0" encoding="UTF-8"?>
<svg xmlns="http://www.w3.org/2000/svg" id="Layer_1" data-name="Layer 1" viewBox="0 0 24 24">
  <path d="m23,17v-.605c0-.769-.626-1.395-1.395-1.395h-2.211c-.769,0-1.395.626-1.395,1.395,0,.685.49,1.263,1.165,1.375l2.834.473c1.159.193,2.001,1.186,2.001,2.362,0,1.321-1.074,2.395-2.395,2.395h-.605v1h-1v-1h-.605c-1.32,0-2.395-1.074-2.395-2.395v-.605h1v.605c0,.769.626,1.395,1.395,1.395h2.211c.769,0,1.395-.626,1.395-1.395,0-.685-.49-1.263-1.165-1.375l-2.834-.473c-1.159-.193-2.001-1.186-2.001-2.362,0-1.321,1.074-2.395,2.395-2.395h.605v-1h1v1h.605c1.32,0,2.395,1.074,2.395,2.395v.605h-1Zm-5-11c0,3.309-2.691,6-6,6s-6-2.691-6-6S8.691,0,12,0s6,2.691,6,6Zm-1,0c0-2.757-2.243-5-5-5s-5,2.243-5,5,2.243,5,5,5,5-2.243,5-5ZM7.5,14c-2.481,0-4.5,2.019-4.5,4.5v5.5h1v-5.5c0-1.93,1.57-3.5,3.5-3.5h7.748c.12-.354.27-.693.47-1H7.5Z"/>
</svg>
