<?xml version="1.0" encoding="UTF-8"?>
<svg xmlns="http://www.w3.org/2000/svg" id="Layer_1" data-name="Layer 1" viewBox="0 0 24 24" width="512" height="512"><path d="m21.5,0H2.5C1.121,0,0,1.122,0,2.5v21.5h24V2.5c0-1.378-1.121-2.5-2.5-2.5Zm1.5,23H1V2.5c0-.827.673-1.5,1.5-1.5h19c.827,0,1.5.673,1.5,1.5v20.5Zm-4-10v-2c0-3.86-3.141-7-7-7s-7,3.14-7,7v2c0,3.859,3.141,7,7,7,1.75,0,3.353-.646,4.581-1.712l2.065,2.065.707-.707-2.065-2.065c1.066-1.229,1.712-2.831,1.712-4.581Zm-7,6c-3.309,0-6-2.691-6-6v-2c0-3.309,2.691-6,6-6s6,2.691,6,6v2c0,1.475-.535,2.827-1.421,3.872l-3.226-3.226-.707.707,3.226,3.226c-1.046.886-2.398,1.421-3.872,1.421Z"/></svg>
