<?xml version="1.0" encoding="UTF-8"?>
<svg xmlns="http://www.w3.org/2000/svg" id="Layer_1" data-name="Layer 1" viewBox="0 0 24 24">
  <path d="m20,7c0,.067-.007.132-.019.196-.699,1.922-1.738,3.797-3.041,5.48-.183.232-.467.382-.786.382-.552,0-1-.448-1-1s.448-1,1-1c.223,0,.43.073.596.197.743-1.058,1.377-2.173,1.883-3.324-.371-.146-.633-.508-.633-.93,0-.552.448-1,1-1s1,.448,1,1Zm-4.961,7.83c-2.209,2.208-4.904,3.991-7.83,5.148-.067.014-.137.022-.209.022-.552,0-1-.448-1-1s.448-1,1-1c.413,0,.768.251.92.609,2.297-1.061,4.408-2.535,6.205-4.286.28.226.587.397.913.507ZM21.207.165c-2.408-.815-5.252,1.544-6.741,4.45-.139-.074-.298-.115-.466-.115-.552,0-1,.448-1,1,0,.446.292.824.695.953-.773,1.911-1.659,3.289-2.837,4.418-1.243,1.298-2.811,2.248-5.081,3.082-.122.045-.243.092-.363.142-.156-.35-.506-.594-.914-.594-.552,0-1,.448-1,1,0,.191.054.37.147.522-2.435,1.572-4.206,4.049-3.482,6.178.644,1.883,3.164,2.808,5.844,2.808,1.213,0,2.46-.189,3.578-.566.152-.051.303-.104.454-.159.122.414.505.717.959.717.552,0,1-.448,1-1,0-.171-.043-.331-.118-.472,4.061-1.877,7.387-4.883,9.621-8.66.146.084.316.132.497.132.552,0,1-.448,1-1,0-.394-.228-.735-.56-.898.384-.812.722-1.652,1.009-2.52,1.19-3.595.471-8.49-2.242-9.417Zm1.293,9.103c-2.076,6.274-6.899,11.095-13.231,13.227-3.377,1.136-7.494.321-8.156-1.616-.718-2.11,2.053-4.901,5.009-5.986,2.39-.878,4.124-1.936,5.444-3.314,1.395-1.336,2.452-3.069,3.331-5.457.968-2.636,3.292-5.123,5.281-5.123.241,0,.479.037.707.115,1.921.655,2.736,4.771,1.615,8.155Z"/>
</svg>
