<?xml version="1.0" encoding="UTF-8"?>
<svg xmlns="http://www.w3.org/2000/svg" id="Layer_1" data-name="Layer 1" viewBox="0 0 24 24" width="512" height="512"><path d="m7,16c-.551,0-1-.449-1-1s.449-1,1-1,1,.449,1,1-.449,1-1,1Zm7-1c-.551,0-1-.449-1-1s.449-1,1-1,1,.449,1,1-.449,1-1,1Zm1-7c-.551,0-1-.449-1-1s.449-1,1-1,1,.449,1,1-.449,1-1,1Zm9,1.5v-1h-2.007c-.041-.939-.272-1.843-.673-2.669l1.675-.994-.511-.86-1.668.99c-.237-.345-.507-.671-.809-.973h0c-.361-.362-.756-.678-1.178-.945l.932-1.702-.877-.48-.937,1.711c-.765-.338-1.592-.533-2.447-.57V0h-1v2.035c-.912.092-1.784.365-2.576.801l-1.11-1.824-.854.521,1.126,1.85c-.244.186-.478.389-.698.61l-1.301,1.301-1.541-1.541-.707.707,1.541,1.541-2.379,2.379-1.541-1.541-.707.707,1.541,1.541-1.301,1.301c-.222.222-.425.455-.609.698l-1.851-1.127-.521.854,1.826,1.112c-.442.806-.708,1.683-.799,2.575H0v1h2.01c.037.836.227,1.667.57,2.445l-1.714.939.48.877,1.703-.933c.264.419.578.815.943,1.179.304.304.631.573.974.808l-.99,1.669.86.511.996-1.678c.842.408,1.751.632,2.668.673v2.01h1v-2.039c.898-.092,1.782-.361,2.593-.809l1.154,1.896.854-.521-1.171-1.923c.237-.181.465-.38.682-.597l1.301-1.301,1.607,1.607.707-.707-1.607-1.607,2.379-2.379,1.607,1.607.707-.707-1.607-1.607,1.3-1.3c.216-.216.415-.444.598-.683l1.922,1.17.521-.854-1.894-1.153c.441-.796.718-1.675.811-2.594h2.035Zm-4.7,3.407l-6.394,6.394c-2.262,2.264-5.943,2.263-8.207,0-2.263-2.263-2.263-5.944,0-8.207l6.394-6.395c1.096-1.096,2.553-1.7,4.104-1.7s3.007.604,4.103,1.7c1.096,1.096,1.7,2.553,1.7,4.104s-.604,3.007-1.7,4.103Z"/></svg>
