<?xml version="1.0" encoding="UTF-8"?>
<svg xmlns="http://www.w3.org/2000/svg" id="Layer_1" data-name="Layer 1" viewBox="0 0 24 24">
  <path d="m4,17.5V2.5C4,1.121,2.878,0,1.5,0H0v1h1.5c.827,0,1.5.673,1.5,1.5v15c0,1.379,1.122,2.5,2.5,2.5h.5v1c0,1.654,1.346,3,3,3s3-1.346,3-3v-1h4v1c0,1.654,1.346,3,3,3s3-1.346,3-3v-1h2v-1H5.5c-.827,0-1.5-.673-1.5-1.5Zm7,3.5c0,1.103-.897,2-2,2s-2-.897-2-2v-1h4v1Zm10,0c0,1.103-.897,2-2,2s-2-.897-2-2v-1h4v1Zm-15-4h18v-7H6v7Zm1-6h16v5H7v-5ZM14,0H6v8h8V0Zm-1,7h-6V1h6v6Zm3-5v6h8V2h-8Zm7,5h-6V3h6v4Z"/>
</svg>
