<?xml version="1.0" encoding="UTF-8"?>
<svg xmlns="http://www.w3.org/2000/svg" id="Layer_1" data-name="Layer 1" viewBox="0 0 24 24">
  <path d="m19.814,15.812c.157-.549.212-1.182.091-1.713-.12-.527.122-1.088.601-1.396.448-.29.813-.684,1.083-1.172.255-.461.388-.99.386-1.528.002-.542-.131-1.071-.386-1.532-.271-.488-.635-.882-1.084-1.172-.479-.309-.72-.869-.601-1.396.122-.532.103-1.081-.054-1.63-.295-1.029-1.118-1.852-2.147-2.146-.547-.157-1.096-.177-1.628-.055-.528.118-1.088-.122-1.396-.601-.29-.448-.684-.812-1.171-1.083-.937-.52-2.1-.52-3.037,0-.488.271-.882.635-1.172,1.084-.308.478-.872.718-1.396.6-.535-.122-1.082-.103-1.628.055-1.029.295-1.852,1.117-2.147,2.146-.157.549-.176,1.097-.055,1.63.12.526-.121,1.087-.6,1.396-.449.29-.814.685-1.083,1.172-.255.459-.388.989-.386,1.528-.002.543.131,1.073.386,1.532.27.487.634.882,1.084,1.172.479.309.72.869.6,1.396-.121.532-.063,1.171.094,1.72L-.015,20H3.987v4.015l5.392-5.391c.282.402.642.739,1.091.989.468.26.994.39,1.519.39s1.05-.13,1.518-.39c.451-.251.813-.59,1.096-.994l5.397,5.396v-4.015h4.002l-4.188-4.188Zm-14.826,5.789v-2.601h-2.588l2.262-2.263c.405.532.957.949,1.613,1.137.547.157,1.095.176,1.628.055.238-.054.478-.025.702.055l-3.617,3.617Zm8.851-3.614c-.2.309-.474.562-.816.751-.628.35-1.439.35-2.067,0-.342-.189-.617-.441-.815-.75-.442-.687-1.193-1.089-1.967-1.089-.164,0-.328.019-.491.056-.368.082-.748.068-1.132-.041-.69-.198-1.264-.771-1.461-1.461-.11-.385-.124-.766-.041-1.132.212-.936-.203-1.923-1.033-2.458-.31-.2-.562-.475-.751-.816-.172-.311-.262-.672-.261-1.048-.001-.372.088-.733.261-1.044.189-.342.442-.616.751-.816.831-.535,1.246-1.522,1.033-2.457-.083-.367-.069-.748.041-1.133.198-.689.771-1.263,1.461-1.461.384-.109.766-.123,1.131-.041.934.213,1.922-.202,2.458-1.033.199-.309.473-.561.816-.75.628-.35,1.439-.35,2.067,0,.342.189.616.442.815.75.536.832,1.524,1.245,2.458,1.033.368-.081.749-.068,1.131.041.69.198,1.264.771,1.462,1.461.11.385.124.766.04,1.133-.212.935.204,1.922,1.033,2.457.309.199.562.475.751.816.172.312.262.672.261,1.048.001.372-.088.732-.261,1.044-.189.342-.442.617-.751.816-.83.535-1.246,1.522-1.033,2.458.083.366.069.747-.041,1.132-.198.689-.772,1.263-1.462,1.461-.384.11-.764.122-1.131.041-.933-.21-1.922.203-2.458,1.032Zm5.162,1.014v2.601l-3.62-3.619c.223-.079.461-.107.695-.052.533.12,1.08.102,1.627-.055.657-.188,1.212-.607,1.617-1.142l2.268,2.268h-2.588Zm-4-4v-2c0-.552-.449-1-1-1h-4c-.551,0-1,.448-1,1v2h-1v-2c0-1.103.897-2,2-2h4c1.103,0,2,.897,2,2v2h-1Zm-3-5c1.378,0,2.5-1.121,2.5-2.5s-1.122-2.5-2.5-2.5-2.5,1.121-2.5,2.5,1.122,2.5,2.5,2.5Zm0-4c.827,0,1.5.673,1.5,1.5s-.673,1.5-1.5,1.5-1.5-.673-1.5-1.5.673-1.5,1.5-1.5Z"/>
</svg>
