<?xml version="1.0" encoding="UTF-8"?>
<svg xmlns="http://www.w3.org/2000/svg" id="Layer_1" data-name="Layer 1" viewBox="0 0 24 24">
  <path d="m12,12c-2.206,0-4,1.57-4,3.5s1.794,3.5,4,3.5,4-1.57,4-3.5-1.794-3.5-4-3.5Zm0,6c-1.654,0-3-1.122-3-2.5s1.346-2.5,3-2.5,3,1.122,3,2.5-1.346,2.5-3,2.5Zm5-8c0,.552-.448,1-1,1s-1-.448-1-1,.448-1,1-1,1,.448,1,1Zm-9,1c-.552,0-1-.448-1-1s.448-1,1-1,1,.448,1,1-.448,1-1,1ZM24,0h-.5c-3.461,0-6.202,0-8.075,2.546-1.078-.354-2.229-.546-3.425-.546s-2.346.192-3.424.546C6.702,0,3.961,0,.5,0h-.5v.5c0,.152.222,4.036,2.189,7.531-.76,1.494-1.189,3.182-1.189,4.969,0,6.065,4.935,11,11,11s11-4.935,11-11c0-1.767-.419-3.438-1.163-4.919,1.965-3.497,2.163-7.429,2.163-7.581v-.5ZM1.024,1c3.016.005,5.094.103,6.576,1.919-1.983.869-3.662,2.306-4.831,4.104C1.424,4.554,1.102,2.042,1.024,1Zm20.976,12c0,5.514-4.486,10-10,10S2,18.514,2,13,6.486,3,12,3s10,4.486,10,10Zm-.77-5.977c-1.168-1.798-2.848-3.235-4.83-4.104,1.481-1.816,3.559-1.914,6.576-1.919-.077,1.042-.4,3.554-1.745,6.023Z"/>
</svg>
