<?xml version="1.0" encoding="UTF-8"?>
<svg xmlns="http://www.w3.org/2000/svg" id="Layer_1" data-name="Layer 1" viewBox="0 0 24 24">
  <path d="m17.476,6c-.959,0-1.806.414-2.475,1.205-.812-.65-1.649-1.03-2.492-1.139.208-4.924,3.952-5.066,3.991-5.066.692,0,1.5.322,1.5,1.23,0,.251-.245.77-1,.77v1c1.252,0,2-.899,2-1.77,0-1.313-1.028-2.23-2.5-2.23-.989,0-3.375.694-4.454,3.374-.512-1.525-1.455-2.638-2.823-3.321l-.447.895c1.737.868,2.627,2.545,2.716,5.119-.843.109-1.681.488-2.493,1.139-.669-.791-1.516-1.205-2.475-1.205C3.569,6,0,10.015,0,15s3.569,9,6.524,9c.959,0,1.806-.414,2.475-1.205,1.95,1.562,4.052,1.562,6.002,0,.669.791,1.516,1.205,2.475,1.205,2.955,0,6.524-4.015,6.524-9s-3.569-9-6.524-9Zm0,17c-.798,0-1.445-.396-1.978-1.208l-.324-.495-.434.403c-.902.838-1.875,1.3-2.74,1.3s-1.838-.462-2.74-1.3l-.434-.403-.324.495c-.533.812-1.18,1.208-1.978,1.208-2.486,0-5.524-3.691-5.524-8S4.038,7,6.524,7c.798,0,1.445.396,1.978,1.208l.324.495.434-.403c.902-.838,1.875-1.3,2.74-1.3s1.838.462,2.74,1.3l.434.403.324-.495c.533-.812,1.18-1.208,1.978-1.208,2.486,0,5.524,3.691,5.524,8s-3.038,8-5.524,8Z"/>
</svg>
