<?xml version="1.0" encoding="UTF-8"?>
<svg xmlns="http://www.w3.org/2000/svg" id="Layer_1" data-name="Layer 1" viewBox="0 0 24 24">
  <path d="m20.36,2.784l-1.338-1.337-.016.016C17.446.102,15.169-.33,12.548.248c-2.7.596-5.464,2.2-7.781,4.518C2.448,7.084.844,9.847.248,12.547c-.575,2.604-.153,4.867,1.186,6.426l-.018.018,1.368,1.368c2.423,2.423,5.605,3.634,8.788,3.634s6.365-1.211,8.788-3.634c4.845-4.846,4.845-12.73,0-17.576ZM1.225,12.763c.555-2.516,2.064-5.105,4.249-7.29S10.247,1.78,12.763,1.225c.688-.152,1.345-.227,1.964-.227,1.576,0,2.905.485,3.848,1.428,1.312,1.312,1.739,3.376,1.201,5.812-.555,2.516-2.064,5.105-4.249,7.29s-4.773,3.693-7.289,4.249c-2.439.538-4.501.111-5.812-1.201-1.312-1.312-1.739-3.376-1.201-5.812Zm18.429,6.89c-3.992,3.993-10.229,4.407-14.688,1.244.417.07.852.105,1.304.105.693,0,1.424-.083,2.184-.25,2.7-.596,5.464-2.2,7.781-4.518,2.318-2.318,3.923-5.081,4.519-7.781.277-1.256.322-2.432.145-3.488,3.163,4.459,2.749,10.696-1.243,14.689Zm-13.358-1.655c.47,0,.978-.058,1.511-.175,2.117-.467,4.416-1.819,6.307-3.71,1.891-1.89,3.242-4.189,3.71-6.307.38-1.72.139-3.166-.663-3.966-.796-.797-2.247-1.041-3.965-.663-2.117.467-4.416,1.819-6.307,3.71-1.891,1.89-3.242,4.189-3.71,6.307-.38,1.72-.139,3.166.662,3.965.551.553,1.41.839,2.455.839Zm-2.141-4.588c.428-1.937,1.682-4.056,3.44-5.815,1.76-1.759,3.879-3.013,5.814-3.44.464-.102.903-.154,1.306-.154.779,0,1.38.189,1.738.547.547.546.693,1.684.393,3.043-.428,1.937-1.682,4.056-3.44,5.815-1.76,1.759-3.879,3.013-5.814,3.44-1.363.299-2.5.151-3.044-.394-.547-.546-.693-1.684-.393-3.043Z"/>
</svg>
