<?xml version="1.0" encoding="UTF-8"?>
<svg xmlns="http://www.w3.org/2000/svg" id="Layer_1" data-name="Layer 1" viewBox="0 0 24 24">
  <path d="m20.212,2.798L12,.076,3.788,2.798c-1.069.355-1.788,1.349-1.788,2.473v6.664c0,6.609,7.159,10.702,9.354,11.8l.628.313.648-.262c2.817-1.133,9.37-4.545,9.37-11.744v-6.771c0-1.125-.719-2.118-1.788-2.473Zm.788,9.244c0,6.589-6.346,9.854-8.976,10.91-2.064-1.032-9.024-4.981-9.024-11.018v-6.664c0-.692.443-1.305,1.103-1.523l7.897-2.618,7.897,2.618c.659.219,1.103.831,1.103,1.523v6.771Zm-9-5.042c-1.379,0-2.5,1.121-2.5,2.5,0,1.208.86,2.218,2,2.45v4.05h1v-4.05c1.14-.232,2-1.242,2-2.45,0-1.379-1.121-2.5-2.5-2.5Zm0,4c-.827,0-1.5-.673-1.5-1.5s.673-1.5,1.5-1.5,1.5.673,1.5,1.5-.673,1.5-1.5,1.5Z"/>
</svg>
