<?xml version="1.0" encoding="UTF-8"?>
<svg xmlns="http://www.w3.org/2000/svg" id="Layer_1" data-name="Layer 1" viewBox="0 0 24 24" width="512" height="512"><path d="M24,12c0,3.542-1.552,6.721-4,8.919v-1.392c1.854-1.97,3-4.614,3-7.526,0-6.065-4.935-11-11-11S1,5.935,1,12c0,3.896,2.042,7.317,5.106,9.272,.094,.494,.256,.969,.473,1.42C2.682,20.707,0,16.665,0,12,0,5.383,5.383,0,12,0s12,5.383,12,12Zm-15-1h1c0-1.889-1.069-4-2.5-4s-2.5,2.111-2.5,4h1c0-1.43,.785-3,1.5-3s1.5,1.57,1.5,3Zm7.5-4c-1.431,0-2.5,2.111-2.5,4h1c0-1.43,.785-3,1.5-3s1.5,1.57,1.5,3h1c0-1.889-1.069-4-2.5-4Zm-2.663,15.17c-1.104,1.105-2.902,1.104-4.007,0-.535-.535-.83-1.247-.83-2.004v-.786l6.322-6.323-.707-.707-5.615,5.616v-2.966h-1v5.166c0,1.024,.399,1.987,1.123,2.711,.748,.747,1.729,1.121,2.71,1.121s1.963-.374,2.71-1.121l3.917-3.916-.707-.707-3.917,3.916Zm-1.823-4.18l.707,.707,4.859-4.86-.707-.707-4.859,4.86Zm2.18,2.18l4.093-4.094-.707-.707-4.093,4.094,.707,.707Z"/></svg>
