<?xml version="1.0" encoding="UTF-8"?>
<svg xmlns="http://www.w3.org/2000/svg" id="Layer_1" data-name="Layer 1" viewBox="0 0 24 24" width="512" height="512"><path d="m18.5,3h-7.5V1h-1v2h-3V0h-1v3h-.5c-1.378,0-2.5,1.122-2.5,2.5v6.537c0,.702.132,1.389.393,2.042l.607,1.517v8.404h16v-8.404l.607-1.517c.261-.653.393-1.341.393-2.042v-6.537c0-1.378-1.122-2.5-2.5-2.5Zm1.5,9.037c0,.574-.108,1.137-.322,1.671l-.643,1.606-.036,7.686H5v-7.5l-.678-1.792c-.213-.535-.322-1.097-.322-1.671v-6.537c0-.827.673-1.5,1.5-1.5h13c.827,0,1.5.673,1.5,1.5v6.537Zm-14-.037h12v-6H6v6Zm1-5h10v4H7v-4Z"/></svg>
