<?xml version="1.0" encoding="UTF-8"?>
<svg xmlns="http://www.w3.org/2000/svg" id="Layer_1" data-name="Layer 1" viewBox="0 0 24 24" width="512" height="512"><path d="M.814,14.574l5.055,3.859L23.804,9.875l-1.086-2.348c-.601-1.297-2.144-1.86-3.441-1.264l-3.449,1.66L8.678,3.508c-.763-.563-1.771-.668-2.635-.268l-2.943,1.384,6.899,6.105-3.938,1.896-3.414-1.493c-.495-.181-1.029-.158-1.505,.062C.498,11.492,.074,12.092,.008,12.799c-.065,.707,.241,1.374,.806,1.775ZM4.9,4.882l1.565-.735c.528-.247,1.148-.182,1.652,.189l6.639,4.103-3.781,1.82L4.9,4.882ZM1.004,12.891c.032-.348,.24-.643,.558-.79,.133-.062,.276-.092,.414-.092,.104,0,.206,.018,.298,.051l3.806,1.665,13.619-6.555c.385-.177,.816-.194,1.215-.048s.717,.439,.896,.825l.671,1.451L5.99,17.268,1.407,13.77c-.284-.202-.435-.531-.403-.879Zm22.996,10.109v1H0v-1H24Z"/></svg>
