<?xml version="1.0" encoding="UTF-8"?>
<svg xmlns="http://www.w3.org/2000/svg" id="Layer_1" data-name="Layer 1" viewBox="0 0 24 24" width="512" height="512"><path d="M12,0C5.383,0,0,5.383,0,12s5.383,12,12,12,12-5.383,12-12S18.617,0,12,0Zm0,1c4.655,0,8.643,2.907,10.247,7h-2.373c-.445-1.724-2.013-3-3.874-3-2.206,0-4,1.794-4,4,0,1.942,1.39,3.565,3.228,3.925,.374,.332,.772,1.036,.772,1.575,0,1.11-2.9,2.5-4,2.5-1.192,0-4-1.308-4-2.5,0-.62,.314-1.263,.763-1.573,1.842-.357,3.237-1.982,3.237-3.927,0-2.206-1.794-4-4-4-1.861,0-3.429,1.276-3.874,3H1.753C3.357,3.907,7.345,1,12,1Zm1,8c0-1.654,1.346-3,3-3s3,1.346,3,3-1.346,3-3,3-3-1.346-3-3Zm-5,3c-1.654,0-3-1.346-3-3s1.346-3,3-3,3,1.346,3,3-1.346,3-3,3Zm4,11c-6.065,0-11-4.935-11-11,0-1.04,.145-2.046,.416-3h2.584c0,2.01,1.49,3.678,3.423,3.958-.267,.459-.423,1.003-.423,1.542,0,.546,.246,1.043,.632,1.479l-1.678,1.231,.592,.807,1.854-1.36c.484,.345,1.041,.632,1.584,.85l-.832,2.426,.945,.324,.833-2.432c.425,.115,.8,.175,1.069,.175,.278,0,.65-.066,1.065-.186l.837,2.443,.945-.324-.842-2.458c.529-.226,1.07-.517,1.544-.856l1.905,1.398,.592-.807-1.72-1.262c.411-.443,.674-.934,.674-1.448,0-.511-.198-1.065-.477-1.534,1.96-.257,3.477-1.937,3.477-3.966h2.584c.271,.954,.416,1.96,.416,3,0,6.065-4.935,11-11,11Zm-3-14c0,.552-.448,1-1,1s-1-.448-1-1,.448-1,1-1,1,.448,1,1Zm8,0c0,.552-.448,1-1,1s-1-.448-1-1,.448-1,1-1,1,.448,1,1Z"/></svg>
