<?xml version="1.0" encoding="UTF-8"?>
<svg xmlns="http://www.w3.org/2000/svg" id="Layer_1" data-name="Layer 1" viewBox="0 0 24 24">
  <path d="m15,6c0,.552-.448,1-1,1s-1-.448-1-1,.448-1,1-1,1,.448,1,1Zm4-1c-.552,0-1,.448-1,1s.448,1,1,1,1-.448,1-1-.448-1-1-1Zm5,1c0,.828-.672,1.5-1.5,1.5-.291,0-.563-.083-.793-.227-.332.973-.93,1.824-1.707,2.466v13.261h2v1H6.5c-3.584,0-6.5-2.916-6.5-6.5V5.5C0,2.21,2.21,0,5.5,0v1C2.724,1,1,2.724,1,5.5v12c0,2.143,1.232,4.003,3.024,4.91.148-2.376,1.196-11.2,8.549-13.064-.569-.581-1.011-1.287-1.28-2.074-.23.144-.502.227-.793.227-.828,0-1.5-.672-1.5-1.5s.672-1.5,1.5-1.5c.203,0,.396.04.572.113.425-2.612,2.698-4.613,5.428-4.613s5.003,2.001,5.428,4.613c.176-.073.369-.113.572-.113.828,0,1.5.672,1.5,1.5Zm-11.557-2.445c.511-.351,1.132-.555,1.807-.555.845,0,1.649.332,2.25.91.601-.578,1.405-.91,2.25-.91.675,0,1.295.203,1.806.552-.727-1.509-2.272-2.552-4.056-2.552s-3.331,1.045-4.057,2.555Zm6.557,13.445c0-1.103-.897-2-2-2s-2,.897-2,2v6h4v-6Zm0-6.602c-.751.385-1.6.602-2.5.602-1.073,0-2.076-.309-2.923-.843-7.841,1.337-8.515,11.088-8.572,12.637.475.134.977.206,1.495.206h7.5v-6c0-1.654,1.346-3,3-3,.768,0,1.469.29,2,.766v-4.368Zm1.947-4.206c-.029-1.234-.984-2.192-2.197-2.192-.73,0-1.418.36-1.841.963l-.409.584-.409-.584c-.423-.603-1.11-.963-1.841-.963-1.218,0-2.174.969-2.193,2.212.342,2.144,2.204,3.788,4.443,3.788s4.113-1.654,4.447-3.808Z"/>
</svg>
