<?xml version="1.0" encoding="UTF-8"?>
<svg xmlns="http://www.w3.org/2000/svg" id="Layer_1" data-name="Layer 1" viewBox="0 0 24 24" width="512" height="512"><path d="M24,19V4.5c0-1.378-1.121-2.5-2.5-2.5H2.5C1.122,2,0,3.122,0,4.5v14.5H11.5v2H7v1h10v-1h-4.5v-2h11.5ZM1,4.5c0-.827,.673-1.5,1.5-1.5H21.5c.827,0,1.5,.673,1.5,1.5v13.5H1V4.5Zm12,3v3.013c-.419-.317-.935-.513-1.5-.513-1.378,0-2.5,1.122-2.5,2.5s1.122,2.5,2.5,2.5,2.5-1.121,2.5-2.5V7.5c0-.276,.225-.5,.5-.5h2.5v-1h-2.5c-.827,0-1.5,.673-1.5,1.5Zm-1.5,6.5c-.827,0-1.5-.673-1.5-1.5s.673-1.5,1.5-1.5,1.5,.673,1.5,1.5-.673,1.5-1.5,1.5Z"/></svg>
