<?xml version="1.0" encoding="UTF-8"?>
<svg xmlns="http://www.w3.org/2000/svg" id="Layer_1" data-name="Layer 1" viewBox="0 0 24 24" width="512" height="512"><path d="M17.5,20c3.084,0,5.5-2.8,5.5-6.375,0-5.157-7.171-11.293-9.368-13.051-.961-.768-2.303-.768-3.263,0C8.171,2.332,1,8.466,1,13.625c0,3.575,2.416,6.375,5.5,6.375,2.232,0,3.935-1.473,4.935-2.629-.316,3.735-1.802,5.629-4.435,5.629h-2v1h14v-1h-2c-2.633,0-4.119-1.893-4.435-5.629,1,1.156,2.702,2.629,4.935,2.629Zm-11-1c-2.523,0-4.5-2.361-4.5-5.375C2,9.88,6.646,4.831,10.993,1.355c.593-.475,1.421-.475,2.014,0,4.348,3.477,8.993,8.526,8.993,12.27,0,3.014-1.977,5.375-4.5,5.375-3.008,0-5.047-3.446-5.067-3.481l-.433-.743-.432,.743c-.02,.035-2.06,3.481-5.067,3.481Zm7.414,4h-3.828c.794-.627,1.479-1.603,1.914-3.101,.435,1.498,1.12,2.474,1.914,3.101Z"/></svg>
