<?xml version="1.0" encoding="UTF-8"?>
<svg xmlns="http://www.w3.org/2000/svg" id="Layer_1" data-name="Layer 1" viewBox="0 0 24 24">
  <path d="m9,15h6v-6h-6v6Zm1-5h4v4h-4v-4Zm-1-3h6V1h-6v6Zm1-5h4v4h-4V2Zm-1,21h6v-6h-6v6Zm1-5h4v4h-4v-4Zm-2.336,1.65c.487.486.487,1.278,0,1.765l-2.644,2.644-.707-.707,2.352-2.352H2.5c-1.378,0-2.5-1.121-2.5-2.5v-5c0-1.378,1.122-2.5,2.5-2.5h5.5v1H2.5c-.827,0-1.5.673-1.5,1.5v5c0,.827.673,1.5,1.5,1.5h4.099l-2.286-2.286.707-.707,2.644,2.644Zm9.336-9.65h-1v-1h1c.552,0,1-.449,1-1s-.448-1-1-1h-1v-1h1c1.103,0,2,.897,2,2s-.897,2-2,2Zm4.86-.899l1.94,1.133-1.512,2.591-1.937-1.131c-.536.489-1.166.852-1.853,1.068v2.238h-2.5v-1h1.5v-2.031c1.079-.135,2.025-.699,2.66-1.517l1.77,1.004.504-.863-1.763-1.001c.212-.488.33-1.026.33-1.592,0-.55-.111-1.074-.312-1.55l1.745-1.043-.504-.863-1.742,1.041c-.635-.837-1.593-1.417-2.688-1.553v-2.031h-1.5v-1h2.5v2.238c.687.216,1.315.579,1.853,1.067l1.937-1.13,1.512,2.591-1.94,1.133c.094.384.14.748.14,1.101s-.046.716-.14,1.101Z"/>
</svg>
