<?xml version="1.0" encoding="UTF-8"?>
<svg xmlns="http://www.w3.org/2000/svg" id="Layer_1" data-name="Layer 1" viewBox="0 0 24 24">
  <path d="m20,16H4c-2.206,0-4,1.794-4,4s1.794,4,4,4h16c2.206,0,4-1.794,4-4s-1.794-4-4-4Zm0,7H4c-1.654,0-3-1.346-3-3s1.346-3,3-3h16c1.654,0,3,1.346,3,3s-1.346,3-3,3Zm0-20.5c0-1.378-1.121-2.5-2.5-2.5H6.5c-1.379,0-2.5,1.122-2.5,2.5v11.5h16V2.5Zm-9-1.5h2v4h-2V1Zm8,12H5V2.5c0-.827.673-1.5,1.5-1.5h3.5v5h4V1h3.5c.827,0,1.5.673,1.5,1.5v10.5Zm-14,7c0,.552-.448,1-1,1s-1-.448-1-1,.448-1,1-1,1,.448,1,1Zm16,0c0,.552-.448,1-1,1s-1-.448-1-1,.448-1,1-1,1,.448,1,1Zm-11,0c0,.552-.448,1-1,1s-1-.448-1-1,.448-1,1-1,1,.448,1,1Zm6,0c0,.552-.448,1-1,1s-1-.448-1-1,.448-1,1-1,1,.448,1,1Z"/>
</svg>
