<?xml version="1.0" encoding="UTF-8"?>
<svg xmlns="http://www.w3.org/2000/svg" id="Layer_1" data-name="Layer 1" viewBox="0 0 24 24" width="512" height="512"><path d="M19,11.993l3.535-3.458c.945-.944,1.465-2.2,1.465-3.536s-.52-2.591-1.465-3.536c-.944-.944-2.2-1.464-3.535-1.464s-2.591,.52-3.536,1.464c-1.95,1.95-1.95,5.122,.004,7.075l3.532,3.454Zm-2.829-9.822c.756-.755,1.76-1.171,2.829-1.171s2.073,.416,2.828,1.171c.756,.755,1.172,1.76,1.172,2.829s-.416,2.073-1.168,2.825l-2.832,2.77-2.829-2.766c-1.56-1.56-1.56-4.098,0-5.657Zm-6.171,14.829c0-1.335-.52-2.591-1.465-3.536-.944-.944-2.2-1.464-3.535-1.464s-2.591,.52-3.536,1.464c-1.95,1.95-1.95,5.122,.004,7.075l3.532,3.454,3.535-3.458c.945-.944,1.465-2.2,1.465-3.536Zm-5,5.595l-2.829-2.766c-1.56-1.56-1.56-4.098,0-5.657,.756-.755,1.76-1.171,2.829-1.171s2.073,.416,2.828,1.171c.756,.755,1.172,1.76,1.172,2.829s-.416,2.073-1.168,2.825l-2.832,2.77Zm19-2.095c0,1.93-1.57,3.5-3.5,3.5H7.853l1.022-1h11.624c1.378,0,2.5-1.122,2.5-2.5s-1.122-2.5-2.5-2.5h-5c-1.93,0-3.5-1.57-3.5-3.5,0-1.813,1.391-3.291,3.159-3.466l.987,.966h-.646c-1.378,0-2.5,1.122-2.5,2.5s1.122,2.5,2.5,2.5h5c1.93,0,3.5,1.57,3.5,3.5Z"/></svg>
