<?xml version="1.0" encoding="UTF-8"?>
<svg xmlns="http://www.w3.org/2000/svg" id="Layer_1" data-name="Layer 1" viewBox="0 0 24 24" width="512" height="512"><path d="M23.02,23.313l-3.15-3.151c1.334-1.7,2.13-3.84,2.13-6.163v-4C22,4.486,17.514,0,12,0S2,4.486,2,10v4c0,5.514,4.486,10,10,10,2.831,0,5.391-1.183,7.212-3.08l3.101,3.101,.707-.707Zm-11.02-.313c-4.962,0-9-4.037-9-9v-4C3,5.037,7.038,1,12,1s9,4.037,9,9v4c0,2.047-.688,3.936-1.843,5.45l-3.47-3.471-.707,.707,3.526,3.526c-1.64,1.716-3.95,2.787-6.506,2.787Z"/></svg>
