<?xml version="1.0" encoding="UTF-8"?>
<svg xmlns="http://www.w3.org/2000/svg" id="Layer_1" data-name="Layer 1" viewBox="0 0 24 24">
  <path d="m15.527,7.041c1.152,2.342.036,4.563-1.6,5.464-.961.53-1.428,1.346-1.428,2.495h-1c0-1.504.673-2.669,1.945-3.37,1.261-.695,2.072-2.343,1.185-4.147-.236-.48-.631-.876-1.112-1.113-1.055-.52-2.186-.488-3.101.082-.887.553-1.417,1.505-1.417,2.549h-1c0-1.392.706-2.662,1.889-3.398,1.215-.756,2.697-.804,4.07-.129.679.335,1.235.892,1.568,1.568Zm-3.527,9.959c-.552,0-1,.448-1,1s.448,1,1,1,1-.448,1-1-.448-1-1-1ZM24,2.5v21.5H0V2.5C0,1.121,1.121,0,2.5,0h19c1.379,0,2.5,1.121,2.5,2.5Zm-1,0c0-.827-.673-1.5-1.5-1.5H2.5c-.827,0-1.5.673-1.5,1.5v20.5h22V2.5ZM4,19c-.552,0-1,.448-1,1s.448,1,1,1,1-.448,1-1-.448-1-1-1Zm0-16c-.552,0-1,.448-1,1s.448,1,1,1,1-.448,1-1-.448-1-1-1Zm16,0c-.552,0-1,.448-1,1s.448,1,1,1,1-.448,1-1-.448-1-1-1Zm0,16c-.552,0-1,.448-1,1s.448,1,1,1,1-.448,1-1-.448-1-1-1Z"/>
</svg>
