<?xml version="1.0" encoding="UTF-8"?>
<svg xmlns="http://www.w3.org/2000/svg" id="Layer_1" data-name="Layer 1" viewBox="0 0 24 24">
  <path d="m8,13c0,2.206,1.794,4,4,4s4-1.794,4-4-1.794-4-4-4-4,1.794-4,4Zm4-3c1.654,0,3,1.346,3,3s-1.346,3-3,3-3-1.346-3-3,1.346-3,3-3Zm6-2c2.206,0,4-1.794,4-4s-1.794-4-4-4-4,1.794-4,4,1.794,4,4,4Zm0-7c1.654,0,3,1.346,3,3s-1.346,3-3,3-3-1.346-3-3,1.346-3,3-3Zm6,11.5v2.5h-1v-2.5c0-.827-.673-1.5-1.5-1.5h-3.849c-.124-.349-.277-.684-.461-1h4.309c1.379,0,2.5,1.121,2.5,2.5Zm-6,9v2.5h-1v-2.5c0-.827-.673-1.5-1.5-1.5h-7c-.827,0-1.5.673-1.5,1.5v2.5h-1v-2.5c0-1.379,1.121-2.5,2.5-2.5h7c1.379,0,2.5,1.121,2.5,2.5ZM6,8c2.206,0,4-1.794,4-4S8.206,0,6,0,2,1.794,2,4s1.794,4,4,4Zm0-7c1.654,0,3,1.346,3,3s-1.346,3-3,3-3-1.346-3-3,1.346-3,3-3Zm-3.5,10c-.827,0-1.5.673-1.5,1.5v2.5H0v-2.5c0-1.379,1.121-2.5,2.5-2.5h4.309c-.183.316-.337.651-.461,1h-3.849Z"/>
</svg>
