<?xml version="1.0" encoding="UTF-8"?>
<svg xmlns="http://www.w3.org/2000/svg" id="Layer_1" data-name="Layer 1" viewBox="0 0 24 24" width="512" height="512"><path d="M21.5,0H2.5C1.12,0,0,1.12,0,2.5V24H24V2.5c0-1.38-1.12-2.5-2.5-2.5Zm1.5,23H1V2.5c0-.83,.67-1.5,1.5-1.5H21.5c.83,0,1.5,.67,1.5,1.5V23ZM7,10c1.65,0,3-1.35,3-3s-1.35-3-3-3-3,1.35-3,3,1.35,3,3,3Zm0-5c1.1,0,2,.9,2,2s-.9,2-2,2-2-.9-2-2,.9-2,2-2Zm13-1h-6v6h6V4Zm-1,5h-4V5h4v4ZM3.29,16.5l3.71,3.71,3.71-3.71-3.71-3.71-3.71,3.71Zm3.71,2.29l-2.29-2.29,2.29-2.29,2.29,2.29-2.29,2.29Zm5.97,1.21h8.05l-4.03-6.44-4.03,6.44Zm1.8-1l2.22-3.56,2.22,3.56h-4.45Z"/></svg>
