<?xml version="1.0" encoding="UTF-8"?>
<svg xmlns="http://www.w3.org/2000/svg" id="Layer_1" data-name="Layer 1" viewBox="0 0 24 24" width="512" height="512"><path d="m8,5h-4v-1h4V0h1v4h4v1h-4v4h-1v-4Zm15.363,8.182l-9.639,10.818H2.5c-1.378,0-2.5-1.122-2.5-2.5v-7c0-1.378,1.122-2.5,2.5-2.5h10.858c1.208,0,2.229.814,2.542,1.922l3.732-4.102c.451-.496,1.069-.787,1.739-.818.67-.022,1.312.2,1.809.652,1.012.923,1.094,2.505.182,3.527Zm-.856-2.788c-.298-.272-.688-.407-1.088-.393-.403.019-.775.194-1.047.492l-4.495,4.94c-.301.945-1.124,1.678-2.146,1.824l-5.667.738-.129-.991,5.661-.737c.797-.114,1.404-.813,1.404-1.625,0-.905-.737-1.642-1.642-1.642H2.5c-.827,0-1.5.673-1.5,1.5v7c0,.827.673,1.5,1.5,1.5h10.776l9.34-10.483c.549-.615.5-1.567-.109-2.123Z"/></svg>
