<?xml version="1.0" encoding="UTF-8"?>
<svg xmlns="http://www.w3.org/2000/svg" id="Layer_1" data-name="Layer 1" viewBox="0 0 24 24">
  <path d="m12,4c1.103,0,2-.897,2-2s-.897-2-2-2-2,.897-2,2,.897,2,2,2Zm0-3c.552,0,1,.448,1,1s-.448,1-1,1-1-.448-1-1,.448-1,1-1Zm-2,7h-1v-1c0-1.103.897-2,2-2h2c1.103,0,2,.897,2,2v1h-1v-1c0-.552-.448-1-1-1h-2c-.552,0-1,.448-1,1v1Zm-7-2c1.103,0,2-.897,2-2s-.897-2-2-2-2,.897-2,2,.897,2,2,2Zm0-3c.552,0,1,.448,1,1s-.448,1-1,1-1-.448-1-1,.448-1,1-1Zm1,5h-2c-.552,0-1,.448-1,1v1H0v-1c0-1.103.897-2,2-2h2c1.103,0,2,.897,2,2v1h-1v-1c0-.552-.448-1-1-1Zm17-2c1.103,0,2-.897,2-2s-.897-2-2-2-2,.897-2,2,.897,2,2,2Zm0-3c.552,0,1,.448,1,1s-.448,1-1,1-1-.448-1-1,.448-1,1-1Zm3,6v1h-1v-1c0-.552-.448-1-1-1h-2c-.552,0-1,.448-1,1v1h-1v-1c0-1.103.897-2,2-2h2c1.103,0,2,.897,2,2Zm-10,8.103l9,3.038v3.897h-1v-3.179l-9-3.038v-6.214c0-.789-.535-1.471-1.244-1.587-.452-.072-.886.046-1.227.336-.337.286-.529.703-.529,1.144v10.625l-3.445-2.693.005-.006c-.012-.01-.027-.013-.039-.024-.606-.562-1.554-.53-2.115.072-.565.604-.534,1.557.064,2.118l2.535,2.37h-1.44l-1.783-1.646c-1-.937-1.048-2.518-.106-3.524.929-.996,2.487-1.055,3.495-.146h0s1.83,1.429,1.83,1.429v-8.574c0-.734.321-1.429.881-1.905.56-.476,1.306-.68,2.035-.561,1.188.193,2.084,1.3,2.084,2.573v5.495Z"/>
</svg>
