<?xml version="1.0" encoding="UTF-8"?>
<svg xmlns="http://www.w3.org/2000/svg" id="Layer_1" data-name="Layer 1" viewBox="0 0 24 24">
  <path d="m22.922,7.02L13.471.479c-.878-.641-2.062-.64-2.932-.007L1.078,7.02c-.675.466-1.078,1.234-1.078,2.056v2.925h11.5v12h1v-12h11.5v-2.925c0-.821-.403-1.59-1.078-2.056ZM1,9.075c0-.492.241-.953.646-1.233L10.488,1.723l-3.813,5.219c-.441.603-.675,1.316-.675,2.064v1.994H1v-1.925Zm6,1.925v-1.994c0-.534.167-1.044.481-1.475l4.019-5.5v8.969h-4.5ZM12.5,2.028l4.209,5.739c.19.26.291.567.291.888v2.346h-4.5V2.028Zm10.5,8.972h-5v-2.346c0-.534-.167-1.045-.483-1.479l-3.994-5.446,8.831,6.112c.405.28.646.741.646,1.233v1.925ZM6,20.5v3.5h-1v-3.5c0-.275-.225-.5-.5-.5H1v4H0v-9h1v4h3.5c.827,0,1.5.673,1.5,1.5Zm17-5.5h1v9h-1v-4h-3.5c-.275,0-.5.225-.5.5v3.5h-1v-3.5c0-.827.673-1.5,1.5-1.5h3.5v-4Z"/>
</svg>
