<?xml version="1.0" encoding="UTF-8"?>
<svg xmlns="http://www.w3.org/2000/svg" id="Layer_1" data-name="Layer 1" viewBox="0 0 24 24" width="512" height="512"><path d="m21.5,0H2.5C1.122,0,0,1.122,0,2.5v17.5h7.106l3.897,3.284c.286.253.645.38,1.001.379.353,0,.703-.123.979-.368l3.985-3.295h7.032V2.5c0-1.378-1.122-2.5-2.5-2.5Zm1.5,19h-6.391l-4.276,3.536c-.19.169-.477.167-.675-.008l-4.187-3.527H1V2.5c0-.827.673-1.5,1.5-1.5h19c.827,0,1.5.673,1.5,1.5v16.5Zm-10.5-9.5h4.5v1h-4.5v4.5h-1v-4.5h-4.5v-1h4.5v-4.5h1v4.5Z"/></svg>
