<?xml version="1.0" encoding="UTF-8"?>
<svg xmlns="http://www.w3.org/2000/svg" id="Layer_1" data-name="Layer 1" viewBox="0 0 24 24" width="512" height="512"><path d="M19.5,0c-2.48,0-4.5,2.02-4.5,4.5v.5H2v5h1V6h3v4h1V6H15v.5c0,2.48,2.02,4.5,4.5,4.5s4.5-2.02,4.5-4.5v-2c0-2.48-2.02-4.5-4.5-4.5Zm3.5,6.5c0,1.93-1.57,3.5-3.5,3.5s-3.5-1.57-3.5-3.5v-2c0-1.93,1.57-3.5,3.5-3.5s3.5,1.57,3.5,3.5v2Zm-2,11.5h-3v-4h-1v4H9v-.5c0-2.48-2.02-4.5-4.5-4.5S0,15.02,0,17.5v2c0,2.48,2.02,4.5,4.5,4.5s4.5-2.02,4.5-4.5v-.5h13v-5h-1v4Zm-13,1.5c0,1.93-1.57,3.5-3.5,3.5s-3.5-1.57-3.5-3.5v-2c0-1.93,1.57-3.5,3.5-3.5s3.5,1.57,3.5,3.5v2Z"/></svg>
