<?xml version="1.0" encoding="UTF-8"?>
<svg xmlns="http://www.w3.org/2000/svg" id="Layer_1" data-name="Layer 1" viewBox="0 0 24 24">
  <path d="m12,0C5.383,0,0,5.383,0,12s5.383,12,12,12,12-5.383,12-12S18.617,0,12,0Zm1,22.954v-.954c0-.552-.448-1-1-1s-1,.448-1,1v.954c-5.599-.507-10-5.226-10-10.954S5.401,1.553,11,1.046v.954c0,.552.448,1,1,1s1-.448,1-1v-.954c5.599.507,10,5.226,10,10.954s-4.401,10.447-10,10.954Zm-9.064-6.954h16.127c-.172.347-.366.681-.58,1H4.516c-.214-.319-.407-.653-.58-1Zm2.407,3h11.313c-.473.383-.985.718-1.53,1H7.874c-.545-.282-1.057-.617-1.53-1Zm11.313-14H6.344c.473-.383.985-.718,1.53-1h8.253c.545.282,1.057.617,1.53,1ZM3.056,13h17.889c-.038.339-.094.673-.168,1H3.223c-.074-.327-.13-.661-.168-1Zm17.889-2H3.056c.038-.339.094-.673.168-1h17.553c.074.327.13.661.168,1Zm-.881-3H3.936c.172-.347.366-.681.58-1h14.968c.214.319.407.653.58,1Z"/>
</svg>
