<?xml version="1.0" encoding="UTF-8"?>
<svg xmlns="http://www.w3.org/2000/svg" id="Layer_1" data-name="Layer 1" viewBox="0 0 24 24">
  <path d="m17.997,4c1.216-.913,2.003-2.366,2.003-4h-1c0,2.206-1.794,4-4,4h-6c-2.206,0-4-1.794-4-4h-1c0,1.634.788,3.087,2.003,4H0v.5c0,1.766,1.427,4.26,3.714,5.16l2.288,11.896c.03,1.353,1.138,2.444,2.499,2.444h7c1.36,0,2.469-1.091,2.499-2.444l2.288-11.896c2.287-.899,3.714-3.394,3.714-5.16v-.5h-6.003Zm-2.15,1c1.861,1.283,2.894,2.981,3.364,3.932-.23.044-.467.068-.71.068-2.481,0-4.5,2.019-4.5,4.5v5.5h-4v-5.5c0-2.481-2.019-4.5-4.5-4.5-.243,0-.48-.024-.71-.068.47-.951,1.503-2.649,3.364-3.932h7.693Zm-14.802,0h5.493c-1.421,1.264-2.248,2.664-2.666,3.525l-.166.032c-1.445-.74-2.446-2.271-2.662-3.556Zm4.456,5c.952,0,1.816.382,2.448,1.001-.528.027-.948.464-.948.999,0,.552.448,1,1,1,.365,0,.683-.195.858-.487.092.313.142.644.142.987v5.5h-.5c-.717,0-1.364.304-1.82.788l-1.893-9.841c.231.034.469.053.712.053Zm10,13h-7c-.827,0-1.5-.673-1.5-1.5s.673-1.5,1.5-1.5h7c.827,0,1.5.673,1.5,1.5s-.673,1.5-1.5,1.5Zm1.82-3.212c-.456-.485-1.103-.788-1.82-.788h-.5v-5.5c0-.342.05-.674.142-.987.175.291.494.487.858.487.552,0,1-.448,1-1,0-.535-.42-.972-.948-.999.632-.619,1.496-1.001,2.448-1.001.244,0,.481-.018.712-.053l-1.893,9.841Zm2.974-11.232l-.166-.032c-.417-.861-1.245-2.26-2.666-3.525h5.493c-.216,1.286-1.217,2.817-2.662,3.556Z"/>
</svg>
