<?xml version="1.0" encoding="UTF-8"?>
<svg xmlns="http://www.w3.org/2000/svg" id="Layer_1" data-name="Layer 1" viewBox="0 0 24 24" width="512" height="512"><path d="m8,12c0-5.152,4.16-8.968,8.024-10.332l1.183-.417-1.145-.511c-1.116-.498-2.445-.74-4.062-.74C5.383,0,0,5.383,0,12s5.383,12,12,12c1.613,0,2.823-.221,4.046-.738l1.188-.502-1.215-.43c-3.862-1.366-8.019-5.182-8.019-10.331Zm4,11c-6.065,0-11-4.935-11-11S5.935,1,12,1c.926,0,1.724.08,2.435.246-3.783,1.801-7.435,5.678-7.435,10.754s3.647,8.948,7.426,10.75c-.717.173-1.485.25-2.426.25Zm12-13h-3.478l-1.069-3.636h-.882l-1.07,3.636h-3.5v.839l2.566,1.68-.984,3.351.656.494,2.776-1.948,2.818,1.948.682-.476-1.059-3.319,2.545-1.736v-.833Zm-3.725,2.163l.782,2.449-2.048-1.416-2.016,1.415.532-1.811.209-.712-1.662-1.088h2.176l.763-2.593.762,2.593h2.207l-1.705,1.163Z"/></svg>
