<?xml version="1.0" encoding="UTF-8"?>
<svg xmlns="http://www.w3.org/2000/svg" id="Layer_1" data-name="Layer 1" viewBox="0 0 24 24">
  <path d="m4.5,5c1.378,0,2.5-1.122,2.5-2.5S5.878,0,4.5,0s-2.5,1.122-2.5,2.5,1.122,2.5,2.5,2.5Zm0-4c.827,0,1.5.673,1.5,1.5s-.673,1.5-1.5,1.5-1.5-.673-1.5-1.5.673-1.5,1.5-1.5Zm2,5H2.5c-1.378,0-2.5,1.122-2.5,2.5v8.5h2v7h1v-7h3v7h1v-7h2v-8.5c0-1.378-1.122-2.5-2.5-2.5Zm1.5,10H1v-7.5c0-.827.673-1.5,1.5-1.5h4c.827,0,1.5.673,1.5,1.5v7.5ZM13,2.5c-1.103,0-2,.897-2,2s.897,2,2,2,2-.897,2-2-.897-2-2-2Zm0,3c-.551,0-1-.449-1-1s.449-1,1-1,1,.449,1,1-.448,1-1,1Zm0,4c-1.103,0-2,.897-2,2s.897,2,2,2,2-.897,2-2-.897-2-2-2Zm0,3c-.551,0-1-.449-1-1s.449-1,1-1,1,.449,1,1-.448,1-1,1Zm0,4c-1.103,0-2,.897-2,2s.897,2,2,2,2-.897,2-2-.897-2-2-2Zm0,3c-.551,0-1-.449-1-1s.449-1,1-1,1,.449,1,1-.448,1-1,1Zm11-15.5v1h-7v-1h7Zm-7,7h7v1h-7v-1Zm0,7h7v1h-7v-1Z"/>
</svg>
