<?xml version="1.0" encoding="UTF-8"?>
<svg xmlns="http://www.w3.org/2000/svg" id="Layer_1" data-name="Layer 1" viewBox="0 0 24 24">
  <path d="m15.756,9.069c-.359-.67-1.027-1.069-1.788-1.069h-4.832L11.091,0h-2.477L.336,12.85c-.416.626-.45,1.398-.092,2.065.359.669,1.053,1.085,1.81,1.085h4.639l-2.115,8h2.484l8.597-12.85c.42-.634.457-1.411.097-2.081Zm-.929,1.526l-8.299,12.404h-.651l2.115-8H2.054c-.394,0-.741-.209-.929-.558-.181-.337-.164-.726.048-1.046L9.159,1h.659l-1.955,8h6.105c.386,0,.725.203.907.542.182.34.164.734-.048,1.054Zm7.838,13.404h1.046l-3.143-10.072c-.298-.556-.894-.912-1.556-.928h-.026c-.601.017-1.184.362-1.485.881l-3.208,10.119h1.047l.948-3h5.443l.934,3Zm-6.061-4l1.788-5.657c.133-.197.371-.332.609-.343.297.012.558.163.648.312l1.771,5.688h-4.816Z"/>
</svg>
