<?xml version="1.0" encoding="UTF-8"?>
<svg xmlns="http://www.w3.org/2000/svg" id="Layer_1" data-name="Layer 1" viewBox="0 0 24 24" width="512" height="512"><path d="m21.292,2.708C17.105-1.478,9.533-.713,4.411,4.411-.713,9.535-1.477,17.107,2.708,21.292c1.816,1.816,4.271,2.7,6.886,2.7,3.411,0,7.096-1.503,9.995-4.403,5.124-5.124,5.888-12.696,1.703-16.881ZM5.118,5.118C7.826,2.41,11.254,1.002,14.403,1.002c2.254,0,4.366.723,5.967,2.207-.141.908-1.25,6.041-8.52,8.313-6.698,2.093-8.552,6.431-9.055,8.364C-.276,15.985.662,9.574,5.118,5.118Zm13.764,13.764c-4.647,4.646-11.416,5.468-15.252,1.909.14-.907,1.25-6.041,8.52-8.313,6.698-2.093,8.552-6.431,9.055-8.364,3.072,3.902,2.134,10.312-2.322,14.769Z"/></svg>
