<?xml version="1.0" encoding="UTF-8"?>
<svg xmlns="http://www.w3.org/2000/svg" id="Layer_1" data-name="Layer 1" viewBox="0 0 24 24" width="512" height="512"><path d="M14.041,13.641l-5.448-4.264c-.644-.504-1.542-.504-2.185,0L.959,13.641c-.61,.477-.959,1.194-.959,1.969v8.391H15V15.609c0-.774-.35-1.492-.959-1.969Zm-.041,9.359H1v-7.391c0-.465,.21-.896,.576-1.182l5.448-4.264c.28-.219,.672-.219,.952,0l5.448,4.264c.366,.286,.576,.717,.576,1.182v7.391ZM23,0V2h-3V0h-1V2h-3V0h-1V2h-3V0h-1V5c0,1.103,.897,2,2,2v3.217l1,.783V7h7V23h-4v1h5V7c1.103,0,2-.897,2-2V0h-1Zm-1,6H13c-.551,0-1-.448-1-1V3h11v2c0,.552-.449,1-1,1ZM5,20h5v-5H5v5Zm1-4h3v3h-3v-3Z"/></svg>
