<?xml version="1.0" encoding="UTF-8"?>
<svg xmlns="http://www.w3.org/2000/svg" id="Layer_1" data-name="Layer 1" viewBox="0 0 24 24" width="512" height="512"><path d="M24,12.5c0-1.378-1.122-2.5-2.5-2.5h-.739L15.93,3.07c-.467-.67-1.234-1.07-2.051-1.07H5.881c-1.032,0-1.972,.648-2.338,1.614L.904,10.574h.002c-.553,.46-.907,1.152-.907,1.926v5.5H2v1c0,1.654,1.346,3,3,3s3-1.346,3-3v-1h8v1c0,1.654,1.346,3,3,3s3-1.346,3-3v-1h2v-5.5ZM7,19c0,1.103-.897,2-2,2s-2-.897-2-2v-1H7v1Zm14,0c0,1.103-.897,2-2,2s-2-.897-2-2v-1h4v1Zm2-2H1v-4.5c0-.827,.673-1.5,1.5-1.5h3.5v-1H2.5c-.107,0-.212,.008-.316,.021L4.479,3.968c.219-.579,.783-.968,1.402-.968h7.999c.49,0,.95,.24,1.23,.643l4.432,6.357h-3.542v1h5.5c.827,0,1.5,.673,1.5,1.5v4.5Zm-9.156-6.333c.225,.419,.204,.923-.055,1.313l-1.901,4.053-.905-.426,1.937-4.117c.119-.188,.062-.315,.042-.351-.022-.042-.089-.14-.218-.14h-3.475c-.414,0-.788-.186-1.028-.509-.234-.315-.301-.714-.186-1.096l2.097-4.369,.901,.434-2.069,4.297c-.002,.026,.029,.096,.06,.138,.049,.067,.131,.105,.225,.105h3.475c.458,0,.879,.255,1.1,.667Z"/></svg>
