<?xml version="1.0" encoding="UTF-8"?>
<svg xmlns="http://www.w3.org/2000/svg" id="Layer_1" data-name="Layer 1" viewBox="0 0 24 24" width="512" height="512"><path d="M23.051,21.581c-.288,.602-.794,1.056-1.424,1.277-.631,.221-1.308,.185-1.912-.105l-2.715-1.29v-6.181l-2.8-2.574c-.107-.081-.177-.198-.195-.331-.019-.134,.017-.266,.105-.382l2.437-3.325,6.684,4.253,.537-.844L12.646,5h-3.938l-2.854-2.854-.707,.707,3.146,3.146h4.035l-2.811,3.656c-.334,.435-.518,.976-.518,1.523v3.011l-3.557,1.778-2.994-1.423c-1.25-.58-1.797-2.069-1.217-3.32l-.908-.42c-.811,1.75-.046,3.835,1.7,4.645l17.26,8.203c.479,.23,.994,.346,1.511,.346,.392,0,.784-.066,1.164-.2,.882-.311,1.59-.945,1.994-1.788l-.902-.433Zm-13.051-6.771v-3.629c0-.329,.11-.653,.311-.914l2.873-3.738,2.518,1.603-2.392,3.263c-.246,.321-.352,.718-.297,1.119,.056,.4,.264,.753,.548,.963l2.438,2.245v5.268l-9.41-4.473,3.41-1.705Zm7.5-9.809c1.379,0,2.5-1.122,2.5-2.5s-1.121-2.5-2.5-2.5-2.5,1.122-2.5,2.5,1.121,2.5,2.5,2.5Zm0-4c.827,0,1.5,.673,1.5,1.5s-.673,1.5-1.5,1.5-1.5-.673-1.5-1.5,.673-1.5,1.5-1.5Z"/></svg>
