<?xml version="1.0" encoding="UTF-8"?>
<svg xmlns="http://www.w3.org/2000/svg" id="Layer_1" data-name="Layer 1" viewBox="0 0 24 24" width="512" height="512"><path d="m18,3.051V0h-1v3H7V0h-1v3.051c-1.14.232-2,1.242-2,2.449v13c0,1.208.86,2.217,2,2.449v3.051h1v-3h10v3h1v-3.051c1.14-.232,2-1.242,2-2.449V5.5c0-1.208-.86-2.217-2-2.449Zm1,15.449c0,.827-.673,1.5-1.5,1.5H6.5c-.827,0-1.5-.673-1.5-1.5V5.5c0-.827.673-1.5,1.5-1.5h11c.827,0,1.5.673,1.5,1.5v13Zm-5-10c-.836,0-1.552.37-2,.963-.448-.593-1.164-.963-2-.963-1.379,0-2.5,1.193-2.5,2.66,0,2.452,3.783,5.151,4.215,5.451l.285.197.285-.197c.432-.3,4.215-2.999,4.215-5.451,0-1.467-1.121-2.66-2.5-2.66Zm-2,7.084c-1.19-.887-3.5-2.918-3.5-4.424,0-.915.673-1.66,1.5-1.66.869,0,1.5.631,1.5,1.5h1c0-.869.631-1.5,1.5-1.5.827,0,1.5.745,1.5,1.66,0,1.506-2.31,3.537-3.5,4.424Z"/></svg>
