<?xml version="1.0" encoding="UTF-8"?>
<svg xmlns="http://www.w3.org/2000/svg" id="Layer_1" data-name="Layer 1" viewBox="0 0 24 24" width="512" height="512"><path d="m14.955,19l.5,1h-6.955c-2.546,0-4.743-1.728-5.344-4.201L1.017,7h1.029l2.081,8.562c.492,2.024,2.29,3.438,4.373,3.438h6.455Zm5.354,4l-3.5-7h-8.315c-.697,0-1.297-.474-1.459-1.151l-.681-2.849h7.646v-1h-7.885l-.956-4h-1.028l1.931,8.081c.27,1.13,1.27,1.919,2.432,1.919h7.697l3.5,7h3.309v-1h-2.691ZM2.017,2.5c0-1.379,1.122-2.5,2.5-2.5s2.5,1.121,2.5,2.5-1.122,2.5-2.5,2.5-2.5-1.121-2.5-2.5Zm1,0c0,.827.673,1.5,1.5,1.5s1.5-.673,1.5-1.5-.673-1.5-1.5-1.5-1.5.673-1.5,1.5Z"/></svg>
