<?xml version="1.0" encoding="UTF-8"?>
<svg xmlns="http://www.w3.org/2000/svg" id="Layer_1" data-name="Layer 1" viewBox="0 0 24 24" width="512" height="512"><path d="M24,8.5c0-1.379-1.122-2.5-2.5-2.5h-2.5V2.5c0-1.379-1.122-2.5-2.5-2.5H5.5c-1.378,0-2.5,1.121-2.5,2.5V11h-.5c-1.378,0-2.5,1.121-2.5,2.5v10.5H16v-5h8V8.5ZM4,2.5c0-.827,.673-1.5,1.5-1.5h11c.827,0,1.5,.673,1.5,1.5v3.5h-7.5c-1.378,0-2.5,1.121-2.5,2.5v2.5H4V2.5ZM13.5,12c.361,0,.693,.128,.952,.342l-5.103,5.102c-.717,.717-1.966,.717-2.682,0L1.557,12.334c.258-.209,.586-.334,.943-.334H13.5Zm1.5,11H1V13.5c0-.096,.009-.19,.027-.282l4.934,4.933c.547,.547,1.274,.849,2.048,.849s1.501-.301,2.048-.849l4.919-4.919c.016,.087,.024,.176,.024,.267v9.5Zm8-5h-7v-4.5c0-1.379-1.122-2.5-2.5-2.5h-4.5v-2.5c0-.827,.673-1.5,1.5-1.5h11c.827,0,1.5,.673,1.5,1.5v9.5Zm-4-9h2v1h-2v-1Z"/></svg>
