<?xml version="1.0" encoding="UTF-8"?>
<svg xmlns="http://www.w3.org/2000/svg" id="Layer_1" data-name="Layer 1" viewBox="0 0 24 24">
  <path d="m23.97.473l-.026-.48-.48.008c-7.777.126-10.511,5.889-11.463,9.535C11.048,5.889,8.314.126.537,0L.057-.008l-.026.48c-.224,4.061.783,7.221,2.992,9.395,2.905,2.858,6.989,3.135,8.463,3.135.005,0,.009,0,.015,0v10.998h1v-10.998c.005,0,.009,0,.015,0,1.474,0,5.558-.277,8.463-3.135,2.209-2.173,3.216-5.334,2.992-9.395ZM3.724,9.154C1.815,7.277.902,4.541,1.008,1.016c8.799.438,10.229,8.789,10.453,10.983-1.352-.009-5.13-.28-7.737-2.845Zm16.558-.006c-2.6,2.563-6.388,2.838-7.742,2.85.225-2.195,1.655-10.544,10.453-10.982.104,3.521-.806,6.255-2.711,8.132Z"/>
</svg>
