<?xml version="1.0" encoding="UTF-8"?>
<svg xmlns="http://www.w3.org/2000/svg" id="Layer_1" data-name="Layer 1" viewBox="0 0 24 24">
  <path d="m0,13.735v1.029l11.28-2.148-3.256,10.233-.023,1.151h8v-1l-3.366-10.643,11.366-2.165v-1.029L0,13.735Zm9.024,9.265l2.976-9.351,2.976,9.351h-5.951ZM2.833,9h2.356l.41,1.995.996.005-1.389-6.882c-.093-.459-.359-.834-.711-1.003-.159-.077-.327-.115-.494-.115-.194,0-.386.052-.561.155-.324.191-.557.534-.637.932l-1.387,6.913,1.013.005.404-2.005Zm.95-4.716c.024-.118.088-.223.163-.267.029-.017.048-.017.055-.017.017,0,.037.005.061.017.037.018.126.115.164.299l.758,3.684h-1.949l.748-3.716Zm19.218,1.216c0-.861-.438-1.622-1.102-2.071.371-.363.602-.87.602-1.429,0-1.103-.897-2-2-2h-2.5v8h2.5c1.379,0,2.5-1.122,2.5-2.5Zm-4-4.5h1.5c.552,0,1,.449,1,1s-.448,1-1,1h-1.5V1Zm0,3h1.5c.827,0,1.5.673,1.5,1.5s-.673,1.5-1.5,1.5h-1.5v-3Z"/>
</svg>
