<?xml version="1.0" encoding="UTF-8"?>
<svg xmlns="http://www.w3.org/2000/svg" id="Layer_1" data-name="Layer 1" viewBox="0 0 24 24" width="512" height="512"><path d="M13.19,21h-1.83L16.73,3.91c1.26,.7,2.3,1.78,2.98,3.13l.9-.45c-.8-1.6-2.05-2.86-3.57-3.66l.92-2.94h-1.07l-.79,2.52c-.91-.34-1.89-.52-2.91-.52h-.3l.63-2h-1.07l-.63,2h-.55C6.71,2,3,5.71,3,10.27v3.46c0,2.61,1.22,4.94,3.11,6.46l-1.2,3.81h1.07l1-3.2c.91,.55,1.93,.94,3.03,1.1l-.66,2.1h1.07l.63-2c.07,0,.15,0,.22,0h1.92c3.11,0,5.93-1.72,7.35-4.48l-.89-.46c-1.26,2.43-3.73,3.94-6.46,3.94ZM4,13.73v-3.46c0-4.01,3.26-7.27,7.27-7.27h.24L6.44,19.15c-1.49-1.33-2.44-3.27-2.44-5.43Zm3.3,6.09L12.58,3h.61c.91,0,1.79,.17,2.61,.48l-5.48,17.46c-1.1-.15-2.13-.54-3.02-1.12Z"/></svg>
