<?xml version="1.0" encoding="UTF-8"?>
<svg xmlns="http://www.w3.org/2000/svg" id="Layer_1" data-name="Layer 1" viewBox="0 0 24 24">
  <path d="m20.667,8.944c-1.62-.573-2.667-2.178-2.667-4.089V0h-1v3c0,2.757-2.243,5-5,5s-5-2.243-5-5V0h-1v4.855c0,1.911-1.047,3.517-2.667,4.089l-.333.118v14.938h18v-14.938l-.333-.118Zm-13.798-2.836c1.053,1.732,2.959,2.892,5.131,2.892s4.077-1.159,5.131-2.892c.203.956.639,1.81,1.256,2.485l-14.386,11.847v-10.686c1.475-.648,2.518-1.995,2.869-3.647Zm-2.869,15.627l15.142-12.47c.266.191.553.355.858.489v1.51l-14.25,11.735h-1.75v-1.265Zm3.322,1.265l12.678-10.441v10.441H7.322Z"/>
</svg>
