<?xml version="1.0" encoding="UTF-8"?>
<svg xmlns="http://www.w3.org/2000/svg" id="Layer_1" data-name="Layer 1" viewBox="0 0 24 24" width="512" height="512"><path d="M21.5,2H2.5C1.12,2,0,3.12,0,4.5v15c0,1.38,1.12,2.5,2.5,2.5H21.5c1.38,0,2.5-1.12,2.5-2.5V4.5c0-1.38-1.12-2.5-2.5-2.5Zm1.5,17.5c0,.83-.67,1.5-1.5,1.5h-3.5v-2c0-1.65-1.35-3-3-3h-6c-1.65,0-3,1.35-3,3v2H2.5c-.83,0-1.5-.67-1.5-1.5V4.5c0-.83,.67-1.5,1.5-1.5H21.5c.83,0,1.5,.67,1.5,1.5v15Zm-7-9.5c0,2.21-1.79,4-4,4s-4-1.79-4-4,1.79-4,4-4,4,1.79,4,4Z"/></svg>
