<?xml version="1.0" encoding="UTF-8"?>
<svg xmlns="http://www.w3.org/2000/svg" id="Layer_1" data-name="Layer 1" viewBox="0 0 24 24">
  <path d="m24,23.293l-6.596-6.596c1.607-1.775,2.596-4.12,2.596-6.697C20,4.486,15.514,0,10,0S0,4.486,0,10s4.486,10,10,10c2.577,0,4.922-.989,6.697-2.596l6.596,6.596.707-.707Zm-14-4.293c-4.962,0-9-4.037-9-9S5.038,1,10,1s9,4.037,9,9-4.038,9-9,9Zm6.996-5h-4.496v-1h2.754L10,3.992l-5.254,9.008h2.754v1H3.004L10,2.008l6.996,11.992Zm-6.496-3h-1v-4h1v4Zm.5,2c0,.552-.448,1-1,1s-1-.448-1-1,.448-1,1-1,1,.448,1,1Z"/>
</svg>
