<?xml version="1.0" encoding="UTF-8"?>
<svg xmlns="http://www.w3.org/2000/svg" id="Layer_1" data-name="Layer 1" viewBox="0 0 24 24" width="512" height="512"><path d="M11.5,6c-1.38,0-2.5,1.12-2.5,2.5,0,1.26,.79,2.87,1.97,4.07-.88,.83-2.04,1.43-3.47,1.43-.98,0-1.92-.5-2.77-1.29,2.09-2.28,3.27-5.85,3.27-8.71C8,1.79,6.21,0,4,0S0,1.79,0,4c0,2.72,1.32,6.35,3.32,8.68-.95,.82-2.07,1.32-3.32,1.32v1c1.53,0,2.88-.61,4.01-1.59,1.04,.98,2.23,1.59,3.49,1.59,4.21,0,6.5-4.29,6.5-6.5,0-1.38-1.12-2.5-2.5-2.5ZM1,4c0-1.65,1.35-3,3-3s3,1.35,3,3c0,2.57-1.09,5.88-2.96,7.97-1.8-2.15-3.04-5.56-3.04-7.97Zm10.64,7.83c-1.08-1.11-1.64-2.47-1.64-3.33s.67-1.5,1.5-1.5,1.5,.67,1.5,1.5-.46,2.17-1.36,3.33ZM0,17H11v1H0v-1Zm22-2v-1.5c0-1.93-1.57-3.5-3.5-3.5s-3.5,1.57-3.5,3.5v1.5h-2v6.5c0,1.38,1.12,2.5,2.5,2.5h6c1.38,0,2.5-1.12,2.5-2.5v-6.5h-2Zm-6-1.5c0-1.38,1.12-2.5,2.5-2.5s2.5,1.12,2.5,2.5v1.5h-5v-1.5Zm7,8c0,.83-.67,1.5-1.5,1.5h-6c-.83,0-1.5-.67-1.5-1.5v-5.5h9v5.5Zm-4-1h-1v-2h1v2Zm-2.5-12.12c-.03-1.12-.43-2.2-1.14-3.06l.77-.64c.8,.97,1.27,2.17,1.36,3.41-.34,.06-.67,.16-.99,.28Z"/></svg>
