<?xml version="1.0" encoding="UTF-8"?>
<svg xmlns="http://www.w3.org/2000/svg" id="Layer_1" data-name="Layer 1" viewBox="0 0 24 24">
  <path d="m23.665,0h-8.476l-2.971,6.003c-.073-.002-.146-.003-.219-.003-.076,0-.152,0-.228.003L8.811,0H.323l4.638,9.399c-1.227,1.538-1.961,3.486-1.961,5.601,0,4.963,4.037,9,9,9s9-4.037,9-9c0-2.124-.74-4.079-1.975-5.62L23.665,0Zm-7.854,1h6.243l-3.751,7.582c-1.335-1.311-3.074-2.209-5.012-2.489l2.52-5.093ZM1.933,1h6.257l2.513,5.094c-1.943.282-3.686,1.186-5.021,2.504L1.933,1Zm18.067,14c0,4.411-3.589,8-8,8s-8-3.589-8-8S7.589,7,12,7s8,3.589,8,8Zm-4.511,2.25c0,1.517-1.233,2.75-2.75,2.75h-3.739v-1h3.739c.965,0,1.75-.785,1.75-1.75s-.785-1.75-1.75-1.75h-1.739v-1h1.25c.965,0,1.75-.785,1.75-1.75s-.785-1.75-1.75-1.75h-3.25v-1h3.25c1.517,0,2.75,1.233,2.75,2.75,0,.831-.371,1.576-.954,2.08.859.466,1.444,1.375,1.444,2.42Z"/>
</svg>
