<?xml version="1.0" encoding="UTF-8"?>
<svg xmlns="http://www.w3.org/2000/svg" id="Layer_1" data-name="Layer 1" viewBox="0 0 24 24">
  <path d="m9,12c3.309,0,6-2.691,6-6S12.309,0,9,0,3,2.691,3,6s2.691,6,6,6Zm0-11c2.757,0,5,2.243,5,5s-2.243,5-5,5-5-2.243-5-5S6.243,1,9,1Zm14.636,20.442l-3.636-4.355v-4.087h1v-1h-5v1h1v4.087l-3.636,4.355c-.393.47-.476,1.142-.21,1.71.245.522.737.848,1.284.848h8.123c.547,0,1.039-.325,1.284-.848.266-.568.183-1.24-.21-1.71Zm-.696,1.286c-.038.082-.151.271-.378.271h-8.123c-.227,0-.34-.189-.378-.271-.077-.165-.105-.434.071-.646l3.868-4.633v-4.45h1v4.45l3.868,4.633c.177.212.148.48.071.646Zm-13.981-2.469l-4.57-5.248c-1.877.061-3.388,1.597-3.388,3.489v5.5H0v-5.5c0-2.481,2.019-4.5,4.5-4.5h.333l4.129,4.74,4.164-4.74h.227c.585,0,1.136.117,1.647.311v1.078c-.432-.221-.911-.363-1.424-.385l-4.618,5.256Z"/>
</svg>
