<?xml version="1.0" encoding="UTF-8"?>
<svg xmlns="http://www.w3.org/2000/svg" id="Layer_1" data-name="Layer 1" viewBox="0 0 24 24" width="512" height="512"><path d="M24,12.5c0-1.379-1.121-2.5-2.5-2.5h-1.708c-.655-2.306-2.78-4-5.292-4s-4.637,1.694-5.292,4H2.5c-1.378,0-2.5,1.121-2.5,2.5v9.5H3v2h1v-2H20v2h1v-2h3V12.5ZM14.5,7c2.481,0,4.5,2.019,4.5,4.5s-2.019,4.5-4.5,4.5-4.5-2.019-4.5-4.5,2.019-4.5,4.5-4.5Zm8.5,14H1V12.5c0-.827,.673-1.5,1.5-1.5h6.523c-.015,.165-.023,.331-.023,.5,0,3.032,2.467,5.5,5.5,5.5s5.5-2.468,5.5-5.5c0-.169-.008-.335-.023-.5h1.523c.827,0,1.5,.673,1.5,1.5v8.5ZM5,14c0,.552-.448,1-1,1s-1-.448-1-1,.448-1,1-1,1,.448,1,1ZM15,4h-1V0h1V4Zm3.933,1.322l-.865-.5,2-3.465,.865,.5-2,3.465Zm-8.866,0l-2-3.465,.866-.5,2,3.465-.866,.5Z"/></svg>
