<?xml version="1.0" encoding="UTF-8"?>
<svg xmlns="http://www.w3.org/2000/svg" id="Layer_1" data-name="Layer 1" viewBox="0 0 24 24" width="512" height="512"><path d="m.226,19.545l-.226.221v.541l.227.148c.16.104,3.954,2.545,7.737,2.545h16.036v-6H7.964c-3.807,0-7.579,2.441-7.738,2.545Zm1.195.454c1.181-.659,3.8-1.942,6.374-1.997l3.998,3.998h-3.829c-2.612,0-5.331-1.328-6.542-2.001Zm7.786-1.999h5.086l4,4h-5.086l-4-4Zm13.793,4h-3.293l-4-4h7.293v4ZM14,5.856v-2.856h1v2.856c0,1.222.651,2.372,1.699,3.001l1.602.961c1.048.628,1.699,1.778,1.699,3.001v2.18h-1v-2.18c0-.873-.465-1.694-1.214-2.144l-1.602-.961c-1.348-.809-2.185-2.288-2.185-3.859Zm10,5.408v1.735h-1v-1.735c0-1.222-.651-2.372-1.699-3.001l-2.087-1.252c-.749-.449-1.214-1.271-1.214-2.144V1h1v3.868c0,.524.279,1.017.729,1.286l2.087,1.252c1.348.809,2.185,2.287,2.185,3.858Z"/></svg>
