<?xml version="1.0" encoding="UTF-8"?>
<svg xmlns="http://www.w3.org/2000/svg" id="Layer_1" data-name="Layer 1" viewBox="0 0 24 24">
  <path d="m21.5,13h-2.5v8h2.5c1.379,0,2.5-1.127,2.5-2.512v-2.976c0-1.385-1.121-2.512-2.5-2.512Zm1.5,5.488c0,.834-.673,1.512-1.5,1.512h-1.5v-6h1.5c.827,0,1.5.678,1.5,1.512v2.976ZM6,13v8h1v-3h1c1.378,0,2.5-1.122,2.5-2.5s-1.122-2.5-2.5-2.5h-2Zm3.5,2.5c0,.827-.673,1.5-1.5,1.5h-1v-3h1c.827,0,1.5.673,1.5,1.5Zm7.5,5.5v-8h1v8h-1ZM1,2.5c0-.827.673-1.5,1.5-1.5h9.5v7h7v3h1v-3.707L12.707,0H2.5C1.122,0,0,1.122,0,2.5v21.5h20v-1H1V2.5Zm12-.793l5.293,5.293h-5.293V1.707Zm.405,11.293c-.703,0-1.118.689-1.198,1.087l-1.387,6.887,1.013.005.4-1.979h2.36l.41,1.995.996.005-1.389-6.882c-.093-.459-.502-1.118-1.205-1.118Zm-.969,5l.751-3.716c.024-.118.094-.284.218-.284s.188.132.225.316l.758,3.684h-1.952Z"/>
</svg>
