<?xml version="1.0" encoding="UTF-8"?>
<svg xmlns="http://www.w3.org/2000/svg" id="Layer_1" data-name="Layer 1" viewBox="0 0 24 24">
  <path d="m17,17.644v1.485c-1.805,1.773-4.276,2.871-7,2.871C4.486,22,0,17.514,0,12S4.486,2,10,2c1.442,0,2.81.313,4.05.865-.127.314-.242.629-.346.942-1.131-.514-2.383-.807-3.704-.807C5.038,3,1,7.038,1,12s4.038,9,9,9c2.826,0,5.349-1.312,7-3.356Zm3-5.695v12.051h-1v-12.051c-2.244-.252-4-2.139-4-4.449,0-2.226,1.716-7.5,4.422-7.5,2.754,0,4.578,5.337,4.578,7.5,0,2.31-1.756,4.197-4,4.449Zm3-4.449c0-2.043-1.796-6.5-3.578-6.5-1.768,0-3.422,4.469-3.422,6.5,0,1.93,1.57,3.5,3.5,3.5s3.5-1.57,3.5-3.5Zm-13.5,4.293l-3.354,3.354.707.707,3.646-3.646v-6.207h-1v5.793Z"/>
</svg>
