<?xml version="1.0" encoding="UTF-8"?>
<svg xmlns="http://www.w3.org/2000/svg" id="Layer_1" data-name="Layer 1" viewBox="0 0 24 24" width="512" height="512"><path d="m24,10.5c0-3.033-2.467-5.5-5.5-5.5h-2.5v7h-1.273L4.227,0h-1.227v5.5c0,.827-.673,1.5-1.5,1.5H0v1h1.5c1.378,0,2.5-1.122,2.5-2.5V1.259l9.398,10.741H2.5c-1.378,0-2.5,1.122-2.5,2.5v5.5h2.176c-.116.32-.176.656-.176,1,0,1.654,1.346,3,3,3s3-1.346,3-3c0-.344-.06-.68-.176-1h8.352c-.116.32-.176.656-.176,1,0,1.654,1.346,3,3,3s3-1.346,3-3c0-.344-.06-.68-.176-1h2.176v-9.5ZM7,21c0,1.103-.897,2-2,2s-2-.897-2-2c0-.351.095-.693.277-1h3.446c.182.307.277.649.277,1Zm9-2H1v-4.5c0-.827.673-1.5,1.5-1.5h13.5v6Zm5,2c0,1.103-.897,2-2,2s-2-.897-2-2c0-.351.095-.693.277-1h3.446c.182.307.277.649.277,1Zm2-2h-6v-6h6v6Zm0-7h-6v-6h1.5c2.481,0,4.5,2.019,4.5,4.5v1.5Z"/></svg>
