<?xml version="1.0" encoding="UTF-8"?>
<svg xmlns="http://www.w3.org/2000/svg" id="Layer_1" data-name="Layer 1" width="512" height="512" viewBox="0 0 24 24"><path d="M16,18v-2c0-2.206-1.794-4-4-4s-4,1.794-4,4v2h-1v-2c0-2.757,2.243-5,5-5s5,2.243,5,5v2h-1ZM12.909,.317c-.535-.407-1.282-.407-1.817,0L0,8.761v9.239H1V9.256L11.697,1.113c.179-.136,.428-.136,.606,0l10.697,8.144v8.744h1V8.761L12.909,.317Zm9.591,22.683c-1.654,0-3-1.346-3-3h-1c0,1.654-1.346,3-3,3s-3-1.346-3-3h-1c0,1.654-1.346,3-3,3s-3-1.346-3-3h-1c0,1.654-1.346,3-3,3-.381,0-.752-.07-1.103-.209l-.368,.93c.468,.186,.963,.279,1.471,.279,1.504,0,2.817-.835,3.5-2.065,.683,1.231,1.996,2.065,3.5,2.065s2.817-.835,3.5-2.065c.683,1.231,1.996,2.065,3.5,2.065s2.817-.835,3.5-2.065c.683,1.231,1.996,2.065,3.5,2.065,.511,0,1.009-.095,1.48-.283l-.37-.929c-.353,.141-.727,.212-1.11,.212Z"/></svg>
