<?xml version="1.0" encoding="UTF-8"?>
<svg xmlns="http://www.w3.org/2000/svg" id="Layer_1" data-name="Layer 1" width="512" height="512" viewBox="0 0 24 24"><path d="M24,19.232c0-1.207-.206-2.395-.612-3.531l-1.443-4.042c-.354-.993-1.3-1.659-2.354-1.659h-6.182c-1.054,0-1.999,.667-2.354,1.659l-1.443,4.041c-.406,1.137-.612,2.325-.612,3.532v2.768h2v2h3v-2h5v2h3v-2h2v-2.768Zm-12.003-7.237c.213-.595,.78-.995,1.412-.995h6.182c.632,0,1.199,.4,1.412,.995l1.43,4.005H10.567l1.43-4.005Zm1.003,11.005h-1v-1h1v1Zm8,0h-1v-1h1v1Zm2-2H10v-1.768c0-.755,.089-1.502,.266-2.232h2.734v1.5c0,.276,.224,.5,.5,.5s.5-.224,.5-.5v-1.5h5v1.5c0,.276,.224,.5,.5,.5s.5-.224,.5-.5v-1.5h2.734c.177,.729,.266,1.477,.266,2.232v1.768ZM13.5,1H2.5c-.827,0-1.5,.673-1.5,1.5V24H0V2.5C0,1.122,1.121,0,2.5,0H13.5c1.379,0,2.5,1.122,2.5,2.5v5.5h-1V2.5c0-.827-.673-1.5-1.5-1.5ZM4,7h3v-3h-3v3Zm1-2h1v1h-1v-1Zm-1,7h3v-3h-3v3Zm1-2h1v1h-1v-1Zm-1,7h3v-3h-3v3Zm1-2h1v1h-1v-1Zm-1,7h3v-3h-3v3Zm1-2h1v1h-1v-1ZM12,7v-3h-3v3h3Zm-2-2h1v1h-1v-1Z"/></svg>
