<?xml version="1.0" encoding="UTF-8"?>
<svg xmlns="http://www.w3.org/2000/svg" id="Layer_1" data-name="Layer 1" viewBox="0 0 24 24" width="512" height="512"><path d="M18.5,20c3.033,0,5.5-2.691,5.5-6s-2.467-6-5.5-6c-.427,0-.835,.059-1.226,.162,.412-.735,.726-1.622,.726-2.662,0-3.032-2.692-5.5-6-5.5S6,2.468,6,5.5c0,1.04,.313,1.927,.726,2.662-.391-.103-.799-.162-1.226-.162-3.033,0-5.5,2.691-5.5,6s2.467,6,5.5,6,4.922-2.369,5.998-4.119c-.024,4.722-1.536,7.119-4.498,7.119h-2v1h14v-1h-2c-2.962,0-4.474-2.397-4.498-7.119,1.076,1.749,2.97,4.119,5.998,4.119Zm-13-1c-2.481,0-4.5-2.243-4.5-5s2.019-5,4.5-5c2,0,2.995,1.245,2.995,1.245,0,0,1.945,2.06,2.917,3.769-.206,.704-2.731,4.986-5.911,4.986Zm8.414,4h-3.828c.794-.627,1.479-1.603,1.914-3.101,.435,1.498,1.12,2.474,1.914,3.101Zm-1.914-9.969c-.591-.984-1.629-2.598-3.076-3.733-.701-.61-1.924-1.938-1.924-3.799,0-2.481,2.243-4.5,5-4.5s5,2.019,5,4.5c0,1.861-1.223,3.188-1.924,3.799-1.447,1.134-2.484,2.748-3.076,3.733Zm3.503-2.789s.997-1.242,2.997-1.242c2.481,0,4.5,2.243,4.5,5s-2.021,4.879-4.5,5c-3.09,.151-5.035-3.525-5.911-4.986,0,0,1.437-2.424,2.915-3.772Z"/></svg>
