<?xml version="1.0" encoding="UTF-8"?>
<svg xmlns="http://www.w3.org/2000/svg" id="Layer_1" data-name="Layer 1" viewBox="0 0 24 24">
  <path d="m11.714,15.202l.286.199.286-.199c.192-.135,4.714-3.323,4.714-6.165,0-1.652-1.233-2.996-2.75-2.996-.938,0-1.768.493-2.274,1.248-.486-.76-1.294-1.248-2.226-1.248-1.517,0-2.75,1.344-2.75,2.996,0,2.842,4.521,6.03,4.714,6.165Zm-1.964-8.161c.959,0,1.711.86,1.711,1.958h1c0-1.08.802-1.958,1.789-1.958.965,0,1.75.895,1.75,1.996,0,1.788-2.663,4.142-4,5.138-1.337-.996-4-3.35-4-5.138,0-1.101.785-1.996,1.75-1.996ZM20.5,0H4.5c-1.378,0-2.5,1.122-2.5,2.5v19c0,1.379,1.122,2.5,2.5,2.5h17.5V1.5c0-.827-.673-1.5-1.5-1.5ZM4.5,1h16c.276,0,.5.224.5.5v17.5H4.5c-.565,0-1.081.195-1.5.513V2.5c0-.827.673-1.5,1.5-1.5Zm0,22c-.827,0-1.5-.673-1.5-1.5s.673-1.5,1.5-1.5h16.5v3H4.5Z"/>
</svg>
