<?xml version="1.0" encoding="UTF-8"?>
<svg xmlns="http://www.w3.org/2000/svg" id="Layer_1" data-name="Layer 1" viewBox="0 0 24 24" width="512" height="512"><path d="M24,14h-3.12L23.42,0h-1.02s-2.54,14-2.54,14h-5.53l-2.33-8.71-2.33,8.71H4.07L1.39,0H.38L3.05,14H0v1H3.24l1.4,7.33c.22,1.01,.96,1.67,1.89,1.67,1.26,0,1.74-.94,1.91-1.51l2-7.49h3.13l2.03,7.59c.21,.86,.95,1.41,1.88,1.41s1.67-.66,1.89-1.68l1.33-7.32h3.3v-1ZM7.48,22.21c-.23,.71-.65,.79-.95,.79-.44,0-.78-.32-.91-.87l-1.36-7.13h5.15l-1.93,7.21Zm3.23-8.21l1.29-4.84,1.3,4.84h-2.59Zm7.68,8.11c-.13,.56-.47,.89-.91,.89-.67,0-.86-.47-.91-.67l-1.96-7.33h5.08l-1.29,7.11Z"/></svg>
