<?xml version="1.0" encoding="UTF-8"?>
<svg xmlns="http://www.w3.org/2000/svg" id="Layer_1" data-name="Layer 1" viewBox="0 0 24 24" width="512" height="512"><path d="M5.86,7.86c-1.4,1.4-1.777,3.218-.857,4.137,.339,.339,.801,.502,1.318,.502,.885,0,1.935-.476,2.818-1.359,1.4-1.4,1.777-3.218,.857-4.137-.92-.919-2.737-.542-4.137,.857Zm3.43-.15c.441,.441,.197,1.668-.857,2.723-1.055,1.055-2.281,1.297-2.723,.857-.441-.441-.197-1.668,.857-2.723,.725-.725,1.531-1.066,2.107-1.066,.263,0,.478,.071,.616,.209Z"/><path d="M14.003,7.003c-.919,.919-.543,2.736,.857,4.137,.883,.884,1.933,1.359,2.818,1.359,.518,0,.979-.163,1.318-.502,.919-.919,.543-2.736-.857-4.137-1.4-1.4-3.217-1.775-4.137-.857Zm3.43,1.564c1.055,1.055,1.298,2.281,.857,2.723-.441,.439-1.667,.197-2.723-.857-1.055-1.055-1.298-2.281-.857-2.723,.44-.44,1.667-.197,2.723,.857Z"/><path d="M12,13c-1.654,0-3,1.346-3,3v1c0,1.654,1.346,3,3,3s3-1.346,3-3v-1c0-1.654-1.346-3-3-3Zm2,4c0,1.103-.897,2-2,2s-2-.897-2-2v-1c0-1.103,.897-2,2-2s2,.897,2,2v1Z"/><path d="M1.076,15.399c-1.094,.723-1.399,2.205-.675,3.312,.065,.097,1.6,2.39,1.6,5.288h1c0-3.148-1.591-5.582-1.769-5.844-.418-.64-.241-1.502,.395-1.923,.624-.411,1.454-.236,1.933,.407,.01,.013,.042,.051,.096,.111,1.006,1.118,3.345,4.062,3.345,7.248h1c0-3.532-2.519-6.713-3.639-7.957-.8-1.075-2.213-1.351-3.286-.644Z"/><path d="M22.929,15.399c-1.071-.708-2.484-.431-3.324,.684-1.084,1.204-3.605,4.386-3.605,7.917h1c0-3.186,2.341-6.13,3.348-7.248,.054-.06,.086-.099,.096-.111,.488-.653,1.3-.824,1.934-.407,.636,.42,.813,1.283,.398,1.917-.181,.268-1.772,2.702-1.772,5.85h1c0-2.898,1.535-5.191,1.606-5.297,.718-1.1,.413-2.581-.681-3.304Z"/><path d="M1.072,13.224c-.045-.403-.072-.81-.072-1.224C1,5.935,5.935,1,12,1s11,4.935,11,11c0,.414-.028,.821-.072,1.223,.325,.103,.641,.239,.946,.423,.075-.54,.127-1.087,.127-1.647C24,5.383,18.617,0,12,0S0,5.383,0,12c0,.561,.052,1.109,.127,1.649,.304-.184,.621-.321,.945-.425Z"/><path d="M9.916,22.773c.043,.342,.07,.688,.077,1.039,.654,.112,1.321,.188,2.007,.188s1.353-.076,2.008-.188c.007-.351,.035-.698,.079-1.039-.678,.134-1.37,.227-2.086,.227s-1.407-.093-2.084-.227Z"/></svg>
