<?xml version="1.0" encoding="UTF-8"?>
<svg xmlns="http://www.w3.org/2000/svg" id="Layer_1" data-name="Layer 1" viewBox="0 0 24 24" width="512" height="512"><path d="m13.5,1H2.5c-.827,0-1.5.673-1.5,1.5v20.5h11v1H0V2.5C0,1.122,1.121,0,2.5,0h11c1.379,0,2.5,1.122,2.5,2.5v8.523c-.381.288-.714.632-1,1.013V2.5c0-.827-.673-1.5-1.5-1.5Zm-6.5,13h-3v1h3v-1Zm2,1h3v-1h-3v1Zm-5,4h3v-1h-3v1Zm5,0h3v-1h-3v1Zm12.5,0h-5c-1.379,0-2.5,1.122-2.5,2.5v2.5h1v-2.5c0-.827.673-1.5,1.5-1.5h5c.827,0,1.5.673,1.5,1.5v2.5h1v-2.5c0-1.378-1.121-2.5-2.5-2.5Zm-5.5-4c0-1.654,1.346-3,3-3s3,1.346,3,3-1.346,3-3,3-3-1.346-3-3Zm1,0c0,1.103.897,2,2,2s2-.897,2-2-.897-2-2-2-2,.897-2,2Zm-8.5-5v-2.5h2.5v-1h-2.5v-2.5h-1v2.5h-2.5v1h2.5v2.5h1Z"/></svg>
