<?xml version="1.0" encoding="UTF-8"?>
<svg xmlns="http://www.w3.org/2000/svg" id="Layer_1" data-name="Layer 1" viewBox="0 0 24 24" width="512" height="512"><path d="m12,0C5.383,0,0,5.383,0,12s5.383,12,12,12,12-5.383,12-12S18.617,0,12,0Zm0,23c-6.065,0-11-4.935-11-11,0-2.853,1.101-5.447,2.889-7.404l15.515,15.516c-1.957,1.788-4.551,2.889-7.404,2.889Zm1.707-10h5.293v2h-3.293l-2-2Zm6.404,6.404l-3.404-3.404h3.293v-4h-7.293L4.596,3.889c1.957-1.788,4.551-2.889,7.404-2.889,6.065,0,11,4.935,11,11,0,2.853-1.101,5.448-2.889,7.404ZM12,3h1c0,1.03.684,1.964,1.784,2.435l2.826,1.212c1.474.632,2.39,1.917,2.39,3.354h-1c0-1.03-.684-1.963-1.784-2.434l-2.826-1.212c-1.474-.632-2.39-1.917-2.39-3.354Zm-.535,12h-1.465v-1.465l-1.536-1.535h-4.464v4h8.465l-1-1Zm-2.465,0h-4v-2h4v2Z"/></svg>
