<?xml version="1.0" encoding="UTF-8"?>
<svg xmlns="http://www.w3.org/2000/svg" id="Layer_1" data-name="Layer 1" viewBox="0 0 24 24">
  <path d="m23.989,23.283l-6.579-6.579c1.607-1.775,2.596-4.12,2.596-6.697C20.006,4.492,15.52.006,10.006.006S.006,4.492.006,10.006s4.486,10,10,10c2.577,0,4.922-.988,6.697-2.596l6.579,6.579.707-.707ZM1.006,10.006C1.006,5.043,5.043,1.006,10.006,1.006s9,4.038,9,9-4.037,9-9,9S1.006,14.968,1.006,10.006Zm14.348-3.249l-1.555,1.555,1.555,1.555-.707.707-1.555-1.555-1.555,1.555-.707-.707,1.555-1.555-1.555-1.555.707-.707,1.555,1.555,1.555-1.555.707.707Zm-8.458,2.262l-1.555,1.555-.707-.707,1.555-1.555-1.555-1.555.707-.707,1.555,1.555,1.555-1.555.707.707-1.555,1.555,1.555,1.555-.707.707-1.555-1.555Zm7.374,5.249l-.504.863c-2.569-1.501-4.957-1.503-7.532,0l-.504-.863c2.884-1.684,5.661-1.683,8.54,0Z"/>
</svg>
