<?xml version="1.0" encoding="UTF-8"?>
<svg xmlns="http://www.w3.org/2000/svg" id="Layer_1" data-name="Layer 1" viewBox="0 0 24 24" width="512" height="512"><path d="M20,13h-3.99l.98-10.23c.08-.71-.15-1.41-.62-1.94S15.21,0,14.5,0H2.5C1.79,0,1.11,.3,.64,.83S-.06,2.07,.01,2.77L2.05,24H20c2.21,0,4-1.79,4-4v-3c0-2.21-1.79-4-4-4Zm3,4v1H10v-1c0-1.65,1.35-3,3-3h7c1.65,0,3,1.35,3,3Zm-3.56,2l-1.94,1.38-1.91-1.38h3.85ZM1.38,1.5c.29-.32,.68-.5,1.12-.5H14.5c.43,0,.83,.18,1.12,.5,.29,.32,.42,.73,.37,1.17l-.32,3.34H1.33s-.32-3.35-.32-3.35c-.05-.43,.09-.84,.38-1.16Zm1.57,21.5L1.42,7H15.57s-.57,6-.57,6h-2c-2.21,0-4,1.79-4,4v3c0,1.2,.54,2.27,1.38,3H2.95Zm17.05,0h-7c-1.65,0-3-1.35-3-3v-1h3.89l3.61,2.62,3.66-2.62h1.84v1c0,1.65-1.35,3-3,3Z"/></svg>
