<?xml version="1.0" encoding="UTF-8"?>
<svg xmlns="http://www.w3.org/2000/svg" id="Layer_1" data-name="Layer 1" viewBox="0 0 24 24" width="512" height="512"><path d="M16.154,5.244c1.116-.869,1.846-2.04,1.846-3.244h-1c0,1.565-1.967,3.435-4.5,3.658V0h-1V5.658c-2.533-.222-4.5-2.092-4.5-3.658h-1c0,1.203,.73,2.374,1.846,3.244C3.476,5.517,0,9.38,0,14.091c0,4.678,3.567,9.909,8.341,9.909h7.318c4.773,0,8.341-5.231,8.341-9.909,0-4.711-3.476-8.574-7.846-8.847Zm-.495,17.756h-7.318c-4.202,0-7.341-4.704-7.341-8.909,0-4.336,3.293-7.863,7.341-7.863,.982,0,1.928,.204,2.822,.605-.539,.971-1.772,2.554-4.284,3.182l.242,.971c2.805-.701,4.226-2.459,4.879-3.606,.652,1.147,2.074,2.905,4.879,3.606l.242-.971c-2.512-.627-3.745-2.21-4.283-3.182,.894-.402,1.84-.605,2.821-.605,4.048,0,7.341,3.527,7.341,7.863,0,4.205-3.14,8.909-7.341,8.909Z"/></svg>
