<?xml version="1.0" encoding="UTF-8"?>
<svg xmlns="http://www.w3.org/2000/svg" id="Layer_1" data-name="Layer 1" viewBox="0 0 24 24" width="512" height="512"><path d="M19.938,9.191l-1.048-4.191H6.013l.628-2.826c.153-.691,.755-1.174,1.464-1.174h8.896V0H8.104c-1.181,0-2.185,.805-2.44,1.958l-1.608,7.235C1.722,9.829,0,11.967,0,14.5v4c0,3.033,2.468,5.5,5.5,5.5h13c3.032,0,5.5-2.467,5.5-5.5v-4c0-2.535-1.725-4.675-4.062-5.309ZM5.79,6h12.319l.753,3.012c-.12-.008-.241-.012-.362-.012H5.5c-.128,0-.254,.005-.379,.013l.67-3.013Zm-.29,4h13c2.481,0,4.5,2.019,4.5,4.5v1.5H1v-1.5c0-2.481,2.019-4.5,4.5-4.5Zm13,13H5.5c-2.481,0-4.5-2.019-4.5-4.5v-1.5H23v1.5c0,2.481-2.019,4.5-4.5,4.5Z"/></svg>
