<?xml version="1.0" encoding="UTF-8"?>
<svg xmlns="http://www.w3.org/2000/svg" id="Layer_1" data-name="Layer 1" viewBox="0 0 24 24">
  <path d="m16.13,23H5.835c-.768,0-1.409-.576-1.491-1.341L2.556,5h16.886l-.219,2h1.006l.219-2h1.552v-1h-6v-1.5c0-1.379-1.121-2.5-2.5-2.5h-5c-1.379,0-2.5,1.121-2.5,2.5v1.5H0v1h1.551l1.799,16.767c.137,1.273,1.205,2.233,2.485,2.233h10.295c1.198,0,2.203-.847,2.439-2h-1.049c-.21.583-.744,1-1.389,1ZM7,2.5c0-.827.673-1.5,1.5-1.5h5c.827,0,1.5.673,1.5,1.5v1.5H7v-1.5Zm17,6.5v1h-8v-1h8Zm-8,5h7v1h-7v-1Zm0,5h6v1h-6v-1Z"/>
</svg>
