<?xml version="1.0" encoding="UTF-8"?>
<svg xmlns="http://www.w3.org/2000/svg" id="Layer_1" data-name="Layer 1" viewBox="0 0 24 24">
  <path d="m24,10.5c0-2.481-2.019-4.5-4.5-4.5h-2.5v-2.5c0-1.378-1.121-2.5-2.5-2.5H2.5C1.121,1,0,2.122,0,3.5v15.5h2.18c-.116.32-.18.655-.18,1,0,1.654,1.346,3,3,3s3-1.346,3-3c0-.345-.064-.68-.18-1h8.359c-.116.32-.18.655-.18,1,0,1.654,1.346,3,3,3s3-1.346,3-3c0-.345-.064-.68-.18-1h2.18v-8.5Zm-4.5-3.5c1.93,0,3.5,1.57,3.5,3.5v1.5h-6v-5h2.5Zm-12.5,13c0,1.103-.897,2-2,2s-2-.897-2-2c0-.355.119-.691.304-1h3.392c.185.309.304.645.304,1Zm9-2H1V3.5c0-.827.673-1.5,1.5-1.5h12c.827,0,1.5.673,1.5,1.5v14.5Zm5,2c0,1.103-.897,2-2,2s-2-.897-2-2c0-.355.119-.691.304-1h3.392c.185.309.304.645.304,1Zm-4-2v-5h6v5h-6Zm-3.85-11.349l.707.707-5.202,5.203c-.293.292-.677.439-1.062.439s-.768-.146-1.061-.439l-3.392-3.179.684-.729,3.403,3.19c.205.205.522.207.72.011l5.202-5.203Z"/>
</svg>
