<?xml version="1.0" encoding="UTF-8"?>
<svg xmlns="http://www.w3.org/2000/svg" id="Layer_1" data-name="Layer 1" viewBox="0 0 24 24">
  <path d="m12,10c-1.103,0-2,.897-2,2s.897,2,2,2,2-.897,2-2-.897-2-2-2Zm0,3c-.551,0-1-.449-1-1s.449-1,1-1,1,.449,1,1-.449,1-1,1Zm5.289-5.825l-1.937,1.13c-.537-.488-1.166-.852-1.853-1.067v-2.238h-3v2.238c-.687.217-1.316.58-1.853,1.068l-1.936-1.13-1.513,2.591,1.941,1.133c-.094.385-.14.748-.14,1.101s.046.715.14,1.1l-1.941,1.134,1.513,2.591,1.936-1.131c.537.489,1.167.852,1.853,1.068v2.238h3v-2.238c.687-.216,1.316-.579,1.853-1.068l1.937,1.131,1.512-2.591-1.94-1.133c.094-.384.14-.748.14-1.101s-.046-.716-.14-1.101l1.94-1.133-1.512-2.591Zm-1.611,3.256l.12.38c.138.439.202.817.202,1.188s-.064.749-.202,1.187l-.12.381,1.756,1.025-.504.863-1.747-1.02-.272.291c-.55.586-1.249.989-2.021,1.165l-.389.088v2.019h-1v-2.019l-.389-.088c-.773-.176-1.472-.579-2.021-1.165l-.272-.291-1.747,1.02-.504-.863,1.755-1.025-.119-.38c-.138-.439-.202-.817-.202-1.188s.064-.748.202-1.188l.119-.38-1.755-1.024.504-.863,1.747,1.02.273-.291c.549-.586,1.249-.989,2.021-1.165l.389-.088v-2.019h1v2.019l.389.088c.772.176,1.472.579,2.021,1.165l.272.291,1.747-1.02.504.863-1.756,1.025Zm8.322,1.568c0,6.617-5.383,12-12,12-3.49,0-6.719-1.491-9-4.091v4.091h-1v-4.583c0-.781.635-1.417,1.417-1.417h4.583v1H3.534c2.1,2.54,5.156,4,8.466,4,6.065,0,11-4.935,11-11h1Zm-23,0H0C0,5.383,5.383,0,12,0c3.49,0,6.719,1.491,9,4.091V0h1v4.5c0,.827-.673,1.5-1.5,1.5h-4.5v-1h4.466c-2.099-2.54-5.156-4-8.466-4C5.935,1,1,5.935,1,12Z"/>
</svg>
