<?xml version="1.0" encoding="UTF-8"?>
<svg xmlns="http://www.w3.org/2000/svg" id="Layer_1" data-name="Layer 1" viewBox="0 0 24 24">
  <path d="m4.098,19.652c.535.552,1.117,1.038,1.737,1.46l-.716.716c-.617-.435-1.202-.926-1.74-1.481C1.2,18.098,0,15.133,0,12,0,5.383,5.383,0,12,0c5.415,0,10.18,3.647,11.587,8.87.217.801.323,1.629.369,2.462-.318-.147-.658-.248-1.019-.293-.056-.646-.147-1.287-.315-1.909-1.29-4.787-5.658-8.13-10.622-8.13C5.935,1,1,5.935,1,12c0,2.872,1.1,5.59,3.098,7.652Zm7.402-8.057l-4.169,2.55.521.854,4.647-2.843v-6.156h-1v5.596Zm11,1.404h-4.5v1h4.275l-6.4,6.399-3.25-3.25-5.987,5.988.707.707,5.28-5.281,3.25,3.25,7.125-7.124v4.311h1v-4.5c0-.827-.673-1.5-1.5-1.5Z"/>
</svg>
