<?xml version="1.0" encoding="UTF-8"?>
<svg xmlns="http://www.w3.org/2000/svg" id="Layer_1" data-name="Layer 1" viewBox="0 0 24 24" width="512" height="512"><path d="m23.5,7.981h.5v-3.481c0-1.379-1.122-2.5-2.5-2.5H5.5c-1.378,0-2.5,1.121-2.5,2.5v12c0,1.379,1.122,2.5,2.5,2.5h16c1.378,0,2.5-1.121,2.5-2.5v-3.519h-.5c-1.378,0-2.5-1.121-2.5-2.5s1.122-2.5,2.5-2.5Zm-3.5,2.5c0,1.76,1.306,3.221,3,3.465v2.554c0,.827-.673,1.5-1.5,1.5H5.5c-.827,0-1.5-.673-1.5-1.5V4.5c0-.827.673-1.5,1.5-1.5h16c.827,0,1.5.673,1.5,1.5v2.517c-1.694.244-3,1.705-3,3.465Zm-4.75-1.481h-1.01l-1.729-2.16c-.282-.518-.824-.84-1.415-.84h-1.875l1.376,3h-.66l-.751-.625c-.568-.569-1.608-.434-2.012.263-.231.398-.233.876.048,1.352l1.695,2.011h1.667l-1.359,3h1.889c.591,0,1.132-.322,1.368-.77l1.761-2.23h2.758v-1.5c0-.883-.72-1.5-1.75-1.5Zm.75,2h-2.242l-2.109,2.682c-.106.196-.312.318-.536.318h-.338l1.359-3h-2.753l-1.343-1.581c-.072-.127-.023-.238,0-.279.036-.063.219-.273.473-.027l1.063.888h2.58l-1.376-3h.317c.224,0,.429.122.584.391l2.079,2.609h1.491c.363,0,.75.132.75.5v.5Zm-10.5,10h13.5v1H5.5c-3.033,0-5.5-2.468-5.5-5.5V6h1v10.5c0,2.481,2.019,4.5,4.5,4.5Z"/></svg>
