<?xml version="1.0" encoding="UTF-8"?>
<svg xmlns="http://www.w3.org/2000/svg" id="Layer_1" data-name="Layer 1" viewBox="0 0 24 24" width="512" height="512"><path d="M20.917,3.75c1.535-.297,2.697-.757,2.768-.786l-.371-.928c-.022,.008-2.116,.834-4.314,.95V0h-1V2.986c-2.198-.116-4.292-.942-4.314-.95l-.371,.928c.069,.028,1.16,.459,2.622,.757-1.119,.714-1.916,1.901-2.091,3.297-.094,.746-.373,1.746-.705,2.131-1.484,1.72-3.833,1.859-6.525,1.859-3.709,0-6.615,2.868-6.615,6.53,0,3.623,2.918,6.462,6.643,6.462,10.395,0,16.357-5.979,16.357-16.404,0-1.607-.83-3.024-2.083-3.846ZM6.643,23c-3.165,0-5.643-2.399-5.643-5.462,0-3.102,2.466-5.53,5.615-5.53,2.834,0,5.524-.169,7.282-2.206,.689-.798,.917-2.471,.94-2.659,.208-1.656,1.534-2.935,3.162-3.119v2.976h1v-2.95c1.7,.285,3,1.766,3,3.546,0,9.79-5.597,15.404-15.357,15.404Z"/></svg>
