<?xml version="1.0" encoding="UTF-8"?>
<svg xmlns="http://www.w3.org/2000/svg" id="Layer_1" data-name="Layer 1" viewBox="0 0 24 24" width="512" height="512"><path d="M14.041,13.641l-5.448-4.264c-.644-.504-1.542-.504-2.185,0L.959,13.641c-.61,.477-.959,1.194-.959,1.969v8.391H15V15.609c0-.774-.35-1.492-.959-1.969Zm-.041,9.359H1v-7.391c0-.465,.21-.896,.576-1.182l5.448-4.264c.28-.219,.672-.219,.952,0l5.448,4.264c.366,.286,.576,.717,.576,1.182v7.391Zm-9-3h5v-5H5v5Zm1-4h3v3h-3v-3Zm11,7h5.302l-3.726-7h2.212l-4.206-7h2.795L15.339,1.406c-.339-.474-1.295-.528-1.708,.033l-3.509,6.595-.295-.231c-.169-.133-.347-.248-.53-.348L12.796,.886c.386-.555,1.021-.886,1.697-.886s1.311,.331,1.697,.886l4.854,9.114h-2.693l4.206,7h-2.315l3.726,7h-6.967v-1Z"/></svg>
