<?xml version="1.0" encoding="UTF-8"?>
<svg xmlns="http://www.w3.org/2000/svg" id="Layer_1" data-name="Layer 1" width="512" height="512" viewBox="0 0 24 24"><path d="M1.051,10.974c-.43,.176-.766,.34-1.024,.487,.063-1.437,.365-2.834,.927-4.156C2.842,2.867,7.178,0,12,0s9.158,2.867,11.046,7.304c.562,1.321,.864,2.718,.927,4.156-.258-.146-.594-.31-1.024-.486-.104-1.132-.377-2.231-.823-3.278-1.731-4.067-5.706-6.696-10.126-6.696S3.605,3.628,1.874,7.696c-.446,1.048-.719,2.147-.823,3.278Zm18.123,9.365c-1.993,1.716-4.541,2.661-7.174,2.661s-5.181-.945-7.174-2.661c-.552-.475-1.042-1.004-1.483-1.567-.35,.118-.714,.189-1.091,.208,.552,.771,1.189,1.487,1.922,2.118,2.174,1.872,4.954,2.903,7.826,2.903s5.652-1.031,7.826-2.903c.732-.631,1.369-1.346,1.921-2.116-.377-.018-.741-.09-1.091-.208-.441,.563-.931,1.092-1.482,1.567ZM7.5,8c.715,0,1.5,1.57,1.5,3h1c0-1.888-1.069-4-2.5-4s-2.5,2.112-2.5,4h1c0-1.43,.785-3,1.5-3Zm9-1c-1.431,0-2.5,2.112-2.5,4h1c0-1.43,.785-3,1.5-3s1.5,1.57,1.5,3h1c0-1.888-1.069-4-2.5-4ZM6.021,14.871l-.276-.875,.885,.243c.028,.007,2.805,.762,5.363,.762s5.344-.754,5.372-.762l.886-.242-.277,.875c-.066,.209-1.675,5.129-5.975,5.129h-.012c-4.3,0-5.9-4.92-5.966-5.129Zm1.315,.566c.623,1.29,2.085,3.563,4.651,3.563h.012c2.575,0,4.038-2.274,4.66-3.564-1.078,.236-2.899,.564-4.666,.564s-3.581-.328-4.657-.563Zm16.062,.962c-.387,.388-.902,.601-1.45,.601s-1.064-.213-1.451-.601c-.677-.677-1.226-3.149-1.328-3.638l-.158-.75,.751,.158c.488,.103,2.96,.651,3.637,1.328,.8,.8,.8,2.102,0,2.902Zm-.707-2.195c-.248-.248-1.302-.606-2.364-.876,.271,1.062,.629,2.116,.877,2.364,.396,.396,1.091,.398,1.487,0,.41-.41,.41-1.078,0-1.488ZM3.503,16.399c-.4,.4-.926,.6-1.451,.6s-1.051-.2-1.451-.6c-.8-.8-.8-2.102,0-2.902,.677-.676,3.156-1.233,3.646-1.337l.755-.162-.162,.755c-.104,.49-.661,2.97-1.337,3.646Zm-.707-.707c.249-.249,.61-1.306,.884-2.372-1.066,.273-2.124,.635-2.372,.883-.41,.411-.41,1.078,0,1.488,.41,.41,1.078,.41,1.488,0Z"/></svg>
