<?xml version="1.0" encoding="UTF-8"?>
<svg xmlns="http://www.w3.org/2000/svg" id="Layer_1" data-name="Layer 1" viewBox="0 0 24 24">
  <path d="m16.008,8.987c.631.47.992,1.146.992,1.854v2.158h4v-2.157c0-.707.366-1.387,1.004-1.865,1.269-.952,1.996-2.401,1.996-3.978,0-1.514-.675-2.93-1.852-3.884-1.176-.955-2.717-1.32-4.23-1.001-1.997.42-3.547,2.069-3.858,4.104-.28,1.838.467,3.666,1.948,4.769Zm3.992,3.013h-2v-1h2v1Zm-4.952-7.631c.245-1.599,1.51-2.947,3.076-3.276,1.217-.255,2.453.036,3.395.799.941.764,1.481,1.897,1.481,3.108,0,1.259-.582,2.417-1.596,3.178-.642.481-1.077,1.121-1.276,1.822h-.628v-4.071c.86-.224,1.5-1,1.5-1.929h-1c0,.551-.448,1-1,1s-1-.449-1-1h-1c0,.929.64,1.705,1.5,1.929v4.071h-.626c-.198-.702-.631-1.34-1.268-1.814-1.202-.896-1.785-2.323-1.558-3.816Zm8.923,7.672c-.186,2.274-1.021,4.366-2.415,6.048-.358.433-.556.988-.556,1.562v4.349h-13v-3h-2.358c-1.189,0-2.221-.846-2.452-2.012l-.793-3.988H0l.043-1.703c.366-.825.732-1.705,1.098-2.584,1.07-2.572,2.081-5.001,3.152-6.327C6.365,1.619,9.542.015,12.998,0c.547,0,1.138.055,1.687.135-.258.284-.489.59-.693.917-.33-.03-.66-.052-.99-.052-3.139.014-6.026,1.472-7.92,4-.993,1.228-2.022,3.703-3.018,6.097-.354.853-.709,1.705-1.064,2.508v.395h2.217l.953,4.792c.139.7.758,1.208,1.472,1.208h3.358v3h11v-3.349c0-.807.279-1.588.786-2.2,1.262-1.524,2.019-3.423,2.188-5.492.039-.479.038-.965.013-1.453l.012-.006v-.273c-.002-.192.068-.308.117-.34.27-.181.518-.385.754-.599.137.922.175,1.847.099,2.753Z"/>
</svg>
