<?xml version="1.0" encoding="UTF-8"?>
<svg xmlns="http://www.w3.org/2000/svg" id="Layer_1" data-name="Layer 1" viewBox="0 0 24 24">
  <path d="m23,2c-1.706,6.271-7.05,8.253-10,8.783v-1.783h-1v1.929c-.566.063-.933.07-1.004.071h-1.996v-2h-1v2h-3v-2h-1v2H0v1h3.675c-1.021.826-1.675,2.088-1.675,3.5,0,2.481,2.019,4.5,4.5,4.5h4c2.481,0,4.5-2.019,4.5-4.5,0-1.229-.496-2.345-1.297-3.158,3.022.669,7.71,2.821,9.297,8.658h1V2h-1Zm-9,13.5c0,1.93-1.57,3.5-3.5,3.5h-4c-1.93,0-3.5-1.57-3.5-3.5s1.57-3.5,3.5-3.5h4c1.93,0,3.5,1.57,3.5,3.5Zm9,2.578c-2.097-4.17-5.931-5.884-8.702-6.588,2.771-.717,6.607-2.442,8.702-6.585v13.172Z"/>
</svg>
