<?xml version="1.0" encoding="UTF-8"?>
<svg xmlns="http://www.w3.org/2000/svg" id="Layer_1" data-name="Layer 1" width="512" height="512" viewBox="0 0 24 24"><path d="M24,18.232c0-1.206-.206-2.394-.612-3.531l-1.443-4.042c-.354-.993-1.3-1.659-2.354-1.659H11.41c-1.054,0-2,.667-2.354,1.659l-1.443,4.042c-.406,1.137-.612,2.325-.612,3.531v3.768h2v2h3v-2h7v2h3v-2h2v-3.768Zm-14.003-7.237c.213-.595,.781-.995,1.413-.995h8.181c.632,0,1.2,.4,1.413,.995l1.43,4.005H8.566l1.43-4.005Zm1.003,12.005h-1v-1h1v1Zm10,0h-1v-1h1v1Zm2-2H8v-2.768c0-.755,.089-1.502,.266-2.232h2.734v1.5c0,.276,.224,.5,.5,.5s.5-.224,.5-.5v-1.5h7v1.5c0,.276,.224,.5,.5,.5s.5-.224,.5-.5v-1.5h2.734c.177,.73,.266,1.477,.266,2.232v2.768ZM3,5h7v2.23c.32-.106,.657-.167,1-.198v-2.032h7v2h1V3.81c0-1.032-.615-1.942-1.566-2.319-1.404-.557-4.172-1.491-6.934-1.491S4.97,.934,3.566,1.491c-.952,.377-1.566,1.288-1.566,2.319v4.19H0v2.5c0,1.207,.86,2.217,2,2.45v6.05h2v2h1v-3H3v-5h3.096l.357-1H3V5Zm.935-2.58c1.338-.53,3.97-1.42,6.565-1.42s5.228,.89,6.565,1.42c.568,.225,.935,.771,.935,1.39v.19H3v-.19c0-.619,.367-1.165,.935-1.39ZM1,10.5v-1.5h1v2.914c-.582-.206-1-.762-1-1.414Z"/></svg>
