<?xml version="1.0" encoding="UTF-8"?>
<svg xmlns="http://www.w3.org/2000/svg" id="Layer_1" data-name="Layer 1" viewBox="0 0 24 24" width="512" height="512"><path d="m16.24,10.354c1.592-.433,2.772-1.877,2.772-3.604,0-2.068-1.682-3.75-3.75-3.75-1.361,0-2.544.736-3.201,1.824C10.9,1.327,7.338,0,.013,0v1c5.326,0,8.266.751,9.84,2.18-.347-.106-.708-.18-1.09-.18-2.068,0-3.75,1.682-3.75,3.75,0,1.728,1.18,3.171,2.772,3.604C4.356,12.239.013,15.592.013,20.5c0,1.93,1.57,3.5,3.5,3.5s3.5-1.57,3.5-3.5c0-5.827,3.873-9.801,5-10.835,1.128,1.031,5,4.994,5,10.835,0,1.93,1.57,3.5,3.5,3.5s3.5-1.57,3.5-3.5c0-4.908-4.343-8.261-7.772-10.146Zm-.978-6.354c1.517,0,2.75,1.233,2.75,2.75s-1.233,2.75-2.75,2.75-2.75-1.233-2.75-2.75,1.233-2.75,2.75-2.75Zm-9.25,2.75c0-1.517,1.233-2.75,2.75-2.75,1.116,0,2.074.671,2.505,1.628.111.45.178.933.212,1.445-.162,1.363-1.311,2.427-2.717,2.427-1.517,0-2.75-1.233-2.75-2.75Zm0,13.75c0,1.378-1.122,2.5-2.5,2.5s-2.5-1.122-2.5-2.5c0-5.145,5.617-8.54,8.881-10.078-1.667,1.963-3.881,5.443-3.881,10.078Zm14.5,2.5c-1.378,0-2.5-1.122-2.5-2.5,0-4.634-2.213-8.114-3.881-10.078,3.264,1.538,8.881,4.933,8.881,10.078,0,1.378-1.122,2.5-2.5,2.5Z"/></svg>
