<?xml version="1.0" encoding="UTF-8"?>
<svg xmlns="http://www.w3.org/2000/svg" id="Layer_1" data-name="Layer 1" viewBox="0 0 24 24">
  <path d="m23.475,0c-.413.021-10.193.583-16.542,6.932C.585,13.281.021,23.062,0,23.475l-.027.539.539-.013c.402-.01,9.942-.32,16.555-6.933C23.68,10.455,23.99.915,24,.512l.013-.539-.538.027Zm-7.114,16.36c-5.435,5.435-13.184,6.431-15.313,6.604.22-2.163,1.364-10.096,6.593-15.325S20.802,1.267,22.965,1.047c-.174,2.13-1.17,9.879-6.604,15.313Zm-6.36-.36c1.103,0,2-.897,2-2s-.897-2-2-2-2,.897-2,2,.897,2,2,2Zm0-3c.552,0,1,.449,1,1s-.448,1-1,1-1-.449-1-1,.448-1,1-1Zm4-1c1.103,0,2-.897,2-2s-.897-2-2-2-2,.897-2,2,.897,2,2,2Zm0-3c.552,0,1,.449,1,1s-.448,1-1,1-1-.449-1-1,.448-1,1-1Zm-8,7c-1.103,0-2,.897-2,2s.897,2,2,2,2-.897,2-2-.897-2-2-2Zm0,3c-.552,0-1-.449-1-1s.448-1,1-1,1,.449,1,1-.448,1-1,1Zm12-11c1.103,0,2-.897,2-2s-.897-2-2-2-2,.897-2,2,.897,2,2,2Zm0-3c.552,0,1,.449,1,1s-.448,1-1,1-1-.449-1-1,.448-1,1-1Z"/>
</svg>
