<?xml version="1.0" encoding="UTF-8"?>
<svg xmlns="http://www.w3.org/2000/svg" id="Layer_1" data-name="Layer 1" viewBox="0 0 24 24" width="512" height="512"><path d="m12,0C5.383,0,0,5.383,0,12s5.383,12,12,12,12-5.383,12-12S18.617,0,12,0Zm0,23c-6.065,0-11-4.935-11-11S5.935,1,12,1s11,4.935,11,11-4.935,11-11,11Zm3.725-6.017s-.023.051-.023.051l-3.702-6.916-3.638,6.799c-.012.021-.035.055-.088.056l-1.804-10.722h-1.081l1.917,10.993c.077.372.501.74.99.739.379,0,.719-.2.93-.562l2.774-5.183,2.832,5.29c.162.274.502.456.868.456.559,0,.917-.365.999-.766l1.911-10.966h-1.079l-1.806,10.733Z"/></svg>
