<?xml version="1.0" encoding="UTF-8"?>
<svg xmlns="http://www.w3.org/2000/svg" id="Layer_1" data-name="Layer 1" viewBox="0 0 24 24" width="512" height="512"><path d="m12,2C5.383,2,0,7.383,0,14v8h24v-8c0-6.617-5.383-12-12-12Zm0,1c3.409,0,6.46,1.558,8.479,4H3.521c2.019-2.442,5.071-4,8.479-4Zm6,18h-3v-5c0-1.654-1.346-3-3-3s-3,1.346-3,3v5h-3v-6.478c0-2.728.541-5.103,1.484-6.518l-.007-.005h9.046l-.007.005c.943,1.415,1.484,3.79,1.484,6.518v6.478Zm-4,0h-4v-5c0-1.103.897-2,2-2s2,.897,2,2v5ZM1,14c0-2.212.657-4.273,1.785-6h3.541c-.847,1.591-1.326,3.92-1.326,6.522v6.478H1v-7Zm22,7h-4v-6.478c0-2.602-.479-4.932-1.326-6.522h3.541c1.128,1.727,1.785,3.788,1.785,6v7Z"/></svg>
