<?xml version="1.0" encoding="UTF-8"?>
<svg xmlns="http://www.w3.org/2000/svg" id="Layer_1" data-name="Layer 1" viewBox="0 0 24 24">
  <path d="m4.975,22.268l-3.243-3.243,6.935-6.935-.707-.707L0,19.343v4.657h4.658l7.959-7.96-.707-.707-6.935,6.935Zm-3.975.732v-3.243l.025-.025,3.243,3.243-.025.025H1ZM23.035,5.622c1.284-1.284,1.284-3.373,0-4.657-1.284-1.283-3.374-1.283-4.658,0l-8.353,8.353L.753.047.046.754l23.2,23.199.707-.707-9.271-9.271,8.353-8.353Zm-3.951-3.95c.895-.895,2.35-.895,3.244,0,.894.895.894,2.349,0,3.243l-2.864,2.864-3.243-3.243,2.864-2.864Zm-3.571,3.571l3.243,3.243-4.782,4.782-3.243-3.243,4.782-4.782Z"/>
</svg>
