<?xml version="1.0" encoding="UTF-8"?>
<svg xmlns="http://www.w3.org/2000/svg" id="Layer_1" data-name="Layer 1" viewBox="0 0 24 24" width="512" height="512"><path d="M8.5,9c.935,0,1.814-.364,2.475-1.025,.661-.661,1.025-1.54,1.025-2.475s-.364-1.814-1.006-2.454L8.5,.249l-2.475,2.776c-.661,.66-1.025,1.539-1.025,2.475s.364,1.814,1.025,2.475c.661,.661,1.54,1.025,2.475,1.025Zm-1.749-5.288l1.749-1.961,1.768,1.981c.472,.472,.732,1.1,.732,1.768s-.26,1.296-.732,1.768c-.944,.945-2.591,.945-3.536,0-.472-.472-.732-1.1-.732-1.768s.26-1.296,.751-1.788Zm16.429,5.942c-.496-.451-1.146-.683-1.809-.651-.67,.031-1.288,.321-1.739,.817l-3.732,4.103c-.314-1.108-1.335-1.923-2.542-1.923H2.5c-1.378,0-2.5,1.121-2.5,2.5v7c0,1.379,1.122,2.5,2.5,2.5H13.724l9.639-10.817c.911-1.023,.829-2.605-.183-3.528Zm-.564,2.862l-9.34,10.483H2.5c-.827,0-1.5-.673-1.5-1.5v-7c0-.827,.673-1.5,1.5-1.5H13.358c.905,0,1.642,.737,1.642,1.643,0,.812-.606,1.511-1.404,1.624l-5.661,.737,.129,.992,5.667-.738c1.022-.146,1.845-.878,2.146-1.823l4.495-4.94c.272-.299,.644-.474,1.047-.492,.397-.017,.79,.12,1.088,.392,.609,.556,.658,1.508,.109,2.123Z"/></svg>
