<?xml version="1.0" encoding="UTF-8"?>
<svg xmlns="http://www.w3.org/2000/svg" id="Layer_1" data-name="Layer 1" width="512" height="512" viewBox="0 0 24 24"><path d="M24,12.5c0-1.378-1.121-2.5-2.5-2.5h-.739L15.93,3.07c-.467-.67-1.233-1.07-2.051-1.07H5.881c-1.033,0-1.973,.648-2.338,1.614L.904,10.574h.002c-.553,.46-.906,1.152-.906,1.926v5.5H2v1c0,1.654,1.346,3,3,3s3-1.346,3-3v-1h8v1c0,1.654,1.346,3,3,3s3-1.346,3-3v-1h2v-5.5ZM15.109,3.643l4.432,6.357H10V3h3.879c.49,0,.95,.24,1.23,.643Zm-10.631,.325c.219-.579,.782-.968,1.402-.968h3.119v7H2.5c-.107,0-.212,.008-.316,.021L4.479,3.968Zm2.521,15.032c0,1.103-.897,2-2,2s-2-.897-2-2v-1H7v1Zm14,0c0,1.103-.897,2-2,2s-2-.897-2-2v-1h4v1Zm2-2H1v-4.5c0-.827,.673-1.5,1.5-1.5H21.5c.827,0,1.5,.673,1.5,1.5v4.5Z"/></svg>
