<?xml version="1.0" encoding="UTF-8"?>
<svg xmlns="http://www.w3.org/2000/svg" id="Layer_1" data-name="Layer 1" viewBox="0 0 24 24" width="512" height="512"><path d="m23.223,6.084c-.028.019-2.906,1.916-5.223,1.916h-2v-1h-1v1h-4v-1h-1v1h-3.5c-.163,0-.33.006-.5.017v-1.017h-1v1.134c-2.25.366-4.577,1.355-4.697,1.406l-.303.13v4.639l.276.139c.127.063,3.141,1.553,6.224,1.553h11.5c2.316,0,5.194,1.897,5.223,1.916l.777.518V5.566l-.777.518Zm-.223,10.53c-1.092-.616-3.147-1.614-5-1.614H6.5c-2.332,0-4.706-.965-5.5-1.319v-3.345c.889-.352,3.547-1.336,5.5-1.336h11.5c1.853,0,3.908-.998,5-1.614v9.229Zm-11-4.614c0,.552-.448,1-1,1s-1-.448-1-1,.448-1,1-1,1,.448,1,1Zm-5,0c0,.552-.448,1-1,1s-1-.448-1-1,.448-1,1-1,1,.448,1,1Zm10,0c0,.552-.448,1-1,1s-1-.448-1-1,.448-1,1-1,1,.448,1,1Z"/></svg>
