<?xml version="1.0" encoding="UTF-8"?>
<svg xmlns="http://www.w3.org/2000/svg" id="Layer_1" data-name="Layer 1" viewBox="0 0 24 24" width="512" height="512"><path d="m10.637,12.5c.396-.543.852-1.039,1.363-1.474v-5.026c0-3.309-2.691-6-6-6S0,2.691,0,6v12c0,3.309,2.691,6,6,6,1.719,0,3.268-.731,4.363-1.894-.195-.301-.368-.617-.524-.942-.918,1.112-2.289,1.836-3.839,1.836-2.757,0-5-2.243-5-5v-5.5h9.637ZM6,1c2.757,0,5,2.243,5,5v5.5H1v-5.5C1,3.243,3.243,1,6,1Zm11.5,10c-3.584,0-6.5,2.916-6.5,6.5s2.916,6.5,6.5,6.5,6.5-2.916,6.5-6.5-2.916-6.5-6.5-6.5Zm-5.5,6.5c0-3.032,2.467-5.5,5.5-5.5,1.337,0,2.563.48,3.518,1.275l-7.742,7.742c-.796-.954-1.275-2.181-1.275-3.518Zm5.5,5.5c-1.337,0-2.563-.48-3.518-1.275l7.742-7.742c.796.954,1.275,2.181,1.275,3.518,0,3.032-2.467,5.5-5.5,5.5Z"/></svg>
