<?xml version="1.0" encoding="UTF-8"?>
<svg xmlns="http://www.w3.org/2000/svg" id="Layer_1" data-name="Layer 1" viewBox="0 0 24 24">
  <path d="m23,4h-6v-1.5c0-1.379-1.121-2.5-2.5-2.5h-5c-1.378,0-2.5,1.121-2.5,2.5v1.5H1v1h1.551l1.799,16.767c.136,1.273,1.205,2.233,2.486,2.233h10.294c1.277,0,2.346-.958,2.485-2.228l1.833-16.772h1.552v-1Zm-15-1.5c0-.827.673-1.5,1.5-1.5h5c.827,0,1.5.673,1.5,1.5v1.5h-8v-1.5Zm10.621,19.163c-.084.763-.725,1.337-1.491,1.337H6.835c-.769,0-1.41-.576-1.492-1.341L3.556,5h16.886l-1.821,16.663Zm-9.335-5.103l-2.42-2.334.694-.721,2.427,2.341c.202.201.519.203.713.007l5.488-5.402.701.713-5.485,5.399c-.291.291-.673.437-1.057.437s-.769-.146-1.062-.439Z"/>
</svg>
