<?xml version="1.0" encoding="UTF-8"?>
<svg xmlns="http://www.w3.org/2000/svg" id="Layer_1" data-name="Layer 1" viewBox="0 0 24 24" width="512" height="512"><path d="M14,12c0-.55,.45-1,1-1s1,.45,1,1-.45,1-1,1-1-.45-1-1Zm-3,1c.55,0,1-.45,1-1s-.45-1-1-1-1,.45-1,1,.45,1,1,1Zm8,0c.55,0,1-.45,1-1s-.45-1-1-1-1,.45-1,1,.45,1,1,1Zm-4,4c.55,0,1-.45,1-1s-.45-1-1-1-1,.45-1,1,.45,1,1,1Zm-4,0c.55,0,1-.45,1-1s-.45-1-1-1-1,.45-1,1,.45,1,1,1Zm8,0c.55,0,1-.45,1-1s-.45-1-1-1-1,.45-1,1,.45,1,1,1Zm-4,4c.55,0,1-.45,1-1s-.45-1-1-1-1,.45-1,1,.45,1,1,1Zm-4-2c-.55,0-1,.45-1,1s.45,1,1,1,1-.45,1-1-.45-1-1-1Zm8,2c.55,0,1-.45,1-1s-.45-1-1-1-1,.45-1,1,.45,1,1,1Zm5-15.92V24H0V6.5c0-1.38,1.12-2.5,2.5-2.5h2c1.38,0,2.5,1.12,2.5,2.5v1.5h2V2.5c0-1.38,1.12-2.5,2.5-2.5h7.42l5.08,5.08Zm-5-.08h3.5l-3.5-3.5v3.5ZM6,23V6.5c0-.83-.67-1.5-1.5-1.5H2.5c-.83,0-1.5,.67-1.5,1.5V23H6ZM23,9H7v14H23V9Zm0-1v-2h-5V1h-6.5c-.83,0-1.5,.67-1.5,1.5v5.5h13Z"/></svg>
