<?xml version="1.0" encoding="UTF-8"?>
<svg xmlns="http://www.w3.org/2000/svg" id="Layer_1" data-name="Layer 1" viewBox="0 0 24 24">
  <path d="m16.735,20.27l.711.711c-1.779,1.441-3.665,2.342-4.816,2.805l-.65.262-.626-.313c-2.194-1.097-9.354-5.188-9.354-11.8v-6.399l1,1v5.399c0,6.037,6.96,9.985,9.025,11.018,1.075-.432,3.056-1.361,4.71-2.682Zm7.269,3.027l-.707.707L-.003.703.704-.004l2.88,2.88c.067-.029,8.416-2.8,8.416-2.8l8.212,2.722c1.069.354,1.788,1.348,1.788,2.473v6.771c0,2.521-.816,4.816-2.425,6.826l4.428,4.429Zm-5.14-5.14c1.418-1.809,2.137-3.864,2.137-6.115v-6.771c0-.693-.443-1.306-1.103-1.523l-7.897-2.618-7.633,2.531,14.496,14.497Z"/>
</svg>
