<?xml version="1.0" encoding="UTF-8"?>
<svg xmlns="http://www.w3.org/2000/svg" id="Layer_1" data-name="Layer 1" viewBox="0 0 24 24">
  <polygon points="22.999 8.442 22.999 8.44 22.999 8.44 22.999 8.442"/>
  <path d="m22.769,6c-.419,0-.789.209-1.011.529-.74-.718-1.575-1.396-2.895-1.99,1.27-.671,2.137-2.005,2.137-3.539v-.5h-1v.5c0,1.654-1.346,3-3,3s-3-1.346-3-3V0h-1v1c0,1.194.526,2.267,1.358,3h-2.357c-1.654,0-3-1.346-3-3V0h-1v1c0,2.206,1.795,4,4,4h2.371c-1.349,1.201-1.372,3.058-1.372,3.086v1.914h-7.606c-1.127,0-2.157.528-2.837,1.339L-.122,14.378l.751.66,1.098-1.248c.035,1.28.406,2.138.766,2.969.177.409.36.832.507,1.313v5.927h5v-5h4v5h5v-5.801c.494-.548,2-2.454,2-5.3v-2.458l2.538-.317c.833-.104,1.462-.843,1.462-1.684,0-.005,0-.002,0,0,.57-.108,1.001-.608,1.001-1.209,0-.68-.551-1.231-1.231-1.231Zm-1.356,3.132l-3.414.427v3.341c0,2.895-1.831,4.725-1.849,4.743l-.151.147v5.21h-3v-5h-6v5h-3v-5s-.391-1.182-.589-1.638c-.372-.858-.692-1.6-.687-2.802.003-.565.241-1.135.58-1.565.494-.601,1.255-.996,2.089-.996h8.606v-2.912c.002-.313.114-3.043,3.289-3.087,2.358.784,3.469,1.93,4.57,3.057.09.118.142.262.142.408,0,.337-.252.623-.586.665Z"/>
</svg>
