<?xml version="1.0" encoding="UTF-8"?>
<svg xmlns="http://www.w3.org/2000/svg" id="Layer_1" data-name="Layer 1" width="512" height="512" viewBox="0 0 24 24"><path d="M6,17h1v7h-1v-7Zm4,5h1v-7h-1v7ZM17.003,5.022C15.87,2.004,12.999,0,9.75,0,5.477,0,2,3.477,2,7.75c0,.763,.116,1.523,.345,2.267-1.476,1.032-2.345,2.681-2.345,4.483,0,2.512,1.695,4.631,4,5.287v-1.063c-1.742-.621-3-2.271-3-4.224,0-1.582,.822-3.021,2.2-3.847l.354-.212-.141-.388c-.273-.752-.412-1.527-.412-2.304,0-3.722,3.028-6.75,6.75-6.75,2.931,0,5.51,1.873,6.417,4.661l.11,.339,.355,.007c3.511,.071,6.367,2.984,6.367,6.493,0,1.826-.788,3.528-2,4.732v1.315c1.787-1.386,3-3.623,3-6.047,0-3.933-3.107-7.216-6.997-7.478Zm-3.003,18.978h1v-7h-1v7Zm4-2h1v-7h-1v7Z"/></svg>
