<?xml version="1.0" encoding="UTF-8"?>
<svg xmlns="http://www.w3.org/2000/svg" id="Layer_1" data-name="Layer 1" viewBox="0 0 24 24" width="512" height="512"><path d="M23.614,14.068c-.316-.439-.776-.74-1.292-.854l.823-.823c.776-.776,.904-1.997,.296-2.841-.364-.506-.921-.829-1.532-.894,.263-.677,.197-1.449-.227-2.038-.375-.521-.952-.849-1.584-.9-.633-.052-1.252,.176-1.701,.625l-.305,.305c-.056-.281-.169-.551-.342-.79-.375-.521-.952-.849-1.584-.9-.631-.047-1.252,.176-1.701,.625l-4.464,4.464v-1.473c0-1.274-.896-2.38-2.084-2.573-.731-.116-1.475,.085-2.035,.562-.56,.476-.881,1.17-.881,1.905v6.998c0,1.736,.676,3.368,1.904,4.596l1.979,1.979c1.283,1.282,2.967,1.923,4.652,1.923s3.369-.641,4.652-1.923l5.132-5.132c.776-.776,.904-1.997,.296-2.841Zm-1.003,2.134l-5.132,5.132c-2.176,2.174-5.715,2.175-7.89,0l-1.979-1.979c-1.039-1.039-1.611-2.42-1.611-3.889v-6.998c0-.44,.193-.857,.529-1.143,.341-.29,.779-.408,1.227-.336,.709,.115,1.244,.797,1.244,1.586v3.887l6.171-6.171c.241-.241,.581-.366,.914-.335,.344,.028,.647,.201,.854,.487,.324,.451,.242,1.117-.191,1.55h0s-4.215,4.215-4.215,4.215l.707,.707,5.864-5.864c.241-.24,.581-.366,.914-.335,.344,.028,.647,.201,.854,.487,.324,.45,.242,1.116-.191,1.549l-5.801,5.802,.707,.707,5.278-5.278c.24-.241,.573-.362,.913-.335,.345,.028,.648,.201,.854,.487,.324,.451,.242,1.117-.191,1.55l-5.215,5.215,.707,.707,3.105-3.105c.241-.241,.574-.361,.913-.335,.345,.028,.648,.201,.854,.487,.324,.451,.242,1.117-.191,1.55Zm-15.143,7.253c.192,.192,.392,.373,.598,.544-1.525-.108-3.02-.744-4.184-1.907l-1.979-1.979c-1.228-1.228-1.904-2.859-1.904-4.596v-6.998c0-.734,.321-1.429,.881-1.905,.56-.477,1.3-.678,2.035-.562,.232,.038,.453,.111,.659,.213-.164,.292-.294,.601-.389,.923-.133-.073-.277-.124-.43-.148-.45-.074-.886,.045-1.227,.336-.336,.286-.529,.703-.529,1.143v6.998c0,1.447,.587,2.865,1.611,3.889l1.979,1.979c.624,.624,1.36,1.069,2.144,1.335l.735,.735ZM18,4c1.103,0,2-.897,2-2s-.897-2-2-2-2,.897-2,2,.897,2,2,2Zm0-3c.551,0,1,.449,1,1s-.449,1-1,1-1-.449-1-1,.449-1,1-1ZM4.585,5.04c.136-.116,.292-.2,.44-.298-.008-.081-.024-.159-.024-.242,0-1.378,1.122-2.5,2.5-2.5s2.5,1.122,2.5,2.5c0,.085-.017,.164-.025,.247,.316,.217,.608,.467,.861,.756,.055-.183,.1-.369,.129-.561,.175,.038,.354,.058,.535,.058,1.378,0,2.5-1.122,2.5-2.5s-1.122-2.5-2.5-2.5c-1.006,0-1.875,.598-2.271,1.458-.51-.291-1.1-.458-1.729-.458-1.93,0-3.5,1.57-3.5,3.5,0,.346,.066,.674,.16,.99,.137-.154,.266-.314,.425-.449ZM11.5,1c.827,0,1.5,.673,1.5,1.5s-.673,1.5-1.5,1.5c-.19,0-.378-.037-.553-.106-.12-.684-.439-1.3-.895-1.786,.173-.638,.756-1.108,1.448-1.108Z"/></svg>
