<?xml version="1.0" encoding="UTF-8"?>
<svg xmlns="http://www.w3.org/2000/svg" id="Layer_1" data-name="Layer 1" viewBox="0 0 24 24">
  <path d="m19.672,6.772c-.183-.188-.868-.772-2.268-.772-1.021,0-2.089.762-2.391,1.731l-.831,3.459-3.178,2.071.546.838,3.45-2.249v5.03l-2.027,1.354.027,5.769,1-.005-.024-5.231,4.958-3.311c.668-.467,1.066-1.233,1.066-2.048v-5.176l3,2.154v4.615h1v-5.128l-4.328-3.1Zm-1.303,7.858l-2.369,1.582V7.934c.197-.504.833-.934,1.404-.934.995,0,1.444.368,1.596.507v5.9c0,.489-.239.948-.631,1.223Zm-.869-9.63c1.379,0,2.5-1.122,2.5-2.5s-1.121-2.5-2.5-2.5-2.5,1.122-2.5,2.5,1.121,2.5,2.5,2.5Zm0-4c.827,0,1.5.673,1.5,1.5s-.673,1.5-1.5,1.5-1.5-.673-1.5-1.5.673-1.5,1.5-1.5Zm1.798,16.561l2.573,6.439h-1.083l-2.327-5.846.837-.593Zm-15.298-4.561h4v-4h-4v4Zm1-3h2v2h-2v-2Zm-4,6h9v1H0V7.481c0-.863.39-1.662,1.069-2.194L7.295.416c.709-.556,1.7-.555,2.409,0l3.349,2.621c.075.622.271,1.201.572,1.718l-4.538-3.552c-.347-.271-.83-.271-1.177,0L1.685,6.075c-.436.341-.685.853-.685,1.406v8.519Z"/>
</svg>
