<?xml version="1.0" encoding="UTF-8"?>
<svg xmlns="http://www.w3.org/2000/svg" id="Layer_1" data-name="Layer 1" viewBox="0 0 24 24" width="512" height="512"><path d="m2,15c0,.552-.448,1-1,1s-1-.448-1-1,.448-1,1-1,1,.448,1,1Zm-1,3c-.552,0-1,.448-1,1s.448,1,1,1,1-.448,1-1-.448-1-1-1Zm0,4c-.552,0-1,.448-1,1s.448,1,1,1,1-.448,1-1-.448-1-1-1Zm4-6c-.552,0-1,.448-1,1s.448,1,1,1,1-.448,1-1-.448-1-1-1Zm0,4c-.552,0-1,.448-1,1s.448,1,1,1,1-.448,1-1-.448-1-1-1ZM23.983,2.357l-3.369,18.589c-.216,1.19-1.25,2.054-2.46,2.054h-9.154v-8h4.687l2.377-12.951c.218-1.187,1.252-2.049,2.458-2.049h3.493c.595,0,1.154.262,1.536.718.381.457.539,1.054.433,1.639Zm-2.221,6.643h-5.958l-1.285,7h-4.52v6h8.154c.726,0,1.346-.519,1.476-1.232l2.132-11.768Zm1.02-7.641c-.19-.229-.47-.359-.768-.359h-3.493c-.724,0-1.344.517-1.475,1.229l-1.059,5.771h5.956l1.055-5.822c.053-.292-.025-.591-.216-.819Z"/></svg>
