<?xml version="1.0" encoding="UTF-8"?>
<svg xmlns="http://www.w3.org/2000/svg" id="Layer_1" data-name="Layer 1" viewBox="0 0 24 24" width="512" height="512"><path d="M21.5,0H10.5c-1.379,0-2.5,1.122-2.5,2.5V14h6.05c.039-.347,.112-.681,.226-1h-5.013l6.712-5.818,2.024,2.024,5-5v6.07c.353,.126,.693,.28,1,.485V2.5c0-1.378-1.121-2.5-2.5-2.5Zm-3.5,7.793l-1.976-1.976-7.024,6.088V2.5c0-.827,.673-1.5,1.5-1.5h11c.827,0,1.5,.673,1.5,1.5v.293l-5,5Zm-5-3.793c0,.552-.448,1-1,1s-1-.448-1-1,.448-1,1-1,1,.448,1,1Zm8.5,8h-3c-1.379,0-2.5,1.122-2.5,2.5v5.013c-.419-.317-.935-.513-1.5-.513-1.379,0-2.5,1.122-2.5,2.5s1.121,2.5,2.5,2.5,2.5-1.122,2.5-2.5v-7c0-.827,.673-1.5,1.5-1.5h3c.827,0,1.5,.673,1.5,1.5v5.013c-.419-.317-.935-.513-1.5-.513-1.379,0-2.5,1.122-2.5,2.5s1.121,2.5,2.5,2.5,2.5-1.122,2.5-2.5v-7c0-1.378-1.121-2.5-2.5-2.5Zm-7,11c-.827,0-1.5-.673-1.5-1.5s.673-1.5,1.5-1.5,1.5,.673,1.5,1.5-.673,1.5-1.5,1.5Zm7,0c-.827,0-1.5-.673-1.5-1.5s.673-1.5,1.5-1.5,1.5,.673,1.5,1.5-.673,1.5-1.5,1.5Zm-16.5,0V10h1v-1h-2v3H1v-3H0v15H1v-3h3v3h6.76c-.205-.306-.359-.646-.484-1H5Zm-1-10v3H1v-3h3Zm-3,7v-3h3v3H1Z"/></svg>
