<?xml version="1.0" encoding="UTF-8"?>
<svg xmlns="http://www.w3.org/2000/svg" id="Layer_1" data-name="Layer 1" viewBox="0 0 24 24">
  <path d="m12,6.144L2.306,20.821c-.395.647-.409,1.427-.038,2.087.384.684,1.09,1.092,1.888,1.092h15.689c.798,0,1.504-.408,1.888-1.092.371-.66.356-1.439-.048-2.102L12,6.144Zm-3.033,16.856l3.033-4.593,3.033,4.593h-6.066Zm11.895-.582c-.205.364-.585.582-1.017.582h-3.613l-4.232-6.407-4.232,6.407h-3.613c-.432,0-.812-.218-1.017-.582-.192-.342-.187-.731.017-1.068L12,7.958l8.841,13.384c.206.339.214.73.021,1.075Zm2.704-16.865l-3.299,3.298-.707-.707,3.145-3.144H1.297l3.145,3.144-.707.707L.436,5.553c-.58-.581-.58-1.525,0-2.105L3.734.149l.707.707-3.145,3.144h21.407l-3.145-3.144.707-.707,3.299,3.298c.58.581.58,1.525,0,2.105Z"/>
</svg>
