<?xml version="1.0" encoding="UTF-8"?>
<svg xmlns="http://www.w3.org/2000/svg" id="Layer_1" data-name="Layer 1" viewBox="0 0 24 24" width="512" height="512"><path d="M19.5,19h-.665c-.539-1.323-2.656-6.789-2.817-11h1.982v-1h-1.872l1.428-6.207-3.435,1.294L12,.02l-2.121,2.067L6.444,.793l1.428,6.207h-1.872v1h1.982c-.161,4.211-2.279,9.677-2.817,11h-.665c-1.379,0-2.5,1.121-2.5,2.5v2.5H22v-2.5c0-1.379-1.121-2.5-2.5-2.5ZM7.837,2.387l2.284,.86,1.879-1.831,1.879,1.831,2.284-.86-1.061,4.613h-6.216l-1.049-4.613Zm1.146,5.613h6.034c.146,4.104,2.011,9.172,2.738,11H6.245c.727-1.828,2.592-6.896,2.738-11Zm12.017,15H3v-1.5c0-.827,.673-1.5,1.5-1.5h15c.827,0,1.5,.673,1.5,1.5v1.5Z"/></svg>
