<?xml version="1.0" encoding="UTF-8"?>
<svg xmlns="http://www.w3.org/2000/svg" id="Layer_1" data-name="Layer 1" viewBox="0 0 24 24">
  <path d="m11.026,23H2.5c-.827,0-1.5-.673-1.5-1.5s.673-1.5,1.5-1.5h6.875c-.1-.325-.174-.66-.235-1h-4.14S5,1,5,1h13.5c.276,0,.5.224.5.5v7.64c.34.061.675.135,1,.235V1.5c0-.827-.673-1.5-1.5-1.5H2.5C1.122,0,0,1.122,0,2.5v19c0,1.378,1.122,2.5,2.5,2.5h9.529c-.362-.305-.696-.64-1.003-1ZM2.5,1h1.5v18h-1.5c-.565,0-1.081.195-1.5.513V2.5c0-.827.673-1.5,1.5-1.5Zm15,10c-3.584,0-6.5,2.916-6.5,6.5s2.916,6.5,6.5,6.5,6.5-2.916,6.5-6.5-2.916-6.5-6.5-6.5Zm0,12c-3.033,0-5.5-2.467-5.5-5.5s2.467-5.5,5.5-5.5,5.5,2.467,5.5,5.5-2.467,5.5-5.5,5.5Zm1-8c0,.552-.448,1-1,1s-1-.448-1-1,.448-1,1-1,1,.448,1,1Zm-1.5,2h1v4h-1v-4Z"/>
</svg>
