<?xml version="1.0" encoding="UTF-8"?>
<svg xmlns="http://www.w3.org/2000/svg" id="Layer_1" data-name="Layer 1" viewBox="0 0 24 24" width="512" height="512"><path d="M23.638,6.297l-1.896-3.147L12,.066,2.257,3.149,.382,6.263c-.411,.685-.487,1.507-.21,2.256s.87,1.324,1.628,1.576l.204,.068-.008,10.451,9.997,3.332,9.995-3.332,.008-10.451,.243-.081c.748-.25,1.334-.817,1.608-1.557,.274-.74,.198-1.552-.208-2.229Zm-3.844-2.715l-7.786,2.599L4.222,3.577,12,1.115l7.794,2.467ZM1.109,8.173c-.171-.463-.124-.972,.129-1.395l1.577-2.617,8.429,2.819-1.948,3.247c-.387,.645-1.155,.929-1.868,.691l-5.313-1.771c-.468-.156-.835-.512-1.006-.975Zm1.894,2.324l4.109,1.37c1.163,.389,2.412-.076,3.042-1.125l1.344-2.241-.007,14.226-8.496-2.832,.007-9.397Zm17.984,9.397l-8.496,2.832,.007-14.228,1.346,2.244c.481,.801,1.324,1.261,2.212,1.261,.275,0,.555-.044,.829-.136l4.109-1.369-.007,9.397Zm1.92-11.714c-.168,.454-.527,.802-.986,.955l-5.352,1.784c-.712,.238-1.48-.047-1.868-.691l-1.945-3.242,8.432-2.815,1.592,2.642c.249,.415,.295,.914,.127,1.368Z"/></svg>
