<?xml version="1.0" encoding="UTF-8"?>
<svg xmlns="http://www.w3.org/2000/svg" id="Layer_1" data-name="Layer 1" viewBox="0 0 24 24">
  <path d="m10,0h-3c-1.207,0-2.218.86-2.45,2H0v19.5c0,1.379,1.121,2.5,2.5,2.5h12c1.379,0,2.5-1.121,2.5-2.5V2h-4.55c-.232-1.14-1.243-2-2.45-2Zm6,21.5c0,.827-.673,1.5-1.5,1.5H2.5c-.827,0-1.5-.673-1.5-1.5V3h4.5v-.5c0-.827.673-1.5,1.5-1.5h3c.827,0,1.5.673,1.5,1.5v.5h4.5v18.5ZM21.5,0c-1.379,0-2.5,1.121-2.5,2.5v18.989l2.5,2.5,2.5-2.5V2.5c0-1.379-1.121-2.5-2.5-2.5Zm1.5,21.075l-1.5,1.5-1.5-1.5V2.5c0-.827.673-1.5,1.5-1.5s1.5.673,1.5,1.5v18.575ZM8.455,5.146l.707.707-2.827,2.827c-.213.213-.491.318-.771.318s-.559-.105-.771-.318l-1.647-1.647.707-.707,1.647,1.647c.035.035.092.035.127,0l2.827-2.827Zm0,6l.707.707-2.827,2.827c-.213.213-.491.318-.771.318s-.559-.105-.771-.318l-1.647-1.647.707-.707,1.647,1.647c.035.035.092.035.127,0l2.827-2.827Zm0,6l.707.707-2.827,2.827c-.213.213-.491.318-.771.318s-.559-.105-.771-.318l-1.647-1.647.707-.707,1.647,1.647c.035.035.092.035.127,0l2.827-2.827Z"/>
</svg>
