<?xml version="1.0" encoding="UTF-8"?>
<svg xmlns="http://www.w3.org/2000/svg" id="Layer_1" data-name="Layer 1" viewBox="0 0 24 24">
  <path d="m12,6.144L2.306,20.822c-.395.646-.409,1.427-.038,2.086.384.684,1.089,1.092,1.887,1.092h15.69c.798,0,1.504-.408,1.888-1.092.371-.66.356-1.439-.048-2.102L12,6.144Zm-3.034,16.856l3.034-4.593,3.033,4.593h-6.067Zm11.895-.582c-.205.364-.585.582-1.017.582h-3.613l-4.232-6.407-4.232,6.407h-3.613c-.431,0-.811-.218-1.015-.581-.192-.343-.187-.732.016-1.069L12,7.958l8.841,13.384c.206.339.214.73.021,1.075Zm3.139-12.918v3.5h-1v-3.5c0-2.481-2.019-4.5-4.5-4.5H1.297l3.145,3.144-.707.707L.436,5.553c-.581-.581-.581-1.525,0-2.105L3.735.149l.707.707-3.145,3.144h17.203c3.032,0,5.5,2.467,5.5,5.5Z"/>
</svg>
