<?xml version="1.0" encoding="UTF-8"?>
<svg xmlns="http://www.w3.org/2000/svg" id="Layer_1" data-name="Layer 1" viewBox="0 0 24 24" width="512" height="512"><path d="m23.406,10.891c-.478-.561-1.174-.883-1.911-.883h-11.49v-4.001h13.995v-1h-13.995v-2.334l13.958-.667-.048-.998L2.979,2.008l.048.998,1.979-.095v2.096h-2.007v1h2.007v4.001h-2.494c-.736,0-1.433.322-1.911.883-.476.559-.682,1.294-.565,2.017.76,4.71,3.949,9.256,7.754,11.053l8.326.048.101-.048c3.806-1.797,6.995-6.343,7.754-11.053.117-.723-.089-1.458-.565-2.017ZM6.005,2.864l3-.143v2.287h-3v-2.143Zm0,3.143h3v4.001h-3v-4.001Zm16.979,6.74c-.704,4.363-3.613,8.563-7.094,10.261h-7.772c-3.481-1.697-6.391-5.897-7.094-10.261-.07-.433.054-.873.339-1.208.288-.338.707-.531,1.149-.531h18.983c.443,0,.862.193,1.149.531.286.335.409.775.339,1.208Z"/></svg>
