<?xml version="1.0" encoding="UTF-8"?>
<svg xmlns="http://www.w3.org/2000/svg" id="Layer_1" data-name="Layer 1" viewBox="0 0 24 24">
  <path d="m21.5,2h-3.5V0h-1v2H7V0h-1v2h-3.5c-1.378,0-2.5,1.121-2.5,2.5v19.5h24V4.5c0-1.379-1.121-2.5-2.5-2.5ZM2.5,3h19c.827,0,1.5.673,1.5,1.5v3.5H1v-3.5c0-.827.673-1.5,1.5-1.5Zm-1.5,20v-14h22v14H1Zm15.952-9.73l-.354-.144c-.066-.026-1.394-.556-2.654-.256-.301-1.361-1.58-2.35-1.642-2.396l-.303-.23-.303.23c-.062.046-1.341,1.034-1.643,2.396-1.259-.299-2.588.229-2.654.256l-.354.144.044.379c.007.063.173,1.396.965,2.354-.792.958-.958,2.29-.965,2.354l-.044.38.354.143c.065.026,1.396.553,2.654.255.302,1.359,1.58,2.347,1.642,2.393l.303.23.303-.23c.061-.046,1.329-1.025,1.638-2.378,1.257.303,2.592-.229,2.658-.255l.354-.144-.044-.379c-.008-.064-.174-1.402-.971-2.36.797-.959.963-2.297.971-2.361l.044-.379Zm-2.036,3.126c.544.448.806,1.221.92,1.691-.511.136-1.425.292-2.096-.074l-.732-.29v.842c0,.792-.619,1.518-1.006,1.896-.387-.383-1.007-1.131-1.002-1.99l.062-.91-.801.438c-.677.37-1.585.214-2.096.076.115-.469.376-1.24.913-1.687l.462-.385-.462-.385c-.54-.449-.8-1.217-.914-1.686.511-.136,1.423-.293,2.097.074l.731.272v-.843c0-.791.618-1.517,1.006-1.895.386.385,1.008,1.137,1.003,1.993l-.061.908.799-.437c.679-.367,1.588-.213,2.098-.075-.114.471-.376,1.244-.921,1.693l-.47.386.47.386Zm-1.916-.396c0,.552-.448,1-1,1s-1-.448-1-1,.448-1,1-1,1,.448,1,1Z"/>
</svg>
