<?xml version="1.0" encoding="UTF-8"?>
<svg xmlns="http://www.w3.org/2000/svg" id="Layer_1" data-name="Layer 1" viewBox="0 0 24 24">
  <path d="m24,9.5v-5.5h-.002c0-.87-.377-1.733-1.102-2.325-1.156-.941-3.747-1.432-3.856-1.452L17.869.005l.665.988c.006.009.501.752.88,1.713-1.018-.177-1.845-.513-1.855-.518l-1.102-.451.448,1.103c.042.104,1.043,2.542,2.199,3.485.556.453,1.227.674,1.893.674.723,0,1.441-.26,2.003-.763v3.263c0,.827-.673,1.5-1.5,1.5h-1.756c-.685-2.407-2.653-3.389-4.771-3.772.017-.073.026-.149.026-.228,0-.552-.448-1-1-1s-1,.448-1,1c0,.007,0,.013,0,.02-.34-.015-.676-.02-1-.02s-.66.006-1,.02c0-.007,0-.013,0-.02,0-.552-.448-1-1-1s-1,.448-1,1c0,.078.009.155.026.228-2.117.383-4.086,1.366-4.771,3.772h-1.756c-.827,0-1.5-.673-1.5-1.5v-3.263c.562.503,1.28.763,2.002.763.667,0,1.338-.221,1.894-.674,1.156-.943,2.156-3.382,2.199-3.485l.448-1.103-1.101.451c-.01.005-.838.341-1.855.518.379-.961.874-1.704.88-1.713L6.13.005l-1.17.218c-.11.021-2.701.511-3.856,1.452C.379,2.267.003,3.13.002,4h-.002v5.5c0,1.379,1.122,2.5,2.5,2.5h1.558c-.038.314-.058.646-.058,1,0,.321.037.657.102,1h-1.809L.037,16.256l.707.707,1.963-1.963h1.655c.333,1.031.853,2.081,1.381,3h-1.82l-2.256,2.256.707.707,1.963-1.963h2.012c.54.848,1.009,1.481,1.186,1.714l-2.227,2.642.765.645,2.529-3.001h6.666l2.529,3.001.765-.645-2.158-2.561c.083-.108.612-.805,1.24-1.796h1.889l1.963,1.963.707-.707-2.256-2.256h-1.699c.528-.921,1.05-1.973,1.385-3h1.66l1.963,1.963.707-.707-2.256-2.256h-1.811c.067-.344.104-.68.104-1,0-.354-.02-.686-.058-1h1.558c1.378,0,2.5-1.121,2.5-2.5Zm-1.45-4.236c-.696.854-1.959.984-2.814.286-.511-.417-1.045-1.312-1.431-2.066.509.137,1.143.27,1.802.314l.704.047-.188-.68c-.176-.636-.434-1.23-.671-1.701.816.225,1.8.568,2.312.986.854.697.982,1.959.286,2.813ZM1.736,2.45c.512-.417,1.495-.761,2.312-.986-.236.471-.494,1.065-.67,1.701l-.188.68.704-.047c.659-.045,1.293-.178,1.802-.314-.385.755-.919,1.649-1.431,2.066-.854.698-2.117.569-2.814-.286-.697-.854-.568-2.116.286-2.813Zm17.264,10.55c0,2.041-1.853,4.992-2.821,6.395l-2.145-6.865,1.806-4.064c2.183.683,3.16,2.139,3.16,4.533Zm-8.133,0h2.265l2.188,7h-6.64l2.188-7Zm3.985-4.774l-1.677,3.774h-2.351l-1.677-3.774c.818-.152,1.766-.226,2.852-.226s2.034.073,2.852.226Zm-6.692.242l1.806,4.064-2.147,6.87c-.968-1.393-2.82-4.328-2.82-6.4,0-2.394.977-3.85,3.16-4.533Z"/>
</svg>
