<?xml version="1.0" encoding="UTF-8"?>
<svg xmlns="http://www.w3.org/2000/svg" id="Layer_1" data-name="Layer 1" viewBox="0 0 24 24">
  <path d="m21.5,19c-.648,0-1.234.254-1.679.661l-3.176-2.31,2.356-1.346V7.996l-2.356-1.346,3.176-2.31c.445.406,1.031.661,1.679.661,1.378,0,2.5-1.121,2.5-2.5s-1.122-2.5-2.5-2.5-2.5,1.121-2.5,2.5c0,.369.085.717.23,1.033l-3.537,2.573-3.693-2.111-3.693,2.111-3.537-2.573c.144-.316.23-.664.23-1.033,0-1.379-1.122-2.5-2.5-2.5S0,1.121,0,2.5s1.122,2.5,2.5,2.5c.648,0,1.234-.254,1.679-.661l3.176,2.31-2.356,1.346v8.008l2.356,1.346-3.177,2.31c-.445-.406-1.031-.66-1.679-.66-1.378,0-2.5,1.121-2.5,2.5s1.122,2.5,2.5,2.5,2.5-1.121,2.5-2.5c0-.369-.085-.717-.23-1.033l3.537-2.572,3.693,2.111,3.693-2.111,3.537,2.573c-.144.316-.23.664-.23,1.033,0,1.379,1.122,2.5,2.5,2.5s2.5-1.121,2.5-2.5-1.122-2.5-2.5-2.5Zm0-18c.827,0,1.5.673,1.5,1.5s-.673,1.5-1.5,1.5-1.5-.673-1.5-1.5.673-1.5,1.5-1.5ZM2.5,4c-.827,0-1.5-.673-1.5-1.5s.673-1.5,1.5-1.5,1.5.673,1.5,1.5-.673,1.5-1.5,1.5Zm0,19c-.827,0-1.5-.673-1.5-1.5s.673-1.5,1.5-1.5,1.5.673,1.5,1.5-.673,1.5-1.5,1.5Zm10-4.433v-6.45l5.5-3.143v6.45l-5.5,3.143Zm4.839-10.368l-5.339,3.052-5.339-3.052,5.339-3.051,5.339,3.051Zm-11.339.775l5.5,3.143v6.45l-5.5-3.143v-6.45Zm15.5,14.027c-.827,0-1.5-.673-1.5-1.5s.673-1.5,1.5-1.5,1.5.673,1.5,1.5-.673,1.5-1.5,1.5Z"/>
</svg>
