<?xml version="1.0" encoding="UTF-8"?>
<svg xmlns="http://www.w3.org/2000/svg" id="Layer_1" data-name="Layer 1" viewBox="0 0 24 24">
  <path d="m4.5,0c-1.379,0-2.5,1.121-2.5,2.5,0,1.301,1.002,2.36,2.273,2.477l-2.726,1.254c-.631.267-1.109.751-1.362,1.371-.25.618-.246,1.297.014,1.91.26.615.744,1.094,1.366,1.348.342.139.723.2,1.085.18.276-.016.548-.078.786-.179l.872-.504-2.048,3.885c-.294.588-.341,1.266-.129,1.898.213.634.658,1.145,1.254,1.44.35.176.725.265,1.116.265.957,0,1.815-.531,2.238-1.386l.261-.479v5.518c0,1.379,1.121,2.5,2.5,2.5s2.5-1.121,2.5-2.5v-6c0-.827.673-1.5,1.5-1.5s1.5.673,1.5,1.5c0,.86-.971,1.579-1.547,1.929-1.413.85-1.875,2.692-1.03,4.108.538.902,1.525,1.463,2.578,1.463.542,0,1.073-.146,1.536-.424.384-.229,2.358-1.475,3.549-3.464.211-.353,3.914-7.49,3.914-7.49V0H4.5Zm18.5,11.378c-1.458,2.811-3.626,6.978-3.771,7.221-1.091,1.822-2.991,2.991-3.205,3.119-.908.543-2.198.219-2.741-.692-.563-.944-.256-2.173.688-2.74,1.327-.807,2.029-1.77,2.029-2.785,0-1.379-1.121-2.5-2.5-2.5s-2.5,1.121-2.5,2.5v6c0,.827-.673,1.5-1.5,1.5s-1.5-.673-1.5-1.5v-6c0-2.465,1.659-4.628,4-5.291v-1.025c-1.715.408-3.142,1.507-4.03,2.954l-2.13,3.884c-.169.342-.484.615-.863.741-.382.129-.79.103-1.145-.075-.356-.176-.625-.484-.753-.866-.127-.378-.099-.785.081-1.145l2.717-5.126,6.123-3.199v-1.174L3.087,9.921c-.371.159-.784.16-1.149.011-.371-.15-.661-.438-.818-.809-.155-.367-.159-.774-.008-1.146.149-.366.436-.66.784-.809L12,2.444v-1.021l-5.603,2.577h-1.897c-.827,0-1.5-.673-1.5-1.5s.673-1.5,1.5-1.5h18.5v10.378Z"/>
</svg>
