<?xml version="1.0" encoding="UTF-8"?>
<svg xmlns="http://www.w3.org/2000/svg" id="Layer_1" data-name="Layer 1" viewBox="0 0 24 24">
  <path d="m24,4h-2.996l-.004-1.002-1,.004.004.998h-3.004v1h3.008l.024,5.877c-2.102-1.749-5.187-2.877-8.032-2.877s-5.899,1.117-8,2.852v-5.852h3v-1h-3v-1h-1v1H0v1h3v8.262l.169.149c.452.398,1.333,1.05,2.471,1.69l-1.641,3.281v2.618h1v-2.382l1.525-3.05c1.583.777,3.515,1.431,5.475,1.431s3.891-.653,5.475-1.432l1.525,3.05v2.382h1v-2.618l-1.641-3.282c1.159-.652,2.055-1.32,2.513-1.726l.169-.15-.033-8.224h2.992v-1Zm-8.335,5.628l-1.372,1.372h-4.586l-1.372-1.372c1.194-.397,2.451-.628,3.665-.628s2.471.231,3.665.628Zm-3.665,6.372c-3.418,0-6.775-2.184-8-3.195v-.589c.878-.893,2.031-1.645,3.31-2.198l1.983,1.983h5.414l1.983-1.983c1.297.561,2.465,1.325,3.347,2.234l.002.52c-1.228,1.021-4.598,3.229-8.04,3.229Z"/>
</svg>
