<?xml version="1.0" encoding="UTF-8"?>
<svg xmlns="http://www.w3.org/2000/svg" id="Layer_1" data-name="Layer 1" viewBox="0 0 24 24" width="512" height="512"><path d="m14,1V0c5.514,0,10,4.486,10,10h-1c0-4.962-4.038-9-9-9Zm5,9h1c0-3.309-2.691-6-6-6v1c2.757,0,5,2.243,5,5Zm-1.473,3.837l5.679,5.679-2.879,2.879c-1.033,1.035-2.432,1.605-3.941,1.605C9.189,24,0,14.812,0,7.613,0,6.104.57,4.705,1.605,3.672L4.484.793l5.679,5.679-3.373,3.373c1.506,3.559,3.919,5.974,7.36,7.369l3.377-3.377Zm4.265,5.679l-4.265-4.265-3.13,3.131-.303-.116c-3.92-1.496-6.732-4.306-8.357-8.352l-.123-.307,3.135-3.135L4.484,2.207l-2.172,2.172c-.846.844-1.312,1.993-1.312,3.234,0,6.615,8.772,15.387,15.387,15.387,1.241,0,2.389-.466,3.233-1.312l2.172-2.172Z"/></svg>
