<?xml version="1.0" encoding="UTF-8"?>
<svg xmlns="http://www.w3.org/2000/svg" id="Layer_1" data-name="Layer 1" viewBox="0 0 24 24" width="512" height="512"><path d="M12,16c2.92,0,5.24,2.04,5.33,2.13l-.67,.75s-2.14-1.87-4.67-1.87-4.65,1.85-4.67,1.87l-.67-.75c.1-.09,2.41-2.13,5.33-2.13Zm-4-3c.55,0,1-.45,1-1s-.45-1-1-1-1,.45-1,1,.45,1,1,1Zm8,0c.55,0,1-.45,1-1s-.45-1-1-1-1,.45-1,1,.45,1,1,1Zm8-1c0,6.62-5.38,12-12,12S0,18.62,0,12,5.38,0,12,0s12,5.38,12,12ZM12,1c-1.39,0-2.72,.26-3.95,.73,3.74,.84,8.7,2.36,13.68,5.14-1.85-3.49-5.51-5.87-9.73-5.87ZM3.4,5.15c2.36,.33,11.66,1.92,19.58,7.43,0-.19,.01-.38,.01-.58,0-1.26-.21-2.46-.6-3.59C16.55,4.92,10.59,3.24,6.56,2.44c-1.22,.7-2.29,1.62-3.16,2.7Zm-.66,.92c-1.07,1.67-1.71,3.65-1.74,5.78,1.27-.97,3.97-2.79,8.32-4.42-3.79-1.06-6.5-1.35-6.58-1.36Zm20.13,7.65c-3.94-2.84-8.28-4.65-11.92-5.8C5.08,9.9,1.87,12.4,1.05,13.09c.55,5.55,5.25,9.91,10.95,9.91s10.04-4.03,10.87-9.28Z"/></svg>
