<?xml version="1.0" encoding="UTF-8"?>
<svg xmlns="http://www.w3.org/2000/svg" id="Layer_1" data-name="Layer 1" viewBox="0 0 24 24" width="512" height="512"><path d="m.017,23.982l18.024-7.993L8.011,5.958.017,23.982Zm6.257-11.639l5.383,5.383L1.983,22.018l4.291-9.675Zm10.031,3.322l-3.668,1.627-5.928-5.929,1.626-3.667,7.97,7.969Zm-2.843-8.019c1.065-1.065,1.582-2.171,1.536-3.285-.073-1.748-1.491-2.968-1.505-2.979l.646-.764c.072.062,1.768,1.52,1.858,3.701.059,1.405-.556,2.763-1.828,4.034l-.707-.707Zm10.119,4.661l-.762.647c-.008-.009-.797-.912-1.891-.954-.676-.026-1.395.305-2.074.983l-.707-.707c.887-.888,1.841-1.321,2.831-1.274,1.535.063,2.56,1.254,2.603,1.305Zm.42-11.308c0,.552-.448,1-1,1s-1-.448-1-1,.448-1,1-1,1,.448,1,1Zm-4,5c0-.552.448-1,1-1s1,.448,1,1-.448,1-1,1-1-.448-1-1ZM8,2c0-.552.448-1,1-1s1,.448,1,1-.448,1-1,1-1-.448-1-1Zm15,16c0,.552-.448,1-1,1s-1-.448-1-1,.448-1,1-1,1,.448,1,1ZM1,3c0-.552.448-1,1-1s1,.448,1,1-.448,1-1,1-1-.448-1-1Zm17,20c0,.552-.448,1-1,1s-1-.448-1-1,.448-1,1-1,1,.448,1,1Z"/></svg>
