<?xml version="1.0" encoding="UTF-8"?>
<svg xmlns="http://www.w3.org/2000/svg" id="Layer_1" data-name="Layer 1" viewBox="0 0 24 24">
  <path d="m9.5,5.5c0,1.379,1.122,2.5,2.5,2.5s2.5-1.121,2.5-2.5-1.122-2.5-2.5-2.5-2.5,1.121-2.5,2.5Zm4,0c0,.827-.673,1.5-1.5,1.5s-1.5-.673-1.5-1.5.673-1.5,1.5-1.5,1.5.673,1.5,1.5Zm-6.5-2.5c0-1.71,2.149-3,5-3s5,1.29,5,3c0,.722-.4,1.36-1.057,1.867-.062-.371-.177-.722-.334-1.051.243-.254.391-.538.391-.848,0-1.122-1.72-1.968-4-1.968s-4,.846-4,1.968c0,.31.148.594.391.848-.156.329-.272.68-.334,1.051-.657-.507-1.057-1.145-1.057-1.867Zm13.5,3c-3.386,0-6.048,3.014-6.568,3.647-1.247.468-2.616.468-3.863,0-.521-.632-3.182-3.647-6.568-3.647C.169,6,0,14.747,0,16.5v.5h2v2h2v2.244l-1.285,2.756h18.569l-1.285-2.756v-2.244h2v-2h2v-.5c0-1.753-.169-10.5-3.5-10.5ZM3,18v-2h-1.996c.062-3.897.843-9,2.496-9,2.711,0,5.011,2.383,5.675,3.142l-4.175,8.957v-1.099h-2Zm1.285,5l5.738-12.311c1.282.412,2.672.412,3.954,0l5.738,12.311H4.285Zm16.715-7v2h-2v1.099l-4.175-8.957c.664-.759,2.964-3.142,5.675-3.142,1.651,0,2.433,5.103,2.496,9h-1.996Z"/>
</svg>
