<?xml version="1.0" encoding="UTF-8"?>
<svg xmlns="http://www.w3.org/2000/svg" id="Layer_1" data-name="Layer 1" width="512" height="512" viewBox="0 0 24 24"><path d="M24,5h-3.137l1.561,2.722-.867,.497-1.556-2.714-1.556,2.714-.867-.497,1.561-2.722h-3.137v-1h3.137l-1.561-2.722,.867-.497,1.556,2.714,1.556-2.714,.867,.497-1.561,2.722h3.137v1Zm-7.793,9.5l2.227,2.227-.707,.707-2.434-2.434h-3.343c-.106,.522-.376,.985-.753,1.334l1.735,2.861,3.343,.819-.238,.972-3.051-.754-.758,3.063-.972-.238,.82-3.343-1.734-2.859c-.263,.094-.547,.146-.842,.146s-.579-.052-.842-.146l-1.734,2.859,.82,3.343-.972,.238-.723-3.054-3.086,.745-.238-.972,3.343-.819,1.735-2.861c-.377-.349-.647-.812-.753-1.334H3.707l-2.434,2.434-.707-.707,2.227-2.227L.566,12.273l.707-.707,2.434,2.434h3.343c.106-.522,.376-.985,.753-1.334l-1.735-2.861-3.343-.819,.238-.972,3.078,.766,.731-3.075,.972,.238-.82,3.343,1.734,2.859c.263-.094,.547-.146,.842-.146s.579,.052,.842,.146l1.734-2.859-.82-3.343,.972-.238,.743,3.058,3.066-.75,.238,.972-3.343,.819-1.735,2.861c.377,.349,.647,.812,.753,1.334h3.343l2.434-2.434,.707,.707-2.227,2.227Zm-5.207,0c0-.827-.673-1.5-1.5-1.5s-1.5,.673-1.5,1.5,.673,1.5,1.5,1.5,1.5-.673,1.5-1.5Z"/></svg>
