<?xml version="1.0" encoding="UTF-8"?>
<svg xmlns="http://www.w3.org/2000/svg" id="Layer_1" data-name="Layer 1" viewBox="0 0 24 24">
  <path d="m23.67,5.423L16.811.852c-1.731-1.155-4.057-.923-5.527.547-1.318,1.319-1.639,3.324-.861,4.972l-4.422,4.422v12.207H0v1h13v-1h-6v-11.793l3.954-3.954,4.354,6.532,2.189-2.189c.463.268.983.402,1.503.402.769,0,1.536-.292,2.121-.877.981-.981,1.139-2.477.475-3.624l2.074-2.074Zm-12.103.948c-.89-1.336-.712-3.13.423-4.266.651-.651,1.52-.987,2.394-.987.649,0,1.303.186,1.872.565l5.844,3.896-6.636,6.636-3.896-5.844Zm8.847,4.043c-.586.586-1.448.731-2.172.436l2.608-2.608c.295.723.149,1.586-.436,2.172Z"/>
</svg>
