<?xml version="1.0" encoding="UTF-8"?>
<svg xmlns="http://www.w3.org/2000/svg" id="Layer_1" data-name="Layer 1" viewBox="0 0 24 24" width="512" height="512"><path d="M.761,7.833c-1.012-1.013-1.012-2.658-.002-3.669L4.824,.063l5.928,5.851-3.103,3.17-.715-.699,2.406-2.459-2.062-2.035-2.402,2.426-.711-.703,2.401-2.425-1.735-1.713L1.468,4.869c-.622,.623-.622,1.634-.001,2.255l3.976,3.931-.703,.711L.761,7.833Zm14.154,8.517l.699,.715,2.459-2.406,2.036,2.062-2.426,2.401,.703,.711,2.425-2.401,1.712,1.735-3.396,3.366c-.621,.621-1.632,.621-2.25,.002l-3.932-3.978-.711,.703,3.934,3.979c.506,.506,1.17,.759,1.834,.759s1.327-.253,1.831-.757l4.104-4.067-5.852-5.929-3.17,3.104ZM23.035,5.622L4.658,24H0v-4.657L18.377,.965c1.284-1.283,3.374-1.283,4.658,0,.622,.622,.965,1.449,.965,2.329s-.343,1.706-.965,2.328Zm-4.278,2.864l-3.243-3.243L1,19.757v3.243h3.244l14.513-14.514Zm4.243-5.192c0-.613-.238-1.188-.672-1.622-.894-.895-2.349-.895-3.244,0l-2.864,2.864,3.243,3.243,2.864-2.864c.434-.434,.672-1.009,.672-1.621Z"/></svg>
