<?xml version="1.0" encoding="UTF-8"?>
<svg xmlns="http://www.w3.org/2000/svg" id="Layer_1" data-name="Layer 1" viewBox="0 0 24 24">
  <path d="m24,14.495v.505h-1v-.505c0-.824-.671-1.495-1.495-1.495h-3.01c-.824,0-1.495.671-1.495,1.495,0,.664.446,1.255,1.084,1.438l4.106,1.174c1.065.304,1.81,1.29,1.81,2.398,0,1.376-1.119,2.495-2.495,2.495h-1.005v2h-1v-2h-1.005c-1.376,0-2.495-1.119-2.495-2.495v-.505h1v.505c0,.824.671,1.495,1.495,1.495h3.01c.824,0,1.495-.671,1.495-1.495,0-.664-.446-1.255-1.084-1.438l-4.106-1.174c-1.065-.304-1.81-1.29-1.81-2.398,0-1.376,1.119-2.495,2.495-2.495h1.005v-2h1v2h1.005c1.376,0,2.495,1.119,2.495,2.495Zm0-9.995v4.5H1v14h14.704c.769.616,1.732,1,2.792,1H0V4.5c0-1.379,1.121-2.5,2.5-2.5h3.5V0h1v2h10V0h1v2h3.5c1.379,0,2.5,1.121,2.5,2.5Zm-1,0c0-.827-.673-1.5-1.5-1.5H2.5c-.827,0-1.5.673-1.5,1.5v3.5h22v-3.5Z"/>
</svg>
