<?xml version="1.0" encoding="UTF-8"?>
<svg xmlns="http://www.w3.org/2000/svg" id="Layer_1" data-name="Layer 1" viewBox="0 0 24 24" width="512" height="512"><path d="m8.5,5c1.379,0,2.5-1.122,2.5-2.5s-1.121-2.5-2.5-2.5-2.5,1.122-2.5,2.5,1.121,2.5,2.5,2.5Zm0-4c.827,0,1.5.673,1.5,1.5s-.673,1.5-1.5,1.5-1.5-.673-1.5-1.5.673-1.5,1.5-1.5Zm9.965,4c-1.063,0-2.096.378-2.906,1.065l-3.559,3.011v-.576c0-1.378-1.121-2.5-2.5-2.5h-2c-1.379,0-2.5,1.122-2.5,2.5v6.499l-1.184,1.001H0v8h5.535c1.063,0,2.096-.378,2.906-1.065l11.742-9.935h3.816V5h-5.535Zm-12.465,3.5c0-.827.673-1.5,1.5-1.5h2c.827,0,1.5.673,1.5,1.5v1.422l-5,4.231v-5.652Zm17,3.5h-3.184l-12.021,10.172c-.631.534-1.433.828-2.26.828H1v-6h3.184l12.021-10.172c.631-.534,1.433-.828,2.26-.828h4.535v6Z"/></svg>
