<?xml version="1.0" encoding="UTF-8"?>
<svg xmlns="http://www.w3.org/2000/svg" id="Layer_1" data-name="Layer 1" viewBox="0 0 24 24" width="512" height="512"><path d="M12,23.987l-7.067-6.912c-3.903-3.903-3.903-10.247-.004-14.146C6.817,1.04,9.329,0,12,0s5.182,1.04,7.071,2.929c3.899,3.899,3.899,10.243,0,14.142l-7.071,6.916Zm0-22.987c-2.404,0-4.665,.936-6.364,2.636-3.509,3.509-3.509,9.219,0,12.728l6.364,6.225,6.368-6.229c3.505-3.505,3.505-9.215-.004-12.724-1.7-1.7-3.96-2.636-6.364-2.636Zm.5,13.133c0-.98,.667-2.208,1.428-2.628,1.5-.827,2.307-2.525,2.009-4.226-.283-1.611-1.605-2.934-3.216-3.216-1.185-.207-2.384,.11-3.292,.873-.908,.763-1.429,1.88-1.429,3.064h1c0-.889,.391-1.727,1.072-2.298,.691-.581,1.571-.812,2.476-.653,1.204,.211,2.193,1.2,2.404,2.404,.229,1.3-.363,2.547-1.506,3.177-1.073,.591-1.946,2.163-1.946,3.504v.867h1v-.867Zm.5,2.867h0c0-.552-.448-1-1-1h0c-.552,0-1,.448-1,1h0c0,.552,.448,1,1,1h0c.552,0,1-.448,1-1Z"/></svg>
