<?xml version="1.0" encoding="UTF-8"?>
<svg xmlns="http://www.w3.org/2000/svg" id="Layer_1" data-name="Layer 1" viewBox="0 0 24 24">
  <path d="m17.5,11c-3.584,0-6.5,2.916-6.5,6.5s2.916,6.5,6.5,6.5,6.5-2.916,6.5-6.5-2.916-6.5-6.5-6.5Zm0,12c-3.032,0-5.5-2.468-5.5-5.5s2.468-5.5,5.5-5.5,5.5,2.468,5.5,5.5-2.468,5.5-5.5,5.5Zm.5-4h-1v-6h1v6Zm.5,2c0,.552-.448,1-1,1s-1-.448-1-1,.448-1,1-1,1,.448,1,1Zm-10.5,1c-.775,0-2.497-.876-3.699-1.594l1.72-1.72c.687-.454,1.353-.686,1.979-.686.251,0,.621.126,1.041.317-.026-.269-.041-.541-.041-.817,0-.228.016-.452.034-.676-.257-.141-.502-.282-.732-.419l.958-.958c.377-1.516,1.151-2.874,2.219-3.946-.693-1.188-1.479-2.767-1.479-3.501,0-.765,1.102-2.58,2-3.854.898,1.274,2,3.09,2,3.854,0,.626-.232,1.292-.686,1.979l-.327.327c.75-.471,1.577-.827,2.461-1.046L23.979.729l-.707-.707-8.299,8.299c.009-.107.028-.215.028-.321,0-.78-.627-2-1.268-3.045L17.969.719,17.262.012l-4.083,4.083c-.379-.564-.691-.984-.779-1.101l-.399-.531-.399.531c-.258.344-2.453,3.306-2.588,4.858-.301-.438-.539-.759-.614-.858l-.399-.531-.399.531c-.258.343-2.447,3.294-2.593,4.85-.3-.436-.534-.751-.608-.85l-.399-.531-.399.531c-.267.354-2.601,3.501-2.601,5.006,0,1.248,1.318,3.534,1.865,4.428L.021,23.271l.707.707,2.844-2.844c.894.547,3.18,1.865,4.428,1.865.617,0,1.51-.394,2.374-.876-.181-.279-.343-.571-.492-.871-.765.429-1.474.747-1.882.747Zm0-13.854c.898,1.274,2,3.09,2,3.854,0,.626-.232,1.292-.686,1.979l-1.72,1.72c-.717-1.203-1.594-2.924-1.594-3.699,0-.765,1.102-2.58,2-3.854Zm-6,7.854c0-.765,1.102-2.58,2-3.854.898,1.274,2,3.09,2,3.854,0,.625-.229,1.288-.681,1.974l-1.726,1.726c-.717-1.203-1.594-2.925-1.594-3.699Zm17.919-6.646l3.343-3.343.707.707-3.018,3.018c-.334-.148-.677-.277-1.032-.382Z"/>
</svg>
