<?xml version="1.0" encoding="UTF-8"?>
<svg xmlns="http://www.w3.org/2000/svg" id="Layer_1" data-name="Layer 1" viewBox="0 0 24 24" width="512" height="512"><path d="m21.269,2.729l-1.301-2.6-1.3,2.6-2.601,1.301,2.601,1.3,1.3,2.6,1.301-2.6,2.6-1.3-2.6-1.301Zm-.746,1.854l-.555,1.109-.554-1.109-1.11-.554,1.11-.555.554-1.109.555,1.109,1.109.555-1.109.554Zm-13.687,12.936l-2.245-1.123-1.123-2.245-1.123,2.245L.1,17.52l2.245,1.123,1.123,2.245,1.123-2.245,2.245-1.123Zm-3.368,1.132l-.377-.755-.755-.377.755-.377.377-.755.377.755.755.377-.755.377-.377.755Zm4.532,1.349v-1h8v1h-8Zm-4,3h16v1H4v-1ZM12.045,5c1.379,0,2.5-1.121,2.5-2.5s-1.121-2.5-2.5-2.5-2.5,1.121-2.5,2.5,1.121,2.5,2.5,2.5Zm0-4c.827,0,1.5.673,1.5,1.5s-.673,1.5-1.5,1.5-1.5-.673-1.5-1.5.673-1.5,1.5-1.5Zm4.955,14H7v-1h10v1Zm-9.863-5h-1.216l1.725-2.492c.654-.944,1.73-1.508,2.878-1.508h2.951c1.147,0,2.224.563,2.878,1.507l1.726,2.493h-1.216l-1.332-1.924c-.467-.674-1.235-1.076-2.056-1.076h-2.951c-.82,0-1.589.402-2.056,1.077l-1.331,1.923Z"/></svg>
