<?xml version="1.0" encoding="UTF-8"?>
<svg xmlns="http://www.w3.org/2000/svg" id="Layer_1" data-name="Layer 1" viewBox="0 0 24 24" width="512" height="512"><path d="M10.289,16.129l-5.748,5.854,.548,.558c.579,.59,1.529,.601,2.122,.021l.699,.715c-.485,.476-1.117,.713-1.749,.713-.648,0-1.297-.25-1.786-.749l-3.12-3.177,.713-.701,1.872,1.906,5.735-5.841,.713,.7Zm7.711,5.371h1c0,1.378-1.121,2.5-2.5,2.5h-4.5v-1h3v-4.786l-5.224-4.988c-.491-.468-.768-1.101-.776-1.781-.009-.68,.252-1.318,.732-1.799l4.747-4.646H5v-1H15.277l1.922,1.606c.517,.49,.792,1.122,.801,1.802,.009,.679-.252,1.318-.732,1.798l-5.06,4.958,3.792,3.622v5.214h.5c.827,0,1.5-.673,1.5-1.5Zm-6.516-8.026l5.076-4.974h0c.288-.289,.444-.672,.439-1.079s-.17-.787-.466-1.068l-1.083-.904-5.016,4.909c-.284,.285-.44,.667-.436,1.075,.005,.408,.171,.788,.467,1.069l1.018,.972ZM22,2.5c0,1.378-1.121,2.5-2.5,2.5s-2.5-1.122-2.5-2.5,1.121-2.5,2.5-2.5,2.5,1.122,2.5,2.5Zm-1,0c0-.827-.673-1.5-1.5-1.5s-1.5,.673-1.5,1.5,.673,1.5,1.5,1.5,1.5-.673,1.5-1.5Z"/></svg>
