<?xml version="1.0" encoding="UTF-8"?>
<svg xmlns="http://www.w3.org/2000/svg" id="Layer_1" data-name="Layer 1" viewBox="0 0 24 24">
  <path d="m21.5,2.5h-3.5V0h-1v2.5H7V0h-1v2.5h-3.5c-1.378,0-2.5,1.122-2.5,2.5v8.078l1-1v-2.578h22v13.5H1v-2.078l-1-1v4.078h24V5c0-1.378-1.122-2.5-2.5-2.5ZM1,8.5v-3.5c0-.827.673-1.5,1.5-1.5h19c.827,0,1.5.673,1.5,1.5v3.5H1Zm2.967,4.854l-2.646,2.646h9.68v1H1.321l2.646,2.646-.707.707-2.84-2.84c-.271-.271-.42-.63-.42-1.014s.149-.743.42-1.014l2.84-2.839.707.707Z"/>
</svg>
