<?xml version="1.0" encoding="UTF-8"?>
<svg xmlns="http://www.w3.org/2000/svg" id="Layer_1" data-name="Layer 1" viewBox="0 0 24 24">
  <path d="m0,23h20v1H0v-1Zm24-14.5c0,2.491-2.007,5.5-4.5,5.5h-1.401l-1.176,7H3.077L.055,3.015c-.159-.719.02-1.485.496-2.079.478-.595,1.188-.936,1.95-.936h14.998c.763,0,1.475.342,1.951.938.478.595.655,1.363.489,2.107l-.329,1.956c2.791.033,4.389,1.304,4.389,3.499Zm-5.042-5.647c.105-.473-.002-.933-.288-1.29s-.713-.562-1.171-.562H2.501c-.457,0-.884.204-1.17.562-.286.355-.394.816-.295,1.262l2.887,17.177h12.154l2.881-17.147Zm4.042,5.647c0-1.659-1.235-2.5-3.557-2.5l-1.176,7h1.233c1.853,0,3.5-2.517,3.5-4.5Z"/>
</svg>
