<?xml version="1.0" encoding="UTF-8"?>
<svg xmlns="http://www.w3.org/2000/svg" id="Layer_1" data-name="Layer 1" viewBox="0 0 24 24" width="512" height="512"><path d="M8.962,4h-1V0h1V4ZM12.962,0h-1V4h1V0Zm11,18.167c0,5.265-10.586,5.833-15.137,5.833-2.139,0-8.191-1.03-8.447-1.074l-.416-.071v-6.822C-.038,11.052,3.937,7,8.825,7c.85,0,1.702,.061,2.536,.18,2.471-1.088,6.055-1.18,6.235-1.187l.84,.825,1.995-1.995c-.261-.181-.432-.482-.432-.823,0-.552,.448-1,1-1s1,.448,1,1c.552,0,1,.448,1,1s-.448,1-1,1c-.361,0-.677-.191-.853-.478l-1.997,1.997,.859,.843s-.055,1.241-.242,2.455c2.631,2.154,4.195,4.889,4.195,7.35ZM10.325,9.051c-1.815,1.815-1.815,4.77,0,6.585,1.818,1.816,4.771,1.815,6.585,0,1.634-1.634,2.01-5.866,2.077-6.876l-1.781-1.75c-.997,.059-5.244,.404-6.881,2.041Zm12.637,9.115c0-2.033-1.259-4.314-3.401-6.212-.336,1.595-.924,3.369-1.943,4.389-1.103,1.103-2.551,1.654-4,1.654s-2.896-.552-3.999-1.654c-2.205-2.205-2.205-5.793,0-7.999,.107-.107,.222-.208,.344-.306-.378-.025-.758-.039-1.137-.039-4.336,0-7.863,3.604-7.863,8.033v5.977c1.426,.236,6.121,.99,7.863,.99,6.834,0,14.137-1.27,14.137-4.833ZM4.962,0h-1V4h1V0Z"/></svg>
