<?xml version="1.0" encoding="UTF-8"?>
<svg xmlns="http://www.w3.org/2000/svg" id="Layer_1" data-name="Layer 1" viewBox="0 0 24 24" width="512" height="512"><path d="M24,20.5c0,1.93-1.57,3.5-3.5,3.5H3.5c-1.93,0-3.5-1.57-3.5-3.5,0-1.54,1.001-2.852,2.386-3.318,.221,.295,.455,.58,.702,.853-1.183,.197-2.087,1.227-2.087,2.465,0,1.379,1.122,2.5,2.5,2.5H20.5c1.378,0,2.5-1.121,2.5-2.5,0-1.238-.905-2.268-2.087-2.465,.246-.273,.481-.558,.702-.853,1.385,.467,2.386,1.778,2.386,3.318Zm-13.5-5.5h1v2h1v-2h1c1.378,0,2.5-1.121,2.5-2.5,0-1.369-.981-2.521-2.334-2.739l-3.173-.509c-.865-.14-1.493-.877-1.493-1.752,0-.827,.673-1.5,1.5-1.5h3c.827,0,1.5,.673,1.5,1.5v.5h1v-.5c0-1.379-1.122-2.5-2.5-2.5h-1V3h-1v2h-1c-1.378,0-2.5,1.121-2.5,2.5,0,1.369,.981,2.521,2.334,2.739l3.173,.509c.865,.14,1.493,.877,1.493,1.752,0,.827-.673,1.5-1.5,1.5h-3c-.827,0-1.5-.673-1.5-1.5v-.5h-1v.5c0,1.379,1.122,2.5,2.5,2.5ZM2,10C2,4.486,6.486,0,12,0s10,4.486,10,10-4.486,10-10,10S2,15.514,2,10Zm1,0c0,4.963,4.038,9,9,9s9-4.037,9-9S16.962,1,12,1,3,5.037,3,10Z"/></svg>
