<?xml version="1.0" encoding="UTF-8"?>
<svg xmlns="http://www.w3.org/2000/svg" id="Layer_1" data-name="Layer 1" viewBox="0 0 24 24" width="512" height="512"><path d="M20,4.121V0H4V4.121C.047,5.353,0,9.6,0,9.642c0,0,1.009,1.323,2,1.323v10.535c0,1.379,1.122,2.5,2.5,2.5h15c1.378,0,2.5-1.121,2.5-2.5V10.967c.992,0,2-1.279,2-1.279,0-.043-.047-4.332-4-5.566Zm1,17.379c0,.827-.673,1.5-1.5,1.5H4.5c-.827,0-1.5-.673-1.5-1.5V10.968c.664-.082,1.312-.323,1.802-.679,.527-.386,1.324-.386,1.851,0,1.277,.929,3.142,.932,4.422,0,.51-.371,1.339-.372,1.851,0,1.279,.931,3.144,.929,4.421,0,.527-.386,1.324-.386,1.851,0,.489,.356,1.137,.597,1.802,.679v10.532Zm.5-11.5c-.617,0-1.273-.199-1.713-.52-.439-.319-.977-.479-1.515-.479s-1.075,.16-1.514,.479c-.933,.68-2.311,.679-3.244,0-.85-.621-2.181-.62-3.028,0-.935,.68-2.311,.68-3.245,0-.877-.638-2.15-.64-3.029,0-.44,.32-1.096,.52-1.713,.52-.672,0-1.03-.226-1.491-.728,.056-.742,.473-3.471,3.557-4.272h12.435v-1H5V1h14v3.891l.379,.095c3.138,.784,3.557,3.579,3.613,4.333-.437,.47-.792,.682-1.492,.682Z"/></svg>
