<?xml version="1.0" encoding="UTF-8"?>
<svg xmlns="http://www.w3.org/2000/svg" id="Layer_1" data-name="Layer 1" viewBox="0 0 24 24">
  <path d="m6,5.5v3c0,.827.673,1.5,1.5,1.5s1.5-.673,1.5-1.5h1c0,1.379-1.122,2.5-2.5,2.5s-2.5-1.121-2.5-2.5v-3c0-1.379,1.122-2.5,2.5-2.5s2.5,1.121,2.5,2.5h-1c0-.827-.673-1.5-1.5-1.5s-1.5.673-1.5,1.5Zm8.172,5.387c.404-.168.709-.537.814-.985l1.647-6.645h-1.03l-1.589,6.411c-.033.143-.118.251-.228.297-.116.049-.244.046-.351-.009-.105-.054-.181-.149-.206-.261l-1.696-6.438h-1.034l1.759,6.679c.089.385.353.722.722.911.369.19.805.205,1.191.041ZM22,0v16.707l-7.293,7.293H4.5c-1.378,0-2.5-1.121-2.5-2.5V0h20ZM4.5,23h9.5v-7h7V1H3v20.5c0,.827.673,1.5,1.5,1.5Zm10.5-6v5.293l5.293-5.293h-5.293Z"/>
</svg>
