<?xml version="1.0" encoding="UTF-8"?>
<svg xmlns="http://www.w3.org/2000/svg" id="Layer_1" data-name="Layer 1" viewBox="0 0 24 24" width="512" height="512"><path d="m20.212,2.733L12,.011,3.788,2.733c-1.069.355-1.788,1.349-1.788,2.473v6.651c0,6.611,7.16,10.703,9.354,11.8l.626.313.65-.262c2.198-.884,9.37-4.352,9.37-11.852v-6.651c0-1.125-.719-2.119-1.788-2.473Zm.788,9.124c0,6.873-6.692,10.099-8.744,10.924l-.231.094-.224-.112c-2.065-1.032-8.801-4.868-8.801-10.905v-6.651c0-.692.443-1.305,1.103-1.523l7.897-2.619,7.897,2.619c.66.218,1.103.83,1.103,1.523v6.651Zm-5.146-4.004c.196.094.415.146.646.146.827,0,1.5-.673,1.5-1.5s-.673-1.5-1.5-1.5-1.5.673-1.5,1.5c0,.231.053.451.147.647l-.695.695c-.553-.43-1.222-.719-1.952-.81v-2.031h-1v2.031c-.729.091-1.398.38-1.952.81l-.695-.695c.094-.196.147-.415.147-.647,0-.827-.673-1.5-1.5-1.5s-1.5.673-1.5,1.5.673,1.5,1.5,1.5c.231,0,.45-.053.646-.146l.695.695c-.43.553-.719,1.222-.81,1.951h-2.031v1h2.031c.091.729.38,1.398.81,1.951l-.695.695c-.196-.094-.415-.146-.646-.146-.827,0-1.5.673-1.5,1.5s.673,1.5,1.5,1.5,1.5-.673,1.5-1.5c0-.231-.053-.451-.147-.647l.695-.695c.553.43,1.222.719,1.952.81v2.031h1v-2.031c.729-.091,1.398-.38,1.952-.81l.695.695c-.094.196-.147.415-.147.647,0,.827.673,1.5,1.5,1.5s1.5-.673,1.5-1.5-.673-1.5-1.5-1.5c-.231,0-.45.053-.646.146l-.695-.695c.43-.553.719-1.222.81-1.951h2.031v-1h-2.031c-.091-.729-.38-1.398-.81-1.951l.695-.695Zm.646-1.854c.276,0,.5.225.5.5s-.224.5-.5.5-.5-.225-.5-.5.224-.5.5-.5Zm-1.5,5c0,1.654-1.346,3-3,3s-3-1.346-3-3,1.346-3,3-3,3,1.346,3,3Zm-7.5-4c-.276,0-.5-.225-.5-.5s.224-.5.5-.5.5.225.5.5-.224.5-.5.5Zm0,9c-.276,0-.5-.225-.5-.5s.224-.5.5-.5.5.225.5.5-.224.5-.5.5Zm9-1c.276,0,.5.225.5.5s-.224.5-.5.5-.5-.225-.5-.5.224-.5.5-.5Z"/></svg>
