<?xml version="1.0" encoding="UTF-8"?>
<svg xmlns="http://www.w3.org/2000/svg" id="Layer_1" data-name="Layer 1" viewBox="0 0 24 24">
  <path d="m21.5,0H2.5C1.121,0,0,1.122,0,2.5v21.5h24V2.5c0-1.378-1.121-2.5-2.5-2.5Zm1.5,23H1V2.5c0-.827.673-1.5,1.5-1.5h19c.827,0,1.5.673,1.5,1.5v20.5ZM8.561,6.439l3.293,3.293-.707.707-3.146-3.146v10.707h-1V7.293l-3.146,3.146-.707-.707,3.293-3.293c.584-.585,1.537-.585,2.121,0Zm11.586,7.121l.707.707-3.293,3.293c-.292.292-.677.438-1.061.438s-.769-.146-1.061-.438l-3.293-3.293.707-.707,3.146,3.146V6h1v10.707l3.146-3.146Z"/>
</svg>
