<?xml version="1.0" encoding="UTF-8"?>
<svg xmlns="http://www.w3.org/2000/svg" id="Layer_1" data-name="Layer 1" viewBox="0 0 24 24">
  <path d="m17.998,19v-8h1v8h-1Zm-6.902-12.649l3.511,12.649h-1.014l-1.117-4h-5.958l-1.117,4h-1.014l3.537-12.75c.107-.464.413-.854.839-1.073.434-.223.937-.236,1.417-.034.439.184.779.627.915,1.208Zm1.101,7.649l-2.105-7.537c-.069-.273-.313-.463-.595-.463s-.526.19-.591.45l-2.109,7.55h5.4Zm10.801,9H.998V2.5c0-.827.673-1.5,1.5-1.5h12.5V0H2.498C1.119,0-.002,1.122-.002,2.5v21.5h24v-15h-1v14ZM14.437,4.836l3.188-1.594L19.218.055l1.594,3.188,3.188,1.594-3.188,1.594-1.594,3.188-1.593-3.188-3.188-1.594Zm2.236,0l1.697.849.848,1.697.849-1.697,1.697-.849-1.697-.849-.849-1.697-.848,1.697-1.697.849Z"/>
</svg>
