<?xml version="1.0" encoding="UTF-8"?>
<svg xmlns="http://www.w3.org/2000/svg" id="Layer_1" data-name="Layer 1" viewBox="0 0 24 24">
  <path d="m4,12c0,1.061.212,2.073.589,3h-1.064c-.334-.94-.525-1.947-.525-3C3,7.038,7.037,3,12,3c1.479,0,2.872.365,4.104,1h-4.104c-4.411,0-8,3.589-8,8Zm8,9c4.963,0,9-4.038,9-9,0-1.053-.191-2.06-.525-3h-1.064c.377.927.589,1.939.589,3,0,4.411-3.589,8-8,8h-4.104c1.232.635,2.625,1,4.104,1Zm0-20c3.757,0,7.157,1.87,9.199,5h-5.199v1h5.5c.827,0,1.5-.673,1.5-1.5V0h-1v5.402C19.768,2.02,16.077,0,12,0,5.383,0,0,5.383,0,12h1C1,5.935,5.935,1,12,1Zm.842,14h-1.684c-.576,0-1.158-.309-1.158-1h-1c0,1.159.907,2,2.158,2h.342v1h1v-1h.342c1.19,0,2.158-.968,2.158-2.158,0-1.059-.759-1.954-1.795-2.127l-2.237-.415c-.561-.094-.968-.574-.968-1.142,0-.639.52-1.158,1.158-1.158h1.684c.576,0,1.158.309,1.158,1h1c0-1.159-.907-2-2.158-2h-.342v-1h-1v1h-.342c-1.19,0-2.158.968-2.158,2.158,0,1.059.759,1.954,1.795,2.127l2.237.415c.561.094.968.574.968,1.142,0,.639-.52,1.158-1.158,1.158Zm10.158-3c0,6.065-4.935,11-11,11-3.757,0-7.157-1.87-9.199-5h5.199v-1H2.5c-.827,0-1.5.673-1.5,1.5v5.5h1v-5.402c2.232,3.383,5.923,5.402,10,5.402,6.617,0,12-5.383,12-12h-1Z"/>
</svg>
