<?xml version="1.0" encoding="UTF-8"?>
<svg xmlns="http://www.w3.org/2000/svg" id="Layer_1" data-name="Layer 1" viewBox="0 0 24 24" width="512" height="512"><path d="m22.861,10.718c-1.07-2.574-2.082-5.006-3.143-6.316C17.113.922,12.825-.662,8.532.261,4.138,1.208.844,4.711.139,9.186c-.514,3.269.326,6.515,2.306,8.904.358.432.556.986.556,1.561v4.35h13v-3h2.358c1.188,0,2.22-.847,2.452-2.013l.793-3.987h2.396v-1.5s-.773-1.904-1.139-2.782Zm-12.361-2.718c1.654,0,3,1.346,3,3s-1.346,3-3,3-3-1.346-3-3,1.346-3,3-3Zm12.5,6h-2.217l-.953,4.792c-.14.7-.759,1.208-1.472,1.208h-3.358v3H4v-3.35c0-.807-.279-1.588-.786-2.199-1.796-2.168-2.557-5.125-2.087-8.11C1.767,5.277,4.756,2.098,8.743,1.239c.42-.091.839-.155,1.257-.193v5.985c-1.971.247-3.5,1.932-3.5,3.969,0,2.206,1.794,4,4,4s4-1.794,4-4c0-2.037-1.529-3.722-3.5-3.969V1.003c3.103.017,6.01,1.451,7.93,4.013.981,1.214,2.012,3.69,3.009,6.086.354.852.708,1.702,1.062,2.504v.395Z"/></svg>
