<?xml version="1.0" encoding="UTF-8"?>
<svg xmlns="http://www.w3.org/2000/svg" id="Layer_1" data-name="Layer 1" viewBox="0 0 24 24" width="512" height="512"><path d="m6.167,18.23c-.19.19-.117.422-.089.487.027.066.139.282.422.282h12.5v1H6.5c-.601,0-1.116-.345-1.346-.899-.229-.555-.108-1.163.316-1.587l12.404-11.744c.19-.19.117-.422.089-.487-.027-.066-.139-.282-.422-.282H5v-1h12.542c.601,0,1.116.345,1.346.899.23.555.108,1.163-.316,1.587l-12.404,11.744ZM24,2.5v21.5H0V2.5C0,1.121,1.122,0,2.5,0h19c1.378,0,2.5,1.121,2.5,2.5Zm-1,0c0-.827-.673-1.5-1.5-1.5H2.5c-.827,0-1.5.673-1.5,1.5v20.5h22V2.5Z"/></svg>
