<?xml version="1.0" encoding="UTF-8"?>
<svg xmlns="http://www.w3.org/2000/svg" id="Layer_1" data-name="Layer 1" viewBox="0 0 24 24" width="512" height="512"><path d="M4,24h-1V14.64l-2.26,2.32L.03,16.27l3.18-3.27h.8v11ZM8,7v-3C8,1.79,6.21,0,4,0S0,1.79,0,4v3c0,2.21,1.79,4,4,4s4-1.79,4-4Zm-1-3v3c0,1.65-1.35,3-3,3s-3-1.35-3-3v-3c0-1.65,1.35-3,3-3s3,1.35,3,3Zm17,13.5c0-3.58-2.92-6.5-6.5-6.5s-6.5,2.92-6.5,6.5,2.92,6.5,6.5,6.5,6.5-2.92,6.5-6.5Zm-1,0c0,3.03-2.47,5.5-5.5,5.5s-5.5-2.47-5.5-5.5,2.47-5.5,5.5-5.5,5.5,2.47,5.5,5.5Zm-5.07,2.06l3.56-3.56-.71-.71-3.56,3.56c-.2,.2-.51,.19-.71,0l-2.17-2.17-.71,.71,2.17,2.17c.29,.29,.68,.44,1.06,.44s.77-.15,1.06-.44ZM14,1.64V9.76c.32-.15,.66-.28,1-.39V0h-.8l-3.18,3.27,.72,.7,2.26-2.32Zm-3.17,21.12c-1.08-.46-1.83-1.52-1.83-2.76v-3c0-.25,.04-.49,.1-.72,.14-.96,.43-1.87,.87-2.7-1.17,.7-1.96,1.96-1.96,3.42v3c0,2.21,1.79,4,4,4,0,0,.02,0,.03,0-.44-.37-.84-.78-1.19-1.23Z"/></svg>
