<?xml version="1.0" encoding="UTF-8"?>
<svg xmlns="http://www.w3.org/2000/svg" id="Layer_1" data-name="Layer 1" viewBox="0 0 24 24">
  <path d="m17,9c0,.552-.448,1-1,1s-1-.448-1-1,.448-1,1-1,1,.448,1,1Zm7,8.5v2.899c0,1.279-.902,2.383-2.099,2.569-.132.021-.264.03-.395.03-.593,0-1.165-.207-1.615-.593-.555-.476-.873-1.171-.872-1.908v-2.499h-2.995v5h-5.001l.01-5h-6.024l-.01,5H0v-14.5C0,5.467,2.468,3,5.5,3h2.765c1.01-1.221,2.535-2,4.239-2,2.352,0,4.463,1.545,5.201,3.783,1.434.907,2.314,2.487,2.313,4.169v11.547c0,.445.19.863.522,1.148.332.284.757.403,1.205.333.715-.111,1.253-.791,1.253-1.581v-2.899h1Zm-4.98-.5v-7.998c0-1.464-.741-2.738-1.985-3.458l-.173-.101-.057-.192c-.556-1.915-2.324-3.251-4.3-3.251-2.481,0-4.5,2.019-4.5,4.5s2.019,4.5,4.5,4.5v1c-3.032,0-5.5-2.467-5.5-5.5,0-.9.217-1.75.602-2.5h-2.107c-2.481,0-4.5,2.019-4.5,4.5v13.5h3.001l.01-5h8.024l-.01,5h2.999v-5h3.995Z"/>
</svg>
