<?xml version="1.0" encoding="UTF-8"?>
<svg xmlns="http://www.w3.org/2000/svg" id="Layer_1" data-name="Layer 1" viewBox="0 0 24 24" width="512" height="512"><path d="M12,0C5.383,0,0,5.383,0,12s5.383,12,12,12,12-5.383,12-12S18.617,0,12,0Zm0,23c-6.065,0-11-4.935-11-11S5.935,1,12,1s11,4.935,11,11-4.935,11-11,11Zm5.576-8.765l.849,.528c-.057,.091-1.42,2.237-4.425,2.237h-6v-1h6c2.432,0,3.531-1.693,3.576-1.765Zm-1.576-4.235h-3v-1h4c.552,0,1,.448,1,1s-.448,1-1,1-1-.448-1-1Zm-8,0h-3v-1h4c.552,0,1,.448,1,1s-.448,1-1,1-1-.448-1-1Z"/></svg>
