<?xml version="1.0" encoding="UTF-8"?>
<svg xmlns="http://www.w3.org/2000/svg" id="Layer_1" data-name="Layer 1" viewBox="0 0 24 24" width="512" height="512"><path d="M21.5,3H2.5c-1.38,0-2.5,1.12-2.5,2.5v15.5H24V5.5c0-1.38-1.12-2.5-2.5-2.5ZM2.5,4H21.5c.83,0,1.5,.67,1.5,1.5v.5H1v-.5c0-.83,.67-1.5,1.5-1.5ZM1,20V7H23v13H1ZM18.56,9H5.44l-.15,.17c-.05,.06-1.29,1.48-1.29,3.83s1.24,3.77,1.29,3.83l.15,.17h13.12l.15-.17c.05-.06,1.29-1.48,1.29-3.83s-1.24-3.77-1.29-3.83l-.15-.17Zm-3.56,1v6h-6v-6h6Zm-10,3c0-1.53,.64-2.61,.91-3h2.09v6h-2.09c-.28-.4-.91-1.47-.91-3Zm13.09,3h-2.09v-6h2.09c.28,.4,.91,1.47,.91,3s-.63,2.6-.91,3Z"/></svg>
