<?xml version="1.0" encoding="UTF-8"?>
<svg xmlns="http://www.w3.org/2000/svg" id="Layer_1" data-name="Layer 1" viewBox="0 0 24 24" width="512" height="512"><path d="M5.5,5c1.38,0,2.5-1.12,2.5-2.5S6.88,0,5.5,0,3,1.12,3,2.5s1.12,2.5,2.5,2.5Zm0-4c.83,0,1.5,.67,1.5,1.5s-.67,1.5-1.5,1.5-1.5-.67-1.5-1.5,.67-1.5,1.5-1.5Zm3.29,7.05c-.22-1.19-1.25-2.05-2.46-2.05h-1.7c-1.21,0-2.25,.87-2.46,2.06L.04,20H3v4h1v-4h3v4h1v-4h2.95l-2.16-11.95Zm-5.63,.18c.13-.72,.75-1.24,1.48-1.24h1.7c.73,0,1.35,.52,1.48,1.23l1.95,10.77H1.23l1.92-10.76Zm15.35-3.24c1.38,0,2.5-1.12,2.5-2.5s-1.12-2.5-2.5-2.5-2.5,1.12-2.5,2.5,1.12,2.5,2.5,2.5Zm0-4c.83,0,1.5,.67,1.5,1.5s-.67,1.5-1.5,1.5-1.5-.67-1.5-1.5,.67-1.5,1.5-1.5Zm5.47,19l-2.18-11.95c-.22-1.19-1.25-2.05-2.46-2.05h-1.66c-1.21,0-2.25,.87-2.46,2.06l-2.14,11.94h2.93v4h1v-4h3v4h1v-4h2.97Zm-7.77-11.76c.13-.72,.75-1.24,1.48-1.24h1.66c.73,0,1.35,.52,1.48,1.23l1.96,10.77H14.27l1.93-10.76Z"/></svg>
