<?xml version="1.0" encoding="UTF-8"?>
<svg xmlns="http://www.w3.org/2000/svg" id="Layer_1" data-name="Layer 1" viewBox="0 0 24 24" width="512" height="512"><path d="m17.75,0c-2.615,0-4.805,2.936-5.75,7.22C11.055,2.936,8.865,0,6.25,0,2.745,0,0,5.271,0,12s2.745,12,6.25,12c2.615,0,4.805-2.936,5.75-7.221.945,4.284,3.135,7.221,5.75,7.221,3.505,0,6.25-5.271,6.25-12S21.255,0,17.75,0ZM6.25,23c-2.227,0-4.178-3.09-4.923-7.288.428.765,1.236,1.288,2.173,1.288,1.378,0,2.5-1.121,2.5-2.5s-1.122-2.5-2.5-2.5c-1.164,0-2.137.804-2.414,1.883-.053-.615-.086-1.242-.086-1.883C1,6.037,3.404,1,6.25,1s5.25,5.037,5.25,11-2.404,11-5.25,11ZM2,14.5c0-.827.673-1.5,1.5-1.5s1.5.673,1.5,1.5-.673,1.5-1.5,1.5-1.5-.673-1.5-1.5Zm15.75,8.5c-2.091,0-3.94-2.725-4.776-6.534.424.329.949.534,1.526.534,1.378,0,2.5-1.121,2.5-2.5s-1.122-2.5-2.5-2.5c-.807,0-1.518.39-1.975.985-.015-.326-.025-.653-.025-.985,0-5.963,2.404-11,5.25-11s5.25,5.037,5.25,11-2.404,11-5.25,11Zm-4.75-8.5c0-.827.673-1.5,1.5-1.5s1.5.673,1.5,1.5-.673,1.5-1.5,1.5-1.5-.673-1.5-1.5Z"/></svg>
