<?xml version="1.0" encoding="UTF-8"?>
<svg xmlns="http://www.w3.org/2000/svg" id="Layer_1" data-name="Layer 1" viewBox="0 0 24 24" width="512" height="512"><path d="M12.509,11.494c-.444-.445-1.104-.591-1.69-.376L.091,15.017l4.092,4.092-3.036,3.036,.707,.707,3.036-3.036,4.091,4.092,3.901-10.726c.217-.595,.073-1.242-.374-1.689Zm-.565,1.347l-3.364,9.25L1.909,15.421l9.252-3.364c.229-.084,.469-.028,.641,.144,.175,.174,.226,.408,.142,.64Zm12.056-2.841c0,5.514-4.486,10-10,10-.358,0-.711-.021-1.06-.058l.353-.97c.233,.018,.469,.028,.707,.028,4.971,0,9-4.029,9-9S18.971,1,14,1,5,5.029,5,10c0,.238,.009,.474,.028,.707l-.97,.353c-.037-.348-.058-.702-.058-1.06C4,4.486,8.486,0,14,0s10,4.486,10,10Zm-5,0c0-2.761-2.239-5-5-5-2.504,0-4.577,1.84-4.943,4.242l-1.038,.377c.198-3.131,2.801-5.619,5.981-5.619,3.309,0,6,2.691,6,6,0,3.18-2.488,5.783-5.619,5.981l.377-1.038c2.402-.365,4.242-2.439,4.242-4.943Z"/></svg>
