<?xml version="1.0" encoding="UTF-8"?>
<svg xmlns="http://www.w3.org/2000/svg" id="Layer_1" data-name="Layer 1" viewBox="0 0 24 24">
  <path d="m22.937,12.524c-.791-.844-3.602-3.675-6.972-5.141.023-.124.035-.252.035-.384,0-.997-.534-1.928-1.357-2.579.235-.434.357-.918.357-1.421,0-1.654-1.346-3-3-3s-3,1.346-3,3c0,.503.123.987.357,1.421-.823.651-1.357,1.582-1.357,2.579,0,.131.012.258.035.381-3.554,1.527-6.439,4.443-7.179,5.358C.209,13.538-.087,14.54.021,15.562c.109,1.022.611,1.94,1.413,2.586.711.572,1.566.851,2.416.851,1.125,0,2.242-.489,3.002-1.429.22-.272.546-.786.936-1.452.572,2.806,1.924,7.882,4.212,7.882s3.633-5.048,4.207-7.859c.492.824.865,1.373,1.118,1.643.756.807,1.78,1.214,2.807,1.214.943,0,1.888-.344,2.629-1.038,1.547-1.45,1.625-3.889.175-5.436ZM12,1c1.103,0,2,.897,2,2,0,.316-.073.62-.212.896-.545-.252-1.155-.396-1.788-.396s-1.243.144-1.788.396c-.139-.276-.212-.581-.212-.896,0-1.103.897-2,2-2Zm0,3.5c1.717,0,3,1.32,3,2.5,0,1.212-2.042,2.152-3,2.475-.958-.322-3-1.263-3-2.475,0-1.18,1.283-2.5,3-2.5Zm.989,5.668c.535,1.048,1.026,1.993,1.472,2.832h-4.95c.5-.938,1.011-1.917,1.486-2.839.423.179.898.306,1.004.339.105-.032.573-.157.989-.332Zm-5.481,4.423c-.68,1.219-1.168,2.022-1.434,2.35-.989,1.222-2.79,1.413-4.014.427-.593-.478-.964-1.157-1.045-1.913-.081-.755.138-1.496.617-2.087.878-1.086,3.672-3.723,6.791-5.065.407.599,1.051,1.07,1.674,1.42-1.03,1.997-2.59,4.864-2.589,4.868Zm4.492,8.409c-.678,0-1.446-1.143-2.128-3h4.256c-.682,1.857-1.45,3-2.128,3Zm2.465-4h-4.931c-.191-.615-.372-1.285-.539-2h6.008c-.167.715-.348,1.385-.539,2Zm.756-3h-6.443c-.081-.399-.157-.81-.228-1.229.137-.249.278-.506.422-.771h6.025c.155.285.303.555.445.809-.069.406-.143.804-.221,1.191Zm6.856,1.23c-1.145,1.073-2.95,1.015-4.022-.13-.29-.309-.83-1.165-1.569-2.477.002-.015-1.595-2.928-2.598-4.893.627-.35,1.276-.824,1.687-1.426,3.189,1.39,5.875,4.097,6.632,4.904,1.073,1.145,1.015,2.949-.129,4.022Z"/>
</svg>
