<?xml version="1.0" encoding="UTF-8"?>
<svg xmlns="http://www.w3.org/2000/svg" id="Layer_1" data-name="Layer 1" viewBox="0 0 24 24" width="512" height="512"><path d="M12,16.511s.66,.185,.987,.276V8.205c-.332-.075-.812-.187-1.196-.288l-2.313,2.376,.717,.698,1.806-1.842v7.362ZM6,8c0,.552-.448,1-1,1s-1-.448-1-1,.448-1,1-1,1,.448,1,1Zm13,1c.552,0,1,.448,1,1s-.448,1-1,1-1-.448-1-1,.448-1,1-1ZM6,14c0,.552-.448,1-1,1s-1-.448-1-1,.448-1,1-1,1,.448,1,1Zm13,1c.552,0,1,.448,1,1s-.448,1-1,1-1-.448-1-1,.448-1,1-1Zm-1.772,6c-1.635,0-3.528-.518-5.358-1.018-1.767-.483-3.594-.982-5.095-.982-2.989,0-6.042,1.328-6.073,1.341l-.701,.309V6.802c0-.974,.534-1.855,1.394-2.299,1.33-.686,3.343-1.503,5.381-1.503,1.646,0,3.277,.521,4.854,1.023,1.575,.502,3.062,.977,4.553,.977,1.622,0,2.891-.376,3.91-.679,.242-.072,.468-.139,.676-.194,.773-.204,1.582-.042,2.218,.448,.645,.496,1.015,1.247,1.015,2.061v12.765l-.294,.133c-.132,.06-3.271,1.466-6.479,1.466Zm-10.453-3c1.635,0,3.528,.518,5.358,1.018,1.767,.483,3.594,.982,5.095,.982,2.447,0,4.937-.915,5.772-1.253V6.636c0-.5-.228-.963-.624-1.268-.389-.299-.882-.398-1.353-.274-.199,.053-.415,.117-.647,.186-1.024,.304-2.427,.72-4.194,.72-1.646,0-3.278-.521-4.856-1.024-1.574-.502-3.061-.976-4.551-.976-1.837,0-3.69,.757-4.922,1.392-.526,.271-.853,.812-.853,1.41v12.345c1.123-.416,3.432-1.147,5.774-1.147Z"/></svg>
