<?xml version="1.0" encoding="UTF-8"?>
<svg xmlns="http://www.w3.org/2000/svg" id="Layer_1" data-name="Layer 1" viewBox="0 0 24 24">
  <path d="m21.864,18.127c-.682-5.562-3.764-11.411-7.957-12.812.667-.551,1.094-1.384,1.094-2.315,0-1.654-1.346-3-3-3s-3,1.346-3,3c0,.931.426,1.764,1.094,2.315-4.193,1.401-7.276,7.25-7.957,12.812-1.234.372-2.136,1.519-2.136,2.873,0,1.654,1.346,3,3,3h18c1.654,0,3-1.346,3-3,0-1.354-.902-2.501-2.136-2.873ZM10,3c0-1.103.897-2,2-2s2,.897,2,2-.897,2-2,2-2-.897-2-2Zm2,3c4.393,0,8.035,6.103,8.839,12H3.161c.137-1.004.356-2.015.647-3h14.294c-.112-.341-.231-.674-.359-1H4.132c1.537-4.368,4.479-8,7.868-8Zm9,17H3c-1.103,0-2-.897-2-2s.897-2,2-2h18c1.103,0,2,.897,2,2s-.897,2-2,2Z"/>
</svg>
