<?xml version="1.0" encoding="UTF-8"?>
<svg xmlns="http://www.w3.org/2000/svg" id="Layer_1" data-name="Layer 1" viewBox="0 0 24 24" width="512" height="512"><path d="M24,15.5c0-2.721-1.683-5.054-4.061-6.021-.04,.344-.104,.68-.184,1.01,1.91,.863,3.245,2.783,3.245,5.011,0,1.846-.917,3.479-2.317,4.476l-5.884-5.884c1.914-1.131,3.201-3.212,3.201-5.592,0-3.584-2.916-6.5-6.5-6.5H6.5c-1.062,0-2.107,.26-3.039,.754L.754,.047,.047,.754,23.246,23.953l.707-.707-2.553-2.553c1.577-1.187,2.6-3.071,2.6-5.193Zm-13.064-5.271c.496-.148,1.021-.229,1.564-.229h2.149c.149-.311,.249-.646,.301-1h-2.449c-.829,0-1.62,.159-2.348,.445L4.207,3.5c.716-.328,1.499-.5,2.293-.5h5c3.032,0,5.5,2.468,5.5,5.5,0,2.105-1.19,3.936-2.933,4.86l-3.131-3.131Zm-.479,3.771l1,1h-2.406c.051-.354,.151-.689,.301-1h1.106Zm-6.212-.489c-.08,.33-.144,.666-.184,1.01C1.683,13.554,0,11.221,0,8.5c0-1.364,.442-2.667,1.207-3.749l.719,.719c-.587,.888-.927,1.935-.927,3.03,0,2.228,1.335,4.147,3.245,5.011Zm13.212,7.489l.932,.932c-.291,.04-.586,.068-.889,.068h-5c-3.584,0-6.5-2.916-6.5-6.5,0-1.654,.626-3.161,1.647-4.309l.707,.707c-.841,.966-1.354,2.224-1.354,3.603,0,3.032,2.468,5.5,5.5,5.5h4.957Z"/></svg>
