<?xml version="1.0" encoding="UTF-8"?>
<svg xmlns="http://www.w3.org/2000/svg" id="Layer_1" data-name="Layer 1" viewBox="0 0 24 24" width="512" height="512"><path d="M24,21h-2.29l2.25,2.25-.71,.71-6.96-6.96c-1.89-.09-3.29-1.72-3.29-3.87v-2.25c0-2.21,1.48-3.88,3.45-3.88h.33c1.34,0,2.53,.9,3.11,2.36l-.93,.37c-.43-1.07-1.26-1.73-2.18-1.73h-.33c-1.42,0-2.45,1.21-2.45,2.88v2.25c0,1.67,1.03,2.88,2.45,2.88h.33c.9,0,1.73-.65,2.16-1.69l.92,.38c-.46,1.12-1.3,1.91-2.28,2.19l3.11,3.11h2.29V5.5c0-.83-.67-1.5-1.5-1.5H4.71l3,3h.07c1.34,0,2.53,.9,3.11,2.36l-.93,.37c-.43-1.07-1.26-1.73-2.18-1.73h-.33c-1.42,0-2.45,1.21-2.45,2.88v2.25c0,1.67,1.03,2.88,2.45,2.88h.33c.9,0,1.73-.65,2.16-1.69l.92,.38c-.59,1.42-1.77,2.3-3.09,2.3h-.33c-1.97,0-3.45-1.67-3.45-3.88v-2.25c0-1.81,1-3.26,2.45-3.72L.05,.75,.75,.05,3.71,3H21.5c1.38,0,2.5,1.12,2.5,2.5v15.5ZM1,20V5.5c0-.28,.08-.53,.21-.75l-.72-.72c-.3,.41-.49,.92-.49,1.47v15.5H17.46l-1-1H1Z"/></svg>
