<?xml version="1.0" encoding="UTF-8"?>
<svg xmlns="http://www.w3.org/2000/svg" id="Layer_1" data-name="Layer 1" viewBox="0 0 24 24" width="512" height="512"><path d="M22.119,1.595c-.56-.476-1.302-.677-2.035-.562-1.188,.193-2.084,1.299-2.084,2.573v4.894c-.418-.315-.938-.501-1.5-.501-.817,0-1.544,.394-2,1.002-.456-.608-1.183-1.002-2-1.002-.562,0-1.082,.187-1.5,.501V2.607C11,1.333,10.104,.228,8.916,.034c-.732-.117-1.476,.085-2.035,.562-.56,.476-.881,1.17-.881,1.905V15.101l-1.796-1.428c-1.006-.939-2.59-.886-3.53,.119-.941,1.007-.888,2.593,.112,3.53l6.926,6.678h15.288V3.5c0-.734-.321-1.429-.881-1.905Zm-7.119,8.905c0-.827,.673-1.5,1.5-1.5s1.5,.673,1.5,1.5v2c0,.827-.673,1.5-1.5,1.5s-1.5-.673-1.5-1.5v-2Zm-4,0c0-.827,.673-1.5,1.5-1.5s1.5,.673,1.5,1.5v2c0,.827-.673,1.5-1.5,1.5s-1.5-.673-1.5-1.5v-2Zm11,12.5H8.116L1.475,16.598c-.604-.566-.635-1.519-.07-2.123,.563-.603,1.514-.635,2.146-.045l3.449,2.746V2.5c0-.441,.193-.857,.529-1.143,.341-.29,.779-.408,1.227-.336,.709,.115,1.245,.797,1.245,1.586V12.5c0,1.378,1.122,2.5,2.5,2.5,.817,0,1.544-.394,2-1.002,.456,.608,1.183,1.002,2,1.002,1.378,0,2.5-1.122,2.5-2.5V3.607c0-.789,.535-1.471,1.244-1.586,.452-.074,.886,.046,1.227,.336,.336,.286,.529,.703,.529,1.143V23Z"/></svg>
