<?xml version="1.0" encoding="UTF-8"?>
<svg xmlns="http://www.w3.org/2000/svg" id="Layer_1" data-name="Layer 1" viewBox="0 0 24 24" width="512" height="512"><path d="M7.707,0L2.732,4.975c-.472,.472-.732,1.1-.732,1.768s.26,1.296,.735,1.771l4.265,4.196v8.791c0,.734,.321,1.429,.881,1.905,.455,.387,1.03,.595,1.624,.595,.137,0,.274-.011,.412-.033,1.188-.194,2.083-1.3,2.083-2.573v-6.483l10-2V0H7.707Zm13.293,12.09l-10,2v7.303c0,.789-.535,1.471-1.244,1.586-.455,.073-.887-.046-1.227-.336-.336-.286-.529-.703-.529-1.143V7h-1v4.307l-3.561-3.503c-.283-.283-.439-.66-.439-1.061s.156-.777,.439-1.061L8.121,1h12.879V12.09Z"/></svg>
