<?xml version="1.0" encoding="UTF-8"?>
<svg xmlns="http://www.w3.org/2000/svg" id="Layer_1" data-name="Layer 1" viewBox="0 0 24 24">
  <path d="m22.646,5.606c-.851-.411-1.735-.949-2.452-1.803l3.807-3.138c-.201-.336-.166-.277-.367-.613l-4.567,1.58c-.02-.071-.047-.133-.065-.206V0c-.774,0-1.437.444-1.77,1.087-1.542.205-2.778.793-3.676,1.769-1.761,1.914-1.562,4.573-1.554,4.644v1.5h-4.506c-1.197,0-2.256.606-2.887,1.528C1.68,11.495,0,14.582,0,19h1c0-1.406.218-4.28,1.822-6.121-.54,1.457-.822,3.487-.822,6.121h1c0-2.883.354-5.039,1.002-6.345.042,1.655.72,3.792,1.223,5.368.119.372.229.716.319,1.019l-.61,4.958h5.018l.5-5h2.547v5h5v-5.447l.403-1.896c.404-1.415.597-2.338.597-3.758v-3.899h5v-1.173c0-.953-.531-1.825-1.354-2.221Zm.354,2.394h-5v4.899c0,1.31-.172,2.133-.566,3.516l-.423,1.98-.011,4.604h-3v-5h-4.452l-.5,5h-2.982l.497-4.042s-.25-.817-.384-1.238c-.5-1.564-1.184-3.707-1.184-5.225.002-1.376,1.124-2.495,2.5-2.495h5.506v-2.541c-.003-.023-.169-2.347,1.295-3.932.871-.943,2.157-1.454,3.825-1.52.788,2.61,2.588,3.774,4.091,4.5.479.23.788.749.788,1.32v.173Z"/>
  <circle cx="17.5" cy="5" r="1"/>
</svg>
