<?xml version="1.0" encoding="UTF-8"?>
<svg xmlns="http://www.w3.org/2000/svg" id="Layer_1" data-name="Layer 1" viewBox="0 0 24 24">
  <path d="m20.95,4.938c-.477-.596-1.188-.938-1.951-.938h-5.412l.357-3h6.056V0h-6.944l-.476,4h-7.579c-.763,0-1.473.341-1.95.936-.477.594-.655,1.36-.499,2.055l2.004,17.01h14.889l1.995-16.955c.166-.744-.012-1.513-.489-2.107Zm-1.951.062c.458,0,.885.205,1.171.562s.394.817.285,1.314l-.368,3.123h-7.215l.596-5h5.531Zm-15.168.562c.286-.357.713-.562,1.17-.562h7.46l-.595,5H3.911l-.375-3.177c-.099-.445.009-.906.295-1.262Zm14.725,17.438H5.444l-1.416-12h15.941l-1.414,12Zm-7.047-10h1.006l-.979,8h-1.006l.978-8Z"/>
</svg>
