<?xml version="1.0" encoding="UTF-8"?>
<svg xmlns="http://www.w3.org/2000/svg" id="Layer_1" data-name="Layer 1" viewBox="0 0 24 24">
  <path d="m10.913,12.315l-5.832,3.685,2.918,1.844v4.696c.054.054,1.488,1.46,4,1.46s3.946-1.406,4-1.46v-4.696l2-1.264v5.419h1v-6l-5.913-3.685c-.652-.412-1.521-.412-2.174,0Zm4.087,9.788c-.355.274-1.347.897-3,.897s-2.646-.625-3-.897v-3.627l1.913,1.208c.326.207.702.316,1.087.316s.761-.109,1.087-.315l1.913-1.209v3.627Zm-2.448-3.263c-.332.209-.772.21-1.105,0l-4.494-2.839,4.494-2.84c.332-.209.773-.209,1.105,0l4.493,2.84-4.494,2.84Z"/>
  <circle cx="7" cy="4" r="1"/>
  <circle cx="4" cy="4" r="1"/>
  <path d="m21.5,0H2.5C1.122,0,0,1.122,0,2.5v19.5h6v-1H1v-13h22v13h-2v1h3V2.5c0-1.378-1.121-2.5-2.5-2.5Zm1.5,7H1V2.5c0-.827.673-1.5,1.5-1.5h19c.827,0,1.5.673,1.5,1.5v4.5Z"/>
  <circle cx="10" cy="4" r="1"/>
</svg>
