<?xml version="1.0" encoding="UTF-8"?>
<svg xmlns="http://www.w3.org/2000/svg" id="Layer_1" data-name="Layer 1" viewBox="0 0 24 24">
  <path d="m5,19c0,.552-.448,1-1,1s-1-.448-1-1,.448-1,1-1,1,.448,1,1ZM24,6.5c0,.911-.549,1.5-1.398,1.5h-5.604c-.015,1.858-.112,3.519-.309,5h3.311v.5c0,.991-.085,1.868-.276,2.846-.188.958-1.042,1.654-2.031,1.654h-2.365c-2.146,4.475-6.613,6-14.827,6h-.5v-.5c0-4.986.562-8.591,2.004-11.135v-4c0-.969.538-1.852,1.403-2.304,1.821-.951,5.033-2.062,8.092-2.062h.5v3.196c1.218-.12,2.549-.182,4-.193V1.398c0-.849.589-1.398,1.5-1.398,1.315,0,3.218.966,3.472,3.028,2.062.254,3.028,2.157,3.028,3.472ZM3.004,10.933c1.723-2.013,4.298-3.129,7.996-3.622v-2.301c-3.589.142-6.765,1.747-7.129,1.938-.534.279-.866.822-.866,1.417v2.567Zm6.351,11.02c-.793-3.623-3.693-6.514-7.309-7.305-.718,2.121-1.018,4.856-1.044,8.35,3.496-.026,6.232-.326,8.353-1.045Zm6.643-13.951c-7.697.056-11.712,1.444-13.588,5.704,3.872.908,6.976,4.003,7.887,7.882,4.258-1.876,5.644-5.892,5.7-13.586Zm.538,5.998c-.194,1.108-.453,2.105-.786,3h1.942c.512,0,.954-.356,1.05-.847.146-.744.225-1.426.25-2.153h-2.456Zm6.464-7.5c0-.783-.629-2.5-2.5-2.5h-.5v-.5c0-1.871-1.717-2.5-2.5-2.5-.5,0-.5.249-.5.398v5.602h5.602c.149,0,.398,0,.398-.5Z"/>
</svg>
