<?xml version="1.0" encoding="UTF-8"?>
<svg xmlns="http://www.w3.org/2000/svg" id="Layer_1" data-name="Layer 1" viewBox="0 0 24 24">
  <path d="m21,14.99c0,.547-.443.99-.99.99s-.99-.443-.99-.99.443-.99.99-.99.99.443.99.99Zm-5-4.99c.552,0,1-.452,1-1.01s-.448-1.01-1-1.01-1,.452-1,1.01.448,1.01,1,1.01Zm8,2c0,6.617-5.383,12-12,12h-.016C5.367,24-.016,18.617-.016,12S5.367,0,11.984,0s12.016,5.383,12.016,12Zm-1,0c0-6.065-4.935-11-11-11S.984,5.935.984,12s4.935,11,11,11h.016c6.065,0,11-4.935,11-11Zm-3.194-4l-4.806,8h1.194l4.806-8h-1.194Zm-16.806,1h3.858l-3.305,6.609.895.447,3.553-7.105v-.952H3v1Zm11,1.5v3c0,1.379-1.122,2.5-2.5,2.5s-2.5-1.121-2.5-2.5v-3c0-1.378,1.122-2.5,2.5-2.5s2.5,1.122,2.5,2.5Zm-1,0c0-.827-.673-1.5-1.5-1.5s-1.5.673-1.5,1.5v3c0,.827.673,1.5,1.5,1.5s1.5-.673,1.5-1.5v-3Z"/>
</svg>
