<?xml version="1.0" encoding="UTF-8"?>
<svg xmlns="http://www.w3.org/2000/svg" id="Layer_1" data-name="Layer 1" viewBox="0 0 24 24">
  <path d="m23,6.5v-3c0-1.379-1.121-2.5-2.5-2.5H3.5c-1.379,0-2.5,1.121-2.5,2.5v3c0,.817.394,1.544,1.001,2-.608.456-1.001,1.183-1.001,2v3c0,.817.394,1.544,1.001,2-.608.456-1.001,1.183-1.001,2v5.5h22v-5.5c0-.817-.394-1.544-1.001-2,.608-.456,1.001-1.183,1.001-2v-3c0-.817-.394-1.544-1.001-2,.608-.456,1.001-1.183,1.001-2Zm-1,11v4.5H2v-4.5c0-.827.673-1.5,1.5-1.5h1.5v2h1v-2h3v2h1v-2h10.5c.827,0,1.5.673,1.5,1.5Zm0-7v3c0,.827-.673,1.5-1.5,1.5H3.5c-.827,0-1.5-.673-1.5-1.5v-3c0-.827.673-1.5,1.5-1.5h1.5v2h1v-2h3v2h1v-2h10.5c.827,0,1.5.673,1.5,1.5Zm0-4c0,.827-.673,1.5-1.5,1.5H3.5c-.827,0-1.5-.673-1.5-1.5v-3c0-.827.673-1.5,1.5-1.5h1.5v2h1v-2h3v2h1v-2h10.5c.827,0,1.5.673,1.5,1.5v3Z"/>
</svg>
