<?xml version="1.0" encoding="UTF-8"?>
<svg xmlns="http://www.w3.org/2000/svg" id="Layer_1" data-name="Layer 1" viewBox="0 0 24 24" width="512" height="512"><path d="m24.01,22.882L19.858,2.014c-.268-1.353-1.585-2.234-2.937-1.968l-.981.194c-1.012.2-1.76.988-1.962,1.937-.159-1.226-1.209-2.177-2.478-2.177h-6c-1.379,0-2.5,1.122-2.5,2.5v3.5h5v4h1v-4h4v12h-4v-4h-1v4H3v6h11V3.323l3.935,20.682,6.075-1.123Zm-20.01-3.882h4v4h-4v-4Zm9,4h-4v-4h4v4ZM4,5v-2.5c0-.827.673-1.5,1.5-1.5h2.5v4h-4Zm9,0h-4V1h2.5c.827,0,1.5.673,1.5,1.5v2.5Zm5.731,17.841l-.698-3.667,4.06-.802.738,3.711-4.101.758Zm-.885-4.65l-2.206-11.592,3.955-.782,2.303,11.574-4.052.801Zm-1.713-16.97l.981-.194c.098-.02.195-.029.292-.029.7,0,1.329.496,1.471,1.21l.523,2.628-3.947.78-.501-2.632c-.16-.812.37-1.603,1.181-1.763ZM3,12.5H0v-1h3v-3h1v3h3v1h-3v3h-1v-3Z"/></svg>
