<?xml version="1.0" encoding="UTF-8"?>
<svg xmlns="http://www.w3.org/2000/svg" id="Layer_1" data-name="Layer 1" viewBox="0 0 24 24" width="512" height="512"><path d="m21.5,0H2.5C1.121,0,0,1.122,0,2.5v21.5h24V2.5c0-1.378-1.121-2.5-2.5-2.5Zm1.5,23H1V2.5c0-.827.673-1.5,1.5-1.5h19c.827,0,1.5.673,1.5,1.5v20.5Zm-7-13c1.654,0,3-1.346,3-3s-1.346-3-3-3-3,1.346-3,3c0,.35.061.687.172.999l-3.831,2.128c-.55-.686-1.395-1.127-2.341-1.127-1.654,0-3,1.346-3,3s1.346,3,3,3c.946,0,1.791-.441,2.341-1.127l3.831,2.128c-.111.313-.172.649-.172.999,0,1.654,1.346,3,3,3s3-1.346,3-3-1.346-3-3-3c-.946,0-1.791.441-2.341,1.127l-3.831-2.128c.111-.313.172-.649.172-.999s-.061-.687-.172-.999l3.831-2.128c.55.686,1.395,1.127,2.341,1.127Zm0,5c1.103,0,2,.897,2,2s-.897,2-2,2-2-.897-2-2,.897-2,2-2Zm-9-1c-1.103,0-2-.897-2-2s.897-2,2-2,2,.897,2,2-.897,2-2,2Zm9-9c1.103,0,2,.897,2,2s-.897,2-2,2-2-.897-2-2,.897-2,2-2Z"/></svg>
