<?xml version="1.0" encoding="UTF-8"?>
<svg xmlns="http://www.w3.org/2000/svg" id="Layer_1" data-name="Layer 1" viewBox="0 0 24 24">
  <path d="m12,0C5.383,0,0,3.589,0,8v4c0,6.617,5.383,12,12,12s12-5.383,12-12v-4C24,3.589,18.617,0,12,0Zm0,1c6.065,0,11,3.14,11,7s-4.935,7-11,7S1,11.86,1,8,5.935,1,12,1Zm11,11c0,6.065-4.935,11-11,11S1,18.065,1,12v-.805c1.854,2.825,6.086,4.805,11,4.805s9.146-1.979,11-4.805v.805Zm-11-2s1,1.448,1,2-.448,1-1,1-1-.448-1-1,1-2,1-2Zm0-4s-1-1.448-1-2,.448-1,1-1,1,.448,1,1-1,2-1,2Zm-8,2c0-.552.448-1,1-1s2,1,2,1c0,0-1.448,1-2,1s-1-.448-1-1Zm13,0s1.448-1,2-1,1,.448,1,1-.448,1-1,1-2-1-2-1Zm.177-2.265c-.406.374-2.148.62-2.148.62,0,0,.387-1.716.793-2.091.406-.374,1.039-.348,1.413.058.374.406.348,1.039-.058,1.413Zm-10.413-1.413c.374-.406,1.007-.432,1.413-.058.406.374.793,2.091.793,2.091,0,0-1.742-.245-2.148-.62-.406-.374-.432-1.007-.058-1.413Zm8.264,5.323s1.742.245,2.148.62c.406.374.432,1.007.058,1.413-.374.406-1.007.432-1.413.058-.406-.374-.793-2.091-.793-2.091Zm-8.206.62c.406-.374,2.148-.62,2.148-.62,0,0-.387,1.716-.793,2.091-.406.374-1.039.348-1.413-.058-.374-.406-.348-1.039.058-1.413Zm2.177-2.264c0-.552,1.343-1,3-1s3,.448,3,1-1.343,1-3,1-3-.448-3-1Z"/>
</svg>
