<?xml version="1.0" encoding="UTF-8"?>
<svg xmlns="http://www.w3.org/2000/svg" id="Layer_1" data-name="Layer 1" viewBox="0 0 24 24" width="512" height="512"><path d="M20,23V4.5c0-1.379-1.122-2.5-2.5-2.5h-1.551c-.113-.558-.414-1.064-.864-1.433C14.504,.09,13.748-.098,13.01,.049L6.01,1.449c-1.165,.233-2.01,1.265-2.01,2.451V23H0v1H24v-1h-4Zm-1-18.5V23h-3V3h1.5c.827,0,1.5,.673,1.5,1.5Zm-14-.6c0-.712,.507-1.33,1.206-1.471l7-1.4c.442-.087,.896,.025,1.245,.312s.549,.709,.549,1.16V23H5V3.9ZM13,12c0,.552-.448,1-1,1s-1-.448-1-1,.448-1,1-1,1,.448,1,1Z"/></svg>
