<?xml version="1.0" encoding="UTF-8"?>
<svg xmlns="http://www.w3.org/2000/svg" id="Layer_1" data-name="Layer 1" viewBox="0 0 24 24" width="512" height="512"><path d="M13.135,5.535c-.306-.34-.743-.535-1.2-.535h0c-.458,0-.896,.196-1.199,.533l-5.003,5.467h5.769v8h1V11h5.636l-5.001-5.465Zm-1.659,.669c.118-.132,.281-.205,.458-.205h0c.177,0,.339,.073,.457,.204l3.473,3.796h-7.861l3.473-3.795ZM21.5,0H2.5C1.121,0,0,1.122,0,2.5V24H24V2.5c0-1.378-1.121-2.5-2.5-2.5Zm1.5,23H1V2.5c0-.827,.673-1.5,1.5-1.5H21.5c.827,0,1.5,.673,1.5,1.5V23Z"/></svg>
