<?xml version="1.0" encoding="UTF-8"?>
<svg xmlns="http://www.w3.org/2000/svg" id="Layer_1" data-name="Layer 1" width="512" height="512" viewBox="0 0 24 24"><path d="M21.799,9.145c-1.331-.749-2.918-1.145-4.59-1.145h-4.434L9.046,1.303c-.438-.804-1.279-1.303-2.195-1.303H2V6h1V1h3.851c.549,0,1.054,.3,1.319,.786l3.461,6.214H0v8H11.631l-3.463,6.218c-.263,.482-.768,.782-1.317,.782H3v-5h-1v6H6.851c.916,0,1.756-.5,2.193-1.299l3.732-6.701h4.434c1.672,0,3.259-.396,4.59-1.144,1.461-.822,2.201-1.783,2.201-2.856s-.74-2.034-2.201-2.855Zm-5.761,5.855H5v-6h11.038c.405,.237,1.962,1.262,1.962,3s-1.557,2.763-1.962,3ZM1,9h3v6H1v-6Zm20.309,4.984c-1.057,.595-2.302,.938-3.627,1.004,.657-.654,1.319-1.645,1.319-2.987s-.661-2.334-1.319-2.987c1.325,.066,2.57,.409,3.627,1.004,.771,.434,1.691,1.13,1.691,1.984s-.92,1.55-1.691,1.984Z"/></svg>
