<?xml version="1.0" encoding="UTF-8"?>
<svg xmlns="http://www.w3.org/2000/svg" id="Layer_1" data-name="Layer 1" viewBox="0 0 24 24">
  <path d="m24,6c0-3.364-5.271-6-12-6S0,2.636,0,6v11.75c0,3.563,5.159,6.25,12,6.25s12-2.687,12-6.25V6ZM12,1c5.963,0,11,2.29,11,5s-5.037,5-11,5S1,8.71,1,6,6.038,1,12,1Zm11,16.75c0,2.944-4.832,5.25-11,5.25S1,20.694,1,17.75v-9.31c1.836,2.115,6.018,3.56,11,3.56s9.164-1.445,11-3.56v9.31ZM4.527,7.047c.657.458,3.138,1.953,7.473,1.953s6.815-1.495,7.473-1.953c.33-.23.527-.622.527-1.047s-.197-.816-.527-1.047c-.657-.458-3.138-1.953-7.473-1.953s-6.815,1.495-7.473,1.953c-.33.23-.527.622-.527,1.047s.197.816.527,1.047Zm.572-1.273c.597-.416,2.857-1.773,6.9-1.773s6.304,1.357,6.9,1.773c.073.051.1.15.1.227s-.026.175-.1.227c-.597.416-2.857,1.773-6.9,1.773s-6.304-1.357-6.9-1.773c-.073-.051-.1-.15-.1-.227s.026-.175.1-.227Z"/>
</svg>
