<?xml version="1.0" encoding="UTF-8"?>
<svg xmlns="http://www.w3.org/2000/svg" id="Layer_1" data-name="Layer 1" viewBox="0 0 24 24" width="512" height="512"><path d="M8,15c-.552,0-1-.448-1-1s.448-1,1-1,1,.448,1,1-.448,1-1,1Zm8-2c-.552,0-1,.448-1,1s.448,1,1,1,1-.448,1-1-.448-1-1-1Zm-.5,6.5v.5h-7v-.5c0-1.93,1.57-3.5,3.5-3.5s3.5,1.57,3.5,3.5Zm-1.05-.5c-.232-1.14-1.242-2-2.45-2s-2.217,.86-2.45,2h4.899Zm9.55-11v4c0,6.617-5.383,12-12,12S0,18.617,0,12v-4H1c0,1.978,1.439,2,1.5,2h6.5c.551,0,1-.448,1-1v-.5c0-1.132-.679-1.411-1.055-1.479-.352,.348-1.165,.979-2.445,.979-1.93,0-3.5-1.57-3.5-3.5s1.57-3.5,3.5-3.5c.209,0,.419,.022,.647,.07,1.27-1.238,3.37-1.391,4.795-.351,1.426-1.041,3.525-.889,4.795,.351,.228-.048,.438-.07,.647-.07,1.93,0,3.5,1.57,3.5,3.5s-1.57,3.5-3.5,3.5c-1.281,0-2.094-.631-2.446-.979-.373,.067-1.054,.346-1.054,1.479v.5c0,.552,.449,1,1,1h6.615c.149-.003,1.5-.083,1.5-2h1Zm-1,2.452c-.501,.405-1.088,.548-1.5,.548h-6.615c-1.103,0-2-.897-2-2v-.5c0-1.978,1.476-2.5,2.256-2.5h.251l.15,.201c.022,.03,.629,.799,1.842,.799,1.378,0,2.5-1.121,2.5-2.5s-1.122-2.5-2.5-2.5c-.203,0-.417,.034-.674,.106l-.305,.086-.208-.239c-.987-1.133-2.813-1.236-3.917-.219l-.339,.312-.339-.312c-1.104-1.018-2.93-.914-3.917,.219l-.208,.239-.305-.086c-.257-.072-.471-.106-.674-.106-1.378,0-2.5,1.121-2.5,2.5s1.122,2.5,2.5,2.5c1.213,0,1.82-.769,1.845-.802l.15-.194,.249-.004c.78,0,2.256,.522,2.256,2.5v.5c0,1.103-.897,2-2,2H2.5c-.412,0-.999-.143-1.5-.548v1.548c0,6.065,4.935,11,11,11s11-4.935,11-11v-1.548Z"/></svg>
