<?xml version="1.0" encoding="UTF-8"?>
<svg xmlns="http://www.w3.org/2000/svg" id="Layer_1" data-name="Layer 1" viewBox="0 0 24 24">
  <path d="m16.5,6c-1.378,0-2.5,1.121-2.5,2.5s1.122,2.5,2.5,2.5,2.5-1.121,2.5-2.5-1.122-2.5-2.5-2.5Zm0,4c-.827,0-1.5-.673-1.5-1.5s.673-1.5,1.5-1.5,1.5.673,1.5,1.5-.673,1.5-1.5,1.5Zm6.5,12.293V3.5c0-1.379-1.122-2.5-2.5-2.5H4c-.61,0-1.198.222-1.654.626l.106.12L.753.047.046.754l23.2,23.199.707-.707-.954-.954ZM4,2h16.5c.827,0,1.5.673,1.5,1.5v17.793L3.048,2.341c.267-.22.603-.341.952-.341Zm14.465,20l1,1H1V4.536l1,1v11.757l5.8-5.801.707.707-6.507,6.508v3.293h16.465Z"/>
</svg>
