<?xml version="1.0" encoding="UTF-8"?>
<svg xmlns="http://www.w3.org/2000/svg" id="Layer_1" data-name="Layer 1" viewBox="0 0 24 24">
  <path d="m11.026,23h-5.191c-.768,0-1.409-.576-1.491-1.341L2.556,5h16.886l-.452,4.139c.334.059.662.132.981.229l.477-4.368h1.552v-1h-6v-1.5c0-1.379-1.121-2.5-2.5-2.5h-5c-1.379,0-2.5,1.121-2.5,2.5v1.5H0v1h1.551l1.799,16.767c.137,1.273,1.205,2.233,2.485,2.233h6.193c-.362-.305-.696-.64-1.003-1ZM7,2.5c0-.827.673-1.5,1.5-1.5h5c.827,0,1.5.673,1.5,1.5v1.5H7v-1.5Zm10.5,8.5c-3.584,0-6.5,2.916-6.5,6.5s2.916,6.5,6.5,6.5,6.5-2.916,6.5-6.5-2.916-6.5-6.5-6.5Zm0,12c-3.032,0-5.5-2.468-5.5-5.5s2.468-5.5,5.5-5.5,5.5,2.468,5.5,5.5-2.468,5.5-5.5,5.5Zm.5-5.707l1.854,1.854-.707.707-2.146-2.146v-3.207h1v2.793Z"/>
</svg>
