<?xml version="1.0" encoding="UTF-8"?>
<svg xmlns="http://www.w3.org/2000/svg" id="Layer_1" data-name="Layer 1" viewBox="0 0 24 24" width="512" height="512"><path d="M22,24H2v-1H22v1Zm2-7.5c0-1.378-1.121-2.5-2.5-2.5h-5c-.44,0-.84-.184-1.127-.517-.291-.338-.419-.788-.352-1.234,.649-4.29,.979-7.065,.979-8.249,0-2.206-1.794-4-4-4s-4,1.794-4,4c0,.835,.206,2.353,.467,4.274,.163,1.199,.346,2.547,.509,3.957,.055,.475-.087,.943-.391,1.284-.279,.312-.664,.485-1.085,.485H2.5c-1.378,0-2.5,1.122-2.5,2.5v4.5H24v-4.5Zm-23,0c0-.827,.673-1.5,1.5-1.5H7.5c.71,0,1.361-.291,1.832-.82,.493-.553,.725-1.306,.637-2.064-.164-1.417-.348-2.772-.512-3.976-.255-1.884-.458-3.373-.458-4.14,0-1.654,1.346-3,3-3s3,1.346,3,3c0,1.118-.334,3.918-.967,8.099-.111,.735,.101,1.477,.582,2.036,.473,.549,1.159,.865,1.885,.865h5c.827,0,1.5,.673,1.5,1.5v3.5H1v-3.5Z"/></svg>
