<?xml version="1.0" encoding="UTF-8"?>
<svg xmlns="http://www.w3.org/2000/svg" id="Layer_1" data-name="Layer 1" viewBox="0 0 24 24" width="512" height="512"><path d="m21.5,19c-.509,0-.981.154-1.377.416l-1.426-1.426c.795-.888,1.416-1.931,1.81-3.081l3.207.9.271-.963-3.203-.899c.139-.628.218-1.278.218-1.947s-.079-1.319-.218-1.947l3.203-.899-.271-.963-3.207.9c-.395-1.15-1.016-2.193-1.81-3.081l1.426-1.426c.395.262.868.416,1.376.416,1.378,0,2.5-1.121,2.5-2.5s-1.122-2.5-2.5-2.5-2.5,1.121-2.5,2.5c0,.509.154.981.416,1.377l-1.426,1.426c-.888-.795-1.931-1.416-3.082-1.811l.9-3.207-.963-.27-.899,3.203c-.628-.139-1.278-.218-1.948-.218s-1.32.079-1.948.218L9.153.016l-.963.27.9,3.207c-1.151.395-2.194,1.016-3.082,1.811l-1.426-1.426c.262-.395.416-.868.416-1.377,0-1.379-1.122-2.5-2.5-2.5S0,1.121,0,2.5s1.122,2.5,2.5,2.5c.509,0,.981-.154,1.376-.416l1.426,1.426c-.795.888-1.416,1.931-1.81,3.081l-3.207-.9L.015,9.153l3.203.899c-.139.628-.218,1.278-.218,1.947s.079,1.319.218,1.947L.015,14.847l.271.963,3.207-.9c.395,1.151,1.016,2.194,1.81,3.081l-1.426,1.426c-.395-.262-.868-.416-1.377-.416-1.378,0-2.5,1.121-2.5,2.5s1.122,2.5,2.5,2.5,2.5-1.121,2.5-2.5c0-.509-.154-.981-.416-1.377l1.426-1.426c.888.795,1.931,1.416,3.081,1.81l-.9,3.207.963.27.899-3.203c.628.139,1.278.218,1.948.218s1.319-.079,1.947-.218l.9,3.203.963-.27-.901-3.207c1.151-.395,2.194-1.016,3.082-1.811l1.426,1.426c-.262.395-.416.868-.416,1.377,0,1.379,1.122,2.5,2.5,2.5s2.5-1.121,2.5-2.5-1.122-2.5-2.5-2.5Zm0-18c.827,0,1.5.673,1.5,1.5s-.673,1.5-1.5,1.5-1.5-.673-1.5-1.5.673-1.5,1.5-1.5ZM2.5,4c-.827,0-1.5-.673-1.5-1.5s.673-1.5,1.5-1.5,1.5.673,1.5,1.5-.673,1.5-1.5,1.5Zm0,19c-.827,0-1.5-.673-1.5-1.5s.673-1.5,1.5-1.5,1.5.673,1.5,1.5-.673,1.5-1.5,1.5Zm9.5-3c-4.411,0-8-3.589-8-8S7.589,4,12,4s8,3.589,8,8-3.589,8-8,8Zm9.5,3c-.827,0-1.5-.673-1.5-1.5s.673-1.5,1.5-1.5,1.5.673,1.5,1.5-.673,1.5-1.5,1.5Zm-9.5-6c-.551,0-1-.448-1-1s.449-1,1-1,1,.448,1,1-.449,1-1,1Zm4-4c-.551,0-1-.448-1-1s.449-1,1-1,1,.448,1,1-.449,1-1,1Zm-4-6c.551,0,1,.448,1,1s-.449,1-1,1-1-.448-1-1,.449-1,1-1Zm-4,6c-.551,0-1-.448-1-1s.449-1,1-1,1,.448,1,1-.449,1-1,1Z"/></svg>
