<?xml version="1.0" encoding="UTF-8"?>
<svg xmlns="http://www.w3.org/2000/svg" id="Layer_1" data-name="Layer 1" viewBox="0 0 24 24">
  <path d="m6.443,4.08L4.304.567,5.157.048l2.14,3.513-.854.52Zm13.557,7.92c0,2.323-1.01,4.528-2.771,6.051-.781.674-1.229,1.641-1.229,2.653v3.296h-8v-3.295c0-1.007-.456-1.982-1.252-2.675-2.062-1.796-3.058-4.497-2.661-7.227.512-3.521,3.457-6.36,7.003-6.753,2.307-.256,4.527.45,6.245,1.987,1.693,1.517,2.665,3.689,2.665,5.962Zm-5,8.704c0-.239.04-.471.077-.704h-6.156c.038.233.078.467.078.705v2.295h6v-2.296Zm4-8.704c0-1.988-.85-3.89-2.332-5.217-1.502-1.344-3.438-1.964-5.469-1.738-3.1.343-5.675,2.825-6.122,5.903-.348,2.391.522,4.757,2.327,6.328.553.481.963,1.076,1.234,1.724h2.861v-5.551c-1.14-.232-2-1.242-2-2.449h1c0,.827.673,1.5,1.5,1.5s1.5-.673,1.5-1.5h1c0,1.208-.86,2.217-2,2.449v5.551h2.856c.268-.645.672-1.234,1.218-1.706,1.542-1.332,2.426-3.262,2.426-5.294Zm.696-11.433l-.854-.52-2.14,3.513.854.52,2.14-3.513Zm3.86,4.342l-3.536,1.597.412.912,3.536-1.597-.412-.912ZM.031,5.821l3.536,1.597.412-.912L.443,4.909l-.412.912Z"/>
</svg>
