<?xml version="1.0" encoding="UTF-8"?>
<svg xmlns="http://www.w3.org/2000/svg" id="Layer_1" data-name="Layer 1" viewBox="0 0 24 24">
  <path d="m21.5,18c-.797,0-1.508.375-1.966.958l-3.62-1.81c.056-.207.086-.424.086-.648s-.03-.441-.086-.648l3.62-1.81c.458.583,1.169.958,1.966.958,1.378,0,2.5-1.122,2.5-2.5s-1.122-2.5-2.5-2.5-2.5,1.122-2.5,2.5c0,.224.03.441.086.648l-3.62,1.81c-.458-.583-1.169-.958-1.966-.958-1.378,0-2.5,1.122-2.5,2.5s1.122,2.5,2.5,2.5c.797,0,1.508-.375,1.966-.958l3.62,1.81c-.056.207-.086.424-.086.648,0,1.378,1.122,2.5,2.5,2.5s2.5-1.122,2.5-2.5-1.122-2.5-2.5-2.5Zm0-7c.827,0,1.5.673,1.5,1.5s-.673,1.5-1.5,1.5-1.5-.673-1.5-1.5.673-1.5,1.5-1.5Zm-8,7c-.827,0-1.5-.673-1.5-1.5s.673-1.5,1.5-1.5,1.5.673,1.5,1.5-.673,1.5-1.5,1.5Zm8,4c-.827,0-1.5-.673-1.5-1.5s.673-1.5,1.5-1.5,1.5.673,1.5,1.5-.673,1.5-1.5,1.5Zm-4.261-.117c.108.332.247.647.425.94-.537.114-1.093.177-1.664.177H5.5c-3.033,0-5.5-2.467-5.5-5.5,0-2.044,1.119-3.888,2.894-4.841-.586-1.133-.894-2.388-.894-3.659C2,4.589,5.589,1,10,1c3.741,0,6.965,2.591,7.792,6.208.115.026.229.055.341.086h0c.743.205,1.425.53,2.058.922-.399.122-.779.285-1.123.507-.382-.187-.78-.349-1.201-.465,0,0,0,0,0,0h0c-.192-.053-.927-.197-.927-.197l-.062-.339c-.612-3.315-3.505-5.722-6.877-5.722-3.86,0-7,3.14-7,7,0,1.271.352,2.524,1.019,3.622l.303.499-.539.223c-1.69.699-2.782,2.331-2.782,4.157,0,2.481,2.019,4.5,4.5,4.5h10.5c.424,0,.836-.044,1.239-.117Z"/>
</svg>
