<?xml version="1.0" encoding="UTF-8"?>
<svg xmlns="http://www.w3.org/2000/svg" id="Layer_1" data-name="Layer 1" viewBox="0 0 24 24">
  <path d="m23.29,16.676l-4.78-4.8-6.042.799-.468,5.871,4.726,4.745c.457.455,1.062.705,1.707.705h.011c.648-.003,1.255-.259,1.711-.72l3.148-3.188c.933-.945.926-2.477-.013-3.412Zm-.699,2.709l-3.148,3.188c-.267.271-.624.421-1.003.423-.359.009-.738-.146-1.006-.412l-4.4-4.417.368-4.607,4.75-.627,4.433,4.45c.552.55.556,1.447.008,2.002Zm-5.591-3.385c0,.552-.448,1-1,1s-1-.448-1-1,.448-1,1-1,1,.448,1,1Zm-8-4c3.309,0,6-2.691,6-6S12.309,0,9,0,3,2.691,3,6s2.691,6,6,6Zm0-11c2.757,0,5,2.243,5,5s-2.243,5-5,5-5-2.243-5-5S6.243,1,9,1Zm-5,13h6v1h-6c-1.654,0-3,1.346-3,3v6H0v-6c0-2.206,1.794-4,4-4Z"/>
</svg>
