<?xml version="1.0" encoding="UTF-8"?>
<svg xmlns="http://www.w3.org/2000/svg" id="Layer_1" data-name="Layer 1" viewBox="0 0 24 24" width="512" height="512"><path d="M23.94,9.88l-.69-.73-2.03,1.84H13v-3h-1v5.5c0,.83-.67,1.5-1.5,1.5s-1.5-.67-1.5-1.5V7.1c0-1.6,1.08-2.99,2.62-3.39l4.88-1.26,1.69-1.69-.71-.71-1.5,1.5-4.61,1.19c-1.96,.5-3.33,2.25-3.37,4.26h-.9c-2.05,0-3.84,1.39-4.36,3.38l-1.19,4.61L.04,16.5l.71,.71,1.71-1.71,1.26-4.88c.4-1.55,1.79-2.62,3.39-2.62h.9v5.5c0,1.38,1.12,2.5,2.5,2.5s2.5-1.12,2.5-2.5v-1.5h7.58l-1.82,6.46c-.42,1.49-1.8,2.54-3.35,2.55h-5.13s-2.15,2.22-2.15,2.22l.72,.69,1.85-1.92h4.71c2,0,3.77-1.35,4.31-3.27l1.89-6.73,2.32-2.12Z"/></svg>
