<?xml version="1.0" encoding="UTF-8"?>
<svg xmlns="http://www.w3.org/2000/svg" id="Layer_1" data-name="Layer 1" viewBox="0 0 24 24">
  <path d="m10,2.5c0-1.378,1.121-2.5,2.5-2.5.401,0,.775.104,1.112.273-.165.288-.296.594-.395.918-.214-.118-.456-.19-.716-.19-.827,0-1.5.673-1.5,1.5s.673,1.5,1.5,1.5c.261,0,.503-.073.716-.19.099.323.23.63.395.918-.336.169-.711.273-1.112.273-1.379,0-2.5-1.122-2.5-2.5Zm-2,12.075c.325.068.657.131,1,.185v-6.26c0-.827.673-1.5,1.5-1.5h.776c.126-.353.28-.693.485-1h-1.262c-1.379,0-2.5,1.122-2.5,2.5v6.075Zm5,.397c.34-.018.673-.046,1-.08v-6.392c0-.827.673-1.5,1.5-1.5h4c.827,0,1.5.673,1.5,1.5v4.369c.575-.282.906-.481.918-.488l.082-.051v-3.83c0-1.378-1.121-2.5-2.5-2.5h-4c-1.379,0-2.5,1.122-2.5,2.5v6.472Zm2-12.472c0-1.378,1.121-2.5,2.5-2.5s2.5,1.122,2.5,2.5-1.121,2.5-2.5,2.5-2.5-1.122-2.5-2.5Zm1,0c0,.827.673,1.5,1.5,1.5s1.5-.673,1.5-1.5-.673-1.5-1.5-1.5-1.5.673-1.5,1.5Zm-8.5,2.5c.401,0,.775-.104,1.112-.273-.165-.288-.296-.594-.395-.918-.214.118-.456.19-.716.19-.827,0-1.5-.673-1.5-1.5s.673-1.5,1.5-1.5c.261,0,.503.073.716.19.099-.323.23-.63.395-.918-.336-.169-.711-.273-1.112-.273-1.379,0-2.5,1.122-2.5,2.5s1.121,2.5,2.5,2.5Zm-3.5,3.5c0-.827.673-1.5,1.5-1.5h.776c.126-.353.28-.693.485-1h-1.262c-1.379,0-2.5,1.122-2.5,2.5v4.378c.278.135.613.288,1,.45v-4.828Zm15,15.5h1v-5.316c-.32.107-.652.211-1,.311v5.005Zm-14,0h1v-4.738c-.344-.085-.678-.174-1-.266v5.004Zm18.099-10c-.046.029-4.816,3-11.099,3S.921,14.029.874,14h-.874v10h1v-8.768c1.438.784,5.613,2.768,11,2.768,5.415,0,9.59-2.006,11-2.781v8.781h1v-10h-.901Zm-8.099,10h1v-4.332c-.326.053-.66.099-1,.141v4.191Zm-5,0h1v-4.026c-.339-.014-.671-.036-1-.063v4.09Z"/>
</svg>
