<?xml version="1.0" encoding="UTF-8"?>
<svg xmlns="http://www.w3.org/2000/svg" id="Layer_1" data-name="Layer 1" viewBox="0 0 24 24">
  <path d="m23.5,10c-4.985,0-9.265,1.278-10.94,1.854.427-2.622,3.065-4.854,5.94-4.854,1.379,0,2.5-1.122,2.5-2.5s-1.121-2.5-2.5-2.5c-2.408,0-4.729,1.524-6,3.612V0h-1v5.611c-1.271-2.087-3.591-3.611-6-3.611-1.378,0-2.5,1.122-2.5,2.5s1.122,2.5,2.5,2.5c2.874,0,5.513,2.232,5.94,4.854-1.674-.576-5.954-1.854-10.94-1.854h-.5v.5c0,12.526,5.184,13.5,6.773,13.5,1.191,0,2.051-.548,2.882-1.079.743-.474,1.445-.921,2.345-.921s1.602.448,2.345.921c.832.53,1.691,1.079,2.883,1.079,1.589,0,6.772-.974,6.772-13.5v-.5h-.5Zm-5-7c.827,0,1.5.673,1.5,1.5s-.673,1.5-1.5,1.5c-2.477,0-4.752,1.359-6,3.3v-.3c0-3.028,2.972-6,6-6Zm-13,3c-.827,0-1.5-.673-1.5-1.5s.673-1.5,1.5-1.5c3.028,0,6,2.972,6,6v.3c-1.249-1.941-3.523-3.3-6-3.3Zm11.728,17c-.899,0-1.602-.448-2.345-.921-.832-.53-1.691-1.079-2.883-1.079s-2.051.548-2.882,1.079c-.743.474-1.445.921-2.345.921-1.334,0-5.644-.875-5.77-11.996,5.875.106,10.761,2.031,10.812,2.051l.186.074.186-.074c.05-.02,4.929-1.944,10.812-2.051-.126,11.12-4.436,11.996-5.77,11.996Zm-5.91-6.88c-.027-.013-3.227-1.409-6.719-2.11l-.69-.139.097.697c.368,2.668.634,4.596,1.623,5.224.166.105.407.207.721.207.149,0,.314-.023.496-.079.454-.141,1.007-.475,1.647-.862,1.027-.62,2.3-1.39,3.508-1.553,1.208.163,2.482.932,3.508,1.553.641.387,1.193.721,1.647.862.182.056.347.079.496.079.313,0,.556-.102.721-.207.988-.628,1.255-2.556,1.623-5.224l.097-.697-.69.139c-3.492.702-6.692,2.097-6.719,2.11l-.682.326-.682-.326Zm-3.343,2.082c-.56.338-1.089.658-1.427.763-.212.066-.317.026-.383-.017-.529-.336-.817-2.018-1.071-3.809,2.408.552,4.586,1.39,5.426,1.731-.924.352-1.796.878-2.545,1.332Zm10.932-3.062c-.254,1.791-.542,3.473-1.07,3.809-.068.042-.17.083-.384.017-.338-.105-.867-.425-1.427-.763-.75-.453-1.621-.979-2.545-1.332.848-.345,3.022-1.18,5.426-1.731Z"/>
</svg>
