<?xml version="1.0" encoding="UTF-8"?>
<svg xmlns="http://www.w3.org/2000/svg" id="Layer_1" data-name="Layer 1" viewBox="0 0 24 24" width="512" height="512"><path d="m13,8.1v2.9h4c0,1.654-1.346,3-3,3v1c2.206,0,4-1.794,4-4v-5h-2.9c-1.158,0-2.1.941-2.1,2.1Zm4,1.9h-3v-1.9c0-.606.493-1.1,1.1-1.1h1.9v3Zm-11-1.9v2.9h4c0,1.654-1.346,3-3,3v1c2.206,0,4-1.794,4-4v-5h-2.9c-1.158,0-2.1.941-2.1,2.1Zm4,1.9h-3v-1.9c0-.606.493-1.1,1.1-1.1h1.9v3ZM21.5,0H2.5C1.121,0,0,1.121,0,2.5v17.5h7.105l3.898,3.283c.285.254.645.38,1.001.38.352,0,.702-.123.978-.368l3.985-3.295h7.032V2.5c0-1.379-1.121-2.5-2.5-2.5Zm1.5,19h-6.392l-4.276,3.535c-.189.168-.474.17-.674-.009l-4.188-3.526H1V2.5c0-.827.673-1.5,1.5-1.5h19c.827,0,1.5.673,1.5,1.5v16.5Z"/></svg>
