<?xml version="1.0" encoding="UTF-8"?>
<svg xmlns="http://www.w3.org/2000/svg" id="Layer_1" data-name="Layer 1" viewBox="0 0 24 24" width="512" height="512"><path d="M8,24c-2.137,0-4.146-.832-5.657-2.343-1.511-1.512-2.343-3.521-2.343-5.657C0,9.541,6.312,4.926,12.229,1.107l.771-.498V4.647C18.009,1.905,22.955,.385,23.007,.369l.896-.272-.272,.896c-.016,.052-1.536,4.998-4.278,10.007h4.038l-.498,.771c-3.818,5.916-8.434,12.229-14.893,12.229ZM12,2.448C6.541,6.024,1,10.312,1,16c0,1.869,.728,3.628,2.05,4.95s3.081,2.05,4.95,2.05c5.688,0,9.976-5.541,13.552-11h-3.914l.429-.748c2.217-3.875,3.697-7.859,4.301-9.619-1.76,.604-5.744,2.084-9.619,4.301l-.748,.429V2.448Zm-4,17.514c-2.206,0-4-1.794-4-4s1.794-4,4-4,4,1.794,4,4-1.794,4-4,4Zm0-7c-1.654,0-3,1.346-3,3s1.346,3,3,3,3-1.346,3-3-1.346-3-3-3Z"/></svg>
