<?xml version="1.0" encoding="UTF-8"?>
<svg xmlns="http://www.w3.org/2000/svg" id="Layer_1" data-name="Layer 1" viewBox="0 0 24 24" width="512" height="512"><path d="M23.959,11.5c-.231-1.421-1.557-2.492-3.084-2.492l-6.041,.006-1.107-5.014h2.273v2h1V1h-1V3h-2.494l-.226-1.023C13.026,.821,12.022,.015,10.845,.015l-1.845-.021V3h-2v1h2v5.02l-4.014,.004-1.202-1.815c-.501-.757-1.343-1.209-2.251-1.209H0v12H1.547c.913,0,1.757-.456,2.257-1.219l1.165-1.775,4.031-.004v4.998h-2v1h2v2.994l1.839,.021c1.164,0,2.19-.824,2.441-1.961l.233-1.054h2.487v2h1v-5h-1v2h-2.266l1.105-5.004,6.171-.006c.878,0,1.709-.384,2.279-1.054s.814-1.558,.671-2.436Zm-1.433,1.787c-.379,.446-.932,.702-1.518,.702l-6.954,.007-1.751,7.843c-.153,.692-.755,1.176-1.459,1.176l-.845-.009V14l-5.571,.006-1.461,2.227c-.315,.48-.847,.768-1.421,.768h-.547V7h.533c.572,0,1.102,.284,1.417,.762l1.499,2.263,5.551-.006V1.006l.839,.009c.709,0,1.312,.484,1.464,1.177l1.752,7.823,6.82-.007c1.042,0,1.943,.71,2.096,1.652,.097,.597-.061,1.175-.446,1.627Z"/></svg>
