<?xml version="1.0" encoding="UTF-8"?>
<svg xmlns="http://www.w3.org/2000/svg" id="Layer_1" data-name="Layer 1" viewBox="0 0 24 24" width="512" height="512"><path d="M21,14c-1.08,0-1.98,.48-2.5,1.25-.52-.77-1.42-1.25-2.5-1.25-1.65,0-3,1.44-3,3.2,0,3.06,5.01,6.46,5.22,6.6l.28,.19,.28-.19c.21-.14,5.22-3.54,5.22-6.6,0-1.76-1.35-3.2-3-3.2Zm-2.5,8.78c-1.48-1.05-4.5-3.61-4.5-5.58,0-1.21,.9-2.2,2-2.2,1.18,0,2,.85,2,2h1c0-1.15,.82-2,2-2,1.1,0,2,.99,2,2.2,0,1.96-3.02,4.52-4.5,5.58ZM21.5,2H12.12L8.12,0H2.5C1.12,0,0,1.12,0,2.5V22H13.16c-.27-.32-.53-.65-.77-1H1V7H23v5.44c.36,.16,.69,.38,1,.63V4.5c0-1.38-1.12-2.5-2.5-2.5Zm1.5,4H1V2.5c0-.83,.67-1.5,1.5-1.5H7.88l4,2h9.62c.83,0,1.5,.67,1.5,1.5v1.5Z"/></svg>
