<?xml version="1.0" encoding="UTF-8"?>
<svg xmlns="http://www.w3.org/2000/svg" id="Layer_1" data-name="Layer 1" viewBox="0 0 24 24" width="512" height="512"><path d="m22.985,11.501c0-1.378-1.122-2.5-2.5-2.5h-2.5v-3h-2.225l.612-.612c.585-.585.585-1.537,0-2.122L13.543.439c-.567-.567-1.556-.566-2.121,0l-1.439,1.439v-.378c0-.827-.673-1.5-1.5-1.5h-4c-.827,0-1.5.673-1.5,1.5v4c0,.177.036.344.092.501H.985v15.5c0,1.378,1.122,2.5,2.5,2.5h12c1.378,0,2.5-1.122,2.5-2.5v-2.5h5v-7.5ZM12.13,1.146c.188-.189.517-.188.707,0l2.829,2.829c.195.195.195.512,0,.708l-1.319,1.319h-3.727l-1.319-1.319c-.195-.195-.195-.513,0-.708l2.83-2.829ZM3.982,5.5V1.5c0-.276.224-.5.5-.5h4c.276,0,.5.224.5.5v1.378l-.39.39c-.584.585-.584,1.537,0,2.122l.612.612h-4.723c-.276,0-.5-.225-.5-.501Zm13.002,16.001c0,.827-.673,1.5-1.5,1.5H3.485c-.827,0-1.5-.673-1.5-1.5V7.001h15v14.5Zm5-3.5h-4v-8h2.5c.827,0,1.5.673,1.5,1.5v6.5Z"/></svg>
