<?xml version="1.0" encoding="UTF-8"?>
<svg xmlns="http://www.w3.org/2000/svg" id="Layer_1" data-name="Layer 1" viewBox="0 0 24 24" width="512" height="512"><path d="m18.414,9l4.693-3.879c.566-.566.879-1.32.879-2.121s-.312-1.555-.879-2.121c-1.134-1.135-3.078-1.168-4.274.035l-6.68,8.086H0v.5c0,4.22,1.854,8.145,4.877,10.266.543.314,1.123,1.049,1.123,1.643,0,.877-.714,1.591-1.591,1.591h-.409v1h16v-1h-.409c-.877,0-1.591-.714-1.591-1.591,0-.594.58-1.329,1.159-1.667,2.986-2.098,4.841-6.023,4.841-10.243v-.5h-5.586Zm1.158-7.414c.756-.756,2.072-.756,2.828,0,.378.378.586.88.586,1.414s-.208,1.036-.551,1.382l-5.59,4.618h-3.396l6.122-7.414ZM6.452,23c.343-.439.548-.991.548-1.591,0-.489-.193-.982-.475-1.409h10.953c-.286.43-.478.921-.478,1.409,0,.599.205,1.151.548,1.591H6.452Zm12.169-4.099c-.053.03-.105.064-.158.099H5.538c-.041-.027-.082-.052-.123-.076-2.606-1.832-4.268-5.218-4.405-8.924h21.98c-.138,3.706-1.798,7.092-4.369,8.901Z"/></svg>
