<?xml version="1.0" encoding="UTF-8"?>
<svg xmlns="http://www.w3.org/2000/svg" id="Layer_1" data-name="Layer 1" viewBox="0 0 24 24">
  <path d="m14,24c-6.617,0-12-5.383-12-12S7.383,0,14,0c2.011,0,4.013.521,5.79,1.508l.776.432-.771.44c-3.521,2.01-5.795,5.59-5.795,9.12,0,4.499,3.354,8.025,6.679,9.524l.811.366-.733.502c-2.012,1.379-4.348,2.107-6.756,2.107Zm0-23C7.935,1,3,5.935,3,12s4.935,11,11,11c1.918,0,3.787-.505,5.455-1.468-3.332-1.812-6.455-5.458-6.455-10.032,0-3.614,2.142-7.262,5.524-9.511-1.423-.649-2.971-.989-4.524-.989Z"/>
</svg>
