<?xml version="1.0" encoding="UTF-8"?>
<svg xmlns="http://www.w3.org/2000/svg" id="Layer_1" data-name="Layer 1" viewBox="0 0 24 24">
  <path d="m22.5,0h-4.5v1h4.293l-4.566,4.566c-1.137-.976-2.614-1.566-4.227-1.566-1.287,0-2.487.376-3.498,1.023-1.046-.67-2.254-1.023-3.502-1.023C2.916,4,0,6.916,0,10.5c0,3.416,2.649,6.225,6,6.481v3.019h-3v1h3v3h1v-3h3v-1h-3v-3.019c1.07-.082,2.097-.424,3.002-1.004,1.01.648,2.211,1.023,3.498,1.023,3.584,0,6.5-2.916,6.5-6.5,0-1.612-.59-3.089-1.566-4.227l4.566-4.566v4.293h1V1.5c0-.827-.673-1.5-1.5-1.5ZM6.5,16c-3.032,0-5.5-2.467-5.5-5.5s2.468-5.5,5.5-5.5c.932,0,1.838.234,2.646.678-1.317,1.19-2.146,2.911-2.146,4.822s.829,3.632,2.146,4.822c-.808.444-1.714.678-2.646.678Zm7,0c-3.032,0-5.5-2.467-5.5-5.5s2.468-5.5,5.5-5.5,5.5,2.467,5.5,5.5-2.468,5.5-5.5,5.5Z"/>
</svg>
