<?xml version="1.0" encoding="UTF-8"?>
<svg xmlns="http://www.w3.org/2000/svg" id="Layer_1" data-name="Layer 1" viewBox="0 0 24 24" width="512" height="512"><path d="M6.461,14.667l.696-.717,2.984,2.898c.201,.199,.519,.199,.712,.005l5.796-5.71,.701,.713-5.792,5.707c-.291,.29-.674,.437-1.057,.437s-.769-.146-1.062-.439l-2.979-2.894Zm17.539-6.667h-1V24H1V8H0V2.5C0,1.121,1.122,0,2.5,0H21.5c1.379,0,2.5,1.121,2.5,2.5v5.5Zm-2,0H2v15H22V8Zm1-5.5c0-.827-.673-1.5-1.5-1.5H2.5c-.827,0-1.5,.673-1.5,1.5V7H23V2.5Z"/></svg>
