<?xml version="1.0" encoding="UTF-8"?>
<svg xmlns="http://www.w3.org/2000/svg" id="Layer_1" data-name="Layer 1" viewBox="0 0 24 24">
  <path d="m23.28,9.394L12.99,1.341c-.582-.456-1.398-.456-1.98,0L.72,9.394l-.617-.787L10.393.554c.947-.741,2.268-.741,3.215,0l10.29,8.052-.617.787ZM1,20.5c0-.827.673-1.5,1.5-1.5h2.5v-1h-2.5c-1.379,0-2.5,1.121-2.5,2.5v3.5h1v-3.5Zm6-7c0-1.378-1.121-2.5-2.5-2.5s-2.5,1.122-2.5,2.5,1.121,2.5,2.5,2.5,2.5-1.121,2.5-2.5Zm-1,0c0,.827-.673,1.5-1.5,1.5s-1.5-.673-1.5-1.5.673-1.5,1.5-1.5,1.5.673,1.5,1.5Zm18,7c0-1.379-1.121-2.5-2.5-2.5h-2.5v1h2.5c.827,0,1.5.673,1.5,1.5v3.5h1v-3.5Zm-2-7c0-1.378-1.121-2.5-2.5-2.5s-2.5,1.122-2.5,2.5,1.121,2.5,2.5,2.5,2.5-1.121,2.5-2.5Zm-1,0c0,.827-.673,1.5-1.5,1.5s-1.5-.673-1.5-1.5.673-1.5,1.5-1.5,1.5.673,1.5,1.5Zm-6-3.5c0-1.654-1.346-3-3-3s-3,1.346-3,3,1.346,3,3,3,3-1.346,3-3Zm-1,0c0,1.103-.897,2-2,2s-2-.897-2-2,.897-2,2-2,2,.897,2,2Zm3,7.5c0-1.379-1.121-2.5-2.5-2.5h-5c-1.379,0-2.5,1.121-2.5,2.5v6.5h1v-6.5c0-.827.673-1.5,1.5-1.5h5c.827,0,1.5.673,1.5,1.5v6.5h1v-6.5Z"/>
</svg>
