<?xml version="1.0" encoding="UTF-8"?>
<svg xmlns="http://www.w3.org/2000/svg" id="Layer_1" data-name="Layer 1" viewBox="0 0 24 24">
  <path d="m23.5,0c-2.554,0-4.501,1.432-5.529,4.047-1.013-.333-3.472-1.047-5.971-1.047s-4.959.714-5.971,1.047C5.001,1.432,3.053,0,.5,0h-.5v11.926c0,1.53.596,2.968,1.678,4.05l6.999,6.999c.661.661,1.54,1.025,2.475,1.025h1.696c.922,0,1.824-.374,2.475-1.025l6.999-6.999c1.082-1.082,1.678-2.52,1.678-4.05V0h-.5ZM5.253,4.84l.164.493.486-.183c.03-.011,3.086-1.149,6.097-1.149s6.065,1.138,6.097,1.149l.485.183.165-.493c.95-2.85,2.749-3.678,4.253-3.817v7.08c-1.817.469-9,2.866-9,11.397v.5h-4v-.5c0-8.531-7.183-10.928-9-11.397V1.023c1.504.139,3.303.967,4.253,3.817Zm4.747,16.16h4c0,1.103-.897,2-2,2s-2-.897-2-2Zm-7.615-5.731c-.893-.893-1.385-2.08-1.385-3.343v-2.797c.661.178,1.793.554,3,1.269v.602s.465,2.784,3.629,2.988c.822,1.417,1.371,3.221,1.371,5.512v1.5c0,.384.073.751.206,1.089l-6.821-6.821Zm19.23,0l-6.821,6.821c.132-.338.206-.705.206-1.089v-1.5c0-2.291.55-4.095,1.371-5.512,3.164-.204,3.629-2.988,3.629-2.988v-.602c1.207-.715,2.339-1.091,3-1.269v2.797c0,1.263-.492,2.45-1.385,3.343Z"/>
</svg>
