<?xml version="1.0" encoding="UTF-8"?>
<svg xmlns="http://www.w3.org/2000/svg" id="Layer_1" data-name="Layer 1" viewBox="0 0 24 24">
  <path d="m12,0C5.383,0,0,5.383,0,12s5.383,12,12,12,12-5.383,12-12S18.617,0,12,0Zm0,1c4.407,0,8.206,2.611,9.96,6.362-.355-.227-.764-.362-1.197-.362h-6.27l-1.5,1.5h-1.986l-1.5-1.5H3.203c-.414,0-.805.124-1.148.332C3.814,3.597,7.605,1,12,1Zm9.976,8.479l-.404,2.021c-.174.869-.943,1.5-1.83,1.5h-3.187c-.862,0-1.61-.584-1.82-1.42l-.681-2.727.854-.854h5.856c.372,0,.72.165.956.452.236.288.329.662.256,1.027Zm-12.029-.626l-.681,2.727c-.209.836-.958,1.42-1.82,1.42h-3.221c-.886,0-1.656-.631-1.83-1.5l-.404-2.021c-.073-.365.021-.739.256-1.027.236-.287.584-.452.956-.452h5.89l.854.854Zm2.054,14.146c-6.065,0-11-4.935-11-11,0-.569.057-1.124.141-1.671l.273,1.366c.267,1.336,1.449,2.305,2.81,2.305h3.221c1.321,0,2.469-.896,2.79-2.178l.581-2.322h2.369l.581,2.322c.321,1.282,1.468,2.178,2.79,2.178h3.187c1.361,0,2.543-.969,2.81-2.305l.293-1.463c.094.577.156,1.165.156,1.768,0,6.065-4.935,11-11,11Zm5.084-7.027l.832.555c-2.315,3.473-5.778,3.473-6.916,3.473v-1c1.006,0,4.066,0,6.084-3.027Z"/>
</svg>
