<?xml version="1.0" encoding="UTF-8"?>
<svg xmlns="http://www.w3.org/2000/svg" id="Layer_1" data-name="Layer 1" viewBox="0 0 24 24">
  <path d="m24,8h-5.46l3.582-6.012-.859-.512-3.887,6.523h-3.766L15.333.459l-.975-.223-1.773,7.764h-5.961L2.737,1.477l-.859.512,3.581,6.012H0v1h2v4.5c0,2.911,1.666,5.439,4.095,6.682l-1.736,3.818h1.1l1.363-3h10.356l1.363,3h1.099l-1.737-3.818c2.429-1.242,4.096-3.771,4.096-6.682v-4.5h2v-1Zm-3,5.5c0,3.584-2.916,6.5-6.5,6.5h-5c-3.584,0-6.5-2.916-6.5-6.5v-1.5h16v-1H3v-2h18v4.5Z"/>
</svg>
