<?xml version="1.0" encoding="UTF-8"?>
<svg xmlns="http://www.w3.org/2000/svg" id="Layer_1" data-name="Layer 1" viewBox="0 0 24 24" width="512" height="512"><path d="m23.686,10.737l-4.445-8.362c-.452-.848-1.328-1.375-2.286-1.375H7.067c-.956,0-1.832.525-2.284,1.372L.316,10.738c-.423.794-.423,1.742,0,2.535l4.466,8.356c.452.846,1.327,1.371,2.283,1.371h9.888c.958,0,1.834-.527,2.286-1.375l4.445-8.362c.42-.791.42-1.735,0-2.525Zm-.883,2.056l-4.445,8.362c-.278.521-.815.845-1.403.845H7.066c-.587,0-1.123-.322-1.4-.842L1.2,12.801c-.267-.499-.268-1.094,0-1.593L5.666,2.843c.277-.52.814-.843,1.401-.843h9.887c.588,0,1.125.324,1.403.846l4.445,8.361c.264.497.264,1.09,0,1.587Zm-15.803-1.293h10v1H7v-1Z"/></svg>
