<?xml version="1.0" encoding="UTF-8"?>
<svg xmlns="http://www.w3.org/2000/svg" id="Layer_1" data-name="Layer 1" viewBox="0 0 24 24">
  <path d="m19.522,6.989l-8.522.01v-.999c0-1.017-.375-1.934-1-2.633v-.367c0-1.657-1.343-3-3-3v2.008l-.142-.008v.019c-.414.025-.947.08-1.267.181l-3.668,1.325c-.739.266-1.33.803-1.664,1.513-.335.709-.373,1.507-.108,2.245.267.744.84,1.341,1.658,1.728.669.315,2.374.629,3.19.767v14.224h6.002l-.022-4.99,7.022-.009.021,4.987,5.975.013.023-12.512c0-2.481-2.019-4.5-4.5-4.5Zm-17.286,1.116c-.399-.188-.922-.543-1.144-1.161-.175-.487-.15-1.013.071-1.481.221-.468.611-.822,1.099-.997l3.65-1.319c.211-.066.761-.12,1.171-.14,1.652.107,2.916,1.384,2.916,2.993v2.001s9.523-.012,9.523-.012c1.93,0,3.5,1.57,3.5,3.499l-.002,1.083-.04-.04c-.783-.707-1.834-.707-2.618,0l-1.319,1.194c-.406.367-.872.366-1.277,0l-1.32-1.196c-.783-.707-1.834-.706-2.618,0l-1.32,1.195c-.405.367-.87.366-1.276,0l-1.32-1.196c-.782-.706-1.834-.705-2.625.007l-1.287,1.213v-4.828l-.423-.066c-.724-.112-2.736-.468-3.34-.752Zm16.784,14.885l-.022-4.991-9.022.013.022,4.988h-3.998v-7.874l1.965-1.853c.406-.367.872-.366,1.277,0l1.32,1.196c.784.708,1.835.707,2.618,0l1.32-1.195c.405-.367.87-.366,1.276,0l1.32,1.196c.782.707,1.834.709,2.618,0l1.32-1.194c.406-.367.871-.368,1.258-.018l.726.727-.016,9.016-3.981-.009Z"/>
</svg>
