<?xml version="1.0" encoding="UTF-8"?>
<svg xmlns="http://www.w3.org/2000/svg" id="Layer_1" data-name="Layer 1" viewBox="0 0 24 24">
  <path d="m24,11v1h-6c0-3.309-2.691-6-6-6s-6,2.691-6,6H0v-1h5.072c.128-.887.422-1.722.85-2.47L1.386,5.89l.503-.863,4.592,2.673c.502-.643,1.114-1.196,1.807-1.631L5.558,1.375l.864-.502,2.748,4.725c.721-.32,1.506-.522,2.33-.58V0h1v5.018c.829.059,1.618.262,2.343.586l2.751-4.731.865.502-2.734,4.701c.69.435,1.299.988,1.799,1.63l4.603-2.68.504.863-4.549,2.648c.426.746.719,1.578.846,2.462h5.072Zm-1.5,6c-1.654,0-3-1.346-3-3h-1c0,1.654-1.346,3-3,3s-3-1.346-3-3h-1c0,1.654-1.346,3-3,3s-3-1.346-3-3h-1c0,1.654-1.346,3-3,3-.38,0-.752-.07-1.104-.209l-.367.93c.469.186.964.279,1.471.279,1.504,0,2.817-.835,3.5-2.065.683,1.231,1.996,2.065,3.5,2.065s2.817-.835,3.5-2.065c.683,1.231,1.995,2.065,3.5,2.065s2.817-.835,3.5-2.065c.683,1.23,1.995,2.065,3.5,2.065.511,0,1.008-.095,1.479-.282l-.369-.93c-.354.141-.727.212-1.11.212Zm0,6c-1.654,0-3-1.346-3-3h-1c0,1.654-1.346,3-3,3s-3-1.346-3-3h-1c0,1.654-1.346,3-3,3s-3-1.346-3-3h-1c0,1.654-1.346,3-3,3-.383,0-.756-.071-1.107-.211l-.37.93c.47.187.966.281,1.477.281,1.504,0,2.817-.835,3.5-2.065.683,1.231,1.996,2.065,3.5,2.065s2.817-.835,3.5-2.065c.683,1.231,1.995,2.065,3.5,2.065s2.817-.835,3.5-2.065c.683,1.23,1.995,2.065,3.5,2.065.512,0,1.008-.095,1.478-.281l-.371-.93c-.351.14-.723.211-1.106.211Z"/>
</svg>
