<?xml version="1.0" encoding="UTF-8"?>
<svg xmlns="http://www.w3.org/2000/svg" id="Layer_1" data-name="Layer 1" viewBox="0 0 24 24">
  <path d="m17.5,11c-3.584,0-6.5,2.916-6.5,6.5s2.916,6.5,6.5,6.5,6.5-2.916,6.5-6.5-2.916-6.5-6.5-6.5Zm0,12c-3.032,0-5.5-2.468-5.5-5.5s2.468-5.5,5.5-5.5,5.5,2.468,5.5,5.5-2.468,5.5-5.5,5.5Zm2.939-7.451l.701.713-3.456,3.399c-.217.218-.51.339-.822.339s-.604-.121-.825-.343l-1.85-1.793.695-.719,1.856,1.8c.099.1.157.089.24.007l3.46-3.403ZM6.5,5c1.379,0,2.5-1.121,2.5-2.5S7.879,0,6.5,0s-2.5,1.121-2.5,2.5,1.121,2.5,2.5,2.5Zm0-4c.827,0,1.5.673,1.5,1.5s-.673,1.5-1.5,1.5-1.5-.673-1.5-1.5.673-1.5,1.5-1.5Zm3.5,12.502v-5.002c0-.827-.673-1.5-1.5-1.5h-4c-.827,0-1.5.673-1.5,1.5v7.5h6v8h-1v-7h-3v7h-1v-7h-2v-8.5c0-1.379,1.121-2.5,2.5-2.5h4c1.379,0,2.5,1.121,2.5,2.5v3.528c-.382.454-.718.947-1,1.474Z"/>
</svg>
