<?xml version="1.0" encoding="UTF-8"?>
<svg xmlns="http://www.w3.org/2000/svg" id="Layer_1" data-name="Layer 1" viewBox="0 0 24 24">
  <path d="m11,16c0-.534-.208-1.037-.566-1.393l-1.434-1.608-1.414,1.587c-.378.377-.586.88-.586,1.414s.208,1.037.586,1.414c.378.378.88.586,1.414.586s1.036-.208,1.414-.586c.378-.377.586-.88.586-1.414Zm-1.293.707c-.378.378-1.036.378-1.414,0-.189-.189-.293-.44-.293-.707s.104-.518.312-.728l.688-.771.707.792c.189.189.293.44.293.707s-.104.518-.293.707Zm-3.692,2.292l-1.414,1.587c-.378.377-.586.88-.586,1.414s.208,1.037.586,1.414c.378.378.88.586,1.414.586s1.036-.208,1.414-.586c.378-.377.586-.88.586-1.414s-.208-1.037-.566-1.393l-1.434-1.608Zm.707,3.708c-.378.378-1.036.378-1.414,0-.189-.189-.293-.44-.293-.707s.104-.518.312-.728l.688-.771.707.792c.189.189.293.44.293.707s-.104.518-.293.707Zm5.293-3.708l-1.414,1.587c-.378.377-.586.88-.586,1.414s.208,1.037.586,1.414c.378.378.88.586,1.414.586s1.036-.208,1.414-.586c.378-.377.586-.88.586-1.414s-.208-1.037-.566-1.393l-1.434-1.608Zm.707,3.708c-.378.378-1.036.378-1.414,0-.189-.189-.293-.44-.293-.707s.104-.518.312-.728l.688-.771.707.792c.189.189.293.44.293.707s-.104.518-.293.707Zm-.222-20.695V0h-1v2.012C5.232,2.302.211,8.069,0,8.315v2.685h24v-2.685c-.211-.245-5.232-6.013-11.5-6.303Zm10.5,7.988H1v-1.309c.801-.873,5.478-5.691,11-5.691s10.199,4.819,11,5.691v1.309Zm-6,6c0-.534-.208-1.037-.566-1.393l-1.434-1.608-1.414,1.587c-.378.377-.586.88-.586,1.414s.208,1.037.586,1.414c.378.378.88.586,1.414.586s1.036-.208,1.414-.586c.378-.377.586-.88.586-1.414Zm-1.293.707c-.378.378-1.036.378-1.414,0-.189-.189-.293-.44-.293-.707s.104-.518.312-.728l.688-.771.707.792c.189.189.293.44.293.707s-.104.518-.293.707Zm2.293,2.292l-1.414,1.587c-.378.377-.586.88-.586,1.414s.208,1.037.586,1.414c.378.378.88.586,1.414.586s1.036-.208,1.414-.586c.378-.377.586-.88.586-1.414s-.208-1.037-.566-1.393l-1.434-1.608Zm.707,3.708c-.378.378-1.036.378-1.414,0-.189-.189-.293-.44-.293-.707s.104-.518.312-.728l.688-.771.707.792c.189.189.293.44.293.707s-.104.518-.293.707Z"/>
</svg>
