<?xml version="1.0" encoding="UTF-8"?>
<svg xmlns="http://www.w3.org/2000/svg" id="Layer_1" data-name="Layer 1" viewBox="0 0 24 24" width="512" height="512"><path d="M23,0V2h-3V0h-1V2h-3V0h-1V5c0,1.103,.897,2,2,2v4H7V7c1.103,0,2-.897,2-2V0h-1V2h-3V0h-1V2H1V0H0V5c0,1.103,.897,2,2,2V24H10v-6c0-1.103,.897-2,2-2s2,.897,2,2v6h8V7c1.103,0,2-.897,2-2V0h-1ZM1,5V3h7v2c0,.552-.448,1-1,1H2c-.552,0-1-.448-1-1Zm2,2h3V23H3V7ZM12,15c-1.654,0-3,1.346-3,3v5h-2V12h10v11h-2v-5c0-1.654-1.346-3-3-3Zm9,8h-3V7h3V23Zm1-17h-5c-.552,0-1-.448-1-1V3h7v2c0,.552-.448,1-1,1Z"/></svg>
