<?xml version="1.0" encoding="UTF-8"?>
<svg xmlns="http://www.w3.org/2000/svg" id="Layer_1" data-name="Layer 1" viewBox="0 0 24 24">
  <path d="m24,2.5v12.5h-5.294c-.103-.346-.235-.679-.388-1h4.682V2.5c0-.827-.673-1.5-1.5-1.5H2.5c-.827,0-1.5.673-1.5,1.5v11.5h4.682c-.153.321-.285.654-.388,1H0V2.5C0,1.122,1.121,0,2.5,0h19c1.379,0,2.5,1.122,2.5,2.5Zm-8.146,17.646l3.159,3.159-.707.707-3.159-3.159c-.862.705-1.948,1.146-3.147,1.146-2.757,0-5-2.243-5-5s2.243-5,5-5,5,2.243,5,5c0,1.198-.441,2.284-1.146,3.146Zm-3.854.854c2.206,0,4-1.794,4-4s-1.794-4-4-4-4,1.794-4,4,1.794,4,4,4Zm-4.568-11c.368,0,.675-.339.706-.779l.363-4.221h-1.044l-.247,3.158-1.209-2.327-1.209,2.327-.249-3.158h-1.042l.363,4.221c.031.44.337.779.706.779.244,0,.471-.151.601-.4l.831-1.6.831,1.6c.129.249.356.4.601.4Zm3.136,0c.244,0,.471-.151.601-.4l.831-1.6.831,1.6c.129.249.356.4.601.4.368,0,.675-.339.706-.779l.363-4.221h-1.044l-.247,3.158-1.209-2.327-1.209,2.327-.249-3.158h-1.042l.363,4.221c.031.44.337.779.706.779Zm6,0c.244,0,.471-.151.601-.4l.831-1.6.831,1.6c.129.249.356.4.601.4.368,0,.675-.339.706-.779l.363-4.221h-1.044l-.247,3.158-1.209-2.327-1.209,2.327-.249-3.158h-1.042l.363,4.221c.031.44.337.779.706.779Z"/>
</svg>
