<?xml version="1.0" encoding="UTF-8"?>
<svg xmlns="http://www.w3.org/2000/svg" id="Layer_1" data-name="Layer 1" viewBox="0 0 24 24">
  <path d="m23.501,11.625c-.18-.329-.386-.631-.614-.9-.019-.211-.044-.441-.078-.695-.067-.505.042-1.033.307-1.487.521-.895,2.01-4.037-.721-6.964-2.9-2.704-6.045-1.218-6.938-.695-.454.265-.979.378-1.487.307-.254-.034-.484-.059-.695-.078-.271-.229-.576-.437-.93-.629-3.045-1.405-5.173.623-5.752,1.277-.277.313-.648.527-1.045.603-.856.161-1.357.327-1.841.487l-.246.081c-.872.282-1.578.888-1.989,1.705-.288.571-.406,1.209-.342,1.847.059.577-.084,1.125-.413,1.583-.102.143-.195.296-.276.458-.482.955-.509,2.068-.076,3.055.117.266.139.575.065.895-.387,1.661-.429,5.117-.429,6.526v5h5c1.409,0,4.865-.042,6.526-.428.32-.074.63-.053.895.064.988.435,2.102.404,3.057-.076.161-.082.313-.174.456-.276.459-.328,1.005-.466,1.584-.413.634.066,1.275-.054,1.846-.342.817-.412,1.423-1.118,1.705-1.989l.08-.242c.16-.485.326-.986.488-1.845.076-.402.285-.764.603-1.046.654-.579,2.681-2.705,1.262-5.782ZM15.961,1.747c.951-.554,3.42-1.61,5.728.539,2.175,2.333,1.119,4.801.564,5.753-.377.646-.531,1.399-.436,2.122.128.961.128,1.557.127,2.132v.33c.005.806-.306,1.563-.875,2.134-.396.396-.896.669-1.442.79-.948.21-1.746.728-2.306,1.494-.093.126-.195.247-.309.36-.678.678-1.627,1.012-2.581.922-.588-.056-1.182.088-1.725.419-1.999,1.218-7.322,2.654-10.092,3.35l8.092-8.093h6.293v-1h-5.293l5.535-5.535-.707-.707-5.535,5.535v-5.293h-1v6.293L1.907,21.387c.696-2.769,2.132-8.094,3.35-10.093.331-.541.475-1.138.419-1.726-.091-.963.245-1.903.921-2.58.114-.114.235-.217.36-.309.769-.561,1.286-1.357,1.496-2.307.121-.547.394-1.046.791-1.442.566-.565,1.317-.876,2.116-.876h.347c.58,0,1.171,0,2.132.128.72.097,1.477-.059,2.122-.436ZM1.279,11.177c-.312-.712-.293-1.515.054-2.203.058-.115.124-.224.196-.325.472-.659.678-1.442.595-2.266-.045-.447.038-.896.24-1.297.29-.576.789-1.004,1.404-1.203l.252-.083c.453-.149.921-.305,1.712-.454.614-.116,1.186-.444,1.608-.922.515-.581,1.806-1.738,3.647-1.352-.926.085-1.785.485-2.451,1.152-.531.532-.898,1.2-1.06,1.933-.156.708-.54,1.301-1.109,1.716-.167.122-.325.258-.476.408-.889.889-1.33,2.122-1.21,3.384.035.37-.061.754-.277,1.109-1.261,2.069-2.676,7.234-3.404,10.111v-1.885c0-2.905.146-5.201.403-6.3.123-.531.08-1.058-.124-1.523Zm20.297,5.482c-.479.424-.806.995-.922,1.608-.149.793-.305,1.262-.455,1.716l-.082.248c-.199.615-.627,1.114-1.203,1.405-.4.201-.847.285-1.296.24-.823-.086-1.605.122-2.266.594-.103.072-.212.139-.326.197-.688.346-1.491.366-2.203.053-.465-.204-.993-.244-1.523-.123-1.099.256-3.395.402-6.3.402h-1.886c2.877-.727,8.043-2.143,10.113-3.404.355-.216.736-.313,1.109-.276,1.262.118,2.494-.321,3.384-1.211.15-.15.286-.309.409-.477.414-.568,1.007-.952,1.715-1.108.732-.162,1.4-.528,1.933-1.06.661-.662,1.061-1.514,1.15-2.434.373,1.84-.774,3.118-1.35,3.629Z"/>
</svg>
