<?xml version="1.0" encoding="UTF-8"?>
<svg xmlns="http://www.w3.org/2000/svg" id="Layer_1" data-name="Layer 1" viewBox="0 0 24 24">
  <path d="m24,19v1h-3.885l-3-8h-4.546c-1.273,0-2.379-.896-2.573-2.083-.119-.734.085-1.476.562-2.036s1.17-.881,1.905-.881h7.601l-1.454-1.826h.002c-.912-1.009-.854-2.57.143-3.5,1.007-.941,2.588-.894,3.524.106l1.684,1.783v1.44l-2.407-2.535c-.562-.599-1.514-.629-2.118-.064-.603.562-.635,1.509-.072,2.115.01.01,2.773,3.479,2.773,3.479h-9.675c-.44,0-.857.193-1.143.529-.29.341-.409.776-.336,1.227.115.709.797,1.244,1.586,1.244h5.24l3,8h3.192Zm-9-5h1v7.5c0,1.378-1.122,2.5-2.5,2.5H2.5c-1.378,0-2.5-1.122-2.5-2.5V0h16v5h-1V1H1v16h14v-3Zm0,7.5v-3.5H1v3.5c0,.827.673,1.5,1.5,1.5h11c.827,0,1.5-.673,1.5-1.5Zm-5-.5h-4v-1h4s0,1,0,1Z"/>
</svg>
