<?xml version="1.0" encoding="UTF-8"?>
<svg xmlns="http://www.w3.org/2000/svg" id="Layer_1" data-name="Layer 1" viewBox="0 0 24 24">
  <path d="m20,18c-1.654,0-3,1.346-3,3s1.346,3,3,3,3-1.346,3-3-1.346-3-3-3Zm0,5c-1.103,0-2-.897-2-2s.897-2,2-2,2,.897,2,2-.897,2-2,2Zm-6-8.707l-5-5V2.293L6.707,0H1v10h7.293l5,5h-2.293v1h3c.551,0,1-.448,1-1v-3h-1v2.293ZM2,9V1h4v2h2v6H2Zm10.586,8.696l-.707.707,1.596,1.597h-4.475v-3.707l-2.293-2.293H1v10h8v-3h4.525l-1.646,1.646.707.707,2.121-2.121c.39-.39.39-1.024,0-1.414l-2.121-2.122Zm-10.586,5.304v-8h4v2h2v6H2Zm18-8.475l-1.646-1.646-.707.707,2.121,2.121c.195.195.451.293.707.293s.513-.098.708-.293l2.121-2.121-.707-.707-1.596,1.596V2.293l-2.293-2.293h-5.707v10h7v4.525ZM14,1h4v2h2v6h-6V1Z"/>
</svg>
