<?xml version="1.0" encoding="UTF-8"?>
<svg xmlns="http://www.w3.org/2000/svg" id="Layer_1" data-name="Layer 1" viewBox="0 0 24 24">
  <path d="m23,12h1c0,6.617-5.383,12-12,12-4.79,0-9.107-2.863-11-7.205v4.205H0v-4.491c0-.832.677-1.509,1.508-1.509h4.492v1H1.759c1.641,4.2,5.707,7,10.241,7,6.065,0,11-4.935,11-11Zm0-9v4.203C21.106,2.862,16.79,0,12,0,5.383,0,0,5.383,0,12h1C1,5.935,5.935,1,12,1c4.534,0,8.601,2.8,10.241,7h-4.241v1h4.491c.832,0,1.509-.677,1.509-1.509V3h-1Zm-6,14H7v-8c0-1.103.897-2,2-2h6c1.103,0,2,.897,2,2v8Zm-1-8c0-.552-.448-1-1-1h-6c-.551,0-1,.448-1,1v7h8v-7Zm-5.5,2h3v-1h-3v1Z"/>
</svg>
