<?xml version="1.0" encoding="UTF-8"?>
<svg xmlns="http://www.w3.org/2000/svg" id="Layer_1" data-name="Layer 1" viewBox="0 0 24 24">
  <path d="m5,20c0,.328.031.663.085,1h-1.001c-.046-.336-.084-.67-.084-1,0-4.411,3.589-8,8-8,1.295,0,2.516.316,3.599.865l-.748.748c-.872-.391-1.835-.613-2.851-.613-3.86,0-7,3.141-7,7Zm14.916,1c.046-.336.084-.67.084-1,0-1.295-.316-2.516-.865-3.599l-.748.748c.391.872.613,1.835.613,2.851,0,.328-.031.663-.085,1h1.001Zm-6.199-2.01c.176.297.283.64.283,1.01,0,1.103-.897,2-2,2s-2-.897-2-2,.897-2,2-2c.37,0,.712.108,1.01.283l4.637-4.637.707.707-4.637,4.637Zm-.717,1.01c0-.552-.449-1-1-1s-1,.448-1,1,.449,1,1,1,1-.448,1-1Zm7-8.919v-6.789l2.392,2.392.707-.707-2.672-2.672c-.512-.512-1.343-.513-1.854,0l-2.672,2.672.707.707,2.392-2.392v5.981c-1.846-1.332-4.08-2.147-6.5-2.248V1.292l2.392,2.392.707-.707L12.927.306c-.512-.512-1.343-.513-1.854,0l-2.672,2.672.707.707,2.392-2.392v6.733c-2.42.1-4.654.916-6.5,2.248v-5.981l2.392,2.392.707-.707-2.672-2.672c-.512-.512-1.343-.513-1.854,0L.901,5.978l.707.707,2.392-2.392v6.789C1.552,13.279,0,16.458,0,20c0,1.194.204,2.425.607,3.655l.113.345h6.28v-1H1.451c-.299-1.015-.451-2.022-.451-3,0-6.065,4.935-11,11-11s11,4.935,11,11c0,.978-.151,1.985-.451,3h-5.549v1h6.28l.113-.345c.403-1.23.607-2.461.607-3.655,0-3.542-1.552-6.721-4-8.919Z"/>
</svg>
