<?xml version="1.0" encoding="UTF-8"?>
<svg xmlns="http://www.w3.org/2000/svg" id="Layer_1" data-name="Layer 1" viewBox="0 0 24 24" width="512" height="512"><path d="m22,18.184V5.816c1.161-.414,2-1.514,2-2.816,0-1.654-1.346-3-3-3-1.302,0-2.402.839-2.816,2H5.816c-.414-1.161-1.514-2-2.816-2C1.346,0,0,1.346,0,3c0,1.302.839,2.402,2,2.816v12.369c-1.161.414-2,1.514-2,2.816,0,1.654,1.346,3,3,3,1.302,0,2.402-.839,2.816-2h12.369c.414,1.161,1.514,2,2.816,2,1.654,0,3-1.346,3-3,0-1.302-.839-2.402-2-2.816Zm-1-17.184c1.103,0,2,.897,2,2s-.897,2-2,2-2-.897-2-2,.897-2,2-2ZM1,3c0-1.103.897-2,2-2s2,.897,2,2-.897,2-2,2-2-.897-2-2Zm2,20c-1.103,0-2-.897-2-2s.897-2,2-2,2,.897,2,2-.897,2-2,2Zm15-2H6c0-1.654-1.346-3-3-3V6c1.654,0,3-1.346,3-3h12c0,1.654,1.346,3,3,3v12c-1.654,0-3,1.346-3,3Zm3,2c-1.103,0-2-.897-2-2s.897-2,2-2,2,.897,2,2-.897,2-2,2Zm-7-11.5v-3c0-.827-.673-1.5-1.5-1.5h-5c-.827,0-1.5.673-1.5,1.5v3c0,.827.673,1.5,1.5,1.5h5c.827,0,1.5-.673,1.5-1.5Zm-7,0v-3c0-.275.224-.5.5-.5h5c.276,0,.5.225.5.5v3c0,.275-.224.5-.5.5h-5c-.276,0-.5-.225-.5-.5Zm11,1v3c0,.827-.673,1.5-1.5,1.5h-5c-.827,0-1.5-.673-1.5-1.5v-.5h1v.5c0,.275.224.5.5.5h5c.276,0,.5-.225.5-.5v-3c0-.275-.224-.5-.5-.5h-.5v-1h.5c.827,0,1.5.673,1.5,1.5Z"/></svg>
