<?xml version="1.0" encoding="UTF-8"?>
<svg xmlns="http://www.w3.org/2000/svg" id="Layer_1" data-name="Layer 1" viewBox="0 0 24 24">
  <path d="m23.469,19.933c-1.147-2.384-2.454-3.948-2.468-3.965h0s.021-.029.021-.029c.266-.374,1.22-1.661,2.34-2.546l.596-.471-.669-.361c-.873-.472-2.083-1.056-3.723-1.402l-.565-.087v-4.38l-.276-.138c-.045-.022-1.118-.553-2.224-.553-2.36,0-3.708,1.029-5.012,2.023-1.022.78-2.005,1.522-3.488,1.827v-2.351c0-1.372-2.157-1.833-2.393-1.878-1.576-.342-3.118-.772-4.46-1.243L.007,3.979l.524,1.088c1.147,2.384,2.454,3.948,2.468,3.965h0s-.021.029-.021.029c-.266.374-1.22,1.661-2.34,2.546l-.596.471.669.361c.873.472,2.083,1.056,3.723,1.402l.565.087v4.38l.276.138c.045.022,1.118.553,2.224.553,2.36,0,3.708-1.029,5.012-2.023,1.022-.78,2.006-1.522,3.488-1.827v2.351c0,1.372,2.157,1.833,2.393,1.878,1.576.342,3.118.772,4.46,1.243l1.14.4-.524-1.088ZM4.614,12.859c-1.125-.238-2.044-.608-2.777-.964.923-.856,1.654-1.828,1.968-2.269l.476-.645-.521-.599c-.01-.012-.862-1.041-1.77-2.674,1.075.333,2.234.636,3.416.893.652.129,1.595.523,1.595.899,0,.276-.224.5-.5.5-.827,0-1.5.673-1.5,1.5v3.418l-.386-.059Zm7.292,3.323c-1.226.935-2.384,1.818-4.406,1.818-.574,0-1.165-.195-1.5-.328v-6.764c.157.056.324.092.5.092,2.735,0,4.254-1.159,5.594-2.182,1.226-.935,2.384-1.818,4.406-1.818.574,0,1.165.195,1.5.328v6.764c-.157-.056-.324-.092-.5-.092-2.735,0-4.254,1.159-5.594,2.182Zm6.689,2.217c-.652-.129-1.595-.523-1.595-.899,0-.276.224-.5.5-.5.827,0,1.5-.673,1.5-1.5v-3.418l.386.059c1.125.238,2.044.608,2.777.964-.923.856-1.654,1.828-1.968,2.269l-.476.645.521.599c.01.012.862,1.041,1.77,2.674-1.075-.333-2.234-.636-3.416-.893Z"/>
</svg>
