<?xml version="1.0" encoding="UTF-8"?>
<svg xmlns="http://www.w3.org/2000/svg" id="Layer_1" data-name="Layer 1" viewBox="0 0 24 24">
  <path d="m23.31,2.287l-1.597-1.597c-.778-.779-2.014-.911-2.94-.316l-1.891,1.216c-1.483-.698-3.138-1.09-4.883-1.09C5.659.5.5,5.659.5,12c0,1.745.391,3.4,1.09,4.882l-1.215,1.891c-.595.926-.462,2.162.315,2.939l1.597,1.597c.452.453,1.06.688,1.67.688.44,0,.882-.122,1.27-.371l1.891-1.216c1.483.698,3.138,1.09,4.883,1.09,6.341,0,11.5-5.159,11.5-11.5,0-1.745-.391-3.4-1.09-4.882l1.215-1.891c.595-.926.462-2.162-.315-2.939ZM4.686,22.784c-.534.342-1.244.267-1.692-.182l-1.597-1.597c-.448-.447-.524-1.159-.182-1.691l.913-1.421c.977,1.631,2.347,3,3.977,3.978l-1.42.913Zm7.314-.284c-5.79,0-10.5-4.71-10.5-10.5S6.21,1.5,12,1.5s10.5,4.71,10.5,10.5-4.71,10.5-10.5,10.5ZM22.785,4.686l-.913,1.421c-.977-1.631-2.347-3-3.977-3.978l1.42-.913c.532-.344,1.244-.267,1.692.182l1.597,1.597c.448.447.524,1.159.182,1.691Zm-7.785,13.314c0,.552-.448,1-1,1s-1-.448-1-1,.448-1,1-1,1,.448,1,1Zm-10-7c0-.552.448-1,1-1s1,.448,1,1-.448,1-1,1-1-.448-1-1Zm8,1c0,.552-.448,1-1,1s-1-.448-1-1,.448-1,1-1,1,.448,1,1Zm3-5c0-.552.448-1,1-1s1,.448,1,1-.448,1-1,1-1-.448-1-1Zm-11,7.5c0,2.481,2.019,4.5,4.5,4.5h.5v-5h-5v.5Zm4,.5v2.965c-1.531-.221-2.745-1.435-2.964-2.965h2.964Zm9.329-5.035l-3.536,3.535,3.536,3.535.354-.354c.85-.85,1.318-1.979,1.318-3.182s-.468-2.332-1.318-3.182l-.354-.354Zm-.025,5.632l-2.097-2.097,2.097-2.097c.452.603.696,1.33.696,2.097s-.244,1.494-.696,2.097Zm-5.304-11.097v-.5h-5v5h.5c2.481,0,4.5-2.019,4.5-4.5Zm-4,.5h2.964c-.22,1.53-1.434,2.744-2.964,2.965v-2.965Z"/>
</svg>
