<?xml version="1.0" encoding="UTF-8"?>
<svg xmlns="http://www.w3.org/2000/svg" id="Layer_1" data-name="Layer 1" viewBox="0 0 24 24" width="512" height="512"><path d="M20,0H6.5C3.977,0,2,3.075,2,7v14c0,1.103-.897,2-2,2v1H13.5c1.93,0,3.5-1.57,3.5-3.5v-4.5h3c2.243,0,4-3.514,4-8S22.243,0,20,0Zm-4,8v12.5c0,1.379-1.121,2.5-2.5,2.5H2.234c.476-.531,.766-1.232,.766-2V7c0-3.252,1.603-6,3.5-6h11.535c-1.224,1.353-2.035,3.952-2.035,7Zm1,7v-1.655c.294,.662,.643,1.222,1.035,1.655h-1.035Zm3,0c-1.419,0-3-2.875-3-7s1.581-7,3-7,3,2.875,3,7-1.581,7-3,7Zm1-7c0,.828-.448,1.5-1,1.5s-1-.672-1-1.5,.448-1.5,1-1.5,1,.672,1,1.5Z"/></svg>
