<?xml version="1.0" encoding="UTF-8"?>
<svg xmlns="http://www.w3.org/2000/svg" id="Layer_1" data-name="Layer 1" viewBox="0 0 24 24">
  <path d="m17.523,12.8c.634.635.634,1.667,0,2.302l-3.196,3.195-.707-.707,3.196-3.195c.244-.245.244-.643,0-.888l-3.143-3.143.707-.707,3.143,3.143Zm-10.337.701l3.166-3.166-.707-.707-3.166,3.166c-.638.638-.638,1.675,0,2.312l3.219,3.219.707-.707-3.219-3.219c-.248-.248-.248-.65,0-.898Zm16.814.999c0,4.136-3.364,7.5-7.5,7.5H5.5c-3.033,0-5.5-2.468-5.5-5.5,0-1.803.87-3.451,2.345-4.483-.229-.743-.345-1.504-.345-2.267,0-4.273,3.477-7.75,7.75-7.75,3.249,0,6.12,2.004,7.252,5.022,3.89.262,6.998,3.545,6.998,7.478Zm-1,0c0-3.509-2.857-6.422-6.368-6.493l-.355-.007-.11-.339c-.907-2.788-3.485-4.661-6.417-4.661-3.722,0-6.75,3.028-6.75,6.75,0,.776.139,1.552.412,2.304l.141.388-.354.212c-1.377.826-2.2,2.265-2.2,3.847,0,2.481,2.019,4.5,4.5,4.5h11c3.584,0,6.5-2.916,6.5-6.5Z"/>
</svg>
