<?xml version="1.0" encoding="UTF-8"?>
<svg xmlns="http://www.w3.org/2000/svg" id="Layer_1" data-name="Layer 1" viewBox="0 0 24 24" width="512" height="512"><path d="M8,9h8v1.23l-6.732,5.77h6.732v1H8v-1.23l6.731-5.77h-6.731v-1Zm11.74,11.814l2.139,2.35-.74,.673-2.139-2.35c-1.902,1.57-4.338,2.514-6.991,2.514s-5.089-.944-6.991-2.514l-2.139,2.35-.739-.673,2.138-2.35c-2.016-1.995-3.269-4.76-3.269-7.814C1.009,7.103,5.677,2.289,11.509,2.025V0h1V2.025c5.832,.264,10.5,5.078,10.5,10.975,0,3.054-1.253,5.819-3.269,7.814Zm-7.731,2.186c5.514,0,10-4.486,10-10S17.523,3,12.009,3,2.009,7.486,2.009,13s4.486,10,10,10ZM22.743,4.812l.795-.607c-1.158-1.516-2.581-2.773-4.228-3.734l-.504,.863c1.533,.896,2.857,2.066,3.937,3.479ZM5.206,1.337l-.505-.863C3.049,1.439,1.623,2.703,.462,4.229l.796,.605c1.082-1.421,2.41-2.598,3.948-3.497Z"/></svg>
