<?xml version="1.0" encoding="UTF-8"?>
<svg xmlns="http://www.w3.org/2000/svg" id="Layer_1" data-name="Layer 1" viewBox="0 0 24 24">
  <path d="m22.5,17h-1.5v-4c0-1.103-.897-2-2-2h-6.5v-4h1.5c.827,0,1.5-.673,1.5-1.5v-3c0-.827-.673-1.5-1.5-1.5h-4c-.827,0-1.5.673-1.5,1.5v3c0,.827.673,1.5,1.5,1.5h1.5v4h-6.5c-1.103,0-2,.897-2,2v4h-1.5c-.827,0-1.5.673-1.5,1.5v3c0,.827.673,1.5,1.5,1.5h4c.827,0,1.5-.673,1.5-1.5v-3c0-.827-.673-1.5-1.5-1.5h-1.5v-4c0-.552.449-1,1-1h6.5v5h-1.5c-.827,0-1.5.673-1.5,1.5v3c0,.827.673,1.5,1.5,1.5h4c.827,0,1.5-.673,1.5-1.5v-3c0-.827-.673-1.5-1.5-1.5h-1.5v-5h6.5c.552,0,1,.448,1,1v4h-1.5c-.827,0-1.5.673-1.5,1.5v3c0,.827.673,1.5,1.5,1.5h4c.827,0,1.5-.673,1.5-1.5v-3c0-.827-.673-1.5-1.5-1.5ZM9.5,5.5v-3c0-.275.224-.5.5-.5h4c.275,0,.5.225.5.5v3c0,.275-.225.5-.5.5h-4c-.276,0-.5-.225-.5-.5Zm-3.5,13v3c0,.275-.224.5-.5.5H1.5c-.276,0-.5-.225-.5-.5v-3c0-.275.224-.5.5-.5h4c.276,0,.5.225.5.5Zm8.5,0v3c0,.275-.225.5-.5.5h-4c-.276,0-.5-.225-.5-.5v-3c0-.275.224-.5.5-.5h4c.275,0,.5.225.5.5Zm8.5,3c0,.275-.225.5-.5.5h-4c-.275,0-.5-.225-.5-.5v-3c0-.275.225-.5.5-.5h4c.275,0,.5.225.5.5v3Z"/>
</svg>
