<?xml version="1.0" encoding="UTF-8"?>
<svg xmlns="http://www.w3.org/2000/svg" id="Layer_1" data-name="Layer 1" viewBox="0 0 24 24" width="512" height="512"><path d="M20.237,15.081c-1.062-1.907-3.044-3.081-5.237-3.081-1.057,0-2.087,.278-3,.807-.913-.529-1.943-.807-3-.807-2.192,0-4.175,1.174-5.237,3.081-2.164,.355-3.763,2.21-3.763,4.419,0,2.481,2.019,4.5,4.5,4.5h15c2.481,0,4.5-2.019,4.5-4.5,0-2.209-1.6-4.063-3.763-4.419Zm-.737,7.919H4.5c-1.93,0-3.5-1.57-3.5-3.5,0-1.786,1.349-3.274,3.137-3.461l.272-.028,.123-.245c.855-1.706,2.567-2.766,4.468-2.766,.969,0,1.912,.281,2.727,.812l.273,.178,.273-.178c.815-.532,1.758-.812,2.727-.812,1.901,0,3.613,1.06,4.468,2.766l.123,.245,.272,.028c1.788,.187,3.137,1.675,3.137,3.461,0,1.93-1.57,3.5-3.5,3.5ZM5.272,10.929c-.177-.62-.273-1.267-.272-1.929,0-3.271,1.963-5.04,3.133-5.804l1.333-.87-.597,1.476c-.242,.598-.37,1.099-.37,1.447,0,.807,.461,1.75,1.759,1.75,1.285,0,1.741-.943,1.741-1.75,0-.45-.197-.78-.425-1.162-.27-.453-.575-.966-.575-1.792,0-.628,.386-1.363,.71-1.869L11.983,.001l2.341,1.541c.779,.513,4.666,3.283,4.675,7.457h0c0,.663-.096,1.31-.273,1.93-.299-.158-.607-.301-.925-.42,.126-.487,.197-.992,.197-1.508-.009-3.662-3.521-6.16-4.225-6.624l-1.477-.972c-.188,.362-.298,.684-.298,.891,0,.55,.192,.873,.435,1.28,.252,.422,.565,.949,.565,1.674,0,1.325-.857,2.75-2.741,2.75-1.896,0-2.759-1.425-2.759-2.75,0-.077,.004-.158,.011-.241-.825,.883-1.511,2.166-1.511,3.991,0,.517,.071,1.021,.197,1.509-.318,.119-.625,.262-.925,.42Z"/></svg>
