<?xml version="1.0" encoding="UTF-8"?>
<svg xmlns="http://www.w3.org/2000/svg" id="Layer_1" data-name="Layer 1" viewBox="0 0 24 24" width="512" height="512"><path d="M8,8c.552,0,1,.448,1,1s-.448,1-1,1-1-.448-1-1,.448-1,1-1Zm9,2c0-.552-.448-1-1-1s-1,.448-1,1,.448,1,1,1,1-.448,1-1Zm-6.378-2.184l.911-.412c-.045-.098-1.108-2.404-3.228-2.404-1.609,0-2.402,1.125-2.436,1.172l.821,.571c.021-.03,.545-.743,1.614-.743,1.47,0,2.308,1.798,2.316,1.816ZM12,0C5.383,0,0,5.383,0,12c0,3.575,1.58,6.78,4.067,8.98-.071-.474-.086-.951-.039-1.423-1.871-1.973-3.028-4.63-3.028-7.557C1,5.935,5.935,1,12,1s11,4.935,11,11c0,4.653-2.909,8.631-7,10.236v1.064c4.653-1.653,8-6.087,8-11.3C24,5.383,18.617,0,12,0Zm2,16.249v5.542c0,.664-.445,1.257-1.083,1.441l-2.019,.584c-.353,.102-.713,.153-1.07,.153-.639,0-1.271-.161-1.846-.478-.896-.495-1.547-1.309-1.831-2.292-.285-.983-.17-2.019,.325-2.916l2.494-4.525,.875,.482-1.43,2.594,8.576-2.5,.279,.96-3.271,.953Zm-1,.291l-5.268,1.536-.38,.69c-.365,.663-.45,1.428-.239,2.155,.21,.727,.69,1.329,1.354,1.694s1.426,.45,2.155,.24l2.019-.584c.212-.061,.36-.259,.36-.48v-5.251Z"/></svg>
