<?xml version="1.0" encoding="UTF-8"?>
<svg xmlns="http://www.w3.org/2000/svg" id="Layer_1" data-name="Layer 1" width="512" height="512" viewBox="0 0 24 24"><path d="M18,15.05v-6.05h-1v6.05c-1.14,.232-2,1.242-2,2.45,0,1.379,1.121,2.5,2.5,2.5s2.5-1.121,2.5-2.5c0-1.208-.86-2.218-2-2.45Zm-.5,3.95c-.827,0-1.5-.673-1.5-1.5s.673-1.5,1.5-1.5,1.5,.673,1.5,1.5-.673,1.5-1.5,1.5Zm4.5-6.181V4.5c0-2.481-2.019-4.5-4.5-4.5s-4.5,2.019-4.5,4.5V12.819c-1.627,1.561-2.32,3.805-1.859,6.049,.508,2.472,2.506,4.476,4.972,4.987,.459,.096,.92,.143,1.376,.143,1.495,0,2.942-.503,4.111-1.454,1.525-1.241,2.4-3.08,2.4-5.044,0-1.763-.727-3.456-2-4.681Zm-1.031,8.949c-1.291,1.05-2.988,1.454-4.653,1.108-2.081-.432-3.767-2.124-4.194-4.21-.405-1.968,.235-3.933,1.713-5.258l.166-.148V4.5c0-1.93,1.57-3.5,3.5-3.5s3.5,1.57,3.5,3.5V13.261l.166,.148c1.166,1.046,1.834,2.537,1.834,4.091,0,1.662-.74,3.218-2.031,4.269ZM8,6.651l3-1.729v1.154l-2.499,1.44,2.499,1.44v1.154l-3-1.729v3.418l1.994,1.994-.707,.707-1.787-1.787-1.787,1.787-.707-.707,1.994-1.994v-3.418l-2.962,1.707-.732,2.723-.965-.26,.656-2.44-2.441-.656,.26-.966,2.723,.732,2.959-1.705-2.981-1.718-2.689,.724-.26-.966,2.407-.647-.646-2.407,.965-.26,.723,2.69,2.983,1.719V3.208l-1.97-1.97,.707-.707,1.763,1.763,1.763-1.763,.707,.707-1.97,1.97v3.443Z"/></svg>
