<?xml version="1.0" encoding="UTF-8"?>
<svg xmlns="http://www.w3.org/2000/svg" id="Layer_1" data-name="Layer 1" width="512" height="512" viewBox="0 0 24 24"><path d="M8.5,18.003l-1.768,1.729c-.472,.472-.732,1.1-.732,1.768s.26,1.296,.732,1.768c.472,.472,1.1,.732,1.768,.732s1.296-.26,1.768-.732h0c.472-.472,.732-1.1,.732-1.768s-.26-1.296-.736-1.771l-1.764-1.725Zm1.061,4.557h0c-.565,.567-1.554,.566-2.121,0-.283-.283-.439-.66-.439-1.061s.156-.777,.436-1.057l1.064-1.042,1.061,1.038c.283,.283,.439,.66,.439,1.061s-.156,.777-.439,1.061Zm6.939-4.557l-1.768,1.729c-.473,.472-.732,1.1-.732,1.768s.26,1.296,.732,1.768c.473,.472,1.1,.732,1.768,.732s1.295-.26,1.768-.732,.732-1.1,.732-1.768-.26-1.296-.736-1.771l-1.764-1.725Zm1.061,4.557c-.566,.566-1.555,.566-2.121,0-.283-.283-.439-.66-.439-1.061s.156-.777,.436-1.057l1.064-1.042,1.061,1.038c.283,.283,.439,.66,.439,1.061s-.156,.777-.439,1.061Zm6.439-10.061c0,2.743-1.55,5.254-3.731,6.553-.174-.267-.373-.522-.607-.755l-.03-.03c1.958-1.094,3.368-3.322,3.368-5.769,0-3.509-2.856-6.422-6.367-6.493l-.355-.007-.11-.338c-.907-2.789-3.486-4.662-6.417-4.662-3.722,0-6.75,3.028-6.75,6.75,0,.776,.139,1.551,.412,2.304l.141,.388-.354,.212c-1.377,.826-2.2,2.264-2.2,3.847,0,2.247,1.66,4.097,3.814,4.431-.205,.293-.373,.606-.501,.937-2.463-.545-4.313-2.743-4.313-5.367,0-1.803,.869-3.451,2.345-4.484-.229-.743-.345-1.503-.345-2.266C2,3.477,5.477,0,9.75,0c3.249,0,6.12,2.004,7.253,5.023,3.89,.261,6.997,3.544,6.997,7.477Zm-9,2c0-.668-.26-1.296-.736-1.771l-1.764-1.725-1.768,1.729c-.472,.472-.732,1.1-.732,1.768s.26,1.296,.732,1.768c.472,.472,1.1,.732,1.768,.732s1.295-.26,1.768-.732,.732-1.1,.732-1.768Zm-1.439,1.061c-.566,.566-1.555,.566-2.121,0-.283-.283-.439-.66-.439-1.061s.156-.777,.436-1.057l1.064-1.042,1.061,1.038c.283,.283,.439,.66,.439,1.061s-.156,.777-.439,1.061Z"/></svg>
