<?xml version="1.0" encoding="UTF-8"?>
<svg xmlns="http://www.w3.org/2000/svg" id="Layer_1" data-name="Layer 1" viewBox="0 0 24 24">
  <path d="m19,8c0-1.381.448-2.5,1-2.5s1,1.119,1,2.5-.448,2.5-1,2.5-1-1.119-1-2.5Zm5.004,15.297l-.707.707L-.004.703.703-.004l2.396,2.396C3.949.866,5.171,0,6.5,0h13.5c2.243,0,4,3.514,4,8s-1.757,8-4,8h-3v.293l7.004,7.004Zm-7.004-8.297h1.035c-.391-.433-.741-.993-1.035-1.655v1.655Zm3-14c-1.419,0-3,2.875-3,7s1.581,7,3,7,3-2.875,3-7-1.581-7-3-7ZM3.839,3.132l12.161,12.161v-7.293c0-3.048.811-5.647,2.035-7H6.5c-1.018,0-1.984.776-2.661,2.132Zm12.161,17.368c0,1.379-1.121,2.5-2.5,2.5H2.234c.476-.531.766-1.232.766-2V7c0-.15.016-.295.022-.443l-.928-.928c-.056.448-.094.903-.094,1.371v14c0,1.103-.897,2-2,2v1h13.5c1.919,0,3.479-1.553,3.497-3.468l-.997-.997v.965Z"/>
</svg>
