<?xml version="1.0" encoding="UTF-8"?>
<svg xmlns="http://www.w3.org/2000/svg" id="Layer_1" data-name="Layer 1" viewBox="0 0 24 24">
  <path d="m22.924,18.134l-10.042-7.134c1.303-.911,4.085-3.106,4.118-5.262.02-1.234-.438-2.389-1.287-3.251-.93-.945-2.284-1.487-3.713-1.487-2.757,0-5,2.243-5,5h1c0-2.206,1.794-4,4-4,1.164,0,2.257.433,3.001,1.189.669.68,1.015,1.556.999,2.534-.026,1.666-2.669,3.776-3.988,4.66l-.012-.009L1.062,18.144c-.665.507-1.062,1.31-1.062,2.146,0,1.487,1.21,2.697,2.697,2.697h18.605c1.487,0,2.697-1.21,2.697-2.697,0-.836-.397-1.639-1.076-2.156Zm-1.621,3.853H2.697c-.936,0-1.697-.761-1.697-1.697,0-.526.25-1.031.655-1.34l10.345-7.349,10.331,7.339c.419.319.669.824.669,1.35,0,.936-.761,1.697-1.697,1.697Z"/>
</svg>
