<?xml version="1.0" encoding="UTF-8"?>
<svg xmlns="http://www.w3.org/2000/svg" id="Layer_1" data-name="Layer 1" viewBox="0 0 24 24">
  <path d="m18,13.928c3.387-.487,6-3.408,6-6.928,0-3.86-3.141-7-7-7-1.955,0-3.726.806-4.997,2.104-1.313-1.344-3.107-2.104-5.003-2.104C3.14,0,0,3.14,0,7c0,3.52,2.612,6.442,6,6.928v5.072H2v1h4v4h1v-4h4v-1h-4v-5c1.896,0,3.69-.76,5.003-2.104,1.271,1.297,3.042,2.104,4.997,2.104v5h-4v1h4v4h1v-4h4v-1h-4v-5.072Zm-11-.928c-3.309,0-6-2.691-6-6S3.691,1,7,1c1.656,0,3.22.677,4.352,1.87-.849,1.159-1.352,2.586-1.352,4.13s.502,2.971,1.352,4.13c-1.131,1.193-2.695,1.87-4.352,1.87Zm4-6c0-3.309,2.691-6,6-6s6,2.691,6,6-2.691,6-6,6-6-2.691-6-6Z"/>
</svg>
