<?xml version="1.0" encoding="UTF-8"?>
<svg xmlns="http://www.w3.org/2000/svg" id="Layer_1" data-name="Layer 1" viewBox="0 0 24 24" width="512" height="512"><path d="M24,12.637c0-6.711-6.353-9.412-8-9.997V0H8V2.641C6.397,3.22,0,5.95,0,12.637c0,4.759,4.133,7.941,10.648,8.324l-2.19,1.793,.633,.773,2.408-1.972v2.445h1v-2.443l2.435,1.997,.635-.773-2.219-1.82c6.516-.383,10.649-3.565,10.649-8.324ZM1,12.637c0-4.884,3.727-7.412,5.978-8.494-1.225,1.795-2.978,5.106-2.978,9.357,0,2.797,1.365,4.669,3.044,5.843-3.329-.955-6.044-3.027-6.044-6.706Zm11,7.363c-1.831,0-3-3.258-3-5.5,0-4.783,2.129-8.068,3-9.212,.871,1.144,3,4.429,3,9.212,0,2.242-1.169,5.5-3,5.5Zm4-5.5c0-6.396-3.487-10.185-3.636-10.342l-.364-.389-.364,.389c-.148,.157-3.636,3.945-3.636,10.342,0,1.401,.448,3.552,1.457,4.992-2.148-.8-4.457-2.62-4.457-5.992,0-5.988,4-10.302,4-10.302V1h6V3.199c.038,.041,4,4.312,4,10.301,0,3.371-2.31,5.192-4.457,5.992,1.009-1.44,1.457-3.591,1.457-4.992Zm.956,4.843c1.679-1.174,3.044-3.046,3.044-5.843,0-4.234-1.738-7.535-2.963-9.335,2.248,1.103,5.963,3.654,5.963,8.472,0,3.679-2.716,5.751-6.044,6.706Z"/></svg>
