<?xml version="1.0" encoding="UTF-8"?>
<svg xmlns="http://www.w3.org/2000/svg" id="Layer_1" data-name="Layer 1" viewBox="0 0 24 24">
  <path d="m17.5,11c-3.584,0-6.5,2.916-6.5,6.5s2.916,6.5,6.5,6.5,6.5-2.916,6.5-6.5-2.916-6.5-6.5-6.5Zm0,12c-3.033,0-5.5-2.468-5.5-5.5s2.467-5.5,5.5-5.5,5.5,2.468,5.5,5.5-2.467,5.5-5.5,5.5Zm2.94-7.451l.701.713-3.457,3.399c-.217.218-.51.339-.822.339s-.604-.121-.825-.342l-1.851-1.794.696-.719,1.856,1.8c.062.062.186.062.241.006l3.46-3.402ZM2.5,23c-.827,0-1.5-.673-1.5-1.5v-12.5h18v-1h-3v-1.5c0-3.584-2.916-6.5-6.5-6.5S3,2.916,3,6.5v1.5H0v13.5c0,1.379,1.122,2.5,2.5,2.5h8.849c-.376-.304-.722-.641-1.045-1H2.5Zm1.5-16.5c0-3.033,2.467-5.5,5.5-5.5s5.5,2.467,5.5,5.5v1.5H4v-1.5Zm5,11.5v-4h1v4h-1Z"/>
</svg>
