<?xml version="1.0" encoding="UTF-8"?>
<svg xmlns="http://www.w3.org/2000/svg" id="Layer_1" data-name="Layer 1" viewBox="0 0 24 24" width="512" height="512"><path d="M8.5,11.5c0-1.103-.897-2-2-2s-2,.897-2,2,.897,2,2,2,2-.897,2-2Zm-2,1c-.552,0-1-.449-1-1s.448-1,1-1,1,.449,1,1-.448,1-1,1Z"/><path d="M17.757,10.232l-.678,.62c-.021,.02-2.159,1.96-4.436,3.125-2.277,1.166-5.094,1.759-5.122,1.765l-.9,.188,.646,.654c.013,.013,.286,.282,.732,.63v1.887c0,1.395,.956,2.9,2.5,2.9s2.5-1.505,2.5-2.9v-.126c.666-.056,1.311-.234,1.926-.549,3.828-1.959,3.02-7.071,2.983-7.288l-.152-.906Zm-7.257,10.768c-.927,0-1.5-.986-1.5-1.9v-2.696c.807-.223,1.898-.563,3-1.029v3.725c0,.914-.573,1.9-1.5,1.9Zm3.96-3.459c-.463,.237-.956,.382-1.46,.435v-3.061c.033-.016,.066-.031,.099-.048,1.571-.804,3.042-1.925,3.896-2.626,.03,1.434-.243,4.127-2.534,5.3Z"/><path d="M12,0C5.383,0,0,5.383,0,12s5.383,12,12,12,12-5.383,12-12S18.617,0,12,0Zm0,23c-6.065,0-11-4.935-11-11S5.935,1,12,1s11,4.935,11,11-4.935,11-11,11Z"/><path d="M14,10.5c1.93,0,3.5-1.57,3.5-3.5s-1.57-3.5-3.5-3.5-3.5,1.57-3.5,3.5,1.57,3.5,3.5,3.5Zm0-6c1.379,0,2.5,1.122,2.5,2.5s-1.121,2.5-2.5,2.5-2.5-1.122-2.5-2.5,1.121-2.5,2.5-2.5Z"/><circle cx="14" cy="7" r="1"/></svg>
