<?xml version="1.0" encoding="UTF-8"?>
<svg xmlns="http://www.w3.org/2000/svg" id="Layer_1" data-name="Layer 1" viewBox="0 0 24 24" width="512" height="512"><rect x="21" y="6" width="3" height="1"/><rect x="18.357" y="12.479" width="1" height="3" transform="translate(-4.608 14.598) rotate(-38.06)"/><rect x="21.152" y="9.236" width="1" height="3" transform="translate(1.668 24.328) rotate(-60.598)"/><path d="M18.912,7.367c.36-.744,.05-1.644-.693-2.005L8.325,.554C5.597-.774,2.3,.368,.974,3.096l-.219,.45,6.572,3.194L0,21.815l4.497,2.185,7.327-15.075,3.771,1.833c.208,.102,.431,.152,.654,.152,.165,0,.331-.027,.491-.083,.379-.131,.684-.401,.858-.762l1.312-2.698ZM4.035,22.664l-2.698-1.312L8.227,7.177l2.698,1.311-6.89,14.176Zm12.665-13.036c-.058,.12-.159,.21-.285,.254-.125,.044-.26,.036-.382-.022L2.117,3.096C3.325,1.185,5.81,.444,7.888,1.452l9.894,4.809c.248,.121,.352,.421,.231,.669l-1.312,2.698Z"/></svg>
