<?xml version="1.0" encoding="UTF-8"?>
<svg xmlns="http://www.w3.org/2000/svg" id="Layer_1" data-name="Layer 1" viewBox="0 0 24 24">
  <path d="m21.5,1H2.5C1.121,1,0,2.122,0,3.5v19.5h16.5c-1.27,0-2.452-.37-3.453-1H1v-13h22v10.465l1,1V3.5c0-1.378-1.121-2.5-2.5-2.5ZM1,8V3.5c0-.827.673-1.5,1.5-1.5h19c.827,0,1.5.673,1.5,1.5v4.5H1Zm4-3c0,.552-.448,1-1,1s-1-.448-1-1,.448-1,1-1,1,.448,1,1Zm3,0c0,.552-.448,1-1,1s-1-.448-1-1,.448-1,1-1,1,.448,1,1Zm3,0c0,.552-.448,1-1,1s-1-.448-1-1,.448-1,1-1,1,.448,1,1Zm10,11.5c0-2.481-2.019-4.5-4.5-4.5s-4.5,2.019-4.5,4.5,2.019,4.5,4.5,4.5c1.06,0,2.023-.384,2.793-1l3.605,3.605.707-.707-3.605-3.605c.616-.77,1-1.733,1-2.793Zm-4.5,3.5c-1.93,0-3.5-1.57-3.5-3.5s1.57-3.5,3.5-3.5,3.5,1.57,3.5,3.5-1.57,3.5-3.5,3.5Z"/>
</svg>
