<?xml version="1.0" encoding="UTF-8"?>
<svg xmlns="http://www.w3.org/2000/svg" id="Layer_1" data-name="Layer 1" viewBox="0 0 24 24">
  <path d="m18.051,12.5c.24,1.416,1.466,2.5,2.949,2.5,1.654,0,3-1.346,3-3s-1.346-3-3-3c-1.483,0-2.71,1.084-2.949,2.5h-3.051v-7c0-.552.448-1,1-1h2.051c.24,1.416,1.466,2.5,2.949,2.5,1.654,0,3-1.346,3-3s-1.346-3-3-3c-1.483,0-2.71,1.084-2.949,2.5h-2.051c-1.103,0-2,.897-2,2v7h-2v1h2v7c0,1.103.897,2,2,2h2.051c.24,1.416,1.466,2.5,2.949,2.5,1.654,0,3-1.346,3-3s-1.346-3-3-3c-1.483,0-2.71,1.084-2.949,2.5h-2.051c-.552,0-1-.448-1-1v-7h3.051Zm2.949-2.5c1.103,0,2,.897,2,2s-.897,2-2,2-2-.897-2-2,.897-2,2-2Zm0-9c1.103,0,2,.897,2,2s-.897,2-2,2-2-.897-2-2,.897-2,2-2Zm0,18c1.103,0,2,.897,2,2s-.897,2-2,2-2-.897-2-2,.897-2,2-2Zm-10.5-7c0-.274-.03-.551-.094-.851l1.526-.896-1.521-2.587-1.516.892c-.408-.34-.882-.606-1.396-.786v-1.771h-3v1.771c-.515.18-.988.446-1.396.786l-1.516-.892L.067,10.253l1.526.896c-.063.3-.094.576-.094.851s.03.551.094.851l-1.526.896,1.521,2.587,1.516-.892c.408.34.882.606,1.396.786v1.771h3v-1.771c.515-.18.988-.446,1.396-.786l1.516.892,1.521-2.587-1.526-.896c.063-.3.094-.576.094-.851Zm.063,2.103l-.507.862-1.336-.791c-.542.677-1.323,1.146-2.221,1.276v1.551h-1v-1.551c-.894-.13-1.673-.595-2.215-1.268l-1.342.784-.507-.862,1.329-.775c-.169-.41-.265-.857-.265-1.327,0-.473.097-.923.267-1.334l-1.331-.768.507-.862,1.346.778c.542-.67,1.318-1.133,2.21-1.263v-1.551h1v1.551c.898.13,1.679.599,2.222,1.276l1.335-.792.507.862-1.326.785c.166.407.262.851.262,1.317s-.096.911-.262,1.318l1.326.784Zm-4.563-4.103c-1.103,0-2,.897-2,2s.897,2,2,2,2-.897,2-2-.897-2-2-2Zm0,3c-.552,0-1-.448-1-1s.448-1,1-1,1,.448,1,1-.448,1-1,1Z"/>
</svg>
