<?xml version="1.0" encoding="UTF-8"?>
<svg xmlns="http://www.w3.org/2000/svg" id="Layer_1" data-name="Layer 1" viewBox="0 0 24 24">
  <path d="m24,7.5c0-2.189-2.194-5.5-5.5-5.5-.125,0-.249.005-.372.015-.515-.169-6.267-2.015-12.128-2.015v1c3.792,0,7.622.823,9.862,1.406-.566.196-1.141.445-1.754.711-1.934.839-4.341,1.883-8.108,1.883v1c3.974,0,6.487-1.09,8.506-1.966.112-.048.221-.096.329-.143-.525.736-.835,1.637-.835,2.608,0,.924.28,1.784.76,2.5h-6.76c-1.127,0-2.183.313-3.085.855-.285-1.067-1.26-1.855-2.415-1.855-1.378,0-2.5,1.121-2.5,2.5,0,1.327,1.039,2.414,2.345,2.495-.223.627-.345,1.302-.345,2.005,0,3.309,2.691,6,6,6,1.378,0,2.5,1.121,2.5,2.5v.5h10.5v-1h-6.164l4.942-12.081c2.258-.291,4.222-1.38,4.222-3.419Zm-1,0c0,1.974-2.829,2.5-4.5,2.5-1.93,0-3.5-1.57-3.5-3.5s1.57-3.5,3.5-3.5c2.61,0,4.5,2.688,4.5,4.5ZM2.5,12c-.827,0-1.5-.673-1.5-1.5s.673-1.5,1.5-1.5,1.5.673,1.5,1.5h.036c-.476.42-.885.914-1.209,1.464-.105.024-.214.036-.327.036Zm11.5,10.401v-1.401c0-3.869-2.131-6-6-6v1c3.318,0,5,1.683,5,5v2h-1.536c-.243-1.694-1.704-3-3.464-3-2.757,0-5-2.243-5-5s2.243-5,5-5h7.675c.773.625,1.756,1,2.825,1,.055,0,.11,0,.165-.001l-4.665,11.403Z"/>
</svg>
