<?xml version="1.0" encoding="UTF-8"?>
<svg xmlns="http://www.w3.org/2000/svg" id="Layer_1" data-name="Layer 1" viewBox="0 0 24 24">
  <path d="m20.672,1.069c-2.246-1.433-5.267-1.425-7.517.022-1.056.679-1.883,1.567-2.457,2.642-.873,1.638-2.195,2.709-3.722,3.018-2.402.485-4.438,1.917-5.73,4.032-2.094,3.423-1.51,7.942,1.389,10.745,1.643,1.59,3.804,2.465,6.084,2.465,8.285,0,15.285-7.747,15.285-16.917,0-2.431-1.245-4.677-3.332-6.007Zm-11.953,21.924c-2.02,0-3.934-.775-5.389-2.184C.766,18.329.248,14.332,2.1,11.305c1.146-1.875,2.948-3.144,5.074-3.573,1.826-.369,3.391-1.622,4.407-3.527.492-.922,1.204-1.686,2.115-2.271.97-.623,2.105-.935,3.24-.935,1.122,0,2.242.305,3.198.914,1.797,1.146,2.869,3.077,2.869,5.165,0,8.627-6.542,15.917-14.285,15.917Zm9.281-15.993c0,.552-.448,1-1,1s-1-.448-1-1,.448-1,1-1,1,.448,1,1Zm-12,7c0,.552-.448,1-1,1s-1-.448-1-1,.448-1,1-1,1,.448,1,1Zm6,2c0,.552-.448,1-1,1s-1-.448-1-1,.448-1,1-1,1,.448,1,1Zm6-2c0,.552-.448,1-1,1s-1-.448-1-1,.448-1,1-1,1,.448,1,1Z"/>
</svg>
