<?xml version="1.0" encoding="UTF-8"?>
<svg xmlns="http://www.w3.org/2000/svg" id="Layer_1" data-name="Layer 1" viewBox="0 0 24 24" width="512" height="512"><path d="M21.5,0H2.5C1.121,0,0,1.122,0,2.5V24H24V2.5c0-1.378-1.121-2.5-2.5-2.5Zm-4.5,1h2V3h-2V1Zm-8,0h2V3h-2V1ZM2.5,1h.5V3H1v-.5c0-.827,.673-1.5,1.5-1.5ZM1,9H3v2H1v-2Zm0,8H3v2H1v-2Zm0,3h3v-4H1v-4h3v-4H1V4h3V1h4v3h4V1h4v3h4V1h1.5c.827,0,1.5,.673,1.5,1.5v1.5h-3v4h3v4h-3v4h3v4h-3v3h-4v-3h-4v3h-4v-3H4v3H1v-3ZM23,5v2h-2v-2h2Zm0,8v2h-2v-2h2Zm-8,10h-2v-2h2v2Zm-8,0h-2v-2h2v2Zm14,0v-2h2v2h-2ZM8,4H4v4h4V4Zm-1,3h-2v-2h2v2Zm9,1V4h-4v4h4Zm-3-3h2v2h-2v-2Zm-1,3h-4v4h4v-4Zm-1,3h-2v-2h2v2Zm-3,1H4v4h4v-4Zm-1,3h-2v-2h2v2Zm5,1h4v-4h-4v4Zm1-3h2v2h-2v-2Zm3-1h4v-4h-4v4Zm1-3h2v2h-2v-2Zm-9,7v4h4v-4h-4Zm3,3h-2v-2h2v2Zm5,1h4v-4h-4v4Zm1-3h2v2h-2v-2Z"/></svg>
