<?xml version="1.0" encoding="UTF-8"?>
<svg xmlns="http://www.w3.org/2000/svg" id="Layer_1" data-name="Layer 1" viewBox="0 0 24 24" width="512" height="512"><path d="M19.732,13.732l-6.732,6.732v3.536h3.536l6.732-6.732c.472-.472,.732-1.1,.732-1.768s-.26-1.296-.732-1.768c-.943-.944-2.592-.944-3.535,0Zm2.828,2.828l-6.439,6.439h-2.122v-2.122l6.439-6.439c.566-.566,1.555-.566,2.121,0,.283,.283,.439,.66,.439,1.061s-.156,.777-.439,1.061Zm-5.924-2.561H5v-1h12.637l-1,1ZM21.5,2h-3.5V0h-1V2H7V0h-1V2H2.5C1.122,2,0,3.122,0,4.5V24H11v-1H1V9H23v2.294c.352,.122,.692,.27,1,.472V4.5c0-1.378-1.122-2.5-2.5-2.5ZM1,8v-3.5c0-.827,.673-1.5,1.5-1.5H21.5c.827,0,1.5,.673,1.5,1.5v3.5H1Zm4,10h7.636l-1,1H5v-1Z"/></svg>
