<?xml version="1.0" encoding="UTF-8"?>
<svg xmlns="http://www.w3.org/2000/svg" id="Layer_1" data-name="Layer 1" viewBox="0 0 24 24">
  <path d="m9,11c0-.552.448-1,1-1s1,.448,1,1-.448,1-1,1-1-.448-1-1Zm1-4c.552,0,1-.448,1-1s-.448-1-1-1-1,.448-1,1,.448,1,1,1Zm11,5c.552,0,1-.448,1-1s-.448-1-1-1-1,.448-1,1,.448,1,1,1Zm0-5c.552,0,1-.448,1-1s-.448-1-1-1-1,.448-1,1,.448,1,1,1Zm-6,9h1v5.5c0,1.379-1.122,2.5-2.5,2.5H2.5c-1.378,0-2.5-1.121-2.5-2.5V0h15.5v1H1v16h14v-1Zm0,5.5v-3.5H1v3.5c0,.827.673,1.5,1.5,1.5h11c.827,0,1.5-.673,1.5-1.5Zm-7-2c-.552,0-1,.448-1,1s.448,1,1,1,1-.448,1-1-.448-1-1-1ZM24,3v11H7V3h17Zm-1,1h-15v9h15V4Zm-10,4.5c0-1.379,1.122-2.5,2.5-2.5s2.5,1.121,2.5,2.5-1.122,2.5-2.5,2.5-2.5-1.121-2.5-2.5Zm1,0c0,.827.673,1.5,1.5,1.5s1.5-.673,1.5-1.5-.673-1.5-1.5-1.5-1.5.673-1.5,1.5Z"/>
</svg>
