<?xml version="1.0" encoding="UTF-8"?>
<svg xmlns="http://www.w3.org/2000/svg" id="Layer_1" data-name="Layer 1" viewBox="0 0 24 24">
  <path d="m20,11.207l1-1.07v11.363c0,1.379-1.122,2.5-2.5,2.5H2.5c-1.378,0-2.5-1.121-2.5-2.5V5.5c0-1.379,1.122-2.5,2.5-2.5h12.078c-.266.306-.555.638-.87,1H2.5c-.827,0-1.5.673-1.5,1.5v16c0,.827.673,1.5,1.5,1.5h16c.827,0,1.5-.673,1.5-1.5v-10.293Zm3.162-6.311l-9.185,9.825c-.117,1.825-1.624,3.278-3.478,3.278h-5.59l.097-.582c.043-.258,1.086-6.162,5.246-6.396C19.063.889,19.094.858,19.11.842c1.118-1.117,2.936-1.114,4.052.002,1.115,1.117,1.115,2.935,0,4.053Zm-11.697,6.256c1.115.323,1.994,1.178,2.35,2.278l2.069-2.214c-.322-1.184-1.348-2.058-2.573-2.188-.651.749-1.281,1.474-1.846,2.124Zm1.535,3.348c0-1.379-1.122-2.5-2.5-2.5-2.834,0-4.018,3.569-4.378,5h4.378c1.378,0,2.5-1.121,2.5-2.5ZM22.454,1.551c-.726-.728-1.91-.728-2.637-.002-.075.085-2.979,3.424-5.752,6.614,1.151.323,2.1,1.146,2.583,2.238l5.795-6.199c.737-.739.737-1.924.011-2.65Z"/>
</svg>
