<?xml version="1.0" encoding="UTF-8"?>
<svg xmlns="http://www.w3.org/2000/svg" id="Layer_1" data-name="Layer 1" viewBox="0 0 24 24" width="512" height="512"><path d="m18.5,2h-2.55c-.232-1.14-1.243-2-2.45-2h-3c-1.207,0-2.218.86-2.45,2h-2.55c-1.379,0-2.5,1.122-2.5,2.5v19.5h18V4.5c0-1.378-1.121-2.5-2.5-2.5Zm-8-1h3c.827,0,1.5.673,1.5,1.5s-.673,1.5-1.5,1.5h-3c-.827,0-1.5-.673-1.5-1.5s.673-1.5,1.5-1.5Zm9.5,22H4V4.5c0-.827.673-1.5,1.5-1.5h2.55c.232,1.14,1.242,2,2.45,2h3c1.208,0,2.217-.86,2.45-2h2.55c.827,0,1.5.673,1.5,1.5v18.5Z"/></svg>
