<?xml version="1.0" encoding="UTF-8"?>
<svg xmlns="http://www.w3.org/2000/svg" id="Layer_1" data-name="Layer 1" viewBox="0 0 24 24" width="512" height="512"><path d="M22,21.294V2h-1v3h-3V2H6v3.294L.753,.047,.046,.754,23.246,23.954l.707-.707-1.953-1.953Zm-1-4.294h-3v-3h3v3Zm0-4h-3v-3h3v3Zm-4,3.294l-4.294-4.294h4.294v4.294Zm4,1.706v2.294l-2.294-2.294h2.294Zm0-12v3h-3v-3h3ZM7,3h10V11h-5.294L7,6.294V3Zm0,18V10.536l-1.536-1.536H3v-2.464l-1-1V22h1v-4h3v4h12v-.464l-.536-.536H7Zm-1-11v3H3v-3h3Zm-3,7v-3h3v3H3Z"/></svg>
