<?xml version="1.0" encoding="UTF-8"?>
<svg xmlns="http://www.w3.org/2000/svg" id="Layer_1" data-name="Layer 1" viewBox="0 0 24 24" width="512" height="512"><path d="M22.494,5.46c-2.17-2.17-6.051-3.46-10.398-3.46h-.099c-4.424,.021-8.346,1.313-10.492,3.46C.534,6.432,0,7.701,0,9.034v2.966H7V7.955c1.502-.616,3.259-.956,4.998-.955,1.665,.009,3.468,.357,5.002,.962v4.038h7v-2.966c0-1.333-.534-2.603-1.506-3.574Zm.506,5.54h-5v-3.703l-.304-.13c-1.714-.731-3.789-1.157-5.694-1.167-1.952,.018-4.023,.417-5.707,1.17l-.296,.132v3.698H1v-1.966c0-1.066,.43-2.084,1.213-2.867,1.934-1.935,5.685-3.148,9.79-3.167,4.118-.015,7.784,1.165,9.785,3.167,.783,.783,1.214,1.801,1.213,2.867v1.966Zm-8,5v1h-2v-1h2Zm2,0h2v1h-2v-1Zm4,0h2v1h-2v-1Zm0,4h2v1h-2v-1ZM1,16H3v1H1v-1Zm0,4H3v1H1v-1Zm10-4v1h-2v-1h2Zm-4,0v1h-2v-1h2Zm-2,4h14v1H5v-1Z"/></svg>
