<?xml version="1.0" encoding="UTF-8"?>
<svg xmlns="http://www.w3.org/2000/svg" id="Layer_1" data-name="Layer 1" viewBox="0 0 24 24" width="512" height="512"><path d="M21.5,0H2.5C1.122,0,0,1.121,0,2.5V24H24V2.5c0-1.379-1.122-2.5-2.5-2.5ZM13,18.207l5.207-5.207h3.586l-8.793,8.793v-3.586Zm0-1.414v-3.793h3.793l-3.793,3.793Zm10-3.586v3.086l-6.707,6.707h-3.086l9.793-9.793ZM11,5.793l-5.207,5.207H2.207L11,2.207v3.586Zm0,1.414v3.793h-3.793l3.793-3.793ZM1,7.707L7.707,1h3.086L1,10.793v-3.086ZM2.5,1h3.793L1,6.293V2.5c0-.827,.673-1.5,1.5-1.5ZM1,12H12V1h9.5c.827,0,1.5,.673,1.5,1.5V12H12v11H1V12Zm16.707,11l5.293-5.293v5.293h-5.293Z"/></svg>
