<?xml version="1.0" encoding="UTF-8"?>
<svg xmlns="http://www.w3.org/2000/svg" id="Layer_1" data-name="Layer 1" viewBox="0 0 24 24" width="512" height="512"><path d="M14.765,13.746l-2.986,6.028-.896-.444,3.016-6.082c.138-.214,.105-.401,.04-.522-.036-.068-.143-.225-.346-.225h-4.162c-.471,0-.894-.207-1.161-.567-.255-.344-.328-.782-.2-1.203l3.49-6.438,.879,.478-3.422,6.291c-.027,.128,.015,.22,.057,.276,.077,.104,.207,.163,.358,.163h4.162c.516,0,.975,.281,1.228,.752,.258,.48,.235,1.053-.057,1.494Zm7.235-5.746v-1.5c0-1.378-1.121-2.5-2.5-2.5h-4.365l-.544,1h4.909c.827,0,1.5,.673,1.5,1.5v2.5h2v6h-2v2.5c0,.827-.673,1.5-1.5,1.5h-5.106l-.495,1h5.601c1.379,0,2.5-1.122,2.5-2.5v-1.5h2V8h-2ZM1,19V5h7.899l.544-1H0V20H8.318l.496-1H1Z"/></svg>
