<?xml version="1.0" encoding="UTF-8"?>
<svg xmlns="http://www.w3.org/2000/svg" id="Layer_1" data-name="Layer 1" viewBox="0 0 24 24" width="512" height="512"><path d="M12,0C5.383,0,0,5.383,0,12s5.383,12,12,12,12-5.383,12-12S18.617,0,12,0Zm0,1c4.405,0,8.214,2.604,9.969,6.353-.355-.228-.771-.353-1.205-.353h-6.271l-1.5,1.5h-1.986l-1.5-1.5H3.202c-.414,0-.812,.113-1.156,.322C3.807,3.589,7.607,1,12,1Zm9.976,8.479l-.404,2.021c-.174,.869-.944,1.5-1.83,1.5h-3.187c-.862,0-1.61-.584-1.819-1.42l-.682-2.726,.854-.854h5.856c.371,0,.72,.165,.955,.453,.236,.288,.33,.662,.257,1.026Zm-12.029-.625l-.682,2.726c-.209,.837-.957,1.421-1.819,1.421h-3.221c-.887,0-1.656-.631-1.83-1.5l-.404-2.021c-.073-.365,.021-.739,.256-1.026,.236-.287,.584-.452,.956-.452h5.891l.854,.854Zm2.054,14.146c-6.065,0-11-4.935-11-11,0-.581,.046-1.152,.133-1.709l.281,1.405c.267,1.335,1.448,2.304,2.811,2.304h3.221c1.321,0,2.469-.896,2.79-2.178l.58-2.322h2.369l.58,2.322c.321,1.282,1.469,2.178,2.79,2.178h3.187c1.361,0,2.543-.969,2.811-2.304l.3-1.499c.097,.587,.148,1.189,.148,1.802,0,6.065-4.935,11-11,11Zm4.667-7.873l.666,.746c-.097,.086-2.414,2.127-5.333,2.127s-5.236-2.041-5.333-2.127l.666-.746c.021,.019,2.137,1.873,4.667,1.873s4.646-1.854,4.667-1.873Z"/></svg>
