<?xml version="1.0" encoding="UTF-8"?>
<svg xmlns="http://www.w3.org/2000/svg" id="Layer_1" data-name="Layer 1" viewBox="0 0 24 24">
  <path d="m10.834,22.764c-1.077-.456-1.834-1.523-1.834-2.764v-1H1.883l2.132-11.939c.213-1.194,1.248-2.061,2.461-2.061h11.048c1.213,0,2.248.866,2.461,2.061l.441,2.467c.38.139.751.297,1.103.487l-.559-3.13c-.298-1.672-1.748-2.885-3.445-2.885h-1.025c.315-.418.501-.938.501-1.5,0-1.379-1.122-2.5-2.5-2.5h-5c-1.378,0-2.5,1.121-2.5,2.5,0,.562.187,1.082.501,1.5h-1.025c-1.698,0-3.147,1.213-3.445,2.885L.688,20h7.312c0,2.206,1.794,4,4,4,.009,0,.017-.003.025-.003-.438-.369-.836-.784-1.191-1.233ZM8,2.5c0-.827.673-1.5,1.5-1.5h5c.827,0,1.5.673,1.5,1.5s-.673,1.5-1.5,1.5h-5c-.827,0-1.5-.673-1.5-1.5Zm9.5,8.5c-3.584,0-6.5,2.916-6.5,6.5s2.916,6.5,6.5,6.5,6.5-2.916,6.5-6.5-2.916-6.5-6.5-6.5Zm0,12c-3.033,0-5.5-2.468-5.5-5.5s2.467-5.5,5.5-5.5,5.5,2.468,5.5,5.5-2.467,5.5-5.5,5.5Zm.5-6h3v1h-3v3h-1v-3h-3v-1h3v-3h1v3Z"/>
</svg>
