<?xml version="1.0" encoding="UTF-8"?>
<svg xmlns="http://www.w3.org/2000/svg" id="Layer_1" data-name="Layer 1" viewBox="0 0 24 24" width="512" height="512"><path d="M24,24H0V2.5C0,1.122,1.122,0,2.5,0H21.5c1.379,0,2.5,1.122,2.5,2.5V24ZM1,23H23V2.5c0-.827-.673-1.5-1.5-1.5H2.5c-.827,0-1.5,.673-1.5,1.5V23Zm15-6h-6.93c.292-.985,1.454-1.545,2.771-2.18,1.854-.893,4.159-2.005,4.159-4.82,0-2.206-1.794-4-4-4s-4,1.794-4,4h1c0-1.654,1.346-3,3-3s3,1.346,3,3c0,2.187-1.745,3.028-3.593,3.919-1.675,.807-3.407,1.642-3.407,3.581v.5h8v-1Z"/></svg>
