<?xml version="1.0" encoding="UTF-8"?>
<svg xmlns="http://www.w3.org/2000/svg" id="Layer_1" data-name="Layer 1" viewBox="0 0 24 24">
  <path d="m12,0C5.383,0,0,5.383,0,12s5.383,12,12,12c2.525,0,4.975-.803,7-2.255v-1.278c-1.96,1.617-4.433,2.533-7,2.533-6.065,0-10.999-4.934-11-10.998.607.032,1.083.555,1.377.996.433.646,1.009,1.002,1.623,1.002s1.191-.355,1.624-1.002c.295-.441.769-.964,1.376-.996,0,2.756,2.244,4.998,5,4.998,1.634,0,3.087-.788,4-2.003v1.503c0,.827.673,1.5,1.5,1.5s1.5-.673,1.5-1.5v-4.5c0-.552.449-1,1-1s1,.448,1,1v8.5c0,.827.673,1.5,1.5,1.5s1.5-.673,1.5-1.5v-8.5C24,5.383,18.617,0,12,0Zm0,16c-2.206,0-4-1.794-4-4s1.794-4,4-4,4,1.794,4,4-1.794,4-4,4Zm11,4.5c0,.275-.224.5-.5.5s-.5-.225-.5-.5v-8.5c0-1.103-.897-2-2-2s-2,.897-2,2v4.5c0,.275-.224.5-.5.5s-.5-.225-.5-.5v-4.5c0-2.757-2.243-5-5-5-2.414,0-4.435,1.721-4.899,4h-.041c-.853,0-1.637.499-2.267,1.441-.481.72-1.101.722-1.584,0-.605-.904-1.351-1.4-2.163-1.439C1.551,5.403,6.271,1,12,1c6.065,0,11,4.935,11,11v8.5Z"/>
</svg>
