<?xml version="1.0" encoding="UTF-8"?>
<svg xmlns="http://www.w3.org/2000/svg" id="Layer_1" data-name="Layer 1" viewBox="0 0 24 24" width="512" height="512"><path d="M12,24C5.383,24,0,18.617,0,12S5.383,0,12,0s12,5.383,12,12-5.383,12-12,12ZM12,1C5.935,1,1,5.935,1,12s4.935,11,11,11,11-4.935,11-11S18.065,1,12,1Zm-2.888,18c-.946,0-1.825-.358-2.474-1.009l-1.846-1.845,3.645-3.645,2.043,2.043c1.874-.793,3.207-2.128,4.059-4.067l-2.039-2.04,3.645-3.645,1.846,1.846c.65,.648,1.008,1.527,1.008,2.473,0,4.343-5.544,9.888-9.888,9.888Zm-2.905-2.854l1.139,1.139c.46,.461,1.087,.715,1.766,.715,3.821,0,8.888-5.067,8.888-8.888,0-.679-.254-1.306-.715-1.766l-1.139-1.14-2.231,2.231,1.803,1.803-.123,.307c-.982,2.446-2.683,4.146-5.056,5.051l-.303,.115-1.799-1.799-2.231,2.231Z"/></svg>
