<?xml version="1.0" encoding="UTF-8"?>
<svg xmlns="http://www.w3.org/2000/svg" id="Layer_1" data-name="Layer 1" viewBox="0 0 24 24">
  <path d="m14,19c0,.552-.448,1-1,1s-1-.448-1-1,.448-1,1-1,1,.448,1,1Zm2.5-3H7.5c-2.481,0-4.5,2.019-4.5,4.5v3.5h1v-3.5c0-1.93,1.57-3.5,3.5-3.5h1.5v7h1v-7h6.5c1.93,0,3.5,1.57,3.5,3.5v3.5h1v-3.5c0-2.481-2.019-4.5-4.5-4.5ZM4,2.643c0-1.457,1.186-2.643,2.643-2.643.658,0,1.497.249,2.202.646.527-.204,1.824-.646,3.155-.646s2.628.442,3.155.646c.705-.397,1.544-.646,2.202-.646,1.457,0,2.643,1.186,2.643,2.643,0,1.221-.848,2.265-2,2.554v3.804c0,3.309-2.691,6-6,6s-6-2.691-6-6v-3.803c-1.153-.29-2-1.334-2-2.555Zm13,5.357H7v1c0,2.757,2.243,5,5,5s5-2.243,5-5v-1ZM5,2.643c0,.856.674,1.572,1.534,1.63l.466.031v2.696h10v-2.696l.467-.031c.859-.058,1.533-.773,1.533-1.63,0-.905-.737-1.643-1.643-1.643-.545,0-1.53.395-2.117.769-.015-.006-1.763-.769-3.24-.769s-3.225.763-3.24.769c-.587-.374-1.573-.769-2.117-.769-.906,0-1.643.737-1.643,1.643Zm8,19.357c-.552,0-1,.448-1,1s.448,1,1,1,1-.448,1-1-.448-1-1-1Z"/>
</svg>
