<?xml version="1.0" encoding="UTF-8"?>
<svg xmlns="http://www.w3.org/2000/svg" id="Layer_1" data-name="Layer 1" viewBox="0 0 24 24">
  <path d="m11.5,8c-1.378,0-2.5,1.122-2.5,2.5v3c0,1.378,1.122,2.5,2.5,2.5s2.5-1.122,2.5-2.5v-3c0-1.378-1.122-2.5-2.5-2.5Zm1.5,5.5c0,.827-.673,1.5-1.5,1.5s-1.5-.673-1.5-1.5v-3c0-.827.673-1.5,1.5-1.5s1.5.673,1.5,1.5v3Zm8,1.49c0,.547-.443.99-.99.99s-.99-.443-.99-.99.443-.99.99-.99.99.443.99.99Zm-6-6c0-.558.448-1.01,1-1.01s1,.452,1,1.01-.448,1.01-1,1.01-1-.452-1-1.01ZM11.984,0C5.367,0-.016,5.383-.016,12s5.383,12,12,12h.016c6.617,0,12-5.383,12-12S18.617,0,11.984,0Zm.016,23h-.016C5.918,23,.984,18.065.984,12S5.918,1,12,1s11,4.935,11,11-4.935,11-11,11Zm9-15l-4.806,8h-1.194l4.806-8h1.194ZM4,15h4v1H3v-1c0-.96.973-1.625,2.003-2.328.982-.671,1.997-1.364,1.997-2.172,0-.827-.673-1.5-1.5-1.5s-1.5.673-1.5,1.5v.5h-1v-.5c0-1.378,1.122-2.5,2.5-2.5s2.5,1.122,2.5,2.5c0,1.336-1.292,2.219-2.433,2.998-.734.501-1.567,1.07-1.567,1.502Z"/>
</svg>
