<?xml version="1.0" encoding="UTF-8"?>
<svg xmlns="http://www.w3.org/2000/svg" id="Layer_1" data-name="Layer 1" viewBox="0 0 24 24" width="512" height="512"><path d="M24,2.5c0-1.38-1.12-2.5-2.5-2.5H2.5C1.12,0,0,1.12,0,2.5v5.5H1V24H23V8h1V2.5Zm-2,20.5H2V8H22v15Zm1-16H1V2.5c0-.83,.67-1.5,1.5-1.5H21.5c.83,0,1.5,.67,1.5,1.5V7Zm-13.5,10v.6c0,.77,.63,1.4,1.4,1.4h2.21c.77,0,1.4-.63,1.4-1.4,0-.68-.49-1.26-1.17-1.38l-2.83-.47c-1.16-.19-2-1.19-2-2.36,0-1.32,1.07-2.39,2.4-2.39h.6v-1h1v1h.6c1.32,0,2.4,1.07,2.4,2.39v.61h-1v-.61c0-.77-.63-1.39-1.4-1.39h-2.21c-.77,0-1.4,.63-1.4,1.39,0,.68,.49,1.26,1.17,1.38l2.83,.47c1.16,.19,2,1.19,2,2.36,0,1.32-1.07,2.4-2.4,2.4h-.6v1h-1v-1h-.6c-1.32,0-2.4-1.07-2.4-2.4v-.6h1Z"/></svg>
