<?xml version="1.0" encoding="UTF-8"?>
<svg xmlns="http://www.w3.org/2000/svg" id="Layer_1" data-name="Layer 1" viewBox="0 0 24 24">
  <path d="m13.816,17.353c-3.305-1.346-5.712-3.757-7.164-7.172l3.293-3.293L4.387,1.329l-2.817,2.817C.558,5.156,0,6.525,0,8,0,15.028,8.972,24,16,24c1.476,0,2.844-.558,3.854-1.569l2.818-2.817-5.558-5.558-3.297,3.297Zm5.33,4.371c-.821.823-1.938,1.276-3.146,1.276-6.448,0-15-8.551-15-15,0-1.208.453-2.325,1.276-3.146l2.111-2.111,4.144,4.144-3.056,3.056.123.307c1.586,3.95,4.332,6.695,8.161,8.156l.303.116,3.051-3.052,4.144,4.144-2.111,2.11Zm-1.646-8.724c3.584,0,6.5-2.916,6.5-6.5S21.084,0,17.5,0s-6.5,2.916-6.5,6.5,2.916,6.5,6.5,6.5Zm0-12c3.033,0,5.5,2.467,5.5,5.5s-2.467,5.5-5.5,5.5-5.5-2.467-5.5-5.5,2.467-5.5,5.5-5.5Zm1.646,7.854l-2.146-2.146v-3.707h1v3.293l1.854,1.854-.707.707Z"/>
</svg>
