<?xml version="1.0" encoding="UTF-8"?>
<svg xmlns="http://www.w3.org/2000/svg" id="Layer_1" data-name="Layer 1" viewBox="0 0 24 24">
  <path d="m23.229,6.324c.497-.497.771-1.157.771-1.859s-.273-1.362-.771-1.859l-1.836-1.836c-.992-.993-2.726-.992-3.718,0l-4.399,4.399L8.118.011,1.98,6.149l4.98,4.98c-2.311-.425-4.787.251-6.57,2.035l-.354.354,4.87,4.869-1.888,1.888.707.707,1.888-1.888,4.87,4.87.354-.354c1.783-1.784,2.459-4.26,2.033-6.572l4.981,4.982,6.138-6.138-5.159-5.159,4.399-4.399Zm-4.847-4.847c.614-.615,1.688-.616,2.304,0l1.836,1.836c.308.308.478.717.478,1.152s-.17.844-.478,1.152l-10.046,10.046c-.36-.911-.904-1.765-1.64-2.5-.735-.735-1.589-1.281-2.5-1.641L18.383,1.477Zm-10.265-.052l4.451,4.452-4.724,4.724L3.395,6.149,8.118,1.425Zm2.352,21.111L1.464,13.531c2.507-2.145,6.296-2.032,8.666.34,2.37,2.371,2.483,6.159.34,8.665Zm12.105-6.654l-4.724,4.724-4.451-4.452,4.724-4.724,4.452,4.452Z"/>
</svg>
