<?xml version="1.0" encoding="UTF-8"?>
<svg xmlns="http://www.w3.org/2000/svg" id="Layer_1" data-name="Layer 1" viewBox="0 0 24 24">
  <path d="m11,0h1v9.5c0,1.379-1.121,2.5-2.5,2.5h-1.5v12h-1v-12h-1.5c-1.379,0-2.5-1.121-2.5-2.5V0h1v9.5c0,.827.673,1.5,1.5,1.5h1.5V0h1v11h1.5c.827,0,1.5-.673,1.5-1.5V0Zm10,8.767c0,4.717-4.145,9.307-5,10.203v5.03h-1V1.501c0-.658.402-1.217,1.026-1.424.623-.207,1.286.002,1.682.534,1.502,2.014,3.292,5.064,3.292,8.155Zm-5,8.695c1.393-1.652,4-5.211,4-8.695,0-2.816-1.683-5.665-3.095-7.559-.124-.168-.277-.208-.396-.208-.076,0-.138.017-.17.027-.079.026-.34.139-.34.474v15.961Z"/>
</svg>
