<?xml version="1.0" encoding="UTF-8"?>
<svg xmlns="http://www.w3.org/2000/svg" id="Layer_1" data-name="Layer 1" width="512" height="512" viewBox="0 0 24 24"><path d="M15.5,0h-1.5V9H5.207l-1.439-1.439c-1.006-1.006-2.344-1.561-3.768-1.561v1c1.156,0,2.243,.45,3.061,1.268l.939,.939v3.293c0,1.378,1.122,2.5,2.5,2.5h6.445l-3.444,4.21c-.307-.134-.645-.21-1.001-.21-1.378,0-2.5,1.122-2.5,2.5s1.122,2.5,2.5,2.5,2.5-1.122,2.5-2.5c0-.662-.259-1.264-.681-1.712l3.681-4.499,3.681,4.499c-.422,.448-.681,1.05-.681,1.712,0,1.378,1.122,2.5,2.5,2.5s2.5-1.122,2.5-2.5-1.122-2.5-2.5-2.5c-.356,0-.694,.075-1.001,.21l-3.444-4.21h6.445c1.378,0,2.5-1.122,2.5-2.5v-3C24,.108,15.585,0,15.5,0Zm-7,23c-.827,0-1.5-.673-1.5-1.5s.673-1.5,1.5-1.5,1.5,.673,1.5,1.5-.673,1.5-1.5,1.5Zm12.5-1.5c0,.827-.673,1.5-1.5,1.5s-1.5-.673-1.5-1.5,.673-1.5,1.5-1.5,1.5,.673,1.5,1.5ZM15,1h.499c.3,0,7.211,.118,7.492,8h-7.991V1Zm8,11.5c0,.827-.673,1.5-1.5,1.5H6.5c-.827,0-1.5-.673-1.5-1.5v-2.5H23v2.5Z"/></svg>
