<?xml version="1.0" encoding="UTF-8"?>
<svg xmlns="http://www.w3.org/2000/svg" id="Layer_1" data-name="Layer 1" viewBox="0 0 24 24" width="512" height="512"><path d="M20,8.5v-2c0-1.028-.616-1.939-1.571-2.321l-3.429-1.371V1h1V0H8V1h1v1.808l-3.429,1.371c-.955,.382-1.571,1.293-1.571,2.321v2c0,.817,.394,1.544,1.002,2-.608,.456-1.002,1.183-1.002,2v3c0,.817,.394,1.544,1.002,2-.608,.456-1.002,1.183-1.002,2v4.5H20v-4.5c0-.817-.394-1.544-1.002-2,.608-.456,1.002-1.183,1.002-2v-3c0-.817-.394-1.544-1.002-2,.608-.456,1.002-1.183,1.002-2Zm-1,11v3.5H5v-3.5c0-.827,.673-1.5,1.5-1.5h11c.827,0,1.5,.673,1.5,1.5Zm0-7v3c0,.827-.673,1.5-1.5,1.5H6.5c-.827,0-1.5-.673-1.5-1.5v-3c0-.827,.673-1.5,1.5-1.5h11c.827,0,1.5,.673,1.5,1.5Zm0-4c0,.827-.673,1.5-1.5,1.5H6.5c-.827,0-1.5-.673-1.5-1.5v-2c0-.617,.37-1.164,.942-1.393l4.058-1.623V1h4V3.484l4.058,1.623c.572,.229,.942,.776,.942,1.393v2Z"/></svg>
