<?xml version="1.0" encoding="UTF-8"?>
<svg xmlns="http://www.w3.org/2000/svg" id="Layer_1" data-name="Layer 1" viewBox="0 0 24 24">
  <path d="m21,4v-1h-2v-.5c0-1.379-1.121-2.5-2.5-2.5H7.5c-1.379,0-2.5,1.121-2.5,2.5v6.893c-1.17.64-2,1.68-2,2.607,0,2.5,1.996,5.788,6.366,6.732-.066,1.317-.707,1.649-1.507,2.062-.828.427-1.859.959-1.859,2.706v.5h12v-.5c0-1.747-1.031-2.279-1.859-2.706-.8-.413-1.441-.745-1.507-2.062,4.37-.944,6.366-4.232,6.366-6.732,0-.927-.83-1.966-2-2.607v-5.393h2Zm-15-1.5c0-.827.673-1.5,1.5-1.5h9c.827,0,1.5.673,1.5,1.5v6.525l-12-.025V2.5Zm9.682,19.183c.662.341,1.137.586,1.276,1.317H7.042c.14-.731.614-.977,1.276-1.317.855-.441,1.904-.984,2.039-2.783.518.065,1.066.1,1.643.1s1.124-.035,1.643-.1c.135,1.799,1.184,2.341,2.039,2.783Zm-3.682-3.683c-4.34,0-6.802-2.121-7.655-4.21,1.465.784,4.085,1.21,7.655,1.21,3.345,0,5.998-.196,7.534-.936-.951,1.997-3.384,3.936-7.534,3.936Zm8-6c0,1.402-2.393,2-8,2-5.869,0-8-1.196-8-2,0-.535.791-1.541,2.084-2h11.832c1.293.459,2.084,1.465,2.084,2Z"/>
</svg>
