<?xml version="1.0" encoding="UTF-8"?>
<svg xmlns="http://www.w3.org/2000/svg" id="Layer_1" data-name="Layer 1" width="512" height="512" viewBox="0 0 24 24"><path d="M8.5,20.003l-2.834-5.669L-.003,11.5l5.669-2.834,2.834-5.669,2.834,5.669,5.669,2.834-5.669,2.834-2.834,5.669ZM2.233,11.5l4.178,2.089,2.089,4.178,2.089-4.178,4.178-2.089-4.178-2.089-2.089-4.178-2.089,4.178-4.178,2.089Zm16.267,12.489l-1.826-3.651-3.651-1.826,3.651-1.825,1.826-3.652,1.826,3.652,3.651,1.825-3.651,1.826-1.826,3.651Zm-3.241-5.477l2.161,1.081,1.08,2.161,1.08-2.161,2.161-1.081-2.161-1.08-1.08-2.161-1.08,2.161-2.161,1.08Zm4.254-9.497l-1.497-2.994-2.993-1.496,2.993-1.497L19.513,.036l1.497,2.994,2.993,1.497-2.993,1.496-1.497,2.994Zm-2.254-4.49l1.503,.751,.751,1.502,.751-1.502,1.503-.751-1.503-.751-.751-1.502-.751,1.502-1.503,.751Z"/></svg>
