<?xml version="1.0" encoding="UTF-8"?>
<svg xmlns="http://www.w3.org/2000/svg" id="Layer_1" data-name="Layer 1" viewBox="0 0 24 24" width="512" height="512"><path d="M19.179,.037L7.702,18.307c-.421,.685-1.323,.899-2.009,.478-.688-.424-.897-1.291-.477-1.973,.722-1.174,.356-2.717-.817-3.44-1.174-.723-2.716-.357-3.44,.817-1.859,3.018-.912,6.99,2.111,8.853,1.03,.634,2.19,.959,3.372,.959,.502,0,1.007-.059,1.509-.178,1.681-.399,3.104-1.426,4.005-2.889L23.436,2.659,19.179,.037Zm.319,1.371l2.554,1.574-5.599,8.914-2.502-1.656L19.498,1.408ZM11.107,20.406c-.763,1.239-1.966,2.107-3.388,2.445-1.421,.336-2.886,.103-4.125-.661-2.554-1.574-3.354-4.928-1.784-7.477,.283-.459,.776-.713,1.28-.713,.268,0,.54,.072,.784,.223,.704,.434,.924,1.36,.49,2.064-.714,1.16-.361,2.631,.804,3.349,1.155,.71,2.673,.35,3.383-.8l4.868-7.749,2.502,1.656-4.814,7.664Zm9.893-2.406c-1.654,0-3,1.346-3,3s1.346,3,3,3,3-1.346,3-3-1.346-3-3-3Zm0,5c-1.103,0-2-.897-2-2s.897-2,2-2,2,.897,2,2-.897,2-2,2Z"/></svg>
