<?xml version="1.0" encoding="UTF-8"?>
<svg xmlns="http://www.w3.org/2000/svg" id="Layer_1" data-name="Layer 1" viewBox="0 0 24 24">
  <path d="m3.5,19c1.378,0,2.5-1.122,2.5-2.5s-1.122-2.5-2.5-2.5-2.5,1.122-2.5,2.5,1.122,2.5,2.5,2.5Zm0-4c.827,0,1.5.673,1.5,1.5s-.673,1.5-1.5,1.5-1.5-.673-1.5-1.5.673-1.5,1.5-1.5ZM20.034,4l-1.078-4h-.889l-1.08,4h-3.987v.845l2.97,1.933-1.119,3.498.661.498,3.002-2.321,2.989,2.311.688-.479-1.149-3.49,2.958-1.953v-.841h-3.966Zm-.181,2.38l.814,2.472-2.153-1.664-2.16,1.67.8-2.502-2.083-1.356h2.682l.758-2.808.757,2.808h2.675l-2.091,1.38Zm-12.853,15.82v1.8h-1v-1.8c0-.662-.539-1.2-1.2-1.2h-2.6c-.662,0-1.2.539-1.2,1.2v1.8H0v-1.8c0-1.213.987-2.2,2.2-2.2h2.6c1.213,0,2.2.987,2.2,2.2Zm17-3.7c0,1.93-1.57,3.5-3.5,3.5h-11.5v-1h11.5c1.378,0,2.5-1.122,2.5-2.5s-1.122-2.5-2.5-2.5h-10c-1.93,0-3.5-1.57-3.5-3.5s1.57-3.5,3.5-3.5h2.659l-.32,1h-2.339c-1.378,0-2.5,1.122-2.5,2.5s1.122,2.5,2.5,2.5h10c1.93,0,3.5,1.57,3.5,3.5Z"/>
</svg>
