<?xml version="1.0" encoding="UTF-8"?>
<svg xmlns="http://www.w3.org/2000/svg" id="Layer_1" data-name="Layer 1" viewBox="0 0 24 24" width="512" height="512"><path d="M21.12,8.6c-.56-.48-1.3-.68-2.04-.56-.64,.1-1.19,.47-1.57,.99-.4-.54-1.01-.91-1.7-1l1.12-4.96c.17-.72,0-1.46-.43-2.05C16.07,.42,15.39,.05,14.65,0c-1.19-.08-2.32,.8-2.61,2.04l-1.04,4.49-1.04-4.49C9.67,.8,8.54-.08,7.35,0c-.74,.05-1.42,.41-1.86,1-.44,.59-.6,1.34-.43,2.05l1.62,7.09c-.36,.12-.7,.33-.99,.63l-2.99,3.75c-.93,1.11-.92,2.56,.03,3.5l6.06,5.97h13.21V10.5c0-.73-.32-1.43-.88-1.9Zm-4.12,1.9v2c0,.83-.67,1.5-1.5,1.5s-1.5-.67-1.5-1.5v-2c0-.83,.67-1.5,1.5-1.5s1.5,.67,1.5,1.5Zm-7.79,12.5l-5.77-5.68c-.58-.58-.56-1.44,.04-2.16l2.96-3.72c.58-.58,1.54-.58,2.12,0,.28,.28,.44,.66,.44,1.06s-.16,.78-.48,1.11l-2.41,3.09,.79,.62,2.37-3.04c.47-.47,.73-1.1,.73-1.77s-.26-1.3-.73-1.77c-.44-.44-1-.68-1.58-.72l-1.65-7.18c-.1-.43,0-.88,.26-1.23,.27-.36,.66-.57,1.12-.6,.72-.04,1.39,.5,1.57,1.27l2.01,8.7L13.01,2.27c.18-.77,.85-1.32,1.57-1.27,.46,.03,.85,.24,1.12,.6,.26,.35,.36,.8,.26,1.23l-1.19,5.27c-1.02,.31-1.77,1.27-1.77,2.39v2c0,1.38,1.12,2.5,2.5,2.5,.82,0,1.54-.39,2-1,.46,.61,1.18,1,2,1,.56,0,1.08-.19,1.5-.5v8.5H9.21Zm10.29-9c-.83,0-1.5-.67-1.5-1.5v-1.89c0-.79,.54-1.47,1.24-1.59,.45-.07,.89,.05,1.23,.34,.34,.29,.53,.7,.53,1.14v2c0,.83-.67,1.5-1.5,1.5Z"/></svg>
