<?xml version="1.0" encoding="UTF-8"?>
<svg xmlns="http://www.w3.org/2000/svg" id="Layer_1" data-name="Layer 1" viewBox="0 0 24 24">
  <path d="m16,6h-2v-1h2v1Zm-6.5-1.179l9.5,17.994v1.186H0v-1.186L9.5,4.821Zm3.964,9.65l-1.441,2.828-1.657-2.571-2.071,3.369-2.644-3.845L1.033,23h16.934l-4.503-8.529Zm-.571-1.082l-3.393-6.427-3.321,6.291,2.07,3.011,2.098-3.413,1.575,2.444.971-1.906Zm1.107-3.389h2v-1h-2v1Zm4-4h2v-1h-2v1Zm3.5-6h-9s0,0,0,0C11.39,0,10.458.732,10.132,1.735l.867,1.643v-.878c0-.827.673-1.5,1.5-1.5h0s9,0,9,0c.827,0,1.5.673,1.5,1.5v20.5h-2v1h3V2.5c0-1.378-1.121-2.5-2.5-2.5Zm-3.5,14h2v-1h-2v1Zm0,4h2v-1h-2v1Zm0-8h2v-1h-2v1Z"/>
</svg>
