<?xml version="1.0" encoding="UTF-8"?>
<svg xmlns="http://www.w3.org/2000/svg" id="Layer_1" data-name="Layer 1" viewBox="0 0 24 24" width="512" height="512"><path d="M23,11v1h-4.783l-2.572-4.273c-.027-.045-.057-.088-.089-.13l-3.056,7.147-.864-.547,3.065-7.157c-.111-.026-.225-.041-.341-.041h-2.582l-2.613,6.244c-.275,.672-.029,1.444,.587,1.833l5.248,3.139v5.784h-1v-5.216l-4.772-2.854c-1.038-.656-1.448-1.943-.987-3.068l2.452-5.861h-3.884l-1.862,3.724-.895-.447,2.138-4.276H14.36c.872,0,1.692,.464,2.142,1.211l2.281,3.789h4.217ZM12,2.5c0-1.378,1.122-2.5,2.5-2.5s2.5,1.122,2.5,2.5-1.122,2.5-2.5,2.5-2.5-1.122-2.5-2.5Zm1,0c0,.827,.673,1.5,1.5,1.5s1.5-.673,1.5-1.5-.673-1.5-1.5-1.5-1.5,.673-1.5,1.5Zm-5.138,14.887l-.691,1.613H2v1H7.83l.879-2.051-.507-.303c-.123-.077-.227-.172-.34-.258Z"/></svg>
