<?xml version="1.0" encoding="UTF-8"?>
<svg xmlns="http://www.w3.org/2000/svg" id="Layer_1" data-name="Layer 1" viewBox="0 0 24 24" width="512" height="512"><path d="M7.5,18c-.827,0-1.5-.673-1.5-1.5V2.5c0-1.378-1.121-2.5-2.5-2.5H0V1H3.5c.827,0,1.5,.673,1.5,1.5v14c0,1.378,1.121,2.5,2.5,2.5h.266c-.476,.531-.766,1.232-.766,2,0,1.654,1.346,3,3,3s3-1.346,3-3c0-.768-.29-1.469-.766-2h6.532c-.476,.531-.766,1.232-.766,2,0,1.654,1.346,3,3,3s3-1.346,3-3c0-.768-.29-1.469-.766-2h.766v-1H7.5Zm4.5,3c0,1.103-.897,2-2,2s-2-.897-2-2,.897-2,2-2,2,.897,2,2Zm11,0c0,1.103-.897,2-2,2s-2-.897-2-2,.897-2,2-2,2,.897,2,2Zm-1.5-17h-1.5V1.5c0-.827-.673-1.5-1.5-1.5h-5c-.827,0-1.5,.673-1.5,1.5v2.5h-1.5c-1.379,0-2.5,1.122-2.5,2.5v9.5H24V6.5c0-1.378-1.121-2.5-2.5-2.5ZM13,1.5c0-.276,.225-.5,.5-.5h5c.275,0,.5,.224,.5,.5v2.5h-6V1.5Zm6,3.5V15h-6V5h6Zm-10,1.5c0-.827,.673-1.5,1.5-1.5h1.5V15h-3V6.5Zm14,8.5h-3V5h1.5c.827,0,1.5,.673,1.5,1.5V15Z"/></svg>
