<?xml version="1.0" encoding="UTF-8"?>
<svg xmlns="http://www.w3.org/2000/svg" id="Layer_1" data-name="Layer 1" width="512" height="512" viewBox="0 0 24 24"><path d="M12.5,24H3.5c-1.93,0-3.5-1.57-3.5-3.5,0-1.8,1.366-3.288,3.116-3.479-.078-.345-.116-.683-.116-1.021,0-2.757,2.243-5,5-5,2.392,0,4.418,1.698,4.88,4.016,2.305,.193,4.12,2.13,4.12,4.484,0,2.481-2.019,4.5-4.5,4.5ZM3.5,18c-1.378,0-2.5,1.122-2.5,2.5s1.122,2.5,2.5,2.5H12.5c1.93,0,3.5-1.57,3.5-3.5s-1.556-3.485-3.473-3.5l-.525,.005-.049-.445c-.225-2.03-1.925-3.56-3.953-3.56-2.206,0-4,1.794-4,4,0,.43,.081,.865,.248,1.332l.238,.668h-.985Zm13.984-2.625c.228,.275,.434,.566,.615,.875,1.244-1.951,3.421-3.251,5.901-3.251v-1c-2.688,0-5.065,1.336-6.516,3.375ZM7.292,9.036c.233-.023,.469-.036,.708-.036,.172,0,.339,.026,.508,.039C11.953,4.184,17.607,1,24,1V0C17.02,0,10.871,3.601,7.292,9.036Zm6.988,3.954c.049,.104,.111,.2,.156,.306,.229,.072,.444,.172,.661,.269,2-2.76,5.241-4.566,8.903-4.566v-1c-3.999,0-7.538,1.974-9.72,4.991Zm-2.744-3c.287,.171,.56,.361,.82,.57,2.752-3.389,6.947-5.561,11.643-5.561v-1c-5.035,0-9.528,2.344-12.464,5.991Z"/></svg>
