<?xml version="1.0" encoding="UTF-8"?>
<svg xmlns="http://www.w3.org/2000/svg" id="Layer_1" data-name="Layer 1" viewBox="0 0 24 24">
  <path d="m23.528,1.03c-.471-.646-1.229-1.03-2.028-1.03H2.5C1.701,0,.943.385.472,1.03.002,1.672-.129,2.472.11,3.224c1.095,3.439,5.012,8.512,11.39,8.766v11.011h-5.5v1h12v-1h-5.5v-11.011c6.378-.254,10.294-5.326,11.39-8.766.24-.752.108-1.552-.361-2.193Zm-11.528,9.97c-4.914,0-8.308-3.098-9.996-6h19.991c-1.688,2.902-5.082,6-9.996,6ZM22.937,2.921c-.113.355-.259.729-.437,1.113v-.034H1.5v.034c-.178-.384-.323-.758-.437-1.113-.142-.445-.063-.92.215-1.301.288-.395.733-.62,1.221-.62h19c.488,0,.933.226,1.221.62.279.381.357.855.215,1.301Z"/>
</svg>
