<?xml version="1.0" encoding="UTF-8"?>
<svg xmlns="http://www.w3.org/2000/svg" id="Layer_1" data-name="Layer 1" viewBox="0 0 24 24" width="512" height="512"><path d="M17.92,5.362l-1.709,1.709c-1.301-.694-2.75-1.059-4.217-1.059C7.035,6.013,3,10.047,3,15.006s4.035,8.994,8.994,8.994,9.006-4.035,9.006-8.994c0-1.459-.371-2.913-1.076-4.228l1.706-1.707-3.71-3.71Zm.952,5.586c.738,1.248,1.128,2.651,1.128,4.059,0,4.408-3.592,7.994-8.006,7.994s-7.994-3.586-7.994-7.994,3.586-7.994,7.994-7.994c1.417,0,2.817,.384,4.049,1.11l.333,.197,1.544-1.544,2.296,2.296-1.542,1.542,.198,.333Zm3.274-4.968l-.339,.362-.729-.684,.339-.362c.78-.833,.78-2.188,0-3.02-.796-.85-1.885-1.314-2.993-1.274-5.185,.188-9.279,1.051-9.319,1.059l-.209-.978c.042-.009,4.216-.89,9.492-1.081,1.389-.065,2.765,.528,3.758,1.589,1.134,1.209,1.134,3.177,0,4.387Zm-16.428-.242l2.87-1.435-2.87-1.435L4.283,0l-1.435,2.869L-.02,4.304l2.869,1.435,1.435,2.87,1.435-2.87Zm-3.502-1.435l1.378-.689,.689-1.378,.689,1.378,1.378,.689-1.378,.689-.689,1.378-.689-1.378-1.378-.689Z"/></svg>
