<?xml version="1.0" encoding="UTF-8"?>
<svg xmlns="http://www.w3.org/2000/svg" id="Layer_1" data-name="Layer 1" viewBox="0 0 24 24">
  <path d="m24,7.035c0-1.333-.534-2.603-1.506-3.575C17.885-1.149,6.115-1.149,1.506,3.46.534,4.432,0,5.702,0,7.034v3.009l4.154-.036-2.629,4.817c-.998,1.831-1.525,3.901-1.525,5.986v3.19h24v-3.19c0-2.085-.527-4.155-1.526-5.986l-2.632-4.824h4.158v-2.965Zm-2.404,8.268c.919,1.685,1.404,3.589,1.404,5.507v2.19H1v-2.19c0-1.918.485-3.823,1.403-5.507l2.894-5.305h.009s1.322-2.573,1.322-2.573c.503-.289,2.658-1.425,5.371-1.425s4.868,1.136,5.371,1.425l1.324,2.575h.008l2.892,5.303Zm1.404-6.303h-3.695l-1.172-2.281s-2.74-1.719-6.133-1.719-6.133,1.719-6.133,1.719l-1.174,2.283-3.693.032v-2c0-1.065.43-2.083,1.213-2.867,2.104-2.104,5.945-3.156,9.787-3.156s7.684,1.052,9.787,3.156c.783.783,1.214,1.801,1.213,2.867v1.966Zm-11,0c-3.309,0-6,2.691-6,6s2.691,6,6,6,6-2.691,6-6-2.691-6-6-6Zm0,11c-2.757,0-5-2.243-5-5s2.243-5,5-5,5,2.243,5,5-2.243,5-5,5Zm0-7c-1.103,0-2,.897-2,2s.897,2,2,2,2-.897,2-2-.897-2-2-2Zm0,3c-.552,0-1-.449-1-1s.448-1,1-1,1,.449,1,1-.448,1-1,1Z"/>
</svg>
