<?xml version="1.0" encoding="UTF-8"?>
<svg xmlns="http://www.w3.org/2000/svg" id="Layer_1" data-name="Layer 1" viewBox="0 0 24 24">
  <path d="m12.5,14.042v-5.042h-1v5.042c-1.417.239-2.5,1.474-2.5,2.958,0,1.654,1.346,3,3,3s3-1.346,3-3c0-1.484-1.083-2.719-2.5-2.958Zm-.5,4.958c-1.103,0-2-.897-2-2s.897-2,2-2,2,.897,2,2-.897,2-2,2Zm5-6.892v-7.108c0-2.757-2.243-5-5-5s-5,2.243-5,5v7.108c-1.291,1.316-2,3.046-2,4.892,0,3.859,3.141,7,7,7s7-3.141,7-7c0-1.846-.709-3.575-2-4.892Zm-5,10.892c-3.309,0-6-2.691-6-6,0-1.644.655-3.179,1.847-4.323l.153-.147v-7.529c0-2.206,1.794-4,4-4s4,1.794,4,4v7.529l.153.147c1.191,1.145,1.847,2.68,1.847,4.323,0,3.309-2.691,6-6,6Z"/>
</svg>
