<?xml version="1.0" encoding="UTF-8"?>
<svg xmlns="http://www.w3.org/2000/svg" id="Layer_1" data-name="Layer 1" viewBox="0 0 24 24">
  <path d="m19.258,17c-1.268,0-2.458.493-3.354,1.389l-3,3c-1.039,1.039-2.421,1.611-3.89,1.611H2.621c-.799,0-1.297-.517-1.498-1.001-.2-.483-.213-1.202.352-1.767l3.284-3.284,14.384-3.836c1.093-.292,1.855-1.285,1.855-2.416V2.5c0-1.379-1.121-2.5-2.5-2.5h-8.197c-1.13,0-2.123.763-2.416,1.855l-3.836,14.389-3.281,3.281c-.764.764-.981,1.858-.568,2.856.414.998,1.342,1.618,2.422,1.618h6.394c1.736,0,3.369-.677,4.597-1.904l3-3c.707-.707,1.646-1.096,2.646-1.096,2.063,0,3.742,1.679,3.742,3.742v2.258h1v-2.258c0-2.615-2.127-4.742-4.742-4.742Zm-.373-4.854l-12.714,3.391L14.632,7.075l4.797,4.797c-.157.125-.341.22-.545.274Zm.967-10.291c.094.195.146.414.146.645v8.196c0,.102-.01.202-.03.3l-4.628-4.628,4.513-4.513Zm-1.354-.855c.232,0,.452.053.648.147l-4.513,4.513L10.002,1.03c.097-.02.197-.03.299-.03h8.197Zm-9.646,1.113c.054-.203.149-.387.274-.545l4.799,4.799L5.46,14.833l3.391-12.719Z"/>
</svg>
