<?xml version="1.0" encoding="UTF-8"?>
<svg xmlns="http://www.w3.org/2000/svg" id="Layer_1" data-name="Layer 1" viewBox="0 0 24 24" width="512" height="512"><path d="M12.5,5c1.378,0,2.5-1.122,2.5-2.5s-1.122-2.5-2.5-2.5-2.5,1.122-2.5,2.5,1.122,2.5,2.5,2.5Zm0-4c.827,0,1.5,.673,1.5,1.5s-.673,1.5-1.5,1.5-1.5-.673-1.5-1.5,.673-1.5,1.5-1.5Zm8.371,12.099l-5.725-6.318c-.459-.484-1.107-.78-1.815-.78h-1.661c-.755,0-1.443,.337-1.905,.88l-5.636,6.219,.741,.672,4.129-4.556-1.955,10.786h2.955v4h1v-4h3v4h1v-4h2.966l-1.964-10.785,4.127,4.555,.741-.672Zm-6.063-4.868l1.96,10.769H8.242l1.952-10.768c.133-.8,.883-1.232,1.476-1.232h1.661c.669,0,1.332,.5,1.476,1.231Z"/></svg>
