<?xml version="1.0" encoding="UTF-8"?>
<svg xmlns="http://www.w3.org/2000/svg" id="Layer_1" data-name="Layer 1" viewBox="0 0 24 24">
  <path d="m24,3h-3v-1h-1v1h-3v1h3v6.5c0,.827-.673,1.5-1.5,1.5h-1.5v-1.5c0-1.378-1.121-2.5-2.5-2.5h-5c-1.379,0-2.5,1.122-2.5,2.5v1.5h-1.5c-.827,0-1.5-.673-1.5-1.5v-6.5h3v-1h-3v-1h-1v1H0v1h3v6.5c0,1.378,1.121,2.5,2.5,2.5h1.5v1.788c-2.475,1.547-4,4.284-4,7.212h1c0-2.368,1.131-4.593,3-6v1h10v-1c1.869,1.407,3,3.633,3,6h1c0-2.928-1.525-5.664-4-7.212v-1.788h1.5c1.379,0,2.5-1.122,2.5-2.5v-6.5h3v-1Zm-8,13h-8v-5.5c0-.827.673-1.5,1.5-1.5h5c.827,0,1.5.673,1.5,1.5v5.5Z"/>
</svg>
