<?xml version="1.0" encoding="UTF-8"?>
<svg xmlns="http://www.w3.org/2000/svg" id="Layer_1" data-name="Layer 1" viewBox="0 0 24 24">
  <path d="m16,8c-2.802,0-5.271,1.448-6.701,3.634-.576-.276-1.198-.469-1.852-.565l2.699-3.599-2.224-2.471h-2.846l-2.224,2.471,2.699,3.599c-3.136.46-5.552,3.169-5.552,6.431,0,3.584,2.916,6.5,6.5,6.5,1.73,0,3.303-.679,4.469-1.785,1.375,1.115,3.126,1.785,5.031,1.785,4.411,0,8-3.589,8-8s-3.589-8-8-8Zm-10.478-2h1.955l1.376,1.529-2.354,3.138-2.354-3.138,1.376-1.529ZM1,17.5c0-3.032,2.467-5.5,5.5-5.5.822,0,1.603.182,2.304.507-.515,1.056-.804,2.242-.804,3.493,0,2.147.85,4.098,2.231,5.537-.981.908-2.292,1.463-3.731,1.463-3.033,0-5.5-2.468-5.5-5.5Zm9.903,3.292c-1.179-1.253-1.903-2.94-1.903-4.792,0-1.069.241-2.083.672-2.991,1.408.997,2.328,2.639,2.328,4.491,0,1.234-.408,2.374-1.097,3.292Zm5.097,2.208c-1.647,0-3.162-.572-4.359-1.527.852-1.099,1.359-2.478,1.359-3.973,0-2.225-1.124-4.192-2.834-5.364,1.255-1.888,3.401-3.136,5.834-3.136,3.86,0,7,3.141,7,7s-3.14,7-7,7ZM9.565,3.642l-.707-.707,2.289-2.288.707.707-2.289,2.288Zm-6.168-.038L1.146,1.354l.707-.707,2.25,2.25-.707.707Zm3.604-.604h-1V0h1v3Z"/>
</svg>
