<?xml version="1.0" encoding="UTF-8"?>
<svg xmlns="http://www.w3.org/2000/svg" id="Layer_1" data-name="Layer 1" width="512" height="512" viewBox="0 0 24 24"><path d="M24,16.5c0,1.557-.795,2.93-2,3.738v-1.297c.617-.631,1-1.492,1-2.442,0-1.93-1.57-3.5-3.5-3.5h-.609l-.118-.333c-.563-1.596-2.08-2.667-3.772-2.667-2.206,0-4,1.794-4,4,0,.151,.009,.3,.024,.446l.06,.554h-.557c-1.406,0-2.527,1.121-2.527,2.5,0,.814,.396,1.531,1,1.988v1.161c-1.178-.564-2-1.758-2-3.149,0-1.761,1.306-3.222,3-3.465v-.035c0-2.757,2.243-5,5-5,1.996,0,3.795,1.192,4.584,3.001,2.443,.045,4.416,2.046,4.416,4.499ZM5,9.5c0-2.481,2.019-4.5,4.5-4.5,1.646,0,3.073,.897,3.857,2.219,.14,.222,.224,.479,.224,.479l.898-.521-.002-.004,3.479-2.025-.504-.863-3.481,2.026c-.359-.502-.799-.942-1.302-1.299l2.021-3.475-.865-.502-2.021,3.474c-.557-.259-1.165-.427-1.805-.486V0h-1V4.023c-.639,.058-1.248,.226-1.806,.484L5.175,1.035l-.865,.502,2.019,3.472c-.504,.357-.946,.797-1.305,1.3L1.548,4.285l-.504,.863,3.474,2.023c-.265,.564-.437,1.18-.495,1.829H0v1H4.023c.059,.648,.232,1.264,.497,1.828l-3.476,2.024,.504,.863,3.479-2.025c.352,.491,.783,.923,1.275,1.276,.219-.26,.465-.495,.728-.711-1.22-.806-2.029-2.186-2.029-3.754Zm10,14.5h1v-5h-1v5Zm4,0h1v-5h-1v5Zm-8,0h1v-5h-1v5Z"/></svg>
