<?xml version="1.0" encoding="UTF-8"?>
<svg xmlns="http://www.w3.org/2000/svg" id="Layer_1" data-name="Layer 1" viewBox="0 0 24 24">
  <path d="m3,8h5v.952l-3.553,7.105-.895-.447,3.305-6.609h-3.857v-1Zm8.492,3h-1.495l-.01-2h3.497v-1h-4.503l.021,4h2.489c.401,0,.778.157,1.062.441.283.285.438.663.438,1.064-.004.824-.677,1.494-1.5,1.494h-2.508v1h2.508c1.372,0,2.494-1.117,2.5-2.49.002-.67-.257-1.3-.729-1.774-.473-.474-1.102-.735-1.771-.735Zm4.508-1c.552,0,1-.452,1-1.01s-.448-1.01-1-1.01-1,.452-1,1.01.448,1.01,1,1.01Zm8,2c0,6.617-5.383,12-12,12h-.016C5.367,24-.016,18.617-.016,12S5.367,0,11.984,0s12.016,5.383,12.016,12Zm-1,0c0-6.065-4.935-11-11-11S.984,5.935.984,12s4.935,11,11,11h.016c6.065,0,11-4.935,11-11Zm-3.194-4l-4.806,8h1.194l4.806-8h-1.194Zm.204,6c-.547,0-.99.443-.99.99s.443.99.99.99.99-.443.99-.99-.443-.99-.99-.99Z"/>
</svg>
