<?xml version="1.0" encoding="UTF-8"?>
<svg xmlns="http://www.w3.org/2000/svg" id="Layer_1" data-name="Layer 1" viewBox="0 0 24 24">
  <path d="m23-.001s-.009,3.134-.009,4.702c0,1.741-.174,3.368-.523,4.888C19.81,7.46,10.374.194,8.104,2.47c-.847.846-.966,1.919-1.062,2.782-.067.604-.125,1.125-.395,1.395-.271.27-.792.331-1.396.401-.861.1-1.934.225-2.779,1.07-2.273,2.271,4.985,11.702,7.108,14.353-1.518.348-3.141.521-4.878.521-1.567,0-4.702.009-4.702.009l.003,1s3.132-.009,4.699-.009c5.693,0,10.232-1.771,13.876-5.415,3.644-3.643,5.415-8.182,5.415-13.876,0-1.566.009-4.699.009-4.699l-1-.003Zm-5.131,17.871c-2.085,2.086-4.486,3.522-7.257,4.332l.02-.016c-.573-.706-1.139-1.431-1.69-2.16,2.749-.641,5.105-1.945,7.121-3.961,1.497-1.497,2.593-3.186,3.324-5.08-.278-.215-.553-.424-.825-.628-.685,1.876-1.743,3.538-3.206,5.001-1.979,1.979-4.31,3.233-7.063,3.796-3.449-4.704-6.064-9.38-5.116-10.328.6-.599,1.407-.693,2.188-.784.723-.084,1.471-.171,1.988-.687.518-.517.601-1.266.682-1.991.087-.781.177-1.587.776-2.186,1.155-1.154,7.841,2.978,13.374,7.468l.011-.014c-.811,2.763-2.246,5.158-4.326,7.238Z"/>
</svg>
