<?xml version="1.0" encoding="UTF-8"?>
<svg xmlns="http://www.w3.org/2000/svg" id="Layer_1" data-name="Layer 1" viewBox="0 0 24 24" width="512" height="512"><path d="M23.21,12l-3.21,3.21v6.29c0,1.38-1.12,2.5-2.5,2.5h-3.5v-1h3.5c.83,0,1.5-.67,1.5-1.5v-6.71l2.79-2.79-2.79-2.79V2.5c0-.83-.67-1.5-1.5-1.5h-3.5V0h3.5c1.38,0,2.5,1.12,2.5,2.5v6.29l3.21,3.21ZM4,2.5v6.29L.79,12l3.21,3.21v6.29c0,1.41,1.61,2.5,3,2.5h3v-1h-3c-.87,0-2-.73-2-1.5v-6.71l-2.79-2.79,2.79-2.79V2.5c0-.83,.67-1.5,1.5-1.5h3.5V0h-3.5c-1.38,0-2.5,1.12-2.5,2.5Z"/></svg>
