<?xml version="1.0" encoding="UTF-8"?>
<svg xmlns="http://www.w3.org/2000/svg" id="Layer_1" data-name="Layer 1" viewBox="0 0 24 24" width="512" height="512"><path d="m17.5,11c-3.584,0-6.5,2.916-6.5,6.5s2.916,6.5,6.5,6.5,6.5-2.916,6.5-6.5-2.916-6.5-6.5-6.5Zm0,12c-3.032,0-5.5-2.468-5.5-5.5s2.468-5.5,5.5-5.5,5.5,2.468,5.5,5.5-2.468,5.5-5.5,5.5Zm2.939-7.451l.701.713-3.456,3.399c-.217.218-.51.339-.822.339s-.604-.121-.825-.343l-1.85-1.793.695-.719,1.856,1.8c.099.099.157.089.24.007l3.46-3.403Zm-8.416-4.549H4v-1h9.497c-.527.282-1.021.618-1.474,1Zm0,13H0V2.5C0,1.121,1.121,0,2.5,0h13c1.379,0,2.5,1.121,2.5,2.5v6.515c-.166-.01-.332-.015-.5-.015s-.334.005-.5.015V2.5c0-.827-.673-1.5-1.5-1.5H2.5c-.827,0-1.5.673-1.5,1.5v20.5h10.02c.306.36.642.695,1.004,1Zm1.977-18H4v-1h10v1ZM4,15h5v1h-5v-1Z"/></svg>
