<?xml version="1.0" encoding="UTF-8"?>
<svg xmlns="http://www.w3.org/2000/svg" id="Layer_1" data-name="Layer 1" width="512" height="512" viewBox="0 0 24 24"><path d="M12,18c-2.919,0-5.236-2.04-5.333-2.127l.666-.746c.021,.019,2.137,1.873,4.667,1.873s4.646-1.854,4.667-1.873l.666,.746c-.097,.087-2.414,2.127-5.333,2.127Zm12-6C24,5.383,18.617,0,12,0S0,5.383,0,12s5.383,12,12,12,12-5.383,12-12Zm-1,0c0,6.065-4.935,11-11,11S1,18.065,1,12,5.935,1,12,1s11,4.935,11,11ZM7.5,7c-1.431,0-2.5,2.111-2.5,4h1c0-1.43,.785-3,1.5-3s1.5,1.57,1.5,3h1c0-1.889-1.069-4-2.5-4Zm9,0c-1.431,0-2.5,2.111-2.5,4h1c0-1.43,.785-3,1.5-3s1.5,1.57,1.5,3h1c0-1.889-1.069-4-2.5-4Z"/></svg>
