<?xml version="1.0" encoding="UTF-8"?>
<svg xmlns="http://www.w3.org/2000/svg" id="Layer_1" data-name="Layer 1" viewBox="0 0 24 24">
  <path d="m22,10C22,4.486,17.514,0,12,0S2,4.486,2,10c0,3.994,2.353,7.447,5.746,9.049-1.407,1.062-2.359,2.612-2.655,4.368l-.098.583h13.849l-.098-.583c-.291-1.725-1.22-3.259-2.593-4.32,3.448-1.579,5.85-5.063,5.85-9.097Zm-4.372,13H6.205c.4-1.459,1.345-2.71,2.661-3.504.986.326,2.04.504,3.134.504,1.054,0,2.071-.164,3.026-.468,1.284.795,2.209,2.033,2.602,3.468Zm-5.628-4c-4.962,0-9-4.038-9-9S7.038,1,12,1s9,4.038,9,9-4.038,9-9,9Zm0-14c-2.757,0-5,2.243-5,5s2.243,5,5,5,5-2.243,5-5-2.243-5-5-5Zm0,9c-2.206,0-4-1.794-4-4s1.794-4,4-4,4,1.794,4,4-1.794,4-4,4Z"/>
</svg>
