<?xml version="1.0" encoding="UTF-8"?>
<svg xmlns="http://www.w3.org/2000/svg" id="Layer_1" data-name="Layer 1" viewBox="0 0 24 24" width="512" height="512"><path d="m11,1H0V0h11v1Zm-6,10h1v-7h5v-1H0v1h5v7ZM24,1.5v6.5c0,1.103-.897,2-2,2s-2-.897-2-2,.897-2,2-2c.366,0,.705.106,1,.278V1.5c0-.147-.062-.281-.173-.378-.11-.096-.253-.14-.398-.117l-5,.715c-.244.035-.429.247-.429.494v6.786c0,1.103-.897,2-2,2s-2-.897-2-2,.897-2,2-2c.366,0,.705.106,1,.278V2.214c0-.741.554-1.379,1.288-1.484L22.288.015c.429-.06.866.067,1.194.353.329.285.518.698.518,1.133Zm-8,7.5c0-.552-.448-1-1-1s-1,.448-1,1,.448,1,1,1,1-.448,1-1Zm7-1c0-.552-.448-1-1-1s-1,.448-1,1,.448,1,1,1,1-.448,1-1Zm1,14c0,1.103-.897,2-2,2s-2-.897-2-2,.897-2,2-2,2,.897,2,2Zm-1,0c0-.552-.448-1-1-1s-1,.448-1,1,.448,1,1,1,1-.448,1-1Zm-7-5c-1.103,0-2-.897-2-2s.897-2,2-2,2,.897,2,2-.897,2-2,2Zm0-1c.552,0,1-.448,1-1s-.448-1-1-1-1,.448-1,1,.448,1,1,1Zm6.872-2.627l-8.015,9.616.768.641,8.015-9.616-.768-.641Zm-10.416,4.814c-.082.118-1.09,1.557-2.518,2.973l2.172,2.139-.701.713-2.2-2.166c-1.316,1.164-2.875,2.154-4.37,2.154-2.403,0-3.839-1.141-3.839-3.052,0-1.337,2.127-3.147,3.204-3.978-.512-.478-1.204-1.254-1.204-1.971,0-1.103.897-2,2-2s2,.897,2,2c0,.744-.746,1.553-1.262,2.026l3.488,3.434c1.384-1.381,2.389-2.814,2.407-2.843l.822.57Zm-7.456-1.841c.525-.473,1-1.056,1-1.347,0-.552-.448-1-1-1s-1,.448-1,1c0,.291.475.874,1,1.347Zm3.498,4.8l-3.544-3.49c-1.325,1.006-2.954,2.545-2.954,3.292,0,1.695,1.544,2.052,2.839,2.052,1.2,0,2.512-.839,3.659-1.854Z"/></svg>
