<?xml version="1.0" encoding="UTF-8"?>
<svg xmlns="http://www.w3.org/2000/svg" id="Layer_1" data-name="Layer 1" viewBox="0 0 24 24" width="512" height="512"><path d="M11.05,7.71c-.6-.6-1.73-1.12-3.68-.2-1.48,.7-2.94,2-3.9,2.96C.18,13.75-.83,16.51,.71,18.05c3.8,3.8,9.86,5.33,13.14,5.91,.16,.03,.32,.04,.48,.04,.71,0,1.37-.28,1.89-.79,.63-.63,.9-1.49,.74-2.37-.58-3.28-2.11-9.34-5.91-13.14Zm3.4,7.56c-1.32,.73-2.59,1.86-3.45,2.73-.87,.87-2,2.13-2.73,3.45-1.26-.46-2.55-1.04-3.76-1.76,.49-1.34,1.7-3.01,3.44-4.75,1.74-1.74,3.41-2.94,4.75-3.44,.71,1.21,1.29,2.5,1.76,3.76ZM4.17,11.17c1.3-1.3,2.55-2.25,3.62-2.76,.57-.27,1.07-.41,1.49-.41s.78,.14,1.05,.41c.67,.67,1.27,1.43,1.81,2.22-1.81,.72-3.65,2.32-4.92,3.59s-2.87,3.11-3.59,4.92c-.8-.53-1.55-1.13-2.22-1.81-1.26-1.26,.6-4.01,2.76-6.17Zm11.34,11.34c-.39,.39-.94,.56-1.49,.47-1.27-.22-2.98-.6-4.8-1.2,.54-.94,1.39-1.99,2.48-3.08,1.09-1.09,2.14-1.93,3.08-2.48,.6,1.82,.97,3.53,1.2,4.8,.1,.55-.07,1.09-.47,1.49ZM24,3.4c0,5.36-3.29,10.73-5.25,13.45-.15,.2-.31,.38-.5,.53-.1-.36-.2-.73-.31-1.11,0,0,0,0,0,0,.84-1.17,1.93-2.83,2.89-4.77-1.12-.33-2.6-.5-4.32-.5-.23,0-.45,0-.66,0-.17-.33-.35-.66-.54-.98,.43-.02,.84-.03,1.2-.03,1.33,0,3.21,.11,4.75,.59,.51-1.15,.96-2.37,1.28-3.63-1.33-.62-3.46-.97-6.03-.97-1.51,0-2.86,.12-3.99,.34-.02-.02-.03-.03-.05-.05-.21-.21-.54-.49-.99-.74,1.64-.44,3.55-.55,5.03-.55,1.87,0,4.41,.17,6.25,.97,.16-.85,.25-1.71,.25-2.56,0-1.77-3.36-2.4-6.5-2.4s-6.5,.63-6.5,2.4c0,.56,.04,1.11,.11,1.67-.31-.05-.65-.08-1.01-.07-.06-.53-.09-1.07-.09-1.6,0-2.16,2.73-3.4,7.5-3.4s7.5,1.24,7.5,3.4Z"/></svg>
