<?xml version="1.0" encoding="UTF-8"?>
<svg xmlns="http://www.w3.org/2000/svg" id="Layer_1" data-name="Layer 1" viewBox="0 0 24 24" width="512" height="512"><path d="M23.696,9.683c-.324-.608-.866-1.054-1.526-1.254-2.172-.658-6.059-1.356-9.669-1.417v-3.012h3.5v-1h-3.5V0h-1V3h-3.5v1h3.5v3.012c-3.61,.061-7.497,.759-9.669,1.417-.66,.2-1.202,.646-1.526,1.254-.327,.614-.394,1.318-.188,1.985l3.487,11.332h-1.602v1H22v-1h-1.602l3.487-11.332c.205-.667,.138-1.371-.188-1.985Zm-.768,1.69l-3.577,11.627H4.649L1.072,11.373c-.126-.41-.085-.843,.115-1.22,.198-.373,.53-.646,.934-.768,2.204-.667,6.236-1.386,9.879-1.386s7.675,.719,9.879,1.386c.404,.122,.735,.395,.934,.768,.201,.377,.242,.81,.115,1.22Z"/></svg>
