<?xml version="1.0" encoding="UTF-8"?>
<svg xmlns="http://www.w3.org/2000/svg" id="Layer_1" data-name="Layer 1" viewBox="0 0 24 24" width="512" height="512"><path d="M12,24.048c-5.514,0-10-4.486-10-10,0-3.459,2.363-5.948,4.675-7.928l1.177-1.008-.366,1.506c-.164,.676-.486,2.719-.486,4.382,0,2.53,.27,5,3.5,5,1.454,0,2.481-1.03,2.5-2.506,.017-1.332-.513-2.509-1.025-3.647-.479-1.065-.975-2.167-.975-3.347,0-2.735,2.003-5.661,2.089-5.784l.43-.621,.404,.638c.894,1.41,2.065,2.741,3.198,4.028,2.399,2.726,4.879,5.544,4.879,9.287,0,5.514-4.486,10-10,10ZM6.252,7.845c-1.739,1.657-3.251,3.664-3.252,6.203,0,4.963,4.038,9,9,9s9-4.037,9-9c0-3.366-2.249-5.921-4.63-8.627-.985-1.118-1.999-2.271-2.855-3.497-.56,.963-1.515,2.857-1.515,4.576,0,.965,.431,1.923,.887,2.937,.531,1.18,1.132,2.517,1.113,4.069-.025,2.024-1.498,3.494-3.5,3.494-4.5,0-4.5-4.053-4.5-6,0-1.051,.118-2.223,.252-3.155Z"/></svg>
