<?xml version="1.0" encoding="UTF-8"?>
<svg xmlns="http://www.w3.org/2000/svg" id="Layer_1" data-name="Layer 1" viewBox="0 0 24 24">
  <path d="m5.5,4h1v5c0,1.103-.897,2-2,2s-2-.897-2-2h1c0,.552.449,1,1,1s1-.448,1-1v-5Zm18.5-1.5v14.207l-7.293,7.293H0V2.5C0,1.121,1.122,0,2.5,0h19c1.378,0,2.5,1.121,2.5,2.5ZM1,23h15v-7h7V2.5c0-.827-.673-1.5-1.5-1.5H2.5c-.827,0-1.5.673-1.5,1.5v20.5Zm16-6v5.293l5.293-5.293h-5.293Zm-6.568-12.325l1.568,6.325h-1.03l-.248-1h-2.432l-.258,1h-1.032l1.677-6.366c.054-.24.224-.458.462-.579.236-.122.518-.132.771-.024.261.109.451.345.521.645Zm.042,4.325l-.944-3.808-.982,3.808h1.926Zm6.026-5h-1.03l-1.44,5.808-1.497-5.808h-1.032l1.677,6.366c.054.24.224.458.462.579.236.122.518.132.771.024.261-.109.451-.345.521-.645l1.568-6.325Zm-.5,7l1.677-6.366c.054-.24.224-.458.462-.579.236-.122.518-.132.771-.024.261.109.451.345.521.645l1.568,6.325h-1.03l-.248-1h-2.432l-.258,1h-1.032Zm1.548-2h1.926l-.944-3.808-.982,3.808Z"/>
</svg>
