<?xml version="1.0" encoding="UTF-8"?>
<svg xmlns="http://www.w3.org/2000/svg" id="Layer_1" data-name="Layer 1" viewBox="0 0 24 24" width="512" height="512"><path d="m13.122,22l10.087-10.121c1.053-1.057,1.053-2.775,0-3.832l-6.231-6.252c-1.021-1.024-2.803-1.024-3.824,0L.816,14.173c-1.053,1.057-1.053,2.775,0,3.832l4.976,4.995h18.208v-1h-10.878Zm.74-19.5c.643-.646,1.764-.646,2.406,0l6.231,6.252c.665.667.665,1.753,0,2.42l-6.168,6.189L7.691,8.692l6.171-6.192Zm-7.654,19.5l-4.683-4.701c-.665-.667-.665-1.753,0-2.42l5.459-5.478,8.641,8.67-3.916,3.929h-5.502Z"/></svg>
