<?xml version="1.0" encoding="UTF-8"?>
<svg xmlns="http://www.w3.org/2000/svg" id="Layer_1" data-name="Layer 1" viewBox="0 0 24 24">
  <path d="m4.68,5c1.378,0,2.5-1.121,2.5-2.5S6.058,0,4.68,0s-2.5,1.121-2.5,2.5,1.122,2.5,2.5,2.5Zm0-4c.827,0,1.5.673,1.5,1.5s-.673,1.5-1.5,1.5-1.5-.673-1.5-1.5.673-1.5,1.5-1.5Zm1.32,8h1v15h-1v-7h-3v7h-1v-7H0v-8.5c0-1.379,1.122-2.5,2.5-2.5h12.5v1H2.5c-.827,0-1.5.673-1.5,1.5v7.5h5v-7Zm16,7h-1.5v-5c0-1.103-.897-2-2-2h-4c-1.103,0-2,.897-2,2v5h-1.5c-1.103,0-2,.897-2,2v6h15v-6c0-1.103-.897-2-2-2Zm-8.5-5c0-.552.449-1,1-1h4c.551,0,1,.448,1,1v5h-6v-5Zm2.5,12h-6v-5c0-.552.449-1,1-1h4c.551,0,1,.448,1,1v5Zm7,0h-6v-5c0-.552.449-1,1-1h4c.551,0,1,.448,1,1v5Zm-5.5-11h-2v-1h2v1Zm1.5,6h2v1h-2v-1Zm-7,0h2v1h-2v-1Z"/>
</svg>
