<?xml version="1.0" encoding="UTF-8"?>
<svg xmlns="http://www.w3.org/2000/svg" id="Layer_1" data-name="Layer 1" viewBox="0 0 24 24" width="512" height="512"><path d="m12,0C5.383,0,0,5.383,0,12s5.383,12,12,12,12-5.383,12-12S18.617,0,12,0Zm11,12c0,2.299-.71,4.436-1.92,6.203l-8.58-8.58V1.012c5.834.262,10.5,5.09,10.5,10.988ZM11.5,1.012v8.57L2.904,18.178c-1.201-1.762-1.904-3.89-1.904-6.178C1,6.102,5.666,1.274,11.5,1.012ZM3.51,18.986l7.99-7.99v11.992c-3.212-.144-6.07-1.673-7.99-4.002Zm8.99,4.002v-11.951l7.972,7.972c-1.92,2.317-4.77,3.835-7.972,3.979Z"/></svg>
