<?xml version="1.0" encoding="UTF-8"?>
<svg xmlns="http://www.w3.org/2000/svg" id="Layer_1" data-name="Layer 1" viewBox="0 0 24 24" width="512" height="512"><path d="M23.56,17.44l-4.42-4.5-.71,.7,4.28,4.36H14.38c-.42,0-.82-.18-1.1-.48l-5.09-5.52,5.09-5.52c.28-.31,.69-.48,1.1-.48h8.33l-4.28,4.36,.71,.7,4.42-4.5c.58-.58,.58-1.54,0-2.12L19.14,.02l-.71,.71,4.27,4.27H14.38c-.7,0-1.37,.29-1.84,.8l-5.26,5.7H0v1H7.28l5.26,5.7c.47,.51,1.14,.8,1.84,.8h8.33l-4.27,4.27,.71,.71,4.42-4.42c.58-.58,.58-1.54,0-2.12Z"/></svg>
