<?xml version="1.0" encoding="UTF-8"?>
<svg xmlns="http://www.w3.org/2000/svg" id="Layer_1" data-name="Layer 1" viewBox="0 0 24 24" width="512" height="512"><path d="M9.902,6.01l.196,.98c-1.244,.249-2.515,.912-3.776,1.973l-.644-.766c1.392-1.17,2.813-1.905,4.224-2.188Zm4,.98c1.244,.249,2.515,.912,3.776,1.973l.644-.766c-1.392-1.17-2.813-1.905-4.224-2.188l-.196,.98Zm9.098,5.01c0-.886-.106-1.748-.305-2.574l-2.695,3.255v6.821c0,.821-.397,1.586-1.063,2.046-1.326,.916-3.99,2.452-6.937,2.452s-5.611-1.536-6.937-2.452c-.666-.46-1.063-1.225-1.063-2.046v-6.824l-2.687-3.287c-.204,.836-.313,1.71-.313,2.608,0,1.626,.364,3.166,1,4.556v2.063c-1.261-1.899-2-4.173-2-6.619C0,5.383,5.383,0,12,0s12,5.383,12,12c0,2.446-.739,4.72-2,6.619v-2.063c.636-1.39,1-2.93,1-4.556Zm-4,1H5v6.502c0,.492,.236,.95,.632,1.224,1.23,.85,3.693,2.274,6.368,2.274s5.138-1.425,6.368-2.274c.396-.273,.632-.731,.632-1.224v-6.502Zm3.35-4.726c-1.53-4.237-5.592-7.274-10.35-7.274S3.202,4.02,1.663,8.239l3.075,3.761h14.527l3.085-3.726Z"/></svg>
