<?xml version="1.0" encoding="UTF-8"?>
<svg xmlns="http://www.w3.org/2000/svg" id="Layer_1" data-name="Layer 1" viewBox="0 0 24 24" width="512" height="512"><path d="M12,0C5.383,0,0,5.383,0,12s5.383,12,12,12,12-5.383,12-12S18.617,0,12,0Zm0,23c-6.065,0-11-4.935-11-11S5.935,1,12,1s11,4.935,11,11-4.935,11-11,11ZM7,15h10v1H7v-1Zm3-8H6v-1h4v1Zm7.793-.895l-.823,.566c-.017-.023-.495-.672-1.47-.672-1.343,0-2.114,1.652-2.122,1.669l-.911-.412c.042-.093,1.04-2.257,3.033-2.257,1.514,0,2.262,1.06,2.293,1.105Zm-.793,3.895c0,.552-.448,1-1,1s-1-.448-1-1,.448-1,1-1,1,.448,1,1Zm-9-1c.552,0,1,.448,1,1s-.448,1-1,1-1-.448-1-1,.448-1,1-1Z"/></svg>
