<?xml version="1.0" encoding="UTF-8"?>
<svg xmlns="http://www.w3.org/2000/svg" id="Layer_1" data-name="Layer 1" viewBox="0 0 24 24">
  <path d="m21.5,2H6.5c-1.378,0-2.5,1.121-2.5,2.5v13.5h20V4.5c0-1.379-1.122-2.5-2.5-2.5Zm-3.5,15h-8v-1.5c0-.827.673-1.5,1.5-1.5h5c.827,0,1.5.673,1.5,1.5v1.5Zm5,0h-4v-1.5c0-1.379-1.122-2.5-2.5-2.5h-5c-1.378,0-2.5,1.121-2.5,2.5v1.5h-4V4.5c0-.827.673-1.5,1.5-1.5h15c.827,0,1.5.673,1.5,1.5v12.5ZM1,21h19v1H0v-13.5c0-1.207.86-2.217,2-2.449v1.042c-.581.207-1,.757-1,1.408v12.5ZM14,5c-1.654,0-3,1.346-3,3s1.346,3,3,3,3-1.346,3-3-1.346-3-3-3Zm0,5c-1.103,0-2-.897-2-2s.897-2,2-2,2,.897,2,2-.897,2-2,2Z"/>
</svg>
