<?xml version="1.0" encoding="UTF-8"?>
<svg xmlns="http://www.w3.org/2000/svg" id="Layer_1" data-name="Layer 1" width="512" height="512" viewBox="0 0 24 24"><path d="M19.5,17c2.481,0,4.5-2.019,4.5-4.5V6h-5v1.5c0,.827-.673,1.5-1.5,1.5h-5.815c-.689,0-1.288-.467-1.455-1.136l-.863-3.455c-.502-2.007-2.298-3.409-4.366-3.409H0V12.5c0,2.481,2.019,4.5,4.5,4.5h1.5v5H0v1H20.5c1.93,0,3.5-1.57,3.5-3.5v-.5h-1v.5c0,1.378-1.121,2.5-2.5,2.5h-3.5v-5h2.5ZM1,12.5V2H5c1.609,0,3.006,1.09,3.396,2.651l.863,3.455c.279,1.115,1.276,1.894,2.426,1.894h5.815c1.379,0,2.5-1.122,2.5-2.5v-.5h3v5.5c0,1.93-1.57,3.5-3.5,3.5H4.5c-1.93,0-3.5-1.57-3.5-3.5Zm15,9.5H7v-5h9v5Z"/></svg>
