<?xml version="1.0" encoding="UTF-8"?>
<svg xmlns="http://www.w3.org/2000/svg" id="Layer_1" data-name="Layer 1" viewBox="0 0 24 24">
  <path d="m15,6h-7v-1h7v1Zm0,4h-7v1h7v-1Zm-10,4.5c-.552,0-1,.448-1,1s.448,1,1,1,1-.448,1-1-.448-1-1-1Zm0-10c-.552,0-1,.448-1,1s.448,1,1,1,1-.448,1-1-.448-1-1-1Zm0,5c-.552,0-1,.448-1,1s.448,1,1,1,1-.448,1-1-.448-1-1-1Zm19,7.05c0,3.433-5.5,6.929-5.734,7.075l-.266.168-.266-.168c-.234-.146-5.734-3.643-5.734-7.075,0-1.957,1.458-3.55,3.25-3.55,1.213,0,2.194.661,2.75,1.745.556-1.084,1.537-1.745,2.75-1.745,1.792,0,3.25,1.593,3.25,3.55Zm-1,0c0-1.406-1.009-2.55-2.25-2.55-1.346,0-2.25,1.206-2.25,3h-1c0-1.794-.904-3-2.25-3-1.241,0-2.25,1.144-2.25,2.55,0,2.258,3.389,4.983,5,6.057,1.611-1.073,5-3.799,5-6.057ZM1,23V2.5c0-.827.673-1.5,1.5-1.5h14c.827,0,1.5.673,1.5,1.5v9.105c.321-.166.657-.297,1-.395V2.5c0-1.379-1.122-2.5-2.5-2.5H2.5C1.122,0,0,1.121,0,2.5v21.5h14.814c-.372-.293-.769-.633-1.17-1H1Zm7-7h2.02c.016-.343.061-.675.131-1h-2.151v1Z"/>
</svg>
