<?xml version="1.0" encoding="UTF-8"?>
<svg xmlns="http://www.w3.org/2000/svg" id="Layer_1" data-name="Layer 1" viewBox="0 0 24 24" width="512" height="512"><path d="m20.496,8.481V3.504h-4.977L12-.015l-3.519,3.519H3.504v4.978L-.015,12l3.519,3.519v4.978h4.977l3.519,3.519,3.519-3.519h4.977v-4.978l3.519-3.519-3.519-3.519Zm-1,6.623v4.392h-4.391l-3.105,3.104-3.105-3.104h-4.391v-4.392l-3.105-3.104,3.105-3.104v-4.392h4.391l3.105-3.104,3.105,3.104h4.391v4.392l3.105,3.104-3.105,3.104Zm-6.496,1.896c0,.552-.448,1-1,1s-1-.448-1-1,.448-1,1-1,1,.448,1,1Zm1.953-7.539c.224,1.273-.381,2.547-1.506,3.168-.496.273-.947,1.107-.947,1.752v.619h-1v-.619c0-1.005.657-2.184,1.464-2.628.762-.42,1.156-1.252,1.003-2.119-.14-.802-.798-1.46-1.601-1.602-.604-.104-1.191.049-1.652.436-.454.381-.714.939-.714,1.532h-1c0-.889.391-1.727,1.071-2.298.681-.572,1.578-.81,2.468-.654,1.209.212,2.201,1.204,2.413,2.413Z"/></svg>
