<?xml version="1.0" encoding="UTF-8"?>
<svg xmlns="http://www.w3.org/2000/svg" id="Layer_1" data-name="Layer 1" viewBox="0 0 24 24">
  <path d="m18.947,6.407c-.42-3.602-3.484-6.407-7.197-6.407-3.585,0-6.562,2.617-7.141,6.039-2.572.203-4.609,2.337-4.609,4.961,0,1.795.959,3.418,2.522,4.307v1.241l1.044,1.019-1.245,1.245,1.25,1.25-1.25,1.25,2.679,2.678,2.5-2.501v-6.178c1.55-.896,2.5-2.521,2.5-4.311,0-2.045-1.237-3.802-3-4.576v1.132c1.19.694,2,1.97,2,3.444,0,1.513-.852,2.879-2.224,3.564l-.276.139v6.371l-1.5,1.501-1.265-1.264,1.25-1.25-1.25-1.25,1.255-1.255-1.468-1.431v-1.432l-.279-.138c-1.384-.679-2.243-2.042-2.243-3.557,0-2.038,1.537-3.706,3.51-3.95-.002.067-.01.133-.01.2v.903c-.294.174-.5.481-.5.847,0,.552.448,1,1,1s1-.448,1-1c0-.366-.206-.673-.5-.847v-.903c0-3.446,2.804-6.25,6.25-6.25,3.195,0,5.833,2.411,6.202,5.508l-4.952,4.952v12.54h11v-12.54l-5.053-5.053Zm4.053,16.593h-9v-11.126l4.5-4.5,4.5,4.5v11.126Z"/>
</svg>
