<?xml version="1.0" encoding="UTF-8"?>
<svg xmlns="http://www.w3.org/2000/svg" id="Layer_1" data-name="Layer 1" viewBox="0 0 24 24" width="512" height="512"><path d="m12,19h-1v-11h1v11Zm-.5,2c-.552,0-1,.448-1,1s.448,1,1,1,1-.448,1-1-.448-1-1-1Zm5.502-13.978c-1.132-3.019-4.003-5.022-7.252-5.022-4.273,0-7.75,3.477-7.75,7.75,0,.763.116,1.523.345,2.267-1.476,1.032-2.345,2.681-2.345,4.483,0,3.032,2.467,5.5,5.5,5.5h2.5v-1h-2.5c-2.481,0-4.5-2.019-4.5-4.5,0-1.582.822-3.021,2.2-3.847l.354-.212-.141-.388c-.273-.752-.412-1.527-.412-2.304,0-3.722,3.028-6.75,6.75-6.75,2.931,0,5.51,1.873,6.417,4.661l.11.339.355.007c3.511.071,6.368,2.984,6.368,6.493,0,3.584-2.916,6.5-6.5,6.5h-1.5v1h1.5c4.136,0,7.5-3.364,7.5-7.5,0-3.933-3.108-7.216-6.998-7.478Z"/></svg>
