<?xml version="1.0" encoding="UTF-8"?>
<svg xmlns="http://www.w3.org/2000/svg" id="Layer_1" data-name="Layer 1" viewBox="0 0 24 24" width="512" height="512"><path d="M19,20.5h-1v-2h1v2Zm3-5.5h2v6.5c0,1.379-1.121,2.5-2.5,2.5h-6c-1.379,0-2.5-1.121-2.5-2.5v-6.5h2v-1.5c0-1.93,1.57-3.5,3.5-3.5s3.5,1.57,3.5,3.5v1.5Zm-6,0h5v-1.5c0-1.379-1.121-2.5-2.5-2.5s-2.5,1.121-2.5,2.5v1.5Zm7,1H14v5.5c0,.827,.673,1.5,1.5,1.5h6c.827,0,1.5-.673,1.5-1.5v-5.5ZM3.5,23c-.827,0-1.5-.673-1.5-1.5v-3.5H11v-1H2v-5.338c.455,.217,.964,.338,1.5,.338h1c1.272,0,2.387-.682,3-1.699,.613,1.017,1.728,1.699,3,1.699h2.713c.1-.353,.234-.691,.4-1.011-.038,.002-3.113,.011-3.113,.011-1.379,0-2.5-1.121-2.5-2.5v-.5h-1v.5c0,1.379-1.121,2.5-2.5,2.5h-1c-1.354,0-2.46-1.082-2.499-2.427L3.367,1h3.633V5h1V1h8V5h1V1h3.633l2.366,7.573c-.014,.469-.163,.901-.401,1.271,.231,.259,.437,.539,.616,.837,.484-.6,.786-1.353,.786-2.182L21.367,0H2.633L0,8.5c0,.951,.382,1.815,1,2.447v10.553c0,1.379,1.121,2.5,2.5,2.5H11.762c-.206-.307-.359-.647-.485-1H3.5Z"/></svg>
