<?xml version="1.0" encoding="UTF-8"?>
<svg xmlns="http://www.w3.org/2000/svg" id="Layer_1" data-name="Layer 1" viewBox="0 0 24 24">
  <path d="m24,13c0-5.041-4.5-9.223-10.329-9.903.208-.315.329-.692.329-1.097,0-1.103-.897-2-2-2s-2,.897-2,2c0,.405.121.782.329,1.097C4.501,3.777,0,7.957,0,12.981c-.002.06-.043,1.466.801,2.342.342.355.771.571,1.278.646l1.123,5.991c.222,1.183,1.255,2.04,2.457,2.04h12.68c1.203,0,2.236-.858,2.457-2.04l1.124-5.991c.507-.075.936-.291,1.278-.646.845-.876.804-2.282.802-2.323ZM11,2c0-.552.449-1,1-1s1,.448,1,1-.449,1-1,1-1-.448-1-1Zm8.814,19.776c-.133.709-.753,1.224-1.475,1.224H5.66c-.721,0-1.341-.515-1.474-1.224l-1.083-5.776h1.07c.413,1.164,1.524,2,2.828,2,1.043,0,1.962-.535,2.5-1.344.538.809,1.457,1.344,2.5,1.344s1.962-.535,2.5-1.344c.538.809,1.457,1.344,2.5,1.344,1.304,0,2.415-.836,2.828-2h1.07l-1.083,5.776Zm2.661-7.145c-.24.248-.56.368-.976.368h-2.5c0,1.103-.897,2-2,2s-2-.897-2-2h-1c0,1.103-.897,2-2,2s-2-.897-2-2h-1c0,1.103-.897,2-2,2s-2-.897-2-2h-2.5c-.417,0-.736-.12-.976-.368-.55-.566-.525-1.604-.524-1.632,0-4.963,4.935-9,11-9s11,4.037,11,9.017c0,.011.025,1.049-.524,1.615Z"/>
</svg>
