<?xml version="1.0" encoding="UTF-8"?>
<svg xmlns="http://www.w3.org/2000/svg" id="Layer_1" data-name="Layer 1" viewBox="0 0 24 24">
  <path d="m24,2.5v15.5h-1V2.5c0-.827-.673-1.5-1.5-1.5H2.5c-.827,0-1.5.673-1.5,1.5v15.5H0V2.5C0,1.121,1.121,0,2.5,0h19c1.379,0,2.5,1.121,2.5,2.5Zm-6,14.774c1.241-1.41,2-3.253,2-5.274,0-4.411-3.589-8-8-8S4,7.589,4,12c0,2.021.759,3.864,2,5.274v-1.687c-.63-1.051-1-2.275-1-3.587,0-3.859,3.141-7,7-7s7,3.141,7,7c0,1.312-.369,2.536-1,3.587v1.687Zm6,5.676v1c-1.064-.154-1.974-.784-2.505-1.666-.612,1.023-1.719,1.717-2.995,1.717-1.356,0-2.522-.784-3.103-1.915-.705,1.144-1.958,1.915-3.397,1.915s-2.693-.771-3.397-1.915c-.581,1.131-1.746,1.915-3.103,1.915-1.276,0-2.383-.694-2.995-1.717-.531.883-1.441,1.512-2.505,1.666v-1c1.14-.232,2-1.242,2-2.449h1c0,1.379,1.121,2.5,2.5,2.5s2.5-1.121,2.5-2.5v-8.015l.146-.146c.054-.054,1.342-1.313,3.854-1.313s3.8,1.26,3.854,1.313l.146.146v8.015c0,1.379,1.121,2.5,2.5,2.5s2.5-1.121,2.5-2.5h1c0,1.208.86,2.217,2,2.449Zm-9-2.949v-7.077c-.354-.272-1.345-.897-3-.897s-2.645.623-3,.897v7.077c0,1.654,1.346,3,3,3s3-1.346,3-3Zm-5-1h1v-5h-1v5Zm3,1h1v-6h-1v6Z"/>
</svg>
