<?xml version="1.0" encoding="UTF-8"?>
<svg xmlns="http://www.w3.org/2000/svg" id="Layer_1" data-name="Layer 1" width="512" height="512" viewBox="0 0 24 24"><path d="M24,18.5V5.914c0-.395-.16-.781-.439-1.061L18.854,.146l-.707,.707,1.854,1.854v3.793c0,.827,.673,1.5,1.5,1.5h1.5v10.5c0,.827-.673,1.5-1.5,1.5h-.793l-5.707-5.707V2.5c0-1.379-1.121-2.5-2.5-2.5H2.5c-.494,0-.973,.147-1.378,.415L.738,.031,.031,.738,23.262,23.969l.707-.707-2.27-2.27c1.286-.102,2.302-1.179,2.302-2.491Zm-10-5.207l-3.293-3.293h3.293v3.293ZM2.5,1H12.5c.827,0,1.5,.673,1.5,1.5v6.5h-4.293L1.854,1.147c.2-.095,.42-.147,.646-.147ZM21.5,7c-.275,0-.5-.225-.5-.5V3.707l1.854,1.854c.093,.093,.146,.222,.146,.354v1.086h-1.5Zm-7.5,10.587l1,1v5.413H0V3.587l1,1v4.413H5.413l1,1H1v13H14v-5.413Z"/></svg>
