<?xml version="1.0" encoding="UTF-8"?>
<svg xmlns="http://www.w3.org/2000/svg" id="Layer_1" data-name="Layer 1" viewBox="0 0 24 24">
  <path d="m24,10.5c0-2.481-2.019-4.5-4.5-4.5h-2.5v-2.5c0-1.378-1.121-2.5-2.5-2.5H2.5C1.122,1,0,2.122,0,3.5v3.5h1v-3.5c0-.827.673-1.5,1.5-1.5h12c.827,0,1.5.673,1.5,1.5v14.5H1v-6H0v7h2.18c-.116.32-.18.656-.18,1,0,1.654,1.346,3,3,3s3-1.346,3-3c0-.344-.064-.68-.18-1h8.359c-.116.32-.18.655-.18,1,0,1.654,1.346,3,3,3s3-1.346,3-3c0-.345-.064-.68-.18-1h2.18v-8.5ZM7,20c0,1.103-.897,2-2,2s-2-.897-2-2c0-.354.119-.691.304-1h3.392c.185.309.304.646.304,1Zm12.5-13c1.93,0,3.5,1.57,3.5,3.5v1.5h-6v-5h2.5Zm1.5,13c0,1.103-.897,2-2,2s-2-.897-2-2c0-.355.119-.691.304-1h3.392c.185.309.304.645.304,1Zm-4-2v-5h6v5h-6Zm-7.257-8H0v-1h9.743l-3.371-3.372.707-.707,3.518,3.518c.585.585.585,1.536,0,2.121l-3.518,3.518-.707-.707,3.371-3.371Z"/>
</svg>
