<?xml version="1.0" encoding="UTF-8"?>
<svg xmlns="http://www.w3.org/2000/svg" id="Layer_1" data-name="Layer 1" viewBox="0 0 24 24" width="512" height="512"><path d="m18.5,15h-2.636c1.595-.884,2.854-2.297,3.547-4h1.59v-6h-1.589c-1.19-2.928-4.061-5-7.411-5s-6.221,2.072-7.411,5h-1.588v6h1.589c.692,1.703,1.952,3.116,3.547,4h-2.636c-1.93,0-3.5,1.57-3.5,3.5v5.5h1v-5.5c0-1.379,1.121-2.5,2.5-2.5h13c1.379,0,2.5,1.121,2.5,2.5v5.5h1v-5.5c0-1.93-1.57-3.5-3.5-3.5Zm-13.5-6.99v-.019c.005-3.855,3.143-6.99,7-6.99s7,3.141,7,7-3.141,7-7,7-6.994-3.135-7-6.99Zm13,12.49v3.5h-1v-3.5c0-.275-.225-.5-.5-.5H7.5c-.275,0-.5.225-.5.5v3.5h-1v-3.5c0-.827.673-1.5,1.5-1.5h9c.827,0,1.5.673,1.5,1.5Zm-2-14.5h-7.898c-1.031,0-1.602.887-1.602,1.5,0,3.032,2.468,5.5,5.5,5.5s5.5-2.468,5.5-5.5c0-.604-.477-1.5-1.5-1.5Zm-4,6c-2.481,0-4.5-2.019-4.5-4.5,0-.088.159-.5.602-.5h7.898c.455,0,.5.495.5.5,0,2.481-2.019,4.5-4.5,4.5Z"/></svg>
