<?xml version="1.0" encoding="UTF-8"?>
<svg xmlns="http://www.w3.org/2000/svg" id="Layer_1" data-name="Layer 1" viewBox="0 0 24 24">
  <path d="m10.899,8.115c-.159-.077-.327-.115-.494-.115-.194,0-.386.052-.561.155-.324.191-.557.534-.637.932l-1.387,6.887,1.013.005.4-1.979h2.36l.41,1.995.996.005-1.389-6.882c-.093-.459-.359-.834-.711-1.003Zm-1.463,4.885l.751-3.716c.024-.118.088-.223.163-.267.029-.017.048-.017.055-.017.017,0,.037.005.061.017.037.018.126.115.164.299l.758,3.684h-1.952Zm-5.436-5h3v1h-2v3h2v1h-2v3h-1v-8ZM21.5,3H2.5c-1.378,0-2.5,1.121-2.5,2.5v15.5h24V5.5c0-1.379-1.121-2.5-2.5-2.5Zm1.5,17H1V5.5c0-.827.673-1.5,1.5-1.5h19c.827,0,1.5.673,1.5,1.5v14.5Zm-9-12h1v8h-1v-8Zm4,7h2v1h-3v-8h1v7Z"/>
</svg>
