<?xml version="1.0" encoding="UTF-8"?>
<svg xmlns="http://www.w3.org/2000/svg" id="Layer_1" data-name="Layer 1" viewBox="0 0 24 24" width="512" height="512"><path d="M17.979,7.357l-2.679,2.143,2.679,2.143-.625,.781-3.654-2.924,3.654-2.924,.625,.781Zm5.021,14.643c-.552,0-1,.448-1,1s.448,1,1,1,1-.448,1-1-.448-1-1-1ZM3,19c-.552,0-1,.448-1,1s.448,1,1,1,1-.448,1-1-.448-1-1-1ZM12,0C5.383,0,0,5.383,0,12c0,1.984,.5,3.845,1.358,5.493,.273-.179,.58-.308,.905-.391-.805-1.525-1.263-3.26-1.263-5.102C1,5.935,5.935,1,12,1s11,4.935,11,11c0,3.72-1.861,7.008-4.695,9h1.606c2.501-2.201,4.089-5.415,4.089-9C24,5.383,18.617,0,12,0ZM6.646,12.424l3.654-2.924-3.654-2.924-.625,.781,2.679,2.143-2.679,2.143,.625,.781Zm11.854,10.576h.5v1H5v-1h.5c1.378,0,2.5-1.122,2.5-2.5v-5.245c-.998,.568-1.666,1.117-1.68,1.129l-.64-.769c.128-.106,3.175-2.616,6.32-2.616s6.192,2.509,6.32,2.616l-.64,.769c-.014-.011-.682-.561-1.68-1.129v5.245c0,1.378,1.122,2.5,2.5,2.5Zm-2.447,0c-.649-.636-1.053-1.521-1.053-2.5v-5.757c-.911-.414-1.962-.743-3-.743s-2.089,.329-3,.743v5.757c0,.979-.403,1.864-1.053,2.5h8.105Z"/></svg>
