<?xml version="1.0" encoding="UTF-8"?>
<svg xmlns="http://www.w3.org/2000/svg" id="Layer_1" data-name="Layer 1" viewBox="0 0 24 24">
  <path d="m9,12.535v6.465h-1v-7.464l1,1Zm8.5,10.465H6.5c-.827,0-1.5-.673-1.5-1.5v-12.964l-1-1v13.964c0,1.379,1.121,2.5,2.5,2.5h11c.808,0,1.52-.391,1.977-.988l-.713-.713c-.266.42-.732.701-1.264.701Zm-6-7.965v3.965h1v-2.965l-1-1Zm12.454,8.211l-.707.707L.046.754.753.047l3.953,3.953h2.293v-1.5c0-1.379,1.122-2.5,2.5-2.5h5c1.378,0,2.5,1.121,2.5,2.5v1.5h5v1h-2v14.293l3.954,3.953ZM8,4h8v-1.5c0-.827-.673-1.5-1.5-1.5h-5c-.827,0-1.5.673-1.5,1.5v1.5Zm-2.293,1l5.793,5.793v-1.793h1v2.793l2.5,2.5v-5.293h1v6.293l3,3V5H5.707Z"/>
</svg>
