<?xml version="1.0" encoding="UTF-8"?>
<svg xmlns="http://www.w3.org/2000/svg" id="Layer_1" data-name="Layer 1" viewBox="0 0 24 24">
  <path d="m23.672,19.552c-.488.907-1.4,1.448-2.439,1.448h-8.975l2.375,2.333-.701.714-2.486-2.443c-.285-.28-.443-.655-.445-1.055s.153-.776.437-1.059l2.492-2.486.707.708-2.293,2.288h8.89c.665,0,1.248-.345,1.56-.922.304-.565.272-1.225-.083-1.765l-1.726-2.807.852-.523,1.717,2.793c.554.838.602,1.881.12,2.776ZM13.248,2.798l4.905,7.128-3.311-.652-.193.981,3.583.706c.098.019.194.028.291.028.295,0,.583-.088.833-.257.332-.225.555-.565.629-.96l.676-3.625-.982-.184-.647,3.473-4.953-7.198c-.521-.789-1.413-1.264-2.35-1.239-.949.013-1.813.5-2.329,1.332l-1.34,2.508.883.471,1.323-2.48c.318-.512.87-.823,1.477-.832.597.002,1.169.287,1.507.798Zm-6.959,6.702l.658,3.526.982-.184-.675-3.618c-.073-.393-.296-.733-.627-.958-.332-.225-.73-.306-1.123-.229l-3.575.705.193.981,3.245-.64L.416,16.825c-.53.854-.557,1.885-.07,2.759.492.886,1.397,1.416,2.422,1.416h4.232v-1H2.768c-.655,0-1.234-.337-1.548-.901-.308-.552-.29-1.205.042-1.74l5.027-7.858Z"/>
</svg>
