<?xml version="1.0" encoding="UTF-8"?>
<svg xmlns="http://www.w3.org/2000/svg" id="Layer_1" data-name="Layer 1" viewBox="0 0 24 24" width="512" height="512"><path d="M20.206,3.09c.647-.537,1.794-1.688,1.794-3.09h-1c0,1.038-1.003,1.975-1.503,2.377-.582-.467-1.497-1.408-1.497-2.377h-1c0,1.355,1.071,2.475,1.727,3.034-2.332,.276-4.147,2.246-4.147,4.609,0,.021-.129,2.14-2.477,4.482-2.231,2.226-4.229,2.454-4.415,2.471-1.258,.006-2.438,.5-3.324,1.392-.745,.75-1.207,1.707-1.331,2.74-.559-.656-1.679-1.727-3.034-1.727v1c1.036,0,1.972,1,2.375,1.5-.403,.5-1.339,1.5-2.375,1.5v1c1.401,0,2.551-1.146,3.089-1.793,.427,2.158,2.34,3.793,4.623,3.793,.975-.004,6.091-.275,11.05-5.223,4.985-4.974,5.238-10.066,5.238-11.037,0-2.299-1.634-4.22-3.794-4.65Zm-2.151,14.979c-4.681,4.671-9.44,4.927-10.345,4.931-2.036,0-3.701-1.653-3.71-3.686-.004-.989,.377-1.92,1.074-2.623,.698-.703,1.628-1.092,2.664-1.099,.42-.035,2.64-.335,5.071-2.76,2.637-2.63,2.766-5.046,2.771-5.168,0-2.021,1.664-3.664,3.71-3.664s3.71,1.678,3.71,3.741c0,.901-.238,5.634-4.945,10.329Z"/></svg>
