<?xml version="1.0" encoding="UTF-8"?>
<svg xmlns="http://www.w3.org/2000/svg" id="Layer_1" data-name="Layer 1" viewBox="0 0 24 24" width="512" height="512"><path d="M22.369,11.487c-.513-.513-1.165-.8-1.826-.861,.706-1.086,.579-2.566-.361-3.525l-.01-.01c-.68-.665-1.612-.916-2.485-.759,.161-.882-.099-1.826-.779-2.506-.951-.95-2.413-1.079-3.504-.389-.041-.714-.331-1.374-.827-1.87C12.108,1.099,10.715-.004,10.715-.004l-.314,.315C5.831,4.881,4.425,9.742,3.294,14.736l-2.123,2.123c-1.56,1.559-1.56,4.097,0,5.657l.313,.313c.78,.78,1.804,1.169,2.829,1.169s2.048-.39,2.828-1.169l2.123-2.123c5.183-1.173,9.843-2.525,14.361-7.043l.314-.314s-1.102-1.393-1.57-1.861Zm-5.461-3.668c.709-.708,1.856-.71,2.568-.01,.338,.343,.523,.796,.523,1.278,0,.487-.17,.965-.534,1.289-2.62,2.332-5.608,4.318-6.395,4.817l-1.778-1.778,5.615-5.597h0Zm-3.285-3.285c.711-.71,1.867-.71,2.578,0,.71,.71,.711,1.864,.003,2.575l-5.619,5.6-1.799-1.799c.599-.934,2.886-4.425,4.837-6.376Zm-2.83-3.195c.33,.269,.811,.671,1.076,.936,.341,.34,.537,.824,.539,1.327,.002,.51-.186,.98-.529,1.323-1.621,1.891-3.193,4.294-3.817,5.261l-1.834-1.834c.991-2.406,2.387-4.753,4.565-7.013ZM6.434,22.122c-1.171,1.168-3.074,1.168-4.243,0l-.313-.313c-1.169-1.17-1.169-3.073,0-4.243l1.914-1.914,4.556,4.556-1.914,1.914Zm2.806-2.436l-4.926-4.926c.415-1.819,.873-3.619,1.519-5.39l8.807,8.808c-1.741,.629-3.536,1.082-5.4,1.508Zm6.422-1.9l-1.867-1.867c2.743-1.662,5.373-3.908,5.406-3.936,.704-.559,1.767-.481,2.461,.211,.265,.265,.667,.747,.936,1.076-2.244,2.163-4.541,3.536-6.936,4.515Z"/></svg>
