<?xml version="1.0" encoding="UTF-8"?>
<svg xmlns="http://www.w3.org/2000/svg" id="Layer_1" data-name="Layer 1" viewBox="0 0 24 24" width="512" height="512"><path d="M22,9h-3V2.5c0-1.379-1.122-2.5-2.5-2.5H7.5c-1.378,0-2.5,1.121-2.5,2.5v6.5H2v1h2.517c-.983,1.472-1.517,3.219-1.517,5,0,4.963,4.038,9,9,9s9-4.037,9-9c0-1.781-.534-3.528-1.517-5h2.517v-1ZM6,2.5c0-.827,.673-1.5,1.5-1.5h9c.827,0,1.5,.673,1.5,1.5v6.5H6V2.5Zm14,12.5c0,4.411-3.589,8-8,8s-8-3.589-8-8c0-1.84,.607-3.568,1.755-5h12.49c1.148,1.432,1.755,3.16,1.755,5Zm-13-2c0-.552,.448-1,1-1s1,.448,1,1-.448,1-1,1-1-.448-1-1Zm8,0c0-.552,.448-1,1-1s1,.448,1,1-.448,1-1,1-1-.448-1-1Zm-3,8.521l.436-.776c.261-.466,1.564-2.832,1.564-3.745,0-1.103-.897-2-2-2s-2,.897-2,2c0,.913,1.303,3.279,1.564,3.745l.436,.776Zm0-5.521c.551,0,1,.448,1,1,0,.34-.464,1.405-1,2.444-.536-1.039-1-2.104-1-2.444,0-.552,.449-1,1-1Z"/></svg>
