<?xml version="1.0" encoding="UTF-8"?>
<svg xmlns="http://www.w3.org/2000/svg" id="Layer_1" data-name="Layer 1" viewBox="0 0 24 24">
  <path d="m24,6.5c0-1.702-1.094-2.665-2.017-3.101-.098-1.04-.618-1.984-1.462-2.628-.94-.719-2.152-.949-3.326-.628-1.08.294-1.983,1.1-2.417,2.157-.13.315-.218.637-.262.956-.211,1.512-.758,2.733-1.654,3.662L.111,22.686l.777.629,1.871-2.314h6.672l1.568,3h1.118l-1.572-3.008c1.227-.045,2.409-.307,3.51-.748l1.944,3.756h1.118l-2.152-4.171c3.551-1.822,6.05-5.566,6.05-9.774v-3.055h2.984v-.5Zm-10.39,1.079c.137-.141.267-.29.39-.444v2.606c0,3.452-2.777,6.259-6.191,6.259-.319,0-.635-.025-.947-.074l6.749-8.348Zm6.406-.768v3.244c0,5.391-4.509,9.945-9.847,9.945H3.568l2.582-3.194c.54.129,1.097.194,1.658.194,3.965,0,7.191-3.257,7.191-7.259v-4.36c.237-.606.406-1.269.506-1.988.033-.236.099-.476.196-.714.312-.76.984-1.362,1.755-1.572.87-.238,1.765-.07,2.457.458.69.527,1.086,1.327,1.086,2.194,0,.572-.179,1.122-.517,1.59-.305.421-.467.926-.467,1.461Zm1.234-.811c.014-.021.028-.043.043-.063.312-.432.525-.916.63-1.425.428.28.886.744,1.031,1.489h-1.704Z"/>
</svg>
