<?xml version="1.0" encoding="UTF-8"?>
<svg xmlns="http://www.w3.org/2000/svg" id="Layer_1" data-name="Layer 1" viewBox="0 0 24 24" width="512" height="512"><path d="M22.947,9.222l-1.947-1.896V2.5c0-1.378-1.122-2.5-2.5-2.5H5.5c-1.378,0-2.5,1.122-2.5,2.5V7.328l-1.947,1.894c-.669,.655-1.053,1.567-1.053,2.503v12.275H24V11.724c0-.936-.383-1.848-1.053-2.502Zm-.698,.716c.044,.044,.087,.089,.128,.136l-1.376,1.376v-2.728l1.249,1.216ZM5.5,1h6V3h-1c-1.378,0-2.5,1.122-2.5,2.5,0,1.37,.981,2.521,2.334,2.739l3.173,.51c.865,.139,1.493,.875,1.493,1.751,0,.827-.673,1.5-1.5,1.5h-3c-.827,0-1.5-.673-1.5-1.5v-.5h-1v.5c0,1.378,1.122,2.5,2.5,2.5h1v2h1v-2h1c1.378,0,2.5-1.122,2.5-2.5,0-1.37-.981-2.521-2.334-2.739l-3.173-.51c-.865-.139-1.493-.875-1.493-1.751,0-.827,.673-1.5,1.5-1.5h3c.827,0,1.5,.673,1.5,1.5v.5h1v-.5c0-1.378-1.122-2.5-2.5-2.5h-1V1h6c.827,0,1.5,.673,1.5,1.5V12.45l-5.525,5.526c-1.365,1.364-3.586,1.364-4.95,0l-5.525-5.526V2.5c0-.827,.673-1.5,1.5-1.5Zm-2.5,7.723v2.726l-1.376-1.376c.041-.047,.083-.092,.127-.135l1.249-1.215Zm20,14.277H1V11.725c0-.254,.04-.506,.115-.746l7.702,7.703c.877,.877,2.03,1.315,3.182,1.315s2.305-.438,3.182-1.315l7.703-7.704c.075,.24,.115,.491,.115,.746v11.276Z"/></svg>
