<?xml version="1.0" encoding="UTF-8"?>
<svg xmlns="http://www.w3.org/2000/svg" id="Layer_1" data-name="Layer 1" viewBox="0 0 24 24" width="512" height="512"><path d="M10,12.002l-8.656,.384,4.751,4.751L.02,23.273l.711,.703,6.071-6.132,4.745,4.745,.384-8.654c.028-.52-.168-1.03-.536-1.398-.37-.369-.883-.566-1.395-.536Zm.933,1.882l-.284,6.393L3.656,13.285l6.394-.284c.236-.011,.467,.074,.638,.244,.171,.171,.258,.398,.245,.639ZM23.976,.731L23.269,.024l-6.134,6.134L12.387,1.41l-.384,8.652c-.028,.521,.167,1.031,.536,1.4,.345,.345,.813,.538,1.3,.538,.032,0,.064,0,.097-.002l8.654-.384-4.748-4.748L23.976,.731ZM13.889,10.999h-.005c-.239,.003-.468-.074-.638-.244-.171-.171-.258-.397-.245-.644l.284-6.388,6.992,6.992-6.389,.284Z"/></svg>
