<?xml version="1.0" encoding="UTF-8"?>
<svg xmlns="http://www.w3.org/2000/svg" id="Layer_1" data-name="Layer 1" viewBox="0 0 24 24" width="512" height="512"><path d="m19.318,14.48c2.985-2.946,4.357-6.642,4.419-6.809l.268-.731-.777.062c-.163.013-3.873.328-7.793,2.223-.861-4.63-2.905-8.396-2.996-8.561l-.438-.799-.438.799c-.089.162-2.092,3.847-2.971,8.409C4.645,7.241.935,7.01.771,7.001l-.748-.043.248.708c.058.165,1.358,3.807,4.312,6.71-2.318.667-3.795,1.664-3.864,1.711l-.634.433.652.405c.114.071,2.688,1.648,6.294,2.088-.665,1.515-.839,2.757-.847,2.816l-.093.685.679-.125c.118-.022,2.678-.514,4.73-2.412v4.024h1v-3.997c2.046,1.876,4.583,2.363,4.701,2.385l.679.125-.093-.684c-.007-.057-.173-1.238-.797-2.7,3.588-.464,6.169-2.136,6.284-2.211l.665-.437-.682-.41c-.071-.042-1.595-.949-3.939-1.591Zm-3.114,3.727l-.738.059.331.663c.438.879.697,1.709.841,2.278-.976-.308-2.712-1.025-4.003-2.491-.046-.053-.091-.107-.135-.161v-4.554h-1v4.517c-.053.067-.107.134-.163.198-1.286,1.46-3.026,2.18-4.004,2.49.15-.594.426-1.471.898-2.39l.346-.671-.753-.057c-2.579-.194-4.72-1.076-5.801-1.606.759-.403,2.056-.996,3.682-1.361l.967-.217-.749-.648c-2.397-2.075-3.82-4.856-4.402-6.171,1.377.178,4.312.706,7.222,2.172l.607.307.11-.671c.56-3.39,1.856-6.432,2.54-7.87.692,1.461,2.019,4.577,2.562,8.031l.108.689.618-.324c2.872-1.506,5.789-2.1,7.181-2.312-.611,1.344-2.086,4.159-4.497,6.261l-.748.652.969.213c1.643.362,2.971.912,3.759,1.287-1.083.561-3.207,1.485-5.748,1.688Z"/></svg>
