<?xml version="1.0" encoding="UTF-8"?>
<svg xmlns="http://www.w3.org/2000/svg" id="Layer_1" data-name="Layer 1" viewBox="0 0 24 24" width="512" height="512"><path d="M1.755,13.77l4.271-4.253,.705,.709L2.461,14.478c-1.95,1.95-1.95,5.123,0,7.072,1.944,1.945,5.109,1.947,7.056,0l.003,.003,1.595-1.595c.288,.031,.579,.05,.873,.05,.173,0,.344-.014,.515-.025l-2.278,2.278c-.012,.012-.028,.016-.041,.027-1.163,1.144-2.679,1.721-4.197,1.721-1.534,0-3.067-.584-4.235-1.751-2.34-2.34-2.34-6.146,0-8.487Zm10.234,4.233c.718,0,1.434-.14,2.115-.397l-.8-.801c-1.672,.456-3.532,.049-4.842-1.261h0c-.791-.791-1.242-1.785-1.39-2.815l-.838,.838c.263,.982,.753,1.915,1.522,2.684h.001c1.168,1.167,2.7,1.751,4.234,1.751ZM.062,.763L23.242,23.944l.707-.707-7.355-7.355,5.657-5.641c2.34-2.34,2.34-6.147,0-8.487-2.324-2.323-6.094-2.332-8.434-.029-.012,.01-.027,.014-.039,.026l-2.278,2.278c.171-.011,.342-.025,.515-.025,.294,0,.585,.019,.873,.05l1.595-1.595,.003,.003c1.945-1.944,5.11-1.943,7.056,0,1.95,1.95,1.95,5.123,0,7.072l-5.658,5.641-7.018-7.018c1.958-1.605,4.848-1.515,6.675,.31h0c.791,.791,1.243,1.785,1.39,2.815l.838-.838c-.263-.982-.753-1.915-1.522-2.684h0c-2.217-2.217-5.737-2.303-8.089-.31L.769,.056,.062,.763Z"/></svg>
