<?xml version="1.0" encoding="UTF-8"?>
<svg xmlns="http://www.w3.org/2000/svg" id="Layer_1" data-name="Layer 1" viewBox="0 0 24 24" width="512" height="512"><path d="M9,10c0,.552-.448,1-1,1s-1-.448-1-1,.448-1,1-1,1,.448,1,1Zm7-1c-.552,0-1,.448-1,1s.448,1,1,1,1-.448,1-1-.448-1-1-1Zm-1,7v1c0,1.654-1.346,3-3,3s-3-1.346-3-3v-1c0-1.654,1.346-3,3-3s3,1.346,3,3Zm-1,0c0-1.103-.897-2-2-2s-2,.897-2,2v1c0,1.103,.897,2,2,2s2-.897,2-2v-1Zm10-4c0,6.617-5.383,12-12,12S0,18.617,0,12,5.383,0,12,0s12,5.383,12,12Zm-1,0c0-6.065-4.935-11-11-11S1,5.935,1,12s4.935,11,11,11,11-4.935,11-11ZM8.549,5.04c-1.752,.747-3.182,1.935-4.132,3.435l.845,.535c.841-1.327,2.114-2.382,3.68-3.05l-.393-.92Zm6.896,0l-.392,.92c1.579,.673,2.877,1.73,3.755,3.058l.834-.551c-.987-1.492-2.438-2.677-4.198-3.427Z"/></svg>
