<?xml version="1.0" encoding="UTF-8"?>
<svg xmlns="http://www.w3.org/2000/svg" id="Layer_1" data-name="Layer 1" viewBox="0 0 24 24" width="512" height="512"><path d="M7.707,8.293c.391,.391,.391,1.024,0,1.414-.391,.391-1.024,.391-1.414,0-.391-.391-.391-1.024,0-1.414,.391-.391,1.024-.391,1.414,0Zm14.608,5.198l-.427,.441c.236,.815,.034,1.73-.607,2.371l-6.766,6.987c-.46,.46-1.063,.71-1.705,.71s-1.245-.25-1.699-.704L1.03,13.215,2.041,4.07l9.153-1.252,10.087,10.086c.036,.036,.07,.073,.103,.11l.219-.226c.27-.269,.415-.622,.415-.998s-.146-.729-.409-.992L11.873,1.063,3.597,2.195l-.135-.991L12.229,.005l10.087,10.086c.938,.937,.938,2.462,0,3.399Zm-1.741,.121L10.839,3.876l-7.89,1.079-.872,7.893,9.741,9.741c.529,.53,1.455,.53,1.984,0l6.766-6.987c.553-.553,.553-1.443,.006-1.99Z"/></svg>
