<?xml version="1.0" encoding="UTF-8"?>
<svg xmlns="http://www.w3.org/2000/svg" id="Layer_1" data-name="Layer 1" viewBox="0 0 24 24">
  <path d="m13,17c0,.552-.448,1-1,1s-1-.448-1-1,.448-1,1-1,1,.448,1,1Zm11-3.855v.855h-.5c-3.441,0-3.499,3.358-3.5,3.501,0,4.19-2.131,6.499-6,6.499h-4c-3.869,0-6-2.309-6-6.5,0-.142-.059-3.5-3.5-3.5h-.5v-.855c.565-1.131,2.039-2.516,4-2.969v-5.176c0-1.654,1.346-3,3-3,.781,0,1.486.307,2.021.797.107-1.558,1.395-2.797,2.979-2.797s2.873,1.239,2.979,2.797c.534-.49,1.24-.797,2.021-.797,1.654,0,3,1.346,3,3v5.176c1.961.453,3.435,1.838,4,2.969Zm-1.219-.102c-.62-.854-1.805-1.708-3.362-1.963l-.419-.069v-6.011c0-1.103-.897-2-2-2s-2,.897-2,2v6h-1V3c0-1.103-.897-2-2-2s-2,.897-2,2v8h-1v-6c0-1.103-.897-2-2-2s-2,.897-2,2v6.011l-.419.069c-1.558.254-2.742,1.108-3.362,1.963,2.97.368,3.781,3.011,3.781,4.457,0,3.649,1.683,5.5,5,5.5h4c3.317,0,5-1.851,5-5.5,0-1.446.812-4.089,3.781-4.457Zm-6.014,3.708l.143.249-.143.249c-.586,1.021-2.249,2.751-4.768,2.751s-4.184-1.729-4.768-2.752l-.143-.248.143-.249c.586-1.021,2.249-2.751,4.768-2.751s4.182,1.729,4.768,2.751Zm-1.03.249c-.421-.588-1.648-2-3.737-2s-3.321,1.417-3.739,2.003c.567.805,1.878,1.997,3.739,1.997,2.089,0,3.316-1.412,3.737-2Z"/>
</svg>
