<?xml version="1.0" encoding="UTF-8"?>
<svg xmlns="http://www.w3.org/2000/svg" id="Layer_1" data-name="Layer 1" viewBox="0 0 24 24">
  <path d="m24,6.75c0-3.332-2.418-5.75-5.75-5.75-2.417,0-4.352,1.272-5.233,3.242C12.019,1.758,9.586,0,6.75,0,3.028,0,0,3.028,0,6.75c0,4.051,2.29,8.531,5.67,9.171-.308.575-.67,1.396-.67,2.079,0,1.356,1.214,1.938,2.284,2.451,1.067.512,1.716.872,1.716,1.549,0,.213-.157.724-.602,1.464l.857.515c.34-.566.744-1.368.744-1.979,0-1.356-1.214-1.938-2.284-2.451-1.067-.512-1.716-.872-1.716-1.549,0-.592.482-1.515.782-2.01,2.804-.177,5.174-2.976,6.189-6.087.755,2.457,2.339,4.374,4.183,4.931-.485.73-1.154,1.879-1.154,2.665,0,1.324,1.19,2.043,2.241,2.678.904.546,1.759,1.062,1.759,1.822,0,.213-.157.724-.602,1.464l.857.515c.34-.566.744-1.368.744-1.979,0-1.324-1.19-2.043-2.241-2.678-.904-.546-1.759-1.062-1.759-1.822,0-.527.691-1.71,1.254-2.5,3.062-.004,5.746-3.857,5.746-8.25ZM6.5,15c-3.147,0-5.5-4.355-5.5-8.25C1,3.58,3.579,1,6.75,1s5.75,2.58,5.75,5.75c0,4.086-3.028,8.25-6,8.25Zm7-8.25c0-2.797,1.953-4.75,4.75-4.75s4.75,1.953,4.75,4.75c0,3.794-2.264,7.25-4.75,7.25s-4.75-3.456-4.75-7.25Zm6.447,3.515l-.848-.53c.374-.598.9-1.841.9-2.735h1c0,1.161-.63,2.589-1.053,3.265Zm-10.947-3.265h1c0,1.161-.63,2.589-1.053,3.265l-.848-.53c.374-.598.9-1.841.9-2.735Z"/>
</svg>
