<?xml version="1.0" encoding="UTF-8"?>
<svg xmlns="http://www.w3.org/2000/svg" id="Layer_1" data-name="Layer 1" viewBox="0 0 24 24">
  <path d="m4.439,3.689l3.231,18.311h16.304l-3.131-17.74c-.231-1.31-1.364-2.26-2.693-2.26H5.824c-1.33,0-2.462.95-2.693,2.26L0,22h5.5l-.167-1H1.192L4.115,4.434c.049-.278.163-.531.324-.745Zm1.385-.689h12.326c.844,0,1.562.603,1.709,1.434l2.923,16.566h-14.273L5.345,3.067c.153-.043.313-.067.479-.067Zm3.223,5l-.177-1h8.391l.176,1h-8.391Zm.529,3h8.391l.176,1h-8.391l-.177-1Zm.706,4h8.391l.176,1h-8.391l-.177-1Z"/>
</svg>
