<?xml version="1.0" encoding="UTF-8"?>
<svg xmlns="http://www.w3.org/2000/svg" id="Layer_1" data-name="Layer 1" viewBox="0 0 24 24">
  <path d="m23.993,22.92l-2.728-16.82c-.197-1.217-1.235-2.1-2.468-2.1h-4.81c.317-.419.512-.935.512-1.5,0-1.379-1.121-2.5-2.5-2.5s-2.5,1.121-2.5,2.5c0,.565.195,1.081.513,1.5h-4.811c-1.232,0-2.27.883-2.468,2.1L0,23v1h24l-.007-1.08ZM10.5,2.5c0-.827.673-1.5,1.5-1.5s1.5.673,1.5,1.5-.673,1.5-1.5,1.5-1.5-.673-1.5-1.5ZM1.006,23L3.721,6.26c.119-.729.741-1.26,1.48-1.26h13.596c.739,0,1.362.53,1.481,1.26l2.721,16.74H1.006Zm14.994-11.505v.505h-1v-.505c0-.824-.671-1.495-1.495-1.495h-3.01c-.824,0-1.495.671-1.495,1.495,0,.664.446,1.255,1.084,1.438l4.106,1.174c1.065.304,1.81,1.29,1.81,2.398,0,1.376-1.119,2.495-2.495,2.495h-1.005v2h-1v-2h-1.005c-1.376,0-2.495-1.119-2.495-2.495v-.505h1v.505c0,.824.671,1.495,1.495,1.495h3.01c.824,0,1.495-.671,1.495-1.495,0-.664-.446-1.255-1.084-1.438l-4.106-1.174c-1.065-.304-1.81-1.29-1.81-2.398,0-1.376,1.119-2.495,2.495-2.495h1.005v-2h1v2h1.005c1.376,0,2.495,1.119,2.495,2.495Z"/>
</svg>
