<?xml version="1.0" encoding="UTF-8"?>
<svg xmlns="http://www.w3.org/2000/svg" id="Layer_1" data-name="Layer 1" viewBox="0 0 24 24">
  <path d="m21.657,2.343c-3.119-3.119-8.194-3.119-11.314,0-3.359,3.359-3.345,13.526-3.342,13.949l-2.466,2.466c-.244-1.007-1.153-1.758-2.235-1.758-1.268,0-2.3,1.032-2.3,2.3,0,1.303,1.096,2.361,2.402,2.298-.001.034-.002.068-.002.103,0,1.268,1.032,2.3,2.3,2.3s2.3-1.032,2.3-2.3c0-1.081-.761-1.983-1.762-2.231l2.47-2.47c.937,0,10.689-.081,13.949-3.342,3.119-3.119,3.119-8.194,0-11.313ZM2.8,20.493c-.869.371-1.8-.308-1.8-1.193,0-.717.583-1.3,1.3-1.3s1.3.583,1.3,1.3c0,.167-.036.335-.107.5l-.693.693Zm3.2,1.208c0,.717-.583,1.3-1.3,1.3s-1.3-.583-1.3-1.3c0-.167.036-.335.107-.5l.692-.692c.872-.369,1.802.307,1.801,1.192Zm14.95-8.75c-2.819,2.819-11.4,3.033-12.836,3.049l-.113-.114c.016-1.43.227-10.013,3.049-12.835,2.729-2.729,7.169-2.729,9.9,0,2.729,2.729,2.729,7.17,0,9.899Z"/>
</svg>
