<?xml version="1.0" encoding="UTF-8"?>
<svg xmlns="http://www.w3.org/2000/svg" id="Layer_1" data-name="Layer 1" width="512" height="512" viewBox="0 0 24 24"><path d="M21.5,1h2.5V0h-2.5c-1.379,0-2.5,1.122-2.5,2.5v14.632l-3.894,1.21-3.125-9.831L.079,12.296l2.978,9.79L.044,23.022l.297,.955,17.201-5.345c-.343,.541-.542,1.182-.542,1.868,0,1.93,1.57,3.5,3.5,3.5s3.5-1.57,3.5-3.5-1.57-3.5-3.5-3.5c-.17,0-.337,.012-.5,.036V2.5c0-.827,.673-1.5,1.5-1.5ZM1.323,12.95l10.007-3.183,2.82,8.872-10.139,3.151L1.323,12.95Zm21.677,7.55c0,1.378-1.121,2.5-2.5,2.5s-2.5-1.122-2.5-2.5,1.121-2.5,2.5-2.5,2.5,1.122,2.5,2.5Zm-14.144-7.175l.303,.953-3.623,1.153-.303-.953,3.623-1.153Z"/></svg>
