<?xml version="1.0" encoding="UTF-8"?>
<svg xmlns="http://www.w3.org/2000/svg" id="Layer_1" data-name="Layer 1" viewBox="0 0 24 24" width="512" height="512"><path d="m9.873,4.296c-.173-.283-.288-.602-.337-.945.784-.224,1.609-.352,2.464-.352s1.68.128,2.464.352c-.049.342-.164.661-.337.945-.679-.188-1.39-.296-2.127-.296s-1.449.108-2.127.296Zm-3.269,13.593c-1.117-1.024-1.939-2.358-2.335-3.866-.333.036-.653.134-.952.309.445,1.656,1.349,3.121,2.57,4.255.286-.186.531-.421.716-.698Zm10.792,0c.186.277.43.512.716.698,1.221-1.134,2.125-2.6,2.57-4.255-.299-.175-.618-.273-.952-.309-.395,1.509-1.218,2.842-2.335,3.866Zm-3.396-5.889c0,1.103-.897,2-2,2s-2-.897-2-2,.897-2,2-2,2,.897,2,2Zm-1,0c0-.551-.449-1-1-1s-1,.449-1,1,.449,1,1,1,1-.449,1-1Zm11.05-.806l-1.304,2.196-.45-.366c-.824-.67-1.8-1.024-2.822-1.024-2.481,0-4.5,2.019-4.5,4.5,0,1.829,1.095,3.461,2.79,4.159l.535.22-1.267,2.135-.339-.059c-.896-.154-1.723-.448-2.458-.873-.816-.472-1.58-1.113-2.235-1.875-.655.761-1.418,1.403-2.235,1.875-.734.425-1.562.719-2.458.873l-.339.059-1.267-2.135.535-.22c1.695-.697,2.79-2.33,2.79-4.159,0-2.481-2.019-4.5-4.5-4.5-1.022,0-1.999.354-2.822,1.024l-.45.366L-.05,11.194l.214-.27c.599-.756,1.304-1.371,2.094-1.828.863-.499,1.864-.846,2.929-1.018-.434-1.064-.661-2.178-.661-3.259,0-.978.2-1.95.594-2.888l.494-.919h2.318l-.204.649c-.155.496-.228.921-.228,1.338,0,2.481,2.019,4.5,4.5,4.5s4.5-2.019,4.5-4.5c0-.417-.072-.842-.228-1.338l-.204-.649h2.318l.473.875c.415.982.615,1.955.615,2.933,0,1.081-.227,2.195-.661,3.259,1.064.172,2.066.519,2.929,1.018.79.457,1.495,1.072,2.094,1.828l.214.27Zm-1.216.089c-.47-.538-1.004-.981-1.592-1.32-.922-.533-2.031-.87-3.207-.974l-.729-.064.326-.656c.552-1.112.843-2.305.843-3.449,0-.845-.173-1.686-.516-2.501l-.167-.306h-.396c.07.342.104.669.104.987,0,3.033-2.467,5.5-5.5,5.5s-5.5-2.467-5.5-5.5c0-.318.034-.645.104-.987h-.395l-.189.351c-.321.771-.495,1.612-.495,2.457,0,1.144.292,2.337.843,3.449l.326.656-.729.064c-1.176.104-2.285.44-3.207.974-.587.339-1.122.783-1.592,1.32l.37.624c.9-.595,1.922-.907,2.989-.907,3.033,0,5.5,2.467,5.5,5.5,0,2.043-1.117,3.885-2.89,4.838l.336.566c.65-.144,1.251-.375,1.792-.687.874-.505,1.681-1.233,2.336-2.107l.4-.534.4.534c.655.874,1.462,1.602,2.335,2.106.541.313,1.143.543,1.792.688l.336-.566c-1.772-.953-2.89-2.795-2.89-4.838,0-3.033,2.467-5.5,5.5-5.5,1.067,0,2.089.312,2.989.907l.37-.624Z"/></svg>
