<?xml version="1.0" encoding="UTF-8"?>
<svg xmlns="http://www.w3.org/2000/svg" id="Layer_1" data-name="Layer 1" viewBox="0 0 24 24">
  <path d="m23.732,16.908c-.384.684-1.089,1.092-1.887,1.092h-1.618l-.66-1h2.278c.431,0,.811-.218,1.015-.581.194-.346.187-.738-.02-1.077L14,1.958l-2.184,3.306-.599-.907L14,.144l9.685,14.663c.404.662.418,1.442.048,2.102Zm-4.048,3.898c.404.662.418,1.442.048,2.102-.384.684-1.089,1.092-1.887,1.092H2.155c-.798,0-1.503-.408-1.887-1.092-.371-.659-.356-1.439.038-2.086L10,6.144l9.685,14.663Zm-6.651,2.193l-3.034-4.593-3.034,4.593h6.067Zm5.807-1.658L10,7.958,1.155,21.35c-.203.337-.208.727-.016,1.069.205.363.584.581,1.015.581h3.613l4.232-6.407,4.232,6.407h3.613c.431,0,.811-.218,1.015-.581.194-.346.187-.738-.02-1.077Z"/>
</svg>
