<?xml version="1.0" encoding="UTF-8"?>
<svg xmlns="http://www.w3.org/2000/svg" id="Layer_1" data-name="Layer 1" viewBox="0 0 24 24">
  <path d="m23.659,8.723c.003-.074-.531-3.223-1.757-5.02l-.806.593c.014.019,1.013,1.429,1.558,4.508-.135,2.113-1.667,4.196-4.154,4.196h-3.936c-.368-1.106-.955-1.947-1.716-2.453,1.278-.668,2.152-2.007,2.152-3.547v-.667c0-1.258-.369-2.431-1.004-3.418.584-.205,1.004-.761,1.004-1.416,0-.828-.672-1.5-1.5-1.5-.654,0-1.211.419-1.416,1.003-.987-.635-2.16-1.003-3.417-1.003h-2.334c-1.258,0-2.431.369-3.417,1.003-.205-.584-.761-1.003-1.416-1.003C.672,0,0,.672,0,1.5c0,.654.419,1.211,1.004,1.416-.635.987-1.004,2.16-1.004,3.418v.667c0,1.012.378,1.938,1,2.643v5.857c0,4.687,3.813,8.5,8.5,8.5h7c.827,0,1.5-.675,1.5-1.504,0-1.755,0-3.024.639-4.25.146-.279.116-.609-.076-.863-.193-.253-.501-.372-.814-.302-1.427.312-2.504,1.5-2.712,2.919h-3.036v1h4v-.5c0-1.024.637-1.942,1.562-2.318-.562,1.314-.562,2.656-.562,4.314,0,.278-.225.504-.5.504h-7c-3.919,0-7.146-3.022-7.472-6.858,1.177,1.789,3.294,2.858,5.972,2.858v-1c-3.645,0-6-2.159-6-5.5v-2.037c.589.341,1.272.537,2,.537,1.504,0,2.817-.834,3.5-2.065.683,1.23,1.996,2.065,3.5,2.065,2.214,0,3,2.693,3,5h1c0-.72-.061-1.389-.178-2h3.678c2.073,0,3.611-1.15,4.448-2.689.033.531.052,1.093.052,1.689v.5c0,2.721-1.16,5.167-3,6.899v1.32c2.431-1.923,4-4.887,4-8.22v-.5c0-1.664-.137-3.084-.341-4.277Zm-15.492-.737c.473-.08.833-.491.833-.986,0-.552-.448-1-1-1h-1c-.552,0-1,.448-1,1,0,.495.36.906.833.986-.409,1.171-1.524,2.014-2.833,2.014-1.654,0-3-1.346-3-3v-.667C1,3.393,3.393,1,6.333,1h2.334c2.94,0,5.333,2.393,5.333,5.333v.667c0,1.654-1.346,3-3,3-1.309,0-2.424-.843-2.833-2.014Zm-3.167-1.986c0,.552-.448,1-1,1s-1-.448-1-1,.448-1,1-1,1,.448,1,1Zm7,0c0,.552-.448,1-1,1s-1-.448-1-1,.448-1,1-1,1,.448,1,1Z"/>
</svg>
