<?xml version="1.0" encoding="UTF-8"?>
<svg xmlns="http://www.w3.org/2000/svg" id="Layer_1" data-name="Layer 1" viewBox="0 0 24 24" width="512" height="512"><path d="M12,0C5.383,0,0,5.383,0,12v12H8v-7c0-2.206,1.794-4,4-4s4,1.794,4,4v7h8V12C24,5.383,18.617,0,12,0Zm11,16h-6V8h5.247c.486,1.24,.753,2.59,.753,4v4Zm-1.203-9H12.5V1.012c4.054,.182,7.544,2.569,9.297,5.988ZM11.5,1.012V7H2.203C3.956,3.581,7.446,1.194,11.5,1.012ZM1.753,8H7v8H1v-4c0-1.41,.267-2.76,.753-4Zm5.247,15H1v-6H7v6Zm5-11c-1.634,0-3.087,.788-4,2.003v-6.003h8v6.003c-.913-1.216-2.366-2.003-4-2.003Zm5,11v-6h6v6h-6Z"/></svg>
