<?xml version="1.0" encoding="UTF-8"?>
<svg xmlns="http://www.w3.org/2000/svg" id="Layer_1" data-name="Layer 1" viewBox="0 0 24 24" width="512" height="512"><path d="M23,13c0-5.898-4.666-10.726-10.5-10.988V0h-1V2.012C5.666,2.274,1,7.102,1,13c0,3.053,1.251,5.82,3.267,7.815l-2.137,2.348,.74,.674,2.139-2.35c1.902,1.57,4.338,2.513,6.991,2.513s5.089-.944,6.991-2.513l2.139,2.35,.74-.674-2.137-2.348c2.016-1.995,3.267-4.761,3.267-7.815Zm-21,0C2,7.486,6.486,3,12,3s10,4.486,10,10-4.486,10-10,10S2,18.514,2,13ZM18.797,1.333l.504-.863c1.646,.961,3.068,2.217,4.228,3.734l-.795,.607c-1.08-1.413-2.404-2.584-3.937-3.479ZM1.249,4.835l-.797-.605C1.611,2.705,3.038,1.44,4.69,.474l.506,.863c-1.54,.9-2.868,2.077-3.947,3.498Zm11.251,11.165h-1V7h1v9Zm.5,3c0,.552-.448,1-1,1s-1-.448-1-1,.448-1,1-1,1,.448,1,1Z"/></svg>
