<?xml version="1.0" encoding="UTF-8"?>
<svg xmlns="http://www.w3.org/2000/svg" id="Layer_1" data-name="Layer 1" viewBox="0 0 24 24">
  <path d="m18.053,14.29l2.101-2.977-.305-.298c-.035-.035-.743-.706-2.086-1.364.151-.525.236-1.078.236-1.651v-1h2v-1h-2c0-1.385-1.536-6-3.25-6-1.084,0-2.102.832-2.75,1.449-.648-.617-1.666-1.449-2.75-1.449-1.714,0-3.25,4.615-3.25,6h-2v1h2v1c0,.614.094,1.206.266,1.765-1.363.663-2.08,1.343-2.115,1.378l-.307.299,2.05,2.871c-1.702.654-2.894,2.292-2.894,4.188v5.5h1v-5.5c0-1.564,1.04-2.912,2.494-3.348l5.006,7.009v1.839h1v-1.842l4.953-7.017c1.481.419,2.547,1.777,2.547,3.359v5.5h1v-5.5c0-1.915-1.216-3.571-2.947-4.21ZM9.25,1c.896,0,1.909,1.016,2.396,1.504l.354.354.354-.354c.487-.488,1.501-1.504,2.396-1.504.61.003,2.25,3.376,2.25,5H7c0-1.624,1.64-4.997,2.25-5Zm-2.25,6h10v1c0,2.761-2.239,5-5,5s-5-2.239-5-5v-1Zm4.5,13.439l-6.324-8.852c.294-.225.792-.56,1.469-.895.64,1.269,1.713,2.283,3.029,2.839l1.826,4.566v2.343Zm.5-3.786l-1.104-2.76c.358.067.727.106,1.104.106s.746-.039,1.104-.106l-1.104,2.76Zm.5,3.772v-2.328l1.826-4.566c1.351-.57,2.445-1.625,3.078-2.941.652.327,1.136.652,1.422.87l-6.326,8.965Z"/>
</svg>
