<?xml version="1.0" encoding="UTF-8"?>
<svg xmlns="http://www.w3.org/2000/svg" id="Layer_1" data-name="Layer 1" viewBox="0 0 24 24" width="512" height="512"><path d="M23,7.26v12.04l-5-5-4,4L5,9.29,1,13.29V2.5c0-.83,.67-1.5,1.5-1.5h14.28l.5-1H2.5C1.12,0,0,1.12,0,2.5V24H24V6.76l-1,.5Zm0,15.74H1V14.71l4-4,9,9,4-4,5,5v2.29ZM18,6.02l1.5,3,1.5-3,3-1.5-3-1.5L19.5,.03l-1.5,3-3,1.5,3,1.5Zm.75-2.25l.75-1.5,.75,1.5,1.5,.75-1.5,.75-.75,1.5-.75-1.5-1.5-.75,1.5-.75Zm-11.75,.23c.55,0,1,.45,1,1s-.45,1-1,1-1-.45-1-1,.45-1,1-1Zm7.6,2.98l-1.17,2.35-2.35,1.17,2.35,1.17,1.17,2.35,1.17-2.35,2.35-1.17-2.35-1.17-1.17-2.35Zm.43,3.95l-.43,.85-.43-.85-.85-.43,.85-.43,.43-.85,.43,.85,.85,.43-.85,.43Z"/></svg>
