<?xml version="1.0" encoding="UTF-8"?>
<svg xmlns="http://www.w3.org/2000/svg" id="Layer_1" data-name="Layer 1" viewBox="0 0 24 24" width="512" height="512"><path d="M22,21.29V10.95c.62-.63,1-1.5,1-2.45l-2.65-7.5H3.65l-.51,1.43L.75,.05,.05,.75,23.25,23.95l.71-.71-1.95-1.95ZM14,13.29l-1.3-1.3c.46-.03,.9-.14,1.3-.33v1.63Zm1-2.35c.19-.19,.36-.41,.5-.65,.61,1.02,1.73,1.7,3,1.7h1c.54,0,1.05-.12,1.5-.34v8.63l-6-6v-3.35ZM4.35,2h3.65v3h1V2h6v3h1V2h3.65l2.35,6.58c-.04,1.34-1.15,2.42-2.5,2.42h-1c-1.38,0-2.5-1.12-2.5-2.5v-.5h-1v.5c0,1.38-1.12,2.5-2.5,2.5h-.79L3.92,3.21l.43-1.21Zm9.65,15.54l1,1v1.96c0,1.38-1.12,2.5-2.5,2.5H4.5c-1.38,0-2.5-1.12-2.5-2.5V10.95c-.62-.63-1-1.5-1-2.45l1.02-2.94,.78,.78-.8,2.24c.04,1.34,1.15,2.42,2.5,2.42h1c.55,0,1.06-.18,1.48-.49l.71,.71c-.6,.48-1.36,.77-2.19,.77h-1c-.54,0-1.05-.12-1.5-.34v4.34H12.46l1,1H3v3.5c0,.83,.67,1.5,1.5,1.5H12.5c.83,0,1.5-.67,1.5-1.5v-2.96Z"/></svg>
