<?xml version="1.0" encoding="UTF-8"?>
<svg xmlns="http://www.w3.org/2000/svg" id="Layer_1" data-name="Layer 1" viewBox="0 0 24 24" width="512" height="512"><path d="M24,10.95c0-1.56-.8-3.02-2.11-3.89,0-.1,.02-.2,.02-.29,0-1.95-1.28-3.51-3-3.74-.34-1.73-1.87-3.03-3.66-3.03-1.39,0-2.6,.76-3.25,1.88-.65-1.12-1.86-1.88-3.25-1.88-1.79,0-3.32,1.3-3.66,3.03-1.71,.22-3,1.79-3,3.75,0,.1,0,.2,.01,.29-1.31,.87-2.11,2.33-2.11,3.89,0,.94,.28,1.83,.82,2.61-.54,.78-.82,1.68-.82,2.61,0,1.64,.87,3.16,2.29,4,.62,2.26,2.65,3.82,5.01,3.82,2.07,0,3.87-1.22,4.7-2.98,.84,1.76,2.63,2.98,4.7,2.98,2.36,0,4.38-1.56,5.01-3.82,1.42-.85,2.29-2.36,2.29-4,0-.93-.28-1.83-.82-2.61,.54-.78,.82-1.68,.82-2.61ZM7.3,23c-1.96,0-3.64-1.34-4.09-3.26l-.05-.22-.2-.11c-1.21-.65-1.96-1.88-1.96-3.23,0-.83,.29-1.63,.83-2.3l.25-.31-.25-.31c-.54-.67-.83-1.47-.83-2.3,0-1.32,.72-2.54,1.89-3.2l.31-.17s-.11-.65-.11-.81c0-1.36,.9-2.77,2.43-2.77h.46l.04-.46c.11-1.42,1.31-2.54,2.73-2.54,1.52,0,2.75,1.23,2.75,2.75v15.05c0,2.32-1.89,4.2-4.2,4.2Zm14.87-9.12c.54,.67,.83,1.47,.83,2.3,0,1.35-.75,2.58-1.96,3.23l-.2,.11-.05,.22c-.44,1.92-2.12,3.26-4.09,3.26-2.32,0-4.2-1.89-4.2-4.2V3.75c0-1.52,1.23-2.75,2.75-2.75,1.42,0,2.62,1.12,2.73,2.54l.06,.46h.46c1.51,0,2.41,1.41,2.41,2.77,0,.16-.11,.81-.11,.81l.31,.17c1.17,.66,1.89,1.88,1.89,3.2,0,.83-.29,1.63-.83,2.3l-.25,.31,.25,.31Z"/></svg>
