<?xml version="1.0" encoding="UTF-8"?>
<svg xmlns="http://www.w3.org/2000/svg" id="Layer_1" data-name="Layer 1" viewBox="0 0 24 24">
  <path d="m15.5,11c-1.103,0-2-.897-2-2v-3c0-1.103.897-2,2-2s2,.897,2,2h-1c0-.551-.448-1-1-1s-1,.449-1,1v3c0,.551.448,1,1,1s1-.449,1-1v-.5h-1v-1h2v1.5c0,1.103-.897,2-2,2ZM24,2.5v14.207l-7.293,7.293H0V2.5C0,1.122,1.121,0,2.5,0h19c1.379,0,2.5,1.122,2.5,2.5ZM1,23h15v-7h7V2.5c0-.827-.673-1.5-1.5-1.5H2.5c-.827,0-1.5.673-1.5,1.5v20.5Zm16-6v5.293l5.293-5.293h-5.293Zm-6.47-7.192l-1.497-5.808h-1.032l1.677,6.366c.054.24.224.458.462.579.236.122.518.132.771.024.261-.109.451-.345.521-.645l1.568-6.325h-1.03l-1.44,5.808Zm-4.398-2.775c-.264-.1-1.012-.396-1.289-.565-.256-.182-.375-.447-.336-.745.041-.314.248-.569.539-.666.451-.149.912-.003,1.447.46l.654-.756c-.805-.698-1.615-.917-2.414-.654-.66.218-1.127.787-1.219,1.485-.087.663.193,1.294.787,1.713.427.265,1.372.624,1.467.659.853.345.822.967.793,1.149-.084.514-.538.887-1.08.887-.427,0-1.122-.312-1.458-.653l-.713.702c.461.467,1.398.951,2.171.951,1.035,0,1.904-.726,2.066-1.727.117-.722-.18-1.741-1.416-2.241Z"/>
</svg>
