<?xml version="1.0" encoding="UTF-8"?>
<svg xmlns="http://www.w3.org/2000/svg" id="Layer_1" data-name="Layer 1" viewBox="0 0 24 24">
  <path d="m20.5,18l-1.768,1.729c-.472.472-.732,1.1-.732,1.768s.26,1.295.732,1.768,1.1.732,1.768.732,1.296-.26,1.768-.732h0c.472-.473.732-1.101.732-1.768s-.26-1.296-.736-1.771l-1.764-1.726Zm1.061,4.558h0c-.565.565-1.554.567-2.121,0-.283-.283-.439-.66-.439-1.061s.156-.777.436-1.057l1.064-1.042,1.061,1.038c.284.283.439.659.439,1.061s-.156.777-.439,1.061ZM15.5,5h-4.5V1h6V0H4v1h6v4H0v1h10v5H0v1h15.5c.827,0,1.5.673,1.5,1.5v2.5h7v-2.5c0-4.687-3.813-8.5-8.5-8.5Zm7.5,10h-5v-1.5c0-1.379-1.122-2.5-2.5-2.5h-4.5v-5h4.5c4.136,0,7.5,3.364,7.5,7.5v1.5Z"/>
</svg>
