<?xml version="1.0" encoding="UTF-8"?>
<svg xmlns="http://www.w3.org/2000/svg" id="Layer_1" data-name="Layer 1" viewBox="0 0 24 24">
  <path d="m4.018,5.933h0s-.005-.005,0,0Zm19.947,7.988c-.743,4.371-3.604,8.026-7.85,10.031l-.102.048-8.129-.048C3.64,21.948.778,18.292.035,13.922c-.123-.727.08-1.466.557-2.031.391-.463.928-.764,1.515-.859-.071-.337-.107-.683-.107-1.032,0-1.655.775-3.156,2.018-4.067.003.003.005.005,0,0-1.354-1.355-1.354-3.56,0-4.915C4.694.341,5.582.001,6.471.001,8.115.001,8.978,1.064,9,1.087c.022-.023.865-1.086,2.519-1.086.891,0,1.783.338,2.463,1.017.785.785,1.141,1.869.997,2.914.886-.566,2.021-1.722,2.021-3.932h1c0,1.642-.539,2.811-1.211,3.63,2.29-.512,4.529-.622,4.689-.629l.549-.025-.027.548c-.008.185-.22,4.234-1.677,7.476h1.169c.74,0,1.438.325,1.917.891.477.564.68,1.304.557,2.03ZM13.847,5.72c-.25.207-.506.4-.712.548-1.061,1.079-1.413,2.635-.918,4.069.078.168.257.484.413.663h.664l3.354-3.354.707.707-2.646,2.646h4.509c1.222-2.454,1.624-5.679,1.742-6.963-1.42.111-5.156.507-7.111,1.683Zm-9.122-.494c.072.071.152.14.242.207.622-.278,1.31-.433,2.033-.433,1.808,0,3.395.965,4.274,2.407.241-.691.637-1.33,1.178-1.871.215-.215.473-.413.761-.594.333-.278.588-.524.642-.631.341-.874.114-1.892-.58-2.586-.965-.965-2.536-.965-3.501,0-.337.337-.774,1.134-.774,1.134,0,0-.465-.825-.774-1.134-.966-.966-2.537-.965-3.501,0-.965.965-.965,2.536,0,3.5Zm-1.725,4.774c0,.34.042.677.126,1h7.748c.084-.323.126-.66.126-1,0-2.206-1.794-4-4-4s-4,1.794-4,4Zm19.645,2.537c-.288-.341-.709-.537-1.153-.537H2.509c-.444,0-.865.195-1.153.537-.286.339-.408.783-.334,1.218.682,4.009,3.3,7.373,7.19,9.246h7.576c3.891-1.873,6.509-5.237,7.19-9.246.074-.435-.048-.878-.334-1.217Z"/>
</svg>
