<?xml version="1.0" encoding="UTF-8"?>
<svg xmlns="http://www.w3.org/2000/svg" id="Layer_1" data-name="Layer 1" viewBox="0 0 24 24">
  <path d="m24,4v1h-14.5c-.827,0-1.5.673-1.5,1.5v12.5h16v1H7V6.5c0-1.378,1.122-2.5,2.5-2.5h14.5Zm-10,9h-3v1h3v-1Zm2,1h3v-1h-3v1Zm5,0h3v-1h-3v1Zm-7-4h-3v1h3v-1Zm2,1h3v-1h-3v1Zm5,0h3v-1h-3v1Zm-7-4h-3v1h3v-1Zm5,0h-3v1h3v-1Zm2,1h3v-1h-3v1Zm-6,9h9v-1h-9v1Zm-4,0h2v-1h-2v1ZM4.857,7.85l-.715-.699L.439,10.939c-.585.585-.585,1.536-.004,2.117l3.707,3.793.715-.699-3.711-3.797c-.195-.195-.195-.512.004-.711l3.707-3.793Z"/>
</svg>
