<?xml version="1.0" encoding="UTF-8"?>
<svg xmlns="http://www.w3.org/2000/svg" id="Layer_1" data-name="Layer 1" width="512" height="512" viewBox="0 0 24 24"><path d="M9,10c0,.552-.448,1-1,1s-1-.448-1-1,.448-1,1-1,1,.448,1,1Zm7-1c-.552,0-1,.448-1,1s.448,1,1,1,1-.448,1-1-.448-1-1-1Zm8,3C24,5.383,18.617,0,12,0S0,5.383,0,12s5.383,12,12,12,12-5.383,12-12Zm-1,0c0,6.065-4.935,11-11,11S1,18.065,1,12,5.935,1,12,1s11,4.935,11,11Zm-5.023,2.872l.278-.876-.887,.243c-.028,.008-2.81,.762-5.373,.762s-5.335-.754-5.362-.762l-.886-.243,.276,.875c.065,.209,1.666,5.129,5.966,5.129h.013c4.299,0,5.908-4.919,5.975-5.128Zm-5.981,1.128c1.768,0,3.589-.329,4.667-.564-.623,1.29-2.086,3.564-4.66,3.564h-.013c-2.565,0-4.027-2.273-4.65-3.563,1.076,.235,2.892,.563,4.656,.563Z"/></svg>
