<?xml version="1.0" encoding="UTF-8"?>
<svg xmlns="http://www.w3.org/2000/svg" id="Layer_1" data-name="Layer 1" viewBox="0 0 24 24" width="512" height="512"><path d="m18,3.05V0h-1v3H7V0h-1v3.05c-1.14.232-2,1.242-2,2.45v13c0,1.208.86,2.218,2,2.45v3.05h1v-3h10v3h1v-3.045c1.101-.206,1.833-1.099,1.833-2.307l.167-13.147c0-1.208-.86-2.218-2-2.45Zm.833,15.59c0,.839-.511,1.359-1.333,1.359H6.5c-.827,0-1.5-.673-1.5-1.5V5.5c0-.827.673-1.5,1.5-1.5h11c.827,0,1.5.673,1.5,1.493l-.167,13.147Zm-6.333-6.848l2.854,2.854-.707.707-3.146-3.146v-5.207h1v4.793Z"/></svg>
