<?xml version="1.0" encoding="UTF-8"?>
<svg xmlns="http://www.w3.org/2000/svg" id="Layer_1" data-name="Layer 1" viewBox="0 0 24 24">
  <path d="m11.026,23H2.5c-.827,0-1.5-.673-1.5-1.5s.673-1.5,1.5-1.5h6.875c-.1-.325-.174-.66-.235-1h-4.14S5,1,5,1h13.5c.275,0,.5.225.5.5v7.64c.34.061.675.135,1,.235V1.5c0-.827-.673-1.5-1.5-1.5H2.5C1.121,0,0,1.121,0,2.5v19c0,1.379,1.121,2.5,2.5,2.5h9.529c-.362-.305-.696-.64-1.003-1ZM2.5,1h1.5v18h-1.5c-.565,0-1.081.195-1.5.512V2.5c0-.827.673-1.5,1.5-1.5Zm15,10c-3.584,0-6.5,2.916-6.5,6.5s2.916,6.5,6.5,6.5,6.5-2.916,6.5-6.5-2.916-6.5-6.5-6.5Zm0,12c-3.032,0-5.5-2.468-5.5-5.5s2.468-5.5,5.5-5.5,5.5,2.468,5.5,5.5-2.468,5.5-5.5,5.5Zm.5-6h2.5v1h-2.5v2.5h-1v-2.5h-2.5v-1h2.5v-2.5h1v2.5Z"/>
</svg>
