<?xml version="1.0" encoding="UTF-8"?>
<svg xmlns="http://www.w3.org/2000/svg" id="Layer_1" data-name="Layer 1" viewBox="0 0 24 24">
  <path d="m10.711,9.158l.289.204.289-.204c.192-.136,4.711-3.365,4.711-6.183,0-1.641-1.233-2.975-2.75-2.975-.962,0-1.765.421-2.25,1.106-.485-.685-1.288-1.106-2.25-1.106-1.517,0-2.75,1.334-2.75,2.975,0,2.818,4.519,6.047,4.711,6.183Zm-1.961-8.158c1.03,0,1.75.72,1.75,1.75v.25h1v-.25c0-1.03.72-1.75,1.75-1.75.965,0,1.75.886,1.75,1.975,0,1.772-2.661,4.146-4,5.155-1.339-1.01-4-3.383-4-5.155,0-1.089.785-1.975,1.75-1.975Zm14.431,8.655c-.497-.452-1.142-.674-1.809-.652-.67.032-1.288.322-1.739.818l-3.732,4.102c-.314-1.108-1.335-1.922-2.543-1.922H2.5c-1.379,0-2.5,1.122-2.5,2.5v7c0,1.378,1.121,2.5,2.5,2.5h11.225l9.638-10.818c.912-1.021.831-2.604-.182-3.527Zm-.564,2.862l-9.341,10.483H2.5c-.827,0-1.5-.673-1.5-1.5v-7c0-.827.673-1.5,1.5-1.5h10.857c.905,0,1.643.737,1.643,1.642,0,.812-.606,1.511-1.403,1.625l-5.661.737.129.991,5.668-.738c1.021-.146,1.844-.878,2.145-1.824l4.496-4.94c.271-.298.643-.473,1.046-.492.402-.014.79.12,1.088.393.609.555.658,1.507.109,2.123Z"/>
</svg>
