<?xml version="1.0" encoding="UTF-8"?>
<svg xmlns="http://www.w3.org/2000/svg" id="Layer_1" data-name="Layer 1" viewBox="0 0 24 24">
  <path d="m17.179,11.959h0c-1.262,0-2.451-.39-3.347-1.084L23.698,1.009,22.778-.009c-2.502.643-5.778,1.743-5.778,2.976,0,.281.142,1.467.837,2.133.062.06.127.113.194.162l-4.916,4.916c-1.594-1.938-1.426-4.992.45-6.899.253-.259.538-.559.861-.909l-.734-.679c-.305.33-1.655,1.698-1.953,1.983-.68.65-1.09,1.042-1.803,2.12-1.337,2.021-2.617,2.625-4.813,3.147-.29.069-.57.131-.838.189-1.224.27-2.19.483-2.779,1.076-3.244,3.262-.649,5.946,2.098,8.788l1.253,1.311c1.862,1.969,3.469,3.67,5.34,3.694h.039c1.021,0,2.013-.499,3.032-1.524.634-.638.997-1.857,1.405-3.385.628-2.35,1.307-3.25,3.458-4.586,1.053-.654,1.431-1.054,2.259-1.931.342-.362.768-.813,1.361-1.41l-.708-.706c-.951.954-2.359,1.501-3.865,1.501Zm.816-8.96c.152-.4,1.988-1.192,4.086-1.788l-3.315,3.315c-.085-.027-.163-.075-.236-.146-.395-.376-.53-1.221-.535-1.381Zm-.391,10.656c-2.366,1.469-3.203,2.582-3.897,5.178-.291,1.086-.652,2.438-1.148,2.938-.832.836-1.567,1.214-2.35,1.229-1.447-.019-2.92-1.577-4.625-3.381l-1.261-1.319C1.261,15.132-.223,13.365,2.215,10.913c.383-.385,1.265-.58,2.286-.805.272-.06.558-.123.854-.193,2.351-.559,3.91-1.293,5.416-3.568.143-.216.271-.4.39-.563-.388,1.935.119,4,1.539,5.424,1.109,1.113,2.742,1.751,4.479,1.752h0c.553,0,1.097-.064,1.617-.187-.331.307-.66.553-1.192.883Zm-11.251.991l3,3-.707.707-3-3,.707-.707Zm2.5-2.5l3,3-.707.707-3-3,.707-.707Z"/>
</svg>
