<?xml version="1.0" encoding="UTF-8"?>
<svg xmlns="http://www.w3.org/2000/svg" id="Layer_1" data-name="Layer 1" viewBox="0 0 24 24">
  <path d="m24,16h-2.415l-.799-3h1.209c.538,0,1.042-.21,1.421-.592.379-.382.584-.889.579-1.426l-.019-1.986-1,.01.019,1.986c.003.269-.101.521-.289.712-.189.191-.442.296-.711.296h-1.475l-.181-.679c-.52-1.388-1.861-2.321-3.339-2.321s-2.819.933-3.354,2.368l-1.227,4.632h-2.419v1h2.154l-.12.452c-.021.181-.035.362-.035.548,0,.711.149,1.387.418,2h-.418c-1.103,0-2,.897-2,2v2h1v-2c0-.551.449-1,1-1h1.003c.913,1.214,2.365,2,3.997,2s3.084-.786,3.997-2h1.003c.552,0,1,.449,1,1v2h1v-2c0-1.103-.897-2-2-2h-.418c.269-.613.418-1.289.418-2,0-.186-.014-.367-.048-.619l-.101-.381h2.149v-1Zm-7,6c-2.206,0-4-1.794-4-4,0-.147.012-.291.015-.362l1.584-5.966c.373-1,1.339-1.671,2.401-1.671s2.028.671,2.387,1.625l1.585,5.942c.017.143.028.287.028.434,0,2.206-1.794,4-4,4Zm-5-13c0-.186-.014-.367-.048-.619l-.101-.381h2.149v-1h-2.416l-.799-3h1.215c1.103,0,2-.897,2-2V0h-1v2c0,.551-.449,1-1,1h-1.481l-.181-.679c-.518-1.388-1.859-2.321-3.338-2.321s-2.82.933-3.353,2.368l-.168.632h-1.475c-.269,0-.521-.105-.71-.296-.189-.191-.292-.444-.29-.713L1.023.004.023-.004.005,1.981c-.005.538.201,1.044.579,1.426.378.382.883.592,1.421.592h1.21l-.795,3H0v1h2.154l-.12.452c-.021.181-.035.362-.035.548,0,.711.149,1.387.418,2h-.418c-1.103,0-2,.897-2,2v2h1v-2c0-.551.449-1,1-1h1.003c.913,1.214,2.365,2,3.997,2,2.757,0,5-2.243,5-5Zm-5,4c-2.206,0-4-1.794-4-4,0-.147.012-.291.015-.362l1.584-5.967c.373-1,1.338-1.671,2.401-1.671s2.028.671,2.386,1.625l1.586,5.942c.016.143.028.287.028.434,0,2.206-1.794,4-4,4Z"/>
</svg>
