<?xml version="1.0" encoding="UTF-8"?>
<svg xmlns="http://www.w3.org/2000/svg" id="Layer_1" data-name="Layer 1" viewBox="0 0 24 24">
  <path d="m21.5,0H2.5C1.122,0,0,1.121,0,2.5v5l1.04,12.5h1.96v1c0,1.654,1.346,3,3,3s3-1.346,3-3v-1h6v1c0,1.654,1.346,3,3,3s3-1.346,3-3v-1h1.96l1.04-12.5V2.5c0-1.379-1.121-2.5-2.5-2.5Zm1.5,2.5l.002,4.5h-3.002V1h1.5c.827,0,1.5.673,1.5,1.5ZM5,7V1h4v6h-4ZM10,1h4v6h-4V1Zm5,0h4v6h-4V1ZM2.5,1h1.5v6H1V2.5c0-.827.673-1.5,1.5-1.5Zm5.5,20c0,1.103-.897,2-2,2s-2-.897-2-2v-1h4v1Zm12,0c0,1.103-.897,2-2,2s-2-.897-2-2v-1h4v1ZM1.96,19l-.917-11h21.913l-.917,11H1.96Z"/>
</svg>
