<?xml version="1.0" encoding="UTF-8"?>
<svg xmlns="http://www.w3.org/2000/svg" id="Layer_1" data-name="Layer 1" viewBox="0 0 24 24" width="512" height="512"><path d="M19.5,0H4.5c-1.379,0-2.5,1.122-2.5,2.5V24H22V2.5c0-1.378-1.121-2.5-2.5-2.5Zm1.5,23H3V2.5c0-.827,.673-1.5,1.5-1.5h15c.827,0,1.5,.673,1.5,1.5V23Zm-14-4h10v1H7v-1ZM12,4c-3.309,0-6,2.691-6,6s2.691,6,6,6,6-2.691,6-6-2.691-6-6-6Zm4.975,5.5h-1.984c-.063-1.671-.439-3.108-1.018-4.094,1.633,.704,2.819,2.254,3.003,4.094Zm-4.975,5.5c-.888,0-1.875-1.893-1.989-4.5h3.978c-.114,2.607-1.101,4.5-1.989,4.5Zm-1.989-5.5c.114-2.607,1.101-4.5,1.989-4.5s1.875,1.893,1.989,4.5h-3.978Zm.017-4.094c-.58,.986-.956,2.424-1.018,4.094h-1.984c.184-1.841,1.37-3.391,3.003-4.094Zm-3.003,5.094h1.984c.063,1.671,.439,3.108,1.018,4.094-1.633-.704-2.819-2.254-3.003-4.094Zm6.947,4.094c.58-.986,.956-2.424,1.018-4.094h1.984c-.184,1.841-1.37,3.391-3.003,4.094Z"/></svg>
