<?xml version="1.0" encoding="UTF-8"?>
<svg xmlns="http://www.w3.org/2000/svg" id="Layer_1" data-name="Layer 1" viewBox="0 0 24 24" width="512" height="512"><path d="M11.952,6.46c.225,1.275-.381,2.549-1.506,3.169-.495,.272-.946,1.107-.946,1.752v.619h-1v-.619c0-1.005,.657-2.184,1.464-2.628,.762-.42,1.156-1.252,1.004-2.119-.142-.802-.8-1.46-1.602-1.602-.602-.104-1.191,.048-1.651,.436-.454,.382-.715,.939-.715,1.532h-1c0-.889,.391-1.727,1.071-2.298,.68-.571,1.576-.811,2.469-.654,1.208,.212,2.2,1.204,2.412,2.412Zm-2.952,6.54c-.552,0-1,.448-1,1s.448,1,1,1,1-.448,1-1-.448-1-1-1Zm10.996-3.92c-.003,.382-.025,.759-.066,1.131,1.852,1.261,3.07,3.385,3.07,5.789v7h-7c-2.404,0-4.528-1.219-5.789-3.07-.372,.041-.749,.064-1.131,.066,1.385,2.389,3.965,4.004,6.92,4.004h8v-8c0-2.955-1.615-5.535-4.004-6.92Zm-7.431,8.183c-1.094,.474-2.299,.737-3.565,.737H0V9C0,4.037,4.037,0,9,0s9,4.037,9,9c0,3.321-1.808,6.227-4.49,7.786l2.131,2.061c.201,.202,.519,.201,.713,.006l4.066-3.98,.699,.715-4.062,3.977c-.29,.29-.672,.436-1.056,.436s-.769-.146-1.062-.439l-2.375-2.297Zm-3.565-.263c4.411,0,8-3.589,8-8S13.411,1,9,1,1,4.589,1,9v8H9Z"/></svg>
