<?xml version="1.0" encoding="UTF-8"?>
<svg xmlns="http://www.w3.org/2000/svg" id="Layer_1" data-name="Layer 1" viewBox="0 0 24 24" width="512" height="512"><path d="M13.25,7c-.95,0-1.76,.44-2.25,1.13-.49-.69-1.3-1.13-2.25-1.13-1.52,0-2.75,1.31-2.75,2.93,0,2.77,4.52,5.95,4.71,6.08l.29,.2,.29-.2c.19-.13,4.71-3.31,4.71-6.08,0-1.62-1.23-2.93-2.75-2.93Zm-2.25,7.98c-1.34-.99-4-3.32-4-5.05,0-1.06,.79-1.93,1.75-1.93,1.01,0,1.75,.74,1.75,1.75v.25h1v-.25c0-1.01,.74-1.75,1.75-1.75s1.75,.87,1.75,1.93c0,1.74-2.66,4.07-4,5.05Z"/><path d="M22.86,10.72c-1.07-2.57-2.08-5.01-3.14-6.32C17.11,.92,12.83-.66,8.53,.26,4.14,1.21,.84,4.71,.14,9.18c-.51,3.27,.33,6.52,2.31,8.9,.36,.43,.56,.99,.56,1.56v4.35h13v-3h2.36c1.19,0,2.22-.85,2.45-2.01l.79-3.99h2.4v-1.5s-.77-1.9-1.14-2.78Zm.14,3.28h-2.22l-.95,4.79c-.14,.7-.76,1.21-1.47,1.21h-3.36v3H4v-3.35c0-.81-.28-1.59-.79-2.2C1.42,15.28,.66,12.33,1.13,9.34,1.77,5.28,4.76,2.1,8.74,1.24c3.91-.84,7.81,.6,10.19,3.78,.98,1.21,2.01,3.69,3.01,6.09,.35,.85,.71,1.7,1.06,2.5v.39Z"/></svg>
