<?xml version="1.0" encoding="UTF-8"?>
<svg xmlns="http://www.w3.org/2000/svg" id="Layer_1" data-name="Layer 1" viewBox="0 0 24 24">
  <path d="m24.042,5h-2.319C19.492,1.927,15.911,0,12.042,0S4.592,1.927,2.362,5H.041l.014,14h2.307c2.23,3.073,5.812,5,9.68,5s7.45-1.927,9.68-5h2.319V5ZM12.042,1c3.406,0,6.425,1.567,8.439,4H3.604C5.618,2.567,8.637,1,12.042,1Zm0,22c-3.406,0-6.425-1.567-8.439-4h16.877c-2.014,2.433-5.033,4-8.439,4Zm11-5H1.055l-.012-12h21.999v12Zm-2-4.512v-2.976c0-1.385-1.121-2.512-2.5-2.512h-2.5v8h2.5c1.379,0,2.5-1.127,2.5-2.512Zm-4-4.488h1.5c.827,0,1.5.678,1.5,1.512v2.976c0,.834-.673,1.512-1.5,1.512h-1.5v-6Zm-13,4h1c1.379,0,2.5-1.122,2.5-2.5s-1.121-2.5-2.5-2.5h-2v8h1v-3Zm0-4h1c.827,0,1.5.673,1.5,1.5s-.673,1.5-1.5,1.5h-1v-3Zm11,7h-1v-8h1v8Zm-5.766-2h2.36l.41,1.995.996.005-1.389-6.882c-.093-.459-.386-1.118-1.205-1.118s-1.118.689-1.198,1.087l-1.387,6.887,1.013.005.4-1.979Zm.954-4.716c.024-.118.062-.284.218-.284s.188.132.225.316l.758,3.684h-1.952l.751-3.716Z"/>
</svg>
