<?xml version="1.0" encoding="UTF-8"?>
<svg xmlns="http://www.w3.org/2000/svg" id="Layer_1" data-name="Layer 1" viewBox="0 0 24 24">
  <path d="m24,6.505L12,.75,0,6.505v4.295l2.781,1.333-2.781,1.333v4.295l12.001,5.754,11.999-5.793v-4.256l-2.811-1.348,2.811-1.357v-4.256Zm-1.656.315l-10.344,4.96L1.656,6.82,12,1.86l10.344,4.96ZM1,7.614l10.5,5.036v2.557L1,10.17v-2.557Zm0,7.166l10.5,5.036v2.353L1,17.132v-2.353Zm11.5,7.386v-2.35l10.5-5.036v2.315l-10.5,5.07Zm10.057-8.281l-10.557,5.062L1.443,13.884l2.493-1.196,8.064,3.867,8.036-3.88,2.52,1.209Zm-10.057,1.32v-2.554l10.5-5.036v2.52l-10.5,5.07Z"/>
</svg>
