<?xml version="1.0" encoding="UTF-8"?>
<svg xmlns="http://www.w3.org/2000/svg" id="Layer_1" data-name="Layer 1" viewBox="0 0 24 24">
  <path d="m13.5,5c1.378,0,2.5-1.121,2.5-2.5s-1.122-2.5-2.5-2.5-2.5,1.121-2.5,2.5,1.122,2.5,2.5,2.5Zm0-4c.827,0,1.5.673,1.5,1.5s-.673,1.5-1.5,1.5-1.5-.673-1.5-1.5.673-1.5,1.5-1.5ZM3.5,10c1.378,0,2.5-1.121,2.5-2.5s-1.122-2.5-2.5-2.5-2.5,1.121-2.5,2.5,1.122,2.5,2.5,2.5Zm0-4c.827,0,1.5.673,1.5,1.5s-.673,1.5-1.5,1.5-1.5-.673-1.5-1.5.673-1.5,1.5-1.5Zm14.5,10.808v-3.808h-2v-6h4v-1.944l3.954-2.493-3.953-2.563h-1.001v6h-5.5c-.732,0-1.386.322-1.844.826l-.004-.005-3.316,3.217-5.753,1.136c-.961.38-1.582,1.293-1.582,2.326v7.727l-1,2.773h1.048l.952-2.549v-2.451h5v5h2.39l14.61-10.138v-1.218l-6,4.163Zm2-15.616l2.098,1.36-2.098,1.322V1.191Zm-2.998,16.309l-5.002,3.471v-6.971h5v3.5h.002Zm-3.502-10.5h1.5v6h-3v-4.5c0-.827.673-1.5,1.5-1.5ZM2,13.5c0-.62.373-1.168.862-1.371l2.138-.419v6.29h-3v-4.5Zm6,10.246v-5.746h-2v-6.486l2.819-.552,2.181-2.115v12.818l-3,2.082Z"/>
</svg>
