<?xml version="1.0" encoding="UTF-8"?>
<svg xmlns="http://www.w3.org/2000/svg" id="Layer_1" data-name="Layer 1" viewBox="0 0 24 24">
  <path d="m22.447,12.277c1.181-1.18,1.717-2.853,1.51-4.709-.201-1.815-1.093-3.595-2.511-5.013C18.49-.403,14.127-.851,11.723,1.552c-.876.877-1.403,2.04-1.521,3.364-.099,1.105-.775,2.179-1.854,2.946-1.895,1.346-2.744,3.698-2.164,5.994.201.796.587,1.528,1.105,2.148L.012,23.281l.707.707,7.278-7.278c.62.518,1.353.904,2.149,1.105.479.122.961.181,1.437.181,1.798,0,3.492-.845,4.557-2.344.766-1.079,1.839-1.755,2.945-1.854,1.325-.12,2.487-.646,3.363-1.522Zm-7.124,2.797c-1.121,1.578-3.01,2.259-4.933,1.772-1.569-.397-2.84-1.668-3.237-3.237-.486-1.92.193-3.811,1.773-4.932,1.318-.937,2.146-2.274,2.271-3.671.098-1.088.524-2.038,1.232-2.747.849-.849,2.001-1.26,3.244-1.26,1.705,0,3.58.776,5.065,2.262,1.258,1.258,2.048,2.827,2.225,4.417.172,1.549-.263,2.931-1.224,3.892-.708.708-1.657,1.134-2.746,1.233-1.397.125-2.735.953-3.671,2.271Zm5.677,2.926c-1.654,0-3,1.346-3,3s1.346,3,3,3,3-1.346,3-3-1.346-3-3-3Zm0,5c-1.103,0-2-.897-2-2s.897-2,2-2,2,.897,2,2-.897,2-2,2Z"/>
</svg>
