<?xml version="1.0" encoding="UTF-8"?>
<svg xmlns="http://www.w3.org/2000/svg" id="Layer_1" data-name="Layer 1" viewBox="0 0 24 24" width="512" height="512"><path d="m23.996,12.497v-1h-1.008c-.12-2.657-1.187-5.072-2.872-6.913l.717-.718-.707-.706-.717.718c-1.843-1.682-4.259-2.747-6.916-2.865V0h-1v1.012c-2.656.121-5.069,1.188-6.91,2.872l-.721-.721-.707.707.721.721c-1.681,1.842-2.746,4.256-2.864,6.912H-.003v1h1.015c.12,2.656,1.186,5.069,2.869,6.91l-.721.721.707.707.721-.721c1.842,1.682,4.255,2.748,6.911,2.868v1.012s1.001,0,1.001,0v-1.011c2.656-.119,5.071-1.185,6.913-2.868l.718.717.707-.708-.718-.716c1.683-1.842,2.749-4.258,2.868-6.915h1.008Zm-2.009-.999l-6.018.005c-.091-.73-.38-1.4-.81-1.954l4.251-4.258c1.504,1.66,2.46,3.825,2.578,6.207Zm-9.987,3.502c-1.654,0-3-1.346-3-3s1.346-3,3-3,3,1.346,3,3-1.346,3-3,3Zm6.702-10.415l-4.25,4.257c-.555-.432-1.227-.721-1.959-.812V2.012c2.382.116,4.548,1.07,6.209,2.573Zm-7.209-2.572v6.019c-.729.093-1.397.382-1.95.813l-4.253-4.254c1.659-1.504,3.822-2.459,6.203-2.579Zm-6.91,3.286l4.254,4.254c-.429.553-.716,1.221-.807,1.95H2.012c.117-2.38,1.07-4.545,2.571-6.204Zm-2.571,7.204h6.019c.092.728.38,1.396.811,1.949l-4.254,4.254c-1.502-1.659-2.457-3.823-2.576-6.203Zm3.283,6.91l4.254-4.254c.552.429,1.218.717,1.944.809l.005,6.019c-2.38-.118-4.544-1.072-6.203-2.574Zm7.203,2.574l-.005-6.018c.73-.09,1.399-.378,1.953-.807l4.258,4.251c-1.66,1.503-3.825,2.457-6.206,2.575Zm6.914-3.282l-4.257-4.25c.432-.553.721-1.223.813-1.953l6.019-.005c-.117,2.382-1.072,4.547-2.575,6.207Z"/></svg>
