<?xml version="1.0" encoding="UTF-8"?>
<svg xmlns="http://www.w3.org/2000/svg" id="Layer_1" data-name="Layer 1" viewBox="0 0 24 24" width="512" height="512"><path d="m7.5,10.955v2.091c0,2.318,1.864,4.205,4.155,4.205h.523c1.579,0,3.012-.873,3.737-2.277l.889.459c-.898,1.738-2.671,2.818-4.626,2.818h-.523c-2.843,0-5.155-2.335-5.155-5.205v-2.091c0-2.87,2.312-5.205,5.155-5.205h.523c1.99,0,3.776,1.108,4.663,2.891l-.896.445c-.716-1.441-2.159-2.336-3.767-2.336h-.523c-2.291,0-4.155,1.886-4.155,4.205Zm16.5,1.045c0,6.617-5.383,12-12,12S0,18.617,0,12,5.383,0,12,0s12,5.383,12,12Zm-1,0c0-6.065-4.935-11-11-11S1,5.935,1,12s4.935,11,11,11,11-4.935,11-11Z"/></svg>
