<?xml version="1.0" encoding="UTF-8"?>
<svg xmlns="http://www.w3.org/2000/svg" id="Layer_1" data-name="Layer 1" viewBox="0 0 24 24" width="512" height="512"><path d="m21.5,2h-3.5V0h-1v2H7V0h-1v2h-3.5c-1.379,0-2.5,1.122-2.5,2.5v19.5h24V4.5c0-1.378-1.121-2.5-2.5-2.5ZM2.5,3h19c.827,0,1.5.673,1.5,1.5v3.5H1v-3.5c0-.827.673-1.5,1.5-1.5Zm-1.5,20v-14h22v14H1Zm14.889-6.48l.707.707-3.202,3.202c-.384.384-.889.576-1.394.576s-1.01-.192-1.394-.576l-3.202-3.202.707-.707,3.202,3.202c.057.057.12.106.187.146v-8.867h1v8.867c.066-.04.129-.088.187-.146l3.202-3.202Z"/></svg>
