<?xml version="1.0" encoding="UTF-8"?>
<svg xmlns="http://www.w3.org/2000/svg" id="Layer_1" data-name="Layer 1" viewBox="0 0 24 24" width="512" height="512"><path d="m12.011,6.121l-3.272-1.963.515-.857,2.757,1.654,2.757-1.654.515.857-3.272,1.963Zm-6,.167l-2-1.5v-2.619L10.166.27c1.217-.306,2.474-.306,3.664-.008l.026.008,6.155,1.899v2.619l-2,1.5v2.75c0,3.309-2.691,6-6,6s-6-2.691-6-6v-2.75Zm11,2.75v-.721c-.848.315-2.437.721-5,.721s-4.152-.406-5-.721v.721c0,2.757,2.243,5,5,5s5-2.243,5-5Zm-10-3.25v1.448c.534.246,2.067.802,5,.802s4.462-.555,5-.802v-1.448l2-1.5v-1.381l-5.437-1.679c-1.028-.253-2.113-.253-3.14.004l-5.423,1.675v1.381l2,1.5Zm8.987,10.25h-7.987c-2.757,0-5,2.243-5,5v3h1v-3c0-2.206,1.794-4,4-4h3.5v7h1v-7h3.487c2.206,0,4,1.794,4,4v3h1v-3c0-2.757-2.243-5-5-5Z"/></svg>
