<?xml version="1.0" encoding="UTF-8"?>
<svg xmlns="http://www.w3.org/2000/svg" id="Layer_1" data-name="Layer 1" viewBox="0 0 24 24" width="512" height="512"><path d="m14.774,13.197c-.307.198-.614.395-.919.588,1.52,1.003,2.941,2.038,4.109,3.215H6.035c1.7-1.714,3.935-3.126,6.232-4.577,4.785-3.022,9.733-6.147,9.733-12.423h-1c0,.709-.069,1.374-.199,2H3.2c-.13-.626-.2-1.291-.2-2h-1c0,5.173,3.364,8.205,7.226,10.803.307-.198.614-.395.919-.588-1.52-1.003-2.941-2.038-4.109-3.215h11.929c-1.7,1.714-3.935,3.126-6.232,4.577-4.785,3.022-9.733,6.147-9.733,12.423h1c0-.709.069-1.374.199-2h17.601c.13.626.2,1.291.2,2h1c0-5.173-3.364-8.205-7.226-10.803Zm5.758-10.197c-.37,1.114-.945,2.101-1.669,3H5.139c-.724-.899-1.3-1.886-1.67-3h17.063ZM3.468,21c.37-1.114.945-2.101,1.669-3h13.724c.724.899,1.3,1.886,1.67,3H3.468Z"/></svg>
