<?xml version="1.0" encoding="UTF-8"?>
<svg xmlns="http://www.w3.org/2000/svg" id="Layer_1" data-name="Layer 1" viewBox="0 0 24 24">
  <path d="m11.5,10.647l-2.602-2.602-.707.707,2.851,2.853c.265.263.611.395.958.395s.693-.132.958-.396l2.851-2.852-.707-.707-2.602,2.602V3.937c.862-.223,1.5-1.007,1.5-1.937,0-1.103-.897-2-2-2s-2,.897-2,2c0,.93.638,1.714,1.5,1.937v6.711Zm-.5-8.647c0-.552.448-1,1-1s1,.448,1,1-.448,1-1,1-1-.448-1-1Zm4.934.728c-.061.334-.164.653-.303.952,3.728,1.453,6.369,5.078,6.369,9.32,0,.685-.069,1.354-.2,2h-4.956c.099-.647.156-1.315.156-2,0-.76-.07-1.5-.191-2.212l-.89.89c.052.433.081.874.081,1.322,0,.683-.067,1.352-.182,2h-7.636c-.116-.648-.182-1.316-.182-2,0-.447.029-.889.081-1.322l-.89-.891c-.121.712-.191,1.452-.191,2.212,0,.685.057,1.353.156,2H2.2c-.131-.646-.2-1.315-.2-2,0-4.242,2.642-7.867,6.369-9.32-.139-.299-.242-.618-.303-.952C3.938,4.314,1,8.32,1,13c0,6.065,4.935,11,11,11s11-4.935,11-11c0-4.68-2.938-8.686-7.066-10.272Zm-.337,13.272c-.845,3.22-2.79,5.78-3.597,6.743-.809-.962-2.754-3.52-3.598-6.743h7.194Zm-13.138,0h4.889c.72,3.17,2.387,5.703,3.295,6.908-3.873-.526-7.041-3.268-8.184-6.908Zm10.9,6.908c.908-1.205,2.575-3.738,3.295-6.908h4.889c-1.143,3.64-4.311,6.382-8.184,6.908Z"/>
</svg>
