<?xml version="1.0" encoding="UTF-8"?>
<svg xmlns="http://www.w3.org/2000/svg" id="Layer_1" data-name="Layer 1" viewBox="0 0 24 24">
  <path d="m20.363,3.03c-.213-.176-.443-.333-.686-.468.274-.8.906-1.563,2.323-1.563V0c-2.048,0-2.895,1.221-3.244,2.179-.399-.116-.82-.179-1.256-.179s-.857.062-1.256.179c-.349-.958-1.196-2.179-3.244-2.179v1c1.417,0,2.049.763,2.323,1.563-.226.126-.44.27-.641.431-2.049.323-3.736.787-3.736.787h0c.267,1.086,1.086,1.892,2.085,2.192-.02.173-.031.348-.031.526v3.879c0,2.268,1.683,3.621,4.5,3.621s4.5-1.354,4.5-3.621v-3.879c0-.171-.01-.34-.029-.506.989-.285,1.802-1.075,2.066-2.146,0,0-1.628-.501-3.675-.818Zm.637,7.349c0,2.281-2.192,2.621-3.5,2.621s-3.5-.34-3.5-2.621v-3.879c0-1.93,1.57-3.5,3.5-3.5s3.5,1.57,3.5,3.5v3.879Zm-4-3.379c0,.552-.448,1-1,1s-1-.448-1-1,.448-1,1-1,1,.448,1,1Zm3,0c0,.552-.448,1-1,1s-1-.448-1-1,.448-1,1-1,1,.448,1,1Zm1.885,7.738c-.237.755-.827,1.37-1.617,1.627l-.434.141s.166.822.166.995c0,1.378-1.121,2.5-2.5,2.5-.42,0-.832-.113-1.225-.335l-.414-.234-.255.402c-.463.731-1.25,1.167-2.106,1.167-.608,0-1.2-.231-1.665-.65l-.335-.301-.335.301c-.465.419-1.057.65-1.665.65-.856,0-1.644-.437-2.106-1.167l-.255-.402-.414.234c-.393.222-.805.335-1.225.335-1.379,0-2.5-1.122-2.5-2.5,0-.173.166-.995.166-.995l-.434-.141c-1.036-.336-1.732-1.287-1.732-2.365s.696-2.028,1.732-2.365l.434-.141s-.166-.822-.166-.995c0-1.378,1.121-2.5,2.5-2.5.42,0,.832.113,1.225.335l.414.234.255-.402c.463-.731,1.25-1.167,2.106-1.167.541,0,1.063.191,1.5.526v-1.178c-.467-.226-.978-.348-1.5-.348-1.05,0-2.025.466-2.687,1.267-.424-.177-.863-.267-1.313-.267-1.93,0-3.5,1.57-3.5,3.5,0,.113.006.227.019.343-1.223.57-2.019,1.79-2.019,3.157s.796,2.587,2.019,3.157c-.013.116-.019.23-.019.343,0,1.76,1.306,3.221,3,3.464v3.036h3v-2.339c.461.22.971.339,1.5.339.715,0,1.412-.225,2-.64.588.415,1.285.64,2,.64.955,0,1.849-.386,2.5-1.058v3.058h3v-3.338c1.181-.563,2-1.769,2-3.162,0-.113-.006-.227-.019-.343,1.223-.57,2.019-1.79,2.019-3.157,0-.112-.016-.22-.026-.329-.302.405-.669.76-1.089,1.067Zm-14.885,6.262v2h-1v-2.037c.276-.042.548-.118.813-.229.077.094.159.182.245.267h-.058Zm11,2h-1v-2.037c.165.025.332.037.5.037.17,0,.337-.012.5-.036v2.036Z"/>
</svg>
