<?xml version="1.0" encoding="UTF-8"?>
<svg xmlns="http://www.w3.org/2000/svg" id="Layer_1" data-name="Layer 1" viewBox="0 0 24 24" width="512" height="512"><path d="M19.5,19h-.698c-.591-1.134-2.952-5.901-3.262-10h2.461v-1h-2.388l1.8-3.998c.163-.458,.093-.969-.188-1.366-.28-.398-.738-.636-1.226-.636h-3.499V0h-1V2h-3.5c-.486,0-.945,.237-1.225,.635-.281,.397-.351,.908-.173,1.404l1.786,3.961h-2.388v1h2.461c-.31,4.099-2.672,8.866-3.262,10h-.699c-1.378,0-2.5,1.121-2.5,2.5v2.5H22v-2.5c0-1.379-1.121-2.5-2.5-2.5ZM7.529,3.667c-.055-.155-.032-.321,.063-.455,.095-.135,.244-.212,.408-.212h7.999c.165,0,.313,.077,.409,.212,.095,.135,.117,.3,.077,.417l-1.955,4.371h-5.092l-1.909-4.333Zm1.937,5.333h5.068c.272,3.916,2.28,8.284,3.142,10H6.324c.862-1.716,2.869-6.084,3.142-10Zm11.534,14H3v-1.5c0-.827,.673-1.5,1.5-1.5h15c.827,0,1.5,.673,1.5,1.5v1.5Z"/></svg>
