<?xml version="1.0" encoding="UTF-8"?>
<svg xmlns="http://www.w3.org/2000/svg" id="Layer_1" data-name="Layer 1" viewBox="0 0 24 24">
  <path d="m18.5,0H5.5c-1.378,0-2.5,1.122-2.5,2.5v21.5h18V2.5c0-1.378-1.122-2.5-2.5-2.5Zm1.5,23H4V2.5c0-.827.673-1.5,1.5-1.5h13c.827,0,1.5.673,1.5,1.5v20.5Zm-6-12c-.101,0-.197.015-.293.03.182-.302.293-.651.293-1.03,0-1.105-.895-2-2-2s-2,.895-2,2c0,.378.111.728.293,1.03-.097-.014-.193-.03-.293-.03-1.105,0-2,.895-2,2s.895,2,2,2c.547,0,1.042-.221,1.403-.576-.296.994-.729,1.903-1.403,2.576h4c-.674-.674-1.107-1.583-1.403-2.576.361.356.856.576,1.403.576,1.105,0,2-.895,2-2s-.895-2-2-2Zm-2-2c.551,0,1,.449,1,1,0,.176-.05.348-.149.512l-.845,1.416-.857-1.416c-.099-.164-.149-.336-.149-.512,0-.551.449-1,1-1Zm2,5c-.263,0-.512-.103-.701-.289l-1.299-1.711-1.299,1.711c-.189.186-.438.289-.701.289-.551,0-1-.449-1-1s.449-1,1-1c.044,0,2,0,2,0,0,0,1.956,0,2,0,.551,0,1,.449,1,1s-.449,1-1,1Z"/>
</svg>
