<?xml version="1.0" encoding="UTF-8"?>
<svg xmlns="http://www.w3.org/2000/svg" id="Layer_1" data-name="Layer 1" viewBox="0 0 24 24">
  <path d="m20.391.643l-.35-.342-.35.342c-2.077,2.034-4.613,3.209-7.191,3.344v-1.987h-1v1.987c-2.578-.135-5.114-1.31-7.191-3.344l-.35-.342-.35.342C1.45,2.756,0,6.52,0,10.009s1.45,7.235,3.609,9.349l.35.342.35-.342c2.077-2.034,4.613-3.209,7.191-3.344v7.987h1v-7.987c2.578.135,5.114,1.31,7.191,3.344l.35.342.35-.342c2.159-2.113,3.609-5.87,3.609-9.349s-1.45-7.253-3.609-9.366ZM3.976,18.296c-1.794-1.986-2.976-5.245-2.976-8.287C1,7.006,2.208,3.675,3.977,1.705c2.196,2.005,4.835,3.156,7.523,3.283v10.025c-2.688.128-5.327,1.278-7.524,3.284Zm16.048,0c-2.196-2.005-4.835-3.156-7.524-3.284V4.988c2.688-.128,5.327-1.278,7.523-3.283,1.769,1.97,2.977,5.302,2.977,8.304,0,3.042-1.182,6.301-2.976,8.287Z"/>
</svg>
