<?xml version="1.0" encoding="UTF-8"?>
<svg xmlns="http://www.w3.org/2000/svg" id="Layer_1" data-name="Layer 1" viewBox="0 0 24 24">
  <path d="m10.134,11h3.046l-.143,1h-3.034l-1.168,8.952c-.227,1.737-1.719,3.048-3.471,3.048h-2.366v-1h2.366c1.251,0,2.317-.936,2.479-2.177l1.151-8.823h-3.53l.143-1h3.517l1.037-7.952c.227-1.737,1.719-3.048,3.471-3.048h2.366v1h-2.366c-1.251,0-2.317.936-2.479,2.177l-1.02,7.823Zm10.177,4h-1.163l-2.14,3.535-2.21-3.535h-1.159l2.776,4.496-2.8,4.504h1.154l2.239-3.541,2.111,3.541h1.159l-2.691-4.504,2.724-4.496Z"/>
</svg>
