<?xml version="1.0" encoding="UTF-8"?>
<svg xmlns="http://www.w3.org/2000/svg" id="Layer_1" data-name="Layer 1" viewBox="0 0 24 24" width="512" height="512"><path d="M9.696,7.96c-1.606,.686-2.912,1.767-3.774,3.128l-.845-.535c.972-1.533,2.434-2.748,4.227-3.513l.393,.92Zm5-.92l-.393,.92c1.606,.686,2.912,1.767,3.774,3.128l.845-.535c-.972-1.533-2.434-2.748-4.227-3.513Zm2.509,7.416c-.021,.015-2.149,1.544-4.705,1.544-2.781,0-5.165-1.872-5.188-1.891l-.625,.781c.108,.086,2.673,2.109,5.813,2.109,.17,0,.335-.012,.5-.023v3.523c0,.276,.224,.5,.5,.5s.5-.224,.5-.5v-3.648c1.262-.238,2.324-.722,3-1.096v7.743c0,.276,.224,.5,.5,.5s.5-.224,.5-.5V13.877s-.795,.579-.795,.579ZM12,0C5.383,0,0,5.383,0,12s5.383,12,12,12c1.037,0,2.039-.146,3-.395v-1.032c-.955,.271-1.959,.426-3,.426-6.065,0-11-4.935-11-11S5.935,1,12,1s11,4.935,11,11c0,2.912-1.146,5.557-3,7.526v1.392c2.448-2.198,4-5.377,4-8.919C24,5.383,18.617,0,12,0Z"/></svg>
