<?xml version="1.0" encoding="UTF-8"?>
<svg xmlns="http://www.w3.org/2000/svg" id="Layer_1" data-name="Layer 1" viewBox="0 0 24 24" width="512" height="512"><path d="M18.417,17.71l.654-.639c3.899-3.899,3.899-10.243,0-14.142-1.889-1.889-4.4-2.929-7.071-2.929S6.817,1.04,4.929,2.929c-.216,.216-.422,.442-.617,.675L.753,.046,.046,.753,23.247,23.954l.707-.707-5.536-5.536ZM5.636,3.636c1.7-1.7,3.96-2.636,6.364-2.636s4.664,.936,6.364,2.636c3.509,3.509,3.509,9.219,.004,12.724l-.658,.643L5.022,4.315c.192-.235,.398-.463,.614-.679Zm9.929,15.465l.707,.707-4.273,4.179-7.067-6.912c-2.895-2.895-3.673-7.182-2.209-10.816l.783,.783c-1.104,3.179-.367,6.826,2.129,9.322l6.364,6.225,3.566-3.488Z"/></svg>
