<?xml version="1.0" encoding="UTF-8"?>
<svg xmlns="http://www.w3.org/2000/svg" id="Layer_1" data-name="Layer 1" viewBox="0 0 24 24">
  <path d="m24,10.5c0-2.481-2.019-4.5-4.5-4.5h-2.5v-2.5c0-1.378-1.121-2.5-2.5-2.5h-2.5v1h2.5c.827,0,1.5.673,1.5,1.5v14.5H1v-6H0v7h2.176c-.116.319-.176.656-.176,1,0,1.654,1.346,3,3,3s3-1.346,3-3c0-.344-.06-.681-.176-1h8.352c-.116.319-.176.656-.176,1,0,1.654,1.346,3,3,3s3-1.346,3-3c0-.344-.06-.681-.176-1h2.176v-8.5ZM7,20c0,1.103-.897,2-2,2s-2-.897-2-2c0-.352.095-.693.277-1h3.446c.182.307.277.648.277,1Zm12.5-13c1.93,0,3.5,1.57,3.5,3.5v1.5h-6v-5h2.5Zm1.5,13c0,1.103-.897,2-2,2s-2-.897-2-2c0-.352.095-.693.277-1h3.446c.182.307.277.648.277,1Zm-4-2v-5h6v5h-6ZM10,2H0v-1h10v1Zm-2,4H0v-1h8v1Zm-2,4H0v-1h6v1Z"/>
</svg>
