<?xml version="1.0" encoding="UTF-8"?>
<svg xmlns="http://www.w3.org/2000/svg" id="Layer_1" data-name="Layer 1" viewBox="0 0 24 24">
  <path d="m21.488,14.051l.011-4.101c1.416-.239,2.501-1.466,2.501-2.95,0-1.654-1.346-3-3-3-.999,0-1.879.495-2.424,1.248l-3.601-2.001c.007-.083.025-.162.025-.247,0-1.654-1.346-3-3-3s-3,1.346-3,3c0,.086.018.168.026.252l-3.616,1.978c-.547-.742-1.419-1.23-2.409-1.23-1.654,0-3,1.346-3,3,0,1.483,1.083,2.709,2.499,2.949l-.011,4.101C1.071,14.29-.014,15.516-.014,17c0,1.654,1.346,3,3,3,.99,0,1.863-.488,2.409-1.23l3.616,1.978c-.007.085-.026.166-.026.252,0,1.654,1.346,3,3,3s3-1.346,3-3c0-.084-.018-.163-.025-.245l3.616-1.984c.547.742,1.419,1.229,2.409,1.229,1.654,0,3-1.346,3-3,0-1.483-1.083-2.709-2.499-2.949Zm-.488-9.051c1.103,0,2,.897,2,2s-.897,2-2,2-2-.897-2-2,.897-2,2-2ZM12,1c1.103,0,2,.897,2,2s-.897,2-2,2-2-.897-2-2,.897-2,2-2ZM1,7c0-1.103.897-2,2-2s2,.897,2,2-.897,2-2,2-2-.897-2-2Zm1.986,12c-1.103,0-2-.897-2-2s.897-2,2-2,2,.897,2,2-.897,2-2,2Zm9,4c-1.103,0-2-.897-2-2s.897-2,2-2,2,.897,2,2-.897,2-2,2Zm6-6c0,.306.06.596.145.874l-3.425,1.879c-.475-1.032-1.512-1.753-2.721-1.753s-2.242.72-2.718,1.749l-3.427-1.875c.086-.279.145-.568.145-.874,0-1.483-1.083-2.709-2.499-2.949l.011-4.101c1.416-.239,2.501-1.466,2.501-2.95,0-.306-.06-.596-.145-.874l3.427-1.875c.476,1.029,1.511,1.749,2.718,1.749s2.244-.721,2.719-1.751l3.419,1.9c-.081.272-.138.554-.138.852,0,1.483,1.083,2.709,2.499,2.949l-.011,4.101c-1.416.239-2.501,1.466-2.501,2.95Zm3,2c-1.103,0-2-.897-2-2s.897-2,2-2,2,.897,2,2-.897,2-2,2Zm-12.985-9.289v4.818l3.999,2.287,4.001-2.287v-4.818l-4.001-2.287-3.999,2.287Zm6.683.399l-2.681,1.508-2.683-1.509,2.68-1.533,2.684,1.534Zm-5.683.968l2.501,1.407v2.895l-2.501-1.431v-2.871Zm3.501,4.298v-2.892l2.499-1.405v2.87l-2.499,1.427Z"/>
</svg>
