<?xml version="1.0" encoding="UTF-8"?>
<svg xmlns="http://www.w3.org/2000/svg" id="Layer_1" data-name="Layer 1" viewBox="0 0 24 24">
  <path d="m0,2.5v6.5h11V0H2.5C1.121,0,0,1.121,0,2.5Zm10,5.5H1V2.5c0-.827.673-1.5,1.5-1.5h7.5v7Zm3,16h8.5c1.379,0,2.5-1.121,2.5-2.5v-6.5h-11v9Zm1-8h9v5.5c0,.827-.673,1.5-1.5,1.5h-7.5v-7ZM21.5,0h-8.5v13h11V2.5c0-1.379-1.121-2.5-2.5-2.5Zm1.5,12h-9V1h7.5c.827,0,1.5.673,1.5,1.5v9.5ZM0,21.5c0,1.379,1.121,2.5,2.5,2.5h8.5v-13H0v10.5Zm1-9.5h9v11H2.5c-.827,0-1.5-.673-1.5-1.5v-9.5Z"/>
</svg>
