<?xml version="1.0" encoding="UTF-8"?>
<svg xmlns="http://www.w3.org/2000/svg" id="Layer_1" data-name="Layer 1" viewBox="0 0 24 24" width="512" height="512"><path d="M16.78,11.15c1.33-.9,2.22-2.42,2.22-4.15,0-2.76-2.24-5-5-5h-3V0h-1V2h-3.5c-1.38,0-2.5,1.12-2.5,2.5v15c0,1.38,1.12,2.5,2.5,2.5h3.5v2h1v-2h4.5c3.03,0,5.5-2.47,5.5-5.5,0-2.59-1.8-4.77-4.22-5.35ZM14,3c2.21,0,4,1.79,4,4s-1.79,4-4,4h-3V3h3Zm-9,1.5c0-.83,.67-1.5,1.5-1.5h3.5V11H5V4.5Zm1.5,16.5c-.83,0-1.5-.67-1.5-1.5v-7.5h5v9h-3.5Zm9,0h-4.5V12h4.5c2.48,0,4.5,2.02,4.5,4.5s-2.02,4.5-4.5,4.5Z"/></svg>
