<?xml version="1.0" encoding="UTF-8"?>
<svg xmlns="http://www.w3.org/2000/svg" id="Layer_1" data-name="Layer 1" viewBox="0 0 24 24">
  <path d="m21.5,9c1.378,0,2.5-1.122,2.5-2.5s-1.122-2.5-2.5-2.5-2.5,1.122-2.5,2.5,1.122,2.5,2.5,2.5Zm0-4c.827,0,1.5.673,1.5,1.5s-.673,1.5-1.5,1.5-1.5-.673-1.5-1.5.673-1.5,1.5-1.5Zm0,5c-1.378,0-2.5,1.122-2.5,2.5v5.5h-3v6h1v-5h4.5c1.378,0,2.5-1.122,2.5-2.5v-4c0-1.378-1.122-2.5-2.5-2.5Zm1.5,6.5c0,.827-.673,1.5-1.5,1.5h-1.5v-5.5c0-.827.673-1.5,1.5-1.5s1.5.673,1.5,1.5v4Zm-6-2.5H7v-1h10v1Zm-5.68-4.758c.195.173.44.259.684.259.239,0,.477-.083.663-.248l1.513-1.253h2.82V1.5c0-.827-.673-1.5-1.5-1.5h-7c-.827,0-1.5.673-1.5,1.5v6.5h2.82l1.5,1.242Zm-3.32-7.742c0-.276.224-.5.5-.5h7c.276,0,.5.224.5.5v5.5h-2.18l-1.849,1.482-1.791-1.482h-2.18V1.5Zm11,19.5h5v1h-4v2h-1v-3ZM2.5,9c1.378,0,2.5-1.122,2.5-2.5s-1.122-2.5-2.5-2.5S0,5.122,0,6.5s1.122,2.5,2.5,2.5Zm0-4c.827,0,1.5.673,1.5,1.5s-.673,1.5-1.5,1.5-1.5-.673-1.5-1.5.673-1.5,1.5-1.5Zm2.5,7.5c0-1.378-1.122-2.5-2.5-2.5s-2.5,1.122-2.5,2.5v4c0,1.378,1.122,2.5,2.5,2.5h4.5v5h1v-6h-3v-5.5Zm-2.5,5.5c-.827,0-1.5-.673-1.5-1.5v-4c0-.827.673-1.5,1.5-1.5s1.5.673,1.5,1.5v5.5h-1.5Zm-2.5,3h5v3h-1v-2H0v-1Z"/>
</svg>
