<?xml version="1.0" encoding="UTF-8"?>
<svg xmlns="http://www.w3.org/2000/svg" id="Layer_1" data-name="Layer 1" viewBox="0 0 24 24">
  <path d="m23.123,23.993L13.028,5.819c1.15-.42,1.972-1.525,1.972-2.819,0-1.654-1.346-3-3-3s-3,1.346-3,3c0,1.294.823,2.398,1.973,2.819L.877,23.993h22.246Zm-12.459-1h-3.43l7.099-12.764,1.759,3.167-5.428,9.597Zm5.998-8.572l1.779,3.203-3.068,5.369h-3.559l4.848-8.572Zm-.136,8.572l2.484-4.346,2.415,4.346h-4.898ZM10,3c0-1.103.897-2,2-2s2,.897,2,2-.897,2-2,2-2-.897-2-2Zm2,3.029l1.762,3.171-7.671,13.793h-3.514L12,6.029Z"/>
</svg>
