<?xml version="1.0" encoding="UTF-8"?>
<svg xmlns="http://www.w3.org/2000/svg" id="Layer_1" data-name="Layer 1" viewBox="0 0 24 24">
  <path d="m15,6.5c-1.654,0-3,1.346-3,3s1.346,3,3,3,3-1.346,3-3-1.346-3-3-3Zm0,5c-1.103,0-2-.897-2-2s.897-2,2-2,2,.897,2,2-.897,2-2,2Zm-6.185,2.5l.588-3.33q.021-.451,0-.533c-.121-.444-.401-.793-.79-.984-.394-.193-.847-.201-1.286-.019-.252.106-.5.368-.675.711l-2.196,4.155h-2.456c-1.103,0-2,.897-2,2v6c0,1.103.897,2,2,2h12.5l1.509-8.094-.009-1.906h-7.185ZM1,22v-6c0-.552.449-1,1-1h2v8h-2c-.551,0-1-.448-1-1Zm12.67,1H5v-8l2.54-4.694c.102-.199.178-.249.176-.251.164-.067.325-.069.456-.005.112.056.199.158.246.286l-.795,4.664h7.385l.01.816-1.348,7.184Zm7.877-11.031l2.234,1.453-1.635,2.514-2.238-1.454c-.561.552-1.209.995-1.908,1.328v-1.121c.54-.314,1.035-.712,1.461-1.187l.286-.318,2.106,1.369.545-.838-2.104-1.368.176-.391c.352-.781.53-1.607.53-2.456s-.179-1.675-.53-2.456l-.176-.391,2.104-1.368-.545-.838-2.106,1.369-.286-.318c-.922-1.027-2.179-1.709-3.537-1.919l-.424-.065V1h-1v2.514l-.424.065c-1.355.21-2.61.892-3.534,1.921l-.286.318-2.11-1.371-.545.838,2.123,1.381c-.16.296-.301.603-.41.926l-3.097-2.014,1.636-2.514,2.241,1.456c.94-.925,2.125-1.569,3.405-1.851V0h3v2.67c1.283.281,2.469.925,3.408,1.849l2.238-1.454,1.635,2.514-2.234,1.453c.301.793.453,1.621.453,2.469s-.152,1.676-.453,2.469Z"/>
</svg>
