<?xml version="1.0" encoding="UTF-8"?>
<svg xmlns="http://www.w3.org/2000/svg" id="Layer_1" data-name="Layer 1" viewBox="0 0 24 24">
  <path d="m8,12c3.309,0,6-2.691,6-6S11.309,0,8,0,2,2.691,2,6s2.691,6,6,6Zm0-11c2.757,0,5,2.243,5,5s-2.243,5-5,5-5-2.243-5-5S5.243,1,8,1Zm4,13c.727,0,1.409.195,1.997.535-.258.231-.495.484-.71.756-.39-.186-.827-.291-1.287-.291H4c-1.654,0-3,1.346-3,3v6H0v-6c0-2.206,1.794-4,4-4h8Zm11.561,2.561l-3.75,3.75-.707-.707,3.604-3.604h-4.707c-1.654,0-3,1.346-3,3v5h-1v-5c0-2.206,1.794-4,4-4h4.707l-3.604-3.604.707-.707,3.75,3.75c.585.585.585,1.536,0,2.121Z"/>
</svg>
