<?xml version="1.0" encoding="UTF-8"?>
<svg xmlns="http://www.w3.org/2000/svg" id="Layer_1" data-name="Layer 1" viewBox="0 0 24 24" width="512" height="512"><path d="M23.984,9.287l-2.577-2.413c-.476-.556-1.165-.874-1.898-.874H10.676l-1.676-1.257V1h-.5c-1.215,0-2.231,.872-2.455,2.023-.031-.004-.062-.008-.093-.011-.227-1.146-1.24-2.013-2.452-2.013h-.5v3.537L.839,7.146c-1.104,1.104-1.104,2.9,0,4.004,.54,.54,1.285,.825,2.155,.825,.634,0,1.563-.412,2.172-.72l.844,3.8-.011,6.945h5.002l-.01-3h6l.01,3h4.998l.01-13.192,1.291,1.209,.684-.729Zm-18.135,.435l-.592,.346c-.6,.351-1.744,.907-2.264,.907-.418,0-1.008-.092-1.448-.532-.714-.714-.714-1.875,.031-2.624l2.423-2.922V2.086c.582,.207,1,.767,1,1.434v.538l.68-.058c.218,0,.439,.038,.656,.114l.665,.231v-.845c0-.652,.418-1.208,1-1.415v3.157l2.343,1.757h9.167c.448,0,.869,.198,1.156,.543h0c.225,.272,.344,.603,.344,.956l-.004,5.5H6.79l-.941-4.278Zm12.149,11.278l-.01-3H9.989l.01,3h-2.998l.009-5.999h13.995l-.004,5.999h-3.002Zm-4.999-10c0-.552,.448-1,1-1s1,.448,1,1-.448,1-1,1-1-.448-1-1Zm4,0c0-.552,.448-1,1-1s1,.448,1,1-.448,1-1,1-1-.448-1-1Zm-8,0c0-.552,.448-1,1-1s1,.448,1,1-.448,1-1,1-1-.448-1-1Z"/></svg>
