<?xml version="1.0" encoding="UTF-8"?>
<svg xmlns="http://www.w3.org/2000/svg" id="Layer_1" data-name="Layer 1" viewBox="0 0 24 24" width="512" height="512"><path d="m17.505.002C14.438.002,11.867,2.14,11.187,5.002H0l1.864,16.777c.141,1.268,1.209,2.224,2.485,2.224h11.47c1.241,0,2.306-.927,2.476-2.156l2.34-16.845h-8.416c.655-2.305,2.775-4,5.287-4,3.033,0,5.5,2.467,5.5,5.5,0,1.328-.484,2.559-1.291,3.523l-.196,1.566c1.525-1.204,2.487-3.049,2.487-5.09C24.006,2.918,21.09.002,17.505.002Zm-.201,21.708c-.103.737-.741,1.293-1.486,1.293H4.349c-.765,0-1.406-.574-1.491-1.334l-1.074-9.666h9.259c-.269-.317-.519-.649-.741-1.003H1.672l-.555-4.998h9.914c-.013.166-.025.331-.025.5,0,3.584,2.916,6.5,6.5,6.5.343,0,.683-.036,1.021-.09l-1.222,8.797Zm2.182-15.708l-.815,5.867c-.382.082-.772.133-1.166.133-3.033,0-5.5-2.467-5.5-5.5,0-.169.01-.335.025-.5h7.455Z"/></svg>
