<?xml version="1.0" encoding="UTF-8"?>
<svg xmlns="http://www.w3.org/2000/svg" id="Layer_1" data-name="Layer 1" viewBox="0 0 24 24">
  <path d="m14,20c0,.553-.447,1-1,1s-1-.447-1-1,.447-1,1-1,1,.447,1,1Zm-4-1c-.553,0-1,.447-1,1s.447,1,1,1,1-.447,1-1-.447-1-1-1Zm14-7.5v5.5h-5v-5.5c0-.827.673-1.5,1.5-1.5h.5V2.5c0-.827-.673-1.5-1.5-1.5h-9c-.827,0-1.5.673-1.5,1.5v1.5h5.5c1.379,0,2.5,1.121,2.5,2.5v17.5H0V6.5c0-1.379,1.122-2.5,2.5-2.5h5.5v-1.5c0-1.379,1.122-2.5,2.5-2.5h9c1.379,0,2.5,1.121,2.5,2.5v7.5h.5c.827,0,1.5.673,1.5,1.5Zm-8,11.5v-6H1v6h15Zm-1.5-18H2.5c-.827,0-1.5.673-1.5,1.5v9.5h15V6.5c0-.827-.673-1.5-1.5-1.5Zm5.5,6.5v1.5h3v-1.5c0-.275-.225-.5-.5-.5h-2c-.275,0-.5.225-.5.5Zm3,4.5v-2h-3v2h3Z"/>
</svg>
