<?xml version="1.0" encoding="UTF-8"?>
<svg xmlns="http://www.w3.org/2000/svg" id="Layer_1" data-name="Layer 1" viewBox="0 0 24 24">
  <path d="m23.041,13.641l-5.448-4.264c-.644-.504-1.542-.504-2.185,0l-5.448,4.264c-.61.477-.959,1.194-.959,1.969v8.391h15v-8.391c0-.774-.35-1.492-.959-1.969Zm-.041,9.359h-13v-7.391c0-.465.21-.896.576-1.182l5.449-4.264c.279-.22.671-.22.952,0l5.448,4.264c.366.286.576.717.576,1.182v7.391Zm-9-3h5v-5h-5v5Zm1-4h3v3h-3v-3Zm-8.5-3c.98,0,1.925-.218,2.81-.647l1.083-.525-1.137-.396c-1.544-.538-4.134-1.894-4.134-4.931S7.712,2.107,9.255,1.569l1.138-.396-1.085-.526c-.886-.429-1.831-.647-2.809-.647C2.916,0,0,2.916,0,6.5s2.916,6.5,6.5,6.5Zm0-12c.413,0,.818.046,1.214.137-2.299,1.166-3.592,3.069-3.592,5.363s1.292,4.197,3.593,5.363c-.396.091-.802.137-1.215.137-3.033,0-5.5-2.467-5.5-5.5S3.467,1,6.5,1Zm14.167,6.333l-1.667-.833,1.667-.833.833-1.667.833,1.667,1.667.833-1.667.833-.833,1.667-.833-1.667Zm-8.289-2.461l1.123,2.246,1.123-2.246,2.246-1.123-2.246-1.123-1.123-2.246-1.123,2.246-2.246,1.123,2.246,1.123ZM3.5,15.382l-1.123,2.245-2.246,1.123,2.246,1.123,1.123,2.245,1.123-2.245,2.246-1.123-2.246-1.123-1.123-2.245Z"/>
</svg>
