<?xml version="1.0" encoding="UTF-8"?>
<svg xmlns="http://www.w3.org/2000/svg" id="Layer_1" data-name="Layer 1" viewBox="0 0 24 24">
  <path d="m24,20H0V6.5c0-1.378,1.122-2.5,2.5-2.5h19c1.378,0,2.5,1.122,2.5,2.5v13.5Zm-23-1h22V6.5c0-.827-.673-1.5-1.5-1.5H2.5c-.827,0-1.5.673-1.5,1.5v12.5Zm11-3c-2.206,0-4-1.794-4-4s1.794-4,4-4,4,1.794,4,4-1.794,4-4,4Zm0-7c-1.654,0-3,1.346-3,3s1.346,3,3,3,3-1.346,3-3-1.346-3-3-3Zm-7-1c-.552,0-1,.448-1,1s.448,1,1,1,1-.448,1-1-.448-1-1-1Zm13,1c0,.552.448,1,1,1s1-.448,1-1-.448-1-1-1-1,.448-1,1Zm-13,5c-.552,0-1,.448-1,1s.448,1,1,1,1-.448,1-1-.448-1-1-1Zm13,1c0,.552.448,1,1,1s1-.448,1-1-.448-1-1-1-1,.448-1,1Z"/>
</svg>
