<?xml version="1.0" encoding="UTF-8"?>
<svg xmlns="http://www.w3.org/2000/svg" id="Layer_1" data-name="Layer 1" viewBox="0 0 24 24" width="512" height="512"><path d="M17.987,2.28C16.075,.575,13.51-.235,10.937,.062,6.943,.52,3.644,3.736,3.091,7.708c-.414,2.964,.593,5.827,2.764,7.854,1.363,1.273,2.146,3.029,2.146,4.816v3.622h8v-3.853c0-1.686,.752-3.309,2.118-4.571,1.831-1.694,2.882-4.091,2.882-6.576,0-2.563-1.098-5.012-3.013-6.72Zm-2.987,20.72h-6v-2.622c0-.464-.052-.924-.14-1.378h6.249c-.066,.378-.109,.76-.109,1.147v2.853Zm2.439-8.158c-.987,.912-1.695,1.993-2.086,3.158h-6.759c-.407-1.185-1.107-2.281-2.058-3.169-1.929-1.802-2.823-4.347-2.455-6.985,.491-3.528,3.422-6.384,6.969-6.792,2.32-.266,4.547,.434,6.272,1.972,1.701,1.518,2.678,3.695,2.678,5.973,0,2.24-.909,4.315-2.561,5.842Zm-1.439-7.342v.5h-1v-.5c0-.827-.673-1.5-1.5-1.5h-3c-.827,0-1.5,.673-1.5,1.5,0,.876,.628,1.612,1.492,1.751l3.174,.51c1.353,.217,2.334,1.369,2.334,2.739,0,1.378-1.121,2.5-2.5,2.5h-1v2h-1v-2h-1c-1.379,0-2.5-1.122-2.5-2.5v-.5h1v.5c0,.827,.673,1.5,1.5,1.5h3c.827,0,1.5-.673,1.5-1.5,0-.876-.628-1.612-1.492-1.751l-3.174-.51c-1.353-.217-2.334-1.369-2.334-2.739,0-1.378,1.121-2.5,2.5-2.5h1V3h1v2h1c1.379,0,2.5,1.122,2.5,2.5Z"/></svg>
