<?xml version="1.0" encoding="UTF-8"?>
<svg xmlns="http://www.w3.org/2000/svg" id="Layer_1" data-name="Layer 1" viewBox="0 0 24 24">
  <path d="m23.636,21.442l-3.636-4.355v-4.087h1v-1h-5v1h1v4.087l-3.636,4.355c-.393.47-.476,1.142-.21,1.71.245.522.737.848,1.284.848h8.123c.547,0,1.039-.325,1.284-.848.266-.568.183-1.24-.21-1.71Zm-.696,1.286c-.038.082-.151.271-.378.271h-8.123c-.227,0-.34-.189-.378-.271-.077-.165-.105-.434.071-.646l3.868-4.633v-4.45h1v4.45l3.868,4.633c.177.212.148.48.071.646Zm-13.981-2.469l-4.57-5.248c-1.877.061-3.388,1.597-3.388,3.489v5.5H0v-5.5c0-2.481,2.019-4.5,4.5-4.5h.333l4.129,4.74,4.164-4.74h.227c.585,0,1.136.117,1.647.311v1.078c-.432-.221-.911-.363-1.424-.385l-4.618,5.256ZM3.157,7.344c.612,2.663,2.997,4.656,5.843,4.656,1.751,0,3.328-.754,4.426-1.953-.105-.444-.202-.856-.292-1.238-.901,1.321-2.418,2.191-4.134,2.191-2.415,0-4.435-1.722-4.899-4.002h.914c3.167-.095,5.88-2.215,6.808-5.207,1.126.674,2.009,1.734,2.425,3.057.026.087.496,2.069,1.222,5.151h1.034c-.673-2.858-1.245-5.268-1.302-5.45-.855-2.722-3.348-4.55-6.202-4.55S3.652,1.829,2.798,4.55c-.082.261-1.226,5.122-2.208,9.306.382-.333.798-.628,1.239-.878.538-2.285.994-4.222,1.328-5.635ZM9,1c.672,0,1.315.131,1.917.353-.757,2.664-3.142,4.562-5.918,4.644l-1.523.002c.167-.702.265-1.112.276-1.15.723-2.303,2.832-3.85,5.248-3.85Z"/>
</svg>
