<?xml version="1.0" encoding="UTF-8"?>
<svg xmlns="http://www.w3.org/2000/svg" id="Layer_1" data-name="Layer 1" viewBox="0 0 24 24">
  <path d="m15,0h-1v2h-3V0h-1v2h-3V0h-1v2h-3V0h-1v2H0v19.5c0,1.379,1.122,2.5,2.5,2.5h12c1.378,0,2.5-1.121,2.5-2.5V2h-2V0Zm1,21.5c0,.827-.673,1.5-1.5,1.5H2.5c-.827,0-1.5-.673-1.5-1.5V3h15v18.5Zm-3-14.5H4v-1h9v1Zm0,4H4v-1h9v1Zm-3,4h-6v-1h6v1ZM21.5,0c-1.378,0-2.5,1.121-2.5,2.5v19.015l2.5,2.5,2.5-2.5V2.5c0-1.379-1.122-2.5-2.5-2.5Zm1.5,21.101l-1.5,1.5-1.5-1.5V2.5c0-.827.673-1.5,1.5-1.5s1.5.673,1.5,1.5v18.601Z"/>
</svg>
