<?xml version="1.0" encoding="UTF-8"?>
<svg xmlns="http://www.w3.org/2000/svg" id="Layer_1" data-name="Layer 1" viewBox="0 0 24 24" width="512" height="512"><path d="M13.002,11.705L.738,23.969,.031,23.262,12.296,10.997l-1.564-1.568c-.472-.471-.732-1.099-.732-1.767s.26-1.296,.732-1.768L16.639-.012l.707,.707-5.906,5.906c-.283,.283-.439,.66-.439,1.061s.156,.777,.439,1.061l1.563,1.567,6.964-6.964,.707,.707-6.965,6.965,1.558,1.562c.584,.584,1.536,.584,2.121,0l5.906-5.906,.707,.707-5.906,5.906c-.487,.487-1.127,.731-1.768,.731s-1.28-.244-1.768-.731l-1.558-1.562Zm-6.306,2.063l.708-.708C2.716,9.31,1.001,4.015,1.001,2.048v-.367c0-.409,.249-.57,.397-.629,.078-.031,.173-.051,.275-.051,.183,0,.387,.064,.557,.244l5.786,6.252c.016-.425,.096-.835,.225-1.229L2.96,.561C2.456,.027,1.697-.144,1.028,.123,.394,.375,0,.973,0,1.683v.365c0,2.094,1.787,7.722,6.696,11.72Zm9.631,2.229c-.165,0-.324-.03-.486-.047l.886,.957c-1.802-.228-3.397-.677-4.843-1.255l-.782,.782c1.914,.818,4.12,1.388,6.651,1.582l5.495,5.938,.734-.68-6.811-7.359c-.276,.052-.557,.082-.844,.082Z"/></svg>
