<?xml version="1.0" encoding="UTF-8"?>
<svg xmlns="http://www.w3.org/2000/svg" id="Layer_1" data-name="Layer 1" viewBox="0 0 24 24" width="512" height="512"><path d="m22.631,15.638c.243.504.369,1.054.369,1.612,0,2.068-1.682,3.75-3.75,3.75s-3.75-1.682-3.75-3.75c0-.186.015-.373.044-.561l-3.544-1.018-3.544,1.018c.03.188.044.375.044.561,0,2.068-1.682,3.75-3.75,3.75s-3.75-1.682-3.75-3.75c0-.559.126-1.108.369-1.612-.865-.708-1.369-1.758-1.369-2.888,0-2.068,1.682-3.75,3.75-3.75,1.638,0,3.053,1.053,3.552,2.571l3.078-.931.289.957-4.122,1.247-.095-.558c-.227-1.324-1.363-2.286-2.702-2.286-1.517,0-2.75,1.233-2.75,2.75,0,.944.482,1.811,1.289,2.32l.428.27-.274.425c-.29.448-.442.962-.442,1.485,0,1.517,1.233,2.75,2.75,2.75s2.75-1.233,2.75-2.75c0-.252-.039-.512-.114-.77l-.142-.483,4.756-1.366,4.756,1.366-.142.483c-.076.258-.114.518-.114.77,0,1.517,1.233,2.75,2.75,2.75s2.75-1.233,2.75-2.75c0-.523-.153-1.037-.442-1.485l-.274-.425.428-.27c.807-.509,1.289-1.376,1.289-2.32,0-1.517-1.233-2.75-2.75-2.75-1.358,0-2.496.979-2.706,2.328l-.087.561-4.43-1.272.276-.961,3.379.971c.48-1.55,1.902-2.625,3.567-2.625,2.068,0,3.75,1.682,3.75,3.75,0,1.13-.504,2.179-1.369,2.888ZM12.5,2h-1v4h1V2Zm5.933,1.786l-.866-.5-2,3.464.866.5,2-3.464Zm-10,2.964l-2-3.464-.866.5,2,3.464.866-.5Z"/></svg>
