<?xml version="1.0" encoding="UTF-8"?>
<svg xmlns="http://www.w3.org/2000/svg" id="Layer_1" data-name="Layer 1" viewBox="0 0 24 24">
  <path d="m24,13v1c-.834,0-1.634-.518-2.251-1.457-.46-.7-1.038-.7-1.498,0-.617.939-1.417,1.457-2.251,1.457s-1.634-.518-2.251-1.457c-.46-.7-1.038-.7-1.498,0-.617.939-1.417,1.457-2.251,1.457s-1.634-.518-2.251-1.457c-.46-.7-1.038-.7-1.498,0-.617.939-1.417,1.457-2.251,1.457s-1.634-.518-2.251-1.457c-.46-.7-1.038-.7-1.498,0-.617.939-1.417,1.457-2.251,1.457v-1c.487,0,.989-.357,1.415-1.006.843-1.282,2.327-1.282,3.17,0,.852,1.297,1.979,1.297,2.83,0,.843-1.282,2.327-1.282,3.17,0,.852,1.297,1.979,1.297,2.83,0,.843-1.282,2.327-1.282,3.17,0,.852,1.297,1.979,1.297,2.83,0,.843-1.282,2.327-1.282,3.17,0,.426.648.928,1.006,1.415,1.006ZM0,16h24v3.5c0,1.378-1.122,2.5-2.5,2.5H2.5c-1.378,0-2.5-1.122-2.5-2.5v-3.5Zm1,3.5c0,.827.673,1.5,1.5,1.5h19c.827,0,1.5-.673,1.5-1.5v-2.5H1v2.5ZM24,5.5v3.5H0v-3.5c0-1.378,1.122-2.5,2.5-2.5h19c1.378,0,2.5,1.122,2.5,2.5Zm-1,0c0-.827-.673-1.5-1.5-1.5H2.5c-.827,0-1.5.673-1.5,1.5v2.5h22v-2.5Z"/>
</svg>
