<?xml version="1.0" encoding="UTF-8"?>
<svg xmlns="http://www.w3.org/2000/svg" id="Layer_1" data-name="Layer 1" viewBox="0 0 24 24">
  <path d="m24,9v1h-6.526c.205-.319.384-.652.529-1h5.997Zm-18.003,0H0v1h6.526c-.205-.319-.384-.652-.529-1Zm2.822.682c-.851-.85-1.318-1.979-1.318-3.182s.468-2.332,1.318-3.182L12,.206l3.178,3.108c.854.854,1.322,1.983,1.322,3.186s-.468,2.332-1.318,3.182c-.849.85-1.979,1.318-3.182,1.318s-2.331-.468-3.182-1.318Zm-.318-3.182c0,.935.364,1.813,1.025,2.475,1.323,1.323,3.63,1.321,4.949,0,.661-.661,1.025-1.54,1.025-2.475s-.364-1.813-1.025-2.475l-2.475-2.421-2.479,2.425c-.657.657-1.021,1.536-1.021,2.471Zm11.03,5.987c-.883.67-2.178.67-3.061,0-.852-.65-2.088-.65-2.939,0-.883.67-2.178.67-3.061,0-.852-.65-2.088-.65-2.939,0-.883.67-2.178.67-3.061,0-.852-.65-2.088-.65-2.939,0-.441.335-.971.513-1.53.513v1c.78,0,1.52-.248,2.136-.718.492-.375,1.236-.375,1.729,0,1.232.939,3.039.939,4.271,0,.492-.375,1.236-.375,1.729,0,1.232.939,3.039.939,4.271,0,.492-.375,1.236-.375,1.729,0,1.232.939,3.039.939,4.271,0,.492-.375,1.236-.375,1.729,0,.616.47,1.355.718,2.136.718v-1c-.56,0-1.089-.178-1.53-.513-.852-.65-2.088-.65-2.939,0Zm-13.53,6.513c-.552,0-1,.448-1,1s.448,1,1,1,1-.448,1-1-.448-1-1-1Zm3-3c-.552,0-1,.448-1,1s.448,1,1,1,1-.448,1-1-.448-1-1-1Zm-6,0c-.552,0-1,.448-1,1s.448,1,1,1,1-.448,1-1-.448-1-1-1Zm12,0c-.552,0-1,.448-1,1s.448,1,1,1,1-.448,1-1-.448-1-1-1Zm6,0c-.552,0-1,.448-1,1s.448,1,1,1,1-.448,1-1-.448-1-1-1Zm-12,6c-.552,0-1,.448-1,1s.448,1,1,1,1-.448,1-1-.448-1-1-1Zm-6,0c-.552,0-1,.448-1,1s.448,1,1,1,1-.448,1-1-.448-1-1-1Zm12,0c-.552,0-1,.448-1,1s.448,1,1,1,1-.448,1-1-.448-1-1-1Zm6,0c-.552,0-1,.448-1,1s.448,1,1,1,1-.448,1-1-.448-1-1-1Zm-9-3c-.552,0-1,.448-1,1s.448,1,1,1,1-.448,1-1-.448-1-1-1Zm6,0c-.552,0-1,.448-1,1s.448,1,1,1,1-.448,1-1-.448-1-1-1Z"/>
</svg>
