<?xml version="1.0" encoding="UTF-8"?>
<svg xmlns="http://www.w3.org/2000/svg" id="Layer_1" data-name="Layer 1" width="512" height="512" viewBox="0 0 24 24"><path d="M12,4c-4.411,0-8,3.589-8,8s3.589,8,8,8,8-3.589,8-8-3.589-8-8-8Zm0,15c-3.86,0-7-3.141-7-7s3.14-7,7-7,7,3.141,7,7-3.141,7-7,7Zm-7.778,.778l-.707,.707C-1.164,15.807-1.164,8.193,3.515,3.515l.707,.707C-.067,8.511-.067,15.489,4.222,19.778Zm16.264,.707l-.707-.707c4.289-4.289,4.289-11.268,0-15.557l.707-.707c4.679,4.679,4.679,12.292,0,16.971Zm-7.985-7.485h-1v-5h1v5Zm.5,2c0,.552-.448,1-1,1s-1-.448-1-1,.448-1,1-1,1,.448,1,1Z"/></svg>
