<?xml version="1.0" encoding="UTF-8"?>
<svg xmlns="http://www.w3.org/2000/svg" id="Layer_1" data-name="Layer 1" viewBox="0 0 24 24">
  <path d="m6.362,14.645l3,3-.707.707-3-3,.707-.707ZM20,2c.552,0,1-.448,1-1s-.448-1-1-1-1,.448-1,1,.448,1,1,1Zm-2,2c.552,0,1-.448,1-1s-.448-1-1-1-1,.448-1,1,.448,1,1,1Zm3,1c-.552,0-1,.448-1,1s.448,1,1,1,1-.448,1-1-.448-1-1-1Zm-3.522,2.232c1.864,2.191,2.037,5.366.331,7.756l-.88,1.293-.365-.132c-.206-.074-.543-.161-.93-.148-.854.025-1.562.495-2.104,1.397-.355.593-.534,1.181-.53,1.748.007.878.449,1.491.64,1.714l.291.342-.309.326c-1.479,1.56-3.479,2.435-5.633,2.464-.036,0-.073,0-.109,0-2.101,0-4.072-.816-5.564-2.305h0s-.003-.003-.005-.005c0,0,0,0,0,0C.795,20.167-.022,18.151.007,16.009c.029-2.153.905-4.153,2.465-5.63l.327-.31.342.292c.222.19.833.632,1.713.639.592.033,1.155-.174,1.748-.53.902-.542,1.373-1.25,1.397-2.104.012-.397-.074-.726-.148-.931l-.131-.365,1.302-.886c2.382-1.7,5.559-1.526,7.75.341L23.267.026l.707.707-6.495,6.499Zm-.707.707l-5.909,5.912-.707-.707,5.91-5.913c-1.843-1.523-4.483-1.648-6.471-.228l-.69.469c.061.255.105.569.096.921-.024.836-.371,2.024-1.884,2.932-.744.447-1.499.673-2.244.673h-.024c-.874-.007-1.555-.326-1.981-.601-1.178,1.255-1.835,2.881-1.858,4.623-.023,1.705.574,3.314,1.681,4.59l1.968-1.968.707.707-1.967,1.967c1.278,1.104,2.898,1.709,4.581,1.674,1.741-.023,3.368-.68,4.625-1.859-.275-.426-.595-1.108-.602-1.98-.005-.754.222-1.518.673-2.27.907-1.512,2.096-1.858,2.933-1.883.353-.014.665.034.921.095l.463-.68c1.427-1.999,1.301-4.635-.218-6.477Zm6.229-4.94c-.552,0-1,.448-1,1s.448,1,1,1,1-.448,1-1-.448-1-1-1Z"/>
</svg>
