<?xml version="1.0" encoding="UTF-8"?>
<svg xmlns="http://www.w3.org/2000/svg" id="Layer_1" data-name="Layer 1" viewBox="0 0 24 24" width="512" height="512"><path d="m24,15.286c0-3.511-2.232-6.79-3.419-8.285h1.419v-1.001l-20,.009v1h1.412c-1.188,1.498-3.412,4.771-3.412,8.276,0,2.219,1.149,4.247,3.037,5.787l-2.02,2.257.745.667,2.081-2.326c2.143,1.444,5.01,2.329,8.157,2.329s6.042-.893,8.188-2.35l2.08,2.323.745-.667-2.02-2.257c1.871-1.537,3.008-3.556,3.008-5.764Zm-23,0c0-3.796,3.009-7.467,3.717-8.278l14.561-.007c.697.797,3.722,4.478,3.722,8.284,0,4.254-4.935,7.714-11,7.714S1,19.54,1,15.286ZM7,1c0-.552.448-1,1-1s1,.448,1,1-.448,1-1,1-1-.448-1-1Zm8,2c0-.552.448-1,1-1s1,.448,1,1-.448,1-1,1-1-.448-1-1Z"/></svg>
