<?xml version="1.0" encoding="UTF-8"?>
<svg xmlns="http://www.w3.org/2000/svg" id="Layer_1" data-name="Layer 1" viewBox="0 0 24 24" width="512" height="512"><path d="M12,17c-1.1,0-2,.9-2,2s.9,2,2,2,2-.9,2-2-.9-2-2-2Zm0,3c-.55,0-1-.45-1-1s.45-1,1-1,1,.45,1,1-.45,1-1,1Zm11.95,3.25l-.71,.71L.05,.75,.75,.05,5.21,4.51c6.1-2.86,13.31-1.61,18.1,3.18l-.71,.71C18.2,3.99,11.61,2.78,5.97,5.26l4.82,4.82c2.78-.37,5.59,.56,7.57,2.55l-.71,.71c-1.58-1.58-3.74-2.42-5.94-2.34l12.24,12.24ZM2.55,6.09l.72,.72c-.66,.48-1.29,1.01-1.87,1.59l-.71-.71c.58-.58,1.21-1.12,1.86-1.6Zm5.06,5.06l.74,.74c-.73,.38-1.41,.87-2,1.46l-.71-.71c.59-.59,1.25-1.09,1.97-1.49Z"/></svg>
