<?xml version="1.0" encoding="UTF-8"?>
<svg xmlns="http://www.w3.org/2000/svg" id="Layer_1" data-name="Layer 1" viewBox="0 0 24 24">
  <path d="m4.5,5c1.378,0,2.5-1.121,2.5-2.5S5.878,0,4.5,0s-2.5,1.121-2.5,2.5,1.122,2.5,2.5,2.5Zm0-4c.827,0,1.5.673,1.5,1.5s-.673,1.5-1.5,1.5-1.5-.673-1.5-1.5.673-1.5,1.5-1.5Zm7.5,9c1.378,0,2.5-1.121,2.5-2.5s-1.122-2.5-2.5-2.5-2.5,1.121-2.5,2.5,1.122,2.5,2.5,2.5Zm0-4c.827,0,1.5.673,1.5,1.5s-.673,1.5-1.5,1.5-1.5-.673-1.5-1.5.673-1.5,1.5-1.5Zm1.5,5h-3c-1.378,0-2.5,1.121-2.5,2.5v6.5h2v4h1v-4h2v4h1v-4h2v-6.5c0-1.379-1.122-2.5-2.5-2.5Zm1.5,8h-6v-5.5c0-.827.673-1.5,1.5-1.5h3c.827,0,1.5.673,1.5,1.5v5.5Zm3.5-14c1.378,0,2.5-1.121,2.5-2.5s-1.122-2.5-2.5-2.5-2.5,1.121-2.5,2.5,1.122,2.5,2.5,2.5Zm0-4c.827,0,1.5.673,1.5,1.5s-.673,1.5-1.5,1.5-1.5-.673-1.5-1.5.673-1.5,1.5-1.5ZM6.5,6c.429,0,.826.118,1.18.309-.096.35-.161.711-.169,1.089-.267-.245-.62-.399-1.01-.399H2.5c-.827,0-1.5.673-1.5,1.5v7.5h5v1h-3v7h-1v-7H0v-8.5c0-1.379,1.122-2.5,2.5-2.5h4Zm14.5,14v4h-1v-4h-2v-1h4.768l-1.96-10.769c-.13-.714-.75-1.231-1.476-1.231h-1.661c-.483,0-.905.243-1.181.607,0-.036.011-.07.011-.107,0-.387-.064-.755-.155-1.113.387-.243.84-.387,1.325-.387h1.661c1.209,0,2.243.863,2.459,2.052l2.175,11.948h-2.966Z"/>
</svg>
