<?xml version="1.0" encoding="UTF-8"?>
<svg xmlns="http://www.w3.org/2000/svg" id="Layer_1" data-name="Layer 1" viewBox="0 0 24 24" width="512" height="512"><path d="M20.89,3H3.11c-1.72,0-3.11,1.4-3.11,3.11,0,1.36,.8,2.52,2,2.94v11.95H22V9.05c1.2-.42,2-1.58,2-2.94,0-1.72-1.4-3.11-3.11-3.11ZM2.6,8.18c-.96-.19-1.6-1.03-1.6-2.07,0-1.17,.95-2.11,2.11-2.11H12.89c1.17,0,2.11,.95,2.11,2.11,0,1.04-.64,1.88-1.6,2.07l-.4,.08v11.73H3V8.27l-.4-.08Zm18.8,0l-.4,.08v11.73h-7V9.05c1.2-.42,2-1.58,2-2.94,0-.82-.32-1.56-.83-2.11h5.72c1.17,0,2.11,.95,2.11,2.11,0,1.04-.64,1.88-1.6,2.07Z"/></svg>
