<?xml version="1.0" encoding="UTF-8"?>
<svg xmlns="http://www.w3.org/2000/svg" id="Layer_1" data-name="Layer 1" viewBox="0 0 24 24">
  <path d="m2.5,23h5.5v1H2.5c-1.379,0-2.5-1.121-2.5-2.5v-5.5h1v5.5c0,.827.673,1.5,1.5,1.5Zm20.5-1.5c0,.827-.673,1.5-1.5,1.5h-5.5v1h5.5c1.379,0,2.5-1.121,2.5-2.5v-5.5h-1v5.5ZM21.5,0h-5.5v1h5.5c.827,0,1.5.673,1.5,1.5v5.5h1V2.5c0-1.379-1.121-2.5-2.5-2.5ZM1,2.5c0-.827.673-1.5,1.5-1.5h5.5V0H2.5C1.121,0,0,1.121,0,2.5v5.5h1V2.5Zm8,9.5c0-1.654,1.346-3,3-3s3,1.346,3,3-1.346,3-3,3-3-1.346-3-3Zm1,0c0,1.103.897,2,2,2s2-.897,2-2-.897-2-2-2-2,.897-2,2Zm-1.098-6l1.33-2h3.535l1.33,2h1.902c1.103,0,2,.897,2,2v10H5v-10c0-1.103.897-2,2-2h1.902Zm8.098,1H7c-.552,0-1,.448-1,1v9h12v-9c0-.552-.448-1-1-1Zm-6.897-1h3.795l-.665-1h-2.465l-.665,1Z"/>
</svg>
