<?xml version="1.0" encoding="UTF-8"?>
<svg xmlns="http://www.w3.org/2000/svg" id="Layer_1" data-name="Layer 1" viewBox="0 0 24 24">
  <path d="m15,6.515v1.069c2.929,1.189,5,4.065,5,7.416,0,2.026-.758,3.878-2.004,5.289l-5.496-5.496V1.289l2.652,2.57.696-.718L13.061.439c-.584-.584-1.536-.585-2.116-.005l-2.793,2.707.696.718,2.652-2.57v4.726c-4.731.26-8.5,4.191-8.5,8.986,0,4.963,4.038,9,9,9s9-4.037,9-9c0-3.911-2.508-7.247-6-8.485ZM4,15c0-4.243,3.321-7.725,7.5-7.984v8.191l5.789,5.789c-1.411,1.246-3.263,2.004-5.289,2.004-4.411,0-8-3.589-8-8Z"/>
</svg>
