<?xml version="1.0" encoding="UTF-8"?>
<svg xmlns="http://www.w3.org/2000/svg" id="Layer_1" data-name="Layer 1" viewBox="0 0 24 24" width="512" height="512"><path d="m21.5,0H2.5C1.122,0,0,1.122,0,2.5v21.5h24V2.5c0-1.378-1.122-2.5-2.5-2.5Zm1.5,23H1V2.5c0-.827.673-1.5,1.5-1.5h19c.827,0,1.5.673,1.5,1.5v20.5Zm-8.359-11.999c.833-.733,1.359-1.807,1.359-3.001,0-2.206-1.794-4-4-4h-5c-1.103,0-2,.897-2,2v11.999c0,1.103.897,2,2,2h7.499c2.482,0,4.501-2.018,4.501-4.5,0-2.434-1.943-4.423-4.359-4.498ZM6,6c0-.551.449-1,1-1h5c1.654,0,3,1.346,3,3,0,1.639-1.321,2.975-2.954,3h-6.046s0-4.999,0-4.999Zm8.499,13h-7.499c-.551,0-1-.45-1-1.001v-6h8.5c1.93,0,3.5,1.57,3.5,3.5s-1.571,3.501-3.501,3.501Z"/></svg>
