<?xml version="1.0" encoding="UTF-8"?>
<svg xmlns="http://www.w3.org/2000/svg" id="Layer_1" data-name="Layer 1" viewBox="0 0 24 24">
  <path d="m24,12.5C24,5.607,18.617,0,12,0S0,5.607,0,12.5v.5h7.903c-.555,2.743-.903,6.133-.903,7.125,0,2.354,1.962,3.875,5,3.875s5-1.521,5-3.875c0-.992-.347-4.382-.903-7.125h7.903v-.5ZM11,2c0,1.654-1.346,3-3,3-1.149,0-2.164-.643-2.665-1.643,1.564-1.249,3.456-2.069,5.515-2.294.099.3.15.614.15.937Zm-2,8.5c0-.827.673-1.5,1.5-1.5s1.5.673,1.5,1.5-.673,1.5-1.5,1.5-1.5-.673-1.5-1.5Zm7,9.625c0,2.12-2.066,2.875-4,2.875s-4-.755-4-2.875c0-.831.323-4.258.923-7.125h6.154c.6,2.867.923,6.294.923,7.125Zm-3.501-8.125c.315-.418.501-.938.501-1.5,0-1.379-1.122-2.5-2.5-2.5s-2.5,1.121-2.5,2.5c0,.562.187,1.082.501,1.5H1.01c.129-3.146,1.474-5.969,3.554-7.967.703,1.205,1.989,1.967,3.436,1.967,2.206,0,4-1.794,4-4,0-.341-.042-.675-.126-.998.042,0,.084-.002.126-.002,5.905,0,10.738,4.89,10.99,11h-10.491Zm4.501-7c-1.103,0-2,.897-2,2s.897,2,2,2,2-.897,2-2-.897-2-2-2Zm0,3c-.551,0-1-.448-1-1s.449-1,1-1,1,.448,1,1-.449,1-1,1Z"/>
</svg>
