<?xml version="1.0" encoding="UTF-8"?>
<svg xmlns="http://www.w3.org/2000/svg" id="Layer_1" data-name="Layer 1" viewBox="0 0 24 24" width="512" height="512"><path d="M21.5,2h-5.5V0h-1V2H2.5C1.12,2,0,3.12,0,4.5v3c0,1.38,1.12,2.5,2.5,2.5H15v2h1v-2h5.5c1.38,0,2.5-1.12,2.5-2.5v-3c0-1.38-1.12-2.5-2.5-2.5ZM1,7.5v-3c0-.83,.67-1.5,1.5-1.5h7.5v6H2.5c-.83,0-1.5-.67-1.5-1.5Zm10,1.5V3h4v6h-4Zm12-1.5c0,.83-.67,1.5-1.5,1.5h-5.5V3h5.5c.83,0,1.5,.67,1.5,1.5v3Zm-1.5,6.5H11v-2h-1v2H2.5c-1.38,0-2.5,1.12-2.5,2.5v3c0,1.38,1.12,2.5,2.5,2.5h7.5v2h1v-2h10.5c1.38,0,2.5-1.12,2.5-2.5v-3c0-1.38-1.12-2.5-2.5-2.5ZM1,19.5v-3c0-.83,.67-1.5,1.5-1.5h2.5v6H2.5c-.83,0-1.5-.67-1.5-1.5Zm5,1.5v-6h4v6H6Zm17-1.5c0,.83-.67,1.5-1.5,1.5H11v-6h10.5c.83,0,1.5,.67,1.5,1.5v3Z"/></svg>
