<?xml version="1.0" encoding="UTF-8"?>
<svg xmlns="http://www.w3.org/2000/svg" id="Layer_1" data-name="Layer 1" viewBox="0 0 24 24">
  <path d="m12.981,5.673l8.019-1.539v1.022l-8.019,1.539v-1.022Zm0,9.07l8.019-1.539v-1.022l-8.019,1.539v1.022Zm0-4l8.019-1.539v-1.022l-8.019,1.539v1.022ZM24,2.409v19.601l-13.604,1.998-4.895-2.925-4.819,2.917h-.683V3.865c0-.943.547-1.823,1.393-2.241L3.95.361c.971-.479,2.129-.479,3.1,0l3.201,1.581L21.161.039c.704-.13,1.424.062,1.974.521s.865,1.133.865,1.849ZM6.606,1.258c-.193-.096-.398-.163-.606-.206v19.165l4,2.389V2.934l-3.394-1.676ZM1,22.639l4-2.42V1.052c-.209.042-.413.11-.606.205l-2.558,1.263c-.508.251-.836.778-.836,1.345v18.773ZM23,2.409c0-.419-.185-.812-.506-1.081s-.744-.38-1.155-.305h-.004l-10.335,1.803v20.082l12-1.762V2.409Zm-10.019,16.334l6.019-1.156v-1.022l-6.019,1.156v1.022Z"/>
</svg>
