<?xml version="1.0" encoding="UTF-8"?>
<svg xmlns="http://www.w3.org/2000/svg" id="Layer_1" data-name="Layer 1" viewBox="0 0 24 24">
  <path d="m23.325,9.426c-1.028-1.889-3.349-5.504-7.347-8.493-.833-.623-1.836-.946-2.888-.933-.954.011-1.879.298-2.677.83L0,11.801v12.199h24v-11.875c0-.954-.233-1.887-.675-2.699ZM1,16v-3h22v3H1Zm22,1v2H1v-2h22ZM11.013,1.632c.625-.405,1.347-.623,2.088-.632.784-.022,1.622.245,2.278.734,3.846,2.875,6.079,6.353,7.067,8.169.343.631.527,1.354.546,2.097H1.189L11.013,1.632ZM1,23v-3h22v3H1Z"/>
</svg>
