<?xml version="1.0" encoding="UTF-8"?>
<svg xmlns="http://www.w3.org/2000/svg" id="Layer_1" data-name="Layer 1" viewBox="0 0 24 24">
  <path d="m22,19V6h-3v1h2v12h-5.707l-1,1h-4.586l-1-1H3V7h2v-1h-3v13H0v2.5c0,1.379,1.122,2.5,2.5,2.5h19c1.378,0,2.5-1.121,2.5-2.5v-2.5h-2Zm1,2.5c0,.827-.673,1.5-1.5,1.5H2.5c-.827,0-1.5-.673-1.5-1.5v-1.5h7.293l1,1h5.414l1-1h7.293v1.5Zm-11-12.5c-1.103,0-2-.897-2-2s.897-2,2-2,2,.897,2,2-.897,2-2,2Zm0-3c-.551,0-1,.448-1,1s.449,1,1,1,1-.448,1-1-.449-1-1-1Zm1.5,8h-3v-2.238c-.687-.216-1.316-.579-1.853-1.067l-1.936,1.13-1.513-2.591,1.942-1.133c-.094-.386-.14-.748-.14-1.101s.046-.715.14-1.101l-1.942-1.133,1.513-2.591,1.936,1.13c.537-.488,1.167-.852,1.853-1.067V0h3v2.238c.687.216,1.316.579,1.853,1.067l1.936-1.13,1.513,2.591-1.942,1.133c.094.386.14.748.14,1.101s-.046.715-.14,1.101l1.942,1.133-1.513,2.591-1.936-1.13c-.537.488-1.167.852-1.853,1.067v2.238Zm-2-1h1v-2.02l.389-.088c.772-.176,1.471-.579,2.021-1.165l.272-.291,1.747,1.021.504-.864-1.755-1.023.119-.381c.138-.44.202-.818.202-1.188s-.064-.748-.202-1.188l-.119-.381,1.755-1.023-.504-.864-1.747,1.021-.272-.291c-.55-.586-1.249-.989-2.021-1.165l-.389-.088V1h-1v2.02l-.389.088c-.772.176-1.471.579-2.021,1.165l-.272.291-1.747-1.021-.504.864,1.755,1.023-.119.381c-.138.44-.202.818-.202,1.188s.064.748.202,1.188l.119.381-1.755,1.023.504.864,1.747-1.021.272.291c.55.586,1.249.989,2.021,1.165l.389.088v2.02Z"/>
</svg>
