<?xml version="1.0" encoding="UTF-8"?>
<svg xmlns="http://www.w3.org/2000/svg" id="Layer_1" data-name="Layer 1" viewBox="0 0 24 24" width="512" height="512"><path d="M14,0C8.486,0,4,4.486,4,10c0,1.852,.507,3.588,1.388,5.077L-.004,20.469l3.535,3.535,5.392-5.392c1.489,.881,3.225,1.388,5.077,1.388,5.514,0,10-4.486,10-10S19.514,0,14,0ZM3.531,22.59l-2.121-2.121,4.541-4.541c.597,.808,1.313,1.524,2.121,2.121l-4.541,4.541Zm10.469-3.59c-4.963,0-9-4.037-9-9S9.037,1,14,1s9,4.037,9,9-4.037,9-9,9Zm5-9h1c0,3.309-2.691,6-6,6s-6-2.691-6-6,2.691-6,6-6v1c-2.757,0-5,2.243-5,5s2.243,5,5,5,5-2.243,5-5Z"/></svg>
