<?xml version="1.0" encoding="UTF-8"?>
<svg xmlns="http://www.w3.org/2000/svg" id="Layer_1" data-name="Layer 1" viewBox="0 0 24 24" width="512" height="512"><path d="M23,22.293V12c0-6.065-4.935-11-11-11-2.766,0-5.384,1.019-7.417,2.877L.753,.047,.046,.754,23.247,23.953l.707-.707-.954-.954ZM12,2c5.514,0,10,4.486,10,10v9.293L5.292,4.585c1.842-1.67,4.209-2.585,6.708-2.585Zm6.465,20l1,1h-7.465c-6.065,0-11-4.935-11-11,0-2.088,.587-4.077,1.663-5.801l.727,.727c-.9,1.521-1.39,3.256-1.39,5.074,0,5.514,4.486,10,10,10h6.465Z"/></svg>
