<?xml version="1.0" encoding="UTF-8"?>
<svg xmlns="http://www.w3.org/2000/svg" id="Layer_1" data-name="Layer 1" viewBox="0 0 24 24" width="512" height="512"><path d="m19.221,9.963l1.849-2.26,1.446,1.184.633-.773-3.666-3-.633.773,1.446,1.184-1.858,2.271c-.743-.538-1.56-.987-2.439-1.33V1h1V0H7v1h1v7.011c-4.202,1.641-7,5.711-7,10.239,0,1.126.173,2.241.514,3.312.456,1.436,1.872,2.438,3.443,2.438h14.086c1.571,0,2.987-1.003,3.443-2.438.341-1.071.514-2.186.514-3.312,0-3.236-1.429-6.238-3.779-8.287Zm2.312,11.296c-.326,1.025-1.35,1.741-2.49,1.741H4.957c-1.141,0-2.164-.716-2.49-1.742-.31-.973-.467-1.985-.467-3.008,0-1.127.191-2.222.546-3.25h16.739c-.157-.345-.336-.68-.539-1H2.954c1.116-2.365,3.142-4.261,5.713-5.171l.333-.118V1h6v7.711l.333.118c1.167.171,3.213,1.872,3.213,1.872,2.147,1.863,3.454,4.599,3.454,7.549,0,1.023-.157,2.036-.467,3.009Z"/></svg>
