<?xml version="1.0" encoding="UTF-8"?>
<svg xmlns="http://www.w3.org/2000/svg" id="Layer_1" data-name="Layer 1" viewBox="0 0 24 24" width="512" height="512"><path d="M21.5,0H2.5C1.122,0,0,1.122,0,2.5V24H24V2.5c0-1.378-1.122-2.5-2.5-2.5Zm1.5,23H1V2.5c0-.827,.673-1.5,1.5-1.5H21.5c.827,0,1.5,.673,1.5,1.5V23ZM12,10c-1.2,0-2.266,.542-3,1.382v-.882c0-1.93,1.57-3.5,3.5-3.5h2.5v-1h-2.5c-2.481,0-4.5,2.019-4.5,4.5v3.5c0,2.206,1.794,4,4,4s4-1.794,4-4-1.794-4-4-4Zm0,7c-1.654,0-3-1.346-3-3s1.346-3,3-3,3,1.346,3,3-1.346,3-3,3Z"/></svg>
