<?xml version="1.0" encoding="UTF-8"?>
<svg xmlns="http://www.w3.org/2000/svg" id="Layer_1" data-name="Layer 1" viewBox="0 0 24 24" width="512" height="512"><path d="m17,6.579V1h2V0H5v1h2v5.537C2.736,8.404,0,12.448,0,16.929c0,2.495.838,4.875,2.423,6.881l.15.19h18.854l.15-.19c1.585-2.007,2.423-4.386,2.423-6.881,0-4.417-2.736-8.445-7-10.35Zm-9.312.753l.312-.127V1h8v6.241l.308.128c3.15,1.309,5.436,3.857,6.306,6.853-.561.338-3.117,1.778-5.874,1.778-1.834,0-3.151-.472-4.546-.971-1.414-.506-2.876-1.029-4.884-1.029-2.468,0-5.001,1.301-6.271,2.061.335-3.828,2.87-7.195,6.65-8.729Zm13.251,15.668H3.061c-1.28-1.697-1.986-3.669-2.055-5.738.798-.521,3.663-2.262,6.304-2.262,1.834,0,3.151.472,4.546.971,1.414.506,2.876,1.029,4.884,1.029,2.703,0,5.155-1.217,6.112-1.758.098.552.148,1.116.148,1.686,0,2.19-.712,4.284-2.061,6.071Z"/></svg>
