<?xml version="1.0" encoding="UTF-8"?>
<svg xmlns="http://www.w3.org/2000/svg" id="Layer_1" data-name="Layer 1" viewBox="0 0 24 24" width="512" height="512"><path d="M9,1c0-.55,.45-1,1-1s1,.45,1,1-.45,1-1,1-1-.45-1-1Zm5,1c.55,0,1-.45,1-1s-.45-1-1-1-1,.45-1,1,.45,1,1,1ZM2,0c-.55,0-1,.45-1,1s.45,1,1,1,1-.45,1-1-.45-1-1-1ZM18,0c-.55,0-1,.45-1,1s.45,1,1,1,1-.45,1-1-.45-1-1-1Zm4,0c-.55,0-1,.45-1,1s.45,1,1,1,1-.45,1-1-.45-1-1-1ZM7,1c0-.55-.45-1-1-1s-1,.45-1,1,.45,1,1,1,1-.45,1-1Zm5.5,21.71V4h-1V22.71l-5.35-5.35-.71,.71,5.5,5.5c.29,.29,.68,.44,1.06,.44s.77-.15,1.06-.44l5.5-5.5-.71-.71-5.35,5.35Z"/></svg>
