<?xml version="1.0" encoding="UTF-8"?>
<svg xmlns="http://www.w3.org/2000/svg" id="Layer_1" data-name="Layer 1" viewBox="0 0 24 24" width="512" height="512"><path d="m23.968,8.068l-.707-.707-3.029,3.029-6.622-6.622,3.029-3.029-.707-.707-3.306,3.305-8.509,3.157L.021,23.979l17.485-4.097,3.157-8.509,3.305-3.306Zm-7.213,10.963l-14.468,3.39,5.837-5.838c.395.262.868.417,1.376.417,1.378,0,2.5-1.122,2.5-2.5s-1.122-2.5-2.5-2.5-2.5,1.122-2.5,2.5c0,.509.154.981.417,1.376l-5.838,5.838,3.391-14.469,7.807-2.897,6.875,6.875-2.897,7.807Zm-8.754-4.531c0-.827.673-1.5,1.5-1.5s1.5.673,1.5,1.5-.673,1.5-1.5,1.5-1.5-.673-1.5-1.5Z"/></svg>
