<?xml version="1.0" encoding="UTF-8"?>
<svg xmlns="http://www.w3.org/2000/svg" id="Layer_1" data-name="Layer 1" viewBox="0 0 24 24" width="512" height="512"><path d="m11.285,14.575c0,.342.219.46.219.46,0,0,.095.032.166.062.233.099.667.283,1.13.456,1.175.441,1.471,1.294,1.356,1.945-.153.87-.976,1.502-1.959,1.502-.808,0-1.566-.33-2.079-.906l-.343-.384.756-.697.343.384c.315.354.81.565,1.323.565.544,0,.897-.333.953-.648.08-.459-.521-.719-.706-.788-.748-.281-1.432-.59-1.435-.59-.552-.357-.82-.908-.736-1.51.089-.624.54-1.132,1.177-1.325,1.284-.4,2.372.521,2.385.531l.391.334-.658.793-.386-.33c-.007-.005-.68-.569-1.438-.335-.367.112-.459.372-.459.481Zm10.715-7.282v16.707H2V2.5c0-1.379,1.121-2.5,2.5-2.5h10.207l7.293,7.293Zm-7-.293h5.293L15,1.707v5.293Zm6,16v-15h-7V1H4.5c-.827,0-1.5.673-1.5,1.5v20.5h18Zm-3.897-5.744l-1.01-4.256h-1.093l1.511,6h1.25l1.252-6h-1.029l-.88,4.256Zm-9.117-.241c0,.543-.454.985-1.012.985-.533,0-.967-.434-.967-.97l-.008-2.063c0-.533.434-.967.967-.967.557,0,1.009.44,1.011,1h1.001v-.015c0-1.094-.902-1.985-2.012-1.985-1.086,0-1.967.881-1.967,1.967l.008,2.066c0,1.086.881,1.967,1.967,1.967,1.109,0,2.012-.891,2.012-1.985v-.015h-1v.015Z"/></svg>
