<?xml version="1.0" encoding="UTF-8"?>
<svg xmlns="http://www.w3.org/2000/svg" id="Layer_1" data-name="Layer 1" viewBox="0 0 24 24">
  <path d="m14,12c0,2.206,1.794,4,4,4s4-1.794,4-4-1.794-4-4-4-4,1.794-4,4Zm4-3c1.654,0,3,1.346,3,3s-1.346,3-3,3-3-1.346-3-3,1.346-3,3-3Zm-6-1c2.206,0,4-1.794,4-4S14.206,0,12,0s-4,1.794-4,4,1.794,4,4,4Zm0-7c1.654,0,3,1.346,3,3s-1.346,3-3,3-3-1.346-3-3,1.346-3,3-3Zm-6,15c2.206,0,4-1.794,4-4s-1.794-4-4-4-4,1.794-4,4,1.794,4,4,4Zm0-7c1.654,0,3,1.346,3,3s-1.346,3-3,3-3-1.346-3-3,1.346-3,3-3Zm18,11.5v3.5h-1v-3.5c0-1.378-1.121-2.5-2.5-2.5h-.109l-2.641,3.3-2.64-3.3h-.11c-1.378,0-2.5,1.122-2.5,2.5v3.5h-1v-3.5c0-1.378-1.122-2.5-2.5-2.5h-.109l-2.641,3.3-2.64-3.3h-.11c-1.378,0-2.5,1.122-2.5,2.5v3.5H0v-3.5c0-1.93,1.57-3.5,3.5-3.5h.59l2.16,2.7,2.16-2.7h.59c1.28,0,2.39.698,3,1.726.61-1.028,1.72-1.726,3-1.726h.59l2.16,2.7,2.16-2.7h.59c1.93,0,3.5,1.57,3.5,3.5Z"/>
</svg>
