<?xml version="1.0" encoding="UTF-8"?>
<svg xmlns="http://www.w3.org/2000/svg" id="Layer_1" data-name="Layer 1" viewBox="0 0 24 24" width="512" height="512"><path d="M12,5c-1.379,0-2.5-1.122-2.5-2.5s1.121-2.5,2.5-2.5,2.5,1.122,2.5,2.5-1.121,2.5-2.5,2.5Zm0-4c-.827,0-1.5,.673-1.5,1.5s.673,1.5,1.5,1.5,1.5-.673,1.5-1.5-.673-1.5-1.5-1.5Zm3,14h2v-6.5c0-1.378-1.121-2.5-2.5-2.5h-5c-1.379,0-2.5,1.122-2.5,2.5v6.5h2v6h1v-7h-2v-5.5c0-.827,.673-1.5,1.5-1.5h5c.827,0,1.5,.673,1.5,1.5v5.5h-2v7h1v-6Zm2,1.354v1.001c3.798,.575,6,1.738,6,2.645,0,1.253-4.185,3-11,3s-11-1.747-11-3c0-.907,2.202-2.07,6-2.645v-1.001c-3.885,.566-7,1.803-7,3.646,0,2.598,6.183,4,12,4s12-1.402,12-4c0-1.843-3.115-3.081-7-3.646Z"/></svg>
