<?xml version="1.0" encoding="UTF-8"?>
<svg xmlns="http://www.w3.org/2000/svg" id="Layer_1" data-name="Layer 1" viewBox="0 0 24 24">
  <path d="m10.14,18h4.86v1h-6v-.5c0-1.354,1.264-2.063,2.486-2.749,1.293-.726,2.514-1.41,2.514-2.751,0-1.103-.897-2-2-2s-2,.897-2,2h-1c0-1.654,1.346-3,3-3s3,1.346,3,3c0,1.926-1.677,2.867-3.024,3.623-.812.456-1.541.865-1.836,1.377Zm8.9-8.601c1.227,1.538,1.961,3.486,1.961,5.601,0,4.963-4.037,9-9,9S3,19.963,3,15c0-2.116.734-4.063,1.961-5.601L.323,0h8.487l2.962,6.003c.076-.002.152-.003.228-.003s.152,0,.228.003L15.189,0h8.487l-4.638,9.399Zm-5.741-3.305c1.943.282,3.686,1.186,5.021,2.504l3.748-7.598h-6.257l-2.513,5.094ZM1.933,1l3.748,7.598c1.335-1.318,3.078-2.222,5.021-2.504l-2.513-5.094H1.933Zm18.067,14c0-4.411-3.589-8-8-8s-8,3.589-8,8,3.589,8,8,8,8-3.589,8-8Z"/>
</svg>
