<?xml version="1.0" encoding="UTF-8"?>
<svg xmlns="http://www.w3.org/2000/svg" id="Layer_1" data-name="Layer 1" viewBox="0 0 24 24">
  <path d="m18.5,10c1.311,0,2.427-.845,2.834-2.019,1.497-.167,2.666-1.44,2.666-2.981,0-1.491-1.258-3.809-1.312-3.907l-.571-1.044-.346,1.14c-.003.011-.266.864-.771,1.765-.506-.9-.769-1.754-.771-1.765l-.346-1.141-.571,1.045c-.054.099-1.312,2.416-1.312,3.907,0,1.406.972,2.588,2.279,2.912-.332.645-1.005,1.088-1.779,1.088h-2.5v-2.275c0-.906-.345-1.857-.823-2.74.468-.083.823-.492.823-.984,0-.552-.448-1-1-1-.343,0-.645.172-.825.435-.878-1.178-1.758-2.017-1.831-2.086l-.344-.324-.344.324c-.073.069-.953.908-1.831,2.086-.18-.263-.482-.435-.825-.435-.552,0-1,.448-1,1,0,.492.355.901.823.984-.478.883-.823,1.834-.823,2.74v2.275h-2.5c-.774,0-1.447-.443-1.779-1.088,1.307-.324,2.279-1.506,2.279-2.912,0-1.491-1.258-3.809-1.312-3.907L4.117.049l-.346,1.14c-.003.011-.266.864-.771,1.765-.506-.9-.769-1.754-.771-1.765L1.883.048l-.571,1.045c-.054.099-1.312,2.416-1.312,3.907,0,1.541,1.168,2.814,2.666,2.981.407,1.174,1.524,2.019,2.834,2.019h2.5v2h-2.207l-2.441,2.441.707.707,2.148-2.148h1.793v2h-1.707l-2.441,2.441.707.707,2.148-2.148h1.293v2.858l-1.514,1.668c-.676.676-.643,1.583.086,2.312,1.097,1.098,3.506,1.874,5.428.319.776.628,1.632.876,2.448.876,1.205,0,2.325-.541,2.979-1.195.729-.729.762-1.636.103-2.294l-1.53-1.686v-2.857h1.293l2.148,2.148.707-.707-2.441-2.441h-1.707v-2h1.793l2.148,2.148.707-.707-2.441-2.441h-2.207v-2h2.5Zm.5-5c0-.66.355-1.64.697-2.415.215.481.513,1.057.895,1.595l.408.575.408-.575c.382-.538.68-1.113.895-1.595.342.775.697,1.755.697,2.415,0,1.103-.897,2-2,2s-2-.897-2-2ZM1,5c0-.66.355-1.64.697-2.415.215.481.513,1.057.895,1.595l.408.575.408-.575c.382-.538.68-1.113.895-1.595.342.775.697,1.755.697,2.415,0,1.103-.897,2-2,2s-2-.897-2-2Zm8,1.725c0-1.979,2.146-4.414,3-5.304.854.89,3,3.324,3,5.304v2.275h-6v-2.275Zm7.721,15.405c-.685.685-2.731,1.634-4.367,0l-.354-.354-.354.354c-1.635,1.636-3.683.686-4.367,0-.491-.492-.207-.776-.069-.915l2.012-2.215h5.557l2.028,2.232c.121.121.405.405-.086.897Zm-1.721-4.13h-6v-2h6v2Zm0-3h-6v-2h6v2Zm0-3h-6v-2h6v2Z"/>
</svg>
