<?xml version="1.0" encoding="UTF-8"?>
<svg xmlns="http://www.w3.org/2000/svg" id="Layer_1" data-name="Layer 1" width="512" height="512" viewBox="0 0 24 24"><path d="M12,0C5.383,0,0,5.383,0,12s5.383,12,12,12,12-5.383,12-12S18.617,0,12,0Zm0,23c-6.065,0-11-4.935-11-11S5.935,1,12,1s11,4.935,11,11-4.935,11-11,11Zm-4-12c1.103,0,2-.897,2-2s-.897-2-2-2-2,.897-2,2,.897,2,2,2Zm0-3c.552,0,1,.449,1,1s-.448,1-1,1-1-.449-1-1,.448-1,1-1Zm8,3c1.103,0,2-.897,2-2s-.897-2-2-2-2,.897-2,2,.897,2,2,2Zm0-3c.552,0,1,.449,1,1s-.448,1-1,1-1-.449-1-1,.448-1,1-1Zm.5,5H7.5c-1.379,0-2.5,1.122-2.5,2.5s1.121,2.5,2.5,2.5h9c1.379,0,2.5-1.122,2.5-2.5s-1.121-2.5-2.5-2.5Zm-2.5,1v3h-4v-3h4Zm-8,1.5c0-.827,.673-1.5,1.5-1.5h1.5v3h-1.5c-.827,0-1.5-.673-1.5-1.5Zm10.5,1.5h-1.5v-3h1.5c.827,0,1.5,.673,1.5,1.5s-.673,1.5-1.5,1.5Z"/></svg>
