<?xml version="1.0" encoding="UTF-8"?>
<svg xmlns="http://www.w3.org/2000/svg" id="Layer_1" data-name="Layer 1" viewBox="0 0 24 24">
  <path d="m24,0H4.997l.003,10.806-3.716,4.072c-1.94,2.425-1.659,5.945.626,7.847.987.822,2.236,1.274,3.517,1.274,1.533,0,2.97-.625,4.007-1.728.149.16.308.311.48.454.987.822,2.236,1.274,3.517,1.274,1.682,0,3.248-.752,4.285-2.049l4.212-4.861c1.339-1.546,2.076-3.524,2.075-5.569l-.003-11.521Zm-1,1v3s-8.999,0-8.999,0V1s8.999,0,8.999,0Zm-10,0v3s-7.003,0-7.003,0V1s7.003,0,7.003,0Zm-7.573,22c-1.048,0-2.07-.371-2.877-1.043-1.869-1.556-2.087-4.452-.506-6.429l3.956-4.334-.002-6.194h7.004l.002,5.806-3.716,4.072c-1.566,1.957-1.685,4.627-.471,6.585-.855.979-2.079,1.537-3.389,1.537Zm15.745-6.565l-4.225,4.876c-.858,1.073-2.14,1.689-3.517,1.689-1.048,0-2.07-.371-2.877-1.043-1.869-1.556-2.087-4.452-.506-6.429l3.957-4.334-.002-6.194h9l.002,6.521c0,1.805-.649,3.55-1.831,4.914Z"/>
</svg>
