<?xml version="1.0" encoding="UTF-8"?>
<svg xmlns="http://www.w3.org/2000/svg" id="Layer_1" data-name="Layer 1" viewBox="0 0 24 24" width="512" height="512"><path d="m12.5,12h-1V4h1v8Zm-.5,2c-.552,0-1,.448-1,1s.448,1,1,1,1-.448,1-1-.448-1-1-1Z"/><path d="m17.987,2.28C16.075.575,13.507-.233,10.937.062c-3.993.458-7.293,3.674-7.846,7.646-.414,2.964.593,5.827,2.764,7.854,1.363,1.273,2.146,3.029,2.146,4.816v3.622h8v-3.853c0-1.686.752-3.309,2.118-4.571,1.831-1.694,2.882-4.091,2.882-6.576,0-2.563-1.098-5.012-3.013-6.72Zm-2.987,20.72h-6v-2.622c0-.463-.046-.925-.134-1.378h6.233c-.066.377-.1.76-.1,1.147v2.853Zm2.439-8.158c-.987.912-1.695,1.993-2.087,3.158h-6.754c-.407-1.186-1.111-2.281-2.063-3.169-1.929-1.802-2.823-4.347-2.455-6.985.491-3.528,3.422-6.384,6.969-6.792,2.32-.267,4.547.434,6.272,1.972,1.701,1.518,2.678,3.695,2.678,5.973,0,2.24-.909,4.315-2.561,5.842Z"/></svg>
