<?xml version="1.0" encoding="UTF-8"?>
<svg xmlns="http://www.w3.org/2000/svg" id="Layer_1" data-name="Layer 1" viewBox="0 0 24 24">
  <path d="m24,11.956c0,.008,0,.015,0,.023,0,.009,0,.018,0,.027,0,.004,0,.007,0,.011-.046,11.889-13.663,11.889-20.214,11.889-2.087,0-3.786-1.698-3.786-3.786,0-1.754,1.332-2.799,2.127-3.423,1.47-1.171,2.373-2.834,2.373-4.697,0-5.355,3.882-9.586,8.946-9.921.151.278.307.594.454.977-4.725.103-8.4,3.991-8.4,8.944,0,2.152-1.06,4.132-2.756,5.484-.736.578-1.744,1.369-1.744,2.636,0,1.536,1.25,2.786,2.786,2.786,9.968,0,19.193-1.324,19.214-10.917-.003-1.433-.349-2.783-.949-3.984.292-.149.579-.32.86-.516.684,1.344,1.081,2.859,1.089,4.467h0Zm-9,5.044c0,.552.448,1,1,1s1-.448,1-1-.448-1-1-1-1,.448-1,1Zm.017-16.214l-.144-.258.878-.479.138.248c.429.765,1.063,1.896,1.393,3.861.228-.862.641-1.808,1.386-2.553C20.477-.203,23.413-.009,23.537.001l.43.032.032.43c.009.124.205,3.06-1.604,4.869-1.53,1.53-3.906,1.661-4.669,1.661-.114,0-1.226-.004-1.226-.004,0-3.558-.893-5.149-1.483-6.202Zm2.998,5.198c.833-.039,2.57-.257,3.673-1.359s1.292-2.815,1.316-3.629c-.813.024-2.526.214-3.629,1.316s-1.323,2.84-1.36,3.672Zm-.015,8.016c0,.552.448,1,1,1s1-.448,1-1-.448-1-1-1-1,.448-1,1Z"/>
</svg>
