<?xml version="1.0" encoding="UTF-8"?>
<svg xmlns="http://www.w3.org/2000/svg" id="Layer_1" data-name="Layer 1" viewBox="0 0 24 24">
  <path d="m24.004,23.297l-.707.707L-.004.703.703-.004l13.297,13.297V2.5c0-1.379,1.121-2.5,2.5-2.5h3.5v1h-3.5c-.827,0-1.5.673-1.5,1.5v11.793l9.004,9.004Zm-10.004-4.797c0,2.481-2.019,4.5-4.5,4.5s-4.5-2.019-4.5-4.5,2.019-4.5,4.5-4.5c.38,0,.749.047,1.101.137l-1.136-1.136c-3.016.019-5.465,2.479-5.465,5.5s2.468,5.5,5.5,5.5,5.481-2.449,5.5-5.465l-1.136-1.136c.089.353.137.721.137,1.101Z"/>
</svg>
