<?xml version="1.0" encoding="UTF-8"?>
<svg xmlns="http://www.w3.org/2000/svg" id="Layer_1" data-name="Layer 1" viewBox="0 0 24 24" width="512" height="512"><path d="M21.5,3H12.118L8.118,1H2.5C1.122,1,0,2.121,0,3.5V23H8.346l-1-1H1V8H23v14h-6.365l-1,1h8.365V5.5c0-1.379-1.121-2.5-2.5-2.5ZM1,7V3.5c0-.827,.673-1.5,1.5-1.5H7.882l4,2h9.618c.827,0,1.5,.673,1.5,1.5v1.5H1Zm15.596,12.22l-3.202,3.203c-.384,.384-.889,.576-1.394,.576s-1.009-.192-1.394-.576l-3.203-3.203,.707-.707,3.203,3.203c.057,.057,.12,.106,.187,.146V12h1v9.862c.066-.04,.129-.088,.187-.146l3.202-3.203,.707,.707Z"/></svg>
