<?xml version="1.0" encoding="UTF-8"?>
<svg xmlns="http://www.w3.org/2000/svg" id="Layer_1" data-name="Layer 1" viewBox="0 0 24 24">
  <path d="m19.5,5c-.994,0-1.938.387-2.588,1.061-.442.458-.733,1.032-.853,1.657l-1.216-1.419c-.544-.634-.843-1.443-.843-2.278V1h1V0H7v1h1v3.021c0,.834-.299,1.644-.842,2.278l-4.075,4.753c-.698.815-1.083,1.855-1.083,2.928v10.021h18v-9.036c1.694-.243,3-1.704,3-3.464v-3c0-1.93-1.57-3.5-3.5-3.5ZM3,15h12v4H3v-4Zm16,8H3v-3h13v-6H3v-.021c0-.834.299-1.644.842-2.278l4.075-4.753c.698-.815,1.083-1.855,1.083-2.928V1h4v3.021c0,1.073.385,2.113,1.083,2.928l4.074,4.753c.544.634.843,1.443.843,2.278v9.021Zm3-11.5c0,1.207-.86,2.218-2,2.45-.007-1.062-.391-2.091-1.083-2.898l-1.917-2.236v-.333c-.024-.676.194-1.273.632-1.727.463-.48,1.144-.755,1.868-.755,1.379,0,2.5,1.122,2.5,2.5v3Z"/>
</svg>
