<?xml version="1.0" encoding="UTF-8"?>
<svg xmlns="http://www.w3.org/2000/svg" id="Layer_1" data-name="Layer 1" viewBox="0 0 24 24" width="512" height="512"><path d="M18.302,7.121c-1.349-3.121-4.38-5.121-7.802-5.121C5.813,2,2,5.813,2,10.5c0,.591,.061,1.18,.181,1.754-1.354,.871-2.181,2.369-2.181,3.996,0,2.619,2.131,4.75,4.75,4.75h12.25c3.86,0,7-3.141,7-7,0-3.355-2.43-6.263-5.698-6.879Zm-1.302,12.879H4.75c-2.068,0-3.75-1.683-3.75-3.75,0-1.387,.761-2.656,1.987-3.311l.346-.186-.098-.38c-.157-.609-.236-1.239-.236-1.874,0-4.136,3.364-7.5,7.5-7.5,3.103,0,5.843,1.865,6.98,4.752l.106,.27,.287,.042c2.923,.426,5.126,2.978,5.126,5.937,0,3.309-2.691,6-6,6Zm-1.854-7.439l.707,.707-3.293,3.293c-.292,.292-.676,.438-1.061,.438s-.768-.146-1.061-.438l-3.293-3.293,.707-.707,3.146,3.146v-7.707h1v7.707l3.146-3.146Z"/></svg>
