<?xml version="1.0" encoding="UTF-8"?>
<svg xmlns="http://www.w3.org/2000/svg" id="Layer_1" data-name="Layer 1" viewBox="0 0 24 24">
  <path d="m21.5,7h-2v1h2c.827,0,1.5.673,1.5,1.5v1.5H1v-1.5c0-.827.673-1.5,1.5-1.5h2.5v-1h-2.5c-1.378,0-2.5,1.122-2.5,2.5v14.5h24v-14.5c0-1.378-1.122-2.5-2.5-2.5Zm-12,9h13.5v3h-13.5v-3Zm-1,3H1v-3h7.5v3Zm1-4v-3h13.5v3h-13.5Zm-1-3v3H1v-3h7.5ZM1,23v-3h7.5v3H1Zm8.5,0v-3h13.5v3h-13.5ZM17,.041l-2.715,2.701L12,.001l-2.285,2.741L7,.041v7.959h10V.041Zm-1,6.959h-8V2.446l1.785,1.775,2.215-2.659,2.215,2.659,1.785-1.775v4.554Z"/>
</svg>
