<?xml version="1.0" encoding="UTF-8"?>
<svg xmlns="http://www.w3.org/2000/svg" id="Layer_1" data-name="Layer 1" viewBox="0 0 24 24" width="512" height="512"><path d="m20,1V0H4v1h7.5v3h-6.5v1h6.5v3h-5.5v1h5.5v3h-4.5v1h4.5v3h-4.265c-1.321.021-2.458.818-2.968,2.078-.542,1.338-.244,2.851.758,3.853l2.069,2.069h9.812l2.069-2.069c1.002-1.002,1.3-2.515.758-3.853-.51-1.26-1.647-2.057-2.977-2.078h-4.257v-3h4.5v-1h-4.5v-3h5.5v-1h-5.5v-3h6.5v-1h-6.5V1h7.5Zm-5.996,16c-.62.619-1.004,1.474-1.004,2.417v.583h1v-.583c0-1.333,1.084-2.417,2.417-2.417h.332c.927.016,1.696.559,2.058,1.453.391.965.18,2.053-.538,2.771l-1.776,1.776H7.508l-1.776-1.776c-.718-.718-.929-1.806-.538-2.771.362-.895,1.131-1.438,2.049-1.453h.34c1.333,0,2.417,1.084,2.417,2.417v.583h1v-.583c0-.943-.384-1.798-1.004-2.417h4.008Z"/></svg>
