<?xml version="1.0" encoding="UTF-8"?>
<svg xmlns="http://www.w3.org/2000/svg" id="Layer_1" data-name="Layer 1" viewBox="0 0 24 24">
  <path d="m13,1c0-.552.448-1,1-1s1,.448,1,1-.448,1-1,1-1-.448-1-1Zm6,6c-2.061,0-2.884,1.402-3.61,2.64-.464.791-.902,1.539-1.623,1.918-.848.445-1.791.45-3.474.442h.001c1.032-.825,1.706-2.079,1.706-3.5,0-2.481-2.019-4.5-4.5-4.5-2.384,0-4.816,2.328-4.919,2.427l.695.719c.022-.021,2.246-2.146,4.224-2.146,1.93,0,3.5,1.57,3.5,3.5s-1.57,3.5-3.5,3.5h-1.5v1h1c2.757,0,5,2.243,5,5s-2.243,5-5,5h-1c-3.133,0-5.742-3.341-6-6.5v1.595c0,3.309,2.691,5.905,6,5.905h1c3.309,0,6-2.691,6-6,0-2.086-1.071-3.924-2.69-5,1.793.016,2.857.004,3.924-.558.972-.512,1.504-1.419,2.02-2.297.676-1.151,1.259-2.146,2.747-2.146,2.243,0,4,2.855,4,6.5,0,4.068-2.034,6.5-4,6.5h0s-.004,0-.005,0c-2.995,0-3.995-3.5-3.995-5,0,2,.5,6,3.995,6,.001,0,.004,0,.005,0h0c2.458,0,5-2.805,5-7.5,0-4.275-2.149-7.5-5-7.5Zm-4.5-2c1.288,0,2.526-.626,3.411-1.203l-.716-.896c-.607.488-1.74,1.099-3.194,1.099-.493,0-2.5,0-3.5-1,1,1,1.5,2,4,2Z"/>
</svg>
