<?xml version="1.0" encoding="UTF-8"?>
<svg xmlns="http://www.w3.org/2000/svg" id="Layer_1" data-name="Layer 1" viewBox="0 0 24 24">
  <path d="m12,12.5c.827,0,1.5-.673,1.5-1.5s-.673-1.5-1.5-1.5-1.5.673-1.5,1.5.673,1.5,1.5,1.5Zm4-4.436V3.137L12,.137l-4,3v4.993L0,14.144v9.856h3v-3.5c0-.276.225-.5.5-.5s.5.224.5.5v3.5h16v-3.5c0-.276.225-.5.5-.5s.5.224.5.5v3.5h3v-10.116l-8-5.82Zm-7,.564V3.637l3-2.25,3,2.25v4.936l2,1.455v12.972h-2v-5c0-1.654-1.346-3-3-3s-3,1.346-3,3v5h-2v-12.868l2-1.504Zm5,14.371h-4v-5c0-1.103.897-2,2-2s2,.897,2,2v5Zm-10.5-4c-.827,0-1.5.673-1.5,1.5v2.5h-1v-8.357l5-3.759v12.116h-1v-2.5c0-.827-.673-1.5-1.5-1.5Zm19.5,4h-1v-2.5c0-.827-.673-1.5-1.5-1.5s-1.5.673-1.5,1.5v2.5h-1v-12.244l5,3.637v8.607Z"/>
</svg>
