<?xml version="1.0" encoding="UTF-8"?>
<svg xmlns="http://www.w3.org/2000/svg" id="Layer_1" data-name="Layer 1" viewBox="0 0 24 24">
  <path d="m3.5,7c1.378,0,2.5-1.121,2.5-2.5s-1.122-2.5-2.5-2.5-2.5,1.121-2.5,2.5,1.122,2.5,2.5,2.5Zm0-4c.827,0,1.5.673,1.5,1.5s-.673,1.5-1.5,1.5-1.5-.673-1.5-1.5.673-1.5,1.5-1.5Zm14.5,5c1.103,0,2-.897,2-2s-.897-2-2-2-2,.897-2,2,.897,2,2,2Zm0-3c.551,0,1,.448,1,1s-.449,1-1,1-1-.448-1-1,.449-1,1-1Zm-4.412,5.334l1.516-.892c.408.34.881.606,1.396.786v1.771h3v-1.771c.515-.18.988-.446,1.396-.786l1.516.892,1.521-2.587-1.527-.896c.064-.3.094-.576.094-.851s-.03-.551-.094-.851l1.527-.896-1.521-2.587-1.516.892c-.408-.34-.881-.606-1.396-.786V0h-3v1.771c-.515.18-.988.446-1.396.786l-1.516-.892-1.521,2.587,1.527.896c-.064.3-.094.576-.094.851s.03.551.094.851l-1.527.896,1.521,2.587Zm1.169-3.007l-.106-.372c-.103-.361-.151-.665-.151-.955s.048-.594.151-.955l.106-.372-1.32-.775.507-.862,1.306.768.273-.273c.43-.432.984-.743,1.603-.903l.375-.098v-1.528h1v1.528l.375.098c.619.16,1.173.472,1.603.903l.273.273,1.306-.768.507.862-1.32.775.106.372c.103.361.151.665.151.955s-.048.594-.151.955l-.106.372,1.32.775-.507.862-1.306-.768-.273.273c-.43.432-.984.743-1.603.903l-.375.098v1.528h-1v-1.528l-.375-.098c-.619-.16-1.173-.472-1.603-.903l-.273-.273-1.306.768-.507-.862,1.32-.775Zm9.243,4.891v1.305l-15.128,10.477h-1.88l17.009-11.782Zm-15,7.958l1-.693v-3.483h-4v-7h2.707l2.646-2.646-.707-.707-2.354,2.354H3.5c-1.378,0-2.5,1.121-2.5,2.5v6.5h.011l.022,3.177-.958,3.823h1.037l.889-3.562v-3.438h7v3.176Zm-4-4.176h-3v-5.5c0-.827.673-1.5,1.5-1.5h1.5v7Z"/>
</svg>
