<?xml version="1.0" encoding="UTF-8"?>
<svg xmlns="http://www.w3.org/2000/svg" id="Layer_1" data-name="Layer 1" viewBox="0 0 24 24">
  <path d="m18,21.535l1,1v1.465H5v-3H0v-12.5c0-1.367,1.103-2.481,2.466-2.499l.999.999h-.965c-.827,0-1.5.673-1.5,1.5v11.5h4v-6h5.465l1,1h-5.465v8h12v-1.465Zm-2-10.535h4v-1h-4v1Zm8,10h-2.293l2.246,2.246-.707.707L.047.754.754.047l4.246,4.246V0h14v6h2.5c1.379,0,2.5,1.121,2.5,2.5v12.5ZM6.707,6h11.293V1H6v4.293l.707.707Zm16.293,2.5c0-.827-.673-1.5-1.5-1.5H7.707l13,13h2.293v-11.5Z"/>
</svg>
