<?xml version="1.0" encoding="UTF-8"?>
<svg xmlns="http://www.w3.org/2000/svg" id="Layer_1" data-name="Layer 1" viewBox="0 0 24 24" width="512" height="512"><path d="M16.797,1.675c-.462-1.298-1.893-1.978-3.193-1.518l-.941,.335c-.629,.224-1.134,.679-1.42,1.281-.149,.312-.229,.645-.242,.979v-.253c0-1.379-1.122-2.5-2.5-2.5H2.5C1.122,0,0,1.121,0,2.5V24H11V2.95c.01,.246,.057,.492,.142,.73l7.005,20.342,5.846-1.998L16.797,1.675Zm-6.797,.825v2.5H6V1h2.5c.827,0,1.5,.673,1.5,1.5Zm-4,3.5h4v12H6V6Zm-1,12H1V6H5v12ZM2.5,1h2.5V5H1V2.5c0-.827,.673-1.5,1.5-1.5ZM1,19H5v4H1v-4Zm5,4v-4h4v4H6Zm15.119-6.105l-3.891,1.383-3.943-11.45,3.797-1.349,4.037,11.416ZM12.145,2.203c.172-.361,.475-.635,.853-.77l.941-.334c.166-.06,.335-.087,.501-.087,.617,0,1.197,.384,1.415,.997l.894,2.528-3.79,1.346-.873-2.534c-.134-.377-.113-.784,.059-1.146Zm5.409,17.02l3.899-1.386,1.262,3.568-3.945,1.348-1.216-3.529Z"/></svg>
