<?xml version="1.0" encoding="UTF-8"?>
<svg xmlns="http://www.w3.org/2000/svg" id="Layer_1" data-name="Layer 1" viewBox="0 0 24 24">
  <path d="m3,9c0,3.309,2.691,6,6,6s6-2.691,6-6.002l-.007-1.998h.994v-1h-.998l-.002-.552c0-3.004-2.445-5.448-5.45-5.448h-1.1C5.432,0,2.987,2.445,2.987,5.452l.002.548h-1.002v1h1.006l.007,2Zm11,0c0,2.757-2.243,5-5,5s-5-2.243-5-5.002l-.007-1.998h10l.007,2ZM3.987,5.45c0-1.944,1.26-3.582,3-4.187v2.737h1V1.045c.15-.015.296-.045.45-.045h1.1c.154,0,.3.03.45.046v2.954h1V1.263c1.74.605,3,2.244,3,4.187l.002.55H3.989l-.002-.55Zm8.013,11.55h-7c-2.206,0-4,1.794-4,4v3H0v-3c0-2.757,2.243-5,5-5h7v1Zm5-3v3h-3v3h-3v4h13v-10h-7Zm1,1h5v2h-5v-2Zm-3,3h5v2h-5v-2Zm2,5h-5v-2h5v2Zm6,0h-5v-2h5v2Zm0-3h-2v-2h2v2Z"/>
</svg>
