<?xml version="1.0" encoding="UTF-8"?>
<svg xmlns="http://www.w3.org/2000/svg" id="Layer_1" data-name="Layer 1" width="512" height="512" viewBox="0 0 24 24"><path d="M21.514,15.193l1.082-1.082-.707-.707-1.082,1.082c-.647-.518-1.441-.862-2.307-.958v-1.528h-1v1.528c-.867,.096-1.66,.44-2.307,.958l-1.082-1.082-.707,.707,1.082,1.082c-.518,.647-.862,1.441-.958,2.307h-3.056c-.096-.867-.44-1.66-.958-2.307l1.082-1.082-.707-.707-1.082,1.082c-.647-.518-1.441-.862-2.307-.958v-1.528h-1v1.528c-.867,.096-1.66,.44-2.307,.958l-1.082-1.082-.707,.707,1.082,1.082c-.518,.647-.862,1.441-.958,2.307H0v1H1.528c.096,.867,.44,1.66,.958,2.307l-1.082,1.082,.707,.707,1.082-1.082c.647,.518,1.441,.862,2.307,.958v1.528h1v-1.528c.867-.096,1.66-.44,2.307-.958l1.082,1.082,.707-.707-1.082-1.082c.518-.647,.862-1.441,.958-2.307h3.056c.096,.867,.44,1.66,.958,2.307l-1.082,1.082,.707,.707,1.082-1.082c.647,.518,1.441,.862,2.307,.958v1.528h1v-1.528c.867-.096,1.66-.44,2.307-.958l1.082,1.082,.707-.707-1.082-1.082c.518-.647,.862-1.441,.958-2.307h1.528v-1h-1.528c-.096-.867-.44-1.66-.958-2.307Zm-15.514,6.307c-1.93,0-3.5-1.57-3.5-3.5s1.57-3.5,3.5-3.5,3.5,1.57,3.5,3.5-1.57,3.5-3.5,3.5Zm12,0c-1.93,0-3.5-1.57-3.5-3.5s1.57-3.5,3.5-3.5,3.5,1.57,3.5,3.5-1.57,3.5-3.5,3.5Zm3-14.5h-.759L15.415,.942c-.477-.599-1.189-.942-1.955-.942h-4.459V7H0v5.721c.306-.348,.639-.67,1-.96v-3.76H21c1.103,0,2,.897,2,2v1.76c.361,.29,.694,.613,1,.96v-2.721c0-1.654-1.346-3-3-3ZM10,1h3.459c.459,0,.887,.206,1.173,.565l4.33,5.435H10V1Z"/></svg>
