<?xml version="1.0" encoding="UTF-8"?>
<svg xmlns="http://www.w3.org/2000/svg" id="Layer_1" data-name="Layer 1" viewBox="0 0 24 24">
  <path d="m21.5,0H2.5C1.122,0,0,1.122,0,2.5v21.5h12V6.796c2.012,5.755,6.523,8.105,8.462,8.873-1.224,1.065-3.462,3.589-3.462,7.831v.5h7V2.5c0-1.378-1.121-2.5-2.5-2.5ZM2.5,1h8.5v11H1V2.5c0-.827.673-1.5,1.5-1.5Zm-1.5,22v-10h10v10H1ZM12.024,1h1.996c.204,6.249,4.131,9.681,6.981,11v-1.108c-2.556-1.293-5.79-4.47-5.982-9.892h2.013c.165,3.756,2.105,6.354,3.968,7.544v-1.179c-1.461-1.098-2.83-3.368-2.972-6.365h3.472c.827,0,1.5.673,1.5,1.5v12.5h-1.436c-.857-.234-9.286-2.847-9.541-14Zm5.988,22c.206-4.424,3.098-6.626,3.66-7.013l1.329.01v7.004h-4.988Zm-15.012-5h6v-3H3v3Zm1-2h4v1h-4v-1Z"/>
</svg>
