<?xml version="1.0" encoding="UTF-8"?>
<svg xmlns="http://www.w3.org/2000/svg" id="Layer_1" data-name="Layer 1" viewBox="0 0 24 24">
  <path d="m24.001,23.294l-6.589-6.589c1.607-1.775,2.588-4.128,2.588-6.705C20,4.486,15.514,0,10,0S0,4.486,0,10s4.486,10,10,10c2.578,0,4.93-.98,6.705-2.588l6.589,6.589.707-.707Zm-14.001-4.294c-4.962,0-9-4.038-9-9S5.038,1,10,1s9,4.038,9,9-4.038,9-9,9Zm-1-11c-1.103,0-2,.897-2,2s.897,2,2,2,2-.897,2-2-.897-2-2-2Zm0,3c-.551,0-1-.449-1-1s.449-1,1-1,1,.449,1,1-.449,1-1,1Zm4.206-4.34c-.916-1.671-2.47-2.66-4.206-2.66-2.757,0-5,2.243-5,5v.5c0,3.584,2.916,6.5,6.5,6.5,2.057,0,3.75-1.474,3.913-3.398.947-.607,1.587-1.739,1.587-2.852,0-1.519-1.183-2.806-2.794-3.09Zm.493,5.201l-.27.19v.306c0,1.433-1.341,2.643-2.929,2.643-3.033,0-5.5-2.467-5.5-5.5v-.5c0-2.206,1.794-4,4-4,1.427,0,2.71.875,3.433,2.34l.122.248.275.028c1.066.109,2.17.937,2.17,2.133,0,.838-.547,1.726-1.302,2.11Z"/>
</svg>
