<?xml version="1.0" encoding="UTF-8"?>
<svg xmlns="http://www.w3.org/2000/svg" id="Layer_1" data-name="Layer 1" viewBox="0 0 24 24" width="512" height="512"><path d="M12,2C5.271,2,0,4.855,0,8.5v7c0,3.645,5.271,6.5,12,6.5s12-2.855,12-6.5v-7c0-3.645-5.271-6.5-12-6.5Zm0,1c5.962,0,11,2.519,11,5.5s-5.038,5.5-11,5.5S1,11.481,1,8.5,6.038,3,12,3ZM7,14.423v5.949c-1.124-.296-2.136-.687-3-1.149v-5.849c.889,.427,1.896,.781,3,1.049Zm1,.213c1.098,.204,2.272,.325,3.5,.351v6c-1.224-.029-2.402-.161-3.5-.383v-5.968Zm4.5,.351c1.228-.026,2.402-.147,3.5-.351v5.968c-1.098,.222-2.276,.354-3.5,.383v-6Zm4.5-.563c1.104-.268,2.111-.623,3-1.049v5.849c-.864,.462-1.876,.853-3,1.149v-5.949ZM1,15.5v-4.365c.501,.627,1.18,1.196,2,1.698v5.779c-1.253-.892-2-1.967-2-3.111Zm22,0c0,1.145-.747,2.219-2,3.111v-5.779c.82-.501,1.499-1.071,2-1.698v4.365Z"/></svg>
