<?xml version="1.0" encoding="UTF-8"?>
<svg xmlns="http://www.w3.org/2000/svg" id="Layer_1" data-name="Layer 1" viewBox="0 0 24 24">
  <path d="m12,15v-1h-3v-4h3v-1h-3v-3h-1v3h-4v-3h-1v3H0v1h3v4H0v1h3v3h1v-3h4v3h1v-3h3Zm-8-1v-4h4v4h-4Zm9.06,7h10.94v1h-12v-.5c0-2.25,2.479-4.146,5.105-6.154,2.898-2.217,5.895-4.509,5.895-7.346,0-2.757-2.243-5-5-5-2.414,0-4.435,1.721-4.899,4h-1.017c.477-2.834,2.948-5,5.916-5,3.309,0,6,2.691,6,6,0,3.33-3.34,5.886-6.288,8.14-2.193,1.678-4.277,3.271-4.652,4.86Z"/>
</svg>
