<?xml version="1.0" encoding="UTF-8"?>
<svg xmlns="http://www.w3.org/2000/svg" id="Layer_1" data-name="Layer 1" viewBox="0 0 24 24">
  <path d="m21.5,1H2.5C1.122,1,0,2.122,0,3.5v19.5h24V3.5c0-1.378-1.122-2.5-2.5-2.5Zm1.5,2.5v3.5h-6.168l4.97-4.97c.683.14,1.198.746,1.198,1.47Zm-7.418-1.5h4.836l-4.959,4.959.041.041h-4.918l5-5Zm-6.332,5h-4.918l5-5h4.836l-4.959,4.959.041.041ZM2.5,2h5.418L2.918,7h-1.918v-3.5c0-.827.673-1.5,1.5-1.5Zm-1.5,20v-14h22v14H1Zm8-2.617l7.305-4.383-7.305-4.383v8.767Zm1-7l4.362,2.617-4.362,2.617v-5.233Z"/>
</svg>
