<?xml version="1.0" encoding="UTF-8"?>
<svg xmlns="http://www.w3.org/2000/svg" id="Layer_1" data-name="Layer 1" viewBox="0 0 24 24" width="512" height="512"><path d="M10,4c-1.336,0-2.592,.521-3.535,1.465-.944,.944-1.465,2.199-1.465,3.535s.521,2.591,1.469,3.539l3.531,3.454,3.535-3.458c.944-.944,1.465-2.199,1.465-3.535s-.521-2.591-1.465-3.535-2.2-1.465-3.535-1.465Zm2.832,7.824l-2.832,2.771-2.828-2.767c-.756-.755-1.172-1.76-1.172-2.828s.416-2.073,1.172-2.828c.755-.756,1.76-1.172,2.828-1.172s2.072,.416,2.828,1.172c.756,.755,1.172,1.76,1.172,2.828s-.416,2.073-1.168,2.824Zm-1.832-2.831c0,.552-.448,1-1,1s-1-.448-1-1,.448-1,1-1,1,.448,1,1Zm13.001,14.3l-6.597-6.597c1.607-1.775,2.596-4.12,2.596-6.697C20,4.486,15.514,0,10,0S0,4.486,0,10s4.486,10,10,10c2.577,0,4.922-.989,6.697-2.596l6.597,6.597,.707-.707ZM1,10C1,5.037,5.037,1,10,1s9,4.037,9,9-4.037,9-9,9S1,14.963,1,10Z"/></svg>
