<?xml version="1.0" encoding="UTF-8"?>
<svg xmlns="http://www.w3.org/2000/svg" id="Layer_1" data-name="Layer 1" viewBox="0 0 24 24">
  <path d="m12,0C5.383,0,0,5.383,0,12s5.383,12,12,12,12-5.383,12-12S18.617,0,12,0Zm0,23c-6.065,0-11-4.935-11-11S5.935,1,12,1s11,4.935,11,11-4.935,11-11,11Zm4.5-11.5h2.5v1h-2.5v2.5h-1v-2.5h-2.5v-1h2.5v-2.5h1v2.5Zm-4.5,2.5c0,1.654-1.346,3-3,3h-3v-1h3c1.103,0,2-.897,2-2s-.897-2-2-2h-2v-1h2c.827,0,1.5-.673,1.5-1.5s-.673-1.5-1.5-1.5h-3v-1h3c1.379,0,2.5,1.122,2.5,2.5,0,.79-.375,1.487-.949,1.945.865.527,1.449,1.47,1.449,2.555Z"/>
</svg>
