<?xml version="1.0" encoding="UTF-8"?>
<svg xmlns="http://www.w3.org/2000/svg" id="Layer_1" data-name="Layer 1" viewBox="0 0 24 24">
  <path d="m23.207,19.379l-8.069-8.068-1.562,1.578-5.576-5.576V3.147L2.613.049.029,2.632l3.099,5.388h4.165l5.579,5.579-1.543,1.558,8.05,8.05c.511.512,1.191.793,1.914.793s1.403-.281,1.914-.793c.511-.511.793-1.19.793-1.914s-.282-1.402-.793-1.914ZM7,7.02h-3.294L1.278,2.798l1.5-1.501,4.222,2.429v3.294Zm15.5,15.48c-.645.645-1.77.645-2.414,0l-7.346-7.347,2.402-2.425,7.358,7.357c.322.322.5.751.5,1.207s-.178.885-.5,1.207Zm-12.595-5.961l.707.707-5.955,5.955c-.532.532-1.23.798-1.929.798s-1.397-.266-1.929-.798c-1.063-1.063-1.063-2.795,0-3.858l7.493-7.493.707.707-7.493,7.493c-.673.674-.673,1.771,0,2.444.674.675,1.771.673,2.444,0l5.955-5.955Zm.137-10.013l-.848-.848c.817-3.257,3.76-5.678,7.267-5.678,1.18,0,2.317.272,3.38.811l.611.31-4.005,4.055c-.314.314-.486.729-.486,1.171s.172.857.484,1.17c.644.645,1.694.645,2.339,0l4.02-4.068.316.611c.558,1.077.841,2.235.841,3.441,0,2.657-1.393,4.99-3.482,6.322l-.727-.727c1.917-1.132,3.209-3.213,3.209-5.596,0-.811-.148-1.596-.44-2.344l-3.028,3.064c-1.037,1.037-2.72,1.035-3.755.002-.501-.501-.777-1.167-.777-1.877s.276-1.375.777-1.876l3.012-3.05c-.733-.279-1.5-.42-2.29-.42-3.252,0-5.946,2.404-6.419,5.526Z"/>
</svg>
