<?xml version="1.0" encoding="UTF-8"?>
<svg xmlns="http://www.w3.org/2000/svg" id="Layer_1" data-name="Layer 1" viewBox="0 0 24 24">
  <path d="m21,21v3h-1v-3c0-1.668-1.023-3.127-2.576-3.717l-5.424,5.424-5.42-5.42c-1.548.592-2.567,2.05-2.567,3.713v3h-1v-3c0-2.462,1.716-4.207,3.842-4.853l5.146,5.146,5.147-5.148c2.133.642,3.853,2.202,3.853,4.855ZM10,4.433l-.048-1.753,2.048-.68,2,.612v1.82c0,1.332-1.468,2.187-1.997,2.443-.662-.376-2.003-1.307-2.003-2.443Zm.972-1.038l.028,1.024c0,.556.638,1.058,1.038,1.317.4-.235.962-.676.962-1.304v-1.08l-.988-.304-1.04.346Zm-4.959,2.855l-2-1.5v-2.619L10.168.231c1.215-.306,2.474-.305,3.664-.008l.026.008,6.154,1.899v2.619l-2,1.5v2.75c0,3.309-2.691,6-6,6s-6-2.691-6-6v-2.75Zm11,2.029c-.848.315-2.437.721-5,.721s-4.152-.405-5-.721v.721c0,2.757,2.243,5,5,5s5-2.243,5-5v-.721Zm-10-2.529v1.448c.534.246,2.067.802,5,.802s4.462-.555,5-.802v-1.448l2-1.5v-1.381l-5.436-1.679c-1.027-.253-2.113-.253-3.141.004l-5.424,1.675v1.381l2,1.5Z"/>
</svg>
