<?xml version="1.0" encoding="UTF-8"?>
<svg xmlns="http://www.w3.org/2000/svg" id="Layer_1" data-name="Layer 1" viewBox="0 0 24 24">
  <path d="m15.446,7.567l-2.197,1.269c-.544-.689-1.341-1.17-2.249-1.3v-2.536h-1v2.536c-.908.13-1.705.611-2.249,1.3l-2.197-1.269-.5.865,2.197,1.268c-.161.402-.25.84-.25,1.299s.089.897.25,1.299l-2.197,1.268.5.865,2.197-1.269c.544.689,1.341,1.17,2.249,1.3v2.536h1v-2.536c.908-.13,1.705-.611,2.249-1.3l2.197,1.269.5-.865-2.197-1.268c.161-.402.25-.84.25-1.299s-.089-.897-.25-1.299l2.197-1.268-.5-.865Zm-4.946,5.933c-1.378,0-2.5-1.121-2.5-2.5s1.122-2.5,2.5-2.5,2.5,1.121,2.5,2.5-1.122,2.5-2.5,2.5Zm12.359-2.787c-1.07-2.572-2.081-5.002-3.141-6.312C17.114.924,12.827-.661,8.532.261,4.138,1.208.844,4.711.139,9.185c-.515,3.27.326,6.515,2.305,8.905.358.432.556.986.556,1.561v4.35h13v-3h2.358c1.189,0,2.221-.847,2.452-2.013l.793-3.987h2.396v-1.5s-.775-1.907-1.141-2.787Zm.141,3.287h-2.217l-.953,4.792c-.139.7-.758,1.208-1.472,1.208h-3.358v3H4v-3.35c0-.807-.279-1.588-.786-2.199-1.797-2.169-2.557-5.125-2.087-8.11C1.767,5.277,4.756,2.098,8.742,1.239c3.908-.843,7.808.601,10.188,3.776.981,1.213,2.011,3.688,3.006,6.081.354.853.709,1.705,1.064,2.509v.395Z"/>
</svg>
