<?xml version="1.0" encoding="UTF-8"?>
<svg xmlns="http://www.w3.org/2000/svg" id="Layer_1" data-name="Layer 1" viewBox="0 0 24 24">
  <path d="m11,3C6.589,3,3,6.589,3,11s3.589,8,8,8,8-3.589,8-8S15.411,3,11,3Zm0,15c-3.86,0-7-3.141-7-7s3.14-7,7-7,7,3.141,7,7-3.14,7-7,7Zm0-12c-2.757,0-5,2.243-5,5s2.243,5,5,5,5-2.243,5-5-2.243-5-5-5Zm0,9c-2.206,0-4-1.794-4-4s1.794-4,4-4,4,1.794,4,4-1.794,4-4,4Zm0-6c-1.103,0-2,.897-2,2s.897,2,2,2,2-.897,2-2-.897-2-2-2Zm0,3c-.551,0-1-.448-1-1s.449-1,1-1,1,.448,1,1-.449,1-1,1Zm12.693,3.495c-.267-.314-.656-.495-1.069-.495h-.624v-4C22,4.935,17.065,0,11,0S0,4.935,0,11s4.935,11,11,11c2.416,0,4.645-.792,6.461-2.117l-.16-1.127c-1.721,1.401-3.914,2.244-6.301,2.244-5.514,0-10-4.486-10-10S5.486,1,11,1s10,4.486,10,10v4h-.599c-.413,0-.803.181-1.069.496-.267.314-.38.729-.314,1.123l1.048,7.381h2.867l1.073-7.369c.068-.407-.046-.821-.313-1.136Zm-1.625,7.505h-1.133l-.928-6.533c-.027-.159.044-.272.089-.325s.144-.142.306-.142h2.223c.162,0,.261.089.306.142s.116.166.088.335l-.951,6.523Z"/>
</svg>
