<?xml version="1.0" encoding="UTF-8"?>
<svg xmlns="http://www.w3.org/2000/svg" id="Layer_1" data-name="Layer 1" viewBox="0 0 24 24" width="512" height="512"><path d="m20.98,3.032C20.727.969,18.824.003,17.509.003c-.911,0-1.5.549-1.5,1.398v5.604c-1.451.011-2.782.073-4,.193v-3.196h-.5c-3.059,0-6.271,1.111-8.093,2.062-.865.452-1.402,1.335-1.402,2.304v3.999C.571,14.911.009,18.517.009,23.503v.5h.5c8.214,0,12.681-1.525,14.827-6h2.365c.99,0,1.844-.696,2.03-1.654.192-.976.277-1.854.277-2.846v-.5h-3.311c.197-1.481.294-3.142.309-5h5.604c.85,0,1.398-.589,1.398-1.5,0-1.315-.966-3.218-3.028-3.472ZM3.014,8.369c0-.595.332-1.138.865-1.417.365-.191,3.541-1.797,7.13-1.938v2.301c-3.697.492-6.272,1.609-7.995,3.621v-2.567Zm-2.003,14.633c.086-11.732,3.264-14.91,14.996-14.996-.086,11.732-3.264,14.91-14.996,14.996Zm17.99-8.998c-.024.729-.104,1.41-.251,2.154-.095.49-.536.846-1.049.846h-1.942c.333-.895.592-1.892.786-3h2.456Zm3.609-7h-5.602V1.401c0-.149,0-.398.5-.398.783,0,2.5.629,2.5,2.5v.5h.5c1.87,0,2.5,1.717,2.5,2.5,0,.5-.249.5-.398.5ZM6.362,12.649l5.001,5-.707.707-5.001-5,.707-.707Zm7.001,1l-.707.707-3-3,.707-.707,3,3Zm-9.001,3l3,3-.707.707-3-3,.707-.707Z"/></svg>
