<?xml version="1.0" encoding="UTF-8"?>
<svg xmlns="http://www.w3.org/2000/svg" id="Layer_1" data-name="Layer 1" viewBox="0 0 24 24">
  <path d="m22,0c-1.103,0-2.063.708-2.388,1.761-.145.468-.318,1.053-.514,1.726-.26-.078-1.155-.336-1.444-.435l-.322.947c.306.104,1.228.371,1.489.449-.117.406-.921,2.964-1.083,3.445-.312-.094-1.265-.37-1.557-.469l-.322.946c.308.105,1.266.383,1.555.47-1.263,3.623-3.459,9.16-5.413,9.16-1.103,0-2-.897-2-2v-3c0-1.103.897-2,2-2v-1H0v1c1.103,0,2,.897,2,2v3.961c0,3.824,3.111,6.981,6.992,7.039.029,0,.059,0,.088,0,2.801,0,5.615-2.095,6.573-4.907.476-1.397,1.585-5.347,2.657-9.165.904-3.218,1.758-6.257,2.257-7.873.195-.631.771-1.056,1.433-1.056h2.024V0h-2.024Zm-7.294,18.771c-.82,2.408-3.31,4.253-5.756,4.228-3.281-.048-5.95-2.757-5.95-6.038v-3.961c0-.768-.29-1.469-.766-2h7.532c-.476.531-.766,1.232-.766,2v3c0,1.654,1.346,3,3,3,1.319,0,2.546-1.371,3.679-3.449-.415,1.436-.76,2.595-.973,3.22Z"/>
</svg>
