<?xml version="1.0" encoding="UTF-8"?>
<svg xmlns="http://www.w3.org/2000/svg" id="Layer_1" data-name="Layer 1" viewBox="0 0 24 24">
  <path d="m12.5,4h-1V0h1v4ZM17,0h-1v4h1V0Zm-9,0h-1v4h1V0Zm9.791,17.581l3.209,6.419h-1.041l-1-2h-8.959v-1h8.459l-1.504-3.009-.02.009-9.872-.044-.615,1.231c.91.374,1.552,1.27,1.552,2.313,0,1.378-1.121,2.5-2.5,2.5s-2.5-1.122-2.5-2.5,1.121-2.5,2.5-2.5l.709-1.419C2.358,15.497,0,11.329,0,6.5v-.5h24v.5c0,4.829-2.358,8.997-6.209,11.081Zm-12.291,2.419c-.827,0-1.5.673-1.5,1.5s.673,1.5,1.5,1.5,1.5-.673,1.5-1.5-.673-1.5-1.5-1.5ZM22.991,7H1.009c.164,4.484,2.533,8.277,6.272,10h9.438c3.739-1.723,6.108-5.516,6.272-10Z"/>
</svg>
