<?xml version="1.0" encoding="UTF-8"?>
<svg xmlns="http://www.w3.org/2000/svg" id="Layer_1" data-name="Layer 1" viewBox="0 0 24 24">
  <path d="m16.532,15.825l3.127-4.675c.42-.634.457-1.411.097-2.081s-1.027-1.069-1.788-1.069h-4.832L15.091,0h-2.477l-4.665,7.242L.704-.004-.003.703l23.3,23.301.707-.707-7.471-7.472ZM13.159,1h.659l-1.955,8h6.105c.386,0,.725.203.907.542.182.34.164.734-.048,1.054l-3.016,4.508-7.139-7.139L13.159,1Zm.951,16.646l.721.721-3.769,5.633h-2.484l2.115-8h-4.639c-.757,0-1.451-.416-1.81-1.085-.358-.667-.323-1.439.092-2.065l1.95-3.028.723.723-1.837,2.851c-.212.32-.229.709-.048,1.046.188.349.535.558.929.558h5.41l.417.417-2.005,7.583h.651l3.582-5.354Z"/>
</svg>
