<?xml version="1.0" encoding="UTF-8"?>
<svg xmlns="http://www.w3.org/2000/svg" id="Layer_1" data-name="Layer 1" viewBox="0 0 24 24" width="512" height="512"><path d="m21.5,0H2.5C1.121,0,0,1.122,0,2.5v17.5h7.105l3.898,3.284c.285.253.645.379,1.001.379.352,0,.702-.123.978-.368l3.985-3.295h7.032V2.5c0-1.378-1.121-2.5-2.5-2.5Zm1.5,19h-6.392l-4.276,3.536c-.189.168-.474.169-.674-.008l-4.188-3.527H1V2.5c0-.827.673-1.5,1.5-1.5h19c.827,0,1.5.673,1.5,1.5v16.5ZM13.732,4.732l-7.732,7.732v3.536h3.535l7.732-7.732c.473-.472.732-1.1.732-1.768s-.26-1.296-.732-1.768c-.975-.975-2.561-.976-3.535,0Zm2.828,2.828l-7.439,7.439h-2.121v-2.122l7.439-7.439c.584-.585,1.537-.585,2.121,0,.283.283.439.66.439,1.061s-.156.777-.439,1.061Z"/></svg>
