<?xml version="1.0" encoding="UTF-8"?>
<svg xmlns="http://www.w3.org/2000/svg" id="Layer_1" data-name="Layer 1" viewBox="0 0 24 24" width="512" height="512"><path d="M17.896,11.256c-1.224-1.228-1.223-3.223,.003-4.448l3.852-3.851,1.522,1.522,.707-.707L20.229,.021l-.707,.707,1.521,1.521-3.852,3.851c-1.227,1.225-3.222,1.226-4.448,.004l-.354-.353L.277,17.865S-.008,18.744-.002,19.677c.006,.952,.256,2.137,1.222,3.103,.978,.978,2.18,1.222,3.137,1.222,.917,0,1.779-.28,1.779-.28l12.112-12.112-.353-.354ZM5.603,22.84c-.468,.122-2.385,.524-3.676-.767-1.291-1.291-.891-3.208-.768-3.676L9.311,10.246c.568,.615,.689,1.382,.689,1.927v1.827h1.918c.51,.006,1.234,.132,1.836,.689L5.603,22.84ZM14.461,13.982c-.668-.632-1.541-.971-2.537-.982h-.924v-.827c0-1.046-.339-1.954-.982-2.634l2.394-2.394c1.077,.842,2.479,1.077,3.738,.705-.373,1.259-.138,2.661,.705,3.739l-2.394,2.394Zm6.539,4.018c-1.654,0-3,1.346-3,3s1.346,3,3,3,3-1.346,3-3-1.346-3-3-3Zm0,5c-1.103,0-2-.897-2-2s.897-2,2-2,2,.897,2,2-.897,2-2,2Z"/></svg>
