<?xml version="1.0" encoding="UTF-8"?>
<svg xmlns="http://www.w3.org/2000/svg" id="Layer_1" data-name="Layer 1" viewBox="0 0 24 24" width="512" height="512"><path d="M10.17,23.993c-3.542,0-7.083-1.348-9.78-4.044l-.354-.354L19.596,.036l.354,.354c5.393,5.393,5.393,14.167,0,19.56-2.696,2.696-6.238,4.044-9.779,4.044ZM1.458,19.589c5.026,4.651,12.901,4.536,17.785-.347,4.884-4.884,5-12.759,.347-17.785L1.458,19.589ZM19.258,10.499c-.446,0-.893-.17-1.232-.51-.553-.553-.918-2.358-1.018-2.899l-.13-.712,.712,.13c.541,.1,2.347,.465,2.899,1.018,.68,.68,.68,1.784,0,2.464-.34,.34-.786,.51-1.231,.51Zm-1.108-2.85c.181,.753,.415,1.464,.583,1.633,.29,.291,.763,.289,1.05,0,.289-.289,.289-.761,0-1.05-.169-.168-.88-.402-1.633-.583Zm.108,8.35c-.446,0-.893-.17-1.232-.51-.553-.553-.918-2.358-1.018-2.899l-.13-.712,.712,.13c.541,.1,2.347,.465,2.899,1.018,.68,.68,.68,1.784,0,2.464-.34,.34-.786,.51-1.231,.51Zm-1.108-2.85c.181,.753,.415,1.464,.583,1.633,.291,.29,.762,.288,1.05,0s.289-.761,0-1.05c-.169-.168-.88-.402-1.633-.583Zm-8.392,7.85c-.446,0-.892-.17-1.232-.51-.553-.553-.918-2.358-1.017-2.899l-.13-.712,.712,.13c.541,.1,2.347,.465,2.9,1.018,.679,.68,.679,1.784,0,2.464-.339,.34-.786,.51-1.232,.51Zm-1.108-2.851c.181,.754,.415,1.465,.583,1.634,.291,.29,.761,.289,1.05,0s.289-.761,0-1.05c-.168-.169-.88-.402-1.634-.584Zm6.609,1.851c-.446,0-.893-.17-1.232-.51-.553-.553-.918-2.358-1.017-2.899l-.13-.712,.712,.13c.541,.1,2.347,.465,2.899,1.018,.68,.68,.68,1.784,0,2.464-.34,.34-.786,.51-1.231,.51Zm-1.108-2.85c.181,.753,.415,1.464,.583,1.633,.29,.291,.762,.289,1.05,0,.289-.289,.289-.761,0-1.05-.169-.168-.88-.402-1.633-.583Z"/></svg>
