<?xml version="1.0" encoding="UTF-8"?>
<svg xmlns="http://www.w3.org/2000/svg" id="Layer_1" data-name="Layer 1" viewBox="0 0 24 24" width="512" height="512"><path d="m13.679,15.632c-.716.331-1.179,1.119-1.179,2.008v1.36h-1v-1.36c0-1.277.69-2.422,1.759-2.916,1.34-.62,2.013-2.072,1.637-3.53-.26-1.008-1.08-1.827-2.087-2.088-.938-.242-1.901-.054-2.643.521-.741.573-1.166,1.438-1.166,2.374h-1c0-1.247.566-2.4,1.553-3.165s2.263-1.02,3.505-.698c1.354.351,2.456,1.452,2.806,2.807.499,1.934-.4,3.861-2.186,4.688Zm-1.679,5.368c-.552,0-1,.448-1,1s.448,1,1,1,1-.448,1-1-.448-1-1-1Zm5.002-13.978c-1.132-3.019-4.003-5.022-7.252-5.022-4.273,0-7.75,3.477-7.75,7.75,0,.763.116,1.523.345,2.267-1.476,1.032-2.345,2.681-2.345,4.483,0,3.032,2.467,5.5,5.5,5.5h3.5v-1h-3.5c-2.481,0-4.5-2.019-4.5-4.5,0-1.582.822-3.021,2.2-3.847l.354-.212-.141-.388c-.273-.752-.412-1.527-.412-2.304,0-3.722,3.028-6.75,6.75-6.75,2.931,0,5.51,1.873,6.417,4.661l.11.339.355.007c3.511.071,6.368,2.984,6.368,6.493,0,3.584-2.916,6.5-6.5,6.5h-1.5v1h1.5c4.136,0,7.5-3.364,7.5-7.5,0-3.933-3.108-7.216-6.998-7.478Z"/></svg>
