<?xml version="1.0" encoding="UTF-8"?>
<svg xmlns="http://www.w3.org/2000/svg" id="Layer_1" data-name="Layer 1" viewBox="0 0 24 24">
  <path d="m12.001,12.978c-.243,0-.487-.086-.681-.257l-1.978-1.743h-4.343V2.5c0-1.379,1.122-2.5,2.5-2.5h9c1.378,0,2.5,1.121,2.5,2.5v8.478h-4.306l-2.019,1.746c-.191.169-.432.254-.674.254Zm-6.001-3h3.721l2.261,1.993,2.34-1.993h3.678V2.5c0-.827-.673-1.5-1.5-1.5H7.5c-.827,0-1.5.673-1.5,1.5v7.478Zm6.133-2.407l3.866-3.823-.703-.711-3.865,3.823c-.193.19-.507.191-.699.003l-2.188-2.149-.701.713,2.189,2.15c.29.283.668.424,1.048.424.382,0,.764-.143,1.054-.43Zm-6.473,9.211l.732,2.139h-1.784l.725-2.121c.023-.047.112-.102.167-.102.057,0,.142.047.16.083Zm2.637,4.362l-1.603-4.772c-.286-.647-.685-.784-1.194-.784-.509,0-.909.137-1.202.804l-1.595,4.751h1.145l.38-1.111h2.544l.38,1.111h1.145Zm-2.797,2.857c-3.033,0-5.5-2.468-5.5-5.5s2.467-5.5,5.5-5.5,5.5,2.468,5.5,5.5-2.467,5.5-5.5,5.5Zm0-10c-2.481,0-4.5,2.019-4.5,4.5s2.019,4.5,4.5,4.5,4.5-2.019,4.5-4.5-2.019-4.5-4.5-4.5Zm13,10c-3.033,0-5.5-2.468-5.5-5.5s2.467-5.5,5.5-5.5,5.5,2.468,5.5,5.5-2.467,5.5-5.5,5.5Zm0-10c-2.481,0-4.5,2.019-4.5,4.5s2.019,4.5,4.5,4.5,4.5-2.019,4.5-4.5-2.019-4.5-4.5-4.5Zm2.007,4.128c.137-.242.215-.521.215-.818,0-.919-.748-1.667-1.667-1.667h-1.587c-.656,0-1.19.534-1.19,1.19v3.175c0,.656.534,1.19,1.19,1.19h2.143c.919,0,1.667-.748,1.667-1.667,0-.589-.308-1.108-.77-1.404Zm-3.118-1.294c0-.043.035-.079.079-.079h1.587c.307,0,.556.25.556.556s-.249.556-.556.556h-1.667v-1.032Zm2.222,3.254h-2.143c-.044,0-.079-.036-.079-.079v-1.032h2.222c.307,0,.556.25.556.556s-.249.556-.556.556Z"/>
</svg>
