<?xml version="1.0" encoding="UTF-8"?>
<svg xmlns="http://www.w3.org/2000/svg" id="Layer_1" data-name="Layer 1" viewBox="0 0 24 24" width="512" height="512"><path d="m1,12H0C0,5.383,5.383,0,12,0c4.034,0,7.717,1.971,9.955,5.297.029-.094.045-.194.045-.297V0h1v5c0,1.103-.897,2-2,2h-5v-1h5c.071,0,.14-.008.207-.022-2.044-3.124-5.46-4.978-9.207-4.978C5.935,1,1,5.935,1,12Zm22,0c0,6.065-4.935,11-11,11-3.746,0-7.163-1.854-9.207-4.978.067-.014.136-.022.207-.022h5v-1H3c-1.103,0-2,.897-2,2v5h1v-5c0-.103.016-.203.045-.297,2.238,3.326,5.921,5.297,9.955,5.297,6.617,0,12-5.383,12-12h-1Zm-10.5-7h-1v10h1V5Zm-1.5,13c0,.552.448,1,1,1s1-.448,1-1-.448-1-1-1-1,.448-1,1Z"/></svg>
