<?xml version="1.0" encoding="UTF-8"?>
<svg xmlns="http://www.w3.org/2000/svg" id="Layer_1" data-name="Layer 1" viewBox="0 0 24 24">
  <path d="m23.575,15.16c-6.504-.987-9.669,2.814-11.075,5.534v-4.688c.506-.436,1.881-1.756,2.148-3.447,1.848.562,3.939-.258,4.038-.298l.354-.142-.044-.38c-.012-.095-.266-2.148-1.509-3.507,1.243-1.359,1.497-3.412,1.509-3.507l.044-.38-.354-.142c-.099-.04-2.18-.86-4.034-.299-.307-2.042-2.257-3.568-2.347-3.638l-.305-.235-.305.235c-.09.069-2.04,1.596-2.348,3.638-1.846-.561-3.935.26-4.033.299l-.355.142.044.38c.011.094.265,2.137,1.499,3.496-1.234,1.358-1.487,3.401-1.499,3.495l-.044.38.355.142c.1.04,2.188.86,4.034.299.258,1.701,1.644,3.031,2.152,3.469v4.688c-1.406-2.72-4.571-6.521-11.075-5.534l-.449.068.025.453c.149,2.746,1.134,4.86,2.927,6.285,2.128,1.69,4.921,2.039,6.862,2.039,1.113,0,1.943-.114,2.21-.157.267.042,1.096.157,2.21.157,1.941,0,4.734-.349,6.862-2.039,1.793-1.425,2.777-3.54,2.927-6.285l.024-.453-.448-.068Zm-13.269-3.165v-1.031l-.739.403c-1.178.643-2.779.286-3.501.069.141-.674.533-2.048,1.476-2.833l.462-.384-.462-.384c-.939-.781-1.333-2.158-1.475-2.833.722-.216,2.322-.574,3.5.07l.739.403v-1.036c0-1.371,1.134-2.596,1.694-3.117.56.52,1.693,1.74,1.693,3.117v1.036l.739-.403c1.178-.644,2.779-.286,3.502-.069-.142.677-.536,2.06-1.487,2.842l-.47.386.47.386c.947.779,1.343,2.165,1.486,2.842-.724.217-2.323.572-3.501-.068l-.739-.403v1.007c0,1.37-1.133,2.595-1.693,3.116-.56-.521-1.693-1.746-1.693-3.116Zm-6.76,9.186c-1.458-1.16-2.303-2.872-2.514-5.094,7.351-.872,9.764,4.99,10.333,6.833-1.412.146-5.248.307-7.82-1.739Zm16.907,0c-2.573,2.045-6.407,1.884-7.821,1.739.571-1.843,2.972-7.701,10.333-6.833-.211,2.222-1.055,3.934-2.513,5.094Zm-8.454-11.681c-.552,0-1-.448-1-1s.448-1,1-1,1,.448,1,1-.448,1-1,1Z"/>
</svg>
