<?xml version="1.0" encoding="UTF-8"?>
<svg xmlns="http://www.w3.org/2000/svg" id="Layer_1" data-name="Layer 1" viewBox="0 0 24 24">
  <path d="m3.5,20c1.103,0,2-.897,2-2s-.897-2-2-2-2,.897-2,2,.897,2,2,2Zm0-3c.551,0,1,.448,1,1s-.449,1-1,1-1-.448-1-1,.449-1,1-1Zm6.5,1c0,1.103.897,2,2,2s2-.897,2-2-.897-2-2-2-2,.897-2,2Zm3,0c0,.552-.449,1-1,1s-1-.448-1-1,.449-1,1-1,1,.448,1,1Zm-1-14c1.103,0,2-.897,2-2s-.897-2-2-2-2,.897-2,2,.897,2,2,2Zm0-3c.551,0,1,.448,1,1s-.449,1-1,1-1-.448-1-1,.449-1,1-1Zm6.5,17c0,1.103.897,2,2,2s2-.897,2-2-.897-2-2-2-2,.897-2,2Zm3,0c0,.552-.449,1-1,1s-1-.448-1-1,.449-1,1-1,1,.448,1,1ZM4,14h-1v-2c0-1.103.897-2,2-2h14c1.103,0,2,.897,2,2v2h-1v-2c0-.552-.449-1-1-1h-6.5v3h-1v-3h-6.5c-.551,0-1,.448-1,1v2Zm3,9v1h-1v-1c0-.552-.449-1-1-1h-3c-.551,0-1,.448-1,1v1H0v-1c0-1.103.897-2,2-2h3c1.103,0,2,.897,2,2Zm17,0v1h-1v-1c0-.552-.449-1-1-1h-3c-.551,0-1,.448-1,1v1h-1v-1c0-1.103.897-2,2-2h3c1.103,0,2,.897,2,2Zm-8.5,0v1h-1v-1c0-.552-.449-1-1-1h-3c-.551,0-1,.448-1,1v1h-1v-1c0-1.103.897-2,2-2h3c1.103,0,2,.897,2,2Zm-6-15h-1v-1c0-1.103.897-2,2-2h3c1.103,0,2,.897,2,2v1h-1v-1c0-.552-.449-1-1-1h-3c-.551,0-1,.448-1,1v1Z"/>
</svg>
