<?xml version="1.0" encoding="UTF-8"?>
<svg xmlns="http://www.w3.org/2000/svg" id="Layer_1" data-name="Layer 1" viewBox="0 0 24 24" width="512" height="512"><path d="M20.802,6.199c-.618-2.059-2.626-3.426-4.814-3.169-.992-1.853-2.928-3.03-5.033-3.03-3.101,0-5.655,2.201-5.929,5h-.025v.023C2.201,5.276,0,7.636,0,10.5c0,3.033,2.468,5.5,5.5,5.5,.062,0,.125-.001,.187-.003,.541,1.312,1.313,3.828,1.313,7.503v.5h10v-.5c0-4.974,1.419-7.847,1.815-8.552,.171,.026,.636,.052,.685,.052,2.481,0,4.5-2.019,4.5-4.5,0-2.004-1.301-3.731-3.198-4.301Zm-4.797,16.801H7.995c-.062-3.342-.741-5.733-1.276-7.116,1.249-.239,2.406-.841,3.324-1.74,.428,.466,.92,.852,1.457,1.149v4.707h1v-4.273c.557,.18,1.146,.273,1.75,.273,1.282,0,2.503-.418,3.503-1.189-.568,1.122-1.669,3.842-1.748,8.189Zm3.495-9c-.618,.022-1.3-.205-1.823-.526l-.006,.009c-1.002-.617-1.671-1.723-1.671-2.983v-.5h-1v.5c0,1.521,.758,2.867,1.916,3.682-.781,.531-1.703,.818-2.666,.818-1.493,0-2.873-.697-3.786-1.912l-.375-.499-.405,.475c-1.049,1.23-2.574,1.936-4.184,1.936-2.481,0-4.5-2.019-4.5-4.5,0-2.407,1.899-4.378,4.278-4.495,2.808,.113,4.28,1.942,4.635,3.995h1.011c-.376-2.658-2.249-4.544-4.901-4.928,.238-2.282,2.359-4.072,4.932-4.072,1.841,0,3.526,1.094,4.293,2.787l.164,.363,.391-.079c1.855-.377,3.684,.82,4.104,2.649l.07,.306,.306,.07c1.601,.367,2.719,1.767,2.719,3.405,0,1.93-1.57,3.5-3.5,3.5Zm0,0c-.038,0,.004,0,0,0h0Z"/></svg>
