<?xml version="1.0" encoding="UTF-8"?>
<svg xmlns="http://www.w3.org/2000/svg" id="Layer_1" data-name="Layer 1" width="512" height="512" viewBox="0 0 24 24"><path d="M11.014,4.217c-.004,.095-.014,.188-.014,.283v.776c-.471-.168-.971-.276-1.5-.276-2.481,0-4.5,2.019-4.5,4.5,0,1.599,.86,3.092,2.244,3.895l.007,.003c.68,.394,1.457,.602,2.249,.602,.097,0,.188-.023,.283-.029-.152,.332-.282,.673-.389,1.022-.77-.015-1.528-.187-2.22-.509l-2.021,3.475-.865-.502,2.023-3.477c-.503-.359-.937-.798-1.289-1.293l-3.467,2.018-.504-.865,3.468-2.018c-.266-.569-.435-1.185-.494-1.822H0v-1H4.023c.059-.648,.23-1.265,.495-1.829L1.044,5.148l.504-.863,3.476,2.023c.359-.503,.801-.942,1.305-1.3L4.31,1.537l.865-.502,2.02,3.472c.558-.259,1.166-.427,1.806-.484V0h1V4.025c.348,.033,.687,.098,1.014,.192Zm8.986,13.283c0,1.379-1.121,2.5-2.5,2.5s-2.5-1.121-2.5-2.5c0-1.208,.86-2.218,2-2.45v-6.05h1v6.05c1.14,.232,2,1.242,2,2.45Zm-1,0c0-.827-.673-1.5-1.5-1.5s-1.5,.673-1.5,1.5,.673,1.5,1.5,1.5,1.5-.673,1.5-1.5Zm5,0c0,1.964-.875,3.803-2.4,5.044-1.169,.951-2.616,1.454-4.111,1.454-.456,0-.917-.047-1.376-.143-2.466-.512-4.464-2.516-4.972-4.987-.461-2.244,.232-4.488,1.859-6.049V4.5c0-2.481,2.019-4.5,4.5-4.5s4.5,2.019,4.5,4.5V12.819c1.273,1.225,2,2.918,2,4.681Zm-1,0c0-1.554-.668-3.045-1.834-4.091l-.166-.148V4.5c0-1.93-1.57-3.5-3.5-3.5s-3.5,1.57-3.5,3.5V13.261l-.166,.148c-1.478,1.325-2.118,3.29-1.713,5.258,.428,2.086,2.113,3.778,4.194,4.21,1.665,.346,3.362-.058,4.653-1.108s2.031-2.606,2.031-4.269Z"/></svg>
