<?xml version="1.0" encoding="UTF-8"?>
<svg xmlns="http://www.w3.org/2000/svg" id="Layer_1" data-name="Layer 1" viewBox="0 0 24 24">
  <path d="m22.968,7.866L13.658.572c-.977-.766-2.34-.766-3.316,0L1.033,7.866c-.656.513-1.033,1.285-1.033,2.12v14.014h24v-14.014c0-.835-.377-1.607-1.032-2.12Zm-5.968,15.134H7v-3.5c0-.827.673-1.5,1.5-1.5h7c.827,0,1.5.673,1.5,1.5v3.5Zm6,0h-5v-3.5c0-1.379-1.121-2.5-2.5-2.5h-7c-1.379,0-2.5,1.121-2.5,2.5v3.5H1v-13.014c0-.518.242-1.016.649-1.333L10.959,1.359c.613-.48,1.469-.48,2.082,0l9.311,7.294c.406.317.648.815.648,1.333v13.014ZM12,7c-2.206,0-4,1.794-4,4s1.794,4,4,4,4-1.794,4-4-1.794-4-4-4Zm0,7c-1.654,0-3-1.346-3-3s1.346-3,3-3,3,1.346,3,3-1.346,3-3,3Z"/>
</svg>
