<?xml version="1.0" encoding="UTF-8"?>
<svg xmlns="http://www.w3.org/2000/svg" id="Layer_1" data-name="Layer 1" viewBox="0 0 24 24">
  <path d="m1,3c0-1.103.897-2,2-2h1v7h11V1h.421l4.579,4.579v3.678c.318-.113.653-.19,1-.229v-3.863L15.835,0H3C1.346,0,0,1.346,0,3v18h9v-1H1V3Zm13,4H5V1h9v6Zm9.268,4.732c-.975-.974-2.561-.976-3.535,0l-8.732,8.732v3.536h3.535l8.732-8.732c.473-.472.732-1.1.732-1.768s-.26-1.296-.732-1.768Zm-.707,2.828l-8.439,8.439h-2.121v-2.122l8.439-8.439c.584-.585,1.537-.585,2.121,0,.283.283.439.66.439,1.061s-.156.777-.439,1.061Zm-9.561-.561c0-1.654-1.346-3-3-3s-3,1.346-3,3,1.346,3,3,3,3-1.346,3-3Zm-3,2c-1.103,0-2-.897-2-2s.897-2,2-2,2,.897,2,2-.897,2-2,2Z"/>
</svg>
