<?xml version="1.0" encoding="UTF-8"?>
<svg xmlns="http://www.w3.org/2000/svg" id="Layer_1" data-name="Layer 1" viewBox="0 0 24 24">
  <path d="m20,13h-12v-1h12v1Zm0-5h-8v1h8v-1Zm-12,9h5v-1h-5v1Zm-6-7v-5.05c-1.14-.232-2-1.243-2-2.45C0,1.121,1.122,0,2.5,0c.618,0,1.21.232,1.664.639,1.048-.82,2.624-.82,3.672,0,.454-.406,1.046-.639,1.664-.639,1.378,0,2.5,1.121,2.5,2.5,0,1.207-.86,2.218-2,2.45v5.05H2Zm.5-6h.5v5h6v-5h.5c.827,0,1.5-.673,1.5-1.5s-.673-1.5-1.5-1.5c-.485,0-.943.239-1.225.64l-.365.517-.418-.474c-.778-.881-2.205-.881-2.983,0l-.418.474-.365-.517c-.282-.4-.74-.64-1.225-.64-.827,0-1.5.673-1.5,1.5s.673,1.5,1.5,1.5Zm21.5-1.5v14.207l-7.293,7.293H4v-12h1v11h11v-7h7V2.5c0-.827-.673-1.5-1.5-1.5h-7.5V0h7.5c1.379,0,2.5,1.121,2.5,2.5Zm-7,14.5v5.293l5.293-5.293h-5.293Z"/>
</svg>
