<?xml version="1.0" encoding="UTF-8"?>
<svg xmlns="http://www.w3.org/2000/svg" id="Layer_1" data-name="Layer 1" viewBox="0 0 24 24" width="512" height="512"><path d="m12,10c-1.654,0-3-1.346-3-3s1.346-3,3-3,3,1.346,3,3-1.346,3-3,3Zm0-5c-1.103,0-2,.897-2,2s.897,2,2,2,2-.897,2-2-.897-2-2-2Zm5,9.5c0-1.379-1.121-2.5-2.5-2.5h-5c-1.378,0-2.5,1.121-2.5,2.5v2.5h1v-2.5c0-.827.673-1.5,1.5-1.5h5c.827,0,1.5.673,1.5,1.5v2.5h1v-2.5Zm-4.996,9.163c-.356,0-.715-.126-1.001-.38l-3.897-3.283H0V2.5C0,1.121,1.122,0,2.5,0h19c1.379,0,2.5,1.121,2.5,2.5v17.5h-7.032l-3.985,3.295c-.275.245-.626.368-.979.368ZM1,19h6.471l4.187,3.526c.199.178.484.179.675.009l4.276-3.535h6.392V2.5c0-.827-.673-1.5-1.5-1.5H2.5c-.827,0-1.5.673-1.5,1.5v16.5Z"/></svg>
