<?xml version="1.0" encoding="UTF-8"?>
<svg xmlns="http://www.w3.org/2000/svg" id="Layer_1" data-name="Layer 1" viewBox="0 0 24 24" width="512" height="512"><path d="M21.5,21H2.496C1.12,21-.002,19.881-.004,18.505c-.002-1.126-.003-2.429-.001-3.056v-.432l.429-.062c1.469-.21,2.576-1.48,2.576-2.955s-1.107-2.746-2.576-2.955l-.428-.061v-.433c-.004-.838,.004-3.053,.004-3.053,0-1.376,1.122-2.498,2.5-2.498H21.5c1.378,0,2.5,1.122,2.5,2.5v3.483l-.429,.062c-1.466,.212-2.571,1.482-2.571,2.955s1.105,2.743,2.571,2.955l.429,.062v3.483c0,1.378-1.122,2.5-2.5,2.5ZM.994,15.86c0,.69,0,1.726,.002,2.644,0,.825,.674,1.497,1.5,1.497H21.5c.827,0,1.5-.673,1.5-1.5v-2.642c-1.737-.45-3-2.039-3-3.858s1.263-3.408,3-3.858v-2.642c0-.827-.673-1.5-1.5-1.5H2.5c-.827,0-1.5,.673-1.5,1.5,0,.002-.006,1.652-.006,2.64,1.741,.448,3.006,2.037,3.006,3.86s-1.265,3.412-3.006,3.86Z"/></svg>
