<?xml version="1.0" encoding="UTF-8"?>
<svg xmlns="http://www.w3.org/2000/svg" id="Layer_1" data-name="Layer 1" viewBox="0 0 24 24">
  <path d="m9,4c0-.552.448-1,1-1s1,.448,1,1-.448,1-1,1-1-.448-1-1Zm-2,0c0-.552-.448-1-1-1s-1,.448-1,1,.448,1,1,1,1-.448,1-1Zm15-1.5v21.5H2V2.5c0-1.378,1.121-2.5,2.5-2.5h15c1.379,0,2.5,1.122,2.5,2.5Zm-1,0c0-.827-.673-1.5-1.5-1.5H4.5c-.827,0-1.5.673-1.5,1.5v20.5h18V2.5Zm-3,11.5c0,3.309-2.691,6-6,6s-6-2.691-6-6,2.691-6,6-6,6,2.691,6,6Zm-1.105,1.018c-.485.253-1.127.482-1.895.482-1.633,0-3.211-1.04-3.277-1.084-.014-.009-1.396-.916-2.723-.916-.94,0-1.665.469-1.979.712.114,2.657,2.294,4.788,4.979,4.788,2.408,0,4.423-1.712,4.895-3.982Zm.084-1.23c-.114-2.657-2.294-4.788-4.979-4.788-2.408,0-4.423,1.712-4.895,3.982.485-.253,1.127-.482,1.895-.482,1.633,0,3.211,1.04,3.277,1.084.014.009,1.396.916,2.723.916.94,0,1.665-.469,1.979-.712Z"/>
</svg>
