<?xml version="1.0" encoding="UTF-8"?>
<svg xmlns="http://www.w3.org/2000/svg" id="Layer_1" data-name="Layer 1" viewBox="0 0 24 24">
  <path d="m12.5,4.013V1h3.5V0h-8v1h3.5v3.013c-5.283.261-9.5,4.641-9.5,9.987,0,5.514,4.486,10,10,10s10-4.486,10-10c0-5.346-4.217-9.726-9.5-9.987Zm-3.5,7.167c.923-.115,1.929-.179,3-.179s2.077.065,3,.179v5.641c-.923.115-1.929.179-3,.179s-2.077-.065-3-.179v-5.641Zm-1,5.492c-3.071-.537-5-1.647-5-2.672s1.929-2.135,5-2.672v5.343Zm1-6.493v-4.664c.939-.333,1.949-.515,3-.515s2.061.182,3,.515v4.664c-.981-.118-1.997-.178-3-.178s-2.019.06-3,.178Zm7,1.15c3.071.537,5,1.647,5,2.672s-1.929,2.135-5,2.672v-5.343Zm4.777.677c-1.096-.793-2.827-1.359-4.777-1.684v-4.382c2.385,1.189,4.172,3.405,4.777,6.066Zm-12.777-6.066v4.382c-1.95.324-3.681.891-4.777,1.684.604-2.661,2.391-4.877,4.777-6.066ZM3.223,15.995c1.096.793,2.827,1.359,4.777,1.684v4.382c-2.385-1.189-4.172-3.405-4.777-6.066Zm5.777,6.49v-4.664c.981.118,1.997.178,3,.178s2.019-.06,3-.178v4.664c-.939.333-1.949.515-3,.515s-2.061-.182-3-.515Zm7-.425v-4.382c1.95-.324,3.681-.891,4.777-1.684-.604,2.661-2.391,4.877-4.777,6.066Z"/>
</svg>
