<?xml version="1.0" encoding="UTF-8"?>
<svg xmlns="http://www.w3.org/2000/svg" id="Layer_1" data-name="Layer 1" viewBox="0 0 24 24">
  <path d="m24,1V0H0v1h3v16.051c-1.692.245-3,1.691-3,3.449,0,1.93,1.57,3.5,3.5,3.5,1.28,0,2.39-.698,3-1.726.61,1.028,1.72,1.726,3,1.726,1.93,0,3.5-1.57,3.5-3.5,0-1.758-1.308-3.204-3-3.449V1h4.62l4.511,16.28c-1.251.534-2.131,1.776-2.131,3.22,0,1.93,1.57,3.5,3.5,3.5s3.5-1.57,3.5-3.5-1.57-3.5-3.5-3.5c-.136,0-.266.025-.398.04L15.658,1h8.342Zm-1,19.5c0,1.379-1.122,2.5-2.5,2.5s-2.5-1.121-2.5-2.5,1.122-2.5,2.5-2.5,2.5,1.121,2.5,2.5Zm-19.5,2.5c-1.378,0-2.5-1.121-2.5-2.5s1.122-2.5,2.5-2.5,2.5,1.121,2.5,2.5-1.122,2.5-2.5,2.5Zm8.5-2.5c0,1.379-1.122,2.5-2.5,2.5s-2.5-1.121-2.5-2.5,1.122-2.5,2.5-2.5,2.5,1.121,2.5,2.5Zm-3-3.449c-1.066.155-1.971.785-2.5,1.675-.529-.891-1.434-1.521-2.5-1.675V1h5v16.051Z"/>
</svg>
