<?xml version="1.0" encoding="UTF-8"?>
<svg xmlns="http://www.w3.org/2000/svg" id="Layer_1" data-name="Layer 1" viewBox="0 0 24 24">
  <path d="m4.5,14h6.056c-.181.31-.322.644-.414,1h-5.642c-1.93,0-3.5,1.57-3.5,3.5v5.5H0v-5.5c0-2.481,2.019-4.5,4.5-4.5Zm-2.671-1.022c-.441.251-.857.545-1.239.878.982-4.185,2.126-9.045,2.208-9.306C3.652,1.829,6.145,0,9,0s5.347,1.829,6.202,4.55c.057.182.629,2.592,1.302,5.45h-1.034c-.726-3.082-1.196-5.065-1.222-5.151-.416-1.323-1.298-2.383-2.425-3.057-.928,2.992-3.641,5.112-6.808,5.205h-.914c.464,2.281,2.484,4.003,4.899,4.003,1.716,0,3.233-.869,4.134-2.191.09.381.187.794.292,1.238-1.098,1.2-2.675,1.953-4.426,1.953-2.846,0-5.23-1.993-5.843-4.656-.334,1.413-.791,3.35-1.328,5.635Zm1.923-8.129c-.011.038-.11.448-.276,1.15l1.524-.002c2.775-.082,5.16-1.98,5.917-4.644-.602-.223-1.245-.353-1.917-.353-2.416,0-4.525,1.547-5.248,3.85Zm20.248,14.15c0,1.103-.897,2-2,2s-2-.897-2-2l1.306-3.574-3.306-.367v7.941h3v1h-7v-1h3v-8.053l-3.246-.361,1.246,3.413c0,1.103-.897,2-2,2s-2-.897-2-2l1.668-4.54,4.332.481v-1.941h1v2.052l4.352.484s1.648,4.361,1.648,4.464Zm-11-3.576l-.966,2.576h1.932l-.966-2.576Zm8.034,3.576h1.966c-.037-.165-.476-1.323-.986-2.614l-.98,2.614Z"/>
</svg>
