<?xml version="1.0" encoding="UTF-8"?>
<svg xmlns="http://www.w3.org/2000/svg" id="Layer_1" data-name="Layer 1" width="512" height="512" viewBox="0 0 24 24"><path d="M12,24C5.383,24,0,18.617,0,12S5.383,0,12,0s12,5.383,12,12-5.383,12-12,12ZM12,1C5.935,1,1,5.935,1,12s4.935,11,11,11,11-4.935,11-11S18.065,1,12,1Zm5.979,10.643l-2.679-2.143,2.679-2.143-.625-.781-3.655,2.924,3.655,2.924,.625-.781Zm-7.679-2.143l-3.655-2.924-.625,.781,2.679,2.143-2.679,2.143,.625,.781,3.655-2.924Zm1.701,10.5h-.013c-4.3,0-5.9-4.92-5.966-5.129l-.276-.875,.886,.243c.027,.007,2.805,.762,5.362,.762s5.345-.754,5.373-.762l.887-.243-.278,.876c-.066,.209-1.676,5.128-5.975,5.128Zm-4.663-4.563c.623,1.29,2.085,3.563,4.65,3.563h.013c2.574,0,4.037-2.274,4.66-3.564-1.078,.236-2.899,.564-4.667,.564s-3.58-.328-4.656-.563Z"/></svg>
