<?xml version="1.0" encoding="UTF-8"?>
<svg xmlns="http://www.w3.org/2000/svg" id="Layer_1" data-name="Layer 1" viewBox="0 0 24 24">
  <path d="m22,14h-1v-.5c0-.827-.673-1.5-1.5-1.5h-3c-.827,0-1.5.673-1.5,1.5v.5h-1c-1.103,0-2,.897-2,2v8h12v-8c0-1.103-.897-2-2-2Zm-6-.5c0-.276.224-.5.5-.5h3c.276,0,.5.224.5.5v.5h-4v-.5Zm-2,1.5h8c.551,0,1,.449,1,1v2h-10v-2c0-.551.449-1,1-1Zm-1,8v-4h4.5v2h1v-2h4.5v4h-10Zm-2.444-9c-.181.31-.322.644-.414,1h-5.642c-1.93,0-3.5,1.57-3.5,3.5v5.5H0v-5.5c0-2.481,2.019-4.5,4.5-4.5h6.056ZM3.157,7.344c.612,2.663,2.997,4.656,5.843,4.656,1.751,0,3.328-.754,4.426-1.953-.105-.444-.202-.856-.292-1.238-.901,1.321-2.418,2.191-4.134,2.191-2.415,0-4.435-1.722-4.899-4.002h.914c3.167-.094,5.88-2.214,6.808-5.207,1.126.674,2.009,1.734,2.425,3.057.027.088.511,2.135,1.26,5.312.317-.094.645-.161.992-.161h.004c-.673-2.858-1.245-5.268-1.302-5.45-.855-2.722-3.348-4.55-6.202-4.55S3.652,1.829,2.798,4.55c-.082.261-1.226,5.122-2.208,9.306.382-.333.798-.628,1.239-.878.538-2.285.994-4.222,1.328-5.635ZM9,1c.672,0,1.316.131,1.917.353-.757,2.664-3.143,4.562-5.918,4.644l-1.524.002c.167-.702.265-1.112.276-1.15.723-2.303,2.832-3.85,5.248-3.85Z"/>
</svg>
