<?xml version="1.0" encoding="UTF-8"?>
<svg xmlns="http://www.w3.org/2000/svg" id="Layer_1" data-name="Layer 1" viewBox="0 0 24 24" width="512" height="512"><path d="M7,15v-1c1.138,0,4.601,0,6.916,3.473l-.832,.555c-2.018-3.027-5.078-3.027-6.084-3.027Zm9-6c-.552,0-1,.448-1,1s.448,1,1,1,1-.448,1-1-.448-1-1-1Zm-8-1c0-.552-.448-1-1-1s-1,.448-1,1,.448,1,1,1,1-.448,1-1Zm12,2v14h-1V12.643c-.734,.832-1.806,1.357-3,1.357-2.206,0-4-1.794-4-4s1.794-4,4-4,4,1.794,4,4Zm-1,0c0-1.654-1.346-3-3-3s-3,1.346-3,3,1.346,3,3,3,3-1.346,3-3Zm3,8.619c1.261-1.899,2-4.173,2-6.619C24,5.383,18.617,0,12,0S0,5.383,0,12s5.383,12,12,12c1.786,0,3.476-.403,5-1.105v-1.109c-1.502,.771-3.199,1.214-5,1.214-6.065,0-11-4.935-11-11S5.935,1,12,1s11,4.935,11,11c0,1.626-.364,3.166-1,4.556v2.063Z"/></svg>
