<?xml version="1.0" encoding="UTF-8"?>
<svg xmlns="http://www.w3.org/2000/svg" id="Layer_1" data-name="Layer 1" viewBox="0 0 24 24">
  <path d="m20,0H4c-1.103,0-2,.897-2,2v22.012l10-6.882,10,6.882V2c0-1.103-.897-2-2-2Zm1,21.988l-9-6.118-9,6.118V2c0-.552.449-1,1-1h16c.551,0,1,.448,1,1v19.988ZM12.409,3.624h-.817l-1.184,3.376h-3.408v.812l2.414,1.945-.91,3.041.649.491,2.847-1.846,2.848,1.847.647-.493-.909-3.04,2.414-1.945v-.812h-3.408l-1.184-3.376Zm1.027,5.775l.661,2.212-2.097-1.359-2.097,1.359.661-2.212-1.737-1.399h2.289l.883-2.52.883,2.52h2.289l-1.737,1.399Z"/>
</svg>
