<?xml version="1.0" encoding="UTF-8"?>
<svg xmlns="http://www.w3.org/2000/svg" id="Layer_1" data-name="Layer 1" viewBox="0 0 24 24">
  <path d="m14,23c-5.026,0-9.275-3.388-10.584-8h12.584v-1H3.183c-.12-.649-.183-1.317-.183-2s.063-1.351.183-2h12.817v-1H3.416C4.725,4.388,8.974,1,14,1c3.293,0,6.386,1.458,8.486,4l.771-.637C20.967,1.59,17.593,0,14,0,8.419,0,3.715,3.83,2.38,9H0v1h2.168c-.11.651-.168,1.319-.168,2s.058,1.349.168,2H0v1h2.38c1.336,5.17,6.039,9,11.62,9,3.593,0,6.967-1.59,9.257-4.363l-.771-.637c-2.1,2.542-5.193,4-8.486,4Z"/>
</svg>
