<?xml version="1.0" encoding="UTF-8"?>
<svg xmlns="http://www.w3.org/2000/svg" id="Layer_1" data-name="Layer 1" viewBox="0 0 24 24" width="512" height="512"><path d="M23.967,12.952c-.091-.651-.473-1.208-1.048-1.528l-4.419-2.455-.359-3.11-3.109-.359L12.576,1.081c-.319-.575-.876-.957-1.528-1.049-.656-.093-1.292,.124-1.756,.589L4.656,5.257c-.465,.465-.68,1.104-.588,1.756s.473,1.209,1.048,1.528l4.802,2.668,1.083,1.083-7.124,7.124c-.395-.262-.869-.415-1.378-.415-1.378,0-2.5,1.121-2.5,2.5s1.122,2.5,2.5,2.5,2.5-1.121,2.5-2.5c0-.509-.153-.982-.415-1.378l7.124-7.124,1.083,1.083,2.668,4.802c.319,.575,.876,.957,1.528,1.049,.099,.014,.197,.021,.294,.021,.547,0,1.067-.215,1.462-.609l4.636-4.636c.465-.465,.679-1.104,.588-1.756ZM2.5,23c-.827,0-1.5-.673-1.5-1.5s.673-1.5,1.5-1.5,1.5,.673,1.5,1.5-.673,1.5-1.5,1.5ZM5.058,6.874c-.047-.337,.064-.669,.305-.91L9.999,1.328c.241-.241,.573-.356,.91-.305,.338,.047,.626,.245,.792,.544l2.51,4.517-4.077,4.1-4.533-2.518c-.298-.165-.496-.454-.543-.792Zm10.125-.35l2.055,.237,.237,2.055-4.28,4.256-2.268-2.269,4.256-4.279Zm7.488,7.477l-4.636,4.636c-.241,.241-.574,.356-.91,.305-.338-.047-.626-.245-.792-.544l-2.518-4.531,4.1-4.077,4.518,2.51c.298,.165,.496,.454,.543,.792,.047,.338-.063,.669-.305,.91Z"/></svg>
