<?xml version="1.0" encoding="UTF-8"?>
<svg xmlns="http://www.w3.org/2000/svg" id="Layer_1" data-name="Layer 1" viewBox="0 0 24 24">
  <path d="m10.46,10.592c-.603.258-1.263.408-1.96.408-2.415,0-4.435-1.721-4.899-4.001h.914c3.168-.095,5.883-2.216,6.809-5.21.308.186.598.4.864.643-.743.999-1.188,2.231-1.188,3.569,0,3.309,2.691,6,6,6s6-2.691,6-6S20.309,0,17,0c-1.611,0-3.073.642-4.152,1.679C11.685.627,10.158,0,8.5,0,5.645,0,3.152,1.828,2.298,4.55c-.079.251-1.137,4.743-2.09,8.805.369-.302.778-.556,1.213-.764.498-2.117.922-3.915,1.237-5.247.612,2.663,2.997,4.656,5.843,4.656.936,0,1.82-.221,2.61-.605-.233-.254-.451-.52-.65-.803ZM17,1c2.757,0,5,2.243,5,5s-2.243,5-5,5-5-2.243-5-5,2.243-5,5-5Zm-8.5,0c.673,0,1.317.128,1.917.353-.757,2.664-3.143,4.563-5.918,4.645l-1.524.002c.167-.702.265-1.112.276-1.15.723-2.303,2.832-3.85,5.248-3.85Zm15.5,17v6h-1v-6c0-1.504-1.12-2.759-2.593-2.958l-3.407,4.259-3.407-4.259c-1.473.2-2.593,1.455-2.593,2.958v6h-1v-6c0-2.119,1.664-3.868,3.789-3.981l.256-.013,2.955,3.694,2.955-3.694.256.013c2.125.113,3.789,1.862,3.789,3.981Zm-16.034-.344l.034-.051v1.694l-3.425-4.282h-.76c-1.567.084-2.815,1.394-2.815,2.981v6H0v-6C0,15.881,1.664,14.132,3.789,14.019h1.267s2.911,3.638,2.911,3.638Z"/>
</svg>
