<?xml version="1.0" encoding="UTF-8"?>
<svg xmlns="http://www.w3.org/2000/svg" id="Layer_1" data-name="Layer 1" viewBox="0 0 24 24" width="512" height="512"><path d="m20.691,19.984c.706-.078,1.343-.438,1.782-1.018.493-.654.651-1.484.441-2.245l-2.014-9.915C19.794,2.799,16.134,0,12,0c-3.001,0-5.752,1.415-7.476,3.817L.704-.003-.003.704l23.3,23.3.707-.707-3.312-3.312ZM12,1c3.686,0,6.95,2.498,7.929,6.04l2.013,9.914c.135.492.038,1.006-.269,1.412-.305.403-.769.635-1.272.635h-.693L5.241,4.534c1.53-2.22,4.028-3.534,6.759-3.534Zm3.464,18H3.603c-.488,0-.942-.22-1.247-.602-.306-.385-.42-.881-.313-1.369l1.917-9.535s0,0,0,0l-.817-.817c-.058.202-.116.404-.162.611l-1.917,9.535c-.17.775.016,1.575.51,2.198.496.622,1.236.979,2.029.979h4.068c.191,2.234,2.049,4,4.331,4s4.14-1.766,4.331-4l-.005-.136-.864-.864Zm-3.462,4c-1.731,0-3.145-1.318-3.331-3h6.662c-.186,1.682-1.6,3-3.331,3Z"/></svg>
