<?xml version="1.0" encoding="UTF-8"?>
<svg xmlns="http://www.w3.org/2000/svg" id="Layer_1" data-name="Layer 1" width="512" height="512" viewBox="0 0 24 24"><path d="M12,24C5.383,24,0,18.617,0,12S5.383,0,12,0s12,5.383,12,12-5.383,12-12,12ZM12,1C5.935,1,1,5.935,1,12s4.935,11,11,11,11-4.935,11-11S18.065,1,12,1Zm.007,19c-3.574,0-5.945-3.249-6.007-5.486q0-.515,2.219-.515h9.781v.501c0,2.189-2.39,5.5-5.993,5.5Zm-4.947-5.001c.36,1.749,2.275,4.001,4.947,4.001,2.64,0,4.615-2.232,4.944-4-3.202-.002-8.229,0-9.892,0Zm.44-7.999c-1.431,0-2.5,2.112-2.5,4h1c0-1.43,.785-3,1.5-3s1.5,1.57,1.5,3h1c0-1.888-1.069-4-2.5-4Zm9,0c-1.431,0-2.5,2.112-2.5,4h1c0-1.43,.785-3,1.5-3s1.5,1.57,1.5,3h1c0-1.888-1.069-4-2.5-4Z"/></svg>
