<?xml version="1.0" encoding="UTF-8"?>
<svg xmlns="http://www.w3.org/2000/svg" id="Layer_1" data-name="Layer 1" viewBox="0 0 24 24" width="512" height="512"><path d="m10.524,16.337s.002.001.002.002c-.007,0-.014,0-.002-.002ZM23.926,2.561l-1.387,9.704c-.393,2.747-3.75,4.648-6.135,5.666l-.065.129c-1.631,3.006-6.053,5.892-6.053,5.892,0,0-8.145-2.38-8.749-6.601L.151,7.642l.322-.161c.131-.065,3.26-1.614,7.146-2.169.107-.015.215-.03.321-.043l.699-4.892.354-.064c.145-.026,3.58-.636,7.465-.081,3.884.556,7.012,2.104,7.144,2.169l.322.161Zm-9.074,15.97c-.469.163-1.055.333-1.055.333,0,0-1.778-1.133-3.27-2.524.008,0,.015-.002-.002-.002-1.718.1-3.272.786-5.024,2.163.07-2.01,1.229-3.819,3.058-4.355-.483-.674-.88-1.389-1.114-2.123l-3.037.434c.059-1.202.64-2.202,1.516-2.329.461-.067.911.124,1.292.485,0-.177.013-.354.038-.532l.541-3.783c-.011.002-.021.003-.032.004-3.022.431-5.629,1.521-6.517,1.922l1.284,8.984c.462,3.231,6.375,5.265,7.596,5.651.707-.484,3.216-2.275,4.727-4.329Zm7.981-15.388c-.888-.401-3.494-1.49-6.514-1.922-3.02-.432-5.827-.117-6.792.021l-1.283,8.98c-.462,3.233,4.651,6.843,5.709,7.552,1.213-.385,7.135-2.421,7.596-5.65l1.284-8.98Zm-3.166,4.378c-.059-1.202-.64-2.202-1.516-2.329-.877-.127-1.714.674-2.107,1.811l3.623.518Zm-8.659,1.459c.23,2.09,1.626,3.876,3.631,4.16,2.002.283,3.845-1.035,4.65-2.977-3.319,1.054-5.39.758-8.281-1.183Zm2.485-4.454c-.877-.127-1.714.674-2.107,1.811l3.623.518c-.059-1.202-.64-2.202-1.516-2.329Z"/></svg>
