<?xml version="1.0" encoding="UTF-8"?>
<svg xmlns="http://www.w3.org/2000/svg" id="Layer_1" data-name="Layer 1" viewBox="0 0 24 24" width="512" height="512"><path d="M21.5,2H2.5C1.122,2,0,3.122,0,4.5V22H1v-3H23v3h1V4.5c0-1.378-1.121-2.5-2.5-2.5ZM2.5,3H21.5c.827,0,1.5,.673,1.5,1.5V13h-2v-1.5c0-1.378-1.121-2.5-2.5-2.5h-4.5c-.817,0-1.544,.394-2,1.002-.456-.608-1.183-1.002-2-1.002H5.5c-1.378,0-2.5,1.122-2.5,2.5v1.5H1V4.5c0-.827,.673-1.5,1.5-1.5ZM11.5,13H4v-1.5c0-.827,.673-1.5,1.5-1.5h4.5c.827,0,1.5,.673,1.5,1.5v1.5Zm8.5,0h-7.5v-1.5c0-.827,.673-1.5,1.5-1.5h4.5c.827,0,1.5,.673,1.5,1.5v1.5ZM1,18v-4H23v4H1Z"/></svg>
