<?xml version="1.0" encoding="UTF-8"?>
<svg xmlns="http://www.w3.org/2000/svg" id="Layer_1" data-name="Layer 1" viewBox="0 0 24 24" width="512" height="512"><path d="M23.045,8.018L13.545,.552c-.91-.717-2.181-.716-3.09,0L.955,8.018c-.607,.478-.955,1.193-.955,1.966v14H24V9.983c0-.772-.348-1.488-.955-1.966Zm-.045,14.966H1V9.983c0-.463,.209-.893,.573-1.179L11.073,1.337c.546-.428,1.308-.429,1.854,0l9.5,7.467c.364,.286,.573,.716,.573,1.179v13ZM14,7.983h-4v4H6v4h4v4h4v-4h4v-4h-4V7.983Zm3,5v2h-4v4h-2v-4H7v-2h4v-4h2v4h4Z"/></svg>
