<?xml version="1.0" encoding="UTF-8"?>
<svg xmlns="http://www.w3.org/2000/svg" id="Layer_1" data-name="Layer 1" viewBox="0 0 24 24">
  <path d="m24,0v1h-9V0h9Zm-9,5h9v-1h-9v1Zm0,4h9v-1h-9v1Zm2,4h7v-1h-7v1Zm-7,4.5c0,1.379-1.121,2.5-2.5,2.5s-2.5-1.121-2.5-2.5c0-1.208.86-2.217,2-2.449V7h1v8.051c1.14.232,2,1.242,2,2.449Zm-1,0c0-.827-.673-1.5-1.5-1.5s-1.5.673-1.5,1.5.673,1.5,1.5,1.5,1.5-.673,1.5-1.5Zm3-4.681c1.273,1.225,2,2.918,2,4.681,0,1.964-.875,3.803-2.4,5.044-1.169.951-2.616,1.454-4.111,1.454-.456,0-.917-.047-1.376-.143-2.466-.512-4.464-2.516-4.972-4.987-.461-2.244.232-4.488,1.859-6.049V4.5C3,2.019,5.019,0,7.5,0s4.5,2.019,4.5,4.5v8.319Zm-.834.59l-.166-.148V4.5c0-1.93-1.57-3.5-3.5-3.5s-3.5,1.57-3.5,3.5v8.761l-.166.148c-1.478,1.325-2.118,3.29-1.713,5.258.428,2.086,2.113,3.778,4.194,4.21,1.664.346,3.362-.058,4.653-1.108s2.031-2.606,2.031-4.269c0-1.554-.668-3.045-1.834-4.091Z"/>
</svg>
