<?xml version="1.0" encoding="UTF-8"?>
<svg xmlns="http://www.w3.org/2000/svg" id="Layer_1" data-name="Layer 1" viewBox="0 0 24 24" width="512" height="512"><path d="M12,0C5.383,0,0,5.383,0,12s5.383,12,12,12,12-5.383,12-12S18.617,0,12,0Zm10,8.5v2c0,.827-.673,1.5-1.5,1.5h-5c-.827,0-1.5-.673-1.5-1.5v-2c0-.827,.673-1.5,1.5-1.5h5c.827,0,1.5,.673,1.5,1.5ZM12,1c3.909,0,7.349,2.05,9.3,5.132-.251-.085-.52-.132-.8-.132h-5c-1.208,0-2.218,.86-2.45,2h-2.1c-.232-1.14-1.242-2-2.45-2H3.5c-.28,0-.549,.047-.8,.132C4.651,3.05,8.091,1,12,1ZM2,8.5c0-.827,.673-1.5,1.5-1.5h5c.827,0,1.5,.673,1.5,1.5v2c0,.827-.673,1.5-1.5,1.5H3.5c-.827,0-1.5-.673-1.5-1.5v-2Zm10,14.5c-6.065,0-11-4.935-11-11,0-.343,.017-.681,.047-1.016,.226,1.148,1.239,2.016,2.453,2.016h5c1.379,0,2.5-1.121,2.5-2.5v-1.5h2v1.5c0,1.379,1.121,2.5,2.5,2.5h5c1.213,0,2.227-.868,2.453-2.016,.031,.335,.047,.674,.047,1.016,0,6.065-4.935,11-11,11Zm4.667-7.873l.666,.746c-.097,.087-2.414,2.127-5.333,2.127s-5.236-2.04-5.333-2.127l.666-.746c.021,.019,2.137,1.873,4.667,1.873s4.646-1.854,4.667-1.873Zm2.333-5.127c0,.552-.448,1-1,1s-1-.448-1-1,.448-1,1-1,1,.448,1,1Zm-14,0c0-.552,.448-1,1-1s1,.448,1,1-.448,1-1,1-1-.448-1-1Z"/></svg>
