<?xml version="1.0" encoding="UTF-8"?>
<svg xmlns="http://www.w3.org/2000/svg" id="Layer_1" data-name="Layer 1" viewBox="0 0 24 24">
  <path d="m23,4.5c0-1.379-1.121-2.5-2.5-2.5h-.55c-.232-1.14-1.243-2-2.45-2H6.5c-1.208,0-2.217.86-2.45,2h-.55c-1.378,0-2.5,1.121-2.5,2.5v2.5h1.055l2,17h15.889l2-17h1.056v-2.5Zm-3.944,18.5H4.945l-.941-8h4.518c.194,2.247,1.68,4,3.478,4s3.284-1.753,3.478-4h4.519l-.941,8Zm-9.556-8.5c0-1.93,1.122-3.5,2.5-3.5s2.5,1.57,2.5,3.5-1.121,3.5-2.5,3.5-2.5-1.57-2.5-3.5Zm10.615-.5h-4.636c-.194-2.247-1.68-4-3.478-4s-3.284,1.753-3.478,4H3.886l-.824-7h17.876l-.824,7Zm1.885-8H2v-1.5c0-.827.673-1.5,1.5-1.5h1.5v-.5c0-.827.673-1.5,1.5-1.5h11c.827,0,1.5.673,1.5,1.5v.5h1.5c.827,0,1.5.673,1.5,1.5v1.5Z"/>
</svg>
