<?xml version="1.0" encoding="UTF-8"?>
<svg xmlns="http://www.w3.org/2000/svg" id="Layer_1" data-name="Layer 1" viewBox="0 0 24 24">
  <path d="m4.5,5c1.378,0,2.5-1.121,2.5-2.5S5.878,0,4.5,0s-2.5,1.121-2.5,2.5,1.122,2.5,2.5,2.5Zm0-4c.827,0,1.5.673,1.5,1.5s-.673,1.5-1.5,1.5-1.5-.673-1.5-1.5.673-1.5,1.5-1.5Zm3.5,6v7h-1v-7H2.5c-.827,0-1.5.673-1.5,1.5v5.5H0v-5.5c0-1.379,1.122-2.5,2.5-2.5h12.5v1h-7ZM21.5,0h-13.26c.206.308.37.644.494,1h12.766c.827,0,1.5.673,1.5,1.5v10.5h-2v-2h-5v2h-6v1h14V2.5c0-1.379-1.122-2.5-2.5-2.5Zm-4.5,12h3v1h-3v-1Zm-13.5,7.5c.827,0,1.5-.673,1.5-1.5s-.673-1.5-1.5-1.5-1.5.673-1.5,1.5.673,1.5,1.5,1.5Zm8.5,0c.827,0,1.5-.673,1.5-1.5s-.673-1.5-1.5-1.5-1.5.673-1.5,1.5.673,1.5,1.5,1.5Zm8.5,0c.827,0,1.5-.673,1.5-1.5s-.673-1.5-1.5-1.5-1.5.673-1.5,1.5.673,1.5,1.5,1.5Zm-13.5,3.5v1h-1v-1c0-.552-.449-1-1-1h-3c-.551,0-1,.448-1,1v1H0v-1c0-1.103.897-2,2-2h3c1.103,0,2,.897,2,2Zm17,0v1h-1v-1c0-.552-.449-1-1-1h-3c-.551,0-1,.448-1,1v1h-1v-1c0-1.103.897-2,2-2h3c1.103,0,2,.897,2,2Zm-8.5,0v1h-1v-1c0-.552-.449-1-1-1h-3c-.551,0-1,.448-1,1v1h-1v-1c0-1.103.897-2,2-2h3c1.103,0,2,.897,2,2Z"/>
</svg>
