<?xml version="1.0" encoding="UTF-8"?>
<svg xmlns="http://www.w3.org/2000/svg" id="Layer_1" data-name="Layer 1" viewBox="0 0 24 24">
  <path d="m23.439,15c-6.435,0-9.552,3.574-10.939,6.055v-6.876c3.075-.255,5.5-2.839,5.5-5.979,0-2.857-2.052-5.335-4.058-7.381-1.034-1.056-2.848-1.058-3.885,0-2.006,2.047-4.058,4.524-4.058,7.381,0,3.14,2.425,5.724,5.5,5.979v6.869c-1.385-2.481-4.495-6.048-10.923-6.048H.006l.075.565c.946,7.157,8.419,8.435,11.919,8.435s10.989-1.275,11.936-8.435l.074-.565h-.57Zm-22.271,1.011c7.081.26,9.495,5.163,10.145,6.961-2.211-.148-8.96-1.083-10.145-6.961Zm5.832-7.811c0-2.497,1.907-4.779,3.771-6.681.329-.334.765-.519,1.229-.519.071,0,.141.005.21.013-1.375,2.455-2.21,5.437-2.21,7.987h1c0-2.415.804-5.252,2.126-7.576.035.03.069.062.101.095,1.865,1.902,3.772,4.184,3.772,6.681,0,2.757-2.243,5-5,5s-5-2.243-5-5Zm5.688,14.772c.654-1.799,3.079-6.702,10.159-6.961-1.185,5.878-7.944,6.813-10.159,6.961Z"/>
</svg>
