<?xml version="1.0" encoding="UTF-8"?>
<svg xmlns="http://www.w3.org/2000/svg" id="Layer_1" data-name="Layer 1" viewBox="0 0 24 24">
  <path d="m19.528,14.265c.411-.672.638-1.447.638-2.265,0-2.461-2.056-4.468-4.471-4.367.411-.672.638-1.447.638-2.264,0-2.409-1.944-4.369-4.333-4.369s-4.333,1.96-4.333,4.369c0,.821.23,1.599.652,2.279-.051-.002-.101-.017-.152-.017-2.389,0-4.333,1.96-4.333,4.369,0,.821.229,1.6.652,2.279-.051-.002-.101-.017-.152-.017-2.39,0-4.333,1.96-4.333,4.369s1.944,4.368,4.333,4.368c1.673,0,3.111-.972,3.833-2.375.722,1.403,2.16,2.375,3.833,2.375s3.112-.972,3.833-2.375c.722,1.403,2.16,2.375,3.833,2.375,2.39,0,4.333-1.96,4.333-4.368,0-2.461-2.055-4.468-4.472-4.367ZM12,2c1.858,0,3.365,1.506,3.365,3.365s-1.506,3.365-3.365,3.365-3.365-1.506-3.365-3.365,1.506-3.365,3.365-3.365Zm-7.667,19.992c-1.858,0-3.365-1.506-3.365-3.365s1.506-3.365,3.365-3.365,3.365,1.506,3.365,3.365-1.506,3.365-3.365,3.365Zm.468-9.996c0-1.858,1.506-3.365,3.365-3.365s3.365,1.506,3.365,3.365-1.506,3.365-3.365,3.365-3.365-1.506-3.365-3.365Zm7.198,9.996c-1.858,0-3.365-1.506-3.365-3.365s1.506-3.365,3.365-3.365,3.365,1.506,3.365,3.365-1.506,3.365-3.365,3.365Zm.469-9.996c0-1.858,1.506-3.365,3.365-3.365s3.365,1.506,3.365,3.365-1.506,3.365-3.365,3.365-3.365-1.506-3.365-3.365Zm7.198,9.996c-1.858,0-3.365-1.506-3.365-3.365s1.506-3.365,3.365-3.365,3.365,1.506,3.365,3.365-1.506,3.365-3.365,3.365Z"/>
</svg>
