<?xml version="1.0" encoding="UTF-8"?>
<svg xmlns="http://www.w3.org/2000/svg" id="Layer_1" data-name="Layer 1" viewBox="0 0 24 24">
  <path d="m23.602,10.52c-.337-.468-.835-.773-1.388-.883l.9-.9c.804-.803.936-2.067.308-2.94-.287-.399-.881-.83-1.706-.769.367-.743.347-1.63-.133-2.296-.388-.539-.985-.878-1.641-.931-.659-.053-1.297.184-1.76.647l-.356.357c-.054-.308-.166-.606-.354-.867-.388-.539-.985-.878-1.641-.931-.659-.054-1.297.184-1.76.647L5,10.739v-2.146c0-1.273-.896-2.379-2.084-2.573-.731-.117-1.475.085-2.035.562-.56.476-.881,1.17-.881,1.905v6.17c0,2.248.915,4.447,2.511,6.031l.815.81c1.627,1.616,3.858,2.502,6.148,2.502,2.319-.021,4.487-.947,6.103-2.61l7.717-7.929c.804-.803.937-2.067.308-2.94Zm-1.02,2.238l-7.722,7.934c-1.429,1.471-3.345,2.29-5.395,2.309-2.045-.011-3.98-.768-5.435-2.212l-.816-.81c-1.417-1.408-2.215-3.323-2.215-5.321v-6.17c0-.44.193-.857.529-1.143.342-.29.778-.409,1.227-.336.709.115,1.245.797,1.245,1.586v4.562L14.778,2.361c.256-.256.616-.385.973-.357.366.03.689.214.909.519.345.479.258,1.188-.202,1.649l-5.138,5.149.708.706,6.86-6.872c.256-.256.612-.381.973-.357.366.03.689.214.909.519.345.479.258,1.188-.203,1.648l-6.795,6.808.707.707,6.271-6.271c.473-.473,1.236-.481,1.719-.019.498.477.507,1.27.019,1.757l-6.265,6.278.709.705,3.976-3.988c.256-.256.611-.384.973-.357.366.03.689.214.909.519.345.48.258,1.188-.208,1.654Zm-11.332.242c-.693,0-1.337.31-1.759.774-.417-.465-1.055-.774-1.741-.774-1.241,0-2.25,1.072-2.25,2.39,0,2.178,3.334,4.557,3.715,4.821l.285.197.285-.197c.38-.265,3.715-2.644,3.715-4.821,0-1.317-1.009-2.39-2.25-2.39Zm-1.75,6.183c-1.043-.783-3-2.516-3-3.793,0-.767.561-1.39,1.25-1.39.625,0,1.238.495,1.238,1h1c0-.505.625-1,1.262-1,.689,0,1.25.623,1.25,1.39,0,1.277-1.957,3.01-3,3.793Z"/>
</svg>
