<?xml version="1.0" encoding="UTF-8"?>
<svg xmlns="http://www.w3.org/2000/svg" id="Layer_1" data-name="Layer 1" viewBox="0 0 24 24">
  <path d="m22.646,5.606c-1.452-.701-3.018-1.744-3.646-4.17V0c-.773,0-1.443.439-1.776,1.081-1.541.205-2.772.799-3.67,1.775-1.761,1.914-1.562,4.573-1.554,4.644v1.5h-4.506c-1.197,0-2.257.606-2.889,1.527C1.678,11.496,0,14.583,0,19h1c0-1.399.213-4.252,1.794-6.094-.528,1.454-.794,3.489-.794,6.094h1c0-2.884.347-5.062.996-6.368.037,1.658.724,3.809,1.229,5.392.119.372.229.715.319,1.019l-.61,4.958h5.018l.5-5h2.547v5h5v-5.447l.404-1.896c.404-1.415.596-2.338.596-3.758v-3.899h5v-1.173c0-.953-.532-1.825-1.354-2.221Zm-12.146,8.394c-.827,0-1.5-.673-1.5-1.5v-2.5h3v2.5c0,.827-.673,1.5-1.5,1.5Zm-.953,4l-.5,5h-2.982l.497-4.042s-.25-.818-.384-1.239c-.5-1.564-1.184-3.707-1.184-5.225.003-1.376,1.125-2.495,2.5-2.495h.506v2.5c0,1.207.86,2.217,2,2.45v3.05h-.453Zm13.453-10h-5v4.899c0,1.31-.172,2.133-.566,3.517l-.423,1.98-.011,4.604h-3v-5h-3v-3.05c1.14-.232,2-1.242,2-2.45v-5.041c-.003-.023-.169-2.347,1.295-3.932.872-.943,2.157-1.454,3.826-1.52.789,2.611,2.587,3.775,4.09,4.5.479.23.789.749.789,1.32v.173Zm-4.5-3c0,.552-.448,1-1,1s-1-.448-1-1,.448-1,1-1,1,.448,1,1Z"/>
</svg>
