<?xml version="1.0" encoding="UTF-8"?>
<svg xmlns="http://www.w3.org/2000/svg" id="Layer_1" data-name="Layer 1" viewBox="0 0 24 24">
  <path d="m24,2.5c0-1.378-1.122-2.5-2.5-2.5H2.5C1.122,0,0,1.122,0,2.5v5.5h1v16h22V8h1V2.5Zm-2,20.5H2v-15h20v15Zm1-16H1V2.5c0-.827.673-1.5,1.5-1.5h19c.827,0,1.5.673,1.5,1.5v4.5Zm-11.271,12.795l.271.174.271-.174c.193-.125,4.729-3.08,4.729-5.865,0-1.616-1.233-2.93-2.75-2.93-.951,0-1.761.435-2.25,1.128-.489-.693-1.299-1.128-2.25-1.128-1.517,0-2.75,1.314-2.75,2.93,0,2.786,4.536,5.741,4.729,5.865Zm-1.979-7.795c1.014,0,1.75.736,1.75,1.75v.327h1v-.327c0-1.014.736-1.75,1.75-1.75.965,0,1.75.866,1.75,1.93,0,1.733-2.673,3.93-4,4.844-1.327-.914-4-3.111-4-4.844,0-1.064.785-1.93,1.75-1.93Z"/>
</svg>
