<?xml version="1.0" encoding="UTF-8"?>
<svg xmlns="http://www.w3.org/2000/svg" id="Layer_1" data-name="Layer 1" viewBox="0 0 24 24">
  <path d="m24,19.064c0,2.757-2.243,5-5,5h-5.672l.945-1h4.727c2.206,0,4-1.794,4-4,0-1.575-.935-3.009-2.381-3.651l-.555-.246.348-.497c.385-.55.588-1.191.588-1.855,0-1.332-.803-2.516-2.046-3.014l-.542-.218.299-.502c.191-.322.289-.664.289-1.017,0-1.103-.897-2-2-2h-4v-1h2.403c-.164-.836-.744-1.857-1.564-2.694-.618-.632-1.281-1.067-1.857-1.232-.175,2.675-1.446,4.263-2.289,4.927h-2.692c-1.103,0-2,.897-2,2,0,.353.098.694.289,1.017l.299.502-.542.218c-1.243.498-2.046,1.682-2.046,3.014,0,.664.203,1.306.588,1.855l.348.497-.555.246c-1.446.643-2.381,2.076-2.381,3.651,0,2.206,1.794,4,4,4h2.352l-.375,1h-1.977c-2.757,0-5-2.243-5-5,0-1.781.955-3.417,2.474-4.308-.312-.601-.474-1.262-.474-1.942,0-1.564.845-2.971,2.192-3.714-.127-.335-.192-.686-.192-1.036,0-1.654,1.346-3,3-3h2.101c.896-.756,1.899-2.132,1.899-4.5V.064h.5c.942,0,2.056.586,3.054,1.606,1.016,1.039,1.706,2.316,1.864,3.394h.582c1.654,0,3,1.346,3,3,0,.351-.065.701-.192,1.036,1.348.743,2.192,2.149,2.192,3.714,0,.681-.162,1.342-.474,1.942,1.519.891,2.474,2.526,2.474,4.308Zm-13.362,4.936h-1.5l1.5-4h-1.855c-.455,0-.872-.21-1.143-.575-.271-.365-.351-.824-.219-1.26l2.417-6.165h4.907l-1.641,4h1.848c.519,0,.993.284,1.238.74.245.457.219,1.01-.067,1.441l-5.485,5.818Zm4.672-6.787c-.035-.063-.139-.213-.357-.213h-3.338l1.641-4h-2.735l-2.154,5.493c-.026.092-.003.228.077.336.081.108.204.171.34.171h3.299l-1.254,3.343,4.48-4.744c.096-.171.034-.324.002-.386Z"/>
</svg>
