<?xml version="1.0" encoding="UTF-8"?>
<svg xmlns="http://www.w3.org/2000/svg" id="Layer_1" data-name="Layer 1" viewBox="0 0 24 24" width="512" height="512"><path d="M15,4h-1V0h1V4ZM11,0h-1V4h1V0Zm13,15.5c0,2.481-2.019,4.5-4.5,4.5h-1.629c-1.003,2.24-2.016,3.876-2.093,4H5.221c-.173-.277-4.4-7.12-5.209-15.22-.071-.716,.163-1.43,.643-1.96,.472-.521,1.144-.819,1.845-.819h0l15.998,.003c.701,0,1.374,.299,1.845,.82,.48,.53,.714,1.245,.643,1.959-.112,1.124-.288,2.219-.507,3.272,2.252,.266,3.521,1.489,3.521,3.445Zm-4.009-6.816c.043-.435-.099-.868-.389-1.189-.287-.317-.679-.491-1.104-.491l-9.5-.002,.002,3.792,2,2-.002,4.207H5.998l.002-4.207,2-2-.002-3.792H2.5c-.425,0-.817,.173-1.104,.49-.291,.321-.433,.755-.389,1.189,.702,7.029,4.046,13.072,4.775,14.32H15.216c.729-1.248,4.073-7.291,4.774-14.317ZM7,13.207v2.792h2.999v-2.792l-1.499-1.5-1.5,1.5Zm16,2.292c0-1.466-.921-2.294-2.74-2.466-.538,2.255-1.258,4.289-1.957,5.966h1.197c1.93,0,3.5-1.57,3.5-3.5ZM7,0h-1V4h1V0Z"/></svg>
