<?xml version="1.0" encoding="UTF-8"?>
<svg xmlns="http://www.w3.org/2000/svg" id="Layer_1" data-name="Layer 1" viewBox="0 0 24 24">
  <path d="m24,9.5c0-3.645-5.271-6.5-12-6.5S0,5.855,0,9.5v5.25c0,3.505,5.271,6.25,12,6.25s12-2.745,12-6.25v-5.227h0c0-.008,0-.015,0-.023Zm-12-5.5c5.963,0,11,2.519,11,5.5,0,.604-.207,1.189-.586,1.738-2.106-1.984-6.09-3.238-10.414-3.238s-8.307,1.257-10.414,3.238c-.379-.549-.586-1.134-.586-1.738,0-2.981,5.037-5.5,11-5.5Zm9.76,7.994c-1.853,1.768-5.579,3.006-9.76,3.006s-7.906-1.238-9.76-3.006c1.906-1.83,5.66-2.994,9.76-2.994s7.855,1.162,9.76,2.994Zm1.24,2.756c0,2.846-5.037,5.25-11,5.25S1,17.596,1,14.75v-2.607c1.836,2.292,6.018,3.857,11,3.857s9.164-1.565,11-3.857v2.607Z"/>
</svg>
