<?xml version="1.0" encoding="UTF-8"?>
<svg xmlns="http://www.w3.org/2000/svg" id="Layer_1" data-name="Layer 1" viewBox="0 0 24 24" width="512" height="512"><path d="M23.98,6.92c-.05-1.89-.87-3.66-2.3-4.99-2.92-2.72-7.52-2.55-10.25,.38-.69,.74-2.01,2.58-6.25,10.35C2.89,16.88,.5,21.15,.5,21.15l-.25,.45,4.35,2.26,.24-.42s2.37-4.24,4.65-8.43c4.11-7.54,5.23-8.99,5.48-9.25,.43-.46,1.01-.73,1.64-.75,.63-.03,1.23,.2,1.68,.62,.45,.42,.7,.98,.7,1.58,0,.6-.22,1.19-.69,1.69l-.6,.8,4.16,2.83,.29-.37c1.24-1.6,1.87-3.41,1.82-5.23Zm-13.87-.92h3.43c-.57,.84-1.49,2.34-2.98,5h-3.32c1.14-2.05,2.09-3.72,2.87-5ZM4.2,22.52l-2.57-1.34c.34-.6,.98-1.76,1.77-3.19h3.31c-1.13,2.04-2.08,3.76-2.51,4.52Zm4.41-7.99c-.45,.83-.91,1.67-1.35,2.47H3.95c.66-1.2,1.39-2.53,2.11-3.85,.21-.39,.42-.78,.63-1.15h3.31c-.42,.76-.89,1.6-1.39,2.53ZM14.31,5h-3.57c.62-.98,1.1-1.64,1.43-2,1.05-1.13,2.41-1.78,3.83-1.95v3.03c-.64,.14-1.22,.45-1.69,.92Zm4.66-.11c-.55-.51-1.24-.81-1.98-.88V1c1.44,.05,2.87,.6,4.01,1.66,.72,.67,1.26,1.46,1.59,2.33h-3.51s-.07-.07-.11-.11Zm2.68,6.27l-2.51-1.7c.56-.64,.86-1.44,.85-2.27,0-.42-.09-.82-.25-1.19h3.13c.06,.31,.1,.63,.1,.95,.04,1.45-.42,2.9-1.33,4.21Z"/></svg>
