<?xml version="1.0" encoding="UTF-8"?>
<svg xmlns="http://www.w3.org/2000/svg" id="Layer_1" data-name="Layer 1" viewBox="0 0 24 24">
  <path d="m20.632,5.58c-.041-.028-.082-.055-.125-.08.042-.026.084-.052.125-.08,1.208-.832,1.542-2.7,1.556-2.779l.086-.499-.501-.08c-.081-.012-2.013-.307-3.21.519-.438.302-.762.74-.996,1.18-.889-2.202-3.049-3.76-5.566-3.76-3.309,0-6,2.691-6,6s2.691,6,6,6c2.754,0,5.08-1.865,5.782-4.398.207.31.463.599.78.818.69.476,1.625.58,2.308.58.502,0,.868-.057.902-.062l.501-.08-.086-.499c-.014-.079-.348-1.947-1.556-2.779Zm-8.632,5.42c-2.761,0-5-2.239-5-5S9.239,1,12,1s5,2.239,5,5-2.239,5-5,5Zm7.129-7.596c.518-.357,1.343-.418,1.936-.401-.171.535-.494,1.245-.999,1.593-.518.357-1.342.421-1.936.401.171-.535.494-1.245.999-1.593Zm0,4.191c-.505-.348-.828-1.058-.999-1.593.594-.018,1.418.045,1.936.401.505.348.828,1.058.999,1.593-.593.022-1.418-.044-1.936-.401Zm-2.129,6.404H7c-2.206,0-4,1.794-4,4v6h1v-6c0-1.531,1.153-2.797,2.636-2.977.954,2.119,3.552,6.215,5.734,8.977h1.295c-.36-.444-.72-.91-1.076-1.39,2.997-3.863,4.53-6.972,4.818-7.582,1.463.199,2.594,1.455,2.594,2.972v6h1v-6c0-2.206-1.794-4-4-4Zm-5.025,7.767c-1.756-2.465-3.35-5.126-4.217-6.767h8.547c-.531,1.047-1.949,3.66-4.33,6.767Zm2.025-17.767h-4c-1.103,0-2,.897-2,2s.897,2,2,2h4c1.103,0,2-.897,2-2s-.897-2-2-2Zm0,3h-4c-.552,0-1-.448-1-1s.448-1,1-1h4c.552,0,1,.448,1,1s-.448,1-1,1Z"/>
</svg>
