<?xml version="1.0" encoding="UTF-8"?>
<svg xmlns="http://www.w3.org/2000/svg" id="Layer_1" data-name="Layer 1" viewBox="0 0 24 24" width="512" height="512"><path d="M16.151,20.4c.288-1.178,1.476-6.537,.427-10.995-.339-1.439-.723-2.686-1.084-3.71,.136,.101,.275,.2,.419,.296,2.964,1.979,6.375,2.009,6.569,2.009h.665l-.181-.637c-.042-.146-1.059-3.613-4.072-5.625C16.368,.052,12.981-.023,11.999,0c-1.018,.019-4.354,.224-6.854,1.892C2.137,3.9,1.082,7.212,1.038,7.352l-.201,.647h.681c.171,.001,2.837-.022,5.496-1.38-.15,2.22,.754,4.106,.798,4.198l.212,.436,.442-.199c.128-.057,2.94-1.346,4.21-3.905,.184,1.106,.323,2.194,.323,3.074,0,3.947-1.87,8.346-2.561,9.836-5.59,.414-9.987,2.892-10.187,3.007l.496,.868c.049-.028,5.29-2.934,11.252-2.934,6.039,0,11.201,2.905,11.252,2.934l.496-.868c-.168-.096-3.292-1.857-7.597-2.666ZM7.532,5.159c-1.934,1.292-4.135,1.677-5.262,1.792,.457-1.023,1.513-2.947,3.431-4.228,1.926-1.286,4.255-1.616,5.483-1.699-.546,1.005-1.736,2.855-3.652,4.134Zm4.463,1.052c-.718,1.939-2.602,3.193-3.478,3.689-.277-.76-.719-2.32-.414-3.92,1.945-1.304,3.185-3.105,3.828-4.234,.328,1.082,.663,2.847,.065,4.464Zm.803-5.221c1.196,.031,3.581,.272,5.539,1.58,1.941,1.296,2.981,3.33,3.416,4.384-1.121-.112-3.338-.494-5.285-1.794-1.932-1.29-3.13-3.17-3.67-4.169Zm2.363,19.245c-1.007-.147-2.068-.235-3.161-.235-.146,0-.29,.002-.434,.005,.834-1.871,2.434-5.958,2.434-9.782,0-1.471-.337-3.344-.682-5.138,.062-.526,.023-1.035-.016-1.523,.163,.204,.339,.411,.526,.617,.493,1.138,1.201,3.008,1.777,5.456,1.01,4.291-.217,9.679-.443,10.6Z"/></svg>
