<?xml version="1.0" encoding="UTF-8"?>
<svg xmlns="http://www.w3.org/2000/svg" id="Layer_1" data-name="Layer 1" viewBox="0 0 24 24" width="512" height="512"><path d="M18.01,1H5.99L0,12l5.99,11h12.03l5.99-11L18.01,1Zm-.59,21H6.58L1.14,12,6.58,2h10.84l5.44,10-5.44,10Z"/><path d="M16,13c-.18,0-.35,.03-.52,.08l-2.08-3.65c.37-.36,.61-.87,.61-1.43,0-1.1-.9-2-2-2s-2,.9-2,2c0,.56,.23,1.07,.61,1.43l-2.08,3.65c-.17-.05-.34-.08-.52-.08-1.1,0-2,.9-2,2s.9,2,2,2c.93,0,1.71-.64,1.93-1.5h4.14c.22,.86,1,1.5,1.93,1.5,1.1,0,2-.9,2-2s-.9-2-2-2Zm-4-6c.55,0,1,.45,1,1s-.45,1-1,1-1-.45-1-1,.45-1,1-1Zm-4,9c-.55,0-1-.45-1-1s.45-1,1-1,1,.45,1,1-.45,1-1,1Zm6.07-1.5h-4.14c-.09-.36-.28-.68-.54-.93l2.08-3.65c.17,.05,.34,.08,.52,.08s.35-.03,.52-.08l2.08,3.65c-.26,.25-.44,.57-.54,.93Zm1.93,1.5c-.55,0-1-.45-1-1s.45-1,1-1,1,.45,1,1-.45,1-1,1Z"/></svg>
