<?xml version="1.0" encoding="UTF-8"?>
<svg xmlns="http://www.w3.org/2000/svg" id="Layer_1" data-name="Layer 1" viewBox="0 0 24 24">
  <path d="m17.405,7.302l1.859-1.859c.491.35,1.09.556,1.737.556,1.654,0,3-1.346,3-3s-1.346-3-3-3-3,1.346-3,3c0,.647.207,1.246.556,1.737l-1.742,1.742c.228.25.423.527.59.824Zm3.595-6.302c1.103,0,2,.897,2,2s-.897,2-2,2-2-.897-2-2,.897-2,2-2Zm-14.405,15.698l-1.859,1.859c-.491-.35-1.09-.556-1.737-.556-1.654,0-3,1.346-3,3s1.346,3,3,3,3-1.346,3-3c0-.647-.207-1.246-.556-1.737l1.742-1.742c-.228-.25-.423-.527-.59-.824Zm-3.595,6.302c-1.103,0-2-.897-2-2s.897-2,2-2,2,.897,2,2-.897,2-2,2Zm13-13.505v.505h-1v-.505c0-.824-.671-1.495-1.495-1.495h-3.01c-.824,0-1.495.671-1.495,1.495,0,.664.446,1.255,1.085,1.438l4.105,1.173c1.065.305,1.81,1.291,1.81,2.399,0,1.376-1.119,2.495-2.495,2.495h-1.005v2h-1v-2h-1.005c-1.376,0-2.495-1.119-2.495-2.495v-.505h1v.505c0,.824.671,1.495,1.495,1.495h3.01c.824,0,1.495-.671,1.495-1.495,0-.664-.446-1.255-1.085-1.438l-4.105-1.173c-1.065-.305-1.81-1.291-1.81-2.399,0-1.376,1.119-2.495,2.495-2.495h1.005v-2h1v2h1.005c1.376,0,2.495,1.119,2.495,2.495ZM6,3c0-1.654-1.346-3-3-3S0,1.346,0,3s1.346,3,3,3c.647,0,1.246-.207,1.737-.556l1.859,1.859c.168-.297.362-.574.59-.824l-1.742-1.742c.35-.491.556-1.09.556-1.737Zm-5,0c0-1.103.897-2,2-2s2,.897,2,2-.897,2-2,2-2-.897-2-2Zm20,15c-.647,0-1.246.207-1.737.556l-1.859-1.859c-.168.297-.362.574-.59.824l1.742,1.742c-.35.491-.556,1.09-.556,1.737,0,1.654,1.346,3,3,3s3-1.346,3-3-1.346-3-3-3Zm0,5c-1.103,0-2-.897-2-2s.897-2,2-2,2,.897,2,2-.897,2-2,2Z"/>
</svg>
