<?xml version="1.0" encoding="UTF-8"?>
<svg xmlns="http://www.w3.org/2000/svg" id="Layer_1" data-name="Layer 1" viewBox="0 0 24 24">
  <path d="m22,21V7h1v-1h-1v-1.5c0-1.207-.86-2.217-2-2.449V0h-1v2.051c-1.14.232-2,1.242-2,2.449v1.5h-1v1h1v14h-4v-3.944c1.226-1.145,2-2.582,2-3.85,0-3.162-2.796-4.573-4.837-5.604-.776-.392-1.566-.793-1.94-1.179-.062-.115-.123-.277-.17-.499.658-.163,1.195-.627,1.436-1.251-.232.09-.481.144-.744.144-1.144,0-2.072-.928-2.072-2.072,0-.263.054-.513.144-.744-.775.3-1.327,1.047-1.327,1.928,0,.912.593,1.677,1.411,1.954-.056.31-.138.501-.213.622-.4.361-1.13.733-1.851,1.097-2.041,1.031-4.837,2.442-4.837,5.604,0,1.274.775,2.716,2,3.861v3.933H0v3h1v-2h22v2h1v-3h-2Zm-4-16.5c0-.827.673-1.5,1.5-1.5s1.5.673,1.5,1.5v1.5h-3v-1.5Zm0,2.5h3v14h-3V7ZM1,13.206c0-2.546,2.278-3.696,4.288-4.711.894-.452,1.713-.865,2.212-1.378.499.513,1.318.926,2.212,1.378,2.01,1.015,4.288,2.165,4.288,4.711,0,1.216-1.055,2.791-2.521,3.794H3.507c-1.458-.999-2.507-2.573-2.507-3.794Zm2,4.794h9v3H3v-3Z"/>
</svg>
