<?xml version="1.0" encoding="UTF-8"?>
<svg xmlns="http://www.w3.org/2000/svg" id="Layer_1" data-name="Layer 1" viewBox="0 0 24 24">
  <path d="m19,11.993l3.535-3.458c.945-.944,1.465-2.2,1.465-3.536s-.52-2.591-1.465-3.536c-.944-.944-2.2-1.464-3.535-1.464s-2.591.52-3.536,1.464c-1.95,1.95-1.95,5.122.004,7.075l3.532,3.454Zm-2.829-9.822c.756-.755,1.76-1.171,2.829-1.171s2.073.416,2.828,1.171c.756.755,1.172,1.76,1.172,2.829s-.416,2.073-1.168,2.825l-2.832,2.77-2.829-2.766c-1.56-1.56-1.56-4.098,0-5.657Zm-7.921,15.829h-1.01l-1.73-2.16c-.282-.518-.824-.84-1.414-.84h-1.831l1.184,3h-.352l-.911-.625c-.568-.568-1.609-.433-2.012.262-.232.399-.233.877.047,1.352l1.696,2.011h1.518l-1.167,3h1.844c.59,0,1.132-.322,1.368-.769l1.761-2.231h2.758v-1.5c0-.883-.72-1.5-1.75-1.5Zm.75,2h-2.242l-2.108,2.682c-.107.196-.312.318-.536.318h-.382l1.167-3h-2.516l-1.343-1.582c-.072-.126-.023-.237,0-.279.037-.064.151-.323.508,0l1.238.861h2.133l-1.184-3h.361c.224,0,.429.122.584.391l2.079,2.609h1.491c.363,0,.75.131.75.5v.5Zm15-2.5c0,1.93-1.57,3.5-3.5,3.5h-8.5v-1h8.5c1.378,0,2.5-1.122,2.5-2.5s-1.122-2.5-2.5-2.5h-12c-1.93,0-3.5-1.57-3.5-3.5s1.57-3.5,3.5-3.5h4.181c.163.345.356.68.578,1h-4.759c-1.378,0-2.5,1.122-2.5,2.5s1.122,2.5,2.5,2.5h12c1.93,0,3.5,1.57,3.5,3.5Z"/>
  <circle cx="19.001" cy="4.787" r="1"/>
</svg>
