<?xml version="1.0" encoding="UTF-8"?>
<svg xmlns="http://www.w3.org/2000/svg" id="Layer_1" data-name="Layer 1" viewBox="0 0 24 24" width="512" height="512"><path d="m22,18.184V5.816c1.161-.414,2-1.514,2-2.816,0-1.654-1.346-3-3-3-1.302,0-2.402.839-2.816,2H5.816c-.414-1.161-1.514-2-2.816-2C1.346,0,0,1.346,0,3c0,1.302.839,2.402,2,2.816v12.369c-1.161.414-2,1.514-2,2.816,0,1.654,1.346,3,3,3,1.302,0,2.402-.839,2.816-2h12.369c.414,1.161,1.514,2,2.816,2,1.654,0,3-1.346,3-3,0-1.302-.839-2.402-2-2.816Zm-1-17.184c1.103,0,2,.897,2,2s-.897,2-2,2-2-.897-2-2,.897-2,2-2ZM1,3c0-1.103.897-2,2-2s2,.897,2,2-.897,2-2,2-2-.897-2-2Zm2,20c-1.103,0-2-.897-2-2s.897-2,2-2,2,.897,2,2-.897,2-2,2Zm15-2H6c0-1.654-1.346-3-3-3V6c1.654,0,3-1.346,3-3h12c0,1.654,1.346,3,3,3v12c-1.654,0-3,1.346-3,3Zm3,2c-1.103,0-2-.897-2-2s.897-2,2-2,2,.897,2,2-.897,2-2,2Z"/></svg>
