<?xml version="1.0" encoding="UTF-8"?>
<svg xmlns="http://www.w3.org/2000/svg" id="Layer_1" data-name="Layer 1" viewBox="0 0 24 24">
  <path d="m24,2.5v19c0,1.448-1.051,2.5-2.5,2.5H2.5c-1.449,0-2.5-1.052-2.5-2.5v-6.5h1v6.5c0,.897.603,1.5,1.5,1.5h19c.897,0,1.5-.603,1.5-1.5V2.5c0-.897-.603-1.5-1.5-1.5H2.5c-.897,0-1.5.603-1.5,1.5v6.5H0V2.5C0,1.051,1.051,0,2.5,0h19c1.449,0,2.5,1.051,2.5,2.5Zm-6.288,10.202l-4.561,4.439.697.717,4.565-4.444c.378-.377.586-.88.586-1.414s-.208-1.037-.589-1.417l-4.561-4.478-.7.714,4.557,4.475c.06.06.096.136.139.207H0v1h17.847c-.041.07-.076.144-.135.202Z"/>
</svg>
