<?xml version="1.0" encoding="UTF-8"?>
<svg xmlns="http://www.w3.org/2000/svg" id="Layer_1" data-name="Layer 1" viewBox="0 0 24 24">
  <path d="m9.047,9.247l2.246-2.247-2.246-2.247.707-.707,2.246,2.247,2.246-2.247.707.707-2.246,2.247,2.246,2.247-.707.707-2.246-2.247-2.246,2.247-.707-.707ZM.754,5.954l2.246-2.247,2.246,2.247.707-.707-2.246-2.247L5.953.753,5.246.046l-2.246,2.247L.754.046.047.753l2.246,2.247L.047,5.247l.707.707Zm19.492,12.093l-2.246,2.246-2.246-2.246-.707.707,2.246,2.246-2.246,2.246.707.707,2.246-2.246,2.246,2.246.707-.707-2.246-2.246,2.246-2.246-.707-.707Zm3.752-15.169l-.707.707-2.291-2.289v10.204c0,1.378-1.121,2.5-2.5,2.5H4.5c-.826,0-1.499.672-1.5,1.497l-.007,3.554c1.14.233,1.999,1.242,1.999,2.449,0,1.379-1.121,2.5-2.5,2.5S-.008,22.879-.008,21.5c0-1.208.861-2.218,2.001-2.45l.007-3.554c0-1.376,1.123-2.496,2.5-2.496h14c.827,0,1.5-.673,1.5-1.5V1.296l-2.314,2.312-.707-.707,2.469-2.467c.58-.579,1.525-.58,2.105,0l2.445,2.443ZM2.492,20c-.827,0-1.5.673-1.5,1.5s.673,1.5,1.5,1.5,1.5-.673,1.5-1.5-.673-1.5-1.5-1.5Z"/>
</svg>
