<?xml version="1.0" encoding="UTF-8"?>
<svg xmlns="http://www.w3.org/2000/svg" id="Layer_1" data-name="Layer 1" viewBox="0 0 24 24">
  <path d="m8,10c0,.552-.449,1-1,1s-1-.448-1-1,.449-1,1-1,1,.448,1,1Zm9-1c-.551,0-1,.448-1,1s.449,1,1,1,1-.448,1-1-.449-1-1-1Zm7,4.55c0,5.665-4.809,10.45-10.5,10.45h-3C4.809,24,0,19.215,0,13.55,0,6.46,1.095,1.26,1.106,1.208l.165-.77,3.873,2.939c1.988-1.472,4.462-2.334,6.847-2.378,2.39-.04,4.633.742,6.83,2.401l3.934-2.981.142.806c.011.062,1.103,6.326,1.103,12.324Zm-1,0c0-4.647-.666-9.463-.956-11.337l-3.234,2.451-.304-.241c-2.106-1.671-4.247-2.466-6.497-2.423-2.295.042-4.684.916-6.553,2.398l-.304.241L1.937,2.199c-.297,1.689-.937,5.961-.937,11.351,0,5.122,4.351,9.45,9.5,9.45h3c5.149,0,9.5-4.328,9.5-9.45Zm-7,4.45v1c-2.345,0-3.462-1.1-4-2.146-.538,1.047-1.655,2.146-4,2.146v-1c2.232,0,3.038-1.175,3.331-2.062-1.46-.273-2.331-1.407-2.331-2.251,0-.778.786-1.688,3-1.688s3,.909,3,1.688c0,.844-.871,1.978-2.331,2.251.293.887,1.099,2.062,3.331,2.062Zm-4.012-3.001h.023c1.312-.005,1.989-.92,1.989-1.312,0-.277-.636-.688-2-.688s-2,.41-2,.688c0,.391.677,1.306,1.988,1.312Z"/>
</svg>
