<?xml version="1.0" encoding="UTF-8"?>
<svg xmlns="http://www.w3.org/2000/svg" id="Layer_1" data-name="Layer 1" viewBox="0 0 24 24" width="512" height="512"><path d="m23.686,10.737l-4.445-8.362c-.452-.848-1.328-1.375-2.286-1.375H7.067c-.956,0-1.832.525-2.284,1.372L.316,10.738c-.423.794-.423,1.742,0,2.535l4.466,8.356c.452.846,1.327,1.371,2.283,1.371h9.888c.958,0,1.834-.527,2.286-1.375l4.445-8.362c.42-.791.42-1.735,0-2.525Zm-.883,2.056l-4.445,8.36c-.278.522-.815.846-1.403.846H7.066c-.586,0-1.123-.323-1.4-.843L1.199,12.801c-.266-.498-.267-1.093,0-1.592L5.666,2.843c.277-.52.814-.843,1.401-.843h9.887c.588,0,1.125.324,1.403.846l4.445,8.361c.264.497.264,1.09,0,1.587Zm-6.752-4.153l-3.345,3.36,3.345,3.36-.709.706-3.342-3.357-3.342,3.357-.709-.706,3.345-3.36-3.345-3.36.709-.706,3.342,3.357,3.342-3.357.709.706Z"/></svg>
