<?xml version="1.0" encoding="UTF-8"?>
<svg xmlns="http://www.w3.org/2000/svg" id="Layer_1" data-name="Layer 1" viewBox="0 0 24 24" width="512" height="512"><path d="M20.194,1c.574,1.161,2.806,6.06,2.806,12h1c0-7.046-3.078-12.771-3.203-13H2.269l2.124,5.45C3.677,6.647,.465,12.481,.003,21.37c-.036,.689,.208,1.345,.685,1.848,.472,.497,1.134,.782,1.817,.782H18.521c.69,0,1.333-.276,1.811-.776,.477-.5,.723-1.153,.691-1.84-.42-9.168-3.506-15.085-4.022-16.015V1h3.194ZM3.731,1h12.269V5H5.29L3.731,1ZM20.023,21.43c.019,.412-.128,.803-.415,1.104-.288,.301-.674,.467-1.088,.467H2.505c-.416,0-.804-.167-1.092-.471-.287-.302-.432-.695-.411-1.108,.168-3.24,.724-6.081,1.385-8.421h14.613c-.101-.349-.203-.684-.306-1H2.684c1.009-3.223,2.157-5.331,2.547-6h10.972c.649,1.233,3.433,6.973,3.82,15.43Z"/></svg>
