<?xml version="1.0" encoding="UTF-8"?>
<svg xmlns="http://www.w3.org/2000/svg" id="Layer_1" data-name="Layer 1" viewBox="0 0 24 24" width="512" height="512"><path d="m23.013,19.5c0-.791.55-2.336.762-2.866l.22-.548-.576-.126c-.018-.004-1.824-.411-2.976-1.569-1.161-1.166-1.939-3.994-1.947-4.022l-.02.005c.014-.125.038-.246.038-.375,0-1.93-1.57-3.5-3.5-3.5-.051,0-.098.013-.148.015.405-.571.648-1.264.648-2.015,0-1.93-1.57-3.5-3.5-3.5s-3.5,1.57-3.5,3.5c0,.751.243,1.444.648,2.015-.05-.002-.097-.015-.148-.015-1.93,0-3.5,1.57-3.5,3.5,0,.128.024.25.038.375l-.02-.005c-.008.028-.786,2.856-1.947,4.021-1.147,1.152-2.959,1.565-2.977,1.569l-.575.128.219.546c.212.529.762,2.074.762,2.866,0,1.473-.564,2.917-.57,2.931L.012,23.519l1.084-.44c.014-.006,1.439-.579,2.917-.579,1.414,0,2.771.905,2.784.914l.611.412.158-.719c.004-.02.441-1.962,1.595-3.121.79-.794,1.752-1.349,2.853-1.663,1.101.314,2.063.869,2.853,1.663,1.149,1.153,1.59,3.101,1.595,3.121l.16.718.609-.411c.014-.009,1.371-.914,2.784-.914,1.473,0,2.871.544,2.885.549l1.052.414-.401-1.057c-.005-.014-.536-1.43-.536-2.907Zm-5.5-9.5c0,1.378-1.122,2.5-2.5,2.5s-2.5-1.122-2.5-2.5,1.122-2.5,2.5-2.5,2.5,1.122,2.5,2.5ZM12.013,2c1.378,0,2.5,1.122,2.5,2.5s-1.122,2.5-2.5,2.5-2.5-1.122-2.5-2.5,1.122-2.5,2.5-2.5Zm-3,5.5c1.378,0,2.5,1.122,2.5,2.5s-1.122,2.5-2.5,2.5-2.5-1.122-2.5-2.5,1.122-2.5,2.5-2.5Zm-.562,11.781c-.915.919-1.434,2.2-1.681,2.964-.619-.319-1.653-.746-2.758-.746-.875,0-1.719.171-2.333.339.165-.617.333-1.463.333-2.339,0-.802-.393-2.027-.639-2.718.715-.23,1.978-.74,2.919-1.686.801-.805,1.414-2.183,1.788-3.197.625.961,1.703,1.601,2.932,1.601.112,0,.217-.023.326-.033l-4.179,4.179.707.707,5.646-5.646v4.715c-1.174.372-2.202.996-3.062,1.859Zm13.875,2.542c-.604-.159-1.438-.323-2.314-.323-1.105,0-2.139.427-2.757.746-.247-.764-.766-2.045-1.681-2.964-.858-.863-1.887-1.487-3.062-1.859v-4.715l5.646,5.646.707-.707-4.179-4.179c.109.01.214.033.326.033,1.229,0,2.308-.64,2.932-1.601.374,1.014.987,2.393,1.789,3.197.941.946,2.204,1.456,2.918,1.686-.247.691-.639,1.916-.639,2.718,0,.875.159,1.714.314,2.323Z"/></svg>
