<?xml version="1.0" encoding="UTF-8"?>
<svg xmlns="http://www.w3.org/2000/svg" id="Layer_1" data-name="Layer 1" width="512" height="512" viewBox="0 0 24 24"><path d="M12,1C5.383,1,0,6.383,0,13c0,3.911,1.949,7.616,5.212,9.909l.129,.091h13.316l.129-.091c3.264-2.293,5.212-5.998,5.212-9.909,0-6.617-5.383-12-12-12Zm6.34,21H5.66c-2.878-2.085-4.66-5.519-4.66-9C1,6.935,5.935,2,12,2s11,4.935,11,11c0,3.481-1.782,6.915-4.66,9Zm-5.325-10.722c-.298-.176-.645-.278-1.015-.278-1.103,0-2,.897-2,2s.897,2,2,2,2-.897,2-2c0-.37-.102-.717-.278-1.015l4.631-4.631-.707-.707-4.631,4.631Zm-1.015,2.722c-.551,0-1-.448-1-1s.449-1,1-1,1,.448,1,1-.449,1-1,1Z"/></svg>
