<?xml version="1.0" encoding="UTF-8"?>
<svg xmlns="http://www.w3.org/2000/svg" id="Layer_1" data-name="Layer 1" viewBox="0 0 24 24">
  <path d="m23.527,17.888c-1.081-2.196-2.378-3.717-2.527-3.888h0c.125-.165,1.202-1.571,2.434-2.533l.608-.475-.682-.361c-.622-.33-2.215-.999-4.36-1.523v-3.946l-.314-.126c-.105-.042-2.636-1.036-6.686-1.036s-6.58.994-6.686,1.036l-.314.126v3.946c-2.145.524-3.738,1.194-4.36,1.523l-.682.361.608.475c1.234.963,2.313,2.374,2.434,2.532l-.005.006c-.145.166-1.441,1.687-2.522,3.883l-.556,1.127,1.178-.438c2.114-.786,6.058-1.96,7.475-2.16l.431-.061v-3.127c.904-.133,1.93-.23,3-.23s2.096.097,3,.23v3.127l.431.061c1.417.2,5.36,1.374,7.475,2.16l1.178.438-.556-1.127ZM3.748,14.663l.541-.611-.49-.654c-.106-.142-.944-1.237-2.006-2.202.718-.305,1.844-.706,3.207-1.054v3.596l2.355,1.902c-1.474.341-3.649.983-5.382,1.567.879-1.505,1.733-2.496,1.775-2.545Zm2.252-1.832v-6.977c.777-.253,2.949-.854,6-.854s5.223.602,6,.854v6.977c-1.087-.298-3.392-.831-6-.831s-4.914.533-6,.831Zm10.645,2.81l2.355-1.902v-3.596c1.363.348,2.489.749,3.207,1.054-1.062.965-1.899,2.06-2.008,2.204l-.488.652.539.609c.044.051.898,1.042,1.777,2.547-1.733-.584-3.908-1.226-5.382-1.567Z"/>
</svg>
