<?xml version="1.0" encoding="UTF-8"?>
<svg xmlns="http://www.w3.org/2000/svg" id="Layer_1" data-name="Layer 1" viewBox="0 0 24 24">
  <path d="m10,11.292l1.778-.519.525-1.773h.404l.518,1.774,1.774.518v.404l-1.773.525-.519,1.778h-.404l-.526-1.777-1.777-.526v-.404Zm5.303-6.292h.404l.519-1.778,1.773-.525v-.404l-1.774-.518-.518-1.774h-.404l-.525,1.773-1.778.519v.404l1.777.526.526,1.777Zm-7,3h.404l.519-1.778,1.773-.525v-.404l-1.774-.518-.518-1.774h-.404l-.525,1.773-1.778.519v.404l1.777.526.526,1.777ZM23,0v1c0,.597-.311.996-.74,1.547-.435.559-.976,1.254-1.245,2.332-.189.754-.023,1.466.137,2.154.208.893.404,1.735-.1,2.743-.334.669-.795,1.086-1.283,1.528-.87.788-1.77,1.603-1.77,3.695v2h1v-2c0-1.648.636-2.225,1.441-2.954.51-.462,1.088-.985,1.506-1.822.665-1.331.407-2.439.179-3.417-.146-.625-.271-1.165-.142-1.685.218-.873.648-1.425,1.064-1.959.467-.6.951-1.221.951-2.162V0h-1Zm-11,23c-.176-1.169-1.056-4-5-4H0v1h7c2.584,0,3.495,1.448,3.819,2.484-.708-.785-1.882-1.484-3.819-1.484H0v1h7c1.263,0,2.242.337,2.928,1H0v1h24v-1h-9.928c.685-.663,1.664-1,2.928-1h7v-1h-7c-1.937,0-3.11.699-3.819,1.484.324-1.035,1.235-2.484,3.819-2.484h7v-1h-7c-3.944,0-4.824,2.831-5,4ZM2.015,5.121c.13.52.004,1.06-.142,1.685-.228.979-.486,2.087.179,3.417.418.837.997,1.36,1.506,1.822.805.729,1.441,1.306,1.441,2.954v2h1v-2c0-2.092-.899-2.907-1.77-3.695-.488-.442-.949-.859-1.283-1.528-.504-1.008-.308-1.851-.1-2.743.16-.688.326-1.4.137-2.154-.269-1.078-.81-1.773-1.245-2.332-.429-.552-.74-.95-.74-1.547V0H0v1c0,.94.483,1.562.951,2.162.416.535.846,1.087,1.064,1.959Z"/>
</svg>
