<?xml version="1.0" encoding="UTF-8"?>
<svg xmlns="http://www.w3.org/2000/svg" id="Layer_1" data-name="Layer 1" viewBox="0 0 24 24">
  <path d="m22.826,9.315c-1.251-1.222-4.47-2.048-8.643-2.261.506-.537.817-1.26.817-2.054,0-1.249-.767-2.322-1.855-2.773.509-.638,1.379-1.227,2.855-1.227V0c-2.246,0-3.385,1.155-3.918,2.002-.027,0-.054-.002-.082-.002s-.055.001-.082.002c-.533-.847-1.672-2.002-3.918-2.002v1c1.476,0,2.346.59,2.855,1.227-1.088.451-1.855,1.523-1.855,2.773,0,.794.311,1.517.817,2.054-4.173.213-7.391,1.038-8.643,2.261-.757.74-1.174,1.724-1.174,2.772s.417,2.031,1.174,2.771c.777.76,1.799,1.14,2.82,1.14s2.042-.38,2.819-1.14c.083-.081.171-.171.262-.267.335,2.64,1.954,5.409,1.954,5.409,1.202,2.059,2.511,3.432,2.612,3.536l.359.372.359-.372c.101-.104,1.41-1.478,2.612-3.536,0,0,1.696-3,1.954-5.409.091.096.178.186.262.267.777.76,1.799,1.14,2.819,1.14s2.043-.38,2.82-1.14c.757-.739,1.174-1.724,1.174-2.771s-.417-2.032-1.174-2.772Zm-14.445,6.685c-.182-.649-.309-1.319-.358-2h7.954c-.049.681-.176,1.351-.358,2h-7.238Zm6.912,1c-.264.708-.582,1.381-.919,2h-4.748c-.337-.619-.655-1.292-.919-2h6.585Zm-6.857-4c.495-.617,1.023-1.303,1.552-2h4.026c.528.697,1.057,1.383,1.552,2h-7.129Zm2.305-3c.116-.154.23-.307.344-.458.319-.425.626-.835.915-1.216.289.381.596.792.915,1.216.114.151.228.305.344.458h-2.518Zm1.259-7c1.103,0,2,.897,2,2s-.897,2-2,2-2-.897-2-2,.897-2,2-2Zm-5.886,11.143c-1.171,1.143-3.072,1.143-4.241,0-.562-.55-.873-1.28-.873-2.056s.311-1.506.873-2.057c1.154-1.127,4.746-1.912,9.11-2.018-.225.297-.459.609-.698.929-1.482,1.977-3.163,4.217-4.171,5.201Zm5.886,8.296c-.404-.471-1.094-1.33-1.789-2.438h3.578c-.695,1.109-1.385,1.967-1.789,2.438Zm10.127-8.296c-1.169,1.143-3.07,1.143-4.241,0-1.008-.984-2.688-3.225-4.171-5.201-.239-.32-.474-.632-.698-.929,4.364.106,7.956.89,9.11,2.018.562.55.873,1.281.873,2.057s-.311,1.506-.873,2.056Z"/>
</svg>
