<?xml version="1.0" encoding="UTF-8"?>
<svg xmlns="http://www.w3.org/2000/svg" id="Layer_1" data-name="Layer 1" viewBox="0 0 24 24">
  <path d="m21.5,13h-7c-1.379,0-2.5,1.121-2.5,2.5v8.5h12v-8.5c0-1.379-1.121-2.5-2.5-2.5Zm1.5,10h-10v-7.5c0-.827.673-1.5,1.5-1.5h7c.827,0,1.5.673,1.5,1.5v7.5Zm-7-7h4v1h-4v-1Zm-6.149-9.644l-3.362,3.305c-.217.217-.51.339-.822.339s-.604-.122-.825-.342l-1.773-1.715.695-.719,1.779,1.721c.063.062.186.062.242.006l3.365-3.308.701.713Zm0,5l-3.362,3.305c-.217.218-.51.339-.822.339s-.604-.121-.825-.342l-1.772-1.715.695-.719,1.779,1.721c.099.1.157.092.241.006l3.365-3.308.701.713Zm5.149-2.356h-4v-1h4v1Zm-9.216,9.951l3.365-3.308.701.713-3.362,3.305c-.217.218-.51.339-.822.339s-.604-.121-.825-.342l-1.772-1.716.695-.719,1.779,1.722c.099.099.157.092.241.006ZM10.5,1h-3c-.827,0-1.5.673-1.5,1.5v.5H1v18.5c0,.827.673,1.5,1.5,1.5h7.5v1H2.5c-1.378,0-2.5-1.121-2.5-2.5V2h5.05c.232-1.14,1.242-2,2.45-2h3c1.208,0,2.217.86,2.45,2h5.05v9h-1V3h-5v-.5c0-.827-.673-1.5-1.5-1.5Z"/>
</svg>
