<?xml version="1.0" encoding="UTF-8"?>
<svg xmlns="http://www.w3.org/2000/svg" id="Layer_1" data-name="Layer 1" viewBox="0 0 24 24" width="512" height="512"><path d="M24,20h-4v4h-1v-4h-4v-1h4v-4h1v4h4v1Zm-9.78,2h1.22c-.69,1.19-1.97,2-3.44,2-2.21,0-4-1.79-4-4H.69L3.03,6.88c.3-1.67,1.75-2.88,3.45-2.88h1.03c-.31-.42-.5-.94-.5-1.5,0-1.38,1.12-2.5,2.5-2.5h5c1.38,0,2.5,1.12,2.5,2.5,0,.56-.19,1.08-.5,1.5h1.03c1.7,0,3.15,1.21,3.45,2.88l1.09,6.12h-1.02l-1.06-5.94c-.21-1.19-1.25-2.06-2.46-2.06H6.48c-1.21,0-2.25,.87-2.46,2.06L1.88,19H13v1h-4c0,1.65,1.35,3,3,3,.88,0,1.67-.39,2.22-1ZM9.5,4h5c.83,0,1.5-.67,1.5-1.5s-.67-1.5-1.5-1.5h-5c-.83,0-1.5,.67-1.5,1.5s.67,1.5,1.5,1.5Z"/></svg>
