<?xml version="1.0" encoding="UTF-8"?>
<svg xmlns="http://www.w3.org/2000/svg" id="Layer_1" data-name="Layer 1" viewBox="0 0 24 24">
  <path d="m17.804,5.891l-5.804-.946V1h1V0H5v1h1v4.024l-2.377.892c-.971.364-1.623,1.304-1.623,2.341v15.744h20v-13.174c0-2.463-1.765-4.539-4.196-4.935Zm3.196,17.109H3v-3h9v-1H3v-3h9v-1H3v-3h9v-1H3v-2.744c0-.622.391-1.186.974-1.404l3.026-1.135V1h4v4.796l6.643,1.083c1.945.316,3.357,1.977,3.357,3.948v12.174Zm-4-15c-1.654,0-3,1.346-3,3v6c0,1.654,1.346,3,3,3s3-1.346,3-3v-6c0-1.654-1.346-3-3-3Zm2,9c0,1.103-.897,2-2,2s-2-.897-2-2v-6c0-1.103.897-2,2-2s2,.897,2,2v6Z"/>
</svg>
