<?xml version="1.0" encoding="UTF-8"?>
<svg xmlns="http://www.w3.org/2000/svg" id="Layer_1" data-name="Layer 1" viewBox="0 0 24 24">
  <path d="m15.969,7.907l-1.553.919c-.279-.211-.585-.385-.916-.518v-1.808h-3v1.808c-.331.133-.637.306-.916.518l-1.553-.919-1.527,2.581,1.548.917c-.035.208-.052.402-.052.595s.017.388.052.595l-1.548.917,1.527,2.581,1.553-.918c.279.211.585.385.916.518v1.808h3v-1.808c.331-.133.637-.307.916-.518l1.553.918,1.527-2.581-1.548-.917c.035-.208.052-.402.052-.595s-.017-.388-.052-.595l1.548-.917-1.527-2.581Zm-1.173,3.03c.126.331.204.687.204,1.063,0,.383-.079.747-.21,1.084l1.337.78-.51.86-1.332-.803c-.448.533-1.07.908-1.785,1.029v1.551h-1v-1.551c-.712-.121-1.332-.494-1.78-1.023l-1.337.797-.51-.86,1.333-.794c-.128-.333-.206-.691-.206-1.069,0-.382.079-.744.209-1.08l-1.336-.782.51-.86,1.334.8c.448-.531,1.069-.905,1.783-1.026v-1.551h1v1.551c.715.121,1.337.497,1.786,1.03l1.331-.803.51.86-1.331.8Zm6.204-1.937c-.086,0-.168.018-.252.026l-1.978-3.616c.742-.547,1.23-1.419,1.23-2.409,0-1.654-1.346-3-3-3-1.483,0-2.71,1.084-2.949,2.5h-4.101c-.24-1.416-1.466-2.5-2.949-2.5-1.654,0-3,1.346-3,3,0,.99.488,1.863,1.23,2.409l-1.978,3.616c-.085-.007-.166-.026-.252-.026-1.654,0-3,1.346-3,3s1.346,3,3,3c.084,0,.163-.018.245-.025l1.984,3.616c-.742.547-1.23,1.419-1.23,2.409,0,1.654,1.346,3,3,3,1.483,0,2.71-1.084,2.949-2.5h4.101c.24,1.416,1.466,2.5,2.949,2.5,1.654,0,3-1.346,3-3,0-.998-.495-1.878-1.247-2.424l2.001-3.601c.083.007.162.025.246.025,1.654,0,3-1.346,3-3s-1.346-3-3-3ZM17,1c1.103,0,2,.897,2,2s-.897,2-2,2-2-.897-2-2,.897-2,2-2ZM5,3c0-1.103.897-2,2-2s2,.897,2,2-.897,2-2,2-2-.897-2-2Zm-2,11c-1.103,0-2-.897-2-2s.897-2,2-2,2,.897,2,2-.897,2-2,2Zm4,9c-1.103,0-2-.897-2-2s.897-2,2-2,2,.897,2,2-.897,2-2,2Zm12-2c0,1.103-.897,2-2,2s-2-.897-2-2,.897-2,2-2,2,.897,2,2Zm-1.149-2.862c-.272-.081-.553-.138-.851-.138-1.483,0-2.71,1.084-2.949,2.5h-4.101c-.24-1.416-1.466-2.5-2.949-2.5-.306,0-.596.06-.874.145l-1.879-3.425c1.032-.475,1.754-1.512,1.754-2.721s-.72-2.242-1.749-2.718l1.874-3.427c.279.086.568.145.874.145,1.483,0,2.71-1.084,2.949-2.5h4.101c.24,1.416,1.466,2.5,2.949,2.5.306,0,.596-.06.874-.145l1.874,3.427c-1.029.476-1.749,1.512-1.749,2.718s.721,2.243,1.751,2.719l-1.9,3.419Zm3.149-4.138c-1.103,0-2-.897-2-2s.897-2,2-2,2,.897,2,2-.897,2-2,2Zm-9-4c-1.103,0-2,.897-2,2s.897,2,2,2,2-.897,2-2-.897-2-2-2Zm0,3c-.552,0-1-.449-1-1s.448-1,1-1,1,.449,1,1-.448,1-1,1Z"/>
</svg>
