<?xml version="1.0" encoding="UTF-8"?>
<svg xmlns="http://www.w3.org/2000/svg" id="Layer_1" data-name="Layer 1" viewBox="0 0 24 24" width="512" height="512"><path d="m22,9.512c0,2.92-1.396,5.583-3.831,7.305-1.418,1.002-2.483,2.271-3.081,3.67-.496,1.162-1.364,2.12-2.509,2.77-.855.486-1.836.739-2.809.739-.403,0-.805-.043-1.196-.131-3.161-.712-4.588-3.541-4.574-5.867l1,.006c-.011,1.939,1.172,4.295,3.794,4.886,1.097.248,2.297.065,3.291-.501.953-.542,1.674-1.334,2.083-2.293.671-1.57,1.854-2.985,3.423-4.094,2.198-1.555,3.409-3.859,3.409-6.489,0-2.417-1.034-4.728-2.838-6.34-1.827-1.634-4.19-2.383-6.649-2.104-3.624.407-7.115,3.955-7.471,7.592-.044.452-.053.907-.027,1.351l-.015.998-1-.017.016-.96c-.028-.458-.019-.965.03-1.469C3.451,4.424,7.277.538,11.401.074c2.743-.308,5.383.526,7.427,2.353,2.016,1.802,3.172,4.384,3.172,7.085Zm-4,.488v-.488c0-3.033-2.468-5.5-5.5-5.5s-5.5,2.467-5.5,5.5v1.488h2.001c.534,0,1.036.208,1.413.585.378.378.586.88.586,1.415,0,1.103-.897,2-2,2v1c1.654,0,3-1.346,3-3,0-.801-.313-1.555-.879-2.122-.566-.566-1.319-.878-2.12-.878h-1.001v-.488c0-2.481,2.019-4.5,4.5-4.5s4.5,2.019,4.5,4.5v.488h1Z"/></svg>
