<?xml version="1.0" encoding="UTF-8"?>
<svg xmlns="http://www.w3.org/2000/svg" id="Layer_1" data-name="Layer 1" viewBox="0 0 24 24">
  <path d="m1.077,7.806l9.923,4.205v-5.511h2.071c.224.86,1,1.5,1.929,1.5h5c1.103,0,2-.897,2-2s-.897-2-2-2h-5c-.929,0-1.705.64-1.929,1.5h-2.071V-.011L1.077,4.194c-.665.354-1.077,1.046-1.077,1.806s.413,1.452,1.077,1.806Zm13.923-2.806h5c.552,0,1,.449,1,1s-.448,1-1,1h-5c-.552,0-1-.449-1-1s.448-1,1-1Zm-13.493.096L10,1.499v9.003L1.53,6.914c-.332-.185-.53-.525-.53-.914,0-.396.205-.741.507-.904Zm11.493,5.904v6H0v7h24v-13h-11Zm3,7v5h-8v-5h8Zm-15,0h6v5H1v-5Zm22,5h-6v-5h6v5Zm-9-6v-5h9v5h-9Z"/>
</svg>
