<?xml version="1.0" encoding="UTF-8"?>
<svg xmlns="http://www.w3.org/2000/svg" id="Layer_1" data-name="Layer 1" viewBox="0 0 24 24">
  <path d="m19,5.983l4.941-2.977-4.851-3.006h-1.091v10h1v-4.017Zm0-4.863l3.023,1.874-3.023,1.821V1.12Zm5,17.38c0,1.93-1.57,3.5-3.5,3.5h-6.5v-1h6.5c1.379,0,2.5-1.122,2.5-2.5s-1.121-2.5-2.5-2.5h-8c-1.93,0-3.5-1.57-3.5-3.5s1.57-3.5,3.5-3.5h3.5v1h-3.5c-1.378,0-2.5,1.122-2.5,2.5s1.122,2.5,2.5,2.5h8c1.93,0,3.5,1.57,3.5,3.5Zm-14-.5h-.93l-1.406-2.109c-.372-.558-.994-.891-1.664-.891H2c-1.103,0-2,.897-2,2v5h1.044c-.013.084-.044.164-.044.25,0,.965.785,1.75,1.75,1.75s1.75-.785,1.75-1.75c0-.086-.03-.166-.044-.25h2.088c-.013.084-.044.164-.044.25,0,.965.785,1.75,1.75,1.75s1.75-.785,1.75-1.75c0-.086-.03-.166-.044-.25h2.044v-2c0-1.103-.897-2-2-2Zm-9-1c0-.551.449-1,1-1h4c.335,0,.646.167.832.445l1.036,1.555H1v-1Zm2.5,5.25c0,.414-.336.75-.75.75s-.75-.336-.75-.75c0-.084.018-.167.054-.25h1.392c.036.083.054.166.054.25Zm5.5,0c0,.414-.336.75-.75.75s-.75-.336-.75-.75c0-.084.018-.167.054-.25h1.392c.036.083.054.166.054.25Zm2-1.25H1v-2h9c.551,0,1,.449,1,1v1Z"/>
</svg>
