<?xml version="1.0" encoding="UTF-8"?>
<svg xmlns="http://www.w3.org/2000/svg" id="Layer_1" data-name="Layer 1" viewBox="0 0 24 24">
  <path d="m14,6c0-3.309-2.691-6-6-6S2,2.691,2,6s2.691,6,6,6,6-2.691,6-6Zm-6,5c-2.757,0-5-2.243-5-5S5.243,1,8,1s5,2.243,5,5-2.243,5-5,5Zm-4,3h3v1h-3c-1.654,0-3,1.346-3,3v6H0v-6c0-2.206,1.794-4,4-4Zm17.5-1h-10c-1.378,0-2.5,1.122-2.5,2.5v8.5h15v-8.5c0-1.378-1.121-2.5-2.5-2.5Zm1.5,10h-13v-7.5c0-.827.673-1.5,1.5-1.5h10c.827,0,1.5.673,1.5,1.5v7.5Zm-2-5.75c0-1.241-1.01-2.25-2.25-2.25h-1.75v7h1v-2.5h.75c.107,0,.21-.017.313-.032l1.024,2.532h1.046l-1.138-2.878c.606-.404,1.006-1.092,1.006-1.872Zm-3,1.25v-2.5h.75c.689,0,1.25.561,1.25,1.25s-.561,1.25-1.25,1.25h-.75Zm-3-3.5h1v7h-1v-3h-2v3h-1v-7h1v3h2v-3Z"/>
</svg>
