<?xml version="1.0" encoding="UTF-8"?>
<svg xmlns="http://www.w3.org/2000/svg" id="Layer_1" data-name="Layer 1" viewBox="0 0 24 24" width="512" height="512"><path d="M15.5,15h4v1h-4v-1Zm8.5-1.5v10.5H0V13.5c0-1.379,1.121-2.5,2.5-2.5h2.5V2.5c0-1.379,1.121-2.5,2.5-2.5h9c1.379,0,2.5,1.121,2.5,2.5V11h2.5c1.379,0,2.5,1.121,2.5,2.5ZM6,11h12V2.5c0-.827-.673-1.5-1.5-1.5H7.5c-.827,0-1.5,.673-1.5,1.5V11ZM1,23H11.5V12H2.5c-.827,0-1.5,.673-1.5,1.5v9.5ZM23,13.5c0-.827-.673-1.5-1.5-1.5H12.5v11h10.5V13.5Zm-18.5,1.5v1h4v-1H4.5ZM10,5h4v-1h-4v1Z"/></svg>
