<?xml version="1.0" encoding="UTF-8"?>
<svg xmlns="http://www.w3.org/2000/svg" id="Layer_1" data-name="Layer 1" width="512" height="512" viewBox="0 0 24 24"><path d="M12,1C5.383,1,0,6.383,0,13c0,3.911,1.949,7.616,5.212,9.909l.129,.091h13.316l.129-.091c3.264-2.293,5.212-5.998,5.212-9.909,0-6.617-5.383-12-12-12Zm6.34,21H5.66c-2.878-2.085-4.66-5.519-4.66-9C1,6.935,5.935,2,12,2s11,4.935,11,11c0,3.481-1.782,6.915-4.66,9Zm-6.34-11c-1.103,0-2,.897-2,2,0,.125,.012,.247,.034,.366l-5.746,2.681,.423,.906,5.746-2.681c.367,.444,.922,.728,1.542,.728,1.103,0,2-.897,2-2s-.897-2-2-2Zm0,3c-.551,0-1-.448-1-1s.449-1,1-1,1,.448,1,1-.449,1-1,1Zm5.657,4.657l-.707-.707c2.729-2.729,2.729-7.171,0-9.9-2.729-2.729-7.17-2.73-9.899,0-1.322,1.322-2.05,3.081-2.05,4.95,0,.167,.014,.331,.025,.496l-.965,.45c-.037-.312-.06-.627-.06-.946,0-2.137,.832-4.146,2.343-5.657,3.119-3.119,8.194-3.119,11.313,0s3.119,8.195,0,11.314Z"/></svg>
