<?xml version="1.0" encoding="UTF-8"?>
<svg xmlns="http://www.w3.org/2000/svg" id="Layer_1" data-name="Layer 1" viewBox="0 0 24 24">
  <path d="m5.5,13.895c0,.685.49,1.263,1.166,1.375l2.833.473c1.159.192,2.001,1.186,2.001,2.362,0,1.321-1.074,2.395-2.395,2.395h-.605v1h-1v-1h-.605c-1.321,0-2.395-1.074-2.395-2.395v-.605h1v.605c0,.769.626,1.395,1.395,1.395h2.21c.769,0,1.395-.626,1.395-1.395,0-.685-.49-1.263-1.166-1.375l-2.833-.473c-1.159-.192-2.001-1.186-2.001-2.362,0-1.238.947-2.247,2.152-2.37.126.334.268.659.428.975h-.185c-.769,0-1.395.626-1.395,1.395Zm2.5,9.105c-3.86,0-7-3.14-7-7,0-3.197,2.156-5.894,5.089-6.728-.042-.333-.067-.67-.076-1.012-3.451.887-6.013,4.016-6.013,7.74,0,4.411,3.589,8,8,8,3.724,0,6.853-2.562,7.74-6.013-.342-.009-.679-.033-1.012-.076-.834,2.933-3.531,5.089-6.728,5.089Zm13.075-5.977l-.707.707,2.27,2.27h-5.638v1h5.638l-2.27,2.27.707.707,2.534-2.534c.252-.252.391-.587.391-.943s-.139-.691-.391-.943l-2.534-2.534Zm-5.075-1.023c-4.411,0-8-3.589-8-8S11.589,0,16,0s8,3.589,8,8-3.589,8-8,8Zm7-8c0-3.86-3.14-7-7-7s-7,3.14-7,7,3.14,7,7,7,7-3.14,7-7Zm-3,2c0,1.378-1.122,2.5-2.5,2.5h-1v1h-1v-1h-2.5V3.5h2.5v-1h1v1h.5c1.378,0,2.5,1.122,2.5,2.5,0,.715-.301,1.36-.784,1.816.765.428,1.284,1.246,1.284,2.184Zm-6-2.5h3c.827,0,1.5-.673,1.5-1.5s-.673-1.5-1.5-1.5h-3v3Zm5,2.5c0-.827-.673-1.5-1.5-1.5h-3.5v3h3.5c.827,0,1.5-.673,1.5-1.5ZM2.925,6.977l.707-.707-2.27-2.27h5.638v-1H1.362L3.632.73,2.925.023.391,2.557c-.252.252-.391.587-.391.943s.139.691.391.943l2.534,2.534Z"/>
</svg>
