<?xml version="1.0" encoding="UTF-8"?>
<svg xmlns="http://www.w3.org/2000/svg" id="Layer_1" data-name="Layer 1" viewBox="0 0 24 24">
  <path d="m22.95,9.226l-2.95-2.933v-3.792c0-1.378-1.121-2.5-2.5-2.5H6.5c-1.379,0-2.5,1.122-2.5,2.5v3.792l-2.946,2.93c-.67.654-1.054,1.566-1.054,2.503v12.275h24v-12.276c0-.936-.384-1.848-1.05-2.499Zm-.582.856l-2.368,2.368v-4.747s2.327,2.332,2.368,2.379ZM6.5,1h11c.827,0,1.5.673,1.5,1.5v10.949l-4.525,4.526c-1.322,1.322-3.627,1.322-4.949,0l-4.525-4.526V2.5c0-.827.673-1.5,1.5-1.5Zm-2.5,6.702v4.747l-2.368-2.368c.042-.048,2.368-2.379,2.368-2.379Zm19,15.298H1v-11.275c0-.252.051-.498.125-.737l7.693,7.694c.85.85,1.979,1.318,3.182,1.318s2.332-.468,3.182-1.318l7.694-7.694c.074.238.125.484.125.736v11.276ZM15,4c0-.552.448-1,1-1s1,.448,1,1-.448,1-1,1-1-.448-1-1Zm-8,0c0-.552.448-1,1-1s1,.448,1,1-.448,1-1,1-1-.448-1-1Zm5,12c2.206,0,4-1.794,4-4s-1.794-4-4-4-4,1.794-4,4,1.794,4,4,4Zm0-7c1.654,0,3,1.346,3,3s-1.346,3-3,3-3-1.346-3-3,1.346-3,3-3Z"/>
</svg>
