<?xml version="1.0" encoding="UTF-8"?>
<svg xmlns="http://www.w3.org/2000/svg" id="Layer_1" data-name="Layer 1" viewBox="0 0 24 24">
  <path d="m19.066,6.925L12,.014l-7.071,6.915c-3.899,3.899-3.899,10.243,0,14.143,1.89,1.889,4.4,2.929,7.071,2.929s5.182-1.04,7.07-2.929c3.899-3.899,3.899-10.243-.004-14.146Zm-.703,13.439c-1.7,1.699-3.96,2.636-6.363,2.636s-4.664-.937-6.364-2.636c-3.509-3.51-3.509-9.219-.004-12.725L12,1.412l6.363,6.224c3.509,3.51,3.509,9.219,0,12.729Zm-6.363-12.357l-3.535,3.458c-.944.944-1.465,2.199-1.465,3.535s.521,2.591,1.465,3.535c.943.944,2.199,1.465,3.535,1.465s2.591-.521,3.535-1.465,1.465-2.199,1.465-3.535-.521-2.591-1.469-3.539l-3.531-3.454Zm2.828,9.821c-.756.756-1.76,1.172-2.828,1.172s-2.073-.416-2.828-1.172c-.756-.755-1.172-1.76-1.172-2.828s.416-2.073,1.168-2.824l2.832-2.771,2.828,2.767c.756.755,1.172,1.76,1.172,2.828s-.416,2.073-1.172,2.828Z"/>
</svg>
