<?xml version="1.0" encoding="UTF-8"?>
<svg xmlns="http://www.w3.org/2000/svg" id="Layer_1" data-name="Layer 1" viewBox="0 0 24 24">
  <path d="m14,17.153l8,3v3.885h-1v-3.191l-8-3v-5.239c0-.789-.535-1.471-1.245-1.587-.449-.072-.886.046-1.226.336-.336.286-.529.703-.529,1.144v9.675s-3.469-2.763-3.479-2.772c-.606-.562-1.554-.53-2.115.072-.565.604-.534,1.557.064,2.118l2.535,2.407h-1.44l-1.783-1.684c-1-.937-1.048-2.518-.106-3.524.93-.997,2.491-1.055,3.499-.143v-.002s1.827,1.453,1.827,1.453v-7.601c0-.734.321-1.429.881-1.905.559-.476,1.302-.68,2.035-.561,1.188.193,2.083,1.3,2.083,2.573v4.546ZM5.66,3.782l.732,2.139h-1.784l.725-2.121c.023-.047.112-.102.167-.102.057,0,.142.047.16.083Zm2.637,4.362l-1.603-4.772c-.286-.647-.685-.784-1.194-.784-.509,0-.909.137-1.202.804l-1.595,4.751h1.145l.38-1.111h2.544l.38,1.111h1.145Zm-2.797,2.857c-3.033,0-5.5-2.468-5.5-5.5S2.467,0,5.5,0s5.5,2.468,5.5,5.5-2.467,5.5-5.5,5.5Zm0-10C3.019,1,1,3.019,1,5.5s2.019,4.5,4.5,4.5,4.5-2.019,4.5-4.5S7.981,1,5.5,1Zm13,10c-3.033,0-5.5-2.468-5.5-5.5S15.467,0,18.5,0s5.5,2.468,5.5,5.5-2.467,5.5-5.5,5.5Zm0-10c-2.481,0-4.5,2.019-4.5,4.5s2.019,4.5,4.5,4.5,4.5-2.019,4.5-4.5-2.019-4.5-4.5-4.5Zm2.007,4.128c.137-.242.215-.521.215-.818,0-.919-.748-1.667-1.667-1.667h-1.587c-.656,0-1.19.534-1.19,1.19v3.175c0,.656.534,1.19,1.19,1.19h2.143c.919,0,1.667-.748,1.667-1.667,0-.589-.308-1.108-.77-1.404Zm-3.118-1.294c0-.043.035-.079.079-.079h1.587c.307,0,.556.25.556.556s-.249.556-.556.556h-1.667v-1.032Zm2.222,3.254h-2.143c-.044,0-.079-.036-.079-.079v-1.032h2.222c.307,0,.556.25.556.556s-.249.556-.556.556Z"/>
</svg>
