<?xml version="1.0" encoding="UTF-8"?>
<svg xmlns="http://www.w3.org/2000/svg" id="Layer_1" data-name="Layer 1" viewBox="0 0 24 24" width="512" height="512"><path d="M23.81,8.73C23.4,4.19,19.81,.6,15.27,.19c-1.39-.13-2.49-.19-3.27-.19s-1.88,.06-3.27,.19C4.19,.6,.6,4.19,.19,8.73c-.13,1.39-.19,2.49-.19,3.27s.06,1.88,.19,3.27c.41,4.54,4,8.13,8.54,8.54,1.39,.13,2.49,.19,3.27,.19s1.88-.06,3.27-.19c4.54-.41,8.13-4,8.54-8.54,.13-1.39,.19-2.49,.19-3.27s-.06-1.88-.19-3.27Zm-1,6.45c-.37,4.06-3.58,7.27-7.63,7.63-1.36,.12-2.43,.19-3.18,.19s-1.82-.06-3.18-.19c-4.06-.37-7.27-3.58-7.63-7.63-.12-1.36-.19-2.43-.19-3.18s.06-1.82,.19-3.18C1.55,4.76,4.76,1.55,8.82,1.19c1.36-.12,2.43-.19,3.18-.19s1.82,.06,3.18,.19c4.06,.37,7.27,3.58,7.63,7.63,.12,1.36,.19,2.43,.19,3.18s-.06,1.82-.19,3.18Z"/></svg>
