<?xml version="1.0" encoding="UTF-8"?>
<svg xmlns="http://www.w3.org/2000/svg" id="Layer_1" data-name="Layer 1" viewBox="0 0 24 24">
  <path d="m10,15c-.106,0-.214.018-.321.028l1.174-1.174-.707-.707-1.174,1.174c.009-.107.028-.215.028-.321,0-1.505-2.334-4.651-2.601-5.006l-.399-.531-.399.531c-.266.354-2.601,3.501-2.601,5.006,0,1.25,1.321,3.537,1.866,4.427L.026,23.267l.707.707,4.839-4.839c.891.545,3.177,1.866,4.427,1.866,1.504,0,4.652-2.334,5.005-2.601l.532-.399-.532-.399c-.354-.267-3.501-2.601-5.005-2.601Zm-6-1c0-.765,1.102-2.58,2-3.854.898,1.274,2,3.09,2,3.854,0,.628-.233,1.295-.689,1.982l-1.717,1.717c-.718-1.203-1.594-2.924-1.594-3.699Zm6,6c-.775,0-2.496-.877-3.699-1.594l1.72-1.72c.687-.453,1.353-.685,1.978-.685.764,0,2.58,1.102,3.854,2-1.275.898-3.09,2-3.854,2Zm6.664-4.042c1.202-.706,2.29-1.52,2.341-1.558l.532-.399-.532-.399c-.099-.074-.42-.312-.858-.614,1.552-.135,4.515-2.329,4.858-2.588l.532-.399-.532-.399c-.221-.167-1.536-1.143-2.858-1.85.604-.143,1.151-.365,1.506-.72,1.177-1.178,1.955-5.643,2.04-6.147l.116-.692-.692.116c-.505.085-4.97.862-6.147,2.04-.355.354-.579.9-.722,1.503-.707-1.321-1.682-2.634-1.849-2.856l-.399-.531-.399.531c-.258.344-2.453,3.306-2.588,4.858-.301-.438-.539-.759-.614-.858l-.399-.531-.399.531c-.038.051-.852,1.139-1.558,2.341L.704-.004-.003.703l23.3,23.301.707-.707-7.339-7.339Zm-.733-.734l-2.994-2.994c.363-.136.72-.23,1.063-.23.764,0,2.578,1.101,3.852,1.998-.474.333-1.195.815-1.921,1.226Zm2.069-3.224c-.775,0-2.496-.877-3.699-1.594l1.72-1.72c.688-.454,1.354-.686,1.979-.686.764,0,2.58,1.102,3.854,2-1.275.898-3.09,2-3.854,2Zm-.323-8.946c.63-.63,3.099-1.28,4.901-1.633-.352,1.803-1.002,4.272-1.632,4.902-.61.61-2.564.714-3.904.634-.078-1.34.024-3.294.634-3.903Zm-3.677-.908c.898,1.274,2,3.09,2,3.854,0,.628-.233,1.294-.688,1.981l-1.718,1.718c-.718-1.203-1.594-2.924-1.594-3.699,0-.765,1.102-2.58,2-3.854Zm-3.999,4.002c.898,1.275,1.999,3.089,1.999,3.853,0,.347-.078.707-.218,1.075l-3.006-3.006c.411-.725.893-1.446,1.226-1.921Z"/>
</svg>
