<?xml version="1.0" encoding="UTF-8"?>
<svg xmlns="http://www.w3.org/2000/svg" id="Layer_1" data-name="Layer 1" viewBox="0 0 24 24">
  <path d="m24.002,5.5L14.023.461c-1.216-.611-2.849-.611-4.062.001L-.017,5.5l5.017,2.533v6.852c.324.045.659.089,1,.133v-6.48l3.962,2.001c.607.307,1.319.46,2.03.46s1.424-.154,2.032-.461l3.977-2.007v6.488c.341-.044.676-.088,1-.133v-6.86l4-2.019v8.255c.018-.003.048-.009.05-.009l.95-.173V5.501h.002Zm-10.43,4.144c-.93.47-2.229.471-3.16,0L2.202,5.5,10.412,1.355c.945-.477,2.215-.477,3.161,0l8.211,4.146-8.211,4.145Zm-1.573,7.855c-4.285,0-11.34-1.268-11.411-1.281l-.589-.106v7.774l.589-.106c.071-.013,7.126-1.281,11.411-1.281s11.34,1.268,11.411,1.281l.589.106v-7.774l-.589.106c-.071.013-7.126,1.281-11.411,1.281Zm-11-.193c1.728.295,6.829,1.115,10.5,1.186v3.014c-3.671.072-8.772.891-10.5,1.186v-5.387Zm22,5.387c-1.728-.295-6.829-1.115-10.5-1.186v-3.014c3.671-.072,8.772-.891,10.5-1.186v5.387Z"/>
</svg>
