<?xml version="1.0" encoding="UTF-8"?>
<svg xmlns="http://www.w3.org/2000/svg" id="Layer_1" data-name="Layer 1" width="512" height="512" viewBox="0 0 24 24"><path d="M7.5,8h-1V3h1v5Zm-.5,3c.552,0,1-.448,1-1s-.448-1-1-1-1,.448-1,1,.448,1,1,1ZM24,4.5c0-1.93-1.57-3.5-3.5-3.5s-3.5,1.57-3.5,3.5h1c0-1.378,1.122-2.5,2.5-2.5s2.5,1.122,2.5,2.5-1.122,2.5-2.5,2.5h-4.5c0,.338-.022,.671-.059,1h4.559c1.93,0,3.5-1.57,3.5-3.5Zm-3.5,6.5h-5.45c-.172,.345-.359,.682-.572,1h6.022c1.378,0,2.5,1.122,2.5,2.5s-1.122,2.5-2.5,2.5-2.5-1.122-2.5-2.5h-1c0,1.93,1.57,3.5,3.5,3.5s3.5-1.57,3.5-3.5-1.57-3.5-3.5-3.5ZM0,7C0,3.14,3.14,0,7,0s7,3.14,7,7-3.14,7-7,7S0,10.86,0,7Zm1,0c0,3.309,2.691,6,6,6s6-2.691,6-6S10.309,1,7,1,1,3.691,1,7Zm10.5,10H0v1H11.5c1.378,0,2.5,1.122,2.5,2.5s-1.122,2.5-2.5,2.5-2.5-1.122-2.5-2.5h-1c0,1.93,1.57,3.5,3.5,3.5s3.5-1.57,3.5-3.5-1.57-3.5-3.5-3.5Z"/></svg>
