<?xml version="1.0" encoding="UTF-8"?>
<svg xmlns="http://www.w3.org/2000/svg" id="Layer_1" data-name="Layer 1" viewBox="0 0 24 24">
  <path d="m6.5,0C2.916,0,0,2.916,0,6.5s2.916,6.5,6.5,6.5,6.5-2.916,6.5-6.5S10.084,0,6.5,0Zm0,12c-3.033,0-5.5-2.468-5.5-5.5S3.467,1,6.5,1s5.5,2.468,5.5,5.5-2.467,5.5-5.5,5.5Zm17.5-6.5v4.5h-1v-4.5c0-.827-.673-1.5-1.5-1.5h-5.191l2.265,2.266-.707.707-2.438-2.439c-.276-.275-.428-.643-.428-1.033s.152-.758.428-1.033L17.867.027l.707.707-2.265,2.266h5.191c1.378,0,2.5,1.121,2.5,2.5Zm-12,7.854v7.236l5.996,3.43,6-3.43v-7.236l-6-3.43-5.996,3.43Zm10.791.463l-4.791,2.695-4.793-2.696,4.789-2.739,4.795,2.74Zm-9.791,1.029l4.5,2.531v5.207l-4.5-2.574v-5.164Zm5.5,7.733v-5.202l4.496-2.529v5.161l-4.496,2.569Zm-8.961-14.409c0,1.009-.8,1.83-1.783,1.83h-.756v1h-1v-1h-.717c-.983,0-1.783-.821-1.783-1.83v-.17h1v.17c0,.458.351.83.783.83h2.473c.432,0,.783-.372.783-.83,0-.371-.235-.7-.572-.8l-3.094-.775c-.779-.23-1.309-.954-1.309-1.765,0-1.009.8-1.83,1.783-1.83h.653v-1h1v1h.717c.983,0,1.783.821,1.783,1.83v.195h-1v-.195c0-.458-.351-.83-.783-.83h-2.371c-.432,0-.783.372-.783.83,0,.371.235.7.572.8l3.094.775c.779.23,1.309.954,1.309,1.765Zm-.967,11.297c.276.275.428.643.428,1.033s-.152.758-.428,1.033l-2.439,2.439-.707-.707,2.265-2.266H2.5c-1.378,0-2.5-1.121-2.5-2.5v-4.5h1v4.5c0,.827.673,1.5,1.5,1.5h5.191l-2.265-2.266.707-.707,2.439,2.439Z"/>
</svg>
