<?xml version="1.0" encoding="UTF-8"?>
<svg xmlns="http://www.w3.org/2000/svg" id="Layer_1" data-name="Layer 1" viewBox="0 0 24 24">
  <path d="m23.181,9.655c-.496-.452-1.141-.674-1.809-.652-.67.032-1.288.322-1.739.818l-3.732,4.102c-.314-1.108-1.335-1.922-2.543-1.922h-.268c.561-.582.911-1.368.911-2.237,0-2.853-2.198-5.744-4.686-6.541.777-.614,1.686-1.574,1.686-2.722v-.5h-6v.5c0,1.147.909,2.108,1.686,2.722-2.488.797-4.686,3.688-4.686,6.541,0,.869.35,1.655.911,2.237h-.411c-1.379,0-2.5,1.122-2.5,2.5v7c0,1.378,1.121,2.5,2.5,2.5h11.225l9.638-10.818c.912-1.021.831-2.604-.182-3.527ZM6.099,1h3.803c-.314.818-1.304,1.562-1.901,1.924-.598-.362-1.587-1.106-1.901-1.924Zm1.901,3c2.397.086,5,3.004,5,5.763,0,1.234-1.01,2.237-2.25,2.237h-5.5c-1.24,0-2.25-1.003-2.25-2.237,0-2.759,2.603-5.676,5-5.763Zm14.616,8.517l-9.341,10.483H2.5c-.827,0-1.5-.673-1.5-1.5v-7c0-.827.673-1.5,1.5-1.5h10.857c.905,0,1.643.737,1.643,1.642,0,.812-.606,1.511-1.403,1.625l-5.661.737.129.991,5.668-.738c1.021-.146,1.844-.878,2.145-1.824l4.496-4.94c.271-.298.643-.473,1.046-.492.398-.018.789.12,1.088.393.609.555.658,1.507.109,2.123Z"/>
</svg>
