<?xml version="1.0" encoding="UTF-8"?>
<svg xmlns="http://www.w3.org/2000/svg" id="Layer_1" data-name="Layer 1" viewBox="0 0 24 24" width="512" height="512"><path d="M23.045,8.034L13.545,.567c-.91-.717-2.181-.716-3.09,0L.955,8.034c-.607,.478-.955,1.193-.955,1.966v14H9.447l2.529-6h-3.66c-.17,0-.25-.116-.277-.166s-.079-.181,.017-.324l4.935-7.51h.138l-1.8,6h4.338c.105,0,.202,.049,.265,.134s.082,.191,.059,.27l-2.698,7.597h10.708V10c0-.772-.348-1.488-.955-1.966Zm-.045,14.966H14.708l2.232-6.285c.123-.406,.048-.836-.205-1.177-.253-.342-.643-.538-1.068-.538h-2.995l1.8-6h-2.021l-5.23,7.959c-.269,.403-.292,.92-.063,1.348,.229,.428,.673,.693,1.159,.693h2.153l-1.686,4H1V10c0-.463,.209-.893,.573-1.179L11.073,1.353c.546-.428,1.308-.429,1.854,0l9.5,7.468c.364,.286,.573,.716,.573,1.179v13Z"/></svg>
