<?xml version="1.0" encoding="UTF-8"?>
<svg xmlns="http://www.w3.org/2000/svg" id="Layer_1" data-name="Layer 1" viewBox="0 0 24 24" width="512" height="512"><path d="M11.276,23c.126,.353,.28,.693,.485,1H3.5c-1.379,0-2.5-1.121-2.5-2.5V10.947c-.618-.632-1-1.495-1-2.447L2.633,0H21.367l2.633,8.5c0,.829-.302,1.582-.786,2.182-.179-.299-.386-.579-.616-.837,.238-.37,.388-.803,.401-1.271l-2.366-7.573h-3.633V5h-1V1H8V5h-1V1H3.367L1.001,8.573c.039,1.345,1.145,2.427,2.499,2.427h1c1.379,0,2.5-1.121,2.5-2.5v-.5h1v.5c0,1.379,1.121,2.5,2.5,2.5,0,0,3.075-.01,3.113-.011-.165,.32-.299,.659-.4,1.011h-2.713c-1.272,0-2.387-.682-3-1.699-.613,1.017-1.728,1.699-3,1.699h-1c-.536,0-1.045-.122-1.5-.338v9.838c0,.827,.673,1.5,1.5,1.5h7.776Zm7.724-4.5h-1v2h1v-2Zm3-3.5h2v6.5c0,1.379-1.121,2.5-2.5,2.5h-6c-1.379,0-2.5-1.121-2.5-2.5v-6.5h2v-1.5c0-1.93,1.57-3.5,3.5-3.5s3.5,1.57,3.5,3.5v1.5Zm-6,0h5v-1.5c0-1.379-1.121-2.5-2.5-2.5s-2.5,1.121-2.5,2.5v1.5Zm7,1H14v5.5c0,.827,.673,1.5,1.5,1.5h6c.827,0,1.5-.673,1.5-1.5v-5.5Z"/></svg>
