<?xml version="1.0" encoding="UTF-8"?>
<svg xmlns="http://www.w3.org/2000/svg" id="Layer_1" data-name="Layer 1" viewBox="0 0 24 24" width="512" height="512"><path d="m10.838,4.319l-.727-.727c1.32-2.15,3.686-3.592,6.389-3.592,4.136,0,7.5,3.364,7.5,7.5,0,2.703-1.441,5.069-3.591,6.389l-.727-.727c1.978-1.116,3.318-3.234,3.318-5.662,0-3.584-2.916-6.5-6.5-6.5-2.428,0-4.546,1.341-5.662,3.319Zm6.69,9.518l5.679,5.679-2.879,2.879c-1.033,1.035-2.434,1.604-3.941,1.604C9.188,24,0,14.811,0,7.613c0-1.509.57-2.909,1.606-3.941L4.484.793l5.679,5.679-3.372,3.373c1.49,3.511,3.964,5.988,7.36,7.369l3.377-3.376Zm4.265,5.679l-4.265-4.265-3.131,3.13-.303-.115c-3.921-1.497-6.732-4.307-8.357-8.353l-.123-.307,3.135-3.135L4.484,2.207l-2.172,2.172c-.847.844-1.312,1.992-1.312,3.234,0,6.615,8.771,15.386,15.387,15.386,1.241,0,2.39-.466,3.234-1.312l2.172-2.172Zm-5.793-15.516v3.707l2.146,2.146.707-.707-1.854-1.854v-3.293h-1Z"/></svg>
