<?xml version="1.0" encoding="UTF-8"?>
<svg xmlns="http://www.w3.org/2000/svg" id="Layer_1" data-name="Layer 1" viewBox="0 0 24 24">
  <path d="m12,4.008l6.996,11.992h-4.496v-1h2.754l-5.254-9.008-5.254,9.008h2.754v1h-4.496l6.996-11.992Zm.5,4.992h-1v4h1v-4Zm-.5,5c-.552,0-1,.448-1,1s.448,1,1,1,1-.448,1-1-.448-1-1-1Zm8.75.082l2.924,1.655-2.464,4.351-2.926-1.657c-1.064,1.041-2.359,1.796-3.784,2.208v3.361h-5v-3.361c-1.425-.412-2.72-1.167-3.784-2.208l-2.926,1.657L.326,15.737l2.924-1.655c-.166-.692-.25-1.391-.25-2.082s.084-1.39.25-2.082l-2.924-1.655L2.79,3.911l2.926,1.657c1.063-1.04,2.358-1.795,3.784-2.207V0h5v3.361c1.425.412,2.72,1.167,3.784,2.207l2.926-1.657,2.464,4.352-2.924,1.655c.166.692.25,1.391.25,2.082s-.084,1.39-.25,2.082Zm-1.169.486l.107-.378c.207-.728.312-1.464.312-2.19s-.105-1.463-.312-2.19l-.107-.378,2.73-1.546-1.478-2.611-2.733,1.548-.269-.287c-1.069-1.141-2.435-1.937-3.949-2.303l-.382-.093V1h-3v3.14l-.382.093c-1.514.366-2.879,1.162-3.949,2.303l-.269.287-2.733-1.548-1.478,2.611,2.73,1.546-.107.378c-.207.728-.312,1.464-.312,2.19s.105,1.463.312,2.19l.107.378-2.73,1.546,1.478,2.61,2.733-1.547.269.287c1.07,1.141,2.435,1.937,3.949,2.303l.382.093v3.14h3v-3.14l.382-.093c1.514-.366,2.879-1.162,3.949-2.303l.269-.287,2.733,1.547,1.478-2.61-2.73-1.546Z"/>
</svg>
