<?xml version="1.0" encoding="UTF-8"?>
<svg xmlns="http://www.w3.org/2000/svg" id="Layer_1" data-name="Layer 1" viewBox="0 0 24 24" width="512" height="512"><path d="m1.267,23h8.733v1H1.267c-.514,0-.973-.307-1.169-.781-.197-.475-.089-1.016.274-1.379l8.533-9.37c.129-.13.094-.257.073-.306-.02-.049-.085-.164-.245-.164H0v-1h8.733c.514,0,.973.307,1.169.781.197.475.089,1.016-.274,1.379L1.095,22.53c-.129.13-.094.257-.074.306.021.05.085.164.245.164Zm22.448-8.275c.29-.29.376-.722.219-1.101-.157-.379-.523-.624-.933-.624h-6v1l5.992.034-5.706,6.241c-.29.29-.376.722-.219,1.101.157.379.523.624.933.624h6v-1l-5.991-.034,5.706-6.241Zm-4.714-5.725h-6.925l-.042-.136,6.651-7.03c.309-.308.4-.768.233-1.17s-.556-.663-.992-.663h-6.925v1h6.925l.042.136-6.651,7.03c-.309.308-.4.768-.233,1.17s.556.663.992.663h6.925v-1Z"/></svg>
