<?xml version="1.0" encoding="UTF-8"?>
<svg xmlns="http://www.w3.org/2000/svg" id="Layer_1" data-name="Layer 1" width="512" height="512" viewBox="0 0 24 24"><path d="M9,15c0,.552-.448,1-1,1s-1-.448-1-1,.448-1,1-1,1,.448,1,1Zm2,3c-.552,0-1,.448-1,1s.448,1,1,1,1-.448,1-1-.448-1-1-1Zm-1,4c-.552,0-1,.448-1,1s.448,1,1,1,1-.448,1-1-.448-1-1-1Zm-3-4c-.552,0-1,.448-1,1s.448,1,1,1,1-.448,1-1-.448-1-1-1Zm-1,4c-.552,0-1,.448-1,1s.448,1,1,1,1-.448,1-1-.448-1-1-1Zm10-8c-.552,0-1,.448-1,1s.448,1,1,1,1-.448,1-1-.448-1-1-1Zm-1,4c-.552,0-1,.448-1,1s.448,1,1,1,1-.448,1-1-.448-1-1-1Zm-3-4c-.552,0-1,.448-1,1s.448,1,1,1,1-.448,1-1-.448-1-1-1Zm5.002-8.977C15.87,2.004,12.999,0,9.75,0,5.477,0,2,3.477,2,7.75c0,.763,.116,1.523,.345,2.266-1.476,1.033-2.345,2.681-2.345,4.484,0,2.558,1.758,4.708,4.128,5.32-.075-.262-.128-.534-.128-.82,0-.092,.019-.178,.027-.268-1.756-.614-3.027-2.269-3.027-4.232,0-1.583,.822-3.021,2.2-3.847l.354-.212-.141-.388c-.273-.752-.412-1.527-.412-2.304,0-3.722,3.028-6.75,6.75-6.75,2.931,0,5.51,1.874,6.417,4.662l.11,.338,.355,.007c3.512,.071,6.368,2.983,6.368,6.493,0,3.091-2.248,5.836-5.012,6.378,.002,.041,.012,.08,.012,.122,0,.322-.064,.626-.158,.916,3.365-.476,6.158-3.734,6.158-7.416,0-3.933-3.108-7.216-6.998-7.477Zm-3.002,16.977c-.552,0-1,.448-1,1s.448,1,1,1,1-.448,1-1-.448-1-1-1Z"/></svg>
