<?xml version="1.0" encoding="UTF-8"?>
<svg xmlns="http://www.w3.org/2000/svg" id="Layer_1" data-name="Layer 1" viewBox="0 0 24 24" width="512" height="512"><path d="m19.329.555c-2.017-1.142-4.603-.454-5.764,1.535-.562.962-.712,2.083-.422,3.156.292,1.083.995,1.986,1.979,2.544l.146.079-.949.949c-.85.851-1.318,1.98-1.318,3.182v12h1v-12c0-.935.364-1.814,1.025-2.475l.688-.688c-.003.006-.006.012-.009.018-1.042,1.979-.313,4.483,1.704,5.625.658.354,1.363.523,2.055.523,1.446,0,2.834-.738,3.607-2.063.791-1.355.93-2.66.93-4.901,0-2.338-1.227-5.531-4.671-7.484Zm2.877,11.881c-.871,1.492-2.771,2.002-4.385,1.13-1.473-.835-2.026-2.739-1.233-4.246.777-1.475-.39-2.091-.83-2.323l-.145-.078c-.75-.425-1.285-1.112-1.506-1.934-.219-.813-.105-1.662.32-2.392.596-1.021,1.684-1.593,2.801-1.593.546,0,1.1.137,1.606.424,3.07,1.74,4.164,4.558,4.164,6.614,0,2.101-.115,3.234-.793,4.397Z"/><path d="m8.732,7.869l.146-.079c.984-.558,1.687-1.462,1.979-2.544.289-1.073.139-2.194-.423-3.156C9.273.101,6.687-.587,4.671.555,1.227,2.507,0,5.701,0,8.039c0,2.241.139,3.546.93,4.901.766,1.313,2.136,2.05,3.593,2.05.716,0,1.453-.178,2.148-.553,1.938-1.099,2.667-3.603,1.625-5.582-.003-.006-.006-.012-.009-.018l.688.688c.661.661,1.025,1.541,1.025,2.475v12h1v-12c0-1.202-.468-2.332-1.318-3.182l-.949-.949Zm-2.615,5.731c-1.555.838-3.454.326-4.324-1.164-.679-1.164-.793-2.297-.793-4.397,0-2.056,1.094-4.874,4.164-6.614.507-.288,1.06-.424,1.606-.424,1.118,0,2.206.572,2.801,1.593.426.729.54,1.579.32,2.392-.222.822-.756,1.509-1.506,1.935l-.145.078c-.439.232-1.606.848-.83,2.323.793,1.506.24,3.411-1.293,4.279Z"/></svg>
