<?xml version="1.0" encoding="UTF-8"?>
<svg xmlns="http://www.w3.org/2000/svg" id="Layer_1" data-name="Layer 1" viewBox="0 0 24 24">
  <path d="m22.899,14.34c-.112-.076-.165-.211-.139-.352.152-.811-.098-1.64-.67-2.218-.574-.578-1.396-.83-2.206-.678-.135.022-.265-.027-.34-.139-.466-.696-1.24-1.112-2.068-1.112-.062,0-.124.003-.186.007.02-.076.066-.143.133-.189.689-.47,1.101-1.247,1.101-2.081s-.412-1.611-1.101-2.081c-.112-.076-.165-.211-.138-.352.151-.812-.1-1.641-.671-2.217-.573-.58-1.399-.832-2.206-.679-.135.022-.266-.027-.34-.138-.465-.697-1.239-1.113-2.068-1.113s-1.603.416-2.068,1.112c-.075.111-.205.162-.34.139-.81-.151-1.633.1-2.206.678-.572.577-.823,1.406-.671,2.219.026.14-.027.274-.139.351-.689.47-1.101,1.247-1.101,2.081s.412,1.611,1.101,2.081c.067.046.112.112.133.189-.061-.005-.123-.007-.185-.007-.829,0-1.602.416-2.068,1.112-.075.111-.204.162-.34.139-.808-.152-1.632.099-2.207.679-.572.577-.823,1.406-.671,2.217.026.141-.026.275-.138.352-.689.47-1.101,1.247-1.101,2.081s.412,1.611,1.101,2.081c.112.076.165.211.139.352-.152.811.098,1.64.67,2.217.575.581,1.387.871,2.213.695.134-.034.267.024.346.14.467.686,1.235,1.095,2.056,1.095s1.589-.409,2.056-1.095c.078-.115.209-.175.345-.14.828.175,1.638-.114,2.212-.694.572-.577.823-1.406.671-2.219-.026-.14.174-.376.192-.388.017.013.217.249.19.389-.151.812.1,1.641.671,2.217.574.581,1.386.871,2.212.695.134-.033.268.024.346.14.467.686,1.235,1.095,2.056,1.095s1.589-.409,2.056-1.094c.078-.116.212-.175.345-.141.83.175,1.639-.114,2.213-.695.572-.577.823-1.406.671-2.217-.026-.141.026-.275.138-.352.689-.47,1.101-1.247,1.101-2.081s-.412-1.611-1.101-2.081Zm-15.759-5.506c-.416-.283-.664-.752-.664-1.255s.248-.972.664-1.255c.438-.299.657-.834.558-1.361-.093-.496.052-.981.398-1.33.343-.348.819-.494,1.309-.399.525.098,1.06-.121,1.357-.565.56-.836,1.915-.837,2.475,0,.297.443.833.662,1.357.564.491-.092.965.053,1.309.4.346.348.491.833.398,1.328-.1.528.119,1.063.558,1.362.416.283.664.752.664,1.255s-.248.972-.664,1.255c-.424.289-.642.799-.566,1.31-.35.191-.656.466-.886.811-.074.111-.202.164-.339.139-.807-.15-1.632.099-2.206.678-.572.577-.823,1.406-.671,2.218.026.141-.174.377-.191.389-.018-.013-.218-.248-.191-.389.151-.812-.1-1.641-.671-2.217-.573-.579-1.397-.832-2.206-.679-.135.023-.266-.027-.34-.139-.231-.344-.536-.62-.887-.811.076-.511-.142-1.02-.565-1.309Zm4.244,8.842c-.438.299-.657.834-.558,1.361.093.496-.052.981-.398,1.33-.337.341-.791.532-1.292.42-.533-.11-1.074.104-1.381.556-.562.822-1.898.823-2.46,0-.253-.371-.666-.584-1.101-.584-.093,0-.187.01-.281.029-.495.109-.956-.08-1.293-.42-.346-.35-.491-.834-.397-1.33.099-.528-.121-1.062-.558-1.361-.416-.283-.664-.752-.664-1.255s.248-.972.664-1.255c.438-.298.656-.832.558-1.361-.093-.496.052-.98.398-1.329.344-.349.82-.495,1.31-.4.524.097,1.06-.122,1.357-.564.561-.838,1.914-.838,2.475,0,.296.442.826.661,1.358.564.488-.095.964.052,1.309.4.346.348.491.833.398,1.329-.1.528.12,1.062.558,1.361.416.283.664.752.664,1.255s-.248.972-.664,1.255Zm10.952,0c-.438.299-.657.833-.558,1.361.093.496-.052.98-.398,1.33-.336.34-.789.529-1.293.42-.531-.111-1.074.104-1.381.556-.562.822-1.898.822-2.46,0-.307-.451-.847-.666-1.381-.556-.501.111-.955-.079-1.292-.421-.346-.348-.491-.833-.398-1.328.094-.5-.097-1.007-.49-1.313.235-.388.364-.837.364-1.305s-.129-.917-.364-1.305c.393-.306.585-.811.491-1.312-.093-.496.052-.981.398-1.33.343-.348.818-.494,1.309-.399.529.097,1.061-.122,1.357-.564.561-.838,1.914-.838,2.475,0,.297.443.832.661,1.357.564.488-.095.964.053,1.309.399.346.35.491.834.397,1.33-.098.529.121,1.063.558,1.361.416.283.664.752.664,1.255s-.248.972-.664,1.255Z"/>
</svg>
