<?xml version="1.0" encoding="UTF-8"?>
<svg xmlns="http://www.w3.org/2000/svg" id="Layer_1" data-name="Layer 1" viewBox="0 0 24 24">
  <path d="m20.991,12.535c-.198-5.261-3.76-5.535-4.491-5.535-1.194,0-2.92.523-4,2.155v-3.155C12.5.289,8.751,0,8,0h-.5c-1.749,0-4.322,1.618-4.491,6.035-1.698.24-3.009,1.702-3.009,3.465,0,2.676,3.018,5.725,3.146,5.854l.354.354.354-.354c.128-.128,3.146-3.177,3.146-5.854,0-1.757-1.301-3.215-2.99-3.463.154-3.685,2.139-5.037,3.49-5.037h.5c.821,0,3.5.36,3.5,5v18h1v-11c0-4.86,3.591-5,4-5,.793,0,3.318.336,3.49,4.537-1.689.247-2.99,1.706-2.99,3.463,0,2.676,3.018,5.725,3.146,5.854l.354.354.354-.354c.128-.128,3.146-3.177,3.146-5.854,0-1.763-1.311-3.226-3.009-3.465Zm-14.991-3.035c0,1.773-1.736,3.912-2.5,4.767-.764-.854-2.5-2.99-2.5-4.767,0-1.378,1.122-2.5,2.5-2.5s2.5,1.122,2.5,2.5Zm14.5,11.267c-.764-.854-2.5-2.99-2.5-4.767,0-1.378,1.122-2.5,2.5-2.5s2.5,1.122,2.5,2.5c0,1.773-1.736,3.912-2.5,4.767Z"/>
</svg>
