<?xml version="1.0" encoding="UTF-8"?>
<svg xmlns="http://www.w3.org/2000/svg" id="Layer_1" data-name="Layer 1" viewBox="0 0 24 24">
  <path d="m19.146,10.412l-1.633-4.187c-.34-.873-.513-1.79-.513-2.726v-.5h1V0H6v3h1v.5c0,.937-.172,1.854-.512,2.726l-1.633,4.187c-.567,1.455-.854,2.982-.854,4.542v9.046h16v-9.046c0-1.56-.287-3.088-.854-4.542ZM7,1h10v1H7v-1Zm8,14v4H5v-4h10Zm4,8H5v-3h11v-6H5.044c.091-1.103.337-2.184.742-3.225l1.633-4.187c.385-.988.581-2.027.581-3.089v-.5h8v.5c0,1.061.195,2.1.581,3.089l1.633,4.187c.521,1.338.786,2.743.786,4.179v8.046Z"/>
</svg>
