<?xml version="1.0" encoding="UTF-8"?>
<svg xmlns="http://www.w3.org/2000/svg" id="Layer_1" data-name="Layer 1" viewBox="0 0 24 24" width="512" height="512"><path d="M23.789,12.095c-.319,.878-.962,1.58-1.809,1.976l-14.98,6.898v.031h-.068L.43,23.994,.012,23.086l5.988-2.758V12.024c0-.668,.26-1.296,.732-1.768l4.263-4.263-7.995,.007v-1l9.866-.008,1.333,1.115c.517,.49,.792,1.122,.801,1.802,.009,.679-.252,1.318-.732,1.798l-5.268,5.268v-1.414l4.561-4.561c.288-.289,.444-.671,.439-1.079s-.17-.787-.466-1.068l-1.03-.861h-.093l-4.971,4.971c-.283,.283-.439,.66-.439,1.061v7.844l14.56-6.705c.603-.281,1.062-.783,1.289-1.41,.229-.627,.198-1.307-.084-1.912l.906-.423c.396,.847,.438,1.797,.118,2.676ZM14,2.5c0-1.378,1.121-2.5,2.5-2.5s2.5,1.122,2.5,2.5-1.121,2.5-2.5,2.5-2.5-1.122-2.5-2.5Zm1,0c0,.827,.673,1.5,1.5,1.5s1.5-.673,1.5-1.5-.673-1.5-1.5-1.5-1.5,.673-1.5,1.5Z"/></svg>
