<?xml version="1.0" encoding="UTF-8"?>
<svg xmlns="http://www.w3.org/2000/svg" id="Layer_1" data-name="Layer 1" viewBox="0 0 24 24" width="512" height="512"><path d="M21.966,15.084c-.194-1.188-1.3-2.084-2.573-2.084H9.959l-1.093-4h10.133v-1H8.593L6.943,1.959C6.607,.68,5.376-.174,4.137,.002c-.704,.104-1.332,.503-1.723,1.095-.391,.592-.512,1.325-.331,2.015l3.334,12.304c.3,1.108,1.118,1.972,2.15,2.361l-1.303,2.606c-.39,.781-.349,1.69,.11,2.433s1.254,1.186,2.126,1.186h12.5v-1H8.5c-.523,0-1-.266-1.276-.711s-.3-.991-.066-1.46l1.419-2.837c.072,.005,.145,.008,.218,.008h10.705c.734,0,1.429-.321,1.905-.881s.681-1.302,.562-2.035Zm-1.323,1.388c-.286,.336-.703,.528-1.143,.528H8.795c-1.126,0-2.119-.76-2.413-1.847L3.049,2.854c-.108-.411-.035-.851,.199-1.206,.238-.359,.598-.67,1.227-.67,.673,0,1.311,.511,1.502,1.24l3.219,11.782h10.197c.789,0,1.471,.535,1.586,1.244,.073,.45-.046,.887-.336,1.228Z"/></svg>
