<?xml version="1.0" encoding="UTF-8"?>
<svg xmlns="http://www.w3.org/2000/svg" id="Layer_1" data-name="Layer 1" viewBox="0 0 24 24">
  <path d="m24,11.5c0-1.365-1.099-2.477-2.459-2.499-.864-2.746-2.901-5.013-5.541-6.168v-.333c0-1.379-1.121-2.5-2.5-2.5h-3c-1.378,0-2.5,1.121-2.5,2.5v.333c-2.642,1.155-4.678,3.422-5.541,6.168-1.359.022-2.459,1.134-2.459,2.499v2.5h2.2c.674,3.342,2.95,6.005,5.956,7.244l-.938,2.756h1.056l.824-2.422c.92.275,1.894.422,2.901.422s1.981-.147,2.9-.421l.824,2.421h1.057l-.938-2.756c3.006-1.239,5.283-3.901,5.956-7.244h2.2v-2.5ZM9,2.5c0-.827.673-1.5,1.5-1.5h3c.827,0,1.5.673,1.5,1.5v1.5h-6v-1.5ZM1,11.5c0-.827.673-1.5,1.5-1.5h3c.827,0,1.5.673,1.5,1.5v1.5H1v-1.5Zm11,9.5c-.895,0-1.76-.129-2.578-.37l2.578-7.577,2.578,7.577c-.818.241-1.683.37-2.578.37Zm3.52-.706l-3.52-10.347-3.52,10.347c-2.616-1.1-4.607-3.403-5.257-6.294h4.778v-2.5c0-1.379-1.122-2.5-2.5-2.5h-1.987c.778-2.196,2.399-4.024,4.487-5.063v1.063h8v-1.063c2.088,1.039,3.709,2.867,4.487,5.063h-1.987c-1.379,0-2.5,1.121-2.5,2.5v2.5h4.777c-.65,2.892-2.641,5.194-5.257,6.294Zm7.48-7.294h-6v-1.5c0-.827.673-1.5,1.5-1.5h3c.827,0,1.5.673,1.5,1.5v1.5Z"/>
</svg>
