<?xml version="1.0" encoding="UTF-8"?>
<svg xmlns="http://www.w3.org/2000/svg" id="Layer_1" data-name="Layer 1" viewBox="0 0 24 24" width="512" height="512"><path d="M4.641,21.943l-.281,.96C2.155,22.257,.695,20.799,.021,18.567l.957-.289c.579,1.914,1.776,3.113,3.662,3.665ZM17.521,4.645l.957-.289C17.805,2.125,16.345,.666,14.141,.02l-.281,.96c1.886,.552,3.083,1.751,3.662,3.665Zm-3.021,19.355c-.026,0,.027,0,0,0h0Zm9.5-15.514v6.17c0,2.249-.915,4.447-2.51,6.032l-.816,.81c-1.626,1.615-3.884,2.502-6.174,2.502-2.319-.021-4.46-.949-6.077-2.612L.701,13.456c-.798-.799-.93-2.063-.302-2.936,.335-.466,.828-.782,1.377-.893l-.889-.889C.083,7.934-.049,6.669,.58,5.797c.295-.409,.76-.65,1.346-.698,.121-.01,.247-.01,.374-.003-.4-.755-.375-1.68,.119-2.365,.388-.539,.986-.878,1.64-.931,.653-.057,1.296,.183,1.76,.647l.349,.35c.055-.306,.174-.6,.361-.86,.388-.539,.986-.878,1.64-.931,.654-.052,1.296,.183,1.76,.647l9.071,9.084v-2.146c0-1.273,.896-2.379,2.083-2.573,.734-.117,1.476,.085,2.036,.562,.56,.476,.881,1.17,.881,1.905Zm-1,0c0-.44-.193-.857-.529-1.143-.341-.291-.775-.411-1.227-.336-.709,.115-1.244,.797-1.244,1.586v4.562L9.221,2.361c-.256-.256-.61-.386-.972-.357-.367,.03-.69,.214-.909,.519-.345,.479-.258,1.188,.203,1.649l-.002,.002,5.953,5.962-.708,.707L5.111,3.155c-.256-.256-.606-.382-.972-.357-.367,.03-.689,.214-.909,.519-.345,.479-.258,1.188,.202,1.649l7.609,7.622-.707,.707L3.351,6.31c-.677-.677-1.84-.095-1.96,.071-.345,.479-.258,1.188,.202,1.649l6.997,7.009-.708,.706L3.091,10.942c-.256-.255-.612-.384-.972-.357-.367,.03-.69,.214-.91,.519-.345,.479-.258,1.188,.203,1.649l7.728,7.938c1.429,1.471,3.31,2.291,5.36,2.309,2.024,0,4.031-.784,5.469-2.212l.816-.81c1.407-1.398,2.215-3.338,2.215-5.322v-6.17Z"/></svg>
