<?xml version="1.0" encoding="UTF-8"?>
<svg xmlns="http://www.w3.org/2000/svg" id="Layer_1" data-name="Layer 1" viewBox="0 0 24 24">
  <path d="m20.993,12c0-.691-.084-1.39-.25-2.082l2.924-1.655-2.464-4.352-2.927,1.657c-1.063-1.04-2.358-1.795-3.783-2.207V0h-5v3.361c-1.425.412-2.72,1.167-3.784,2.207l-2.927-1.657L.319,8.263l2.923,1.655c-.166.692-.25,1.391-.25,2.082s.084,1.391.25,2.082l-2.924,1.655,2.463,4.351,2.927-1.657c1.064,1.041,2.359,1.796,3.784,2.208v3.361h5v-3.361c1.425-.412,2.72-1.167,3.784-2.208l2.927,1.657,2.464-4.351-2.924-1.655c.166-.692.25-1.391.25-2.082Zm1.311,4.114l-1.479,2.61-2.733-1.547-.269.287c-1.069,1.141-2.435,1.937-3.948,2.303l-.382.093v3.14h-3v-3.14l-.382-.093c-1.514-.366-2.879-1.162-3.949-2.303l-.269-.287-2.733,1.547-1.478-2.61,2.73-1.546-.108-.378c-.207-.726-.312-1.462-.312-2.19s.105-1.463.312-2.19l.107-.378-2.73-1.546,1.479-2.611,2.733,1.548.269-.287c1.069-1.141,2.435-1.937,3.949-2.303l.382-.093V1h3v3.14l.382.093c1.514.366,2.879,1.162,3.948,2.303l.269.287,2.733-1.548,1.478,2.611-2.73,1.546.107.378c.207.728.312,1.464.312,2.19s-.105,1.463-.312,2.19l-.107.378,2.73,1.546Zm-13.804-4.043v-5.071h-1v5.071c-.86.224-1.5,1-1.5,1.929s.64,1.705,1.5,1.929v1.071h1v-1.071c.86-.224,1.5-1,1.5-1.929s-.64-1.705-1.5-1.929Zm-.5,2.929c-.551,0-1-.448-1-1s.449-1,1-1,1,.448,1,1-.449,1-1,1Zm8.5-2.929v-5.071h-1v5.071c-.86.224-1.5,1-1.5,1.929s.64,1.705,1.5,1.929v1.071h1v-1.071c.86-.224,1.5-1,1.5-1.929s-.64-1.705-1.5-1.929Zm-.5,2.929c-.551,0-1-.448-1-1s.449-1,1-1,1,.448,1,1-.449,1-1,1Zm-3.5-6.929v-1.071h-1v1.071c-.86.224-1.5,1-1.5,1.929s.64,1.705,1.5,1.929v5.071h1v-5.071c.86-.224,1.5-1,1.5-1.929s-.64-1.705-1.5-1.929Zm-.5,2.929c-.551,0-1-.448-1-1s.449-1,1-1,1,.448,1,1-.449,1-1,1Z"/>
</svg>
