<?xml version="1.0" encoding="UTF-8"?>
<svg xmlns="http://www.w3.org/2000/svg" id="Layer_1" data-name="Layer 1" viewBox="0 0 24 24" width="512" height="512"><path d="M19.995,8C19.995,3.5,16.428,.2,12.388,.009c-2.362-.105-4.637,.814-6.243,2.54-1.607,1.726-2.367,4.069-2.086,6.431,.432,3.632,3.386,6.563,7.022,6.969,2.314,.258,4.533-.447,6.251-1.985,.677-.605,1.237-1.314,1.668-2.093v3.629c0,4.136-3.364,7.5-7.5,7.5H6v1h5.5c4.687,0,8.5-3.813,8.5-8.5v-7.5h-.005Zm-7.995,7c-3.866,0-7-3.134-7-7S8.134,1,12,1s7,3.134,7,7-3.134,7-7,7Z"/></svg>
