<?xml version="1.0" encoding="UTF-8"?>
<svg xmlns="http://www.w3.org/2000/svg" id="Layer_1" data-name="Layer 1" viewBox="0 0 24 24" width="512" height="512"><path d="M23.045,8.034l-2.045-1.607V2h-1v3.641L13.545,.567c-.91-.717-2.181-.716-3.09,0L.955,8.034c-.607,.478-.955,1.193-.955,1.966v14H24V10c0-.772-.348-1.488-.955-1.966Zm-.045,14.966H1V10c0-.463,.209-.893,.573-1.179L11.073,1.353c.546-.428,1.308-.429,1.854,0l9.5,7.468c.364,.286,.573,.716,.573,1.179v13Zm-15-5h8V10H8v8Zm1-7h6v6h-6v-6Z"/></svg>
