<?xml version="1.0" encoding="UTF-8"?>
<svg xmlns="http://www.w3.org/2000/svg" id="Layer_1" data-name="Layer 1" viewBox="0 0 24 24" width="512" height="512"><path d="m8.111,15.48l-.707-.707,3.202-3.203c.768-.769,2.02-.769,2.787,0l3.202,3.203-.707.707-3.202-3.203c-.057-.057-.12-.106-.187-.146v8.868h-1v-8.868c-.066.04-.129.088-.187.146l-3.202,3.203Zm15.889-10.98v19.5H0V4.5c0-1.378,1.121-2.5,2.5-2.5h3.5V0h1v2h10V0h1v2h3.5c1.379,0,2.5,1.122,2.5,2.5Zm-1,4.5H1v14h22v-14Zm0-4.5c0-.827-.673-1.5-1.5-1.5H2.5c-.827,0-1.5.673-1.5,1.5v3.5h22v-3.5Z"/></svg>
