<?xml version="1.0" encoding="UTF-8"?>
<svg xmlns="http://www.w3.org/2000/svg" id="Layer_1" data-name="Layer 1" viewBox="0 0 24 24" width="512" height="512"><path d="M18.529,10h3.471v-1h-2.453c.909-1.174,1.453-2.699,1.453-3.174,0-1.728-.931-3.309-2.43-4.125-1.422-.776-3.721-1.701-6.593-1.701C6.604,0,3.394,3.149,3.26,3.283l.707,.707c.03-.03,3.048-2.99,8.011-2.99,2.661,0,4.794,.858,6.114,1.579,1.177,.641,1.908,1.886,1.908,3.312-.029,.342-.749,2.209-1.801,3.108H2v1H15.921l-9.829,3.643c-.263,.097-.513,.218-.749,.357H2v1h2.155c-.727,.853-1.155,1.965-1.155,3.165,0,1.737,.934,3.325,2.437,4.146,1.415,.771,3.703,1.689,6.563,1.689,5.373,0,8.583-3.149,8.717-3.283l-.706-.708c-.03,.03-3.067,2.991-8.011,2.991-2.65,0-4.771-.853-6.085-1.567-1.182-.645-1.915-1.896-1.915-3.334,0-1.253,.63-2.41,1.632-3.099H22v-1H8.006l9.88-3.661c.224-.081,.438-.197,.643-.339Z"/></svg>
