<?xml version="1.0" encoding="UTF-8"?>
<svg xmlns="http://www.w3.org/2000/svg" id="Layer_1" data-name="Layer 1" viewBox="0 0 24 24">
  <path d="m23.371,5.995c.411-.466.629-.968.629-1.495,0-2.923-6.183-4.5-12-4.5S0,1.577,0,4.5c0,.531.212,1.035.622,1.503-.413.469-.622.971-.622,1.497,0,.553.222,1.057.62,1.512-.408.467-.62.965-.62,1.488,0,.553.222,1.057.62,1.512-.408.467-.62.965-.62,1.488,0,.553.222,1.057.62,1.512-.408.467-.62.965-.62,1.488,0,.551.221,1.054.618,1.508-.41.468-.618.968-.618,1.492,0,2.923,6.183,4.5,12,4.5s12-1.577,12-4.5c0-.523-.207-1.022-.617-1.491.396-.454.617-.958.617-1.509,0-.521-.217-1.018-.624-1.485.4-.456.624-.961.624-1.515,0-.521-.217-1.018-.624-1.485.4-.456.624-.961.624-1.515,0-.521-.217-1.018-.624-1.485.4-.456.624-.961.624-1.515,0-.528-.212-1.032-.629-1.505ZM12,1c6.482,0,11,1.845,11,3.5,0,1.222-2.712,2.805-7.738,3.33-1.289.135-2.262,1.204-2.262,2.485v3.185c0,.276-.225.5-.5.5s-.5-.224-.5-.5v-3.5c0-1.103-.897-2-2-2s-2,.897-2,2v9.5c0,.276-.225.5-.5.5s-.5-.224-.5-.5v-9.894c0-1.127-.774-2.122-1.882-2.419-2.54-.681-4.118-1.71-4.118-2.688,0-1.655,4.518-3.5,11-3.5Zm0,22c-6.482,0-11-1.845-11-3.5,0-.273.123-.551.366-.83.682.484,1.586.895,2.634,1.231v-1.056c-1.895-.665-3-1.527-3-2.345,0-.274.125-.554.371-.836.677.482,1.589.885,2.629,1.221v-1.041c-1.895-.665-3-1.527-3-2.345,0-.274.125-.554.371-.836.677.482,1.589.885,2.629,1.221v-1.041c-1.895-.665-3-1.527-3-2.345,0-.274.125-.554.371-.836.677.482,1.589.885,2.629,1.221v-1.041c-1.895-.665-3-1.527-3-2.345,0-.274.124-.554.37-.835.819.583,1.993,1.088,3.488,1.489.672.18,1.142.778,1.142,1.453v9.894c0,.827.673,1.5,1.5,1.5s1.5-.673,1.5-1.5v-9.5c0-.551.448-1,1-1s1,.449,1,1v3.5c0,.827.673,1.5,1.5,1.5s1.5-.673,1.5-1.5v-3.185c0-.769.587-1.41,1.365-1.491,3.257-.34,5.798-1.124,7.257-2.166.251.284.378.567.378.842,0,1.287-2.738,2.684-7,3.244v.996c2.72-.347,5.176-1.042,6.625-2.073.246.281.375.56.375.833,0,1.287-2.738,2.684-7,3.244v.996c2.72-.347,5.176-1.042,6.625-2.073.246.281.375.56.375.833,0,1.655-4.518,3.5-11,3.5-.34,0-.671-.008-1-.018v.994c.334.01.667.024,1,.024,4.155,0,8.483-.808,10.625-2.333.246.281.375.56.375.833,0,1.655-4.518,3.5-11,3.5-.34,0-.671-.008-1-.018v1.001c.334.01.667.017,1,.017,4.153,0,8.492-.804,10.635-2.327.242.279.365.556.365.827,0,1.655-4.518,3.5-11,3.5Z"/>
</svg>
