<?xml version="1.0" encoding="UTF-8"?>
<svg xmlns="http://www.w3.org/2000/svg" id="Layer_1" data-name="Layer 1" viewBox="0 0 24 24">
  <path d="m17.987,2.28C16.075.575,13.508-.234,10.937.062c-3.992.458-7.293,3.674-7.847,7.647-.413,2.964.595,5.827,2.765,7.853,1.363,1.273,2.146,3.029,2.146,4.816v3.622h8v-3.853c0-1.686.752-3.309,2.118-4.571,1.831-1.694,2.882-4.091,2.882-6.576,0-2.563-1.098-5.012-3.013-6.72Zm-2.987,20.72h-6v-2.622c0-.464-.052-.924-.14-1.378h6.249c-.066.378-.109.76-.109,1.147v2.853Zm2.439-8.158c-.987.912-1.695,1.993-2.086,3.158h-6.759c-.407-1.185-1.107-2.281-2.058-3.169-1.928-1.801-2.823-4.347-2.456-6.984.492-3.528,3.424-6.385,6.97-6.792,2.323-.267,4.547.434,6.272,1.972,1.701,1.518,2.678,3.695,2.678,5.973,0,2.24-.909,4.315-2.561,5.842Zm-3.087-10.271c0-1.014-.825-1.839-1.84-1.839s-1.84.825-1.84,1.839c0,.133.015.282.036.43h-2.709v2.694c-.143-.021-.288-.034-.417-.034-1.015,0-1.84.825-1.84,1.84s.825,1.84,1.84,1.84c.13,0,.274-.014.417-.034v2.694h9v-4.162l-.646.196c-.487.148-.914.216-1.104.216-.413,0-.75-.336-.75-.75s.337-.75.75-.75c.188,0,.614.067,1.105.216l.645.195v-4.161h-2.684c.021-.147.036-.296.036-.43Zm1.647,1.43v1.844c-.291-.06-.556-.094-.75-.094-.965,0-1.75.785-1.75,1.75s.785,1.75,1.75,1.75c.196,0,.46-.034.75-.094v1.844h-7v-2.936l-.617.149c-.386.093-.666.126-.8.126-.463,0-.84-.377-.84-.84s.377-.84.84-.84c.133,0,.413.033.8.126l.617.149v-2.936h2.952l-.149-.618c-.096-.393-.13-.676-.13-.812,0-.463.377-.839.84-.839s.84.376.84.839c0,.135-.034.419-.13.812l-.149.618h2.927Z"/>
</svg>
