<?xml version="1.0" encoding="UTF-8"?>
<svg xmlns="http://www.w3.org/2000/svg" id="Layer_1" data-name="Layer 1" viewBox="0 0 24 24">
  <path d="m24,0v9.5c0,1.378-1.122,2.5-2.5,2.5h-1.5v12h-1v-12h-1.5c-1.378,0-2.5-1.122-2.5-2.5V0h1v9.5c0,.827.673,1.5,1.5,1.5h1.5V0h1v11h1.5c.827,0,1.5-.673,1.5-1.5V0h1ZM1,12C1,5.935,5.935,1,12,1c.338,0,.67.021,1,.051V.051c-.331-.027-.662-.051-1-.051C5.383,0,0,5.383,0,12s5.383,12,12,12c1.786,0,3.476-.403,5-1.105v-1.109c-1.502.771-3.199,1.214-5,1.214-6.065,0-11-4.935-11-11Zm4,0c0-3.86,3.14-7,7-7,.34,0,.672.033,1,.08v-1.01c-.328-.041-.661-.069-1-.069-4.411,0-8,3.589-8,8s3.589,8,8,8c1.891,0,3.629-.663,5-1.765v-1.345c-1.272,1.3-3.042,2.11-5,2.11-3.86,0-7-3.14-7-7Z"/>
</svg>
