<?xml version="1.0" encoding="UTF-8"?>
<svg xmlns="http://www.w3.org/2000/svg" id="Layer_1" data-name="Layer 1" viewBox="0 0 24 24" width="512" height="512"><path d="M24,4.5c0-2.523-3.733-4.5-8.5-4.5S7,1.977,7,4.5v1.567C2.973,6.432,0,8.248,0,10.5v8.75c0,2.663,3.733,4.75,8.5,4.75s8.5-2.087,8.5-4.75v-1.322c4.083-.393,7-2.32,7-4.678V4.5ZM15.5,1c4.065,0,7.5,1.603,7.5,3.5,0,1.881-3.375,3.471-7.393,3.499-1.462-1.177-3.949-1.952-6.841-1.997-.508-.48-.766-.985-.766-1.502,0-1.897,3.435-3.5,7.5-3.5Zm-7,6c4.065,0,7.5,1.603,7.5,3.5s-3.435,3.5-7.5,3.5-7.5-1.603-7.5-3.5,3.435-3.5,7.5-3.5Zm0,16c-4.065,0-7.5-1.718-7.5-3.75v-6.6c1.419,1.41,4.214,2.35,7.5,2.35s6.081-.939,7.5-2.35v6.6c0,2.032-3.435,3.75-7.5,3.75Zm14.5-9.75c0,1.752-2.595,3.315-6,3.672v-6.422c0-.54-.171-1.055-.487-1.531,2.842-.171,5.216-1.056,6.487-2.319v6.6Zm-7.5-7.25c2.632,0,4.092-.829,4.477-1.083l.632-.417-.632-.417c-.385-.254-1.845-1.083-4.477-1.083s-4.092,.829-4.477,1.083l-.632,.417,.632,.417c.385,.254,1.845,1.083,4.477,1.083Zm0-2c1.409,0,2.422,.252,3.077,.5-.655,.248-1.668,.5-3.077,.5s-2.422-.252-3.077-.5c.655-.248,1.668-.5,3.077-.5Zm-7,8c2.632,0,4.092-.829,4.477-1.083l.632-.417-.632-.417c-.385-.254-1.845-1.083-4.477-1.083s-4.092,.829-4.477,1.083l-.632,.417,.632,.417c.385,.254,1.845,1.083,4.477,1.083Zm0-2c1.409,0,2.422,.252,3.077,.5-.655,.248-1.668,.5-3.077,.5s-2.422-.252-3.077-.5c.655-.248,1.668-.5,3.077-.5Z"/></svg>
