<?xml version="1.0" encoding="UTF-8"?>
<svg xmlns="http://www.w3.org/2000/svg" id="Layer_1" data-name="Layer 1" viewBox="0 0 24 24" width="512" height="512"><path d="m21.5,0H2.5C1.122,0,0,1.121,0,2.5v17.5h7.106l3.897,3.283c.286.254.645.38,1.001.38.353,0,.703-.123.979-.368l3.985-3.295h7.032V2.5c0-1.379-1.122-2.5-2.5-2.5Zm1.5,19h-6.391l-4.276,3.535c-.19.171-.476.169-.675-.009l-4.187-3.526H1V2.5c0-.827.673-1.5,1.5-1.5h19c.827,0,1.5.673,1.5,1.5v16.5Zm-6-11.029v5.029h-1v-5.029c0-.081-.01-.159-.029-.234l-7.118,7.117-.707-.707,7.118-7.117c-.075-.019-.154-.029-.235-.029h-5.029v-1h5.029c1.086,0,1.971.884,1.971,1.971Z"/></svg>
