<?xml version="1.0" encoding="UTF-8"?>
<svg xmlns="http://www.w3.org/2000/svg" id="Layer_1" data-name="Layer 1" viewBox="0 0 24 24" width="512" height="512"><path d="m16.231,14.133l5.68-5.68,1.318,1.318.707-.707L14.937.063l-.707.707,1.318,1.318-3.562,3.562-3.562-3.562,1.318-1.318-.707-.707L.035,9.063l.707.707,1.318-1.318,5.015,5.015c-.05.403-.075.811-.075,1.223v1.602L.035,23.258l.707.707,6.965-6.965h1.603c2.615,0,5.073-1.018,6.922-2.867Zm4.973-6.387l-5.327,5.327-4.95-4.95,5.327-5.327,4.95,4.95Zm-18.438,0L7.717,2.795l3.562,3.562-1.411,1.411c-1.265,1.265-2.142,2.816-2.569,4.508L2.767,7.745Zm5.233,6.946c0-2.181.789-4.239,2.231-5.851l4.93,4.929c-1.612,1.442-3.671,2.231-5.851,2.231h-1.31v-1.309Zm8.825,1.456l7.111,7.112-.707.707-7.111-7.112.707-.707Z"/></svg>
