<?xml version="1.0" encoding="UTF-8"?>
<svg xmlns="http://www.w3.org/2000/svg" id="Layer_1" data-name="Layer 1" viewBox="0 0 24 24" width="512" height="512"><path d="m12,0C5.383,0,0,5.383,0,12s5.383,12,12,12h12v-12C24,5.383,18.617,0,12,0Zm11,23h-11C5.935,23,1,18.065,1,12S5.935,1,12,1s11,4.935,11,11v11ZM14.75,7c-1.199,0-2.189.546-2.75,1.421-.561-.875-1.551-1.421-2.75-1.421-1.792,0-3.25,1.557-3.25,3.47,0,3.334,5.481,7.18,5.715,7.342l.285.197.285-.197c.233-.162,5.715-4.008,5.715-7.342,0-1.913-1.458-3.47-3.25-3.47Zm-2.75,9.786c-1.625-1.191-5-4.121-5-6.316,0-1.361,1.009-2.47,2.25-2.47,1.325,0,2.25.904,2.25,2.2v.8h1v-.8c0-1.296.925-2.2,2.25-2.2,1.241,0,2.25,1.108,2.25,2.47,0,2.195-3.375,5.125-5,6.316Z"/></svg>
