<?xml version="1.0" encoding="UTF-8"?>
<svg xmlns="http://www.w3.org/2000/svg" id="Layer_1" data-name="Layer 1" viewBox="0 0 24 24" width="512" height="512"><path d="M20.5,13c-1.486,0-2.886-.384-4.103-1.058,2.193-1.741,3.603-4.431,3.603-7.442,0-2.481-2.019-4.5-4.5-4.5s-4.5,2.019-4.5,4.5c0,3.012,1.409,5.701,3.603,7.442-1.217,.674-2.616,1.058-4.103,1.058C5.972,13,2,8.794,2,4H1V24h1V8.388c.703,1.468,1.74,2.743,3,3.705v11.907h1V12.764c.923,.538,1.935,.918,3,1.105v10.131h1V13.985c.166,.01,.332,.015,.5,.015,.865,0,1.703-.116,2.5-.334v10.334h1V13.332c.524-.208,1.026-.462,1.5-.757,.474,.295,.976,.548,1.5,.757v10.668h1V13.666c.797,.218,1.635,.334,2.5,.334h.5v10h1V13h-1.5ZM12,4.5c0-1.93,1.57-3.5,3.5-3.5s3.5,1.57,3.5,3.5c0,2.819-1.38,5.323-3.5,6.87-2.12-1.547-3.5-4.051-3.5-6.87Z"/></svg>
