<?xml version="1.0" encoding="UTF-8"?>
<svg xmlns="http://www.w3.org/2000/svg" id="Layer_1" data-name="Layer 1" viewBox="0 0 24 24" width="512" height="512"><path d="m21.5,4h-3.5v-1.5c0-1.379-1.121-2.5-2.5-2.5H2.5C1.122,0,0,1.121,0,2.5v15.854c0,.608.333,1.166.87,1.453.245.131.512.195.779.195.319,0,.637-.093.913-.276l3.438-2.292v3.566h11.349l4.09,2.727c.275.184.594.276.913.276.267,0,.534-.064.778-.195.537-.288.87-.845.87-1.453V6.5c0-1.379-1.121-2.5-2.5-2.5ZM2.007,18.895c-.202.136-.451.147-.665.031-.214-.114-.342-.328-.342-.571V2.5c0-.827.673-1.5,1.5-1.5h13c.827,0,1.5.673,1.5,1.5v13.5H6.349l-4.341,2.895Zm20.993,3.46c0,.243-.128.457-.342.571-.217.116-.462.103-.666-.031l-4.341-2.895H7v-3h11V5h3.5c.827,0,1.5.673,1.5,1.5v15.854Zm-13-9.354c0,.552-.448,1-1,1s-1-.448-1-1,.448-1,1-1,1,.448,1,1Zm-3-7h-1c0-.889.391-1.727,1.071-2.298.681-.572,1.58-.811,2.468-.654,1.209.212,2.201,1.204,2.413,2.413.224,1.273-.381,2.547-1.506,3.168-.492.271-.947.685-.947,1.871v.5h-1v-.5c0-1.324.465-2.197,1.464-2.747.762-.42,1.156-1.252,1.003-2.119-.14-.802-.798-1.46-1.601-1.602-.603-.104-1.191.049-1.652.436-.454.381-.714.939-.714,1.532Z"/></svg>
