<?xml version="1.0" encoding="UTF-8"?>
<svg xmlns="http://www.w3.org/2000/svg" id="Layer_1" data-name="Layer 1" viewBox="0 0 24 24" width="512" height="512"><path d="m9.083,12.785l3.198-3.198.935.935.707-.707-.942-.942c.479-.55.789-1.197.93-1.873h2.089v-1h-2.005c-.031-.855-.323-1.703-.879-2.41l1.487-1.487-.707-.707-1.486,1.486c-.689-.542-1.525-.849-2.41-.88V0h-1v2.088c-.691.143-1.333.461-1.872.931l-1.546-1.546-.707.707,1.539,1.539-2.695,2.695-1.539-1.539-.707.707,1.546,1.546c-.47.539-.788,1.181-.931,1.872H0v1h2.003c.031.885.338,1.722.88,2.411l-1.487,1.486.707.707,1.487-1.486c.707.555,1.554.848,2.409.878v2.004h1v-2.089c.764-.159,1.491-.534,2.083-1.126Zm-6.083-2.934c0-.841.328-1.632.922-2.227l3.702-3.702c.595-.595,1.386-.922,2.227-.922s1.632.328,2.227.922c1.228,1.228,1.228,3.226,0,4.453l-3.702,3.702c-1.228,1.228-3.226,1.228-4.453,0-.595-.595-.922-1.386-.922-2.227Zm21,5.148v-1h-2.005c-.031-.855-.323-1.703-.878-2.41l1.468-1.467-.707-.707-1.467,1.467c-.689-.542-1.525-.849-2.41-.88v-2.003h-1v2.088c-.784.163-1.504.549-2.083,1.128l-3.198,3.198-.951-.951-.707.707.958.958c-.47.539-.788,1.181-.931,1.872h-2.088v1h2.003c.031.885.338,1.722.88,2.411l-1.525,1.525.707.707,1.525-1.525c.707.555,1.554.848,2.409.878v2.004h1v-2.089c.676-.141,1.323-.45,1.873-.93l1.55,1.55.707-.707-1.543-1.543,2.694-2.694,1.543,1.543.707-.707-1.55-1.55c.479-.55.789-1.197.93-1.873h2.089Zm-3.922,1.376l-3.702,3.702c-1.228,1.228-3.226,1.228-4.453,0-.595-.595-.922-1.386-.922-2.227s.328-1.632.922-2.227l3.702-3.702c.595-.595,1.386-.922,2.227-.922s1.632.328,2.227.922c1.228,1.228,1.228,3.226,0,4.453ZM9,6c0-.552.448-1,1-1s1,.448,1,1-.448,1-1,1-1-.448-1-1Zm6,12c0,.552-.448,1-1,1s-1-.448-1-1,.448-1,1-1,1,.448,1,1Z"/></svg>
