<?xml version="1.0" encoding="UTF-8"?>
<svg xmlns="http://www.w3.org/2000/svg" id="Layer_1" data-name="Layer 1" viewBox="0 0 24 24" width="512" height="512"><path d="M24,10.98c0-1.562-.799-3.022-2.106-3.887,.01-.097,.015-.195,.015-.294,0-1.952-1.275-3.514-2.995-3.744C18.574,1.325,17.042,.026,15.25,.026c-1.388,0-2.601,.757-3.25,1.881C11.351,.783,10.138,.026,8.75,.026,6.959,.026,5.427,1.324,5.086,3.052c-1.71,.219-2.996,1.786-2.996,3.746,0,.1,.005,.198,.015,.294-1.307,.865-2.105,2.325-2.105,3.887,0,.935,.282,1.831,.818,2.614-.537,.783-.818,1.679-.818,2.614,0,1.642,.871,3.155,2.289,4.002,.622,2.258,2.65,3.816,5.007,3.816,2.074,0,3.869-1.22,4.705-2.98,.836,1.76,2.63,2.98,4.705,2.98,2.357,0,4.385-1.558,5.007-3.816,1.417-.847,2.289-2.36,2.289-4.002,0-.935-.282-1.831-.818-2.614,.537-.783,.818-1.679,.818-2.614ZM7.295,23.026c-1.963,0-3.645-1.34-4.087-3.258l-.051-.221-.2-.107c-1.207-.646-1.957-1.885-1.957-3.231,0-.832,.287-1.627,.831-2.3l.253-.314-.253-.314c-.543-.673-.831-1.468-.831-2.3,0-1.316,.725-2.541,1.892-3.196l.31-.174s-.111-.653-.111-.812c0-1.363,.901-2.772,2.435-2.772h.463l.036-.461c.11-1.423,1.307-2.539,2.726-2.539,1.517,0,2.75,1.233,2.75,2.75v5.224h-3.063c-.223-.862-1.006-1.5-1.937-1.5-1.103,0-2,.897-2,2s.897,2,2,2c.93,0,1.714-.638,1.937-1.5h3.063v6h-3.063c-.223-.862-1.006-1.5-1.937-1.5-1.103,0-2,.897-2,2s.897,2,2,2c.93,0,1.714-.638,1.937-1.5h3.063v1.821c0,2.318-1.886,4.205-4.205,4.205Zm.205-13.526c0,.551-.449,1-1,1s-1-.449-1-1,.449-1,1-1,1,.449,1,1Zm0,7c0,.551-.449,1-1,1s-1-.449-1-1,.449-1,1-1,1,.449,1,1Zm14.669-2.592c.543,.673,.831,1.468,.831,2.3,0,1.347-.75,2.585-1.957,3.231l-.2,.107-.051,.221c-.443,1.918-2.124,3.258-4.087,3.258-2.318,0-4.205-1.886-4.205-4.205v-3.821h5.5v-3.563c.862-.223,1.5-1.006,1.5-1.937,0-1.103-.897-2-2-2s-2,.897-2,2c0,.93,.638,1.714,1.5,1.937v2.563h-4.5V3.776c0-1.517,1.233-2.75,2.75-2.75,1.419,0,2.616,1.115,2.726,2.539l.061,.461h.463c1.508,0,2.409,1.41,2.409,2.772,0,.159-.11,.812-.11,.812l.309,.174c1.167,.655,1.892,1.88,1.892,3.196,0,.832-.287,1.627-.831,2.3l-.253,.314,.253,.314Zm-4.669-3.408c-.551,0-1-.449-1-1s.449-1,1-1,1,.449,1,1-.449,1-1,1Z"/></svg>
