<?xml version="1.0" encoding="UTF-8"?>
<svg xmlns="http://www.w3.org/2000/svg" id="Layer_1" data-name="Layer 1" viewBox="0 0 24 24">
  <path d="m5,10h-1V0h16v3h-1V1H5v9Zm14,11.5c0,.827-.673,1.5-1.5,1.5H6.5c-.827,0-1.5-.673-1.5-1.5v-2.5h-1v2.5c0,1.378,1.121,2.5,2.5,2.5h11c1.379,0,2.5-1.122,2.5-2.5v-9.5h-1v9.5Zm4.598-14.972l-2.659-2.659-.707.707,2.424,2.424h-5.655v1h5.656l-2.424,2.424.707.707,2.66-2.66c.534-.536.534-1.408,0-1.944ZM7,15v-1H1.344l2.424-2.424-.707-.707L.401,13.528c-.534.536-.534,1.408,0,1.944l2.659,2.659.707-.707-2.424-2.424h5.655Zm3,6h4v-1h-4v1Zm1.158-13h1.684c.576,0,1.158.309,1.158,1h1c0-1.159-.907-2-2.158-2h-.342v-1h-1v1h-.342c-1.19,0-2.158.968-2.158,2.158,0,1.059.759,1.954,1.795,2.127l2.237.415c.561.094.968.574.968,1.142,0,.639-.52,1.158-1.158,1.158h-1.684c-.576,0-1.158-.309-1.158-1h-1c0,1.159.907,2,2.158,2h.342v1h1v-1h.342c1.19,0,2.158-.968,2.158-2.158,0-1.059-.759-1.954-1.795-2.127l-2.237-.415c-.561-.094-.968-.574-.968-1.142,0-.639.52-1.158,1.158-1.158Z"/>
</svg>
