<?xml version="1.0" encoding="UTF-8"?>
<svg xmlns="http://www.w3.org/2000/svg" id="Layer_1" data-name="Layer 1" viewBox="0 0 24 24">
  <path d="m24,19.025c0,2.743-2.231,4.975-4.975,4.975H0v-1h19.025c2.191,0,3.975-1.783,3.975-3.975h1Zm-4,1.975H0l.012-2.294L4.098,0h9.573c.722,0,1.39.326,1.834.894.444.568.6,1.295.426,1.995l-1.833,7.385,1.25.376c2.677.532,4.652,2.942,4.652,5.719v4.632Zm-1-4.632c0-2.302-1.638-4.299-3.894-4.75l-2.065-.618h-5.042v-1h5.136l.496-2h-4.632v-1h4.88l.496-2h-4.376v-1h4.625l.335-1.352c.1-.399.011-.814-.243-1.139-.253-.324-.635-.51-1.046-.51H4.902L1,18.866v1.134h18v-3.632Zm-11-.368c0,1.103-.897,2-2,2s-2-.897-2-2,.897-2,2-2,2,.897,2,2Zm-1,0c0-.552-.448-1-1-1s-1,.448-1,1,.448,1,1,1,1-.448,1-1Z"/>
</svg>
