<?xml version="1.0" encoding="UTF-8"?>
<svg xmlns="http://www.w3.org/2000/svg" id="Layer_1" data-name="Layer 1" viewBox="0 0 24 24" width="512" height="512"><path d="M20.944,8C20.445,3.506,16.624,0,12,0S3.555,3.506,3.056,8H.015l1.844,13.831c.166,1.236,1.23,2.169,2.478,2.169h15.315c1.248,0,2.313-.933,2.478-2.169l1.844-13.831h-3.031ZM12,1c4.073,0,7.444,3.059,7.938,7H4.062c.494-3.941,3.865-7,7.938-7Zm7.684,8l-5.684,5.684-5.684-5.684h11.367Zm1.456,12.698c-.099,.742-.738,1.302-1.487,1.302H4.337c-.749,0-1.388-.56-1.487-1.302L1.158,9H6.902l7.098,7.098,7.098-7.098h1.735l-1.693,12.698Z"/></svg>
