<?xml version="1.0" encoding="UTF-8"?>
<svg xmlns="http://www.w3.org/2000/svg" id="Layer_1" data-name="Layer 1" viewBox="0 0 24 24" width="512" height="512"><path d="M6,18v-4h1v4h-1Zm4-4h-1v4h1v-4Zm2,4h1v-4h-1v4Zm3,0h1v-4h-1v4Zm7.394-.536c.807,.808,.807,2.122,0,2.929-.404,.403-.935,.605-1.465,.605s-1.061-.202-1.464-.605c-.467-.466-1.087-2.206-1.433-3.606-.072-.292,.025-.594,.256-.788,.229-.193,.541-.238,.817-.117l.836,.36c1.461,.624,2.179,.948,2.452,1.221h0Zm-.706,.709c-.199-.182-2.573-1.197-2.573-1.197,.402,1.47,.895,2.545,1.058,2.71,.418,.417,1.097,.417,1.515,0,.417-.417,.417-1.095,0-1.513ZM12,0C5.383,0,0,5.383,0,12s5.383,12,12,12c2.365,0,4.566-.697,6.427-1.883-.127-.1-.26-.193-.376-.309-.086-.085-.204-.206-.35-.418-1.665,1.015-3.612,1.611-5.701,1.611-6.065,0-11-4.935-11-11S5.935,1,12,1s11,4.935,11,11c0,1.111-.169,2.182-.476,3.193,.362,.186,.648,.354,.881,.521,.382-1.171,.595-2.418,.595-3.715C24,5.383,18.617,0,12,0Zm5,10c0-.552-.448-1-1-1s-1,.448-1,1,.448,1,1,1,1-.448,1-1Zm-9-1c-.552,0-1,.448-1,1s.448,1,1,1,1-.448,1-1-.448-1-1-1Z"/></svg>
