<?xml version="1.0" encoding="UTF-8"?>
<svg xmlns="http://www.w3.org/2000/svg" id="Layer_1" data-name="Layer 1" viewBox="0 0 24 24">
  <path d="m12,10c-1.654,0-3,1.346-3,3s1.346,3,3,3,3-1.346,3-3-1.346-3-3-3Zm0,5c-1.103,0-2-.897-2-2s.897-2,2-2,2,.897,2,2-.897,2-2,2ZM14.707,0H4.5c-1.378,0-2.5,1.122-2.5,2.5v21.5h20V7.293L14.707,0Zm.293,1.707l5.293,5.293h-5.293V1.707Zm1,21.293h-8v-2.5c0-.827.673-1.5,1.5-1.5h5c.827,0,1.5.673,1.5,1.5v2.5Zm1,0v-2.5c0-1.378-1.121-2.5-2.5-2.5h-5c-1.378,0-2.5,1.122-2.5,2.5v2.5H3V2.5c0-.827.673-1.5,1.5-1.5h9.5v7h7v15h-4Z"/>
</svg>
