<?xml version="1.0" encoding="UTF-8"?>
<svg xmlns="http://www.w3.org/2000/svg" id="Layer_1" data-name="Layer 1" viewBox="0 0 24 24">
  <path d="m14.572,18.108l.735.735-2.148,3.858c-.436.8-1.277,1.299-2.192,1.299h-3.548l3.039-9h-4.418l-1.233,1.879c-.465.702-1.245,1.121-2.085,1.121H.102l1.997-5.999L.087,6h2.378l1.171,1.171c-.323-.112-.674-.171-.928-.171h-1.231l1.677,4.999-1.665,5.001h1.232c.504,0,.972-.251,1.25-.672l1.528-2.328h4.966l1.036,1.036-2.689,7.964h2.155c.549,0,1.054-.3,1.316-.781l2.289-4.111Zm9.431,5.189l-.707.707L-.003.703.704-.004l9.02,9.02v-.016h.734L7.418,0h3.548c.916,0,1.757.499,2.194,1.303l4.287,7.697h3.418c1.531,0,2.861,1.074,3.093,2.5.143.881-.102,1.771-.673,2.442-.571.672-1.405,1.058-2.286,1.058h-3.552l-.623,1.118,7.179,7.179Zm-12.153-13.297h-1.143l5.382,5.383.77-1.383h4.14c.588,0,1.144-.257,1.524-.705.386-.454.545-1.035.448-1.635-.154-.946-1.06-1.66-2.106-1.66h-4.006L12.285,1.785c-.265-.485-.769-.785-1.318-.785h-2.155l3.039,9Z"/>
</svg>
