<?xml version="1.0" encoding="UTF-8"?>
<svg xmlns="http://www.w3.org/2000/svg" id="Layer_1" data-name="Layer 1" viewBox="0 0 24 24">
  <path d="m14,9.099V2.607c0-1.273-.896-2.38-2.083-2.573-.733-.119-1.476.085-2.035.561-.56.477-.881,1.171-.881,1.905v12.602l-1.796-1.429c-1.005-.94-2.589-.886-3.53.119-.941,1.007-.889,2.593.114,3.532l7.011,6.676h13.2v-12.684l-10-2.218Zm9,13.901h-11.8l-6.725-6.403c-.604-.565-.636-1.517-.07-2.121.563-.604,1.513-.636,2.146-.046l3.449,2.745V2.5c0-.44.193-.857.529-1.144.34-.29.777-.406,1.226-.336.709.116,1.245.798,1.245,1.587v7.294l10,2.218v10.881ZM3,10V1.4L.733,3.668.026,2.961,2.653.333c.485-.484,1.273-.484,1.758,0l2.628,2.628-.707.707-2.332-2.332v8.664h-1Z"/>
</svg>
