<?xml version="1.0" encoding="UTF-8"?>
<svg xmlns="http://www.w3.org/2000/svg" id="Layer_1" data-name="Layer 1" viewBox="0 0 24 24" width="512" height="512"><path d="M21.119,8.595c-.56-.477-1.305-.678-2.035-.562-.639,.104-1.193,.472-1.569,.988-.455-.619-1.189-1.022-2.015-1.022-1.289,0-2.352,.98-2.486,2.234l-.686-1.419,2.519-5.3c.298-.671,.285-1.436-.034-2.098-.318-.662-.915-1.149-1.635-1.337-1.163-.303-2.43,.345-2.938,1.494l-.711,1.459-.695-1.435C8.321,.431,7.06-.22,5.891,.078c-.72,.186-1.317,.671-1.639,1.332-.321,.661-.336,1.426-.035,2.111l2.498,5.286-2.011,4.127-2.029,2.376c-.944,1.106-.879,2.778,.149,3.807l4.884,4.884h14.293V10.5c0-.734-.321-1.429-.881-1.905Zm-7.119,1.905c0-.827,.673-1.5,1.5-1.5s1.5,.673,1.5,1.5v2c0,.827-.673,1.5-1.5,1.5s-1.5-.673-1.5-1.5v-2ZM11.146,1.995c.32-.721,1.083-1.13,1.78-.947,.441,.115,.792,.401,.986,.804,.191,.397,.199,.856,.026,1.246l-4.316,9.082c-.1-.16-.219-.31-.356-.447-.694-.694-1.697-.893-2.579-.589L11.146,1.995Zm-6.019,1.111c-.178-.403-.168-.862,.024-1.259,.196-.403,.547-.687,.989-.801,.693-.179,1.459,.23,1.784,.969l1.046,2.16-1.695,3.478L5.127,3.106Zm2.994,19.894l-4.591-4.591c-.662-.662-.704-1.738-.097-2.45l3.006-3.521c.585-.583,1.535-.582,2.122,.003,.281,.281,.438,.696,.438,1.051s0,0,0,0c0,.003-.156,.785-.469,1.1l-2.278,2.709,.766,.644,2.248-2.677c.417-.415,.668-.952,.723-1.53l1.789-3.764,1.223,2.527c0,1.378,1.121,2.499,2.5,2.499,.817,0,1.544-.394,2-1.002,.456,.608,1.183,1.002,2,1.002,.562,0,1.082-.187,1.5-.501v8.501H8.121Zm11.379-9c-.827,0-1.5-.673-1.5-1.5v-1.893c0-.789,.535-1.471,1.244-1.586,.451-.074,.887,.045,1.228,.336,.336,.286,.528,.703,.528,1.143v2c0,.827-.673,1.5-1.5,1.5Z"/></svg>
