<?xml version="1.0" encoding="UTF-8"?>
<svg xmlns="http://www.w3.org/2000/svg" id="Layer_1" data-name="Layer 1" viewBox="0 0 24 24" width="512" height="512"><path d="M18,18c0,.55-.45,1-1,1s-1-.45-1-1,.45-1,1-1,1,.45,1,1Zm2-3c-.55,0-1,.45-1,1s.45,1,1,1,1-.45,1-1-.45-1-1-1Zm0,4c-.55,0-1,.45-1,1s.45,1,1,1,1-.45,1-1-.45-1-1-1Zm3-2c-.55,0-1,.45-1,1s.45,1,1,1,1-.45,1-1-.45-1-1-1Zm0-2c.55,0,1-.45,1-1s-.45-1-1-1-1,.45-1,1,.45,1,1,1Zm0,6c-.55,0-1,.45-1,1s.45,1,1,1,1-.45,1-1-.45-1-1-1Zm-7-7.5s-.77-1.9-1.14-2.78c-1.07-2.57-2.08-5.01-3.14-6.32C9.11,.92,4.83-.66,.53,.26c-.18,.04-.36,.09-.53,.14V1.46c.25-.07,.49-.16,.74-.22,3.91-.84,7.81,.6,10.19,3.78,.98,1.21,2.01,3.69,3.01,6.09,.35,.85,.71,1.7,1.06,2.5v.39h-2.22l-.95,4.79c-.14,.7-.76,1.21-1.47,1.21h-3.36v3H0v1H8v-3h2.36c1.19,0,2.22-.85,2.45-2.01l.79-3.99h2.4v-1.5Z"/></svg>
