<?xml version="1.0" encoding="UTF-8"?>
<svg xmlns="http://www.w3.org/2000/svg" id="Layer_1" data-name="Layer 1" viewBox="0 0 24 24" width="512" height="512"><path d="M24,24h-1V0h1V24ZM0,23c0,.55,.45,1,1,1s1-.45,1-1-.45-1-1-1S0,22.45,0,23Zm5,0c0,.55,.45,1,1,1s1-.45,1-1-.45-1-1-1-1,.45-1,1Zm0-22c0,.55,.45,1,1,1s1-.45,1-1S6.55,0,6,0s-1,.45-1,1Zm12,22c0,.55,.45,1,1,1s1-.45,1-1-.45-1-1-1-1,.45-1,1Zm0-22c0,.55,.45,1,1,1s1-.45,1-1S18.55,0,18,0s-1,.45-1,1ZM0,1c0,.55,.45,1,1,1s1-.45,1-1S1.55,0,1,0,0,.45,0,1Zm0,5c0,.55,.45,1,1,1s1-.45,1-1-.45-1-1-1S0,5.45,0,6Zm0,6c0,.55,.45,1,1,1s1-.45,1-1c0-.55-.45-1-1-1S0,11.45,0,12Zm0,6c0,.55,.45,1,1,1s1-.45,1-1c0-.55-.45-1-1-1S0,17.45,0,18Zm11,5c0,.55,.45,1,1,1s1-.45,1-1-.45-1-1-1-1,.45-1,1Zm0-22c0,.55,.45,1,1,1s1-.45,1-1S12.55,0,12,0s-1,.45-1,1Zm0,5c0,.55,.45,1,1,1s1-.45,1-1-.45-1-1-1-1,.45-1,1Zm0,6c0,.55,.45,1,1,1s1-.45,1-1c0-.55-.45-1-1-1s-1,.45-1,1Zm0,6c0,.55,.45,1,1,1s1-.45,1-1c0-.55-.45-1-1-1s-1,.45-1,1Zm7-7c-.55,0-1,.45-1,1,0,.55,.45,1,1,1s1-.45,1-1c0-.55-.45-1-1-1Zm-12,0c-.55,0-1,.45-1,1,0,.55,.45,1,1,1s1-.45,1-1c0-.55-.45-1-1-1Z"/></svg>
