<?xml version="1.0" encoding="UTF-8"?>
<svg xmlns="http://www.w3.org/2000/svg" id="Layer_1" data-name="Layer 1" viewBox="0 0 24 24" width="512" height="512"><path d="M20,22c-.757,0-1.479,.271-2.176,.532-.642,.241-1.248,.468-1.824,.468s-1.183-.228-1.824-.468c-.697-.261-1.418-.532-2.176-.532s-1.479,.271-2.176,.532c-.642,.241-1.248,.468-1.824,.468-.1,0-.2-.007-.302-.02l5.044-10.78,10.067,4.459,.202-.457c1.244-2.809,1.32-5.934,.214-8.799s-3.262-5.129-6.071-6.373C14.346-.214,11.221-.289,8.355,.817,5.49,1.923,3.227,4.079,1.982,6.888l-.203,.458,10.048,4.451-5.111,10.922,.094,.044c-.208-.07-.42-.149-.635-.23-.697-.261-1.418-.532-2.176-.532s-1.479,.271-2.176,.532c-.642,.241-1.248,.468-1.824,.468v1c.757,0,1.479-.271,2.176-.532,.642-.241,1.248-.468,1.824-.468s1.183,.228,1.824,.468c.697,.261,1.418,.532,2.176,.532s1.479-.271,2.176-.532c.642-.241,1.248-.468,1.824-.468s1.183,.228,1.824,.468c.697,.261,1.418,.532,2.176,.532s1.479-.271,2.176-.532c.642-.241,1.248-.468,1.824-.468s1.183,.228,1.824,.468c.697,.261,1.418,.532,2.176,.532v-1c-.576,0-1.183-.228-1.824-.468-.697-.261-1.418-.532-2.176-.532ZM8.715,1.75c2.618-1.01,5.47-.94,8.034,.195,2.564,1.136,4.533,3.202,5.543,5.819,.95,2.46,.945,5.13-.003,7.572L3.11,6.84c1.171-2.343,3.145-4.141,5.605-5.09Z"/></svg>
