<?xml version="1.0" encoding="UTF-8"?>
<svg xmlns="http://www.w3.org/2000/svg" id="Layer_1" data-name="Layer 1" width="512" height="512" viewBox="0 0 24 24"><path d="M16.975,8c.009-.167,.025-.331,.025-.5s-.017-.333-.025-.5h3.525c1.378,0,2.5-1.121,2.5-2.5s-1.122-2.5-2.5-2.5-2.5,1.121-2.5,2.5h-1c0-1.93,1.57-3.5,3.5-3.5s3.5,1.57,3.5,3.5-1.57,3.5-3.5,3.5h-3.525ZM.815,8.489l-.26,.965,2.441,.656-.657,2.441,.966,.26,.733-2.723,2.962-1.706v3.418l-1.994,1.994,.707,.707,1.787-1.787,1.787,1.787,.707-.707-1.994-1.994v-3.417l2.961,1.707,.732,2.724,.966-.26-.656-2.44,2.441-.657-.26-.965-2.723,.732-2.96-1.706,2.981-1.718,2.689,.723,.26-.965-2.407-.647,.647-2.407-.966-.26-.724,2.689-2.983,1.719V3.209l1.97-1.97-.707-.707-1.763,1.763-1.763-1.763-.707,.707,1.97,1.97v3.442l-2.983-1.719-.723-2.69-.966,.26,.647,2.407-2.407,.647,.26,.965,2.69-.722,2.98,1.717-2.959,1.705-2.723-.732Zm10.685,8.511H0v1H11.5c1.378,0,2.5,1.121,2.5,2.5s-1.122,2.5-2.5,2.5-2.5-1.121-2.5-2.5h-1c0,1.93,1.57,3.5,3.5,3.5s3.5-1.57,3.5-3.5-1.57-3.5-3.5-3.5Zm9-6h-4.174c-.136,.343-.285,.678-.459,1h4.633c1.378,0,2.5,1.121,2.5,2.5s-1.122,2.5-2.5,2.5-2.5-1.121-2.5-2.5h-1c0,1.93,1.57,3.5,3.5,3.5s3.5-1.57,3.5-3.5-1.57-3.5-3.5-3.5Z"/></svg>
