<?xml version="1.0" encoding="UTF-8"?>
<svg xmlns="http://www.w3.org/2000/svg" id="Layer_1" data-name="Layer 1" viewBox="0 0 24 24">
  <path d="m21.5,2h-3.5V0h-1v2H7V0h-1v2h-3.5c-1.378,0-2.5,1.121-2.5,2.5v19.5h9v-1H1v-14h22v5h1V4.5c0-1.379-1.122-2.5-2.5-2.5ZM1,8v-3.5c0-.827.673-1.5,1.5-1.5h19c.827,0,1.5.673,1.5,1.5v3.5H1Zm22,8h1v8h-1v-8Zm-12,0h4v1h-3v3h3v1h-3v3h-1v-8Zm10.738,2.5c0-1.379-1.122-2.5-2.5-2.5h-2.5v8h1v-3h1.5c.101,0,.197-.018.295-.03l.922,3.03h1.046l-1.018-3.345c.747-.433,1.256-1.232,1.256-2.155Zm-2.5,1.5h-1.5v-3h1.5c.827,0,1.5.673,1.5,1.5s-.673,1.5-1.5,1.5Z"/>
</svg>
