<?xml version="1.0" encoding="UTF-8"?>
<svg xmlns="http://www.w3.org/2000/svg" id="Layer_1" data-name="Layer 1" viewBox="0 0 24 24" width="512" height="512"><path d="M23.045,10.604c-.59-.493-1.354-.697-2.1-.562l-6.46,1.174c-1.073,.195-1.964,.849-2.485,1.736-.521-.888-1.413-1.541-2.486-1.736l-6.46-1.175c-.758-.139-1.532,.065-2.123,.56-.592,.494-.931,1.219-.931,1.989v9.235l12,2.182,12-2.182V12.637c0-.785-.348-1.526-.955-2.033Zm-11.545,12.296l-10.5-1.909V12.591c0-.473,.208-.918,.572-1.221,.363-.303,.838-.429,1.304-.344l6.46,1.175c1.254,.228,2.165,1.318,2.165,2.593v8.106Zm11.5-1.909l-10.5,1.909V14.794c0-1.275,.91-2.366,2.165-2.594l6.46-1.175c.448-.081,.917,.044,1.279,.347,.379,.316,.596,.777,.596,1.265v8.354ZM12,10c2.757,0,5-2.243,5-5S14.757,0,12,0,7,2.243,7,5s2.243,5,5,5Zm0-9c2.206,0,4,1.794,4,4s-1.794,4-4,4-4-1.794-4-4S9.794,1,12,1Z"/></svg>
