<?xml version="1.0" encoding="UTF-8"?>
<svg xmlns="http://www.w3.org/2000/svg" id="Layer_1" data-name="Layer 1" viewBox="0 0 24 24" width="512" height="512"><path d="M19,16c0,.552-.448,1-1,1s-1-.448-1-1,.448-1,1-1,1,.448,1,1Zm-3,2c-.552,0-1,.448-1,1s.448,1,1,1,1-.448,1-1-.448-1-1-1Zm3,1c0,.552,.448,1,1,1s1-.448,1-1-.448-1-1-1-1,.448-1,1Zm4.075-7.587c.593,1.239,.925,2.625,.925,4.087v5c0,1.378-1.121,2.5-2.5,2.5H3c-1.654,0-3-1.346-3-3v-4.5c0-2.761,1.191-5.242,3.077-6.98,.052,.402,.126,.803,.217,1.189-1.419,1.52-2.295,3.552-2.295,5.79v4.5c0,1.103,.897,2,2,2s2-.897,2-2v-4.5c0-1.462,.332-2.848,.925-4.087-.272-.693-.925-2.506-.925-3.913,0-1.817,1.392-3.315,3.166-3.484,.513-1.475,2.207-2.377,3.751-1.866,.66-.726,1.6-1.149,2.583-1.149s1.923,.423,2.583,1.149c1.55-.511,3.245,.396,3.754,1.875,1.794,.185,3.163,1.673,3.163,3.476,0,1.407-.654,3.22-.925,3.913Zm-16.5-1.144c1.702-2.57,4.619-4.269,7.926-4.269s6.224,1.699,7.926,4.269c.267-.794,.574-1.897,.574-2.769,0-1.378-1.121-2.5-2.5-2.5h-.409l-.131-.397c-.243-1.211-1.619-1.972-2.816-1.402l-.377,.18-.244-.338c-.479-.663-1.216-1.043-2.022-1.043s-1.544,.38-2.022,1.043l-.244,.338-.376-.18c-1.199-.571-2.573,.19-2.817,1.402l-.081,.401-.51-.008c-1.328,.003-2.449,1.125-2.449,2.503,0,.872,.307,1.975,.574,2.769Zm16.426,5.231c0-4.687-3.813-8.5-8.5-8.5S6,10.813,6,15.5v4.5c0,.768-.29,1.469-.766,2H21.5c.827,0,1.5-.673,1.5-1.5v-5Z"/></svg>
