<?xml version="1.0" encoding="UTF-8"?>
<svg xmlns="http://www.w3.org/2000/svg" id="Layer_1" data-name="Layer 1" viewBox="0 0 24 24">
  <path d="m12,10c1.379,0,2.5-1.121,2.5-2.5s-1.121-2.5-2.5-2.5-2.5,1.121-2.5,2.5,1.122,2.5,2.5,2.5Zm0-4c.827,0,1.5.673,1.5,1.5s-.673,1.5-1.5,1.5-1.5-.673-1.5-1.5.673-1.5,1.5-1.5Zm6.5-1c1.379,0,2.5-1.121,2.5-2.5s-1.121-2.5-2.5-2.5-2.5,1.121-2.5,2.5,1.121,2.5,2.5,2.5Zm0-4c.827,0,1.5.673,1.5,1.5s-.673,1.5-1.5,1.5-1.5-.673-1.5-1.5.673-1.5,1.5-1.5Zm5.466,19h-2.966v4h-1v-4h-2v-1h4.768l-1.96-10.769c-.13-.714-.75-1.231-1.476-1.231h-1.661c-.483,0-.905.243-1.181.607,0-.036.011-.07.011-.107,0-.387-.064-.755-.155-1.113.387-.243.84-.387,1.325-.387h1.661c1.209,0,2.243.863,2.459,2.052l2.175,11.948ZM5.5,5c1.378,0,2.5-1.121,2.5-2.5S6.878,0,5.5,0s-2.5,1.121-2.5,2.5,1.122,2.5,2.5,2.5Zm0-4c.827,0,1.5.673,1.5,1.5s-.673,1.5-1.5,1.5-1.5-.673-1.5-1.5.673-1.5,1.5-1.5Zm8,10h-3c-1.378,0-2.5,1.121-2.5,2.5v6.5h2v4h1v-4h2v4h1v-4h2v-6.5c0-1.379-1.121-2.5-2.5-2.5Zm1.5,8h-6v-5.5c0-.827.673-1.5,1.5-1.5h3c.827,0,1.5.673,1.5,1.5v5.5ZM7.655,6.387c-.092.358-.155.727-.155,1.113,0,.037.01.07.011.107-.276-.364-.698-.607-1.181-.607h-1.661c-.726,0-1.346.518-1.476,1.231l-1.96,10.769h4.768v1h-2v4h-1v-4H.034l2.175-11.948c.216-1.188,1.25-2.052,2.459-2.052h1.661c.485,0,.938.144,1.325.387Z"/>
</svg>
