<?xml version="1.0" encoding="UTF-8"?>
<svg xmlns="http://www.w3.org/2000/svg" id="Layer_1" data-name="Layer 1" viewBox="0 0 24 24">
  <path d="m9,12c3.309,0,6-2.691,6-6S12.309,0,9,0,3,2.691,3,6s2.691,6,6,6Zm0-11c2.757,0,5,2.243,5,5s-2.243,5-5,5-5-2.243-5-5S6.243,1,9,1Zm-4.5,13h6.056c-.181.31-.322.644-.414,1h-5.642c-1.93,0-3.5,1.57-3.5,3.5v5.5H0v-5.5c0-2.481,2.019-4.5,4.5-4.5Zm17.5,0h-1v-.5c0-.827-.673-1.5-1.5-1.5h-3c-.827,0-1.5.673-1.5,1.5v.5h-1c-1.103,0-2,.897-2,2v8h12v-8c0-1.103-.897-2-2-2Zm-6-.5c0-.276.224-.5.5-.5h3c.276,0,.5.224.5.5v.5h-4v-.5Zm-2,1.5h8c.551,0,1,.449,1,1v2h-10v-2c0-.551.449-1,1-1Zm-1,8v-4h4.5v2h1v-2h4.5v4h-10Z"/>
</svg>
