<?xml version="1.0" encoding="UTF-8"?>
<svg xmlns="http://www.w3.org/2000/svg" id="Layer_1" data-name="Layer 1" viewBox="0 0 24 24">
  <path d="m23.52,7.296c-.937-.96-1.937-1.983-3.657-2.757,1.27-.671,2.137-2.006,2.137-3.539v-.5h-1v.5c0,1.654-1.346,3-3,3s-3-1.346-3-3V0h-1v1c0,1.194.526,2.266,1.357,3h-2.357c-1.654,0-3-1.346-3-3V0h-1v1c0,2.206,1.794,4,4,4h2.372c-1.349,1.201-1.372,3.059-1.372,3.086v1.914H5.394c-1.127,0-2.157.528-2.837,1.339l-.002-.002L-.121,14.378l.75.66,1.099-1.248c.035,1.28.406,2.138.766,2.969.178.409.36.832.507,1.314v5.927h5v-5h5v5h5v-5.801c.493-.548,2-2.454,2-5.3v-2.458l2.538-.317c.833-.104,1.462-.816,1.462-1.657,0-.437-.17-.852-.48-1.171Zm-1.106,1.835l-3.413.427v3.34c0,2.895-1.831,4.725-1.85,4.744l-.15.147v5.21h-3v-5h-7v5h-3v-5s-.392-1.182-.589-1.639c-.372-.858-.692-1.6-.687-2.801.003-.567.239-1.134.579-1.564.494-.602,1.255-.997,2.09-.997h9.606v-2.914c0-.125.038-3.04,3.288-3.086,2.357.785,3.414,1.866,4.516,2.994.125.128.196.3.196.473,0,.337-.252.623-.587.665Z"/>
</svg>
