<?xml version="1.0" encoding="UTF-8"?>
<svg xmlns="http://www.w3.org/2000/svg" id="Layer_1" data-name="Layer 1" viewBox="0 0 24 24">
  <path d="m9,0H2v7h7V0Zm-1,6H3V1h5v5Zm1,3H2v7h7v-7Zm-1,6H3v-5h5v5ZM18,0h-7v7h7V0Zm-1,6h-5V1h5v5Zm-1-4h-3v3h3v-3Zm-1,2h-1v-1h1v1Zm9,16.115v3.885h-1v-3.191l-8-3v-6.201c0-.789-.535-1.471-1.244-1.587-.45-.07-.886.046-1.227.336-.337.286-.529.703-.529,1.144v10.834s-3.435-2.891-3.479-2.932c-.606-.562-1.554-.53-2.115.072-.565.604-.534,1.557.064,2.118l2.535,2.407h-1.44l-1.783-1.684c-1-.937-1.048-2.518-.106-3.524.928-.995,2.484-1.054,3.492-.148l1.834,1.523v-8.666c0-.734.321-1.429.881-1.905.561-.476,1.307-.68,2.035-.561,1.188.193,2.084,1.3,2.084,2.573v5.508l8,3Z"/>
</svg>
