<?xml version="1.0" encoding="UTF-8"?>
<svg xmlns="http://www.w3.org/2000/svg" id="Layer_1" data-name="Layer 1" viewBox="0 0 24 24" width="512" height="512"><path d="m17.528,13.837l5.679,5.679-2.879,2.879c-1.032,1.035-2.432,1.605-3.941,1.605-2.72,0-6.027-1.447-9.022-3.848l.71-.71c2.794,2.221,5.835,3.557,8.313,3.557,1.242,0,2.39-.466,3.233-1.312l2.173-2.172-4.265-4.265-3.13,3.131-.303-.116c-1.154-.44-2.204-1.01-3.167-1.677l.711-.711c.772.519,1.608.969,2.512,1.336l3.376-3.377ZM23.943.764L.764,23.943l-.707-.707,5.087-5.087C1.916,14.815,0,10.905,0,7.613,0,6.104.57,4.705,1.605,3.672L4.484.793l5.679,5.679-3.373,3.373c.667,1.571,1.531,2.941,2.574,4.084L23.236.057l.707.707ZM5.851,17.442l2.806-2.806c-1.204-1.311-2.186-2.896-2.919-4.723l-.123-.307,3.135-3.135L4.484,2.207l-2.172,2.172c-.846.844-1.312,1.993-1.312,3.234,0,3.034,1.805,6.68,4.85,9.829Z"/></svg>
