<?xml version="1.0" encoding="UTF-8"?>
<svg xmlns="http://www.w3.org/2000/svg" id="Layer_1" data-name="Layer 1" viewBox="0 0 24 24" width="512" height="512"><path d="m15.791,12c3.495-2.927,5.247-6.123,5.209-9.505-.015-1.364-1.137-2.473-2.501-2.473l-13.002.004C4.136.026,3.016,1.133,3,2.494c-.039,3.396,1.712,6.591,5.207,9.506-3.456,2.882-5.207,6.045-5.207,9.409v2.591h18v-2.591c0-3.351-1.752-6.514-5.209-9.409Zm4.209,11H4v-1.591c0-3.196,1.787-6.229,5.31-9.017l.496-.392-.496-.392c-3.561-2.817-5.347-5.879-5.31-9.102.009-.816.681-1.48,1.496-1.48l13.002-.004c.819,0,1.492.666,1.501,1.484.036,3.21-1.751,6.272-5.311,9.103l-.492.392.492.392c3.524,2.802,5.311,5.835,5.311,9.018v1.591Zm-2.574-19.401l.091-.578H6.64l.093.579c.529,3.308,3.413,5.64,5.085,6.736l.273.18.274-.179c1.665-1.087,4.537-3.408,5.061-6.738Zm-5.333,5.718c-1.445-.992-3.596-2.828-4.25-5.296h8.475c-.646,2.484-2.787,4.312-4.225,5.296Z"/></svg>
