<?xml version="1.0" encoding="UTF-8"?>
<svg xmlns="http://www.w3.org/2000/svg" id="Layer_1" data-name="Layer 1" viewBox="0 0 24 24">
  <path d="m22.065,1.935C20.729.599,18.911-.089,16.928.008c-1.958.094-3.834.942-5.281,2.39-.932.932-1.631,2.07-2.023,3.293-.606,1.894-2.04,3.327-3.933,3.933-1.224.392-2.362,1.092-3.293,2.023C.95,13.094.102,14.969.008,16.928c-.094,1.978.59,3.802,1.926,5.138,1.255,1.255,2.941,1.936,4.779,1.936.119,0,.238-.003.358-.009,1.958-.094,3.834-.941,5.281-2.389.932-.933,1.632-2.071,2.023-3.294.606-1.894,2.04-3.327,3.933-3.933,1.224-.392,2.362-1.092,3.293-2.023,1.447-1.447,2.295-3.322,2.389-5.281.094-1.978-.59-3.802-1.926-5.138Zm.927,5.09c-.082,1.71-.826,3.352-2.097,4.622-.819.819-1.819,1.435-2.891,1.777-2.205.706-3.875,2.376-4.581,4.581-.343,1.071-.958,2.071-1.778,2.892-1.271,1.271-2.912,2.016-4.622,2.097-1.692.073-3.249-.5-4.383-1.635s-1.715-2.69-1.634-4.383c.082-1.71.826-3.352,2.097-4.622.819-.819,1.819-1.435,2.891-1.777,2.205-.706,3.875-2.376,4.581-4.581.343-1.071.958-2.071,1.778-2.891,1.271-1.271,2.912-2.016,4.622-2.098.104-.005.207-.007.309-.007,1.572,0,3.009.576,4.074,1.642,1.134,1.135,1.715,2.69,1.634,4.383Zm-11.993,8.976c0,.552-.448,1-1,1s-1-.448-1-1,.448-1,1-1,1,.448,1,1Zm-3,3c0,.552-.448,1-1,1s-1-.448-1-1,.448-1,1-1,1,.448,1,1Zm10-14c0,.552-.448,1-1,1s-1-.448-1-1,.448-1,1-1,1,.448,1,1Z"/>
</svg>
