<?xml version="1.0" encoding="UTF-8"?>
<svg xmlns="http://www.w3.org/2000/svg" id="Layer_1" data-name="Layer 1" viewBox="0 0 24 24" width="512" height="512"><path d="M21.5,3H2.5c-1.379,0-2.5,1.121-2.5,2.5v3c0,1.379,1.121,2.5,2.5,2.5H21.5c1.379,0,2.5-1.121,2.5-2.5v-3c0-1.379-1.121-2.5-2.5-2.5ZM1,8.5v-3c0-.827,.673-1.5,1.5-1.5H14v6H2.5c-.827,0-1.5-.673-1.5-1.5Zm22,0c0,.827-.673,1.5-1.5,1.5h-6.5V4h6.5c.827,0,1.5,.673,1.5,1.5v3Zm-1.5,4.5H2.5c-1.379,0-2.5,1.121-2.5,2.5v3c0,1.379,1.121,2.5,2.5,2.5H21.5c1.379,0,2.5-1.121,2.5-2.5v-3c0-1.379-1.121-2.5-2.5-2.5ZM1,18.5v-3c0-.827,.673-1.5,1.5-1.5h5.5v6H2.5c-.827,0-1.5-.673-1.5-1.5Zm22,0c0,.827-.673,1.5-1.5,1.5H9v-6h12.5c.827,0,1.5,.673,1.5,1.5v3Z"/></svg>
