<?xml version="1.0" encoding="UTF-8"?>
<svg xmlns="http://www.w3.org/2000/svg" id="Layer_1" data-name="Layer 1" viewBox="0 0 24 24">
  <path d="m12,5c1.379,0,2.5-1.122,2.5-2.5s-1.121-2.5-2.5-2.5-2.5,1.122-2.5,2.5,1.121,2.5,2.5,2.5Zm0-4c.827,0,1.5.673,1.5,1.5s-.673,1.5-1.5,1.5-1.5-.673-1.5-1.5.673-1.5,1.5-1.5Zm12,4.5v13.231c0,.618-.229,1.214-.645,1.676l-3.197,3.593h-1.344l3.799-4.263c.25-.277.387-.635.387-1.006V5.5c0-.827-.673-1.5-1.5-1.5s-1.5.673-1.5,1.5v9h-.007c0,.57-.19,1.14-.577,1.601l-3.099,3.206-.719-.695,3.075-3.179c.225-.268.333-.612.326-.957v-.01c-.01-.346-.136-.693-.382-.967-.267-.297-.634-.474-1.032-.496-.395-.015-.782.113-1.08.38l-3.858,3.55c.221.379.352.808.352,1.254v5.814h-1v-5.814c0-.418-.177-.821-.484-1.104l-4.026-3.704c-.292-.263-.675-.391-1.075-.375-.398.022-.766.198-1.032.496-.494.551-.508,1.394-.032,1.96l3.052,3.153-.719.695-3.075-3.179c-.399-.474-.595-1.053-.597-1.627h-.01V5.5c0-.827-.673-1.5-1.5-1.5s-1.5.673-1.5,1.5v13.231c0,.371.137.729.387,1.006l3.799,4.263h-1.344l-3.197-3.593c-.416-.462-.645-1.058-.645-1.676V5.5c0-1.378,1.121-2.5,2.5-2.5s2.5,1.122,2.5,2.5v6.999c.931-.7,2.26-.669,3.162.137l3.838,3.531,3.833-3.527c.502-.45,1.142-.681,1.808-.637.5.027.969.199,1.359.494v-6.997c0-1.378,1.121-2.5,2.5-2.5s2.5,1.122,2.5,2.5Zm-15,5.286c-.318-.214-.65-.398-1-.522v-1.764c0-1.378,1.121-2.5,2.5-2.5h3c1.379,0,2.5,1.122,2.5,2.5v1.769c-.35.124-.681.306-1,.52v-2.289c0-.828-.672-1.5-1.5-1.5h-3c-.828,0-1.5.672-1.5,1.5v2.286Z"/>
</svg>
