<?xml version="1.0" encoding="UTF-8"?>
<svg xmlns="http://www.w3.org/2000/svg" id="Layer_1" data-name="Layer 1" viewBox="0 0 24 24">
  <path d="m20,12h-1c0-3.859-3.14-7-7-7v-1c4.411,0,8,3.589,8,8Zm-5,0h1c0-2.206-1.794-4-4-4v1c1.654,0,3,1.346,3,3ZM12,0v1c6.065,0,11,4.935,11,11h1C24,5.383,18.617,0,12,0Zm-1.713,14.42l6.42,6.42-.354.354c-1.868,1.867-4.321,2.802-6.774,2.802s-4.906-.935-6.774-2.802c-3.735-3.735-3.735-9.812,0-13.548l.354-.354,6.42,6.42,2.067-2.067.707.707-2.067,2.067Zm4.996,6.411L3.169,8.718c-2.998,3.364-2.883,8.543.343,11.77,3.228,3.228,8.405,3.34,11.77.344Z"/>
</svg>
