<?xml version="1.0" encoding="UTF-8"?>
<svg xmlns="http://www.w3.org/2000/svg" id="Layer_1" data-name="Layer 1" viewBox="0 0 24 24">
  <path d="m18.67,13l-6.17-4.746V0h-1v8.254l-6.17,4.746H0v11h1v-10h4.33l6.67,5.131,6.67-5.131h4.33v10h1v-11h-5.33Zm-6.67,4.869l-5.68-4.369,5.68-4.369,5.68,4.369-5.68,4.369Zm5.031-8.607l2.762-2.762-2.762-2.762.707-.707,2.762,2.762,2.762-2.762.707.707-2.762,2.762,2.762,2.762-.707.707-2.762-2.762-2.762,2.762-.707-.707Zm-13.755.246L.031,6.264l.707-.707,2.538,2.537L7.704,3.666l.707.707-5.135,5.135Z"/>
</svg>
