<?xml version="1.0" encoding="UTF-8"?>
<svg xmlns="http://www.w3.org/2000/svg" id="Layer_1" data-name="Layer 1" viewBox="0 0 24 24" width="512" height="512"><path d="m21.5,4h-3.5v-1.5c0-1.379-1.122-2.5-2.5-2.5H2.5C1.122,0,0,1.121,0,2.5v15.854c0,.608.333,1.166.87,1.453.245.131.512.195.779.195.319,0,.637-.093.913-.276l3.438-2.292v3.566h11.349l4.089,2.727c.276.184.594.276.913.276.267,0,.534-.064.779-.195.537-.287.87-.845.87-1.453V6.5c0-1.379-1.122-2.5-2.5-2.5ZM2.007,18.895c-.201.136-.45.147-.665.031-.214-.114-.342-.328-.342-.571V2.5c0-.827.673-1.5,1.5-1.5h13c.827,0,1.5.673,1.5,1.5v13.5H6.349l-4.341,2.895Zm20.993,3.46c0,.243-.128.457-.342.571-.215.115-.462.104-.665-.031l-4.341-2.895H7v-3h11V5h3.5c.827,0,1.5.673,1.5,1.5v15.854Z"/></svg>
