<?xml version="1.0" encoding="UTF-8"?>
<svg xmlns="http://www.w3.org/2000/svg" id="Layer_1" data-name="Layer 1" viewBox="0 0 24 24" width="512" height="512"><path d="M2.677,11.546l18.052,8.614,1.054-2.408c.28-.639,.295-1.349,.041-1.999-.253-.646-.741-1.156-1.376-1.437l-3.382-1.652-1.501-8.96c-.082-.953-.678-1.783-1.557-2.168L11,.24V9.702l-3.829-1.87-1.343-3.569c-.189-.485-.572-.884-1.051-1.094-.656-.287-1.391-.205-1.967,.217-.576,.422-.875,1.099-.799,1.808l.665,6.352ZM12,1.76l1.609,.693c.541,.237,.908,.749,.964,1.376l1.388,8.295-3.961-1.935V1.76ZM3.401,4.192c.286-.21,.651-.249,.975-.108,.237,.104,.427,.301,.519,.536l1.479,3.935,13.663,6.673c.395,.173,.697,.489,.854,.89,.156,.401,.147,.838-.025,1.233l-.64,1.461L3.612,10.885l-.606-5.796c-.037-.352,.11-.687,.396-.896ZM24,23.013v1H0v-1H24Z"/></svg>
