<?xml version="1.0" encoding="UTF-8"?>
<svg xmlns="http://www.w3.org/2000/svg" id="Layer_1" data-name="Layer 1" viewBox="0 0 24 24" width="512" height="512"><path d="M24,24H12C5.383,24,0,18.617,0,12S5.383,0,12,0s12,5.383,12,12v12ZM12,1C5.935,1,1,5.935,1,12s4.935,11,11,11h11V12c0-6.065-4.935-11-11-11Zm4.108,12.71l.347,.384c.519,.575,1.285,.906,2.101,.906,.992,0,1.823-.632,1.978-1.502,.116-.651-.183-1.504-1.371-1.945-.468-.174-.906-.358-1.141-.456-.071-.029-.198-.084-.198-.084-.144-.097-.214-.256-.19-.438,.016-.108,.093-.369,.464-.481,.759-.234,1.445,.33,1.451,.335l.392,.33,.664-.793-.395-.334c-.011-.01-1.108-.931-2.409-.531-.643,.194-1.099,.701-1.188,1.325-.085,.603,.186,1.153,.743,1.511h0s.695,.309,1.451,.59c.187,.069,.793,.331,.712,.788-.057,.319-.432,.648-.962,.648-.518,0-1.019-.212-1.338-.565l-.347-.384-.764,.697Zm-12.962,0l.347,.384c.519,.575,1.285,.906,2.101,.906,.992,0,1.823-.632,1.978-1.502,.116-.651-.183-1.504-1.371-1.945-.468-.174-.906-.358-1.141-.456-.071-.029-.198-.084-.198-.084-.144-.097-.214-.256-.19-.438,.016-.108,.093-.369,.464-.481,.759-.234,1.445,.33,1.451,.335l.392,.33,.664-.793-.395-.334c-.011-.01-1.108-.931-2.409-.531-.643,.194-1.099,.701-1.188,1.325-.085,.603,.186,1.153,.743,1.511h0s.695,.309,1.451,.59c.187,.069,.793,.331,.712,.788-.057,.319-.432,.648-.962,.648-.518,0-1.019-.212-1.338-.565l-.347-.384-.764,.697Zm11.854-4.71h-1l-2,2.5-2-2.5h-1v6h1l.002-4.267,1.998,2.344,2-2.343v4.266h.997l.003-6Z"/></svg>
