<?xml version="1.0" encoding="UTF-8"?>
<svg xmlns="http://www.w3.org/2000/svg" id="Layer_1" data-name="Layer 1" viewBox="0 0 24 24" width="512" height="512"><path d="m2.552,7.121l-.715-.698,2.365-2.423h.798v11h-1V5.639l-1.448,1.482Zm13.448.379V3.5c0-1.93,1.57-3.5,3.5-3.5s3.5,1.57,3.5,3.5v4c0,1.93-1.57,3.5-3.5,3.5s-3.5-1.57-3.5-3.5Zm1,0c0,1.378,1.121,2.5,2.5,2.5s2.5-1.122,2.5-2.5V3.5c0-1.378-1.121-2.5-2.5-2.5s-2.5,1.122-2.5,2.5v4Zm-10,2v-4c0-1.93,1.57-3.5,3.5-3.5s3.5,1.57,3.5,3.5v4c0,1.93-1.57,3.5-3.5,3.5s-3.5-1.57-3.5-3.5Zm1,0c0,1.378,1.121,2.5,2.5,2.5s2.5-1.122,2.5-2.5v-4c0-1.378-1.121-2.5-2.5-2.5s-2.5,1.122-2.5,2.5v4Zm15.645,4.468L.145,19.05l.211.978,23.5-5.082-.211-.978Zm.035,5.575l-14.794,3.471.229.974,14.794-3.471-.229-.974Z"/></svg>
