<?xml version="1.0" encoding="UTF-8"?>
<svg xmlns="http://www.w3.org/2000/svg" id="Layer_1" data-name="Layer 1" viewBox="0 0 24 24" width="512" height="512"><path d="M23.693,.882l.116-.692-.692,.116c-.505,.085-4.97,.862-6.147,2.04-.354,.354-.581,.897-.724,1.499-.707-1.319-1.68-2.63-1.846-2.85l-.399-.532-.399,.532c-.258,.342-2.447,3.294-2.593,4.849-.3-.436-.534-.751-.608-.849l-.399-.532-.399,.532c-.258,.342-2.447,3.294-2.593,4.849-.3-.436-.534-.751-.608-.849l-.399-.532-.399,.532c-.267,.354-2.601,3.501-2.601,5.005,0,1.248,1.318,3.533,1.865,4.428L.026,23.267l.707,.707,4.839-4.839c.894,.547,3.18,1.865,4.427,1.865,1.505,0,4.651-2.334,5.006-2.601l.531-.399-.531-.399c-.099-.074-.414-.309-.85-.608,1.556-.146,4.507-2.336,4.85-2.593l.531-.399-.531-.399c-.099-.074-.414-.309-.85-.608,1.556-.146,4.507-2.336,4.85-2.593l.531-.399-.531-.399c-.221-.166-1.532-1.139-2.852-1.846,.602-.143,1.145-.37,1.499-.724,1.178-1.178,1.955-5.642,2.04-6.147Zm-9.693,1.263c.898,1.275,2,3.09,2,3.854,0,.624-.229,1.288-.681,1.974l-1.726,1.726c-.717-1.203-1.594-2.925-1.594-3.7,0-.764,1.102-2.58,2-3.854Zm-4,4c.898,1.275,2,3.09,2,3.854,0,.624-.229,1.288-.68,1.974l-1.726,1.726c-.717-1.203-1.594-2.925-1.594-3.7,0-.764,1.102-2.58,2-3.854Zm-6,7.854c0-.764,1.102-2.58,2-3.854,.898,1.275,2,3.09,2,3.854,0,.624-.229,1.288-.68,1.973l-1.726,1.726c-.717-1.203-1.594-2.925-1.594-3.699Zm6,6c-.775,0-2.497-.876-3.699-1.593l1.724-1.723c.685-.453,1.349-.683,1.976-.683,.765,0,2.58,1.102,3.854,2-1.274,.898-3.09,2-3.854,2Zm4-4c-.775,0-2.497-.876-3.699-1.593l1.724-1.724c.684-.453,1.349-.683,1.976-.683,.765,0,2.58,1.102,3.854,2-1.274,.898-3.09,2-3.854,2Zm4-4c-.775,0-2.496-.876-3.699-1.593l1.724-1.724c.684-.453,1.349-.683,1.975-.683,.765,0,2.58,1.102,3.854,2-1.274,.898-3.09,2-3.854,2Zm-.957-5.043c-.079-1.339,.023-3.292,.634-3.904,.63-.63,3.1-1.28,4.902-1.632-.353,1.802-1.002,4.271-1.633,4.901-.609,.611-2.563,.716-3.903,.634Z"/></svg>
