<?xml version="1.0" encoding="UTF-8"?>
<svg xmlns="http://www.w3.org/2000/svg" id="Layer_1" data-name="Layer 1" viewBox="0 0 24 24">
  <path d="m23,22.293V7.5c0-1.379-1.121-2.5-2.5-2.5h-2.782l-2.726-4h-5.984l-2.726,4h-.575L.703-.004-.004.703l23.301,23.301.707-.707-1.004-1.004Zm-7.166-7.166l-4.961-4.961c.357-.107.735-.166,1.127-.166,2.209,0,4,1.791,4,4,0,.392-.059.77-.166,1.127ZM9.537,2h4.926l2.045,3H7.492l2.045-3Zm10.963,4c.827,0,1.5.673,1.5,1.5v13.793l-5.454-5.454.09.036c.242-.596.364-1.228.364-1.875,0-2.757-2.243-5-5-5-.647,0-1.279.122-1.875.364l.036.09-3.454-3.454h13.793Zm-12.213,6.53c-.181.456-.287.95-.287,1.47,0,2.209,1.791,4,4,4,.52,0,1.014-.107,1.47-.287l.764.764c-.678.337-1.439.523-2.235.523-2.757,0-5-2.243-5-5,0-.796.186-1.556.523-2.235l.764.764Zm10.177,9.47l1,1H1V7.5c0-.808.391-1.52.988-1.977l.713.713c-.42.266-.7.732-.7,1.264v14.5h16.465Z"/>
</svg>
