<?xml version="1.0" encoding="UTF-8"?>
<svg xmlns="http://www.w3.org/2000/svg" id="Layer_1" data-name="Layer 1" width="512" height="512" viewBox="0 0 24 24"><path d="M24,12.149c0-.484-.078-.963-.231-1.423l-1.339-4.017c-.341-1.022-1.294-1.709-2.372-1.709h-3.059v-1.5c0-1.378-1.122-2.5-2.5-2.5H2.5C1.122,1,0,2.122,0,3.5V20c0,1.654,1.346,3,3,3,1.043,0,1.962-.535,2.5-1.344,.538,.809,1.457,1.344,2.5,1.344,1.654,0,3-1.346,3-3v-1h5v1c0,1.654,1.346,3,3,3s3-1.346,3-3v-1h2v-6.851Zm-3.941-6.149c.646,0,1.218,.412,1.423,1.026l1.324,3.974h-5.806V6h3.059ZM1,3.5c0-.827,.673-1.5,1.5-1.5H14.5c.827,0,1.5,.673,1.5,1.5v14.5H1V3.5ZM3,22c-1.103,0-2-.897-2-2v-1H5v1c0,1.103-.897,2-2,2Zm7-2c0,1.103-.897,2-2,2s-2-.897-2-2v-1h4v1Zm11,0c0,1.103-.897,2-2,2s-2-.897-2-2v-1h4v1Zm2-2h-6v-6h5.997c.002,.05,.003,.099,.003,.149v5.851Z"/></svg>
