<?xml version="1.0" encoding="UTF-8"?>
<svg xmlns="http://www.w3.org/2000/svg" id="Layer_1" data-name="Layer 1" viewBox="0 0 24 24">
  <path d="m21.5,1H2.5C1.122,1,0,2.121,0,3.5v19.5h7v-.303c-.275-.222-.556-.44-.799-.697H1v-13h22v13h-5.201c-.244.257-.524.474-.799.697v.303h7V3.5c0-1.379-1.122-2.5-2.5-2.5ZM1,8V3.5c0-.827.673-1.5,1.5-1.5h19c.827,0,1.5.673,1.5,1.5v4.5H1Zm4-3c0,.552-.448,1-1,1s-1-.448-1-1,.448-1,1-1,1,.448,1,1Zm3,0c0,.552-.448,1-1,1s-1-.448-1-1,.448-1,1-1,1,.448,1,1Zm3,0c0,.552-.448,1-1,1s-1-.448-1-1,.448-1,1-1,1,.448,1,1Zm7,11.5c0,2.157-1.142,4.119-3,5.191v2.309h-1v-2.911l.272-.14c1.682-.86,2.728-2.565,2.728-4.449,0-1.595-.749-3.062-2-3.996v2.496c0,1.654-1.346,3-3,3s-3-1.346-3-3v-2.496c-1.251.935-2,2.401-2,3.996,0,1.884,1.045,3.589,2.728,4.449l.272.14v2.911h-1v-2.309c-1.858-1.072-3-3.034-3-5.191,0-2.261,1.254-4.308,3.272-5.34l.728-.372v4.212c0,1.103.897,2,2,2s2-.897,2-2v-4.212l.728.372c2.019,1.032,3.272,3.079,3.272,5.34Z"/>
</svg>
