<?xml version="1.0" encoding="UTF-8"?>
<svg xmlns="http://www.w3.org/2000/svg" id="Layer_1" data-name="Layer 1" viewBox="0 0 24 24">
  <path d="m22.618,1.382c-1.836-1.836-4.824-1.836-6.66,0L4.134,13.206c-1.166,1.166-1.236,3.646-1.071,5.609l-2.624,2.624c-.585.585-.585,1.536,0,2.121.283.283.66.439,1.061.439s.777-.156,1.061-.439l2.624-2.624c1.966.169,4.444.095,5.609-1.07l11.825-11.824c1.836-1.836,1.836-4.823,0-6.66Zm-.707,5.953l-11.825,11.824c-.72.721-2.559.999-5.043.761l-.234-.022-2.956,2.956c-.189.189-.518.189-.707,0-.094-.095-.146-.22-.146-.354s.052-.259.146-.354l2.956-2.956-.022-.234c-.237-2.483.041-4.322.761-5.043l1.183-1.183,2.623,2.623.707-.707-2.623-2.623,2.293-2.293,2.623,2.623.707-.707-2.623-2.623,2.293-2.293,2.623,2.623.707-.707-2.623-2.623,2.293-2.293,2.623,2.623.707-.707-2.623-2.623.934-.934c.723-.723,1.673-1.084,2.623-1.084s1.9.361,2.623,1.084c1.446,1.447,1.446,3.8,0,5.246Z"/>
</svg>
