<?xml version="1.0" encoding="UTF-8"?>
<svg xmlns="http://www.w3.org/2000/svg" id="Layer_1" data-name="Layer 1" width="512" height="512" viewBox="0 0 24 24"><path d="M15.363,12l1.312,2.288-.867,.497-1.308-2.28-1.308,2.28-.867-.497,1.312-2.288h-2.637v-1h2.637l-1.312-2.288,.867-.497,1.308,2.28,1.308-2.28,.867,.497-1.312,2.288h2.637v1h-2.637Zm-1.688,4.712l-.867-.497-1.308,2.28-1.308-2.28-.867,.497,1.312,2.288h-2.637v1h2.637l-1.312,2.288,.867,.497,1.308-2.28,1.308,2.28,.867-.497-1.312-2.288h2.637v-1h-2.637l1.312-2.288Zm3.328-11.689C15.87,2.004,12.999,0,9.75,0,5.477,0,2,3.477,2,7.75c0,.763,.116,1.523,.345,2.266-1.476,1.033-2.345,2.681-2.345,4.484,0,3.033,2.468,5.5,5.5,5.5h.5v-1h-.5c-2.481,0-4.5-2.019-4.5-4.5,0-1.583,.822-3.021,2.199-3.847l.354-.212-.142-.388c-.273-.752-.412-1.527-.412-2.304,0-3.722,3.028-6.75,6.75-6.75,2.931,0,5.51,1.874,6.417,4.662l.11,.338,.355,.007c3.511,.071,6.367,2.983,6.367,6.493,0,3.453-2.804,6.482-6,6.482v1c3.729,0,7-3.497,7-7.482,0-3.933-3.107-7.216-6.997-7.477Z"/></svg>
